<svg width="168" height="123" viewBox="0 0 168 123" fill="none" xmlns="http://www.w3.org/2000/svg">
<rect width="168" height="122.839" fill="#0057A5"/>
<path fill-rule="evenodd" clip-rule="evenodd" d="M87.7656 31.7807C87.7656 29.8253 86.1361 28.1958 84.1807 28.1958C82.2253 28.1958 80.5958 29.8253 80.5958 31.7807C80.5958 33.7361 82.2253 35.3656 84.1807 35.3656C86.1361 35.3656 87.7656 33.7361 87.7656 31.7807Z" fill="#FFEF1F"/>
<path fill-rule="evenodd" clip-rule="evenodd" d="M88.9606 18.6898C88.9606 21.297 86.8422 23.4697 84.1807 23.4697C81.5735 23.4697 79.4008 21.3513 79.4008 18.6898C79.4008 16.0826 81.5191 13.9099 84.1807 13.9099C86.7879 13.9099 88.9606 16.0283 88.9606 18.6898Z" fill="#FFEF1F"/>
<path fill-rule="evenodd" clip-rule="evenodd" d="M80.8673 37.8097C80.4328 36.2345 78.8033 35.2568 77.2281 35.6914C75.6529 36.1259 74.6752 37.7554 75.1097 39.3306C75.5442 40.9058 77.1738 41.8835 78.7489 41.4489C80.3785 41.0144 81.3018 39.3849 80.8673 37.8097Z" fill="#FFEF1F"/>
<path fill-rule="evenodd" clip-rule="evenodd" d="M78.9661 25.9686C78.3686 23.7416 76.0873 22.438 73.8603 23.0355C71.6333 23.633 70.3297 25.9143 70.9272 28.1413C71.5247 30.3683 73.806 31.6719 76.033 31.0744C78.2056 30.4769 79.5636 28.1956 78.9661 25.9686Z" fill="#FFEF1F"/>
<path fill-rule="evenodd" clip-rule="evenodd" d="M87.7656 91.4204C87.7656 93.3758 86.1361 95.0053 84.1807 95.0053C82.2253 95.0053 80.5958 93.3758 80.5958 91.4204C80.5958 89.465 82.2253 87.8354 84.1807 87.8354C86.1361 87.8354 87.7656 89.465 87.7656 91.4204Z" fill="#FFEF1F"/>
<path fill-rule="evenodd" clip-rule="evenodd" d="M88.9606 104.51C88.9606 101.903 86.8422 99.7305 84.1807 99.7305C81.5735 99.7305 79.4008 101.849 79.4008 104.51C79.4008 107.118 81.5191 109.29 84.1807 109.29C86.7879 109.29 88.9606 107.172 88.9606 104.51Z" fill="#FFEF1F"/>
<path fill-rule="evenodd" clip-rule="evenodd" d="M93.2513 83.8698C93.6858 85.445 92.7081 87.0745 91.1329 87.509C89.5577 87.9435 87.9282 86.9658 87.4937 85.3906C87.0591 83.8155 88.0369 82.1859 89.612 81.7514C91.1872 81.3169 92.8167 82.2946 93.2513 83.8698Z" fill="#FFEF1F"/>
<path fill-rule="evenodd" clip-rule="evenodd" d="M97.4883 95.0597C98.0858 97.2867 96.7822 99.568 94.5552 100.165C92.3282 100.763 90.0469 99.4594 89.4494 97.2324C88.8519 95.0054 90.1555 92.7241 92.3825 92.1266C94.5552 91.5291 96.8908 92.8327 97.4883 95.0597Z" fill="#FFEF1F"/>
<path fill-rule="evenodd" clip-rule="evenodd" d="M72.3939 34.0069C71.4162 32.3231 69.1892 31.7256 67.5054 32.7033C65.8215 33.681 65.224 35.908 66.2018 37.5919C67.1795 39.2757 69.4065 39.8732 71.0903 38.8955C72.7741 37.8634 73.3716 35.6908 72.3939 34.0069Z" fill="#FFEF1F"/>
<path fill-rule="evenodd" clip-rule="evenodd" d="M66.8534 22.0572C68.157 24.3385 67.3965 27.2717 65.1152 28.5753C62.8339 29.8789 59.9008 29.1184 58.5972 26.8371C57.2936 24.5558 58.054 21.6227 60.3353 20.3191C62.6166 18.9612 65.5498 19.7759 66.8534 22.0572Z" fill="#FFEF1F"/>
<path fill-rule="evenodd" clip-rule="evenodd" d="M69.4064 42.6436C68.2658 41.5029 66.3647 41.5029 65.1697 42.6436C64.0291 43.7842 64.0291 45.6853 65.1697 46.8803C66.3104 48.021 68.2115 48.021 69.4064 46.8803C70.6014 45.6853 70.6014 43.7842 69.4064 42.6436Z" fill="#FFEF1F"/>
<path fill-rule="evenodd" clip-rule="evenodd" d="M61.8562 33.3554C60.2267 31.7259 57.5652 31.7259 55.9357 33.3554C54.3062 34.9849 54.3062 37.6465 55.9357 39.276C57.5652 40.9055 60.2267 40.9055 61.8562 39.276C63.4857 37.6465 63.4857 34.9849 61.8562 33.3554Z" fill="#FFEF1F"/>
<path fill-rule="evenodd" clip-rule="evenodd" d="M102.214 85.6624C103.191 87.3462 102.594 89.5732 100.91 90.5509C99.2263 91.5286 96.9993 90.9311 96.0216 89.2473C95.0439 87.5635 95.6414 85.3365 97.3252 84.3588C99.0091 83.3267 101.182 83.9242 102.214 85.6624Z" fill="#FFEF1F"/>
<path fill-rule="evenodd" clip-rule="evenodd" d="M109.764 96.3632C108.46 94.0819 105.527 93.3214 103.246 94.625C100.964 95.9286 100.204 98.8617 101.508 101.143C102.811 103.424 105.744 104.185 108.026 102.881C110.307 101.578 111.067 98.6445 109.764 96.3632Z" fill="#FFEF1F"/>
<path fill-rule="evenodd" clip-rule="evenodd" d="M103.137 76.3745C104.278 77.5152 104.278 79.4163 103.137 80.6112C101.996 81.7519 100.095 81.7519 98.9003 80.6112C97.7597 79.4706 97.7597 77.5695 98.9003 76.3745C100.095 75.1795 101.996 75.1795 103.137 76.3745Z" fill="#FFEF1F"/>
<path fill-rule="evenodd" clip-rule="evenodd" d="M112.426 83.9245C114.055 85.554 114.055 88.2156 112.426 89.8451C110.796 91.4746 108.135 91.4746 106.505 89.8451C104.876 88.2156 104.876 85.554 106.505 83.9245C108.135 82.295 110.796 82.295 112.426 83.9245Z" fill="#FFEF1F"/>
<path fill-rule="evenodd" clip-rule="evenodd" d="M60.1183 43.5669C58.4344 42.5892 56.2074 43.1866 55.2297 44.8705C54.252 46.5543 54.8495 48.7813 56.5334 49.759C58.2172 50.7367 60.4442 50.1392 61.4219 48.4554C62.4539 46.7716 61.8564 44.5989 60.1183 43.5669Z" fill="#FFEF1F"/>
<path fill-rule="evenodd" clip-rule="evenodd" d="M49.4178 36.0171C51.6991 37.3207 52.4595 40.2538 51.1559 42.5351C49.8523 44.8165 46.9192 45.5769 44.6379 44.2733C42.3566 42.9697 41.5961 40.0366 42.8997 37.7553C44.2034 35.4739 47.1365 34.7135 49.4178 36.0171Z" fill="#FFEF1F"/>
<path fill-rule="evenodd" clip-rule="evenodd" d="M61.9106 52.5292C60.3354 52.0947 58.7059 53.0724 58.2714 54.6476C57.8369 56.2228 58.8146 57.8523 60.3898 58.2868C61.9649 58.7214 63.5944 57.7437 64.029 56.1685C64.4635 54.5933 63.4858 52.9638 61.9106 52.5292Z" fill="#FFEF1F"/>
<path fill-rule="evenodd" clip-rule="evenodd" d="M50.7214 48.2926C48.4944 47.6951 46.2131 48.9987 45.6156 51.2257C45.0181 53.4527 46.3217 55.734 48.5487 56.3315C50.7757 56.929 53.057 55.6254 53.6545 53.3984C54.252 51.2257 52.9484 48.8901 50.7214 48.2926Z" fill="#FFEF1F"/>
<path fill-rule="evenodd" clip-rule="evenodd" d="M111.774 73.3869C113.457 74.3646 114.055 76.5916 113.077 78.2755C112.099 79.9593 109.872 80.5568 108.189 79.5791C106.505 78.6014 105.907 76.3744 106.885 74.6905C107.917 73.0067 110.09 72.4092 111.774 73.3869Z" fill="#FFEF1F"/>
<path fill-rule="evenodd" clip-rule="evenodd" d="M123.723 78.9278C121.442 77.6242 118.509 78.3846 117.205 80.6659C115.902 82.9472 116.662 85.8803 118.943 87.1839C121.225 88.4875 124.158 87.7271 125.461 85.4458C126.819 83.1645 126.005 80.2314 123.723 78.9278Z" fill="#FFEF1F"/>
<path fill-rule="evenodd" clip-rule="evenodd" d="M107.971 64.9135C109.547 65.3481 110.524 66.9776 110.09 68.5528C109.655 70.1279 108.026 71.1056 106.451 70.6711C104.875 70.2366 103.898 68.6071 104.332 67.0319C104.767 65.4024 106.396 64.479 107.971 64.9135Z" fill="#FFEF1F"/>
<path fill-rule="evenodd" clip-rule="evenodd" d="M119.812 66.8144C122.039 67.4119 123.343 69.6932 122.746 71.9202C122.148 74.1472 119.867 75.4508 117.64 74.8533C115.413 74.2558 114.109 71.9745 114.707 69.7475C115.304 67.5748 117.585 66.2169 119.812 66.8144Z" fill="#FFEF1F"/>
<path fill-rule="evenodd" clip-rule="evenodd" d="M54.3605 58.0154C52.4051 58.0154 50.7755 59.6449 50.7755 61.6003C50.7755 63.5557 52.4051 65.1852 54.3605 65.1852C56.3159 65.1852 57.9454 63.5557 57.9454 61.6003C57.9454 59.6449 56.3159 58.0154 54.3605 58.0154Z" fill="#FFEF1F"/>
<path fill-rule="evenodd" clip-rule="evenodd" d="M41.2702 56.8206C43.8774 56.8206 46.05 58.9389 46.05 61.6004C46.05 64.2077 43.9317 66.3803 41.2702 66.3803C38.6629 66.3803 36.4903 64.262 36.4903 61.6004C36.4903 58.9932 38.6086 56.8206 41.2702 56.8206Z" fill="#FFEF1F"/>
<path fill-rule="evenodd" clip-rule="evenodd" d="M60.3898 64.9135C58.8146 65.3481 57.8369 66.9776 58.2714 68.5528C58.7059 70.1279 60.3354 71.1056 61.9106 70.6711C63.4858 70.2366 64.4635 68.6071 64.029 67.0319C63.5944 65.4024 61.9649 64.479 60.3898 64.9135Z" fill="#FFEF1F"/>
<path fill-rule="evenodd" clip-rule="evenodd" d="M48.5487 66.8144C46.3217 67.4119 45.0181 69.6932 45.6156 71.9202C46.2131 74.1472 48.4944 75.4508 50.7214 74.8533C52.9484 74.2558 54.252 71.9745 53.6545 69.7475C53.057 67.5748 50.7757 66.2169 48.5487 66.8144Z" fill="#FFEF1F"/>
<path fill-rule="evenodd" clip-rule="evenodd" d="M114.001 58.0154C115.956 58.0154 117.586 59.6449 117.586 61.6003C117.586 63.5557 115.956 65.1852 114.001 65.1852C112.045 65.1852 110.416 63.5557 110.416 61.6003C110.416 59.6449 112.045 58.0154 114.001 58.0154Z" fill="#FFEF1F"/>
<path fill-rule="evenodd" clip-rule="evenodd" d="M127.091 56.8206C124.484 56.8206 122.311 58.9389 122.311 61.6004C122.311 64.2077 124.429 66.3803 127.091 66.3803C129.698 66.3803 131.871 64.262 131.871 61.6004C131.871 58.9932 129.752 56.8206 127.091 56.8206Z" fill="#FFEF1F"/>
<path fill-rule="evenodd" clip-rule="evenodd" d="M106.451 52.5292C108.026 52.0947 109.655 53.0724 110.09 54.6476C110.524 56.2228 109.547 57.8523 107.971 58.2868C106.396 58.7214 104.767 57.7437 104.332 56.1685C103.898 54.5933 104.875 52.9638 106.451 52.5292Z" fill="#FFEF1F"/>
<path fill-rule="evenodd" clip-rule="evenodd" d="M117.64 48.2926C119.867 47.6951 122.148 48.9987 122.746 51.2257C123.343 53.4527 122.039 55.734 119.812 56.3315C117.585 56.929 115.304 55.6254 114.707 53.3984C114.109 51.2257 115.413 48.8901 117.64 48.2926Z" fill="#FFEF1F"/>
<path fill-rule="evenodd" clip-rule="evenodd" d="M56.5877 73.3869C54.9039 74.3646 54.3064 76.5916 55.2841 78.2755C56.2618 79.9593 58.4888 80.5568 60.1726 79.5791C61.8564 78.6014 62.4539 76.3744 61.4762 74.6905C60.4442 73.0067 58.2715 72.4092 56.5877 73.3869Z" fill="#FFEF1F"/>
<path fill-rule="evenodd" clip-rule="evenodd" d="M44.6379 78.9278C46.9192 77.6242 49.8523 78.3846 51.1559 80.6659C52.4595 82.9472 51.6991 85.8803 49.4178 87.1839C47.1365 88.4875 44.2034 87.7271 42.8997 85.4458C41.5418 83.1645 42.3566 80.2314 44.6379 78.9278Z" fill="#FFEF1F"/>
<path fill-rule="evenodd" clip-rule="evenodd" d="M65.2241 76.3745C64.0835 77.5152 64.0835 79.4163 65.2241 80.6112C66.3648 81.7519 68.2659 81.7519 69.4609 80.6112C70.6015 79.4706 70.6015 77.5695 69.4609 76.3745C68.2659 75.1795 66.3648 75.1795 65.2241 76.3745Z" fill="#FFEF1F"/>
<path fill-rule="evenodd" clip-rule="evenodd" d="M55.9357 83.9245C54.3062 85.554 54.3062 88.2156 55.9357 89.8451C57.5652 91.4746 60.2267 91.4746 61.8562 89.8451C63.4857 88.2156 63.4857 85.554 61.8562 83.9245C60.2267 82.295 57.5652 82.295 55.9357 83.9245Z" fill="#FFEF1F"/>
<path fill-rule="evenodd" clip-rule="evenodd" d="M108.243 43.5669C109.927 42.5892 112.154 43.1866 113.132 44.8705C114.109 46.5543 113.512 48.7813 111.828 49.759C110.144 50.7367 107.917 50.1392 106.94 48.4554C105.908 46.7716 106.505 44.5989 108.243 43.5669Z" fill="#FFEF1F"/>
<path fill-rule="evenodd" clip-rule="evenodd" d="M118.944 36.0171C116.662 37.3207 115.902 40.2538 117.205 42.5351C118.509 44.8165 121.442 45.5769 123.723 44.2733C126.005 42.9697 126.765 40.0366 125.462 37.7553C124.158 35.4739 121.225 34.7135 118.944 36.0171Z" fill="#FFEF1F"/>
<path fill-rule="evenodd" clip-rule="evenodd" d="M98.9548 42.6436C100.095 41.5029 101.997 41.5029 103.192 42.6436C104.332 43.7842 104.332 45.6853 103.192 46.8803C102.051 48.021 100.15 48.021 98.9548 46.8803C97.7599 45.6853 97.7599 43.7842 98.9548 42.6436Z" fill="#FFEF1F"/>
<path fill-rule="evenodd" clip-rule="evenodd" d="M106.505 33.3554C108.135 31.7259 110.796 31.7259 112.426 33.3554C114.055 34.9849 114.055 37.6465 112.426 39.276C110.796 40.9055 108.135 40.9055 106.505 39.276C104.876 37.6465 104.876 34.9849 106.505 33.3554Z" fill="#FFEF1F"/>
<path fill-rule="evenodd" clip-rule="evenodd" d="M66.1475 85.6624C65.1698 87.3462 65.7673 89.5732 67.4511 90.5509C69.1349 91.5286 71.3619 90.9311 72.3396 89.2473C73.3173 87.5635 72.7198 85.3365 71.036 84.3588C69.3522 83.3267 67.1795 83.9242 66.1475 85.6624Z" fill="#FFEF1F"/>
<path fill-rule="evenodd" clip-rule="evenodd" d="M58.5972 96.3632C59.9008 94.0819 62.8339 93.3214 65.1152 94.625C67.3965 95.9286 68.157 98.8617 66.8534 101.143C65.5498 103.424 62.6166 104.185 60.3353 102.881C58.054 101.578 57.2936 98.6445 58.5972 96.3632Z" fill="#FFEF1F"/>
<path fill-rule="evenodd" clip-rule="evenodd" d="M75.1097 83.8698C74.6751 85.445 75.6528 87.0745 77.228 87.509C78.8032 87.9435 80.4327 86.9658 80.8672 85.3906C81.3018 83.8155 80.3241 82.1859 78.7489 81.7514C77.1737 81.3169 75.5442 82.2946 75.1097 83.8698Z" fill="#FFEF1F"/>
<path fill-rule="evenodd" clip-rule="evenodd" d="M70.8729 95.0597C70.2754 97.2867 71.579 99.568 73.806 100.165C76.033 100.763 78.3143 99.4594 78.9118 97.2324C79.5092 95.0054 78.2056 92.7241 75.9786 92.1266C73.806 91.5291 71.4703 92.8327 70.8729 95.0597Z" fill="#FFEF1F"/>
<path fill-rule="evenodd" clip-rule="evenodd" d="M95.9674 34.0069C96.9451 32.3231 99.1721 31.7256 100.856 32.7033C102.54 33.681 103.137 35.908 102.16 37.5919C101.182 39.2757 98.9548 39.8732 97.271 38.8955C95.5872 37.8634 94.9897 35.6908 95.9674 34.0069Z" fill="#FFEF1F"/>
<path fill-rule="evenodd" clip-rule="evenodd" d="M101.508 22.0572C100.204 24.3385 100.964 27.2717 103.246 28.5753C105.527 29.8789 108.46 29.1184 109.764 26.8371C111.067 24.5558 110.307 21.6227 108.026 20.3191C105.744 18.9612 102.811 19.7759 101.508 22.0572Z" fill="#FFEF1F"/>
<path fill-rule="evenodd" clip-rule="evenodd" d="M87.4937 37.8097C87.9282 36.2345 89.5577 35.2568 91.1329 35.6914C92.7081 36.1259 93.6858 37.7554 93.2513 39.3306C92.8167 40.9058 91.1872 41.8835 89.612 41.4489C87.9825 41.0144 87.0591 39.3849 87.4937 37.8097Z" fill="#FFEF1F"/>
<path fill-rule="evenodd" clip-rule="evenodd" d="M89.3951 25.9686C89.9926 23.7416 92.2739 22.438 94.5009 23.0355C96.7279 23.633 98.0315 25.9143 97.434 28.1413C96.8366 30.3683 94.5552 31.6719 92.3282 31.0744C90.1556 30.4769 88.7976 28.1956 89.3951 25.9686Z" fill="#FFEF1F"/>
</svg>
