<svg width="22" height="22" viewBox="0 0 22 22" fill="none" xmlns="http://www.w3.org/2000/svg">
<g clip-path="url(#clip0)">
<path d="M20.0128 13.5122C20.3171 13.1724 20.5025 12.724 20.5025 12.2334C20.5025 11.1759 19.6419 10.3153 18.5844 10.3153H14.8615C15.2303 9.19638 15.3875 7.71175 15.3875 7.07536V6.43641C15.3875 5.02637 14.2401 3.87891 12.83 3.87891H12.1907C11.8974 3.87891 11.6417 4.07839 11.5705 4.36313L11.2222 5.75654C10.7342 7.70791 9.18475 9.8609 7.5812 10.2522C7.3003 9.54121 6.60679 9.03653 5.79691 9.03653H1.96066C1.60773 9.03653 1.32129 9.32297 1.32129 9.67591V21.1847C1.32129 21.5376 1.60773 21.824 1.96066 21.824H5.79691C6.55948 21.824 7.21931 21.3769 7.52834 20.7307L9.72523 21.463C10.4435 21.7026 11.192 21.824 11.9494 21.824H17.3057C18.3632 21.824 19.2238 20.9634 19.2238 19.9059C19.2238 19.6566 19.176 19.4179 19.0891 19.1992C19.9024 18.9771 20.5025 18.2316 20.5025 17.3484C20.5025 16.8578 20.3171 16.4094 20.0128 16.0697C20.3171 15.7299 20.5025 15.2815 20.5025 14.7909C20.5025 14.3003 20.3171 13.8519 20.0128 13.5122ZM6.43629 19.9059C6.43629 20.2584 6.14942 20.5453 5.79691 20.5453H2.60004V10.3153H5.79691C6.14942 10.3153 6.43629 10.6021 6.43629 10.9547V19.9059ZM17.3057 14.1515H18.5844C18.9369 14.1515 19.2238 14.4384 19.2238 14.7909C19.2238 15.1434 18.9369 15.4303 18.5844 15.4303H17.3057C16.9527 15.4303 16.6663 15.7167 16.6663 16.0697C16.6663 16.4226 16.9527 16.709 17.3057 16.709H18.5844C18.9369 16.709 19.2238 16.9959 19.2238 17.3484C19.2238 17.7009 18.9369 17.9878 18.5844 17.9878H17.3057C16.9527 17.9878 16.6663 18.2742 16.6663 18.6272C16.6663 18.9801 16.9527 19.2665 17.3057 19.2665C17.6582 19.2665 17.945 19.5534 17.945 19.9059C17.945 20.2584 17.6582 20.5453 17.3057 20.5453H11.9494C11.3296 20.5453 10.7171 20.446 10.1293 20.2499L7.71504 19.4451V11.5335C8.71801 11.343 9.69966 10.7079 10.5858 9.66823C11.4511 8.65291 12.1527 7.30681 12.4626 6.06685L12.6898 5.15766H12.83C13.5351 5.15766 14.1088 5.73139 14.1088 6.43641V7.07536C14.1088 7.93382 13.8403 9.58043 13.4967 10.3153H12.1907C11.8377 10.3153 11.5513 10.6017 11.5513 10.9547C11.5513 11.3076 11.8377 11.594 12.1907 11.594H18.5844C18.9369 11.594 19.2238 11.8809 19.2238 12.2334C19.2238 12.5859 18.9369 12.8728 18.5844 12.8728H17.3057C16.9527 12.8728 16.6663 13.1592 16.6663 13.5122C16.6663 13.8651 16.9527 14.1515 17.3057 14.1515Z" fill="#0057A5"/>
<path d="M13.4695 0C13.1163 0 12.8301 0.286269 12.8301 0.639375V1.96075C12.8301 2.31386 13.1163 2.60012 13.4695 2.60012C13.8226 2.60012 14.1088 2.31386 14.1088 1.96075V0.639375C14.1088 0.286269 13.8226 0 13.4695 0Z" fill="#0057A5"/>
<path d="M10.7569 2.8195L9.85271 1.9153C9.60305 1.6656 9.1982 1.6656 8.9485 1.9153C8.69881 2.165 8.69881 2.56981 8.9485 2.8195L9.85271 3.72371C10.1024 3.97336 10.5073 3.97341 10.7569 3.72371C11.0066 3.47401 11.0066 3.0692 10.7569 2.8195Z" fill="#0057A5"/>
<path d="M17.9906 1.9153C17.7409 1.6656 17.3361 1.6656 17.0864 1.9153L16.1821 2.81946C15.9324 3.06916 15.9324 3.47397 16.1821 3.72367C16.4318 3.97336 16.8367 3.97341 17.0864 3.72371L17.9906 2.8195C18.2403 2.56981 18.2403 2.165 17.9906 1.9153Z" fill="#0057A5"/>
</g>
<defs>
<clipPath id="clip0">
<rect width="21.824" height="21.824" fill="white"/>
</clipPath>
</defs>
</svg>
