<svg width="22" height="22" viewBox="0 0 22 22" fill="none" xmlns="http://www.w3.org/2000/svg">
<g clip-path="url(#clip0)">
<path d="M20.0128 13.5122C20.3171 13.1724 20.5025 12.724 20.5025 12.2334C20.5025 11.1759 19.6419 10.3153 18.5844 10.3153H14.8615C15.2303 9.19638 15.3875 7.71175 15.3875 7.07536V6.43641C15.3875 5.02637 14.2401 3.87891 12.83 3.87891H12.1907C11.8974 3.87891 11.6417 4.07839 11.5705 4.36313L11.2222 5.75654C10.7342 7.70791 9.18475 9.8609 7.5812 10.2522C7.3003 9.54121 6.60679 9.03653 5.79691 9.03653H1.96066C1.60773 9.03653 1.32129 9.32297 1.32129 9.67591V21.1847C1.32129 21.5376 1.60773 21.824 1.96066 21.824H5.79691C6.55948 21.824 7.21931 21.3769 7.52834 20.7307L9.72523 21.463C10.4435 21.7026 11.192 21.824 11.9494 21.824H17.3057C18.3632 21.824 19.2238 20.9634 19.2238 19.9059C19.2238 19.6566 19.176 19.4179 19.0891 19.1992C19.9024 18.9771 20.5025 18.2316 20.5025 17.3484C20.5025 16.8578 20.3171 16.4094 20.0128 16.0697C20.3171 15.7299 20.5025 15.2815 20.5025 14.7909C20.5025 14.3003 20.3171 13.8519 20.0128 13.5122Z" fill="#0057A5"/>
<path d="M13.4695 0C13.1163 0 12.8301 0.286269 12.8301 0.639375V1.96075C12.8301 2.31386 13.1163 2.60012 13.4695 2.60012C13.8226 2.60012 14.1088 2.31386 14.1088 1.96075V0.639375C14.1088 0.286269 13.8226 0 13.4695 0Z" fill="#0057A5"/>
<path d="M10.7569 2.8195L9.85271 1.9153C9.60305 1.6656 9.1982 1.6656 8.9485 1.9153C8.69881 2.165 8.69881 2.56981 8.9485 2.8195L9.85271 3.72371C10.1024 3.97336 10.5073 3.97341 10.7569 3.72371C11.0066 3.47401 11.0066 3.0692 10.7569 2.8195Z" fill="#0057A5"/>
<path d="M17.9903 1.9153C17.7407 1.6656 17.3358 1.6656 17.0861 1.9153L16.1819 2.81946C15.9322 3.06916 15.9322 3.47397 16.1819 3.72367C16.4316 3.97336 16.8364 3.97341 17.0861 3.72371L17.9903 2.8195C18.24 2.56981 18.24 2.165 17.9903 1.9153Z" fill="#0057A5"/>
</g>
<defs>
<clipPath id="clip0">
<rect width="21.824" height="21.824" fill="white"/>
</clipPath>
</defs>
</svg>
