<svg width="1178" height="1032" viewBox="0 0 1178 1032" fill="none" xmlns="http://www.w3.org/2000/svg">
<g style="mix-blend-mode:lighten" opacity="0.2">
<path d="M610.437 958.728C610.437 958.728 619.585 957.674 634.587 958.025C641.906 958.025 650.688 958.728 660.567 959.08C670.081 959.08 680.692 959.431 692.036 960.486C703.379 961.892 715.088 963.299 727.163 964.705C739.238 966.463 751.679 969.275 764.12 973.143C788.27 979.471 812.786 991.073 832.545 1011.11C832.545 1011.11 822.3 1015.68 805.834 1020.6C789.734 1026.23 766.315 1030.45 741.068 1031.15C716.186 1032.21 688.742 1026.58 665.69 1015.68C642.272 1003.38 622.512 984.744 610.437 958.728ZM645.199 955.564C645.199 955.564 647.394 955.213 651.785 954.158C655.81 953.455 661.665 951.697 668.617 948.884C682.156 943.259 700.817 935.876 717.649 921.814C752.411 896.149 778.025 849.742 760.095 797.358C760.095 797.358 754.24 800.874 745.458 807.905C737.042 814.937 724.602 823.726 712.526 837.437C687.279 861.695 657.274 898.962 645.199 955.564ZM871.698 966.463C895.116 960.135 915.241 949.939 929.878 942.556C943.782 933.767 952.198 927.439 952.198 927.439C929.146 913.727 904.264 909.86 879.382 908.102C866.941 907.399 855.232 908.102 843.523 909.509C831.448 910.212 820.104 911.618 809.493 913.727C788.636 918.298 768.877 921.11 755.704 925.329C749.118 927.439 743.263 928.845 739.604 929.548C735.579 930.603 733.383 931.306 733.383 931.306C768.145 974.901 824.861 978.768 871.698 966.463ZM765.218 920.056C765.218 920.056 773.268 916.188 785.343 908.805C797.052 900.719 811.688 888.063 825.227 872.594C851.207 839.898 865.843 793.491 837.302 748.842C837.302 748.842 832.911 753.764 825.959 761.498C819.007 769.233 810.591 781.889 801.077 795.952C796.32 802.983 792.295 811.421 787.904 820.21C783.513 828.648 779.122 838.14 775.829 848.336C768.877 869.781 763.754 892.633 765.218 920.056ZM980.739 879.977C991.351 874.703 1000.86 868.727 1009.65 863.101C1017.7 856.773 1025.01 850.797 1031.24 845.523C1043.31 834.976 1049.9 827.593 1049.9 827.593C1024.28 819.507 998.669 820.21 975.251 824.78C951.466 828.999 929.146 836.734 909.753 844.82C889.262 852.203 873.527 862.047 860.721 867.32C848.28 873.297 840.961 878.219 840.961 878.219C883.041 910.563 939.026 902.126 980.739 879.977ZM868.405 861.344C868.405 861.344 875.357 855.719 884.505 845.523C889.262 840.601 894.384 834.624 899.873 827.593C904.996 820.21 909.753 812.124 914.144 803.335C932.439 768.178 935.001 721.068 898.044 685.208C898.044 685.208 894.384 690.481 889.993 699.622C885.968 709.466 878.65 721.068 874.259 737.24C868.771 752.709 863.648 770.99 861.818 791.733C859.623 812.476 860.721 836.031 868.405 861.344ZM1068.92 779.428C1087.22 764.662 1101.12 748.139 1111 736.185C1120.15 723.529 1124.54 714.739 1124.54 714.739C1097.47 712.63 1072.95 718.958 1049.9 727.747C1038.55 732.318 1027.94 737.591 1018.43 743.568C1007.82 748.842 998.303 754.818 989.521 760.795C972.689 773.1 956.589 783.998 946.344 793.139C936.098 802.28 929.146 807.905 929.146 807.905C978.544 829.351 1031.6 808.608 1068.92 779.428ZM952.198 784.702C952.198 784.702 957.687 778.022 965.371 766.772C971.957 755.17 980.008 738.295 984.764 720.013C993.546 681.692 985.496 636.691 940.489 609.62C940.489 609.62 940.123 611.027 939.391 613.839C938.294 616.3 937.196 620.167 935.732 625.089C933.171 634.582 931.341 648.996 929.146 664.817C928.414 672.903 928.048 681.692 928.414 691.184C928.048 700.325 928.414 709.818 929.878 720.013C933.537 740.404 939.025 762.201 952.198 784.702ZM1074.05 707.357C1094.9 696.809 1115.03 681.34 1127.84 663.762C1141.74 646.887 1152.35 629.308 1157.47 615.949C1163.33 602.589 1165.89 593.8 1165.89 593.8C1139.18 596.612 1116.86 606.808 1098.56 619.816C1078.44 632.121 1063.07 647.59 1048.8 662.004C1034.16 676.067 1024.28 690.481 1015.14 700.325C1006.72 710.521 1002.33 717.2 1002.33 717.2C1027.58 722.122 1052.82 717.904 1074.05 707.357ZM1019.16 692.239C1019.16 692.239 1022.82 684.856 1026.48 672.551C1030.5 660.598 1034.89 643.723 1034.16 625.441C1033.8 616.3 1033.43 606.808 1030.87 597.667C1027.94 588.175 1024.28 579.034 1019.16 570.596C1009.28 553.721 991.351 539.658 967.567 530.869C967.567 530.869 966.835 536.846 967.567 546.69C966.835 556.182 967.201 569.542 970.128 585.362C971.226 600.48 975.982 618.41 983.301 636.691C989.521 654.621 1001.23 673.958 1019.16 692.239ZM1116.13 597.315C1124.91 590.284 1133.69 582.55 1140.64 573.76C1147.23 564.971 1152.72 555.83 1157.47 546.69C1167.72 528.408 1171.38 510.126 1174.31 496.767C1176.87 483.407 1177.23 474.618 1177.23 474.618C1152.35 482.001 1133.32 495.361 1118.32 510.83C1104.05 526.299 1090.15 543.525 1081.36 559.698C1071.85 575.87 1063.07 590.987 1058.31 602.237C1056.12 607.863 1053.56 612.433 1052.09 615.597C1050.63 618.761 1049.9 620.519 1049.9 620.519C1076.24 620.167 1098.2 611.378 1116.13 597.315ZM1059.78 593.8C1059.78 593.8 1061.61 586.065 1062.7 574.112C1064.53 562.159 1062.34 545.283 1059.04 528.056C1055.39 510.83 1045.14 492.9 1032.33 478.837C1018.79 464.774 998.669 454.227 974.519 450.36C974.519 450.36 977.446 473.563 988.058 502.04C994.644 516.455 1000.13 532.275 1012.57 548.447C1024.28 564.268 1037.82 580.089 1059.78 593.8ZM1154.55 435.242C1158.94 417.312 1159.3 400.085 1159.3 387.78C1158.21 375.476 1156.74 367.389 1156.74 367.389C1136.25 377.585 1122.71 392.702 1111.37 409.226C1105.88 417.312 1101.49 425.75 1098.2 434.188C1094.17 442.625 1090.88 451.063 1087.95 459.149C1083.19 475.321 1078.07 490.439 1076.24 501.337C1074.05 512.236 1073.31 519.267 1073.31 519.267C1119.05 509.072 1145.77 471.102 1154.55 435.242ZM1075.88 493.251C1075.88 493.251 1075.88 486.22 1074.78 474.969C1072.95 464.071 1068.92 448.953 1061.61 433.836C1046.24 403.601 1015.87 375.475 969.396 376.53C969.396 376.53 971.592 381.804 974.885 390.241C978.178 398.679 984.764 409.578 992.083 421.883C995.742 428.211 1000.5 434.539 1005.99 440.867C1010.74 447.196 1016.6 453.875 1023.55 460.204C1037.46 472.86 1053.56 484.813 1075.88 493.251ZM1130.4 336.803C1131.13 319.576 1128.93 303.404 1125.64 292.154C1122.71 280.552 1120.15 273.521 1120.15 273.521C1103.32 286.177 1093.07 302.349 1086.85 318.873C1079.54 335.748 1076.97 352.975 1074.78 368.796C1071.12 400.437 1072.95 426.805 1072.95 426.805C1113.57 410.281 1129.67 371.608 1130.4 336.803ZM1070.39 402.546C1070.39 402.546 1068.92 395.867 1065.26 386.023C1061.61 376.179 1055.39 362.819 1045.51 350.163C1026.48 324.498 992.814 302.701 950.735 310.435C950.735 310.435 953.296 315.357 958.419 322.389C963.542 329.42 970.128 339.615 980.008 349.459C988.789 360.006 1001.23 370.554 1015.87 380.397C1030.14 389.89 1048.43 398.327 1070.39 402.546ZM1086.85 300.24C1092.71 284.068 1092.71 266.489 1090.15 250.669C1085.39 218.676 1070.39 194.066 1070.39 194.066C1044.41 222.192 1043.68 258.755 1045.87 288.286C1046.97 303.052 1048.8 316.412 1051.36 326.256C1053.56 335.748 1054.65 342.077 1054.65 342.077C1071.49 331.178 1081.73 316.412 1086.85 300.24ZM1047.7 319.928C1047.7 319.928 1038.19 296.021 1015.87 274.927C1005.26 264.38 990.619 255.591 975.251 250.317C959.151 245.395 941.587 245.043 923.291 251.372C923.291 251.372 926.219 255.591 932.073 261.567C938.294 267.544 945.612 275.63 956.223 284.068C977.08 299.888 1006.35 318.17 1047.7 319.928ZM1040.02 177.542C1035.63 163.128 1028.67 151.175 1023.55 142.385C1018.43 133.596 1014.04 128.674 1014.04 128.674C995.01 157.854 999.767 191.605 1005.99 218.676C1010.01 232.035 1013.31 244.34 1016.96 252.778C1020.26 261.216 1023.19 266.489 1023.19 266.489C1048.8 241.528 1049.53 206.019 1040.02 177.542ZM1012.57 246.801C1012.57 246.801 1009.28 241.528 1003.79 234.496C997.571 227.465 988.424 218.324 977.08 209.887C965.371 202.152 951.466 195.121 936.83 192.308C921.462 189.847 905.728 191.605 889.628 199.691C889.628 199.691 892.921 203.207 899.141 208.129C905.362 212.699 913.778 219.379 924.389 225.707C945.978 238.364 975.617 251.02 1012.57 246.801ZM984.764 118.479C979.276 105.822 971.226 95.9783 965.737 88.5954C959.882 81.2124 955.857 76.9936 955.857 76.9936C941.953 106.174 950.735 135.706 959.882 159.612C965.005 171.214 970.128 181.761 974.519 189.144C978.91 196.527 981.837 200.746 981.837 200.746C1001.23 175.081 996.474 143.089 984.764 118.479ZM970.128 184.574C970.128 184.574 966.835 180.355 960.614 174.378C954.028 168.753 944.514 161.722 933.537 155.393C910.85 143.44 880.846 137.815 854.134 156.097C854.134 156.097 868.405 166.644 888.896 176.136C909.753 185.277 937.928 193.011 970.128 184.574ZM928.78 71.3685C922.56 60.4698 914.875 52.0322 908.655 46.4071C902.8 40.4304 898.409 37.2663 898.409 37.2663C894.018 50.9775 894.384 64.6887 897.678 77.3452C900.605 90.0016 905.728 101.955 911.948 112.15C918.169 121.994 923.657 131.487 928.414 137.463C933.171 143.792 936.464 147.307 936.464 147.307C950.003 121.291 942.319 92.111 928.78 71.3685ZM924.023 133.245C924.023 133.245 920.364 129.729 914.144 125.159C907.923 120.588 898.409 115.315 887.432 111.096C865.843 102.658 838.4 100.549 816.445 119.885C816.445 119.885 820.104 121.994 825.959 124.807C831.814 127.971 840.229 131.487 850.109 134.299C869.502 140.979 896.214 144.846 924.023 133.245ZM874.625 36.5632C867.673 28.1255 860.355 21.0941 854.866 16.1722C849.377 11.2502 845.352 9.1408 845.352 9.1408C840.23 34.4538 851.573 57.6573 864.014 74.181C869.868 82.9703 876.455 90.0016 881.212 94.9236C886.334 99.8456 889.262 103.01 889.262 103.01C898.409 78.0483 887.798 53.79 874.625 36.5632ZM832.911 40.0788C821.934 30.9381 810.591 24.2583 800.711 19.6879C779.854 11.6018 764.852 10.8986 764.852 10.8986C774 25.313 784.611 35.5085 794.857 43.9461C805.102 52.7353 816.079 58.712 825.593 63.634C835.107 68.5559 843.889 72.0716 850.109 74.181C856.695 76.2904 860.355 77.3452 860.355 77.3452C853.402 61.8761 843.523 49.9228 832.911 40.0788ZM876.821 92.111C876.821 92.111 873.161 89.6501 866.941 86.1344C860.721 82.6187 852.67 78.3999 842.425 75.9389C822.666 70.3138 798.15 71.3685 780.952 90.7048C780.952 90.7048 784.245 92.4626 789.734 94.572C795.588 96.3299 803.272 98.7908 812.054 100.9C830.35 104.064 853.768 105.822 876.821 92.111ZM532.132 891.227C518.959 871.891 503.957 858.531 490.784 846.226C477.612 833.921 464.805 826.187 455.657 819.155C446.509 812.827 440.289 810.015 440.289 810.015C433.702 836.734 436.995 860.641 446.875 882.086C451.998 891.93 458.584 901.071 466.268 909.509C473.952 918.298 482.368 925.329 491.516 930.954C500.298 936.931 509.446 941.853 518.228 946.072C527.01 949.939 535.06 952.049 542.378 954.158C556.648 958.025 565.796 959.783 565.796 959.783C558.112 931.657 545.671 908.805 532.132 891.227ZM531.4 954.158C531.4 954.158 529.205 953.806 524.814 953.806C520.423 953.806 514.569 953.103 507.25 952.4C492.614 950.994 472.123 951.345 449.802 950.642C404.429 952.4 348.811 954.158 305.633 990.369C305.633 990.369 315.513 995.643 331.613 1002.32C347.713 1009 371.131 1014.28 395.647 1017.79C446.509 1021.31 504.323 1006.19 531.4 954.158ZM398.209 810.718C388.329 796.655 378.815 785.053 371.131 778.022C364.179 769.936 359.056 765.365 359.056 765.365C346.615 788.569 344.054 812.124 349.177 832.867C351.738 843.414 355.397 853.609 360.52 863.101C366.009 872.242 372.595 880.68 379.181 888.414C392.72 904.587 409.186 914.079 420.895 922.165C426.75 926.032 432.238 928.493 435.898 929.9C439.557 931.306 441.752 932.361 441.752 932.361C440.654 878.219 418.334 838.14 398.209 810.718ZM411.747 919.001C411.747 919.001 403.332 915.485 389.793 911.618C376.254 907.048 357.958 901.071 336.37 896.5C294.656 886.305 240.867 877.516 192.567 900.719C192.567 900.719 200.251 908.102 214.521 916.54C228.792 925.329 247.819 937.283 271.238 944.314C282.947 948.181 295.022 951.345 307.097 953.103C319.904 954.509 332.711 954.509 344.786 952.752C369.302 950.642 393.086 938.689 411.747 919.001ZM320.636 755.873C317.342 748.138 314.049 741.459 310.756 735.482C307.829 729.154 304.901 723.529 302.34 719.31C297.217 710.521 292.826 705.599 292.826 705.599C275.994 724.583 269.042 745.326 268.31 766.42C267.944 787.163 275.263 807.202 284.776 824.78C295.388 841.304 306.731 856.422 317.342 865.211C327.588 874.352 334.906 879.625 334.906 879.625C346.249 827.945 332.711 786.811 320.636 755.873ZM308.56 860.289C308.56 860.289 301.608 855.015 289.533 847.984C283.678 844.468 276.36 840.25 267.944 836.382C260.26 831.812 251.478 826.89 241.599 822.32C202.812 804.741 154.512 784.702 102.187 796.303C102.187 796.303 108.407 804.038 119.384 815.64C129.996 827.241 147.925 840.601 167.685 852.906C188.176 864.508 212.326 874 236.476 876.461C261.724 878.571 286.24 874.352 308.56 860.289ZM260.626 686.614C258.065 670.442 254.772 656.731 251.112 647.59C248.551 637.746 245.99 632.121 245.99 632.121C224.767 647.238 211.594 666.223 207.203 685.911C204.642 695.755 203.91 706.302 203.91 716.497C205.008 726.341 206.837 736.185 209.764 745.326C214.521 764.662 225.133 779.78 232.451 791.03C239.769 802.632 246.356 808.608 246.356 808.608C268.676 761.498 266.115 718.255 260.626 686.614ZM224.767 783.998C224.767 783.998 218.912 777.67 208.301 768.529C198.421 759.037 184.517 746.381 167.319 733.724C134.021 708.06 90.1114 679.231 35.2248 679.934C35.2248 679.934 36.3225 682.044 38.1521 685.911C40.3475 689.778 43.6407 695.052 48.0316 701.38C56.8135 714.036 68.8886 731.615 87.1841 747.084C95.966 754.818 105.48 762.553 116.091 768.881C127.069 775.209 138.412 780.483 150.487 783.998C173.173 792.436 199.519 792.788 224.767 783.998ZM215.253 608.214C216.717 592.745 215.253 579.385 215.253 569.542C214.887 559.698 213.424 554.072 213.424 554.072C190.371 563.916 174.271 579.034 164.391 596.612C155.975 613.839 151.95 633.879 153.414 652.16C155.244 670.09 158.537 687.669 164.391 698.919C169.514 710.521 173.539 717.904 173.539 717.904C205.739 679.583 212.326 639.504 215.253 608.214ZM158.171 691.536C158.171 691.536 154.146 684.505 146.828 673.606C139.144 663.059 128.166 648.645 116.091 633.527C109.871 625.793 101.821 618.41 94.5024 610.675C87.1841 602.941 78.7682 595.558 69.6204 588.878C50.5931 575.518 30.102 563.916 3.75642 559.698C3.75642 559.698 5.58594 568.487 9.61097 582.198C15.0996 595.558 23.5156 613.488 35.5907 631.418C49.4953 648.644 65.5954 666.223 86.8183 677.473C108.407 688.372 132.191 694.7 158.171 691.536ZM169.88 573.057C175.003 564.62 178.662 556.533 182.321 548.799C185.98 540.713 188.908 532.978 191.103 525.595C194.762 511.181 198.421 498.173 199.885 488.681C201.348 479.188 201.348 473.563 201.348 473.563C177.198 478.837 159.269 490.087 145.73 505.204C131.459 520.322 126.337 538.252 121.946 555.83C118.287 573.409 120.116 589.932 121.214 601.886C121.58 607.862 123.043 612.784 124.141 616.3C125.239 619.464 125.605 621.574 125.605 621.574C144.998 606.808 159.269 589.581 169.88 573.057ZM117.555 593.448C117.555 593.448 115.359 586.065 110.237 574.463C104.382 563.213 99.9911 547.393 90.1114 530.869C80.5978 514.345 71.45 496.415 56.0817 480.243C41.4452 464.071 24.6134 449.657 0.0973086 440.867C0.0973086 440.867 -2.09818 476.024 14.3678 513.642C21.3201 532.627 35.9566 551.26 52.0567 566.026C69.2545 581.143 92.3069 590.987 117.555 593.448ZM181.589 444.383C188.907 431.727 194.03 420.125 196.592 411.687C200.251 403.249 201.714 397.976 201.714 397.976C178.662 398.679 159.269 406.062 144.998 417.664C137.68 423.289 131.459 429.969 125.605 437.352C120.482 444.383 116.457 452.118 113.164 459.852C105.846 474.97 104.382 490.087 102.918 501.337C101.821 512.587 101.821 519.619 101.821 519.619C146.096 500.282 166.953 469.696 181.589 444.383ZM101.455 493.251C101.455 493.251 100.723 486.22 98.5274 474.969C97.0638 463.719 94.5024 448.602 89.7456 432.078C80.9637 399.382 65.9613 359.655 27.1747 336.803C27.1747 336.803 24.6133 344.537 23.5156 357.194C22.7838 369.85 20.9542 386.726 25.3452 405.007C27.1747 414.148 29.7361 423.289 33.0293 432.43C37.0543 441.57 42.1771 450.36 48.3976 458.094C60.1067 474.266 78.7682 486.923 101.455 493.251ZM190.005 369.85C198.787 359.303 205.008 349.108 210.13 341.725C214.521 334.342 216.717 329.42 216.717 329.42C195.494 326.959 177.198 330.826 161.098 339.264C146.096 347.702 132.923 360.358 124.141 373.366C105.846 399.734 102.187 427.156 102.187 427.156C146.096 416.258 172.076 391.296 190.005 369.85ZM106.577 402.898C106.577 402.898 107.675 396.218 108.407 385.671C108.773 375.124 109.139 360.71 108.407 344.537C105.846 312.545 100.357 273.872 68.8886 246.801C68.8886 246.801 65.5954 253.833 61.9363 265.083C58.2772 276.333 55.3499 292.505 54.6181 309.732C54.984 327.311 57.1794 345.592 65.5954 362.467C74.0114 378.991 86.8182 393.054 106.577 402.898ZM173.539 326.959C187.81 319.576 200.251 310.435 210.496 301.998C230.255 284.771 241.599 267.895 241.599 267.895C203.91 256.997 171.344 273.872 150.121 295.669C139.509 306.568 132.557 318.17 127.434 326.959C122.678 335.748 120.848 341.725 120.848 341.725C141.339 340.319 158.903 334.342 173.539 326.959ZM129.264 319.928C129.264 319.928 136.948 296.373 140.973 266.489C142.803 251.372 144.266 235.2 141.339 218.676C139.144 202.152 133.655 185.628 121.58 171.214C121.58 171.214 117.555 177.191 112.798 187.035C107.309 196.879 102.187 210.941 98.8933 226.762C91.941 258.755 97.0637 296.724 129.264 319.928ZM240.135 241.528C250.381 234.496 259.162 228.168 264.651 222.895C270.14 217.621 273.799 214.105 273.799 214.105C241.599 199.34 209.033 210.59 187.078 228.168C175.369 236.254 167.319 246.45 161.464 253.833C155.61 261.216 152.682 266.489 152.682 266.489C190.737 268.95 219.278 254.887 240.135 241.528ZM164.391 247.153C164.391 247.153 167.319 241.879 170.612 233.442C174.637 225.004 179.394 213.402 183.053 199.691C187.444 186.331 190.737 171.214 190.737 155.745C191.469 140.628 188.542 124.455 179.394 109.338C179.394 109.338 175.003 114.26 169.148 122.698C162.928 131.135 156.341 143.44 151.219 157.503C140.607 185.628 138.778 221.137 164.391 247.153ZM274.897 189.144C284.776 183.87 293.924 179.3 299.413 174.73C305.267 170.511 308.56 167.698 308.56 167.698C281.849 151.175 251.478 157.151 229.524 170.511C218.18 176.488 209.399 184.574 203.178 190.55C196.958 196.527 193.664 200.746 193.664 200.746C226.962 208.129 254.406 198.988 274.897 189.144ZM206.837 184.925C206.837 184.925 210.13 180.355 214.521 173.323C219.278 166.292 225.133 156.097 230.255 144.495C240.867 121.291 250.015 91.4079 238.306 62.2277C238.306 62.2277 220.376 78.0483 207.935 102.307C194.762 126.565 188.176 158.206 206.837 184.925ZM313.683 145.549C323.197 142.034 331.613 137.815 337.467 135.002C343.322 131.838 346.615 129.729 346.615 129.729C335.272 120.588 322.831 116.721 310.39 116.018C297.949 115.666 285.874 119.182 275.263 123.401C264.285 127.619 255.869 133.948 249.283 138.518C243.062 143.089 239.403 146.604 239.403 146.604C267.944 157.503 293.558 151.878 313.683 145.549ZM252.942 133.948C252.942 133.948 256.235 130.432 261.358 124.104C266.115 117.776 273.067 109.689 278.922 99.494C290.997 79.4546 302.706 53.0869 295.022 24.9614C295.022 24.9614 290.631 27.7739 284.41 33.7506C278.556 39.7273 270.506 48.1649 263.553 58.0089C249.649 79.103 239.769 106.877 252.942 133.948ZM351.738 108.986C360.886 106.877 368.57 104.064 374.059 101.955C379.547 99.494 382.84 98.0877 382.84 98.0877C364.545 79.4546 340.395 79.8061 320.636 85.4312C311.122 88.5953 302.34 92.8142 296.485 96.3299C290.265 99.494 286.972 102.658 286.972 102.658C310.024 114.963 333.808 113.205 351.738 108.986ZM361.984 71.3685C374.424 67.1496 385.036 61.5245 393.452 55.8994C411.016 45.7039 420.895 34.4537 420.895 34.4537C405.527 31.9928 390.525 33.0475 377.718 36.9147C364.911 41.1336 353.568 47.1102 344.786 53.79C336.004 60.8214 329.417 67.5012 325.026 72.4232C320.636 77.3452 318.44 81.2124 318.44 81.2124C335.272 79.4546 349.908 76.2904 361.984 71.3685ZM299.779 92.4626C299.779 92.4626 303.072 89.6501 308.195 84.7281C313.317 79.8061 319.538 72.4232 326.124 64.6887C338.565 47.8134 351.372 25.6645 346.981 0C346.981 0 342.956 2.46097 337.102 6.6798C331.247 10.8986 323.563 17.5785 316.976 26.3677C302.706 43.243 291.729 67.8528 299.779 92.4626Z" fill="url(#paint0_linear)"/>
<path opacity="0.5" d="M862.55 105.119C852.305 108.635 842.059 109.69 832.546 109.69C827.057 112.151 821.568 115.315 816.08 119.885C816.08 119.885 817.909 120.94 821.568 122.698C842.425 107.58 867.307 109.69 887.432 117.424C898.044 121.643 907.557 126.916 914.144 131.487C915.607 132.541 917.071 133.948 918.535 135.002C919.632 134.651 920.73 134.299 921.828 133.948C920.73 132.19 919.632 130.432 918.535 128.674C917.071 127.62 915.607 126.565 914.144 125.159C907.923 120.588 898.41 115.315 887.432 111.096C879.748 108.283 871.332 106.174 862.55 105.119Z" fill="#A37415"/>
<path opacity="0.5" d="M860.721 83.673C860.721 83.673 856.696 82.6183 850.475 80.5089C846.084 79.1026 840.23 76.9932 834.375 74.1807C816.445 71.0166 795.954 74.1807 780.952 90.7044C780.952 90.7044 782.782 91.7591 786.075 92.8138C803.273 78.0479 824.861 77.6964 842.791 82.6183C853.037 85.0793 861.453 89.2981 867.307 92.8138C868.771 93.517 869.868 94.2201 870.966 94.9233C872.064 94.5717 872.796 93.8685 873.893 93.517C872.43 91.7591 870.6 89.2981 869.137 87.1887C868.405 86.8371 868.039 86.4856 866.941 86.134C865.112 85.0793 862.55 84.0246 859.989 82.6183C860.355 82.9699 860.355 83.3215 860.721 83.673Z" fill="#A37415"/>
<path opacity="0.5" d="M103.65 426.804C105.846 416.96 111.334 398.679 124.141 380.046C132.923 367.038 146.096 354.381 161.098 345.943C176.467 338.209 194.03 333.99 213.79 335.748C215.985 331.881 217.083 329.42 217.083 329.42C195.86 326.959 177.564 330.826 161.464 339.264C146.462 347.701 133.289 360.358 124.507 373.366C106.212 399.733 102.552 427.156 102.552 427.156C102.918 427.156 103.284 427.156 103.65 426.804Z" fill="#A37415"/>
<path opacity="0.5" d="M129.264 326.607C128.898 326.256 128.532 325.904 128.166 325.904C127.8 326.256 127.8 326.607 127.434 326.959C122.678 335.748 120.848 341.725 120.848 341.725C121.58 341.725 122.678 341.373 123.409 341.373C124.507 339.264 125.605 336.451 127.434 333.287C132.557 324.498 139.51 312.896 150.121 301.997C170.246 280.903 201.714 264.731 237.574 273.169C240.501 269.653 241.965 267.543 241.965 267.543C228.426 263.676 215.985 263.325 203.91 265.434C199.153 267.192 194.03 268.247 188.908 269.653C173.905 275.278 160.732 284.77 150.487 295.318C142.071 304.107 135.85 313.248 131.093 321.334C129.996 324.849 129.264 326.607 129.264 326.607Z" fill="#A37415"/>
<path opacity="0.5" d="M336.37 903.531C357.959 908.101 376.254 914.077 389.793 918.648C397.111 920.757 402.6 922.515 406.259 923.921C407.357 922.866 408.454 922.163 409.552 921.108C406.991 919.351 404.429 917.593 401.868 915.835C398.575 914.78 394.55 913.374 389.793 911.968C376.254 907.398 357.959 901.421 336.37 896.851C294.656 886.656 240.867 877.867 192.567 901.07C192.567 901.07 194.396 902.828 198.055 905.64C244.892 885.25 296.12 893.687 336.37 903.531Z" fill="#A37415"/>
<path opacity="0.5" d="M208.301 775.209C213.058 779.428 216.717 782.592 219.644 785.404C221.108 785.053 222.571 784.701 224.401 784.35C224.035 783.647 223.669 782.943 223.303 782.592C220.742 780.131 215.985 775.209 208.301 768.88C198.421 759.388 184.517 746.731 167.319 734.075C134.021 708.41 90.1115 679.58 35.2248 680.284C35.2248 680.284 36.3225 682.393 38.1521 686.26C38.1521 686.26 38.518 686.612 38.518 686.964C91.9411 687.315 134.753 715.441 167.685 740.754C184.517 753.06 198.421 765.716 208.301 775.209Z" fill="#A37415"/>
<path opacity="0.5" d="M241.965 828.999C251.478 833.569 260.26 838.491 268.31 843.062C276.726 847.28 283.679 851.148 289.899 854.663C295.754 858.179 300.145 860.991 303.072 863.101C304.17 862.398 305.633 862.046 307.097 860.991C305.633 859.585 304.535 858.179 303.072 856.421C299.779 854.312 295.388 851.148 289.533 847.983C283.679 844.468 276.36 840.249 267.944 836.382C260.26 831.811 251.478 826.889 241.599 822.319C202.812 804.741 154.512 784.701 102.187 796.303C102.187 796.303 104.016 798.413 106.943 802.28C157.805 792.787 204.642 811.772 241.965 828.999Z" fill="#A37415"/>
<path opacity="0.5" d="M94.5024 617.355C101.821 625.089 109.871 632.472 116.091 640.207C128.532 655.676 139.51 669.739 146.828 680.286C150.121 684.856 152.316 688.723 154.146 691.536C155.244 691.536 156.707 691.536 157.805 691.536C157.805 691.536 153.78 684.505 146.462 673.606C138.778 663.059 127.8 648.644 115.725 633.527C109.505 625.792 101.455 618.409 94.1365 610.675C86.8183 602.94 78.4023 595.557 69.2545 588.878C50.2272 575.518 29.7361 563.916 3.3905 559.697C3.3905 559.697 3.75639 562.158 4.85413 566.729C30.4679 571.299 50.5931 582.549 69.2545 595.909C78.7682 602.237 87.1842 609.62 94.5024 617.355Z" fill="#A37415"/>
<path opacity="0.5" d="M152.682 265.786C154.146 265.786 155.61 265.786 156.707 265.786C157.805 264.028 159.269 261.919 161.098 259.809C166.953 252.426 175.003 242.582 186.712 234.145C207.569 217.621 237.94 207.074 268.676 218.676C271.969 215.511 273.799 213.754 273.799 213.754C262.822 208.832 252.21 207.074 241.965 207.074C236.11 208.48 229.89 209.183 223.303 209.535C209.764 213.05 197.323 219.73 187.078 227.465C179.028 233.09 173.173 239.418 168.051 245.395C165.855 250.668 164.026 253.481 164.026 253.481C163.294 252.778 163.294 252.426 162.562 251.723C162.196 252.075 161.83 252.778 161.464 253.129C155.61 260.864 152.682 265.786 152.682 265.786Z" fill="#A37415"/>
<path opacity="0.5" d="M244.892 148.362C245.99 147.307 247.453 146.252 249.283 145.198C255.869 140.627 264.285 134.299 275.263 130.08C286.24 125.861 298.315 122.346 310.39 122.697C321.001 123.4 331.613 126.565 341.492 132.893C344.786 131.135 346.615 129.729 346.615 129.729C340.395 124.455 333.442 121.291 326.49 118.83C319.172 118.83 311.488 118.127 303.804 116.018C293.558 116.721 284.044 119.533 274.897 123.049C269.774 125.158 265.383 127.619 261.358 130.08C261.358 130.432 260.992 130.432 260.992 130.783C256.235 137.112 252.576 140.627 252.576 140.627C251.844 139.573 251.844 138.166 251.112 137.112C250.381 137.463 249.649 138.166 248.917 138.518C242.697 143.088 239.037 146.604 239.037 146.604C241.233 147.307 243.062 147.659 244.892 148.362Z" fill="#A37415"/>
<path opacity="0.5" d="M836.936 748.842C836.936 748.842 832.546 753.764 825.593 761.499C818.641 769.234 810.225 781.891 800.711 795.954C795.954 802.986 791.929 811.423 787.538 820.213C783.147 828.651 778.757 838.143 775.463 848.339C769.975 865.918 765.584 884.552 765.218 905.998C766.316 887.364 770.707 870.84 775.463 855.019C778.757 844.472 783.147 835.331 787.538 826.893C791.563 818.103 795.954 809.666 800.711 802.634C810.225 788.922 818.275 775.914 825.593 768.179C832.546 760.444 836.936 755.522 836.936 755.522C847.182 771.695 851.573 787.868 852.305 803.689C853.036 786.11 848.645 767.476 836.936 748.842Z" fill="#A37415"/>
<path opacity="0.5" d="M898.41 685.208C898.41 685.208 894.751 690.481 890.36 699.622C886.335 709.466 879.016 721.068 874.625 737.24C869.137 752.709 864.014 770.99 862.185 791.733C861.453 797.71 861.087 804.038 861.087 810.717C861.453 806.499 861.453 802.28 861.819 798.413C863.648 777.319 868.771 759.389 874.26 743.92C879.016 727.748 886.335 715.794 889.994 706.302C894.385 696.81 898.044 691.888 898.044 691.888C919.632 712.63 927.317 737.24 926.951 760.795C929.146 735.131 921.828 708.06 898.41 685.208Z" fill="#A37415"/>
<path opacity="0.5" d="M760.095 797.006C760.095 797.006 754.241 800.522 745.459 807.553C737.043 814.585 724.602 823.374 712.527 837.085C687.279 861.695 657.274 898.961 645.199 955.212C645.199 955.212 645.931 955.212 647.029 954.861C659.835 902.477 688.377 867.32 712.527 843.765C724.602 830.054 737.043 821.265 745.459 814.233C753.875 807.202 760.095 803.686 760.095 803.686C764.12 815.288 765.584 826.538 765.584 837.437C766.316 824.78 764.852 811.421 760.095 797.006Z" fill="#A37415"/>
<path opacity="0.5" d="M518.96 953.454C515.666 953.103 512.007 952.751 507.25 952.399C492.614 950.993 472.123 951.345 449.802 950.642C404.429 952.399 348.811 954.157 305.633 990.369C305.633 990.369 307.829 991.424 311.122 993.182C353.568 961.189 406.259 958.728 449.802 957.321C472.123 958.025 492.614 957.673 507.25 959.079C514.569 959.782 520.423 960.486 524.814 960.486C525.912 960.486 526.278 960.486 527.01 960.837C527.741 959.782 528.473 958.728 529.205 957.321C525.912 955.915 522.619 954.86 518.96 953.454Z" fill="#A37415"/>
<path opacity="0.5" d="M859.623 159.963C884.871 145.549 912.314 151.174 933.903 162.073C944.88 168.401 954.394 175.432 960.98 181.057C962.81 182.815 964.274 184.221 965.737 185.628C966.835 185.276 968.299 185.276 969.396 184.925C968.664 183.87 968.299 182.464 967.567 181.409C966.103 179.651 963.908 177.19 960.98 174.729C954.394 169.104 944.88 162.073 933.903 155.744C925.487 151.174 915.607 147.658 905.728 145.9C895.116 148.01 884.505 148.01 874.991 146.955C868.039 148.713 861.453 151.877 854.866 156.447C854.134 156.096 856.33 157.854 859.623 159.963Z" fill="#A37415"/>
<path opacity="0.5" d="M260.626 686.614C258.065 670.442 254.772 656.73 251.112 647.59C248.551 637.746 245.99 632.121 245.99 632.121C224.767 647.238 211.594 666.223 207.203 685.911C204.642 695.755 203.91 706.302 203.91 716.497C203.91 717.2 204.276 717.903 204.276 718.607C204.276 709.817 205.008 701.028 207.203 692.59C211.594 672.903 224.767 653.918 245.99 638.8C245.99 638.8 248.551 644.777 251.112 654.269C254.772 663.762 258.065 677.473 260.626 693.294C262.456 703.841 263.919 715.794 264.285 728.802C264.285 713.333 262.822 698.919 260.626 686.614Z" fill="#A37415"/>
<path opacity="0.5" d="M398.209 810.717C388.329 796.654 378.816 785.052 371.131 778.021C364.179 769.935 359.056 765.364 359.056 765.364C349.543 783.646 345.883 801.928 346.981 819.155C346.981 804.037 350.64 787.865 359.056 772.044C359.056 772.044 364.179 776.263 371.131 784.701C378.816 791.732 388.329 803.334 398.209 817.397C417.236 843.764 438.093 881.383 441.386 932.36L441.752 932.712C440.654 878.218 418.334 838.139 398.209 810.717Z" fill="#A37415"/>
<path opacity="0.5" d="M145.364 511.532C158.537 496.766 176.467 485.515 200.617 480.242C200.983 476.023 200.983 473.562 200.983 473.562C176.832 478.836 158.903 490.086 145.364 505.204C131.094 520.321 125.971 538.251 121.58 555.83C119.75 565.674 119.384 575.166 119.75 583.956C119.75 577.276 120.116 569.893 121.58 562.51C125.971 544.58 131.094 526.649 145.364 511.532Z" fill="#A37415"/>
<path opacity="0.5" d="M213.424 554.072C190.371 563.916 174.271 579.034 164.391 596.612C155.976 613.84 151.951 633.879 153.414 652.161C153.414 652.512 153.414 652.512 153.414 652.864C153.048 636.34 157.073 618.41 164.391 603.292C174.637 585.714 190.371 570.596 213.424 560.752C213.424 560.752 214.887 566.729 215.253 576.221C215.253 581.143 215.619 586.768 215.619 593.448C215.619 584.307 214.887 576.221 215.253 569.541C214.887 560.049 213.424 554.072 213.424 554.072Z" fill="#A37415"/>
<path opacity="0.5" d="M113.164 466.531C116.457 458.797 120.482 451.062 125.605 444.031C131.094 437 137.68 430.32 144.998 424.343C158.537 413.093 177.564 406.062 199.519 404.655C200.983 400.437 201.714 397.624 201.714 397.624C178.662 398.327 159.269 405.71 144.998 417.312C137.68 422.937 131.459 429.617 125.605 437C120.482 444.031 116.457 451.766 113.164 459.5C105.846 474.618 104.382 489.735 102.918 500.985C101.821 512.235 101.821 519.267 101.821 519.267C101.821 516.103 102.187 512.235 102.552 507.665C104.382 496.766 105.48 481.649 113.164 466.531Z" fill="#A37415"/>
<path opacity="0.5" d="M193.664 200.746C195.494 201.097 196.958 201.449 198.787 201.449C199.885 200.043 201.349 198.636 203.178 196.879C209.399 190.902 217.815 183.167 229.524 176.839C250.015 164.534 278.19 158.558 303.804 171.566C307.097 169.105 308.926 167.347 308.926 167.347C300.876 162.425 292.826 159.612 284.41 158.206C277.458 158.909 269.774 159.261 262.09 158.206C250.381 159.964 239.403 164.183 229.89 169.808C223.303 173.323 217.815 177.542 213.058 181.41C209.399 187.386 206.837 191.253 206.837 191.253C206.105 190.199 205.739 189.496 205.374 188.441C205.008 188.793 204.276 189.496 203.91 189.847C197.324 196.175 193.664 200.746 193.664 200.746Z" fill="#A37415"/>
<path opacity="0.5" d="M316.611 33.3845C323.563 24.5952 330.881 17.9154 336.736 13.6966C342.59 9.12615 346.615 7.01675 346.615 7.01675C346.981 9.82931 347.347 12.6418 347.347 15.4544C347.713 10.5324 347.713 5.61046 346.615 0.336914C346.615 0.336914 342.59 2.79791 336.736 7.01675C330.881 11.2356 323.197 17.9154 316.611 26.7047C305.633 39.7127 296.485 57.6428 297.217 76.6276C298.681 60.1038 306.731 44.6347 316.611 33.3845Z" fill="#A37415"/>
<path opacity="0.5" d="M325.026 72.4231C320.636 77.3451 318.44 81.2123 318.44 81.2123C320.27 80.8608 321.733 80.5092 323.563 80.5092C323.929 80.1576 324.295 79.8061 324.661 79.4545C329.052 74.5326 335.638 67.5012 344.42 60.8214C353.202 54.1416 364.545 48.1649 377.352 43.9461C388.695 40.4304 401.502 39.3757 414.309 40.782C418.334 37.2663 420.529 34.8053 420.529 34.8053C405.161 32.3443 390.159 33.399 377.352 37.2663C364.545 41.4851 353.202 47.4618 344.42 54.1416C336.004 60.8214 329.417 67.5012 325.026 72.4231Z" fill="#A37415"/>
<path opacity="0.5" d="M292.095 104.767C293.192 104.064 294.29 103.361 295.754 102.658C301.974 99.1422 310.39 94.9233 320.27 91.7591C338.199 86.4855 360.154 85.7824 377.352 99.8453C380.645 98.439 382.475 97.3843 382.475 97.3843C372.229 87.1887 360.52 82.6182 348.445 81.5635C339.297 84.0245 329.417 86.1339 318.074 87.1887C318.074 87.1887 318.44 86.1339 319.538 84.7276C316.245 85.7824 312.951 87.1887 309.658 88.595C308.926 89.2981 308.195 90.3528 307.463 90.7044C302.706 95.6264 299.047 98.439 299.047 98.439C298.681 97.0327 298.315 95.6264 297.949 93.8686C297.217 94.2201 296.12 94.5717 295.388 95.2749C289.167 98.439 285.874 101.603 285.874 101.603C288.435 103.361 290.265 104.064 292.095 104.767Z" fill="#A37415"/>
<path opacity="0.5" d="M727.163 964.705C715.088 963.299 703.379 961.892 692.036 960.486C680.692 959.431 670.081 959.08 660.567 959.08C659.836 959.08 659.47 959.08 658.738 959.08C655.81 960.134 653.249 960.486 651.42 960.838C647.395 961.541 644.833 962.244 644.833 962.244C645.199 960.837 645.565 959.783 645.931 958.376C641.906 958.025 637.881 958.025 634.588 958.025C619.951 958.025 610.437 958.728 610.437 958.728C611.535 961.189 612.999 962.947 614.097 965.056C618.122 964.705 625.074 964.353 634.588 964.353C641.906 964.353 650.688 965.056 660.567 965.408C670.081 965.408 680.692 965.759 692.036 966.814C703.379 968.22 715.088 969.627 727.163 971.033C739.238 972.791 751.679 975.603 763.754 979.471C785.709 985.447 808.03 995.643 827.057 1012.87C830.35 1011.46 832.546 1010.76 832.546 1010.76C812.421 990.721 788.27 979.119 764.12 972.791C751.679 968.924 739.238 966.463 727.163 964.705Z" fill="#A37415"/>
<path opacity="0.5" d="M490.418 845.874C477.246 833.569 464.439 825.835 455.291 818.804C446.143 812.476 439.923 809.663 439.923 809.663C437.727 818.804 436.995 827.593 436.995 836.03C437.361 829.702 438.459 823.023 440.289 816.343C440.289 816.343 446.509 819.155 455.657 825.484C464.439 832.515 477.246 840.249 490.784 852.554C503.957 864.859 518.959 878.218 532.132 897.554C544.573 913.726 555.917 934.117 563.235 959.43C564.698 959.781 565.43 959.781 565.43 959.781C557.746 931.304 545.305 908.453 531.766 890.875C518.594 871.89 503.957 858.179 490.418 845.874Z" fill="#A37415"/>
<path opacity="0.5" d="M263.188 64.6883C270.14 54.4928 278.19 46.0551 284.045 40.43C289.899 34.4533 294.656 31.6408 294.656 31.6408C296.486 37.6174 296.851 43.5941 296.851 49.5708C297.583 41.4847 297.217 33.3986 294.656 24.9609C294.656 24.9609 290.265 27.7735 284.045 33.7502C278.19 39.7269 270.14 48.1645 263.188 58.0085C254.04 72.0713 246.722 89.2982 246.722 107.228C248.185 92.1107 254.772 77.3448 263.188 64.6883Z" fill="#A37415"/>
<path opacity="0.5" d="M1048.43 662.356C1037.09 673.255 1028.67 684.505 1020.99 693.646C1019.53 697.161 1018.79 698.919 1018.79 698.919C1018.43 698.568 1018.06 697.865 1017.7 697.513C1016.96 698.568 1015.87 699.622 1015.14 700.677C1006.72 710.873 1002.33 717.552 1002.33 717.552C1003.79 717.904 1005.26 717.904 1006.72 717.904C1008.91 715.091 1011.48 711.576 1015.14 707.005C1024.28 697.161 1033.8 682.747 1048.8 668.684C1063.07 654.27 1078.07 638.801 1098.56 626.496C1116.49 614.191 1138.08 604.347 1163.7 600.831C1165.16 596.612 1165.89 593.8 1165.89 593.8C1139.18 596.612 1116.86 606.808 1098.56 619.816C1078.07 632.473 1062.7 647.942 1048.43 662.356Z" fill="#A37415"/>
<path opacity="0.5" d="M1049.9 727.397C1038.55 731.967 1027.94 737.24 1018.43 743.217C1007.82 748.491 998.303 754.467 989.521 760.444C978.178 768.881 967.201 776.264 958.053 783.295C954.394 788.217 951.833 791.381 951.833 791.381C951.467 790.678 951.101 789.975 950.735 789.272C949.271 790.678 947.442 791.733 946.344 793.139C936.098 802.28 929.146 807.905 929.146 807.905C930.976 808.608 932.805 808.96 934.635 809.663C937.562 807.202 941.221 804.038 945.978 799.819C956.224 790.678 972.324 779.78 989.156 767.475C997.937 761.498 1007.45 755.522 1018.06 750.248C1027.94 744.272 1038.19 738.998 1049.53 734.428C1071.49 725.99 1094.9 720.014 1120.52 721.42C1123.08 717.201 1124.18 714.74 1124.18 714.74C1097.47 712.279 1072.95 718.607 1049.9 727.397Z" fill="#A37415"/>
<path opacity="0.5" d="M843.889 909.508C831.814 910.211 820.47 911.617 809.859 913.727C798.15 916.188 787.172 918.297 777.293 920.406C769.609 924.625 764.852 927.086 764.852 927.086C764.852 925.68 764.852 924.625 764.852 923.219C761.559 923.922 758.631 924.625 756.07 925.68C749.484 927.789 743.629 929.195 739.97 929.898C735.945 930.953 733.749 931.656 733.749 931.656C735.213 933.766 737.043 935.172 738.872 936.93C739.238 936.93 739.238 936.93 739.604 936.578C743.629 935.523 749.118 934.469 755.704 932.359C768.877 928.141 788.636 925.328 809.493 920.758C820.104 918.649 831.448 917.242 843.523 916.539C854.866 915.133 866.941 914.43 879.382 915.133C902.435 916.539 925.121 920.406 946.71 931.656C950.369 929.195 952.198 927.438 952.198 927.438C929.146 913.727 904.264 909.86 879.382 908.102C867.307 907.75 855.232 908.453 843.889 909.508Z" fill="#A37415"/>
<path opacity="0.5" d="M151.219 164.182C156.341 150.119 163.294 137.815 169.148 129.377C175.003 120.939 179.394 116.017 179.394 116.017C188.176 130.783 191.103 146.252 190.737 161.018C190.737 159.26 191.103 157.502 191.103 155.745C191.835 140.627 188.907 124.455 179.76 109.337C179.76 109.337 175.369 114.259 169.514 122.697C163.294 131.135 156.707 143.44 151.585 157.502C147.194 169.104 144.266 182.112 144.266 195.12C144.998 184.222 147.56 173.675 151.219 164.182Z" fill="#A37415"/>
<path opacity="0.5" d="M98.5275 233.442C101.821 217.621 106.943 203.207 112.432 193.714C117.555 183.87 121.214 177.894 121.214 177.894C133.655 192.66 139.144 209.183 140.973 225.356C142.437 232.739 142.437 240.121 142.437 247.153C142.803 238.012 142.803 228.52 141.339 218.676C139.144 202.152 133.655 185.628 121.58 171.214C121.58 171.214 117.555 177.191 112.798 187.034C107.309 196.878 102.187 210.941 98.8934 226.762C97.0638 234.848 96.332 243.637 96.332 252.426C96.6979 246.098 97.0638 239.77 98.5275 233.442Z" fill="#A37415"/>
<path opacity="0.5" d="M207.203 108.986C219.644 84.3759 237.574 68.9069 237.574 68.9069C241.599 78.7508 243.062 88.5947 243.062 98.4386C243.794 86.4853 242.697 74.1804 237.94 62.2271C237.94 62.2271 220.01 78.0476 207.569 102.306C200.617 115.665 195.494 131.135 195.494 146.955C196.592 133.595 200.983 120.236 207.203 108.986Z" fill="#A37415"/>
<path opacity="0.5" d="M61.9364 271.411C65.5955 260.161 68.8887 253.13 68.8887 253.13C100.357 280.2 105.846 319.224 108.407 350.865C108.773 360.709 108.773 369.85 108.773 377.936C109.139 368.444 109.139 356.842 108.407 344.186C105.846 312.193 100.357 273.52 68.8887 246.45C68.8887 246.45 65.5955 253.481 61.9364 264.731C58.2772 275.981 55.3499 292.154 54.2522 309.38C54.2522 310.435 54.2522 311.138 54.2522 312.193C55.7158 296.724 58.2772 281.958 61.9364 271.411Z" fill="#A37415"/>
<path opacity="0.5" d="M23.5156 363.873C24.2474 351.217 27.1747 343.483 27.1747 343.483C65.9613 366.686 80.9637 406.062 89.7456 438.757C94.5024 455.281 97.0638 470.399 98.5274 481.649C99.6252 486.219 99.9911 490.086 100.357 492.899C100.723 492.899 101.089 493.25 101.089 493.25C101.089 493.25 100.357 486.219 98.1615 474.969C96.6979 463.719 94.1365 448.601 89.3797 432.078C80.5978 399.382 65.5954 359.655 26.8088 336.803C26.8088 336.803 24.2474 344.537 23.1497 357.194C22.7838 363.522 22.052 371.256 22.052 379.694C23.1497 374.069 23.1497 368.444 23.5156 363.873Z" fill="#A37415"/>
<path opacity="0.5" d="M56.4476 486.571C71.8159 502.743 80.9637 520.673 90.4774 537.197C99.9911 553.721 104.748 569.541 110.603 580.791C112.798 585.713 114.262 589.58 115.359 592.744C116.091 592.744 116.823 593.096 117.555 593.096C117.555 593.096 115.359 585.713 110.237 574.111C104.382 562.861 99.9911 547.041 90.1115 530.517C80.5978 513.994 71.45 496.064 56.0817 479.892C41.4452 463.72 24.6133 449.305 0.09729 440.516C0.09729 440.516 0.09729 442.977 0.09729 447.196C24.6133 455.985 41.8112 470.751 56.4476 486.571Z" fill="#A37415"/>
<path opacity="0.5" d="M975.251 824.782C951.467 829 929.146 836.735 909.753 844.821C897.312 849.391 886.7 854.665 877.187 859.587C871.698 864.86 868.405 868.024 868.405 868.024C868.039 866.969 868.039 865.563 867.673 864.509C865.478 865.563 862.916 866.969 861.087 867.673C848.646 873.649 841.328 878.571 841.328 878.571C843.157 879.977 844.987 880.681 846.816 882.087C850.109 880.329 854.866 877.516 861.087 874.704C873.894 869.079 889.994 859.235 910.119 852.204C929.512 843.766 951.833 836.383 975.617 831.813C997.206 827.594 1020.99 826.891 1045.14 833.219C1048.43 829.703 1050.63 827.946 1050.63 827.946C1024.28 819.508 998.669 820.211 975.251 824.782Z" fill="#A37415"/>
<path opacity="0.5" d="M1111.37 409.226C1105.88 417.312 1101.49 425.75 1098.2 434.187C1094.17 442.625 1090.88 451.063 1087.95 459.149C1083.19 475.321 1078.07 490.438 1076.24 501.337C1074.05 512.235 1073.32 519.267 1073.32 519.267C1073.68 519.267 1074.05 518.915 1074.05 518.915C1074.41 515.751 1075.14 512.235 1076.24 507.665C1078.07 496.766 1083.56 481.649 1087.95 465.477C1090.51 457.391 1093.81 448.953 1098.2 440.516C1101.86 432.078 1106.25 423.64 1111.37 415.554C1122.71 399.031 1136.25 384.265 1156.74 373.718C1156.74 373.718 1158.21 380.749 1158.94 392.351C1158.94 390.593 1158.94 389.187 1158.94 387.429C1157.84 375.124 1156.38 367.038 1156.38 367.038C1136.25 377.937 1122.71 392.703 1111.37 409.226Z" fill="#A37415"/>
<path opacity="0.5" d="M1118.32 511.182C1104.05 526.651 1090.15 543.878 1081.37 560.05C1072.58 574.816 1064.9 588.527 1059.78 599.425C1059.78 599.777 1059.41 600.48 1059.41 600.48C1059.04 601.183 1058.68 602.238 1058.31 602.941C1056.12 608.566 1053.56 613.136 1052.09 616.301C1050.63 619.465 1049.9 621.222 1049.9 621.222C1050.99 621.222 1052.09 620.871 1053.19 620.871C1054.65 617.707 1056.48 614.191 1058.68 609.269C1063.44 598.019 1071.85 582.902 1081.73 566.73C1090.51 550.558 1104.78 533.331 1118.69 517.862C1133.32 502.745 1152.35 489.385 1176.87 481.65C1177.23 477.432 1177.6 474.971 1177.6 474.971C1152.35 482.002 1133.32 495.713 1118.32 511.182Z" fill="#A37415"/>
<path opacity="0.5" d="M1014.4 135.002C1014.4 135.002 1018.79 139.924 1023.92 148.713C1029.04 157.503 1035.99 169.456 1040.38 183.87C1043.31 192.659 1045.14 202.503 1045.51 212.347C1045.87 200.394 1043.68 188.441 1040.02 177.19C1035.63 162.776 1028.67 150.823 1023.55 142.033C1018.43 133.244 1014.04 128.322 1014.04 128.322C1001.96 146.955 999.401 167.346 1000.86 187.034C1000.5 169.456 1003.43 151.526 1014.4 135.002Z" fill="#A37415"/>
<path opacity="0.5" d="M1030.87 597.667C1027.94 588.175 1024.28 579.034 1019.16 570.596C1009.28 553.72 991.351 539.657 967.567 530.868C967.567 530.868 967.201 535.087 967.201 541.767C967.201 538.954 967.567 537.548 967.567 537.548C991.717 546.337 1009.28 560.4 1019.16 577.276C1024.28 585.714 1028.31 594.854 1030.87 604.347C1033.43 613.488 1033.8 622.629 1034.16 631.77C1034.16 629.661 1034.53 627.903 1034.16 625.793C1033.8 616.301 1033.43 606.808 1030.87 597.667Z" fill="#A37415"/>
<path opacity="0.5" d="M1045.51 280.2C1045.14 253.832 1049.16 224.3 1070.75 200.745C1070.75 200.745 1085.76 225.355 1090.51 257.348C1090.88 260.864 1091.24 264.379 1091.61 267.895C1091.61 262.27 1091.24 256.293 1090.15 251.02C1085.39 219.027 1070.39 194.417 1070.39 194.417C1046.97 219.73 1044.04 252.426 1045.51 280.2Z" fill="#A37415"/>
<path opacity="0.5" d="M956.223 83.673C956.223 83.673 960.249 87.8918 966.103 95.2747C971.592 102.658 979.642 112.502 985.13 125.158C990.619 136.057 994.278 148.713 995.01 161.37C995.01 146.252 990.985 131.135 984.765 118.478C979.276 105.822 971.226 95.9779 965.737 88.5949C959.883 81.212 955.858 76.9932 955.858 76.9932C949.637 89.6496 948.173 102.658 948.905 115.314C949.271 104.767 951.101 94.22 956.223 83.673Z" fill="#A37415"/>
<path opacity="0.5" d="M982.203 253.129C973.055 252.074 964.639 249.965 956.589 247.152C945.978 246.449 934.635 247.504 923.292 251.371C923.292 251.371 924.755 253.481 927.682 256.996C944.514 252.426 960.614 252.777 975.251 256.996C990.619 262.27 1004.89 271.059 1015.87 281.606C1030.87 295.669 1040.02 310.786 1044.41 319.576C1045.51 319.576 1046.6 319.927 1047.34 319.927C1047.34 319.927 1037.82 296.021 1015.5 274.926C1006.72 266.137 995.01 258.403 982.203 253.129Z" fill="#A37415"/>
<path opacity="0.5" d="M1059.04 528.057C1055.39 510.83 1045.14 492.9 1032.33 478.837C1018.79 464.775 998.669 454.228 974.519 450.36C974.519 450.36 974.885 452.821 975.617 457.392C999.401 461.259 1019.16 471.454 1032.33 485.517C1045.14 499.58 1055.39 517.51 1059.04 534.736C1061.24 546.338 1063.07 557.588 1063.44 567.432C1063.8 555.83 1061.97 542.119 1059.04 528.057Z" fill="#A37415"/>
<path opacity="0.5" d="M1065.27 386.023C1061.61 376.179 1055.39 362.819 1045.51 350.162C1036.72 338.209 1025.01 327.662 1010.74 319.927C1003.43 317.818 996.84 315.005 990.619 311.841C978.544 308.677 965.005 307.622 950.735 310.435C950.735 310.435 952.198 312.896 954.394 316.763C994.644 310.787 1027.21 331.881 1045.51 356.842C1055.75 369.499 1061.61 382.859 1065.27 392.703C1066.73 396.57 1067.83 399.734 1068.56 402.195C1069.29 402.195 1069.66 402.546 1070.39 402.546C1070.39 402.546 1069.29 395.867 1065.27 386.023Z" fill="#A37415"/>
<path opacity="0.5" d="M1074.78 474.969C1072.95 464.07 1068.92 448.953 1061.61 433.835C1053.92 418.718 1042.58 404.304 1027.58 393.757C1023.55 391.647 1019.53 389.186 1015.87 386.725C1002.69 380.046 987.326 376.178 969.396 376.53C969.396 376.53 970.494 378.991 971.958 383.21C1016.96 383.21 1046.24 410.984 1061.24 440.515C1068.56 455.633 1072.22 470.399 1074.41 481.649C1074.78 486.219 1075.14 490.086 1075.14 493.25C1075.88 493.25 1075.88 486.219 1074.78 474.969Z" fill="#A37415"/>
<path opacity="0.5" d="M940.855 609.269C940.855 609.269 940.489 610.675 939.757 613.487C938.66 615.948 937.562 619.816 936.098 624.738C933.537 634.23 931.707 648.645 929.512 664.465C928.78 670.091 928.78 676.067 928.78 682.396C928.78 678.528 929.146 674.661 929.512 671.145C932.073 655.325 933.537 641.262 936.464 631.418C937.562 626.496 939.026 622.628 940.123 620.167C940.855 617.355 941.221 615.948 941.221 615.948C974.519 635.988 987.326 665.872 988.424 695.755C988.79 663.762 976.349 630.714 940.855 609.269Z" fill="#A37415"/>
<path opacity="0.5" d="M977.08 209.886C967.933 203.558 957.321 198.285 946.344 194.769C935.733 195.121 925.853 194.066 916.705 191.957C907.923 193.011 898.776 195.121 889.628 199.691C889.628 199.691 891.457 201.449 894.75 204.261C909.021 198.285 923.292 196.878 936.83 198.988C951.467 201.8 965.371 208.48 977.08 216.215C988.058 224.652 997.571 233.793 1003.79 240.824C1005.62 243.285 1007.09 245.043 1008.55 246.801C1010.01 246.801 1011.11 246.801 1012.57 246.45V246.098C1012.21 245.395 1009.28 240.824 1003.79 233.793C997.571 227.113 988.424 217.973 977.08 209.886Z" fill="#A37415"/>
<path opacity="0.5" d="M1074.78 369.498C1072.22 390.944 1072.22 409.577 1072.58 419.773C1072.58 409.226 1072.95 393.405 1074.78 376.178C1076.97 360.357 1079.54 343.131 1086.85 326.255C1093.07 309.732 1103.32 293.559 1120.15 280.551C1120.15 280.551 1122.71 287.583 1125.64 299.184C1127.84 307.271 1129.67 317.466 1130.4 329.068C1130.03 315.005 1128.2 302.349 1125.64 292.856C1122.71 281.255 1120.15 274.223 1120.15 274.223C1103.32 286.88 1093.07 303.052 1086.85 319.575C1079.54 336.099 1076.97 353.326 1074.78 369.498Z" fill="#A37415"/>
<path opacity="0.5" d="M801.077 26.3675C811.323 30.9378 822.3 37.6176 833.277 46.7584C841.693 54.8445 850.109 64.3368 856.696 75.9386C859.257 76.6417 860.721 76.9933 860.721 76.9933C859.257 73.8292 857.427 70.6651 855.598 67.5009C855.232 66.7978 854.866 66.4462 854.866 65.7431C848.646 55.5476 840.961 46.7584 833.277 39.727C822.3 30.5863 810.957 23.9065 801.077 19.3361C780.22 11.25 765.218 10.5469 765.218 10.5469C766.682 13.0079 768.511 15.4688 770.341 17.5782C775.829 18.9845 787.173 21.0939 801.077 26.3675Z" fill="#A37415"/>
<path opacity="0.5" d="M898.776 43.5943C898.776 43.5943 902.801 46.7585 909.021 52.7351C915.242 58.3602 922.56 67.1494 929.146 77.6964C936.83 89.2982 942.685 104.064 943.783 118.83C944.149 101.603 937.928 84.3762 928.78 71.0166C922.56 60.118 914.876 51.6804 908.655 46.0553C902.801 40.0787 898.41 36.9146 898.41 36.9146C895.482 45.7038 894.751 54.4929 895.482 62.9306C895.848 56.6023 896.58 50.2741 898.776 43.5943Z" fill="#A37415"/>
<path opacity="0.5" d="M845.352 15.8204C845.352 15.8204 849.377 17.9298 854.866 22.8518C860.355 27.7738 867.673 34.4535 874.625 43.2428C883.773 54.8445 891.091 69.6104 892.555 85.7825C893.287 67.1494 884.871 49.9225 874.625 36.5629C867.673 28.1253 860.355 21.094 854.866 16.172C849.377 11.25 845.352 9.14062 845.352 9.14062C843.889 15.8204 843.889 22.1487 844.621 28.1253C844.255 24.2581 844.621 20.0393 845.352 15.8204Z" fill="#A37415"/>
</g>
<defs>
<linearGradient id="paint0_linear" x1="474.613" y1="1015.64" x2="692.444" y2="-67.5639" gradientUnits="userSpaceOnUse">
<stop offset="0.00201001" stop-color="#575757"/>
<stop offset="0.0287254" stop-color="#6B6B6B"/>
<stop offset="0.0613334" stop-color="#7B7B7B"/>
<stop offset="0.0981362" stop-color="#848484"/>
<stop offset="0.1476" stop-color="#878787"/>
<stop offset="0.2138" stop-color="#929292"/>
<stop offset="0.4353" stop-color="#B5B5B5"/>
<stop offset="0.5886" stop-color="#E6E6E6"/>
<stop offset="0.7786" stop-color="#9C9C9C"/>
<stop offset="0.8364" stop-color="#A1A1A1"/>
<stop offset="0.9066" stop-color="#B0B0B0"/>
<stop offset="0.9829" stop-color="#C8C8C8"/>
<stop offset="1" stop-color="#CFCFCF"/>
</linearGradient>
</defs>
</svg>
