<svg width="1280" height="408" viewBox="0 0 1280 408" fill="none" xmlns="http://www.w3.org/2000/svg">
<mask id="mask0" mask-type="alpha" maskUnits="userSpaceOnUse" x="-72" y="0" width="1425" height="408">
<path d="M80 131H-16C-20.416 131 -24 134.584 -24 139C-24 143.416 -20.416 147 -16 147H80C84.416 147 88 143.416 88 139C88 134.584 84.416 131 80 131Z" fill="#E0E0E0"/>
<path d="M48 163H-16C-20.416 163 -24 166.584 -24 171C-24 175.416 -20.416 179 -16 179H48C52.416 179 56 175.416 56 171C56 166.584 52.416 163 48 163Z" fill="#E0E0E0"/>
<path d="M104 83H-40C-57.648 83 -72 97.352 -72 115V275C-72 278.104 -70.208 280.936 -67.392 282.248C-66.32 282.744 -65.152 283 -64 283C-62.16 283 -60.336 282.36 -58.88 281.144L-13.104 243H104C121.648 243 136 228.648 136 211V115C136 97.352 121.648 83 104 83ZM120 211C120 219.816 112.832 227 104 227H-16C-17.872 227 -19.68 227.656 -21.12 228.856L-56 257.928V115C-56 106.184 -48.832 99 -40 99H104C112.832 99 120 106.184 120 115V211Z" fill="#E0E0E0"/>
<path d="M152 147C147.584 147 144 150.584 144 155C144 159.416 147.584 163 152 163C160.832 163 168 170.184 168 179V314.344L140.992 292.744C139.584 291.624 137.808 291 136 291H24C15.168 291 8 283.816 8 275V267C8 262.584 4.416 259 0 259C-4.416 259 -8 262.584 -8 267V275C-8 292.648 6.352 307 24 307H133.184L170.992 337.256C172.448 338.408 174.224 339 176 339C177.168 339 178.352 338.744 179.472 338.216C182.24 336.872 184 334.072 184 331V179C184 161.352 169.648 147 152 147Z" fill="#E0E0E0"/>
<path d="M1071 48H975C970.584 48 967 51.584 967 56C967 60.416 970.584 64 975 64H1071C1075.42 64 1079 60.416 1079 56C1079 51.584 1075.42 48 1071 48Z" fill="#E0E0E0"/>
<path d="M1039 80H975C970.584 80 967 83.584 967 88C967 92.416 970.584 96 975 96H1039C1043.42 96 1047 92.416 1047 88C1047 83.584 1043.42 80 1039 80Z" fill="#E0E0E0"/>
<path d="M1095 0H951C933.352 0 919 14.352 919 32V192C919 195.104 920.792 197.936 923.608 199.248C924.68 199.744 925.848 200 927 200C928.84 200 930.664 199.36 932.12 198.144L977.896 160H1095C1112.65 160 1127 145.648 1127 128V32C1127 14.352 1112.65 0 1095 0ZM1111 128C1111 136.816 1103.83 144 1095 144H975C973.128 144 971.32 144.656 969.88 145.856L935 174.928V32C935 23.184 942.168 16 951 16H1095C1103.83 16 1111 23.184 1111 32V128Z" fill="#E0E0E0"/>
<path d="M1143 64C1138.58 64 1135 67.584 1135 72C1135 76.416 1138.58 80 1143 80C1151.83 80 1159 87.184 1159 96V231.344L1131.99 209.744C1130.58 208.624 1128.81 208 1127 208H1015C1006.17 208 999 200.816 999 192V184C999 179.584 995.416 176 991 176C986.584 176 983 179.584 983 184V192C983 209.648 997.352 224 1015 224H1124.18L1161.99 254.256C1163.45 255.408 1165.22 256 1167 256C1168.17 256 1169.35 255.744 1170.47 255.216C1173.24 253.872 1175 251.072 1175 248V96C1175 78.352 1160.65 64 1143 64Z" fill="#E0E0E0"/>
<path d="M1289.62 129.25H1231.12C1228.43 129.25 1226.25 131.434 1226.25 134.125C1226.25 136.816 1228.43 139 1231.12 139H1289.62C1292.32 139 1294.5 136.816 1294.5 134.125C1294.5 131.434 1292.32 129.25 1289.62 129.25Z" fill="#E0E0E0"/>
<path d="M1270.12 148.75H1231.12C1228.43 148.75 1226.25 150.934 1226.25 153.625C1226.25 156.316 1228.43 158.5 1231.12 158.5H1270.12C1272.82 158.5 1275 156.316 1275 153.625C1275 150.934 1272.82 148.75 1270.12 148.75Z" fill="#E0E0E0"/>
<path d="M1304.25 100H1216.5C1205.75 100 1197 108.746 1197 119.5V217C1197 218.892 1198.09 220.617 1199.81 221.417C1200.46 221.719 1201.17 221.875 1201.88 221.875C1203 221.875 1204.11 221.485 1204.99 220.744L1232.89 197.5H1304.25C1315 197.5 1323.75 188.754 1323.75 178V119.5C1323.75 108.746 1315 100 1304.25 100ZM1314 178C1314 183.372 1309.63 187.75 1304.25 187.75H1231.12C1229.98 187.75 1228.88 188.15 1228.01 188.881L1206.75 206.597V119.5C1206.75 114.128 1211.12 109.75 1216.5 109.75H1304.25C1309.63 109.75 1314 114.128 1314 119.5V178Z" fill="#E0E0E0"/>
<path d="M1333.5 139C1330.81 139 1328.62 141.184 1328.62 143.875C1328.62 146.566 1330.81 148.75 1333.5 148.75C1338.88 148.75 1343.25 153.128 1343.25 158.5V240.975L1326.79 227.813C1325.93 227.13 1324.85 226.75 1323.75 226.75H1255.5C1250.12 226.75 1245.75 222.372 1245.75 217V212.125C1245.75 209.434 1243.57 207.25 1240.88 207.25C1238.18 207.25 1236 209.434 1236 212.125V217C1236 227.754 1244.75 236.5 1255.5 236.5H1322.03L1345.07 254.937C1345.96 255.639 1347.04 256 1348.12 256C1348.84 256 1349.56 255.844 1350.24 255.522C1351.93 254.703 1353 252.997 1353 251.125V158.5C1353 147.746 1344.25 139 1333.5 139Z" fill="#E0E0E0"/>
<path d="M1186.62 307.25H1140.12C1137.99 307.25 1136.25 308.986 1136.25 311.125C1136.25 313.264 1137.99 315 1140.12 315H1186.62C1188.76 315 1190.5 313.264 1190.5 311.125C1190.5 308.986 1188.76 307.25 1186.62 307.25Z" fill="#E0E0E0"/>
<path d="M1171.12 322.75H1140.12C1137.99 322.75 1136.25 324.486 1136.25 326.625C1136.25 328.764 1137.99 330.5 1140.12 330.5H1171.12C1173.26 330.5 1175 328.764 1175 326.625C1175 324.486 1173.26 322.75 1171.12 322.75Z" fill="#E0E0E0"/>
<path d="M1198.25 284H1128.5C1119.95 284 1113 290.952 1113 299.5V377C1113 378.504 1113.87 379.875 1115.23 380.511C1115.75 380.751 1116.32 380.875 1116.88 380.875C1117.77 380.875 1118.65 380.565 1119.35 379.976L1141.53 361.5H1198.25C1206.8 361.5 1213.75 354.548 1213.75 346V299.5C1213.75 290.952 1206.8 284 1198.25 284ZM1206 346C1206 350.27 1202.53 353.75 1198.25 353.75H1140.12C1139.22 353.75 1138.34 354.068 1137.65 354.649L1120.75 368.731V299.5C1120.75 295.23 1124.22 291.75 1128.5 291.75H1198.25C1202.53 291.75 1206 295.23 1206 299.5V346Z" fill="#E0E0E0"/>
<path d="M1221.5 315C1219.36 315 1217.62 316.736 1217.62 318.875C1217.62 321.014 1219.36 322.75 1221.5 322.75C1225.78 322.75 1229.25 326.23 1229.25 330.5V396.057L1216.17 385.595C1215.49 385.052 1214.63 384.75 1213.75 384.75H1159.5C1155.22 384.75 1151.75 381.27 1151.75 377V373.125C1151.75 370.986 1150.01 369.25 1147.88 369.25C1145.74 369.25 1144 370.986 1144 373.125V377C1144 385.548 1150.95 392.5 1159.5 392.5H1212.39L1230.7 407.155C1231.4 407.713 1232.26 408 1233.12 408C1233.69 408 1234.26 407.876 1234.81 407.62C1236.15 406.969 1237 405.613 1237 404.125V330.5C1237 321.952 1230.05 315 1221.5 315Z" fill="#E0E0E0"/>
<path d="M286.625 307.25H240.125C237.986 307.25 236.25 308.986 236.25 311.125C236.25 313.264 237.986 315 240.125 315H286.625C288.764 315 290.5 313.264 290.5 311.125C290.5 308.986 288.764 307.25 286.625 307.25Z" fill="#E0E0E0"/>
<path d="M271.125 322.75H240.125C237.986 322.75 236.25 324.486 236.25 326.625C236.25 328.764 237.986 330.5 240.125 330.5H271.125C273.264 330.5 275 328.764 275 326.625C275 324.486 273.264 322.75 271.125 322.75Z" fill="#E0E0E0"/>
<path d="M298.25 284H228.5C219.952 284 213 290.952 213 299.5V377C213 378.504 213.868 379.875 215.232 380.511C215.751 380.751 216.317 380.875 216.875 380.875C217.766 380.875 218.65 380.565 219.355 379.976L241.528 361.5H298.25C306.798 361.5 313.75 354.548 313.75 346V299.5C313.75 290.952 306.798 284 298.25 284ZM306 346C306 350.27 302.528 353.75 298.25 353.75H240.125C239.218 353.75 238.343 354.068 237.645 354.649L220.75 368.731V299.5C220.75 295.23 224.222 291.75 228.5 291.75H298.25C302.528 291.75 306 295.23 306 299.5V346Z" fill="#E0E0E0"/>
<path d="M321.5 315C319.361 315 317.625 316.736 317.625 318.875C317.625 321.014 319.361 322.75 321.5 322.75C325.778 322.75 329.25 326.23 329.25 330.5V396.057L316.168 385.595C315.486 385.052 314.626 384.75 313.75 384.75H259.5C255.222 384.75 251.75 381.27 251.75 377V373.125C251.75 370.986 250.014 369.25 247.875 369.25C245.736 369.25 244 370.986 244 373.125V377C244 385.548 250.952 392.5 259.5 392.5H312.386L330.699 407.155C331.405 407.713 332.265 408 333.125 408C333.691 408 334.264 407.876 334.807 407.62C336.148 406.969 337 405.613 337 404.125V330.5C337 321.952 330.048 315 321.5 315Z" fill="#E0E0E0"/>
</mask>
<g mask="url(#mask0)">
<rect y="-14" width="1280" height="720" fill="#E0E0E0"/>
</g>
<path d="M360.312 63.625H331.062C329.717 63.625 328.625 64.717 328.625 66.0625C328.625 67.408 329.717 68.5 331.062 68.5H360.312C361.658 68.5 362.75 67.408 362.75 66.0625C362.75 64.717 361.658 63.625 360.312 63.625Z" fill="#E0E0E0"/>
<path d="M350.562 73.375H331.062C329.717 73.375 328.625 74.467 328.625 75.8125C328.625 77.158 329.717 78.25 331.062 78.25H350.562C351.908 78.25 353 77.158 353 75.8125C353 74.467 351.908 73.375 350.562 73.375Z" fill="#E0E0E0"/>
<path d="M367.625 49H323.75C318.373 49 314 53.3729 314 58.75V107.5C314 108.446 314.546 109.309 315.404 109.708C315.731 109.86 316.086 109.938 316.438 109.938C316.998 109.938 317.554 109.743 317.997 109.372L331.945 97.75H367.625C373.002 97.75 377.375 93.3771 377.375 88V58.75C377.375 53.3729 373.002 49 367.625 49ZM372.5 88C372.5 90.6861 370.316 92.875 367.625 92.875H331.062C330.492 92.875 329.941 93.0749 329.503 93.4405L318.875 102.298V58.75C318.875 56.0639 321.059 53.875 323.75 53.875H367.625C370.316 53.875 372.5 56.0639 372.5 58.75V88Z" fill="#E0E0E0"/>
<path d="M382.25 68.5C380.904 68.5 379.812 69.592 379.812 70.9375C379.812 72.283 380.904 73.375 382.25 73.375C384.941 73.375 387.125 75.5639 387.125 78.25V119.488L378.896 112.906C378.467 112.565 377.926 112.375 377.375 112.375H343.25C340.559 112.375 338.375 110.186 338.375 107.5V105.062C338.375 103.717 337.283 102.625 335.938 102.625C334.592 102.625 333.5 103.717 333.5 105.062V107.5C333.5 112.877 337.873 117.25 343.25 117.25H376.517L388.037 126.469C388.48 126.82 389.021 127 389.562 127C389.918 127 390.279 126.922 390.62 126.761C391.464 126.352 392 125.499 392 124.562V78.25C392 72.8729 387.627 68.5 382.25 68.5Z" fill="#E0E0E0"/>
</svg>
