<svg width="1271" height="720" viewBox="0 0 1271 720" fill="none" xmlns="http://www.w3.org/2000/svg">
<g clip-path="url(#clip0)">
<path d="M204.8 313.7C189.8 295.1 149.1 244.4 149.1 244.4C144.6 238.8 136.5 238 131 242.4L99.9 267.4C94.3 271.9 93.5 280 97.9 285.5C97.9 285.5 139.2 336.9 153.6 354.8C159.7 362.5 185.1 358.2 192.8 352.1C200.7 345.9 211.1 321.5 204.8 313.7Z" stroke="#F2F2F2" stroke-width="4.9874" stroke-miterlimit="10"/>
<path d="M204.7 295.2L205.8 314.8L155.1 251.7L174 257L204.7 295.2Z" stroke="#F2F2F2" stroke-width="4.9874" stroke-miterlimit="10"/>
<path d="M135.6 350.7L154.5 356L103.8 292.8L104.9 312.4L135.6 350.7Z" stroke="#F2F2F2" stroke-width="4.9874" stroke-miterlimit="10"/>
<path d="M110.8 301.6L111.9 321.2" stroke="#F2F2F2" stroke-width="4.9874" stroke-miterlimit="10"/>
<path d="M117.8 310.3L118.9 329.9" stroke="#F2F2F2" stroke-width="4.9874" stroke-miterlimit="10"/>
<path d="M121.6 333.2L140.5 338.5" stroke="#F2F2F2" stroke-width="4.9874" stroke-miterlimit="10"/>
<path d="M128.6 341.9L147.5 347.2" stroke="#F2F2F2" stroke-width="4.9874" stroke-miterlimit="10"/>
<path d="M162.1 260.4L181 265.7" stroke="#F2F2F2" stroke-width="4.9874" stroke-miterlimit="10"/>
<path d="M169.1 269.1L188 274.4" stroke="#F2F2F2" stroke-width="4.9874" stroke-miterlimit="10"/>
<path d="M190.6 277.7L191.7 297.3" stroke="#F2F2F2" stroke-width="4.9874" stroke-miterlimit="10"/>
<path d="M197.6 286.4L198.7 306" stroke="#F2F2F2" stroke-width="4.9874" stroke-miterlimit="10"/>
<path d="M176.7 319L121.4 250.1L109.6 259.5L164.9 328.4C167.5 331.6 172.2 332.2 175.5 329.6C178.8 327 179.3 322.3 176.7 319Z" stroke="#F2F2F2" stroke-width="4.9874" stroke-miterlimit="10"/>
<path d="M120 260.5L139.7 285.1" stroke="#F2F2F2" stroke-width="4.9874" stroke-miterlimit="10"/>
<path d="M114.358 245.149L105.783 252.039L111.045 258.587L119.619 251.697L114.358 245.149Z" stroke="#F2F2F2" stroke-width="4.9874" stroke-miterlimit="10"/>
<path d="M83.8 197.2L57.6 218.3C53 222 52.3 228.6 56 233.2C59.7 237.8 66.3 238.5 70.9 234.8L108.1 204.9C112.5 201.3 119 202 122.6 206.5C126.2 210.9 125.5 217.4 121 221L108.1 231.3C103.7 234.9 103 241.3 106.5 245.8L108.9 248.8" stroke="#F2F2F2" stroke-width="4.9874" stroke-miterlimit="10"/>
<path d="M421.5 530.4C406.5 511.8 365.8 461.1 365.8 461.1C361.3 455.5 353.2 454.7 347.7 459.1L316.6 484.1C311 488.6 310.2 496.7 314.6 502.2C314.6 502.2 355.9 553.6 370.3 571.5C376.4 579.2 401.8 574.9 409.5 568.8C417.4 562.6 427.8 538.2 421.5 530.4Z" stroke="#F2F2F2" stroke-width="4.9874" stroke-miterlimit="10"/>
<path d="M421.4 511.9L422.5 531.5L371.8 468.4L390.7 473.7L421.4 511.9Z" stroke="#F2F2F2" stroke-width="4.9874" stroke-miterlimit="10"/>
<path d="M352.3 567.4L371.2 572.7L320.5 509.5L321.6 529.1L352.3 567.4Z" stroke="#F2F2F2" stroke-width="4.9874" stroke-miterlimit="10"/>
<path d="M327.5 518.3L328.6 537.9" stroke="#F2F2F2" stroke-width="4.9874" stroke-miterlimit="10"/>
<path d="M334.5 527L335.6 546.6" stroke="#F2F2F2" stroke-width="4.9874" stroke-miterlimit="10"/>
<path d="M338.3 549.9L357.2 555.2" stroke="#F2F2F2" stroke-width="4.9874" stroke-miterlimit="10"/>
<path d="M345.3 558.6L364.2 563.9" stroke="#F2F2F2" stroke-width="4.9874" stroke-miterlimit="10"/>
<path d="M378.8 477.1L397.7 482.4" stroke="#F2F2F2" stroke-width="4.9874" stroke-miterlimit="10"/>
<path d="M385.8 485.8L404.7 491.1" stroke="#F2F2F2" stroke-width="4.9874" stroke-miterlimit="10"/>
<path d="M407.3 494.4L408.4 514" stroke="#F2F2F2" stroke-width="4.9874" stroke-miterlimit="10"/>
<path d="M414.3 503.1L415.4 522.7" stroke="#F2F2F2" stroke-width="4.9874" stroke-miterlimit="10"/>
<path d="M393.4 535.7L338.1 466.8L326.3 476.2L381.6 545.1C384.2 548.3 388.9 548.9 392.2 546.3C395.5 543.7 396 539 393.4 535.7Z" stroke="#F2F2F2" stroke-width="4.9874" stroke-miterlimit="10"/>
<path d="M336.7 477.2L356.4 501.8" stroke="#F2F2F2" stroke-width="4.9874" stroke-miterlimit="10"/>
<path d="M330.932 461.801L322.358 468.691L327.62 475.239L336.194 468.349L330.932 461.801Z" stroke="#F2F2F2" stroke-width="4.9874" stroke-miterlimit="10"/>
<path d="M300.5 413.9L274.3 435C269.7 438.7 269 445.3 272.7 449.9C276.4 454.5 283 455.2 287.6 451.5L324.8 421.6C329.2 418 335.7 418.7 339.3 423.2C342.9 427.6 342.2 434.1 337.7 437.7L324.8 448C320.4 451.6 319.7 458 323.2 462.5L325.6 465.5" stroke="#F2F2F2" stroke-width="4.9874" stroke-miterlimit="10"/>
<path d="M262 145.9C263.1 139.5 269.1 135.2 275.5 136.2L448.3 164.8C454.7 165.9 459 171.9 458 178.3L448.5 235.6C447.4 242 441.4 246.3 435 245.3L262.2 216.6C255.8 215.5 251.5 209.5 252.5 203.1L262 145.9Z" stroke="#F2F2F2" stroke-width="4.0805" stroke-miterlimit="10"/>
<path d="M416.1 217.9L421.6 184.5" stroke="#F2F2F2" stroke-width="4.0805" stroke-miterlimit="10"/>
<path d="M402.1 198.4L435.5 204" stroke="#F2F2F2" stroke-width="4.0805" stroke-miterlimit="10"/>
<path d="M300.7 194.5C301.3 190.9 304.7 188.5 308.3 189.1C311.9 189.7 314.3 193.1 313.7 196.7C313.1 200.3 309.7 202.7 306.1 202.1C302.5 201.4 300.1 198.1 300.7 194.5Z" stroke="#F2F2F2" stroke-width="4.0805" stroke-miterlimit="10"/>
<path d="M273 189.9C273.6 186.3 277 183.9 280.6 184.5C284.2 185.1 286.6 188.5 286 192.1C285.4 195.7 282 198.1 278.4 197.5C274.8 196.9 272.4 193.5 273 189.9Z" stroke="#F2F2F2" stroke-width="4.0805" stroke-miterlimit="10"/>
<path d="M304.8 169.6C305.4 166 308.8 163.6 312.4 164.2C316 164.8 318.4 168.2 317.8 171.8C317.2 175.4 313.8 177.8 310.2 177.2C306.6 176.5 304.2 173.1 304.8 169.6Z" stroke="#F2F2F2" stroke-width="4.0805" stroke-miterlimit="10"/>
<path d="M277.1 165C277.7 161.4 281.1 159 284.7 159.6C288.3 160.2 290.7 163.6 290.1 167.2C289.5 170.8 286.1 173.2 282.5 172.6C278.9 171.9 276.5 168.6 277.1 165Z" stroke="#F2F2F2" stroke-width="4.0805" stroke-miterlimit="10"/>
<path d="M364.9 192.3L345.6 189.1" stroke="#F2F2F2" stroke-width="4.0805" stroke-miterlimit="10"/>
<path d="M341.718 229.818L339.958 240.474L353.87 242.77L355.629 232.115L341.718 229.818Z" stroke="#F2F2F2" stroke-width="4.0803" stroke-miterlimit="9.9996"/>
<path d="M324.3 301L373.3 309.1C379.3 310.1 385 306 385.9 300C386.9 294 382.8 288.3 376.8 287.4L284 272.1C278.2 271.1 274.3 265.6 275.2 259.8C276.2 254 281.6 250.1 287.5 251L333.7 258.6C339.5 259.6 345 255.6 346 249.8L347.1 243" stroke="#F2F2F2" stroke-width="4.0805" stroke-miterlimit="10"/>
<path d="M1009.1 542C1010.2 535.6 1016.2 531.3 1022.6 532.3L1195.4 560.9C1201.8 562 1206.1 568 1205.1 574.4L1195.6 631.7C1194.5 638.1 1188.5 642.4 1182.1 641.4L1009.3 612.7C1002.9 611.6 998.6 605.6 999.6 599.2L1009.1 542Z" stroke="#F2F2F2" stroke-width="4.0805" stroke-miterlimit="10"/>
<path d="M1163.2 614L1168.7 580.6" stroke="#F2F2F2" stroke-width="4.0805" stroke-miterlimit="10"/>
<path d="M1149.2 594.5L1182.6 600.1" stroke="#F2F2F2" stroke-width="4.0805" stroke-miterlimit="10"/>
<path d="M1047.8 590.6C1048.4 587 1051.8 584.6 1055.4 585.2C1059 585.8 1061.4 589.2 1060.8 592.8C1060.2 596.4 1056.8 598.8 1053.2 598.2C1049.6 597.5 1047.2 594.2 1047.8 590.6Z" stroke="#F2F2F2" stroke-width="4.0805" stroke-miterlimit="10"/>
<path d="M1020.1 586C1020.7 582.4 1024.1 580 1027.7 580.6C1031.3 581.2 1033.7 584.6 1033.1 588.2C1032.5 591.8 1029.1 594.2 1025.5 593.6C1021.9 593 1019.5 589.6 1020.1 586Z" stroke="#F2F2F2" stroke-width="4.0805" stroke-miterlimit="10"/>
<path d="M1051.9 565.7C1052.5 562.1 1055.9 559.7 1059.5 560.3C1063.1 560.9 1065.5 564.3 1064.9 567.9C1064.3 571.5 1060.9 573.9 1057.3 573.3C1053.7 572.6 1051.3 569.2 1051.9 565.7Z" stroke="#F2F2F2" stroke-width="4.0805" stroke-miterlimit="10"/>
<path d="M1024.2 561.1C1024.8 557.5 1028.2 555.1 1031.8 555.7C1035.4 556.3 1037.8 559.7 1037.2 563.3C1036.6 566.9 1033.2 569.3 1029.6 568.7C1026 568 1023.6 564.7 1024.2 561.1Z" stroke="#F2F2F2" stroke-width="4.0805" stroke-miterlimit="10"/>
<path d="M1112 588.4L1092.7 585.2" stroke="#F2F2F2" stroke-width="4.0805" stroke-miterlimit="10"/>
<path d="M1088.74 625.952L1086.98 636.607L1100.89 638.904L1102.65 628.249L1088.74 625.952Z" stroke="#F2F2F2" stroke-width="4.0803" stroke-miterlimit="9.9996"/>
<path d="M1071.4 697.1L1120.4 705.2C1126.4 706.2 1132.1 702.1 1133 696.1C1134 690.1 1129.9 684.4 1123.9 683.5L1031.1 668.2C1025.3 667.2 1021.4 661.7 1022.3 655.9C1023.3 650.1 1028.7 646.2 1034.6 647.1L1080.8 654.7C1086.6 655.7 1092.1 651.7 1093.1 645.9L1094.2 639.1" stroke="#F2F2F2" stroke-width="4.0805" stroke-miterlimit="10"/>
<path d="M148.5 117.9L129.3 133L132.5 137.1L155.8 118.8C153.4 119.3 150.8 119 148.5 117.9Z" stroke="#F2F2F2" stroke-width="4.9874" stroke-miterlimit="10"/>
<path d="M269.4 29.5999L288 14.9999L284.8 10.8999L270.3 22.2999C270.9 24.5999 270.5 27.1999 269.4 29.5999Z" stroke="#F2F2F2" stroke-width="4.9874" stroke-miterlimit="10"/>
<path d="M124.2 137.1L148.6 117.9C152.5 119.7 157.3 119.3 161 116.5L266.2 33.7999C269.8 30.8999 271.3 26.4 270.5 22.1L294.9 2.89996C300.1 -1.20004 301 -8.60005 296.9 -13.8L254.2 -68.1C250.1 -73.3 242.7 -74.1 237.5 -70.1L213.1 -50.9C209.2 -52.7 204.4 -52.3 200.7 -49.5L95.3999 33.2999C91.7999 36.1999 90.2999 40.7 91.0999 45L66.6999 64.2C61.4999 68.3 60.5999 75.6999 64.6999 80.8999L107.4 135.2C111.5 140.2 119 141.1 124.2 137.1Z" stroke="#F2F2F2" stroke-width="4.9874" stroke-miterlimit="10"/>
<path d="M203.663 -34.548L109.095 39.8094L157.801 101.754L252.369 27.3967L203.663 -34.548Z" stroke="#F2F2F2" stroke-width="4.9874" stroke-miterlimit="10"/>
<path d="M120.6 94.0999C118.8 91.6999 119.2 88.2999 121.5 86.4999C123.9 84.6999 127.3 85.0999 129.1 87.3999C131 89.7999 130.5 93.1999 128.2 94.9999C125.8 96.8999 122.4 96.3999 120.6 94.0999Z" stroke="#F2F2F2" stroke-width="4.9874" stroke-miterlimit="10"/>
<path d="M102.4 108.4C100.6 106 101 102.6 103.3 100.8C105.7 98.9999 109.1 99.3999 110.9 101.7C112.7 104.1 112.3 107.5 110 109.3C107.6 111.2 104.2 110.8 102.4 108.4Z" stroke="#F2F2F2" stroke-width="4.9874" stroke-miterlimit="10"/>
<path d="M107.7 77.6999C105.9 75.2999 106.3 71.8999 108.6 70.0999C111 68.1999 114.4 68.6999 116.2 70.9999C118.1 73.3999 117.6 76.7999 115.3 78.5999C113 80.4999 109.5 80.0999 107.7 77.6999Z" stroke="#F2F2F2" stroke-width="4.9874" stroke-miterlimit="10"/>
<path d="M89.4998 91.9999C87.6998 89.5999 88.0998 86.1999 90.3998 84.3999C92.7998 82.5999 96.1998 82.9999 97.9998 85.2999C99.8998 87.6999 99.3998 91.0999 97.0998 92.8999C94.7998 94.7999 91.2998 94.3999 89.4998 91.9999Z" stroke="#F2F2F2" stroke-width="4.9874" stroke-miterlimit="10"/>
<path d="M269.4 693.1L288 678.5L284.8 674.4L270.3 685.8C270.9 688.1 270.5 690.7 269.4 693.1Z" stroke="#F2F2F2" stroke-width="4.9874" stroke-miterlimit="10"/>
<path d="M124.2 800.6L148.6 781.4C152.5 783.2 157.3 782.8 161 780L266.2 697.3C269.8 694.4 271.3 689.9 270.5 685.6L294.9 666.4C300.1 662.3 301 654.9 296.9 649.7L254.2 595.4C250.1 590.2 242.7 589.4 237.5 593.4L213.1 612.6C209.2 610.8 204.4 611.2 200.7 614L95.3999 696.8C91.7999 699.7 90.2999 704.2 91.0999 708.5L66.6999 727.7C61.4999 731.8 60.5999 739.2 64.6999 744.4L107.4 798.7C111.5 803.7 119 804.6 124.2 800.6Z" stroke="#F2F2F2" stroke-width="4.9874" stroke-miterlimit="10"/>
<path d="M203.659 628.854L109.091 703.211L157.798 765.156L252.365 690.798L203.659 628.854Z" stroke="#F2F2F2" stroke-width="4.9874" stroke-miterlimit="10"/>
<path d="M262.4 650.6L245.1 628.7" stroke="#F2F2F2" stroke-width="4.9874" stroke-miterlimit="10"/>
<path d="M242.8 648.3L264.7 631" stroke="#F2F2F2" stroke-width="4.9874" stroke-miterlimit="10"/>
<path d="M80.3834 449.793L64.7588 452.144L66.2319 461.934L81.8565 459.583L80.3834 449.793Z" stroke="#F2F2F2" stroke-width="4.9874" stroke-miterlimit="10"/>
<path d="M75.7001 377.6L20.6001 385.9C13.9001 386.9 9.20011 393.2 10.2001 399.9C11.2001 406.6 17.5001 411.3 24.2001 410.3L128.4 394.6C134.9 393.6 141 398.1 142 404.6C143 411.1 138.5 417.2 132 418.2L80.1001 426C73.6001 427 69.1001 433.1 70.1001 439.6L71.7001 449.9" stroke="#F2F2F2" stroke-width="4.9874" stroke-miterlimit="10"/>
<path d="M43 530.9C41.8 523.3 47.1 516.1 54.8 515C55.1 514.9 55.5 514.9 55.8 514.9C57.9 508.7 58.6 501.9 57.5 495C54 471.6 32.1 455.5 8.70003 459C-14.7 462.5 -30.9 484.4 -27.3 507.8C-23.8 531.2 -1.89997 547.3 21.5 543.8C30.1 542.5 37.6 538.8 43.6 533.4C43.3 532.6 43.1 531.7 43 530.9Z" stroke="#F2F2F2" stroke-width="4.9874" stroke-miterlimit="10"/>
<path d="M136.2 439.7C112.8 443.2 96.6 465.1 100.2 488.5C101.2 495.4 103.9 501.7 107.7 507C108 506.9 108.4 506.8 108.7 506.8C116.3 505.7 123.5 510.9 124.6 518.6C124.7 519.5 124.8 520.3 124.7 521.1C132 524.5 140.4 525.8 148.9 524.5C172.3 521 188.5 499.1 184.9 475.7C181.5 452.3 159.7 436.2 136.2 439.7Z" stroke="#F2F2F2" stroke-width="4.9874" stroke-miterlimit="10"/>
<path d="M97.1 523.3C97.1 523.1 97 523 97 522.8C95.9 515.5 100.7 508.7 107.7 507.1C103.9 501.8 101.2 495.5 100.2 488.6C98.4 476.3 101.9 464.5 109.1 455.5L39.3 466C48.8 472.5 55.7 482.8 57.5 495C58.5 501.9 57.9001 508.7 55.8001 514.9C63.0001 514.4 69.6 519.5 70.7 526.8C70.7 527 70.7001 527.2 70.8001 527.3L97.1 523.3Z" stroke="#F2F2F2" stroke-width="4.9874" stroke-miterlimit="10"/>
<path d="M70.7001 526.7C71.9001 534.3 66.6001 541.5 58.9001 542.6C51.3001 543.7 44.1001 538.5 43.0001 530.8C41.8001 523.2 47.1001 516 54.8001 514.9C62.4001 513.8 69.5001 519.1 70.7001 526.7Z" stroke="#F2F2F2" stroke-width="4.9874" stroke-miterlimit="10"/>
<path d="M207.8 524.7C195.2 500.1 185.9 474.3 184 470.9C184.4 472.5 184.8 474.1 185 475.8C188.5 499.2 172.4 521.1 149 524.6C140.4 525.9 132.1 524.5 124.8 521.2C124.8 521.6 124.7 522.1 124.7 522.5C137.3 532.1 155 540 175.8 554.1C184.5 560 199.7 561.5 206.9 553.8C215.4 544.5 212.7 534.1 207.8 524.7Z" stroke="#F2F2F2" stroke-width="4.9874" stroke-miterlimit="10"/>
<path d="M-34.9999 561.3C-30.1999 534.1 -28.7999 506.7 -28.0999 502.8C-27.9999 504.4 -27.8999 506.1 -27.6999 507.8C-24.1999 531.2 -2.29994 547.3 21.1001 543.8C29.7001 542.5 37.2001 538.8 43.2001 533.4C43.3001 533.8 43.5001 534.2 43.7001 534.6C34.4001 547.5 19.8001 560.2 4.20007 579.9C-2.39993 588.1 -16.4999 594.1 -25.5999 588.8C-36.3999 582.4 -36.7999 571.6 -34.9999 561.3Z" stroke="#F2F2F2" stroke-width="4.9874" stroke-miterlimit="10"/>
<path d="M124.6 518.6C125.8 526.2 120.5 533.4 112.8 534.5C105.2 535.6 98.0001 530.4 96.9001 522.7C95.8001 515.1 101 507.9 108.7 506.8C116.4 505.7 123.5 511 124.6 518.6Z" stroke="#F2F2F2" stroke-width="4.9874" stroke-miterlimit="10"/>
<path d="M66.2 500.1L74.9 498.8" stroke="#F2F2F2" stroke-width="4.9874" stroke-miterlimit="10"/>
<path d="M84.7 497.3L93.4 496" stroke="#F2F2F2" stroke-width="4.9874" stroke-miterlimit="10"/>
<path d="M11.4001 484L16.7001 519" stroke="#F2F2F2" stroke-width="4.9874" stroke-miterlimit="10"/>
<path d="M31.5001 498.9L-3.3999 504.1" stroke="#F2F2F2" stroke-width="4.9874" stroke-miterlimit="10"/>
<path d="M744.4 178.3C729.4 159.7 688.7 109 688.7 109C684.2 103.4 676.1 102.6 670.6 107L639.5 132C633.9 136.5 633.1 144.6 637.5 150.1C637.5 150.1 678.8 201.5 693.2 219.4C699.3 227.1 724.7 222.8 732.4 216.7C740.3 210.5 750.7 186.1 744.4 178.3Z" stroke="#F2F2F2" stroke-width="4.9874" stroke-miterlimit="10"/>
<path d="M744.3 159.8L745.4 179.4L694.7 116.3L713.6 121.6L744.3 159.8Z" stroke="#F2F2F2" stroke-width="4.9874" stroke-miterlimit="10"/>
<path d="M675.2 215.3L694.1 220.6L643.4 157.4L644.5 177L675.2 215.3Z" stroke="#F2F2F2" stroke-width="4.9874" stroke-miterlimit="10"/>
<path d="M650.4 166.2L651.5 185.8" stroke="#F2F2F2" stroke-width="4.9874" stroke-miterlimit="10"/>
<path d="M657.4 174.9L658.5 194.5" stroke="#F2F2F2" stroke-width="4.9874" stroke-miterlimit="10"/>
<path d="M661.2 197.8L680.1 203.1" stroke="#F2F2F2" stroke-width="4.9874" stroke-miterlimit="10"/>
<path d="M668.2 206.5L687.1 211.8" stroke="#F2F2F2" stroke-width="4.9874" stroke-miterlimit="10"/>
<path d="M701.7 125L720.6 130.3" stroke="#F2F2F2" stroke-width="4.9874" stroke-miterlimit="10"/>
<path d="M708.7 133.7L727.6 139" stroke="#F2F2F2" stroke-width="4.9874" stroke-miterlimit="10"/>
<path d="M730.2 142.3L731.3 161.9" stroke="#F2F2F2" stroke-width="4.9874" stroke-miterlimit="10"/>
<path d="M737.2 151L738.3 170.6" stroke="#F2F2F2" stroke-width="4.9874" stroke-miterlimit="10"/>
<path d="M716.3 183.6L661 114.7L649.2 124.1L704.5 193C707.1 196.2 711.8 196.8 715.1 194.2C718.4 191.6 718.9 186.9 716.3 183.6Z" stroke="#F2F2F2" stroke-width="4.9874" stroke-miterlimit="10"/>
<path d="M659.6 125.1L679.3 149.7" stroke="#F2F2F2" stroke-width="4.9874" stroke-miterlimit="10"/>
<path d="M653.837 109.686L645.263 116.577L650.524 123.124L659.099 116.234L653.837 109.686Z" stroke="#F2F2F2" stroke-width="4.9874" stroke-miterlimit="10"/>
<path d="M623.4 61.8L597.2 82.9001C592.6 86.6001 591.9 93.2001 595.6 97.8001C599.3 102.4 605.9 103.1 610.5 99.4001L647.7 69.5C652.1 65.9 658.6 66.6 662.2 71.1C665.8 75.5 665.1 82 660.6 85.6L647.7 95.9001C643.3 99.5001 642.6 105.9 646.1 110.4L648.5 113.4" stroke="#F2F2F2" stroke-width="4.9874" stroke-miterlimit="10"/>
<path d="M974.8 368.7C959.8 350.1 919.1 299.4 919.1 299.4C914.6 293.8 906.5 293 901 297.4L869.9 322.4C864.3 326.9 863.5 335 867.9 340.5C867.9 340.5 909.2 391.9 923.6 409.8C929.7 417.5 955.1 413.2 962.8 407.1C970.7 400.9 981.1 376.5 974.8 368.7Z" stroke="#F2F2F2" stroke-width="4.9874" stroke-miterlimit="10"/>
<path d="M974.7 350.2L975.8 369.8L925.1 306.7L944 312L974.7 350.2Z" stroke="#F2F2F2" stroke-width="4.9874" stroke-miterlimit="10"/>
<path d="M905.6 405.7L924.5 411L873.8 347.8L874.9 367.4L905.6 405.7Z" stroke="#F2F2F2" stroke-width="4.9874" stroke-miterlimit="10"/>
<path d="M880.8 356.6L881.9 376.2" stroke="#F2F2F2" stroke-width="4.9874" stroke-miterlimit="10"/>
<path d="M887.8 365.3L888.9 384.9" stroke="#F2F2F2" stroke-width="4.9874" stroke-miterlimit="10"/>
<path d="M891.6 388.2L910.5 393.5" stroke="#F2F2F2" stroke-width="4.9874" stroke-miterlimit="10"/>
<path d="M898.6 396.9L917.5 402.2" stroke="#F2F2F2" stroke-width="4.9874" stroke-miterlimit="10"/>
<path d="M932.1 315.4L951 320.7" stroke="#F2F2F2" stroke-width="4.9874" stroke-miterlimit="10"/>
<path d="M939.1 324.1L958 329.4" stroke="#F2F2F2" stroke-width="4.9874" stroke-miterlimit="10"/>
<path d="M960.6 332.7L961.7 352.3" stroke="#F2F2F2" stroke-width="4.9874" stroke-miterlimit="10"/>
<path d="M967.6 341.4L968.7 361" stroke="#F2F2F2" stroke-width="4.9874" stroke-miterlimit="10"/>
<path d="M946.7 374L891.4 305.1L879.6 314.5L934.9 383.4C937.5 386.6 942.2 387.2 945.5 384.6C948.8 382 949.3 377.3 946.7 374Z" stroke="#F2F2F2" stroke-width="4.9874" stroke-miterlimit="10"/>
<path d="M890 315.5L909.7 340.1" stroke="#F2F2F2" stroke-width="4.9874" stroke-miterlimit="10"/>
<path d="M884.361 300.148L875.787 307.038L881.048 313.586L889.623 306.695L884.361 300.148Z" stroke="#F2F2F2" stroke-width="4.9874" stroke-miterlimit="10"/>
<path d="M853.8 252.2L827.6 273.3C823 277 822.3 283.6 826 288.2C829.7 292.8 836.3 293.5 840.9 289.8L878.1 259.9C882.5 256.3 889 257 892.6 261.5C896.2 265.9 895.5 272.4 891 276L878.1 286.3C873.7 289.9 873 296.3 876.5 300.8L878.9 303.8" stroke="#F2F2F2" stroke-width="4.9874" stroke-miterlimit="10"/>
<path d="M961 778.9C946 760.3 905.3 709.6 905.3 709.6C900.8 704 892.7 703.2 887.2 707.6L856.1 732.6C850.5 737.1 849.7 745.2 854.1 750.7C854.1 750.7 895.4 802.1 909.8 820C915.9 827.7 941.3 823.4 949 817.3C956.9 811.1 967.3 786.7 961 778.9Z" stroke="#F2F2F2" stroke-width="4.9874" stroke-miterlimit="10"/>
<path d="M960.9 760.4L962 780L911.3 716.9L930.2 722.2L960.9 760.4Z" stroke="#F2F2F2" stroke-width="4.9874" stroke-miterlimit="10"/>
<path d="M932.9 784.2L877.6 715.3L865.8 724.7L921.1 793.6C923.7 796.8 928.4 797.4 931.7 794.8C935 792.2 935.5 787.5 932.9 784.2Z" stroke="#F2F2F2" stroke-width="4.9874" stroke-miterlimit="10"/>
<path d="M870.522 710.264L861.948 717.154L867.21 723.702L875.784 716.811L870.522 710.264Z" stroke="#F2F2F2" stroke-width="4.9874" stroke-miterlimit="10"/>
<path d="M840 662.4L813.8 683.5C809.2 687.2 808.5 693.8 812.2 698.4C815.9 703 822.5 703.7 827.1 700L864.3 670.1C868.7 666.5 875.2 667.2 878.8 671.7C882.4 676.1 881.7 682.6 877.2 686.2L864.3 696.5C859.9 700.1 859.2 706.5 862.7 711L865.1 714" stroke="#F2F2F2" stroke-width="4.9874" stroke-miterlimit="10"/>
<path d="M805.9 -11C807 -17.4 813 -21.7 819.4 -20.7L992.2 7.89996C998.6 8.99996 1002.9 15 1001.9 21.4L992.4 78.7C991.3 85.1 985.3 89.4 978.9 88.4L806.1 59.7C799.7 58.6 795.4 52.6 796.4 46.2L805.9 -11Z" stroke="#F2F2F2" stroke-width="4.0805" stroke-miterlimit="10"/>
<path d="M960 61L965.5 27.6" stroke="#F2F2F2" stroke-width="4.0805" stroke-miterlimit="10"/>
<path d="M946 41.5L979.4 47.1" stroke="#F2F2F2" stroke-width="4.0805" stroke-miterlimit="10"/>
<path d="M844.6 37.5999C845.2 33.9999 848.6 31.5999 852.2 32.1999C855.8 32.7999 858.2 36.1999 857.6 39.7999C857 43.3999 853.6 45.7999 850 45.1999C846.4 44.4999 844 41.1999 844.6 37.5999Z" stroke="#F2F2F2" stroke-width="4.0805" stroke-miterlimit="10"/>
<path d="M816.9 32.9999C817.5 29.3999 820.9 26.9999 824.5 27.5999C828.1 28.1999 830.5 31.5999 829.9 35.1999C829.3 38.7999 825.9 41.1999 822.3 40.5999C818.7 39.9999 816.3 36.5999 816.9 32.9999Z" stroke="#F2F2F2" stroke-width="4.0805" stroke-miterlimit="10"/>
<path d="M848.7 12.6999C849.3 9.09989 852.7 6.69989 856.3 7.29989C859.9 7.89989 862.3 11.2999 861.7 14.8999C861.1 18.4999 857.7 20.8999 854.1 20.2999C850.5 19.5999 848.1 16.1999 848.7 12.6999Z" stroke="#F2F2F2" stroke-width="4.0805" stroke-miterlimit="10"/>
<path d="M821 8.09992C821.6 4.49992 825 2.09992 828.6 2.69992C832.2 3.29992 834.6 6.69992 834 10.2999C833.4 13.8999 830 16.2999 826.4 15.6999C822.8 14.9999 820.4 11.6999 821 8.09992Z" stroke="#F2F2F2" stroke-width="4.0805" stroke-miterlimit="10"/>
<path d="M908.8 35.4L889.5 32.2" stroke="#F2F2F2" stroke-width="4.0805" stroke-miterlimit="10"/>
<path d="M885.642 72.9547L883.882 83.61L897.793 85.9069L899.553 75.2516L885.642 72.9547Z" stroke="#F2F2F2" stroke-width="4.0803" stroke-miterlimit="9.9996"/>
<path d="M868.2 144.1L917.2 152.2C923.2 153.2 928.9 149.1 929.8 143.1C930.8 137.1 926.7 131.4 920.7 130.5L827.9 115.2C822.1 114.2 818.2 108.7 819.1 102.9C820.1 97.1 825.5 93.2 831.4 94.1L877.6 101.7C883.4 102.7 888.9 98.7 889.9 92.9L891 86.1" stroke="#F2F2F2" stroke-width="4.0805" stroke-miterlimit="10"/>
<path d="M580.5 17.9L561.3 33L564.5 37.1L587.8 18.8C585.4 19.3 582.8 19 580.5 17.9Z" stroke="#F2F2F2" stroke-width="4.9874" stroke-miterlimit="10"/>
<path d="M556.2 37.1001L580.6 17.9001C584.5 19.7001 589.3 19.3001 593 16.5001L698.2 -66.1999C701.8 -69.0999 703.3 -73.5999 702.5 -77.8999L726.9 -97.0999C732.1 -101.2 733 -108.6 728.9 -113.8L686.2 -168.1C682.1 -173.3 674.7 -174.1 669.5 -170.1L645.1 -150.9C641.2 -152.7 636.4 -152.3 632.7 -149.5L527.4 -66.6999C523.8 -63.7999 522.3 -59.2999 523.1 -54.9999L498.7 -35.7999C493.5 -31.6999 492.6 -24.2999 496.7 -19.0999L539.4 35.2001C543.5 40.2001 551 41.1001 556.2 37.1001Z" stroke="#F2F2F2" stroke-width="4.9874" stroke-miterlimit="10"/>
<path d="M635.765 -134.562L541.197 -60.2048L589.904 1.73985L684.471 -72.6176L635.765 -134.562Z" stroke="#F2F2F2" stroke-width="4.9874" stroke-miterlimit="10"/>
<path d="M534.4 8.40019C532.6 6.00019 533 2.60019 535.3 0.800189C537.7 -0.99981 541.1 -0.59981 542.9 1.70019C544.7 4.10019 544.3 7.50019 542 9.30019C539.6 11.2002 536.2 10.8002 534.4 8.40019Z" stroke="#F2F2F2" stroke-width="4.9874" stroke-miterlimit="10"/>
<path d="M618.6 664.6L599.4 679.7L602.6 683.8L625.9 665.5C623.5 666 620.9 665.7 618.6 664.6Z" stroke="#F2F2F2" stroke-width="4.9874" stroke-miterlimit="10"/>
<path d="M739.5 576.3L758.1 561.7L754.9 557.6L740.4 569C741 571.3 740.6 573.9 739.5 576.3Z" stroke="#F2F2F2" stroke-width="4.9874" stroke-miterlimit="10"/>
<path d="M594.3 683.8L618.7 664.6C622.6 666.4 627.4 666 631.1 663.2L736.3 580.5C739.9 577.6 741.4 573.1 740.6 568.8L765 549.6C770.2 545.5 771.1 538.1 767 532.9L724.3 478.6C720.2 473.4 712.8 472.6 707.6 476.6L683.2 495.8C679.3 494 674.5 494.4 670.8 497.2L565.5 580C561.9 582.9 560.4 587.4 561.2 591.7L536.8 610.9C531.6 615 530.7 622.4 534.8 627.6L577.5 681.9C581.6 686.9 589.1 687.8 594.3 683.8Z" stroke="#F2F2F2" stroke-width="4.9874" stroke-miterlimit="10"/>
<path d="M673.853 512.04L579.286 586.397L627.992 648.342L722.56 573.984L673.853 512.04Z" stroke="#F2F2F2" stroke-width="4.9874" stroke-miterlimit="10"/>
<path d="M732.5 533.8L715.2 511.9" stroke="#F2F2F2" stroke-width="4.9874" stroke-miterlimit="10"/>
<path d="M712.9 531.5L734.8 514.2" stroke="#F2F2F2" stroke-width="4.9874" stroke-miterlimit="10"/>
<path d="M590.7 640.8C588.9 638.4 589.3 635 591.6 633.2C594 631.4 597.4 631.8 599.2 634.1C601.1 636.5 600.6 639.9 598.3 641.7C595.9 643.6 592.5 643.1 590.7 640.8Z" stroke="#F2F2F2" stroke-width="4.9874" stroke-miterlimit="10"/>
<path d="M572.5 655.1C570.7 652.7 571.1 649.3 573.4 647.5C575.8 645.7 579.2 646.1 581 648.4C582.8 650.8 582.4 654.2 580.1 656C577.7 657.9 574.3 657.5 572.5 655.1Z" stroke="#F2F2F2" stroke-width="4.9874" stroke-miterlimit="10"/>
<path d="M577.8 624.4C576 622 576.4 618.6 578.7 616.8C581.1 614.9 584.5 615.4 586.3 617.7C588.2 620.1 587.7 623.5 585.4 625.3C583.1 627.2 579.6 626.8 577.8 624.4Z" stroke="#F2F2F2" stroke-width="4.9874" stroke-miterlimit="10"/>
<path d="M559.6 638.7C557.8 636.3 558.2 632.9 560.5 631.1C562.9 629.3 566.3 629.7 568.1 632C570 634.4 569.5 637.8 567.2 639.6C564.9 641.5 561.4 641.1 559.6 638.7Z" stroke="#F2F2F2" stroke-width="4.9874" stroke-miterlimit="10"/>
<path d="M619.893 314.293L604.269 316.644L605.742 326.434L621.367 324.083L619.893 314.293Z" stroke="#F2F2F2" stroke-width="4.9874" stroke-miterlimit="10"/>
<path d="M615.3 242.2L560.2 250.5C553.5 251.5 548.8 257.8 549.8 264.5C550.8 271.2 557.1 275.9 563.8 274.9L668 259.2C674.5 258.2 680.6 262.7 681.6 269.2C682.6 275.7 678.1 281.8 671.6 282.8L619.7 290.6C613.2 291.6 608.7 297.7 609.7 304.2L611.3 314.5" stroke="#F2F2F2" stroke-width="4.9874" stroke-miterlimit="10"/>
<path d="M582.6 395.5C581.4 387.9 586.7 380.7 594.4 379.6C594.7 379.5 595.1 379.5 595.4 379.5C597.5 373.3 598.2 366.5 597.1 359.6C593.6 336.2 571.7 320.1 548.3 323.6C524.9 327.1 508.7 349 512.3 372.4C515.8 395.8 537.7 411.9 561.1 408.4C569.7 407.1 577.2 403.4 583.2 398C582.9 397.2 582.7 396.3 582.6 395.5Z" stroke="#F2F2F2" stroke-width="4.9874" stroke-miterlimit="10"/>
<path d="M675.8 304.3C652.4 307.8 636.2 329.7 639.8 353.1C640.8 360 643.5 366.3 647.3 371.6C647.6 371.5 648 371.4 648.3 371.4C655.9 370.3 663.1 375.5 664.2 383.2C664.3 384.1 664.4 384.9 664.3 385.7C671.6 389.1 680 390.4 688.5 389.1C711.9 385.6 728.1 363.7 724.5 340.3C721.1 316.9 699.3 300.8 675.8 304.3Z" stroke="#F2F2F2" stroke-width="4.9874" stroke-miterlimit="10"/>
<path d="M636.7 387.9C636.7 387.7 636.6 387.6 636.6 387.4C635.5 380.1 640.3 373.3 647.3 371.7C643.5 366.4 640.8 360.1 639.8 353.2C638 340.9 641.5 329.1 648.7 320.1L578.9 330.6C588.4 337.1 595.3 347.4 597.1 359.6C598.1 366.5 597.5 373.3 595.4 379.5C602.6 379 609.2 384.1 610.3 391.4C610.3 391.6 610.3 391.8 610.4 391.9L636.7 387.9Z" stroke="#F2F2F2" stroke-width="4.9874" stroke-miterlimit="10"/>
<path d="M610.3 391.3C611.5 398.9 606.2 406.1 598.5 407.2C590.9 408.3 583.7 403.1 582.6 395.4C581.4 387.8 586.7 380.6 594.4 379.5C602 378.4 609.1 383.7 610.3 391.3Z" stroke="#F2F2F2" stroke-width="4.9874" stroke-miterlimit="10"/>
<path d="M747.4 389.3C734.8 364.7 725.5 338.9 723.6 335.5C724 337.1 724.4 338.7 724.6 340.4C728.1 363.8 712 385.7 688.6 389.2C680 390.5 671.7 389.1 664.4 385.8C664.4 386.2 664.3 386.7 664.3 387.1C676.9 396.7 694.6 404.6 715.4 418.7C724.1 424.6 739.3 426.1 746.5 418.4C755 409.1 752.3 398.7 747.4 389.3Z" stroke="#F2F2F2" stroke-width="4.9874" stroke-miterlimit="10"/>
<path d="M504.6 425.9C509.4 398.7 510.8 371.3 511.5 367.4C511.6 369 511.7 370.7 511.9 372.4C515.4 395.8 537.3 411.9 560.7 408.4C569.3 407.1 576.8 403.4 582.8 398C582.9 398.4 583.1 398.8 583.3 399.2C574 412.1 559.4 424.8 543.8 444.5C537.2 452.7 523.1 458.7 514 453.4C503.2 447 502.8 436.2 504.6 425.9Z" stroke="#F2F2F2" stroke-width="4.9874" stroke-miterlimit="10"/>
<path d="M664.2 383.2C665.4 390.8 660.1 398 652.4 399.1C644.8 400.2 637.6 395 636.5 387.3C635.4 379.7 640.6 372.5 648.3 371.4C656 370.3 663.1 375.6 664.2 383.2Z" stroke="#F2F2F2" stroke-width="4.9874" stroke-miterlimit="10"/>
<path d="M605.8 364.7L614.5 363.4" stroke="#F2F2F2" stroke-width="4.9874" stroke-miterlimit="10"/>
<path d="M624.3 361.9L633 360.6" stroke="#F2F2F2" stroke-width="4.9874" stroke-miterlimit="10"/>
<path d="M551 348.6L556.3 383.6" stroke="#F2F2F2" stroke-width="4.9874" stroke-miterlimit="10"/>
<path d="M571.1 363.5L536.2 368.7" stroke="#F2F2F2" stroke-width="4.9874" stroke-miterlimit="10"/>
<path d="M1227 153.6C1212 135 1171.3 84.2999 1171.3 84.2999C1166.8 78.6999 1158.7 77.8999 1153.2 82.2999L1122.1 107.3C1116.5 111.8 1115.7 119.9 1120.1 125.4C1120.1 125.4 1161.4 176.8 1175.8 194.7C1181.9 202.4 1207.3 198.1 1215 192C1222.9 185.8 1233.3 161.4 1227 153.6Z" stroke="#F2F2F2" stroke-width="4.9874" stroke-miterlimit="10"/>
<path d="M1226.9 135.1L1228 154.7L1177.3 91.6L1196.2 96.9L1226.9 135.1Z" stroke="#F2F2F2" stroke-width="4.9874" stroke-miterlimit="10"/>
<path d="M1157.8 190.6L1176.7 195.9L1126 132.7L1127.1 152.3L1157.8 190.6Z" stroke="#F2F2F2" stroke-width="4.9874" stroke-miterlimit="10"/>
<path d="M1133 141.5L1134.1 161.1" stroke="#F2F2F2" stroke-width="4.9874" stroke-miterlimit="10"/>
<path d="M1140 150.2L1141.1 169.8" stroke="#F2F2F2" stroke-width="4.9874" stroke-miterlimit="10"/>
<path d="M1143.8 173.1L1162.7 178.4" stroke="#F2F2F2" stroke-width="4.9874" stroke-miterlimit="10"/>
<path d="M1150.8 181.8L1169.7 187.1" stroke="#F2F2F2" stroke-width="4.9874" stroke-miterlimit="10"/>
<path d="M1184.3 100.3L1203.2 105.6" stroke="#F2F2F2" stroke-width="4.9874" stroke-miterlimit="10"/>
<path d="M1191.3 109L1210.2 114.3" stroke="#F2F2F2" stroke-width="4.9874" stroke-miterlimit="10"/>
<path d="M1212.8 117.6L1213.9 137.2" stroke="#F2F2F2" stroke-width="4.9874" stroke-miterlimit="10"/>
<path d="M1219.8 126.3L1220.9 145.9" stroke="#F2F2F2" stroke-width="4.9874" stroke-miterlimit="10"/>
<path d="M1198.9 158.9L1143.6 90L1131.8 99.4L1187.1 168.3C1189.7 171.5 1194.4 172.1 1197.7 169.5C1201 166.9 1201.5 162.2 1198.9 158.9Z" stroke="#F2F2F2" stroke-width="4.9874" stroke-miterlimit="10"/>
<path d="M1142.2 100.4L1161.9 125" stroke="#F2F2F2" stroke-width="4.9874" stroke-miterlimit="10"/>
<path d="M1136.52 84.9603L1127.95 91.8507L1133.21 98.3985L1141.79 91.5081L1136.52 84.9603Z" stroke="#F2F2F2" stroke-width="4.9874" stroke-miterlimit="10"/>
<path d="M1106 37.1L1079.8 58.2C1075.2 61.9 1074.5 68.5 1078.2 73.1C1081.9 77.7 1088.5 78.4 1093.1 74.7L1130.3 44.8C1134.7 41.2 1141.2 41.9 1144.8 46.4C1148.4 50.8 1147.7 57.3 1143.2 60.9L1130.3 71.2C1125.9 74.8 1125.2 81.2 1128.7 85.7L1131.1 88.7" stroke="#F2F2F2" stroke-width="4.9874" stroke-miterlimit="10"/>
<path d="M1201.31 314.282L1185.69 316.633L1187.16 326.423L1202.78 324.072L1201.31 314.282Z" stroke="#F2F2F2" stroke-width="4.9874" stroke-miterlimit="10"/>
<path d="M1196.6 242.2L1141.5 250.5C1134.8 251.5 1130.1 257.8 1131.1 264.5C1132.1 271.2 1138.4 275.9 1145.1 274.9L1249.3 259.2C1255.8 258.2 1261.9 262.7 1262.9 269.2C1263.9 275.7 1259.4 281.8 1252.9 282.8L1201 290.6C1194.5 291.6 1190 297.7 1191 304.2L1192.6 314.5" stroke="#F2F2F2" stroke-width="4.9874" stroke-miterlimit="10"/>
<path d="M1163.9 395.5C1162.7 387.9 1168 380.7 1175.7 379.6C1176 379.5 1176.4 379.5 1176.7 379.5C1178.8 373.3 1179.5 366.5 1178.4 359.6C1174.9 336.2 1153 320.1 1129.6 323.6C1106.2 327.1 1090 349 1093.6 372.4C1097.1 395.8 1119 411.9 1142.4 408.4C1151 407.1 1158.5 403.4 1164.5 398C1164.2 397.2 1164 396.3 1163.9 395.5Z" stroke="#F2F2F2" stroke-width="4.9874" stroke-miterlimit="10"/>
<path d="M1257.1 304.3C1233.7 307.8 1217.5 329.7 1221.1 353.1C1222.1 360 1224.8 366.3 1228.6 371.6C1228.9 371.5 1229.3 371.4 1229.6 371.4C1237.2 370.3 1244.4 375.5 1245.5 383.2C1245.6 384.1 1245.7 384.9 1245.6 385.7C1252.9 389.1 1261.3 390.4 1269.8 389.1C1293.2 385.6 1309.4 363.7 1305.8 340.3C1302.4 316.9 1280.6 300.8 1257.1 304.3Z" stroke="#F2F2F2" stroke-width="4.9874" stroke-miterlimit="10"/>
<path d="M1218 387.9C1218 387.7 1217.9 387.6 1217.9 387.4C1216.8 380.1 1221.6 373.3 1228.6 371.7C1224.8 366.4 1222.1 360.1 1221.1 353.2C1219.3 340.9 1222.8 329.1 1230 320.1L1160.2 330.6C1169.7 337.1 1176.6 347.4 1178.4 359.6C1179.4 366.5 1178.8 373.3 1176.7 379.5C1183.9 379 1190.5 384.1 1191.6 391.4C1191.6 391.6 1191.6 391.8 1191.7 391.9L1218 387.9Z" stroke="#F2F2F2" stroke-width="4.9874" stroke-miterlimit="10"/>
<path d="M1191.6 391.3C1192.8 398.9 1187.5 406.1 1179.8 407.2C1172.2 408.3 1165 403.1 1163.9 395.4C1162.7 387.8 1168 380.6 1175.7 379.5C1183.3 378.4 1190.4 383.7 1191.6 391.3Z" stroke="#F2F2F2" stroke-width="4.9874" stroke-miterlimit="10"/>
<path d="M1328.7 389.3C1316.1 364.7 1306.8 338.9 1304.9 335.5C1305.3 337.1 1305.7 338.7 1305.9 340.4C1309.4 363.8 1293.3 385.7 1269.9 389.2C1261.3 390.5 1253 389.1 1245.7 385.8C1245.7 386.2 1245.6 386.7 1245.6 387.1C1258.2 396.7 1275.9 404.6 1296.7 418.7C1305.4 424.6 1320.6 426.1 1327.8 418.4C1336.3 409.1 1333.6 398.7 1328.7 389.3Z" stroke="#F2F2F2" stroke-width="4.9874" stroke-miterlimit="10"/>
<path d="M1085.9 425.9C1090.7 398.7 1092.1 371.3 1092.8 367.4C1092.9 369 1093 370.7 1093.2 372.4C1096.7 395.8 1118.6 411.9 1142 408.4C1150.6 407.1 1158.1 403.4 1164.1 398C1164.2 398.4 1164.4 398.8 1164.6 399.2C1155.3 412.1 1140.7 424.8 1125.1 444.5C1118.5 452.7 1104.4 458.7 1095.3 453.4C1084.5 447 1084.1 436.2 1085.9 425.9Z" stroke="#F2F2F2" stroke-width="4.9874" stroke-miterlimit="10"/>
<path d="M1245.5 383.2C1246.7 390.8 1241.4 398 1233.7 399.1C1226.1 400.2 1218.9 395 1217.8 387.3C1216.7 379.7 1221.9 372.5 1229.6 371.4C1237.3 370.3 1244.4 375.6 1245.5 383.2Z" stroke="#F2F2F2" stroke-width="4.9874" stroke-miterlimit="10"/>
<path d="M1187.1 364.7L1195.8 363.4" stroke="#F2F2F2" stroke-width="4.9874" stroke-miterlimit="10"/>
<path d="M1205.6 361.9L1214.3 360.6" stroke="#F2F2F2" stroke-width="4.9874" stroke-miterlimit="10"/>
<path d="M1132.3 348.6L1137.6 383.6" stroke="#F2F2F2" stroke-width="4.9874" stroke-miterlimit="10"/>
<path d="M1152.4 363.5L1117.5 368.7" stroke="#F2F2F2" stroke-width="4.9874" stroke-miterlimit="10"/>
</g>
<defs>
<clipPath id="clip0">
<rect width="1280" height="720" fill="white" transform="translate(-9)"/>
</clipPath>
</defs>
</svg>
