<svg width="1280" height="2930" viewBox="0 0 1280 2930" fill="none" xmlns="http://www.w3.org/2000/svg">
<g opacity="0.2" clip-path="url(#clip0)">
<path d="M80.2091 581.827V579.306C80.2091 578.226 79.3448 577.325 78.2283 577.325H76.1035H63.4624C66.8117 572.391 65.083 568.394 64.1106 566.629C63.4984 565.477 62.2018 564 60.4731 564H60.3651C58.7805 564 56.7997 565.188 56.6196 566.809C56.4755 567.998 57.556 570.591 56.9437 572.716C56.5475 574.084 55.3231 575.273 54.6028 575.777C53.8825 576.281 50.3891 578.586 50.3891 579.954V582.079C50.353 582.548 50.3891 582.836 50.3891 582.836V600.627C50.3891 602.067 51.5775 603.256 53.0181 603.256L73.0422 603.22V603.184H75.1671C76.2475 603.184 77.292 603.148 77.9762 601.491C78.6605 599.871 78.7686 598.646 78.7686 598.646C78.7686 597.566 76.4276 596.665 75.3472 596.665C76.4276 596.665 78.2283 595.765 78.7686 594.684C79.3088 593.568 79.5969 592.163 79.5969 592.163C79.5969 591.083 78.1923 590.183 77.1119 590.183C78.1923 590.183 80.2452 589.282 80.2452 588.202V585.681C80.2452 584.6 78.5165 583.7 77.436 583.7C78.4804 583.808 80.2091 582.944 80.2091 581.827Z" fill="#B3B3B3"/>
<path d="M48.3726 582.367C48.3726 581.503 47.6883 580.819 46.8239 580.819H34.0027C33.1384 580.819 32.4541 581.503 32.4541 582.367V601.851C32.4541 602.716 33.1384 603.4 34.0027 603.4H46.8239C47.6883 603.4 48.3726 602.716 48.3726 601.851V582.367ZM42.9704 600.879C41.5298 600.879 40.3773 599.727 40.3773 598.286C40.3773 596.845 41.5298 595.693 42.9704 595.693C44.4109 595.693 45.5634 596.845 45.5634 598.286C45.5634 599.727 44.3749 600.879 42.9704 600.879Z" fill="#B3B3B3"/>
<path d="M1221.69 1121.5V1117.18C1221.69 1115.34 1220.21 1113.8 1218.3 1113.8H1214.67H1193.04C1198.77 1105.35 1195.82 1098.52 1194.15 1095.5C1193.11 1093.53 1190.89 1091 1187.93 1091H1187.75C1185.04 1091 1181.65 1093.03 1181.34 1095.81C1181.09 1097.84 1182.94 1102.27 1181.89 1105.91C1181.22 1108.25 1179.12 1110.28 1177.89 1111.15C1176.66 1112.01 1170.68 1115.95 1170.68 1118.29V1121.93C1170.62 1122.73 1170.68 1123.22 1170.68 1123.22V1153.66C1170.68 1156.12 1172.71 1158.15 1175.18 1158.15L1209.43 1158.09V1158.03H1213.07C1214.92 1158.03 1216.7 1157.97 1217.87 1155.13C1219.04 1152.36 1219.23 1150.27 1219.23 1150.27C1219.23 1148.42 1215.22 1146.88 1213.38 1146.88C1215.22 1146.88 1218.3 1145.34 1219.23 1143.49C1220.15 1141.58 1220.65 1139.18 1220.65 1139.18C1220.65 1137.33 1218.24 1135.79 1216.39 1135.79C1218.24 1135.79 1221.75 1134.25 1221.75 1132.4V1128.09C1221.75 1126.24 1218.8 1124.7 1216.95 1124.7C1218.74 1124.88 1221.69 1123.41 1221.69 1121.5Z" fill="#B3B3B3"/>
<path d="M1167.23 1122.42C1167.23 1120.94 1166.06 1119.77 1164.58 1119.77H1142.65C1141.17 1119.77 1140 1120.94 1140 1122.42V1155.75C1140 1157.23 1141.17 1158.4 1142.65 1158.4H1164.58C1166.06 1158.4 1167.23 1157.23 1167.23 1155.75V1122.42ZM1157.99 1154.09C1155.53 1154.09 1153.55 1152.12 1153.55 1149.65C1153.55 1147.19 1155.53 1145.22 1157.99 1145.22C1160.45 1145.22 1162.43 1147.19 1162.43 1149.65C1162.43 1152.12 1160.39 1154.09 1157.99 1154.09Z" fill="#B3B3B3"/>
<path d="M923.5 2240.6V2236C923.5 2234 921.9 2232.4 919.9 2232.4H916H892.8C898.9 2223.3 895.7 2216 894 2212.8C892.8 2210.7 890.5 2208 887.3 2208H887.1C884.2 2208 880.6 2210.2 880.2 2213.1C880 2215.3 881.9 2220 880.8 2223.9C880.1 2226.4 877.8 2228.6 876.5 2229.5C875.2 2230.5 868.7 2234.6 868.7 2237.1V2241C868.6 2241.9 868.7 2242.4 868.7 2242.4V2275C868.7 2277.7 870.9 2279.8 873.5 2279.8H910.2H914.1C916.1 2279.8 918 2279.7 919.3 2276.7C920.6 2273.7 920.7 2271.5 920.7 2271.5C920.7 2269.5 916.4 2267.9 914.4 2267.9C916.4 2267.9 919.7 2266.3 920.7 2264.3C921.7 2262.3 922.2 2259.7 922.2 2259.7C922.2 2257.7 919.6 2256.1 917.6 2256.1C919.6 2256.1 923.3 2254.5 923.3 2252.5V2247.9C923.3 2245.9 920.1 2244.3 918.1 2244.3C920.3 2244.2 923.5 2242.6 923.5 2240.6Z" fill="#B3B3B3"/>
<path d="M865.1 2241.5C865.1 2239.9 863.8 2238.7 862.3 2238.7H838.8C837.2 2238.7 836 2240 836 2241.6V2277.3C836 2278.9 837.3 2280.2 838.9 2280.2H862.4C864 2280.2 865.2 2278.9 865.2 2277.3L865.1 2241.5ZM855.2 2275.5C852.6 2275.5 850.5 2273.4 850.5 2270.8C850.5 2268.2 852.6 2266.1 855.2 2266.1C857.8 2266.1 859.9 2268.2 859.9 2270.8C859.9 2273.4 857.8 2275.5 855.2 2275.5Z" fill="#B3B3B3"/>
<path d="M518 2511.3V2506.7C518 2504.7 516.4 2503.1 514.4 2503.1H510.5H487.3C493.4 2494 490.2 2486.7 488.5 2483.5C487.3 2481.4 485 2478.7 481.8 2478.7H481.6C478.7 2478.7 475.1 2480.9 474.7 2483.8C474.5 2486 476.4 2490.7 475.3 2494.6C474.6 2497.1 472.3 2499.3 471 2500.2C469.7 2501.2 463.2 2505.3 463.2 2507.8V2511.7C463.1 2512.6 463.2 2513.1 463.2 2513.1V2545.7C463.2 2548.4 465.4 2550.5 468 2550.5H504.7H508.6C510.6 2550.5 512.5 2550.4 513.8 2547.4C515.1 2544.4 515.2 2542.2 515.2 2542.2C515.2 2540.2 510.9 2538.6 508.9 2538.6C510.9 2538.6 514.2 2537 515.2 2535C516.2 2533 516.7 2530.4 516.7 2530.4C516.7 2528.4 514.1 2526.8 512.1 2526.8C514.1 2526.8 517.8 2525.2 517.8 2523.2V2518.6C517.8 2516.6 514.6 2515 512.6 2515C514.8 2514.9 518 2513.3 518 2511.3Z" fill="#B3B3B3"/>
<path d="M459.6 2512.2C459.6 2510.6 458.3 2509.4 456.8 2509.4H433.3C431.7 2509.4 430.5 2510.7 430.5 2512.3V2548C430.5 2549.6 431.8 2550.9 433.4 2550.9H456.9C458.5 2550.9 459.7 2549.6 459.7 2548L459.6 2512.2ZM449.7 2546.2C447.1 2546.2 445 2544.1 445 2541.5C445 2538.9 447.1 2536.8 449.7 2536.8C452.3 2536.8 454.4 2538.9 454.4 2541.5C454.4 2544.1 452.3 2546.2 449.7 2546.2Z" fill="#B3B3B3"/>
<path d="M1158.5 120.8V116.2C1158.5 114.2 1156.9 112.6 1154.9 112.6H1151H1127.8C1133.9 103.5 1130.7 96.2002 1129 93.0002C1127.8 90.9002 1125.5 88.2002 1122.3 88.2002H1122.1C1119.2 88.2002 1115.6 90.4002 1115.2 93.3002C1115 95.5002 1116.9 100.2 1115.8 104.1C1115.1 106.6 1112.8 108.8 1111.5 109.7C1110.2 110.7 1103.7 114.8 1103.7 117.3V121.2C1103.6 122.1 1103.7 122.6 1103.7 122.6V155.2C1103.7 157.9 1105.9 160 1108.5 160H1145.2H1149.1C1151.1 160 1153 159.9 1154.3 156.9C1155.6 153.9 1155.7 151.7 1155.7 151.7C1155.7 149.7 1151.4 148.1 1149.4 148.1C1151.4 148.1 1154.7 146.5 1155.7 144.5C1156.7 142.5 1157.2 139.9 1157.2 139.9C1157.2 137.9 1154.6 136.3 1152.6 136.3C1154.6 136.3 1158.3 134.7 1158.3 132.7V128.1C1158.3 126.1 1155.1 124.5 1153.1 124.5C1155.3 124.4 1158.5 122.8 1158.5 120.8Z" fill="#B3B3B3"/>
<path d="M1100.1 121.7C1100.1 120.1 1098.8 118.9 1097.3 118.9H1073.8C1072.2 118.9 1071 120.2 1071 121.8V157.5C1071 159.1 1072.3 160.4 1073.9 160.4H1097.4C1099 160.4 1100.2 159.1 1100.2 157.5L1100.1 121.7ZM1090.2 155.7C1087.6 155.7 1085.5 153.6 1085.5 151C1085.5 148.4 1087.6 146.3 1090.2 146.3C1092.8 146.3 1094.9 148.4 1094.9 151C1094.9 153.6 1092.8 155.7 1090.2 155.7Z" fill="#B3B3B3"/>
<path d="M902.277 579.546V573.953C902.277 571.557 900.36 569.559 897.883 569.559H893.17H865.128C872.558 558.614 868.724 549.747 866.566 545.832C865.208 543.276 862.332 540 858.498 540H858.258C854.743 540 850.349 542.636 849.949 546.231C849.63 548.868 852.026 554.62 850.668 559.333C849.79 562.369 847.073 565.006 845.475 566.124C843.878 567.243 836.128 572.356 836.128 575.391V580.105C836.048 581.144 836.128 581.783 836.128 581.783V621.248C836.128 624.444 838.765 627.08 841.96 627.08L886.379 627.001V626.921H891.093C893.49 626.921 895.806 626.841 897.324 623.166C898.842 619.571 899.082 616.854 899.082 616.854C899.082 614.458 893.889 612.46 891.492 612.46C893.889 612.46 897.883 610.463 899.082 608.067C900.28 605.59 900.919 602.474 900.919 602.474C900.919 600.078 897.804 598.08 895.407 598.08C897.804 598.08 902.357 596.083 902.357 593.686V588.094C902.357 585.697 898.523 583.7 896.126 583.7C898.443 583.94 902.277 582.022 902.277 579.546Z" fill="#B3B3B3"/>
<path d="M831.654 580.744C831.654 578.826 830.136 577.309 828.219 577.309H799.778C797.861 577.309 796.343 578.826 796.343 580.744V623.965C796.343 625.882 797.861 627.4 799.778 627.4H828.219C830.136 627.4 831.654 625.882 831.654 623.965V580.744ZM819.671 621.807C816.475 621.807 813.919 619.251 813.919 616.055C813.919 612.86 816.475 610.303 819.671 610.303C822.866 610.303 825.423 612.86 825.423 616.055C825.423 619.251 822.786 621.807 819.671 621.807Z" fill="#B3B3B3"/>
<path d="M359.401 397.001C315.701 396.801 280.101 432.101 280.001 475.801C279.901 497.401 288.501 517.001 302.401 531.301L300.401 563.801L329.301 549.401C338.401 553.101 348.301 555.201 358.801 555.201C402.501 555.401 438.101 520.101 438.201 476.401C438.401 432.801 403.101 397.201 359.401 397.001Z" fill="#CCCCCC"/>
<path d="M396.7 445.301C374 435.801 359.2 458.901 359.2 458.901C359.2 458.901 344.5 435.601 321.8 445.001C299.1 454.401 301.6 488.901 320.9 502.601C333.6 511.601 359 528.501 359 528.501C359 528.501 384.5 511.801 397.3 502.901C416.6 489.401 419.4 454.801 396.7 445.301Z" fill="white"/>
<path d="M875.336 907.137C841.139 906.981 813.281 934.604 813.203 968.801C813.125 985.704 819.854 1001.04 830.732 1012.23L829.167 1037.66L851.782 1026.4C858.903 1029.29 866.65 1030.93 874.867 1030.93C909.063 1031.09 936.922 1003.47 937 969.271C937.156 935.152 909.533 907.294 875.336 907.137Z" fill="#CCCCCC"/>
<path d="M904.525 944.934C886.761 937.5 875.18 955.576 875.18 955.576C875.18 955.576 863.676 937.343 845.913 944.699C828.149 952.055 830.106 979.052 845.209 989.773C855.147 996.816 875.023 1010.04 875.023 1010.04C875.023 1010.04 894.978 996.972 904.994 990.008C920.097 979.444 922.288 952.368 904.525 944.934Z" fill="white"/>
<path d="M129.401 1557C85.7009 1556.8 50.1009 1592.1 50.0009 1635.8C49.9009 1657.4 58.5009 1677 72.4009 1691.3L70.4009 1723.8L99.3009 1709.4C108.401 1713.1 118.301 1715.2 128.801 1715.2C172.501 1715.4 208.101 1680.1 208.201 1636.4C208.401 1592.8 173.101 1557.2 129.401 1557Z" fill="#CCCCCC"/>
<path d="M166.7 1605.3C144 1595.8 129.2 1618.9 129.2 1618.9C129.2 1618.9 114.5 1595.6 91.8004 1605C69.1004 1614.4 71.6004 1648.9 90.9004 1662.6C103.6 1671.6 129 1688.5 129 1688.5C129 1688.5 154.5 1671.8 167.3 1662.9C186.6 1649.4 189.4 1614.8 166.7 1605.3Z" fill="white"/>
<path d="M1003.4 2316C959.701 2315.8 924.101 2351.1 924.001 2394.8C923.901 2416.4 932.501 2436 946.401 2450.3L944.401 2482.8L973.301 2468.4C982.401 2472.1 992.301 2474.2 1002.8 2474.2C1046.5 2474.4 1082.1 2439.1 1082.2 2395.4C1082.4 2351.8 1047.1 2316.2 1003.4 2316Z" fill="#CCCCCC"/>
<path d="M1040.7 2364.3C1018 2354.8 1003.2 2377.9 1003.2 2377.9C1003.2 2377.9 988.5 2354.6 965.8 2364C943.1 2373.4 945.6 2407.9 964.9 2421.6C977.6 2430.6 1003 2447.5 1003 2447.5C1003 2447.5 1028.5 2430.8 1041.3 2421.9C1060.6 2408.4 1063.4 2373.8 1040.7 2364.3Z" fill="white"/>
<path d="M162.5 2440.9C140.6 2440.8 122.8 2458.5 122.7 2480.4C122.7 2491.2 126.9 2501 133.9 2508.2L132.9 2524.5L147.4 2517.3C152 2519.2 156.9 2520.2 162.2 2520.2C184.1 2520.3 201.9 2502.6 202 2480.7C202.1 2458.8 184.4 2441 162.5 2440.9Z" fill="#CCCCCC"/>
<path d="M181.2 2465.1C169.9 2460.3 162.4 2471.9 162.4 2471.9C162.4 2471.9 155 2460.2 143.7 2464.9C132.3 2469.6 133.6 2486.9 143.2 2493.8C149.5 2498.3 162.3 2506.8 162.3 2506.8C162.3 2506.8 175.1 2498.4 181.5 2494C191.2 2487.2 192.6 2469.9 181.2 2465.1Z" fill="white"/>
<path d="M800.631 1706C759.565 1705.81 726.188 1739 726 1780.07C726 1800.32 733.876 1818.7 747.002 1832.2L745.126 1862.76L772.316 1849.26C780.942 1852.82 790.13 1854.7 800.068 1854.7C841.134 1854.89 874.511 1821.7 874.699 1780.63C874.886 1739.57 841.696 1706.19 800.631 1706Z" fill="#CCCCCC"/>
<path d="M835.695 1751.38C814.506 1742.38 800.443 1764.13 800.443 1764.13C800.443 1764.13 786.567 1742.19 765.378 1751C744.001 1759.82 746.439 1792.26 764.44 1805.2C776.253 1813.63 800.255 1829.57 800.255 1829.57C800.255 1829.57 824.257 1813.82 836.258 1805.57C854.447 1792.82 857.072 1760.38 835.695 1751.38Z" fill="white"/>
<path d="M1154 770.4C1132.1 770.3 1114.3 788 1114.2 809.9C1114.2 820.7 1118.4 830.5 1125.4 837.7L1124.4 854L1138.9 846.8C1143.5 848.7 1148.4 849.7 1153.7 849.7C1175.6 849.8 1193.4 832.1 1193.5 810.2C1193.6 788.3 1175.9 770.5 1154 770.4Z" fill="#CCCCCC"/>
<path d="M1172.7 794.6C1161.4 789.8 1153.9 801.4 1153.9 801.4C1153.9 801.4 1146.5 789.7 1135.2 794.4C1123.8 799.1 1125.1 816.4 1134.7 823.3C1141 827.8 1153.8 836.3 1153.8 836.3C1153.8 836.3 1166.6 827.9 1173 823.5C1182.7 816.7 1184.1 799.4 1172.7 794.6Z" fill="white"/>
<path d="M655 271.4C633.1 271.3 615.3 289 615.2 310.9C615.2 321.7 619.4 331.5 626.4 338.7L625.4 355L639.9 347.8C644.5 349.7 649.4 350.7 654.7 350.7C676.6 350.8 694.4 333.1 694.5 311.2C694.6 289.3 676.9 271.5 655 271.4Z" fill="#CCCCCC"/>
<path d="M673.7 295.6C662.4 290.8 654.9 302.4 654.9 302.4C654.9 302.4 647.5 290.7 636.2 295.4C624.8 300.1 626.1 317.4 635.7 324.3C642 328.8 654.8 337.3 654.8 337.3C654.8 337.3 667.6 328.9 674 324.5C683.7 317.7 685.1 300.4 673.7 295.6Z" fill="white"/>
<path d="M289 1640.4C267.1 1640.3 249.3 1658 249.2 1679.9C249.2 1690.7 253.4 1700.5 260.4 1707.7L259.4 1724L273.9 1716.8C278.5 1718.7 283.4 1719.7 288.7 1719.7C310.6 1719.8 328.4 1702.1 328.5 1680.2C328.6 1658.3 310.9 1640.5 289 1640.4Z" fill="#CCCCCC"/>
<path d="M307.7 1664.6C296.4 1659.8 288.9 1671.4 288.9 1671.4C288.9 1671.4 281.5 1659.7 270.2 1664.4C258.8 1669.1 260.1 1686.4 269.7 1693.3C276 1697.8 288.8 1706.3 288.8 1706.3C288.8 1706.3 301.6 1697.9 308 1693.5C317.7 1686.7 319.1 1669.4 307.7 1664.6Z" fill="white"/>
<path d="M107.001 1117.4C106.801 1169.8 64.1007 1212.2 11.6007 1212C-40.8993 1211.8 -83.1993 1169.1 -82.9993 1116.6C-82.7993 1064.2 -40.0993 1021.8 12.3007 1022C64.8007 1022.2 107.201 1064.9 107.001 1117.4Z" fill="#B3B3B3"/>
<path d="M63.4001 1111.9V1106.5C63.4001 1104.1 61.5001 1102.2 59.1001 1102.2H54.5001H27.3001C34.5001 1091.6 30.8001 1083 28.7001 1079.2C27.4001 1076.7 24.6001 1073.5 20.9001 1073.5H20.7001C17.3001 1073.5 13.0001 1076.1 12.6001 1079.5C12.3001 1082 14.6001 1087.6 13.3001 1092.2C12.5001 1095.1 9.80011 1097.7 8.20011 1098.8C6.60011 1099.9 -0.899891 1104.8 -0.899891 1107.8V1112.4C-0.999891 1113.4 -0.899891 1114 -0.899891 1114V1152.3C-0.899891 1155.4 1.60011 1157.9 4.80011 1157.9H47.8001H52.4001C54.7001 1157.9 57.0001 1157.8 58.5001 1154.3C60.0001 1150.8 60.2001 1148.2 60.2001 1148.2C60.2001 1145.9 55.2001 1144 52.8001 1144C55.1001 1144 59.0001 1142.1 60.2001 1139.7C61.4001 1137.3 62.0001 1134.3 62.0001 1134.3C62.0001 1131.9 59.0001 1130 56.6001 1130C58.9001 1130 63.3001 1128.1 63.3001 1125.7V1120.3C63.3001 1118 59.6001 1116.1 57.2001 1116.1C59.6001 1116.1 63.4001 1114.2 63.4001 1111.9Z" fill="white"/>
<path d="M1322 1682.27C1321.87 1717.57 1293.1 1746.14 1257.73 1746C1222.36 1745.87 1193.87 1717.1 1194 1681.73C1194.14 1646.43 1222.9 1617.87 1258.2 1618C1293.57 1618.14 1322.14 1646.9 1322 1682.27Z" fill="#B3B3B3"/>
<path d="M1292.63 1678.56V1674.93C1292.63 1673.31 1291.35 1672.03 1289.73 1672.03H1286.63H1268.31C1273.16 1664.89 1270.67 1659.1 1269.25 1656.54C1268.38 1654.85 1266.49 1652.7 1264 1652.7H1263.86C1261.57 1652.7 1258.67 1654.45 1258.4 1656.74C1258.2 1658.42 1259.75 1662.19 1258.88 1665.29C1258.34 1667.25 1256.52 1669 1255.44 1669.74C1254.36 1670.48 1249.31 1673.78 1249.31 1675.8V1678.9C1249.24 1679.58 1249.31 1679.98 1249.31 1679.98V1705.78C1249.31 1707.87 1250.99 1709.55 1253.15 1709.55H1282.12H1285.22C1286.77 1709.55 1288.32 1709.49 1289.33 1707.13C1290.34 1704.77 1290.47 1703.02 1290.47 1703.02C1290.47 1701.47 1287.1 1700.19 1285.49 1700.19C1287.04 1700.19 1289.66 1698.91 1290.47 1697.29C1291.28 1695.68 1291.69 1693.66 1291.69 1693.66C1291.69 1692.04 1289.66 1690.76 1288.05 1690.76C1289.6 1690.76 1292.56 1689.48 1292.56 1687.86V1684.22C1292.56 1682.67 1290.07 1681.39 1288.45 1681.39C1290.07 1681.39 1292.63 1680.11 1292.63 1678.56Z" fill="white"/>
<path d="M1246.41 1679.31C1246.41 1678.09 1245.4 1677.08 1244.19 1677.08H1225.6C1224.32 1677.08 1223.37 1678.09 1223.37 1679.37V1707.6C1223.37 1708.88 1224.38 1709.89 1225.6 1709.82H1244.19C1245.4 1709.82 1246.41 1708.81 1246.41 1707.53V1679.31ZM1238.6 1706.19C1236.51 1706.19 1234.83 1704.5 1234.83 1702.41C1234.83 1700.32 1236.51 1698.64 1238.6 1698.64C1240.69 1698.64 1242.37 1700.32 1242.37 1702.41C1242.37 1704.5 1240.69 1706.19 1238.6 1706.19Z" fill="white"/>
<path d="M515.9 1095.1C515.8 1116.6 498.3 1134 476.8 1133.9C455.3 1133.8 437.9 1116.3 438 1094.8C438.1 1073.3 455.6 1055.9 477.1 1056C498.6 1056.1 516 1073.6 515.9 1095.1Z" fill="#B3B3B3"/>
<path d="M498.001 1092.9V1090.7C498.001 1089.7 497.201 1089 496.301 1089H494.401H483.201C486.201 1084.6 484.601 1081.1 483.801 1079.6C483.201 1078.6 482.101 1077.3 480.601 1077.3H480.501C479.101 1077.3 477.401 1078.4 477.201 1079.8C477.101 1080.8 478.001 1083.1 477.501 1085C477.201 1086.2 476.101 1087.2 475.401 1087.7C474.801 1088.2 471.701 1090.2 471.701 1091.4V1093.3C471.701 1093.7 471.701 1094 471.701 1094V1109.7C471.701 1111 472.701 1112 474.001 1112H491.701H493.601C494.601 1112 495.501 1112 496.101 1110.5C496.701 1109.1 496.801 1108 496.801 1108C496.801 1107 494.701 1106.3 493.801 1106.3C494.801 1106.3 496.301 1105.5 496.801 1104.6C497.301 1103.6 497.501 1102.4 497.501 1102.4C497.501 1101.4 496.301 1100.7 495.301 1100.7C496.301 1100.7 498.101 1099.9 498.101 1098.9V1096.7C498.101 1095.7 496.601 1095 495.601 1095C496.501 1094.6 498.001 1093.9 498.001 1092.9Z" fill="white"/>
<path d="M469.901 1093.4C469.901 1092.6 469.301 1092 468.501 1092H457.201C456.401 1092 455.801 1092.6 455.801 1093.4V1110.6C455.801 1111.4 456.401 1112 457.201 1112H468.501C469.301 1112 469.901 1111.4 469.901 1110.6V1093.4ZM465.201 1109.7C463.901 1109.7 462.901 1108.7 462.901 1107.4C462.901 1106.1 463.901 1105.1 465.201 1105.1C466.501 1105.1 467.501 1106.1 467.501 1107.4C467.501 1108.7 466.401 1109.7 465.201 1109.7Z" fill="white"/>
<path d="M510.6 2156.8C510.5 2185.3 487.3 2208.3 458.8 2208.2C430.3 2208.1 407.3 2184.9 407.4 2156.4C407.5 2127.9 430.7 2104.9 459.2 2105C487.8 2105.1 510.8 2128.3 510.6 2156.8Z" fill="#B3B3B3"/>
<path d="M486.999 2153.8V2150.9C486.999 2149.6 485.999 2148.6 484.699 2148.6H482.199H467.399C471.299 2142.8 469.299 2138.2 468.199 2136.1C467.499 2134.8 465.999 2133 463.999 2133H463.899C461.999 2133 459.699 2134.4 459.499 2136.3C459.299 2137.7 460.599 2140.7 459.899 2143.2C459.399 2144.8 457.999 2146.2 457.099 2146.8C456.199 2147.4 452.199 2150.1 452.199 2151.7V2154.2C452.199 2154.8 452.199 2155.1 452.199 2155.1V2175.9C452.199 2177.6 453.599 2179 455.299 2179H478.699H481.199C482.499 2179 483.699 2178.9 484.499 2177C485.299 2175.1 485.399 2173.7 485.399 2173.7C485.399 2172.4 482.699 2171.4 481.399 2171.4C482.699 2171.4 484.799 2170.4 485.399 2169.1C485.999 2167.8 486.399 2166.2 486.399 2166.2C486.399 2164.9 484.799 2163.9 483.499 2163.9C484.799 2163.9 487.199 2162.9 487.199 2161.6V2158.6C487.199 2157.3 485.199 2156.3 483.899 2156.3C484.899 2156.1 486.999 2155.1 486.999 2153.8Z" fill="white"/>
<path d="M449.7 2154.4C449.7 2153.4 448.9 2152.6 447.9 2152.6H432.9C431.9 2152.6 431.1 2153.4 431.1 2154.4V2177.2C431.1 2178.2 431.9 2179 432.9 2179H447.9C448.9 2179 449.7 2178.2 449.7 2177.2V2154.4ZM443.4 2176.1C441.7 2176.1 440.4 2174.7 440.4 2173.1C440.4 2171.4 441.8 2170.1 443.4 2170.1C445.1 2170.1 446.4 2171.5 446.4 2173.1C446.5 2174.7 445.1 2176.1 443.4 2176.1Z" fill="white"/>
<path d="M461.201 2815C461.001 2870 416.201 2914.4 361.201 2914.2C306.201 2914 261.801 2869.2 262.001 2814.2C262.201 2759.2 307.001 2714.8 362.001 2715C417.101 2715.2 461.501 2760 461.201 2815Z" fill="#B3B3B3"/>
<path d="M415.5 2809.3V2803.6C415.5 2801.1 413.5 2799.1 411 2799.1H406.201H377.701C385.301 2788 381.301 2779 379.101 2775C377.701 2772.4 374.8 2769.1 370.9 2769.1H370.701C367.101 2769.1 362.601 2771.8 362.201 2775.4C361.901 2778.1 364.3 2783.9 362.9 2788.7C362 2791.8 359.201 2794.4 357.601 2795.6C355.901 2796.8 348 2801.9 348 2805V2809.8C347.9 2810.9 348 2811.5 348 2811.5V2851.6C348 2854.9 350.7 2857.5 353.9 2857.5H399V2857.4H403.801C406.301 2857.4 408.601 2857.3 410.201 2853.6C411.801 2849.9 412 2847.2 412 2847.2C412 2844.7 406.701 2842.7 404.301 2842.7C406.801 2842.7 410.8 2840.7 412 2838.2C413.2 2835.7 413.9 2832.5 413.9 2832.5C413.9 2830 410.801 2828 408.301 2828C410.801 2828 415.301 2826 415.301 2823.5V2817.8C415.301 2815.4 411.4 2813.3 408.9 2813.4C411.6 2813.7 415.6 2811.7 415.5 2809.3Z" fill="white"/>
<path d="M343.701 2810.4C343.701 2808.5 342.101 2806.9 340.201 2806.9H311.301C309.301 2806.9 307.801 2808.5 307.801 2810.4V2854.4C307.801 2856.4 309.401 2857.9 311.301 2857.9H340.201C342.101 2857.9 343.701 2856.3 343.701 2854.4V2810.4ZM331.501 2852.2C328.301 2852.2 325.701 2849.6 325.701 2846.4C325.701 2843.2 328.301 2840.6 331.501 2840.6C334.701 2840.6 337.301 2843.2 337.301 2846.4C337.301 2849.6 334.701 2852.2 331.501 2852.2Z" fill="white"/>
<path d="M155.201 140.001C155.001 195.001 110.201 239.401 55.2007 239.201C0.200676 239.001 -44.1993 194.201 -43.9993 139.201C-43.7993 84.2007 1.00066 39.8007 56.0007 40.0007C111.101 40.2007 155.501 85.0007 155.201 140.001Z" fill="#B3B3B3"/>
<path d="M109.5 134.301V128.601C109.5 126.101 107.5 124.101 105 124.101H100.201H71.7005C79.3005 113.001 75.3005 104.001 73.1005 100.001C71.7005 97.4006 68.8005 94.1006 64.9005 94.1006H64.7005C61.1005 94.1006 56.6005 96.8006 56.2005 100.401C55.9005 103.101 58.3005 108.901 56.9005 113.701C56.0005 116.801 53.2005 119.401 51.6005 120.601C49.9005 121.801 42.0005 126.901 42.0005 130.001V134.801C41.9005 135.901 42.0005 136.501 42.0005 136.501V176.601C42.0005 179.901 44.7005 182.501 47.9005 182.501H93.0005V182.401H97.8005C100.301 182.401 102.601 182.301 104.201 178.601C105.801 174.901 106 172.201 106 172.201C106 169.701 100.701 167.701 98.3005 167.701C100.801 167.701 104.8 165.701 106 163.201C107.2 160.701 107.901 157.501 107.901 157.501C107.901 155.001 104.801 153.001 102.301 153.001C104.801 153.001 109.3 151.001 109.3 148.501V142.801C109.3 140.401 105.401 138.301 102.901 138.401C105.601 138.701 109.6 136.701 109.5 134.301Z" fill="white"/>
<path d="M37.7008 135.4C37.7008 133.5 36.1008 131.9 34.2008 131.9H5.30078C3.30078 131.9 1.80078 133.5 1.80078 135.4V179.4C1.80078 181.4 3.40078 182.9 5.30078 182.9H34.2008C36.1008 182.9 37.7008 181.3 37.7008 179.4V135.4ZM25.5008 177.2C22.3008 177.2 19.7008 174.6 19.7008 171.4C19.7008 168.2 22.3008 165.6 25.5008 165.6C28.7008 165.6 31.3008 168.2 31.3008 171.4C31.3008 174.6 28.7008 177.2 25.5008 177.2Z" fill="white"/>
<path d="M745.9 1331C722 1320.9 706.3 1345.4 706.3 1345.4C706.3 1345.4 690.8 1320.8 666.8 1330.7C642.8 1340.6 645.5 1377 665.8 1391.5C679.1 1401 706 1418.9 706 1418.9C706 1418.9 733 1401.3 746.4 1391.9C766.9 1377.5 769.8 1341 745.9 1331Z" fill="#CCCCCC"/>
<path d="M814.716 1151.95C797.151 1144.52 785.612 1162.53 785.612 1162.53C785.612 1162.53 774.22 1144.45 756.581 1151.73C738.943 1159 740.927 1185.75 755.846 1196.41C765.621 1203.39 785.391 1216.55 785.391 1216.55C785.391 1216.55 805.235 1203.61 815.083 1196.71C830.15 1186.12 832.281 1159.3 814.716 1151.95Z" fill="#CCCCCC"/>
<path d="M1037.3 1035.1C1025.3 1030 1017.4 1042.3 1017.4 1042.3C1017.4 1042.3 1009.6 1030 997.6 1034.9C985.6 1039.9 986.9 1058.2 997.1 1065.4C1003.8 1070.2 1017.3 1079.1 1017.3 1079.1C1017.3 1079.1 1030.8 1070.3 1037.6 1065.5C1047.9 1058.5 1049.3 1040.2 1037.3 1035.1Z" fill="#CCCCCC"/>
<path d="M486.278 604.353C474.278 599.253 466.378 611.553 466.378 611.553C466.378 611.553 458.578 599.253 446.578 604.153C434.578 609.153 435.878 627.453 446.078 634.653C452.778 639.453 466.278 648.353 466.278 648.353C466.278 648.353 479.778 639.553 486.578 634.753C496.878 627.753 498.278 609.453 486.278 604.353Z" fill="#CCCCCC"/>
<path d="M948.8 156.6C936.8 151.5 928.9 163.8 928.9 163.8C928.9 163.8 921.1 151.5 909.1 156.4C897.1 161.4 898.4 179.7 908.6 186.9C915.3 191.7 928.8 200.6 928.8 200.6C928.8 200.6 942.3 191.8 949.1 187C959.4 180 960.8 161.7 948.8 156.6Z" fill="#CCCCCC"/>
<path d="M866.278 1557.35C854.278 1552.25 846.378 1564.55 846.378 1564.55C846.378 1564.55 838.578 1552.25 826.578 1557.15C814.578 1562.15 815.878 1580.45 826.078 1587.65C832.778 1592.45 846.278 1601.35 846.278 1601.35C846.278 1601.35 859.778 1592.55 866.578 1587.75C876.878 1580.75 878.278 1562.45 866.278 1557.35Z" fill="#CCCCCC"/>
<path d="M130.4 1780.2C105.1 1769.5 88.4002 1795.4 88.4002 1795.4C88.4002 1795.4 72.0002 1769.4 46.6002 1779.8C21.2002 1790.3 24.0002 1828.9 45.6002 1844.2C59.7002 1854.3 88.2002 1873.2 88.2002 1873.2C88.2002 1873.2 116.7 1854.5 131 1844.6C152.6 1829.4 155.7 1790.9 130.4 1780.2Z" fill="#CCCCCC"/>
<path d="M877.931 25.8555C852.631 15.1555 835.931 41.0555 835.931 41.0555C835.931 41.0555 819.531 15.0556 794.131 25.4556C768.731 35.9556 771.531 74.5555 793.131 89.8555C807.231 99.9555 835.731 118.855 835.731 118.855C835.731 118.855 864.231 100.155 878.531 90.2555C900.131 75.0555 903.231 36.5555 877.931 25.8555Z" fill="#CCCCCC"/>
<path d="M452.028 41.8426C435.702 34.9379 424.926 51.6512 424.926 51.6512C424.926 51.6512 414.343 34.8735 397.952 41.5846C381.562 48.3602 383.368 73.2687 397.307 83.1418C406.406 89.6593 424.797 101.855 424.797 101.855C424.797 101.855 443.188 89.7884 452.415 83.3999C466.354 73.5914 468.354 48.7473 452.028 41.8426Z" fill="#CCCCCC"/>
<path d="M978.4 2628.2C953.1 2617.5 936.4 2643.4 936.4 2643.4C936.4 2643.4 920 2617.4 894.6 2627.8C869.2 2638.3 872 2676.9 893.6 2692.2C907.7 2702.3 936.2 2721.2 936.2 2721.2C936.2 2721.2 964.7 2702.5 979 2692.6C1000.6 2677.4 1003.7 2638.9 978.4 2628.2Z" fill="#CCCCCC"/>
<path d="M100.24 2211.87C65.9283 2197.36 43.2796 2232.49 43.2796 2232.49C43.2796 2232.49 21.0377 2197.23 -13.41 2211.33C-47.8577 2225.57 -44.0603 2277.92 -14.7662 2298.67C4.35637 2312.37 43.0084 2338 43.0084 2338C43.0084 2338 81.6603 2312.64 101.054 2299.21C130.348 2278.6 134.552 2226.38 100.24 2211.87Z" fill="#CCCCCC"/>
<path d="M1151.9 2450.1C1139.2 2444.8 1130.9 2457.7 1130.9 2457.7C1130.9 2457.7 1122.7 2444.7 1110 2449.9C1097.3 2455.1 1098.7 2474.5 1109.5 2482.1C1116.6 2487.2 1130.8 2496.6 1130.8 2496.6C1130.8 2496.6 1145.1 2487.3 1152.2 2482.3C1163 2474.7 1164.5 2455.4 1151.9 2450.1Z" fill="#CCCCCC"/>
<path d="M1151.9 2145.1C1139.2 2139.8 1130.9 2152.7 1130.9 2152.7C1130.9 2152.7 1122.7 2139.7 1110 2144.9C1097.3 2150.1 1098.7 2169.5 1109.5 2177.1C1116.6 2182.2 1130.8 2191.6 1130.8 2191.6C1130.8 2191.6 1145.1 2182.3 1152.2 2177.3C1163 2169.7 1164.5 2150.4 1151.9 2145.1Z" fill="#CCCCCC"/>
</g>
<defs>
<clipPath id="clip0">
<rect width="1280" height="2930" fill="white"/>
</clipPath>
</defs>
</svg>
