<svg width="214" height="215" viewBox="0 0 214 215" fill="none" xmlns="http://www.w3.org/2000/svg">
<path d="M141.959 102.476L97.9517 70.4525C96.5322 69.0292 94.4028 69.0292 92.2734 69.7409C90.144 70.4525 89.4342 72.5874 89.4342 74.7224V139.482C89.4342 141.617 90.8538 143.04 92.2734 144.463C92.9832 145.175 93.693 145.175 94.4028 145.175C95.8224 145.175 96.5321 145.175 97.2419 144.463L141.249 112.439C142.669 111.728 143.379 109.593 143.379 108.169C144.088 105.323 143.379 103.9 141.959 102.476Z" fill="white"/>
<path d="M106.469 0C47.5563 0 0 47.6799 0 106.746C0 165.812 47.5563 213.492 106.469 213.492C165.382 213.492 212.939 165.812 212.939 106.746C213.648 47.6799 165.382 0 106.469 0ZM106.469 195.701C57.4934 195.701 17.7449 155.849 17.7449 106.746C17.7449 57.6429 57.4934 17.791 106.469 17.791C155.445 17.791 195.194 57.6429 195.194 106.746C195.194 155.849 155.445 195.701 106.469 195.701Z" fill="white"/>
</svg>
