<svg width="24" height="24" viewBox="0 0 24 24" fill="none" xmlns="http://www.w3.org/2000/svg">
<path d="M23.7945 0.206953C23.5957 0.0080162 23.2972 -0.0531556 23.0362 0.0512817L0.442496 9.08867C0.183981 9.19208 0.0108719 9.43827 0.000934453 9.71656C-0.00895615 9.99481 0.146294 10.2527 0.396793 10.3742L9.30621 14.6951L13.6272 23.6046C13.7451 23.8476 13.9912 24.0009 14.2597 24.0009C14.2681 24.0009 14.2765 24.0008 14.2848 24.0004C14.563 23.9905 14.8093 23.8174 14.9127 23.5589L23.9502 0.965296C24.0546 0.704109 23.9934 0.405844 23.7945 0.206953ZM2.44237 9.80333L20.3779 2.62917L9.68909 13.3179L2.44237 9.80333ZM14.1981 21.559L10.6834 14.3122L21.3723 3.62348L14.1981 21.559Z" fill="#0057A5"/>
</svg>
