<svg width="82" height="93" viewBox="0 0 82 93" fill="none" xmlns="http://www.w3.org/2000/svg">
<path d="M23.625 62.6441L23.3401 62.9312C22.5148 63.7898 21.9736 64.8811 21.79 66.0571C21.6064 67.233 21.7893 68.4366 22.3138 69.5045C22.8417 70.5569 23.681 71.4211 24.7178 71.98C25.7545 72.5388 26.9385 72.7653 28.1091 72.6285C28.6276 72.568 29.1455 72.4967 29.6635 72.4253L29.9129 72.3907C30.1165 74.5044 30.3658 76.8822 31.2209 79.3264C31.3473 79.7026 31.4773 80.0481 31.607 80.3493C32.1043 81.5234 32.973 82.5022 34.0801 83.1358C35.1872 83.7694 36.4719 84.023 37.7376 83.8579C38.8081 83.7155 39.8506 83.4107 40.8292 82.9539V82.9539C42.2456 82.2733 43.553 81.3862 44.7088 80.3218C44.9381 80.6506 45.1944 80.9893 45.4685 81.3086L45.4973 81.3421C45.9331 81.8499 46.4161 82.3152 46.9397 82.7319C47.7873 83.391 48.7997 83.805 49.8668 83.9289C50.9339 84.0528 52.0148 83.8817 52.9919 83.4344C53.6696 83.1262 54.2777 82.6834 54.7789 82.133C57.1442 79.5541 57.9499 76.5616 58.5978 74.1562L58.6503 73.965L58.7105 73.9506C58.9989 73.8892 59.2901 73.8242 59.5754 73.7753C60.179 73.6623 61.0478 73.6945 61.9675 73.7256C62.679 73.7501 63.4864 73.7794 64.3484 73.7435C65.0843 73.7134 65.8071 73.5388 66.4758 73.2298C67.4872 72.7685 68.3465 72.0292 68.9534 71.0982C69.5603 70.1673 69.8896 69.0832 69.9029 67.9726C69.9041 67.9365 69.9035 67.9011 69.902 67.8639C69.8914 67.1376 69.7967 66.415 69.62 65.7106C69.3778 64.7744 69.0143 63.8739 68.5387 63.032C70.4078 61.8414 72.0055 60.2712 73.2278 58.4235C73.6829 57.7234 73.9865 56.936 74.1191 56.112C74.2518 55.2879 74.2105 54.4454 73.998 53.6386C73.7979 52.871 73.44 52.1537 72.947 51.5323C72.4541 50.9109 71.8369 50.399 71.1348 50.0293C70.7466 49.8251 70.3475 49.6422 69.9393 49.4814C67.4354 48.4889 64.9643 48.4301 62.9693 48.3884C62.5655 48.3782 62.1779 48.3695 61.8096 48.3541C61.7968 48.1373 61.7802 47.9222 61.7582 47.7096C61.5141 45.6497 60.9639 43.6379 60.1258 41.7407C59.0436 39.2585 57.1813 35.7454 53.5459 33.9662C53.1545 33.7741 52.7518 33.6061 52.3399 33.4632C52.2389 32.7835 52.1643 32.045 52.0971 31.3854C52.0178 30.5977 51.9348 29.7828 51.8125 28.9793C51.7299 28.4768 51.6543 27.9703 51.5859 27.4598C51.2538 25.285 50.9263 23.0278 50.445 20.7613L50.4009 20.5589C49.6307 16.904 48.0171 9.28034 41.0581 7.74117C39.3127 7.33147 37.4803 7.50933 35.8454 8.24711C33.2472 9.44302 31.7218 11.8313 30.9515 14.4066C27.046 11.8807 23.4784 12.7922 21.8292 13.4823C21.7114 13.5365 21.5937 13.5907 21.4796 13.6432C20.3951 14.1247 19.4319 14.8425 18.6607 15.744C17.8896 16.6455 17.3299 17.7078 17.0227 18.8531C15.783 23.5579 18.815 28.6286 21.947 32.9673L22.0146 33.0609C22.1723 33.2823 22.3343 33.5084 22.4929 33.7317C22.6106 33.9003 22.7283 34.0688 22.8497 34.2357C22.7883 34.3397 22.7241 34.4472 22.6762 34.5516C22.059 34.6989 21.4576 34.9064 20.8807 35.1709C16.4644 37.2036 14.4429 42.3462 16.0889 47.4C17.8767 52.883 21.0476 56.4776 25.0131 57.5013L25.1866 57.544C25.5485 58.3641 25.932 59.1633 26.3372 59.9323C25.8257 60.4974 25.2249 61.0814 24.6885 61.6022C24.3181 61.9553 23.9624 62.3017 23.625 62.6441Z" fill="white"/>
<path d="M52.2457 83.7773L52.2145 83.7917C51.5526 84.0289 50.8557 84.1533 50.1529 84.1598C50.0521 84.155 49.957 84.112 49.8871 84.0393C49.8172 83.9667 49.7779 83.8701 49.7772 83.7694C49.7765 83.6686 49.8145 83.5713 49.8833 83.4975C49.9522 83.4236 50.0467 83.3788 50.1474 83.3723C50.7617 83.3672 51.3708 83.2583 51.9491 83.0504C52.0457 83.011 52.154 83.0114 52.2502 83.0517C52.3463 83.0919 52.4224 83.1687 52.4617 83.2651C52.5011 83.3615 52.5004 83.4696 52.4599 83.5657C52.4194 83.6617 52.3424 83.7379 52.2457 83.7773V83.7773ZM53.9503 82.8081C53.8633 82.8472 53.7652 82.8536 53.674 82.8261C53.5828 82.7987 53.5047 82.7392 53.454 82.6587C53.4034 82.5782 53.3836 82.4821 53.3984 82.3881C53.4132 82.2941 53.4615 82.2085 53.5345 82.1471C53.7173 81.9996 53.8884 81.8383 54.0463 81.6645C54.3125 81.3751 54.5683 81.0682 54.8044 80.757C54.8355 80.7158 54.8744 80.6811 54.919 80.6549C54.9635 80.6287 55.0127 80.6115 55.0639 80.6043C55.1151 80.597 55.1671 80.5999 55.2171 80.6128C55.2671 80.6257 55.3141 80.6483 55.3553 80.6793C55.3965 80.7103 55.4312 80.7491 55.4574 80.7935C55.4835 80.8379 55.5007 80.887 55.5078 80.9381C55.515 80.9892 55.512 81.0412 55.499 81.0911C55.486 81.141 55.4633 81.1879 55.4322 81.2292C55.1809 81.5639 54.9127 81.8856 54.6288 82.1931C54.4493 82.3927 54.2553 82.5787 54.0483 82.7496C54.0189 82.7741 53.9858 82.7939 53.9503 82.8081ZM48.3752 83.8164C48.2842 83.8574 48.1814 83.8635 48.0864 83.8336C47.4188 83.6118 46.7949 83.2764 46.2423 82.842C46.1626 82.7755 46.1115 82.6809 46.0998 82.5778C46.088 82.4747 46.1165 82.3709 46.1792 82.288C46.2112 82.2475 46.2509 82.2137 46.296 82.1885C46.3411 82.1633 46.3907 82.1472 46.442 82.1412C46.4933 82.1351 46.5453 82.1392 46.595 82.1533C46.6446 82.1673 46.691 82.191 46.7315 82.2229C47.2128 82.6012 47.7563 82.8932 48.3379 83.0858C48.387 83.1022 48.4323 83.128 48.4714 83.1619C48.5104 83.1958 48.5423 83.2371 48.5653 83.2834C48.5883 83.3297 48.6018 83.3801 48.6052 83.4317C48.6086 83.4833 48.6017 83.5351 48.585 83.584C48.57 83.6367 48.5439 83.6856 48.5086 83.7275C48.4734 83.7695 48.4296 83.8035 48.3802 83.8274L48.3752 83.8164ZM56.3431 79.7039C56.2677 79.7381 56.1835 79.7478 56.1024 79.7318C56.0213 79.7157 55.9473 79.6745 55.891 79.6142C55.8346 79.5538 55.7987 79.4773 55.7882 79.3954C55.7778 79.3135 55.7934 79.2303 55.8328 79.1576C56.1411 78.5956 56.414 78.0151 56.6502 77.4194C56.6938 77.3295 56.7698 77.2594 56.863 77.2231C56.9562 77.1869 57.0597 77.1872 57.1525 77.2241C57.2453 77.261 57.3206 77.3317 57.3632 77.4219C57.4058 77.5121 57.4125 77.6151 57.382 77.7102C57.1343 78.3358 56.8479 78.9455 56.5245 79.5358C56.4826 79.6087 56.4184 79.6663 56.3414 79.7002L56.3431 79.7039ZM66.1161 73.4253C65.4706 73.7136 64.7794 73.8856 64.0743 73.9333C64.0224 73.937 63.9703 73.9303 63.921 73.9138C63.8717 73.8973 63.8261 73.8712 63.787 73.837C63.7479 73.8028 63.7159 73.7613 63.6929 73.7147C63.6699 73.6681 63.6564 73.6174 63.6531 73.5656C63.6498 73.5137 63.6568 73.4617 63.6737 73.4125C63.6906 73.3634 63.7171 73.318 63.7516 73.279C63.7861 73.2401 63.828 73.2083 63.8748 73.1855C63.9216 73.1627 63.9724 73.1494 64.0244 73.1462C64.635 73.1058 65.2339 72.9582 65.7936 72.7102C65.8872 72.675 65.9905 72.6765 66.0828 72.7143C66.1752 72.7521 66.2497 72.8235 66.2913 72.914C66.333 73.0045 66.3387 73.1075 66.3074 73.2023C66.2761 73.297 66.21 73.3764 66.1224 73.4246L66.1161 73.4253ZM67.7544 72.3463C67.6692 72.3863 67.5725 72.3946 67.4818 72.3695C67.3911 72.3444 67.3126 72.2876 67.2604 72.2094C67.2082 72.1313 67.1859 72.037 67.1975 71.9437C67.2091 71.8504 67.2539 71.7644 67.3236 71.7011C67.7737 71.2828 68.1514 70.7932 68.4414 70.252C68.4657 70.2064 68.4987 70.1661 68.5386 70.1333C68.5785 70.1005 68.6245 70.0759 68.6739 70.0608C68.7233 70.0457 68.7752 70.0404 68.8266 70.0454C68.878 70.0503 68.9278 70.0653 68.9734 70.0894C69.019 70.1136 69.0593 70.1465 69.0921 70.1863C69.1249 70.2261 69.1495 70.2719 69.1645 70.3212C69.1795 70.3705 69.1847 70.4223 69.1796 70.4736C69.1746 70.5249 69.1595 70.5748 69.1352 70.6203C68.8059 71.24 68.3742 71.7998 67.8583 72.2762C67.8275 72.3047 67.7921 72.3278 67.7536 72.3444L67.7544 72.3463ZM57.8257 76.0617C57.7566 76.0891 57.6813 76.0971 57.608 76.0847C57.5348 76.0722 57.4664 76.0399 57.4103 75.9913C57.3543 75.9426 57.3128 75.8795 57.2904 75.8088C57.2679 75.7381 57.2654 75.6625 57.2831 75.5904C57.4682 74.9845 57.6222 74.3884 57.7722 73.8564L57.8041 73.7416C57.8303 73.6385 57.8959 73.5498 57.987 73.4945C58.078 73.4393 58.1871 73.422 58.2907 73.4464C58.3402 73.4576 58.387 73.4785 58.4283 73.5081C58.4695 73.5376 58.5043 73.5751 58.5307 73.6184C58.5571 73.6617 58.5745 73.7099 58.5818 73.7601C58.5892 73.8102 58.5863 73.8614 58.5735 73.9105L58.5331 74.0603C58.3884 74.5943 58.2251 75.1991 58.0368 75.8176C58.021 75.8708 57.9938 75.9199 57.9572 75.9617C57.9206 76.0035 57.8755 76.037 57.8248 76.0598L57.8257 76.0617ZM62.2428 73.8995C62.1878 73.9244 62.1279 73.9368 62.0676 73.9357L61.508 73.9172C61.0092 73.8998 60.5375 73.8833 60.1149 73.8908C60.0106 73.8923 59.91 73.8522 59.8353 73.7795C59.7606 73.7069 59.718 73.6075 59.7168 73.5033C59.7156 73.3991 59.7559 73.2986 59.8288 73.2239C59.9018 73.1492 60.0014 73.1065 60.1057 73.1051C60.5492 73.099 61.0333 73.1232 61.5369 73.1318L62.0919 73.15C62.1805 73.1532 62.2654 73.1861 62.3329 73.2433C62.4004 73.3005 62.4466 73.3788 62.4642 73.4655C62.4817 73.5522 62.4694 73.6424 62.4294 73.7214C62.3894 73.8005 62.324 73.8639 62.2436 73.9014L62.2428 73.8995ZM45.2335 81.5371C45.156 81.5731 45.0689 81.5829 44.9855 81.5651C44.902 81.5474 44.8267 81.5029 44.7709 81.4385L44.7089 81.3669C44.5292 81.1558 44.356 80.9396 44.1825 80.7079L44.0221 80.844C43.9407 80.9023 43.8403 80.9277 43.7411 80.915C43.6419 80.9022 43.5513 80.8524 43.4876 80.7755C43.4239 80.6986 43.3918 80.6004 43.3978 80.5007C43.4039 80.401 43.4476 80.3072 43.5202 80.2383C43.6814 80.104 43.841 79.966 44.0006 79.828C44.0419 79.7908 44.0906 79.7627 44.1435 79.7457C44.1964 79.7286 44.2523 79.7229 44.3075 79.729C44.3631 79.7349 44.4167 79.7529 44.4645 79.7815C44.5124 79.8102 44.5535 79.849 44.5848 79.8952C44.8288 80.2413 45.072 80.5611 45.3234 80.8504L45.3486 80.881L45.3774 80.9145C45.4117 80.9534 45.438 80.9987 45.4546 81.0477C45.4712 81.0968 45.4779 81.1487 45.4744 81.2004C45.4708 81.2521 45.457 81.3027 45.4338 81.3491C45.4105 81.3955 45.3783 81.4368 45.339 81.4708C45.3081 81.4967 45.2735 81.5179 45.2363 81.5336L45.2335 81.5371ZM40.6518 83.0607C40.5583 83.0959 40.455 83.0944 40.3626 83.0566C40.2703 83.0188 40.1958 82.9475 40.1541 82.8569C40.1124 82.7664 40.1067 82.6634 40.138 82.5686C40.1694 82.4739 40.2355 82.3945 40.323 82.3463C40.899 82.0714 41.4542 81.7548 41.9842 81.3993C42.0714 81.3466 42.1756 81.3296 42.275 81.3517C42.3743 81.3739 42.4612 81.4335 42.5174 81.5182C42.5737 81.6029 42.595 81.706 42.5768 81.8061C42.5587 81.9062 42.5025 81.9955 42.4201 82.0554C41.8562 82.4335 41.2652 82.7695 40.6518 83.0607V83.0607ZM38.8062 83.7477L38.7473 83.7748C38.2786 83.9047 37.8014 84.0017 37.3192 84.065C37.1089 84.0928 36.91 84.1064 36.71 84.1228C36.6564 84.1275 36.6024 84.1212 36.5513 84.1043C36.5002 84.0874 36.4532 84.0602 36.4131 84.0245C36.3729 83.9887 36.3405 83.9452 36.3179 83.8964C36.2953 83.8477 36.2829 83.7949 36.2814 83.7412C36.28 83.6874 36.2896 83.634 36.3096 83.584C36.3296 83.5341 36.3596 83.4888 36.3978 83.4508C36.436 83.4128 36.4815 83.383 36.5316 83.3633C36.5817 83.3435 36.6353 83.3341 36.6891 83.3357C36.8669 83.3296 37.0478 83.3153 37.2252 83.2937C37.6677 83.2359 38.1058 83.148 38.5364 83.0307C38.6325 83.002 38.7358 83.011 38.8253 83.0559C38.9148 83.1008 38.9836 83.1782 39.0178 83.2722C39.0519 83.3662 39.0488 83.4697 39.009 83.5616C38.9692 83.6535 38.8958 83.7269 38.8038 83.7666L38.8062 83.7477ZM69.5596 68.925C69.4953 68.9548 69.4241 68.9667 69.3536 68.9595C69.2831 68.9522 69.2159 68.926 69.1592 68.8837C69.1024 68.8414 69.0582 68.7845 69.0312 68.7191C69.0043 68.6537 68.9955 68.5822 69.006 68.5122C69.042 68.2655 69.0608 68.0167 69.0625 67.7674L69.0603 67.6705C69.0559 67.3317 69.032 66.9935 68.9889 66.6574C68.9835 66.5579 69.0161 66.4599 69.0802 66.3832C69.1442 66.3066 69.235 66.2569 69.3341 66.2443C69.4332 66.2317 69.5334 66.257 69.6144 66.3152C69.6954 66.3734 69.7513 66.4601 69.7708 66.5579C69.8164 66.9211 69.8424 67.2866 69.8485 67.6526L69.8501 67.7676C69.8485 68.0546 69.8268 68.3412 69.7853 68.6253C69.7762 68.69 69.7516 68.7516 69.7135 68.8047C69.6755 68.8579 69.6251 68.9011 69.5667 68.9307L69.5596 68.925ZM34.9238 83.79C34.8349 83.8305 34.7342 83.8364 34.6413 83.8065C33.9713 83.5981 33.3417 83.2776 32.7795 82.8587C32.7381 82.8279 32.7032 82.7893 32.6767 82.745C32.6503 82.7007 32.6329 82.6517 32.6254 82.6007C32.6104 82.4976 32.6371 82.3927 32.6995 82.3091C32.7618 82.2255 32.8549 82.17 32.9582 82.1548C33.0614 82.1396 33.1664 82.166 33.25 82.2282C33.7427 82.5928 34.2931 82.8728 34.8784 83.0565C34.9542 83.0805 35.0209 83.1269 35.0698 83.1895C35.1186 83.2521 35.1474 83.328 35.1523 83.4073C35.1572 83.4866 35.138 83.5655 35.0972 83.6338C35.0565 83.7021 34.996 83.7565 34.9238 83.79V83.79ZM69.1021 65.052L69.0653 65.0689C69.0164 65.0859 68.9646 65.093 68.9129 65.09C68.8612 65.0869 68.8107 65.0736 68.7642 65.051C68.7177 65.0283 68.6762 64.9967 68.642 64.958C68.6078 64.9193 68.5816 64.8741 68.565 64.8252C68.45 64.4928 68.3183 64.1665 68.1706 63.8473C68.0574 63.6012 67.929 63.3465 67.7924 63.0934C67.7676 63.0481 67.752 62.9984 67.7464 62.947C67.7409 62.8957 67.7456 62.8438 67.7601 62.7942C67.7747 62.7446 67.7989 62.6983 67.8314 62.6581C67.8638 62.6178 67.9039 62.5843 67.9493 62.5594C67.9947 62.5346 68.0445 62.5189 68.096 62.5133C68.1474 62.5076 68.1994 62.5122 68.2491 62.5266C68.2987 62.5411 68.345 62.5652 68.3853 62.5975C68.4255 62.6298 68.459 62.6698 68.4838 62.7151C68.6299 62.9839 68.765 63.2532 68.8867 63.5177C69.0473 63.8666 69.1905 64.2213 69.3104 64.5689C69.3434 64.6612 69.3405 64.7625 69.3025 64.8529C69.2644 64.9433 69.1938 65.0163 69.1047 65.0575L69.1021 65.052ZM31.8237 81.4849C31.7385 81.5243 31.6421 81.532 31.5518 81.5066C31.4616 81.4812 31.3835 81.4244 31.3316 81.3464C31.1554 81.0815 30.9998 80.8034 30.8662 80.5147C30.835 80.4468 30.8037 80.3788 30.7716 80.309C30.6583 80.0629 30.558 79.782 30.4546 79.4846C30.4198 79.3865 30.4255 79.2784 30.4704 79.1843C30.5154 79.0901 30.5959 79.0176 30.6943 78.9827C30.7927 78.9477 30.9009 78.9532 30.9951 78.9979C31.0893 79.0426 31.1618 79.1228 31.1966 79.221C31.297 79.502 31.3987 79.7667 31.4987 80.0033C31.5274 80.0657 31.5553 80.1263 31.5832 80.1869C31.6992 80.4383 31.8345 80.6803 31.9878 80.9109C32.0432 80.9982 32.0628 81.1035 32.0427 81.2051C32.0227 81.3066 31.9644 81.3967 31.8799 81.4568L31.8237 81.4849ZM69.7965 62.0819C69.7096 62.1231 69.6106 62.1311 69.5183 62.1044C69.426 62.0776 69.3468 62.018 69.2957 61.9368C69.2446 61.8556 69.2251 61.7584 69.2409 61.6637C69.2567 61.569 69.3068 61.4833 69.3816 61.4228C69.8753 61.0135 70.3439 60.5749 70.7848 60.1093C70.8197 60.0681 70.8626 60.0344 70.9109 60.0103C70.9592 59.9862 71.012 59.9722 71.0659 59.9693C71.1198 59.9664 71.1737 59.9745 71.2243 59.9931C71.2749 60.0118 71.3211 60.0406 71.36 60.0778C71.399 60.1151 71.4299 60.1599 71.4508 60.2095C71.4718 60.2591 71.4823 60.3125 71.4817 60.3664C71.4812 60.4203 71.4695 60.4735 71.4476 60.5228C71.4256 60.5721 71.3938 60.6164 71.3541 60.6529C70.889 61.1392 70.3949 61.597 69.8746 62.0238C69.8509 62.0461 69.8247 62.0657 69.7965 62.0819ZM72.5033 59.2382C72.4239 59.2745 72.3348 59.2836 72.2498 59.2639C72.1648 59.2443 72.0888 59.1971 72.0336 59.1298C71.9783 59.0624 71.9471 58.9787 71.9446 58.8916C71.9421 58.8045 71.9686 58.719 72.0199 58.6485C72.1718 58.4405 72.3184 58.2307 72.4561 58.016C72.6583 57.709 72.8286 57.3823 72.9644 57.041C72.9809 56.9894 73.0079 56.9417 73.0437 56.901C73.0794 56.8602 73.1232 56.8273 73.1722 56.8041C73.2213 56.7809 73.2746 56.7681 73.3288 56.7664C73.383 56.7647 73.4369 56.7741 73.4872 56.7941C73.5376 56.8141 73.5832 56.8443 73.6214 56.8827C73.6595 56.9211 73.6893 56.9669 73.7089 57.0173C73.7285 57.0678 73.7374 57.1217 73.7352 57.1758C73.733 57.2299 73.7197 57.2829 73.6961 57.3317C73.5401 57.7204 73.3461 58.0929 73.1171 58.4439C72.9727 58.6683 72.8175 58.8933 72.651 59.1035C72.6146 59.1606 72.5636 59.2071 72.5033 59.2382V59.2382ZM30.4207 77.8357C30.3995 77.8476 30.3773 77.8578 30.3544 77.8662C30.2531 77.8891 30.1469 77.8724 30.0578 77.8194C29.9687 77.7664 29.9033 77.6813 29.8754 77.5815C29.7184 76.9594 29.5866 76.3191 29.4719 75.6241C29.4543 75.5216 29.4782 75.4162 29.5384 75.3311C29.5986 75.246 29.6902 75.1882 29.7929 75.1704C29.8957 75.1526 30.0012 75.1763 30.0863 75.2362C30.1715 75.2962 30.2292 75.3875 30.2468 75.49C30.3585 76.1641 30.4874 76.7835 30.6387 77.3837C30.6583 77.4708 30.6484 77.5619 30.6106 77.6429C30.5728 77.7239 30.5093 77.7902 30.4299 77.8314L30.4207 77.8357ZM73.9068 55.6325C73.8451 55.6611 73.7772 55.6733 73.7095 55.6679C73.6418 55.6625 73.5767 55.6396 73.5205 55.6016C73.4644 55.5636 73.4191 55.5116 73.389 55.4509C73.359 55.3901 73.3453 55.3226 73.3492 55.2549C73.3797 54.6823 73.3211 54.1087 73.1756 53.5544L73.1449 53.444C73.122 53.3455 73.138 53.242 73.1894 53.1548C73.2408 53.0675 73.3238 53.0033 73.4212 52.9753C73.5185 52.9474 73.6229 52.9578 73.7127 53.0045C73.8024 53.0511 73.8707 53.1305 73.9035 53.2261L73.9382 53.3548C74.1048 53.9884 74.1725 54.644 74.139 55.2986C74.1334 55.368 74.1099 55.4348 74.0708 55.4926C74.0317 55.5503 73.9784 55.597 73.916 55.6282L73.9068 55.6325ZM29.7514 73.9533C29.713 73.9701 29.6723 73.9813 29.6307 73.9866C29.5272 73.9957 29.4243 73.9649 29.3431 73.9003C29.2619 73.8358 29.2087 73.7426 29.1945 73.6399C29.1573 73.3039 29.1233 72.9732 29.0925 72.6476L28.9349 72.669C28.8837 72.676 28.8316 72.6729 28.7816 72.6599C28.7316 72.6469 28.6846 72.6241 28.6435 72.593C28.5603 72.53 28.5057 72.4366 28.4916 72.3334C28.4775 72.2301 28.505 72.1254 28.5682 72.0422C28.6314 71.9591 28.7251 71.9044 28.8285 71.8901L29.3904 71.8117C29.443 71.8044 29.4965 71.8077 29.5477 71.8216C29.5989 71.8355 29.6467 71.8595 29.6883 71.8924C29.7299 71.9252 29.7644 71.9662 29.7897 72.0127C29.815 72.0592 29.8306 72.1105 29.8355 72.1632C29.8803 72.6144 29.9256 73.0764 29.9787 73.5505C29.9887 73.632 29.9736 73.7147 29.9354 73.7875C29.8972 73.8604 29.8377 73.9199 29.7648 73.9582L29.7514 73.9533ZM72.8314 51.9148C72.7478 51.951 72.6544 51.958 72.5664 51.9347C72.4783 51.9115 72.4008 51.8592 72.3462 51.7865C71.9926 51.2878 71.5535 50.8556 71.0491 50.5097C70.9628 50.4506 70.9035 50.3596 70.8844 50.2568C70.8653 50.1539 70.8879 50.0476 70.9473 49.9613C71.0067 49.8749 71.0979 49.8156 71.201 49.7963C71.304 49.7771 71.4104 49.7995 71.4968 49.8586C72.0764 50.2565 72.5808 50.7536 72.9869 51.3269C73.0451 51.4128 73.0679 51.5178 73.0507 51.6202C73.0334 51.7225 72.9774 51.8145 72.8943 51.8769L72.8314 51.9148ZM27.0886 72.8356C27.0357 72.86 26.9779 72.8721 26.9197 72.871C26.2165 72.866 25.5197 72.7395 24.8602 72.4971C24.8116 72.4794 24.7671 72.4523 24.729 72.4174C24.6909 72.3825 24.6601 72.3405 24.6384 72.2937C24.6166 72.2468 24.6043 72.1962 24.6022 72.1446C24.6001 72.093 24.6081 72.0415 24.6259 71.9929C24.6437 71.9444 24.6709 71.8998 24.706 71.8618C24.741 71.8237 24.7832 71.7929 24.8301 71.7711C24.877 71.7493 24.9278 71.7369 24.9795 71.7347C25.0312 71.7325 25.0828 71.7404 25.1313 71.7581C25.7067 71.9691 26.3145 72.0794 26.9278 72.084C27.0172 72.0851 27.1036 72.1165 27.1727 72.1731C27.2418 72.2296 27.2896 72.308 27.3083 72.3953C27.327 72.4826 27.3154 72.5736 27.2755 72.6536C27.2356 72.7336 27.1697 72.7978 27.0886 72.8356V72.8356ZM23.4619 71.5095C23.3945 71.541 23.3195 71.5528 23.2457 71.5434C23.1718 71.534 23.1022 71.5039 23.0449 71.4566C22.5022 71.0065 22.0429 70.4647 21.6879 69.8558C21.6353 69.7658 21.6206 69.6586 21.6472 69.5577C21.6737 69.4568 21.7394 69.3705 21.8296 69.3177C21.9198 69.265 22.0272 69.2502 22.1283 69.2765C22.2293 69.3028 22.3156 69.3681 22.3683 69.4581C22.6775 69.9853 23.0762 70.4546 23.5466 70.8452C23.5977 70.8875 23.6373 70.942 23.6616 71.0038C23.6858 71.0655 23.694 71.1325 23.6853 71.1983C23.6765 71.2641 23.6513 71.3267 23.6118 71.3801C23.5723 71.4336 23.5198 71.4762 23.4594 71.504L23.4619 71.5095ZM69.3919 49.6769L69.5382 49.3113L69.3678 49.668C68.7826 49.4374 68.1816 49.2493 67.5692 49.1049C67.4676 49.0809 67.3798 49.0175 67.3252 48.9287C67.2705 48.8399 67.2534 48.733 67.2777 48.6315C67.302 48.5301 67.3657 48.4423 67.4547 48.3875C67.5437 48.3328 67.6508 48.3156 67.7524 48.3396C68.4011 48.4924 69.0379 48.6916 69.6577 48.9359L69.5382 49.3113L69.3919 49.6769ZM65.8831 48.7327C65.818 48.7619 65.7463 48.7734 65.6753 48.766C65.0912 48.6989 64.4755 48.6506 63.7404 48.624C63.6888 48.6219 63.6381 48.6097 63.5912 48.588C63.5443 48.5664 63.5022 48.5357 63.4672 48.4977C63.4323 48.4598 63.4051 48.4153 63.3874 48.3669C63.3697 48.3185 63.3617 48.267 63.3639 48.2154C63.3661 48.1638 63.3784 48.1132 63.4002 48.0664C63.422 48.0195 63.4528 47.9774 63.4908 47.9424C63.5289 47.9074 63.5735 47.8803 63.6221 47.8625C63.6706 47.8447 63.7222 47.8366 63.7738 47.8387C64.5297 47.8668 65.1626 47.9138 65.7684 47.9843C65.8536 47.9939 65.9333 48.031 65.9953 48.09C66.0574 48.149 66.0983 48.2267 66.1119 48.3112C66.1255 48.3957 66.1111 48.4824 66.0708 48.558C66.0304 48.6337 65.9665 48.6941 65.8886 48.7302L65.8831 48.7327ZM21.5203 68.1927C21.4911 68.2059 21.4603 68.2156 21.4288 68.2215C21.3779 68.2314 21.3255 68.2311 21.2748 68.2207C21.2241 68.2102 21.176 68.1898 21.1333 68.1606C21.0905 68.1314 21.0541 68.094 21.026 68.0505C20.9979 68.0071 20.9788 67.9585 20.9697 67.9076C20.8417 67.2179 20.8334 66.5112 20.945 65.8182C20.9505 65.7648 20.9668 65.7131 20.9929 65.6662C21.0191 65.6193 21.0546 65.5783 21.0972 65.5455C21.1397 65.5127 21.1886 65.4889 21.2406 65.4756C21.2927 65.4623 21.3469 65.4597 21.3999 65.468C21.453 65.4764 21.5038 65.4954 21.5492 65.524C21.5946 65.5526 21.6336 65.5901 21.664 65.6343C21.6943 65.6785 21.7153 65.7285 21.7256 65.7811C21.7359 65.8337 21.7354 65.8879 21.724 65.9403C21.6261 66.5452 21.6332 67.1623 21.7449 67.7644C21.7606 67.8505 21.7471 67.9394 21.7064 68.017C21.6657 68.0946 21.6002 68.1565 21.5203 68.1927V68.1927ZM61.9414 48.5397C61.8855 48.5646 61.8247 48.5767 61.7635 48.5748L61.3643 48.5605C61.2674 48.5544 61.176 48.5138 61.1067 48.446C61.0374 48.3782 60.9949 48.2878 60.9868 48.1913C60.9765 47.9846 60.9589 47.7768 60.9343 47.5634C60.8998 47.2655 60.8608 46.9674 60.8136 46.6709C60.801 46.6187 60.7993 46.5645 60.8086 46.5115C60.8179 46.4586 60.8379 46.4081 60.8676 46.3632C60.8972 46.3183 60.9357 46.2799 60.9808 46.2505C61.0258 46.221 61.0765 46.2011 61.1295 46.1919C61.1826 46.1828 61.2369 46.1846 61.2892 46.1973C61.3414 46.21 61.3905 46.2332 61.4334 46.2657C61.4762 46.2981 61.5119 46.3389 61.5383 46.3857C61.5646 46.4325 61.5811 46.4842 61.5866 46.5377C61.6371 46.846 61.6818 47.1614 61.7152 47.4666L61.7455 47.7797L61.7863 47.781C61.8749 47.7842 61.9598 47.817 62.0273 47.8742C62.0948 47.9315 62.141 48.0097 62.1585 48.0965C62.1761 48.1832 62.1638 48.2733 62.1238 48.3524C62.0838 48.4314 62.0184 48.4948 61.938 48.5323L61.9414 48.5397ZM22.134 64.3785C22.0589 64.4139 21.9745 64.4246 21.893 64.4092C21.8115 64.3938 21.737 64.3529 21.6802 64.2926C21.6235 64.2322 21.5873 64.1554 21.577 64.0732C21.5667 63.991 21.5827 63.9076 21.6228 63.8349C21.8889 63.3446 22.2204 62.8925 22.6084 62.4912L22.8991 62.1971C22.9358 62.1606 22.9793 62.1317 23.0271 62.112C23.075 62.0923 23.1262 62.0822 23.1779 62.0823C23.2297 62.0823 23.2808 62.0926 23.3286 62.1124C23.3763 62.1322 23.4196 62.1612 23.4561 62.1978C23.4925 62.2343 23.5214 62.2777 23.541 62.3254C23.5607 62.3732 23.5707 62.4243 23.5705 62.4759C23.5704 62.5276 23.56 62.5787 23.5401 62.6264C23.5201 62.674 23.491 62.7174 23.4543 62.7538L23.1776 63.0347C22.8386 63.386 22.5494 63.7819 22.3182 64.2114C22.2758 64.285 22.2114 64.3434 22.134 64.3785V64.3785ZM60.9731 45.0353C60.9209 45.0593 60.864 45.0716 60.8065 45.0714C60.749 45.0712 60.6923 45.0584 60.6402 45.0341C60.5882 45.0097 60.5422 44.9742 60.5054 44.9302C60.4685 44.8862 60.4418 44.8347 60.427 44.7793C60.2662 44.1634 60.0794 43.5395 59.8511 42.9369C59.8224 42.8405 59.8317 42.7368 59.877 42.6469C59.9224 42.557 60.0003 42.4878 60.095 42.4533C60.1897 42.4188 60.2939 42.4217 60.3864 42.4614C60.4788 42.5011 60.5526 42.5746 60.5925 42.6668C60.8217 43.2957 61.0215 43.9381 61.1887 44.5778C61.2133 44.6684 61.2042 44.7649 61.1633 44.8496C61.1223 44.9342 61.0522 45.0014 60.9658 45.0386L60.9731 45.0353ZM24.6829 61.5163C24.6091 61.5506 24.5266 61.5612 24.4467 61.5466C24.3667 61.5319 24.2934 61.4927 24.2369 61.4345C24.1663 61.3586 24.1276 61.2584 24.1289 61.1547C24.1301 61.051 24.1712 60.9517 24.2437 60.8772C24.6857 60.4512 25.146 59.9924 25.5607 59.5411C25.5959 59.4847 25.6457 59.4387 25.7047 59.4081C25.7955 59.362 25.9007 59.353 25.9978 59.3831C26.095 59.4132 26.1765 59.4799 26.2251 59.5691L26.2327 59.5857C26.2675 59.6571 26.2805 59.7373 26.27 59.8161C26.2595 59.895 26.2259 59.969 26.1735 60.029C25.7277 60.5146 25.2477 60.9937 24.7859 61.4444C24.7533 61.4751 24.7157 61.5 24.6746 61.5178L24.6829 61.5163ZM25.1791 58.3437C25.1322 58.3653 25.0815 58.3774 25.03 58.3795C24.9784 58.3815 24.9269 58.3734 24.8786 58.3556C24.8302 58.3377 24.7858 58.3106 24.7479 58.2756C24.7101 58.2407 24.6795 58.1986 24.658 58.1518L24.6343 58.1004C24.5752 57.9718 24.5152 57.8415 24.456 57.7129C24.0822 57.6159 23.7145 57.4969 23.3549 57.3563C23.2649 57.3132 23.1946 57.2377 23.1582 57.1449C23.1218 57.0521 23.122 56.949 23.1588 56.8562C23.1955 56.7634 23.2661 56.6879 23.3563 56.6448C23.4464 56.6018 23.5495 56.5944 23.6448 56.6242C23.9777 56.7544 24.3181 56.8645 24.6644 56.9538L24.828 56.9943C24.8868 57.0088 24.9417 57.0364 24.9884 57.075C25.0351 57.1136 25.0725 57.1622 25.0979 57.2172C25.1824 57.4008 25.2669 57.5844 25.3515 57.7681L25.3743 57.8177C25.3961 57.8645 25.4085 57.9152 25.4106 57.9668C25.4128 58.0185 25.4047 58.0701 25.3868 58.1186C25.369 58.1672 25.3417 58.2117 25.3065 58.2497C25.2713 58.2878 25.229 58.3185 25.182 58.3401L25.1791 58.3437ZM59.6217 41.3333C59.5758 41.3578 59.5253 41.3727 59.4735 41.3771C59.4216 41.3814 59.3694 41.3752 59.3201 41.3587C59.2708 41.3423 59.2253 41.316 59.1866 41.2814C59.1478 41.2468 59.1165 41.2047 59.0946 41.1576L59.0837 41.1337C58.7988 40.5148 58.5164 39.9594 58.2185 39.4334C58.1744 39.3431 58.1665 39.2393 58.1965 39.1432C58.2264 39.0472 58.292 38.9661 58.3798 38.9166C58.4676 38.8671 58.5709 38.8529 58.6686 38.8769C58.7664 38.901 58.8512 38.9614 58.9057 39.0458C59.2139 39.5894 59.5056 40.165 59.7998 40.8041C59.8438 40.8981 59.8499 41.0055 59.8167 41.1041C59.7836 41.2026 59.7138 41.2847 59.6217 41.3333V41.3333ZM21.9158 56.4497C21.8559 56.4776 21.7899 56.49 21.724 56.4858C21.6581 56.4815 21.5943 56.4607 21.5387 56.4253C20.9674 56.0572 20.4296 55.6398 19.9315 55.1777C19.8549 55.1071 19.8096 55.0088 19.8056 54.9047C19.8016 54.8005 19.8392 54.6989 19.9101 54.6223C19.9811 54.5457 20.0795 54.5003 20.1839 54.4961C20.2882 54.4919 20.3899 54.5292 20.4665 54.5999C20.9309 55.0302 21.4323 55.419 21.965 55.7617C22.0509 55.8198 22.111 55.9086 22.1331 56.0098C22.1552 56.1111 22.1376 56.217 22.0837 56.3057C22.0422 56.3683 21.9841 56.4182 21.9158 56.4497ZM57.6738 37.9349C57.591 37.9732 57.4975 37.9815 57.4094 37.9582C57.3213 37.935 57.2441 37.8817 57.1913 37.8076C56.8166 37.2919 56.4071 36.8022 55.9657 36.3421C55.9016 36.2658 55.8689 36.168 55.8741 36.0684C55.8794 35.9688 55.9222 35.8748 55.994 35.8053C56.0659 35.7359 56.1613 35.6961 56.2612 35.6941C56.3611 35.692 56.458 35.7278 56.5323 35.7943C56.9997 36.2808 57.4328 36.799 57.8285 37.3452C57.8871 37.4303 57.9108 37.5346 57.8948 37.6368C57.8787 37.7389 57.8241 37.8312 57.7422 37.8945C57.7205 37.9097 57.6976 37.9232 57.6738 37.9349V37.9349ZM19.021 53.8054C18.9414 53.8419 18.8518 53.8509 18.7666 53.8308C18.6814 53.8108 18.6054 53.7629 18.5506 53.6947C18.1304 53.1702 17.7431 52.6201 17.391 52.0476C17.3396 51.9588 17.325 51.8534 17.3503 51.7538C17.3755 51.6543 17.4387 51.5684 17.5263 51.5145C17.6139 51.4605 17.719 51.4428 17.8194 51.465C17.9197 51.4872 18.0074 51.5476 18.0637 51.6334C18.3978 52.1781 18.7654 52.7016 19.1644 53.2008C19.1969 53.241 19.2211 53.2871 19.2357 53.3367C19.2503 53.3862 19.2549 53.4381 19.2493 53.4895C19.2437 53.5409 19.2281 53.5906 19.2032 53.636C19.1783 53.6813 19.1447 53.7213 19.1043 53.7537C19.0779 53.7767 19.0486 53.7961 19.0172 53.8116L19.021 53.8054ZM54.9392 35.1345C54.8751 35.1627 54.8048 35.174 54.7351 35.167C54.6654 35.1601 54.5988 35.1352 54.5417 35.0949C54.0452 34.7292 53.5168 34.4086 52.963 34.1369L52.922 34.1157C52.8369 34.0654 52.7739 33.985 52.7455 33.8904C52.717 33.7958 52.7252 33.6939 52.7684 33.6049C52.8116 33.5159 52.8866 33.4463 52.9787 33.4098C53.0707 33.3734 53.1731 33.3727 53.2655 33.4079L53.3118 33.4311C53.9068 33.724 54.4746 34.0689 55.0087 34.4616C55.0908 34.5253 55.1451 34.6181 55.1605 34.7209C55.1758 34.8236 55.1509 34.9284 55.0909 35.0134C55.0509 35.0654 54.9988 35.107 54.9392 35.1345ZM16.9493 50.4773C16.855 50.518 16.7488 50.5215 16.6522 50.487C16.5556 50.4526 16.4758 50.3828 16.4288 50.2918C16.3781 50.1816 16.3283 50.0732 16.2775 49.9631C16.0544 49.4783 15.8429 48.9703 15.6463 48.451C15.612 48.3531 15.6167 48.2457 15.6595 48.151C15.7023 48.0564 15.7799 47.9817 15.8762 47.9424C15.9742 47.9086 16.0814 47.9135 16.1758 47.9562C16.2701 47.9989 16.3444 48.076 16.3834 48.1719C16.5743 48.6737 16.7781 49.1652 16.9937 49.6335C17.0418 49.7381 17.0909 49.8446 17.139 49.9493C17.1623 49.9959 17.176 50.0466 17.1793 50.0985C17.1827 50.1505 17.1757 50.2026 17.1587 50.2518C17.1417 50.3011 17.1151 50.3465 17.0804 50.3854C17.0456 50.4243 17.0035 50.4559 16.9565 50.4784L16.9493 50.4773ZM52.0014 32.9349C51.9639 32.9524 51.9237 32.9634 51.8825 32.9674C51.7796 32.9772 51.6768 32.9473 51.5953 32.8838C51.5138 32.8204 51.4598 32.7282 51.4443 32.6261C51.3892 32.1574 51.3407 31.6835 51.2964 31.2432L51.2369 30.6631C51.2309 30.5618 51.2644 30.462 51.3302 30.3845C51.396 30.3071 51.4892 30.2579 51.5903 30.2472C51.6914 30.2365 51.7927 30.2651 51.873 30.3271C51.9534 30.389 52.0067 30.4796 52.0218 30.58L52.0795 31.1609C52.1248 31.5985 52.1708 32.0669 52.2279 32.5303C52.2362 32.613 52.2187 32.6963 52.1779 32.7689C52.137 32.8415 52.0747 32.8997 51.9996 32.9358L52.0014 32.9349ZM15.5768 46.8073C15.5561 46.8201 15.5338 46.8304 15.5106 46.8378C15.4604 46.8505 15.4082 46.8531 15.3571 46.8456C15.3059 46.8381 15.2567 46.8206 15.2124 46.7941C15.168 46.7676 15.1294 46.7325 15.0987 46.6911C15.068 46.6496 15.0458 46.6024 15.0334 46.5523C14.8692 45.8938 14.7624 45.2222 14.7141 44.5451C14.7104 44.4935 14.717 44.4418 14.7334 44.3928C14.7497 44.3438 14.7756 44.2984 14.8096 44.2594C14.8435 44.2203 14.8847 44.1883 14.931 44.1651C14.9773 44.1419 15.0277 44.1281 15.0793 44.1244C15.1309 44.1206 15.1827 44.1271 15.2318 44.1434C15.2808 44.1596 15.3262 44.1854 15.3653 44.2192C15.4043 44.2529 15.4363 44.2941 15.4594 44.3403C15.4826 44.3864 15.4963 44.4367 15.5 44.4882C15.5446 45.118 15.6433 45.7426 15.7949 46.3553C15.815 46.4438 15.8037 46.5365 15.763 46.6178C15.7223 46.699 15.6547 46.7637 15.5716 46.8008L15.5768 46.8073ZM51.5539 29.035C51.5201 29.0502 51.4844 29.0606 51.4477 29.0661C51.3448 29.079 51.2409 29.052 51.1574 28.9906C51.074 28.9292 51.0173 28.8382 50.9992 28.7362C50.9294 28.2743 50.8605 27.8098 50.7926 27.347L50.7086 26.7915C50.6974 26.7389 50.6971 26.6845 50.7077 26.6317C50.7183 26.5789 50.7396 26.5289 50.7702 26.4846C50.8009 26.4403 50.8404 26.4027 50.8861 26.3742C50.9318 26.3456 50.9829 26.3267 51.0362 26.3186C51.0895 26.3105 51.1439 26.3134 51.196 26.3271C51.2481 26.3407 51.2968 26.3649 51.3392 26.3981C51.3815 26.4312 51.4166 26.4727 51.4423 26.52C51.468 26.5673 51.4837 26.6193 51.4884 26.6729L51.5705 27.2293C51.6412 27.693 51.7092 28.1558 51.779 28.6177C51.7883 28.7015 51.7711 28.7862 51.7298 28.8598C51.6885 28.9335 51.6252 28.9925 51.5487 29.0285L51.5539 29.035ZM15.3028 42.8966C15.2379 42.9265 15.166 42.938 15.095 42.9299C15.0436 42.9243 14.9937 42.9086 14.9484 42.8837C14.9031 42.8589 14.8631 42.8253 14.8309 42.7849C14.7986 42.7445 14.7747 42.6982 14.7604 42.6485C14.7462 42.5989 14.7419 42.5469 14.7479 42.4955C14.8216 41.8187 14.9626 41.1507 15.1686 40.5015C15.1844 40.4523 15.2097 40.4067 15.243 40.3672C15.2764 40.3277 15.3172 40.2952 15.3632 40.2715C15.4091 40.2478 15.4593 40.2333 15.5108 40.2289C15.5623 40.2245 15.6142 40.2303 15.6634 40.2459C15.7126 40.2615 15.7583 40.2867 15.7977 40.32C15.8372 40.3532 15.8697 40.3939 15.8934 40.4397C15.9171 40.4856 15.9315 40.5356 15.9358 40.587C15.9401 40.6385 15.9342 40.6902 15.9184 40.7394C15.7277 41.3405 15.596 41.9586 15.5253 42.585C15.5178 42.6515 15.4935 42.715 15.4545 42.7696C15.4156 42.8241 15.3634 42.8678 15.3028 42.8966V42.8966ZM50.9664 25.1462C50.9108 25.1698 50.8505 25.1806 50.7901 25.178C50.7298 25.1753 50.6708 25.1592 50.6175 25.1308C50.5642 25.1024 50.518 25.0625 50.4822 25.0139C50.4464 24.9653 50.422 24.9093 50.4107 24.8501C50.3106 24.2107 50.2052 23.5649 50.0899 22.917C50.0811 22.8661 50.0824 22.814 50.0939 22.7635C50.1053 22.7131 50.1265 22.6654 50.1564 22.6232C50.1862 22.5809 50.2241 22.5449 50.2678 22.5172C50.3116 22.4896 50.3604 22.4708 50.4114 22.4619C50.4624 22.4531 50.5146 22.4543 50.5651 22.4656C50.6156 22.4769 50.6633 22.498 50.7056 22.5277C50.7478 22.5574 50.7838 22.5952 50.8115 22.6388C50.8391 22.6825 50.8578 22.7311 50.8666 22.782C50.9836 23.4336 51.0888 24.084 51.1915 24.7288C51.2027 24.8125 51.1865 24.8976 51.1453 24.9715C51.1041 25.0454 51.0402 25.1041 50.9631 25.1388L50.9664 25.1462ZM16.4981 39.173C16.4413 39.1994 16.379 39.2118 16.3165 39.2093C16.254 39.2067 16.193 39.1891 16.1388 39.1581C16.0496 39.1052 15.9843 39.0201 15.9562 38.9204C15.9282 38.8207 15.9396 38.7139 15.988 38.6222C16.326 38.027 16.7268 37.4695 17.1836 36.9592C17.2531 36.8815 17.3507 36.8344 17.4548 36.8284C17.559 36.8224 17.6611 36.858 17.7389 36.9273C17.8166 36.9965 17.8636 37.0939 17.8694 37.1978C17.8752 37.3018 17.8394 37.4039 17.7698 37.4816C17.3557 37.9505 16.9929 38.4622 16.6876 39.0079C16.6435 39.0815 16.5771 39.1394 16.4981 39.173ZM19.0938 36.2624C19.0047 36.3052 18.9028 36.313 18.8083 36.2841C18.7139 36.2552 18.6339 36.1918 18.5842 36.1066C18.5346 36.0214 18.519 35.9206 18.5405 35.8242C18.562 35.7279 18.6191 35.6431 18.7003 35.5868C19.1965 35.2283 19.7275 34.9205 20.2853 34.6681L20.4841 34.5766C20.5785 34.5431 20.6821 34.5467 20.7738 34.5865C20.8656 34.6264 20.9387 34.6996 20.9784 34.7913C21.018 34.883 21.0213 34.9864 20.9875 35.0806C20.9537 35.1747 20.8854 35.2527 20.7963 35.2986C20.7282 35.3299 20.662 35.3604 20.5957 35.3909C20.0907 35.6229 19.6091 35.9027 19.1576 36.2264C19.1373 36.2401 19.116 36.2521 19.0938 36.2624V36.2624ZM22.5357 34.5069C22.478 34.5334 22.4147 34.5456 22.3512 34.5426C22.2878 34.5395 22.226 34.5212 22.1712 34.4892C22.1164 34.4572 22.0702 34.4124 22.0365 34.3587C22.0027 34.3051 21.9824 34.244 21.9774 34.1808L21.69 33.7745C21.5403 33.5608 21.3923 33.3507 21.2459 33.1489L20.9747 32.773C20.9168 32.6878 20.8946 32.5834 20.9129 32.482C20.9312 32.3805 20.9885 32.2902 21.0726 32.2303C21.1566 32.1704 21.2607 32.1457 21.3627 32.1614C21.4646 32.1771 21.5563 32.232 21.6181 32.3144L21.8857 32.6875C22.0339 32.893 22.1827 33.1049 22.3351 33.3196L22.7229 33.8666C22.7654 33.9286 22.7897 34.0012 22.7931 34.0762C22.7965 34.1513 22.7789 34.2259 22.7423 34.2916L22.7153 34.3396C22.6765 34.4109 22.6163 34.4682 22.5431 34.5035L22.5357 34.5069ZM50.2644 21.27C50.237 21.2822 50.2084 21.2916 50.1791 21.2981C50.1285 21.3088 50.0762 21.3095 50.0254 21.3C49.9745 21.2905 49.9261 21.271 49.8828 21.2428C49.8395 21.2145 49.8023 21.178 49.7732 21.1353C49.7441 21.0926 49.7238 21.0446 49.7134 20.994L49.6038 20.4747C49.5154 20.0548 49.4177 19.5856 49.3004 19.0788C49.2847 19.0271 49.2799 18.9727 49.2861 18.9191C49.2924 18.8654 49.3096 18.8135 49.3368 18.7667C49.3639 18.7199 49.4004 18.6792 49.444 18.647C49.4875 18.6148 49.5372 18.5919 49.59 18.5797C49.6428 18.5675 49.6974 18.5663 49.7506 18.576C49.8039 18.5858 49.8545 18.6064 49.8994 18.6365C49.9442 18.6667 49.9824 18.7057 50.0115 18.7512C50.0406 18.7967 50.0601 18.8477 50.0686 18.9011C50.1857 19.4124 50.2859 19.887 50.3786 20.3162L50.488 20.8399C50.5044 20.9248 50.492 21.0128 50.4529 21.0901C50.4137 21.1673 50.35 21.2294 50.2717 21.2666L50.2644 21.27ZM20.3482 31.281C20.263 31.3204 20.1666 31.3281 20.0763 31.3027C19.9861 31.2773 19.908 31.2205 19.8561 31.1426C19.4633 30.5556 19.1116 30.0098 18.7907 29.4676C18.7437 29.3786 18.7326 29.2749 18.7598 29.1778C18.7869 29.0807 18.8503 28.9976 18.9368 28.9455C19.0233 28.8935 19.1264 28.8764 19.2249 28.8978C19.3235 28.9193 19.4101 28.9775 19.4668 29.0607C19.7811 29.5837 20.1274 30.1275 20.5115 30.7052C20.5669 30.7928 20.5864 30.8985 20.566 31.0002C20.5456 31.102 20.4868 31.1921 20.4017 31.2519L20.3482 31.281ZM49.3631 17.441L49.3097 17.4656C49.2602 17.4802 49.2083 17.4849 49.157 17.4795C49.1056 17.4741 49.0559 17.4587 49.0106 17.4341C48.9653 17.4095 48.9253 17.3762 48.8929 17.3361C48.8605 17.296 48.8364 17.25 48.8218 17.2006C48.6331 16.553 48.4252 15.9366 48.2021 15.3694C48.1688 15.273 48.1742 15.1673 48.2173 15.0746C48.2604 14.982 48.3377 14.9095 48.4331 14.8725C48.5285 14.8355 48.6345 14.8369 48.7287 14.8763C48.823 14.9157 48.8982 14.9902 48.9385 15.0839C49.1663 15.6756 49.3789 16.3121 49.5742 16.9789C49.5971 17.0683 49.5887 17.1629 49.5503 17.247C49.5118 17.331 49.4458 17.3995 49.3631 17.441V17.441ZM18.3351 27.9059C18.2426 27.9486 18.1372 27.9537 18.0411 27.9203C17.945 27.8869 17.8657 27.8176 17.8199 27.7269C17.6598 27.4178 17.5071 27.1053 17.3626 26.7913C17.218 26.4773 17.0946 26.2092 16.9822 25.9116C16.9594 25.8631 16.9467 25.8105 16.9449 25.7569C16.9432 25.7033 16.9524 25.6499 16.972 25.6C16.9916 25.55 17.0212 25.5046 17.059 25.4664C17.0967 25.4283 17.1419 25.3982 17.1917 25.378C17.2415 25.3578 17.2948 25.3479 17.3485 25.349C17.4022 25.3501 17.4551 25.3621 17.5039 25.3843C17.5527 25.4065 17.5965 25.4384 17.6326 25.4781C17.6686 25.5177 17.6961 25.5643 17.7135 25.615C17.8274 25.8964 17.9468 26.1752 18.0787 26.4617C18.2105 26.7482 18.3585 27.0695 18.5216 27.3706C18.5447 27.4163 18.5586 27.4662 18.5624 27.5174C18.5662 27.5685 18.5599 27.6199 18.5438 27.6687C18.5277 27.7174 18.5021 27.7626 18.4685 27.8015C18.435 27.8404 18.3941 27.8723 18.3482 27.8955L18.3351 27.9059ZM47.935 13.781C47.8429 13.8241 47.7377 13.8297 47.6417 13.7966C47.5457 13.7635 47.4664 13.6944 47.4207 13.6039C47.1316 13.0362 46.805 12.4885 46.4429 11.9643C46.4095 11.9222 46.3851 11.8737 46.3712 11.8219C46.3573 11.77 46.3541 11.7159 46.3619 11.6627C46.3697 11.6095 46.3883 11.5585 46.4165 11.5127C46.4447 11.4669 46.482 11.4274 46.5261 11.3965C46.5701 11.3656 46.62 11.344 46.6727 11.333C46.7254 11.322 46.7798 11.3219 46.8325 11.3326C46.8852 11.3434 46.9351 11.3647 46.9792 11.3954C47.0233 11.4261 47.0606 11.4655 47.0888 11.5112C47.474 12.0635 47.8211 12.6412 48.128 13.2405C48.1741 13.3327 48.1819 13.4394 48.1498 13.5374C48.1177 13.6355 48.0482 13.7171 47.9564 13.7645L47.935 13.781ZM16.8803 24.2605L16.8214 24.2876C16.7203 24.3125 16.6135 24.2975 16.5232 24.2458C16.4329 24.1941 16.3661 24.1097 16.3367 24.01C16.1603 23.357 16.0358 22.691 15.9643 22.0183C15.9538 21.9145 15.9851 21.8108 16.0512 21.7298C16.1173 21.6489 16.2128 21.5975 16.3168 21.5868C16.4207 21.5761 16.5246 21.6071 16.6055 21.673C16.6864 21.7388 16.7378 21.8341 16.7483 21.9379C16.8146 22.5684 16.9317 23.1924 17.0986 23.804C17.1195 23.8934 17.1093 23.9873 17.0696 24.0703C17.0299 24.1533 16.9632 24.2203 16.8803 24.2605ZM45.6638 10.5915C45.59 10.6239 45.5082 10.6336 45.4289 10.6193C45.3497 10.6051 45.2765 10.5675 45.2188 10.5115C44.7745 10.0646 44.2869 9.6629 43.7632 9.31215C43.6895 9.24909 43.6417 9.16107 43.6289 9.06492C43.6162 8.96878 43.6394 8.87125 43.6941 8.79098C43.7488 8.71071 43.8312 8.65333 43.9255 8.62983C44.0198 8.60632 44.1195 8.61833 44.2053 8.66356C44.7719 9.04333 45.2993 9.47815 45.78 9.96167C45.8167 9.99809 45.8458 10.0414 45.8657 10.0891C45.8855 10.1369 45.8957 10.1881 45.8957 10.2398C45.8957 10.2915 45.8854 10.3427 45.8655 10.3905C45.8455 10.4383 45.8163 10.4817 45.7796 10.5182C45.7454 10.549 45.7063 10.5738 45.6638 10.5915V10.5915ZM30.1641 14.2674C30.1073 14.2938 30.045 14.3063 29.9825 14.3037C29.92 14.3011 29.859 14.2836 29.8047 14.2526C29.2562 13.9385 28.6792 13.6766 28.0815 13.4701C27.9897 13.4311 27.9162 13.3587 27.8758 13.2676C27.8354 13.1764 27.8311 13.0734 27.8637 12.9791C27.8964 12.8848 27.9636 12.8063 28.0518 12.7594C28.14 12.7124 28.2427 12.7006 28.3392 12.7262C28.9833 12.9484 29.6048 13.2308 30.1955 13.5698C30.2404 13.5953 30.2798 13.6293 30.3114 13.6701C30.3431 13.7108 30.3664 13.7574 30.38 13.8072C30.3935 13.8569 30.3972 13.9089 30.3906 13.9601C30.384 14.0113 30.3674 14.0607 30.3417 14.1056C30.3002 14.1762 30.2383 14.2326 30.1641 14.2674ZM16.5225 20.3616C16.4582 20.3925 16.3865 20.4047 16.3156 20.3968C16.2641 20.3918 16.2142 20.3766 16.1686 20.3522C16.1231 20.3278 16.0829 20.2946 16.0503 20.2545C16.0178 20.2144 15.9935 20.1683 15.979 20.1187C15.9644 20.0692 15.9599 20.0173 15.9656 19.9659C16.0134 19.5108 16.096 19.0598 16.2126 18.6171C16.2708 18.3945 16.3388 18.174 16.414 17.9592C16.4518 17.8646 16.5247 17.7882 16.6175 17.7459C16.7104 17.7037 16.8159 17.6989 16.912 17.7325C17.0082 17.7661 17.0875 17.8356 17.1335 17.9264C17.1794 18.0172 17.1883 18.1222 17.1585 18.2196C17.0895 18.4138 17.0284 18.6155 16.9736 18.8165C16.8677 19.2203 16.7922 19.6315 16.7478 20.0465C16.7405 20.1153 16.7152 20.181 16.6743 20.2369C16.6335 20.2929 16.5786 20.337 16.5151 20.365L16.5225 20.3616ZM42.4159 8.42567C42.3671 8.44732 42.3144 8.45913 42.261 8.46041C42.2077 8.46169 42.1545 8.45241 42.1048 8.43312C41.6109 8.23624 41.1017 8.07987 40.5823 7.96558C40.4851 7.94353 40.387 7.92417 40.2923 7.90763C40.2394 7.90043 40.1884 7.88256 40.1426 7.85511C40.0968 7.82765 40.0571 7.79119 40.0258 7.74793C39.9946 7.70467 39.9725 7.65551 39.9609 7.60342C39.9492 7.55134 39.9483 7.49742 39.9581 7.44493C39.968 7.39244 39.9884 7.34247 40.0182 7.29806C40.0479 7.25365 40.0864 7.21571 40.1312 7.18654C40.1761 7.15738 40.2264 7.1376 40.2791 7.1284C40.3318 7.1192 40.3857 7.12077 40.4378 7.13302C40.5423 7.15168 40.6485 7.17401 40.7529 7.19718C41.3151 7.32012 41.866 7.4893 42.4001 7.70302C42.4482 7.72217 42.492 7.75062 42.5289 7.78675C42.5659 7.82287 42.5954 7.86595 42.6156 7.91351C42.6359 7.96107 42.6465 8.01217 42.6468 8.06388C42.6472 8.11558 42.6374 8.16687 42.6178 8.21479C42.578 8.31022 42.5031 8.38688 42.4086 8.42905L42.4159 8.42567ZM31.1595 13.3619C31.0876 13.3948 31.0075 13.4053 30.9295 13.3922C30.8516 13.3791 30.7795 13.343 30.7224 13.2885C30.6654 13.234 30.6261 13.1636 30.6096 13.0865C30.5931 13.0093 30.6001 12.929 30.6298 12.8558C30.8876 12.2264 31.2011 11.6211 31.5665 11.0471C31.5925 10.9998 31.6279 10.9582 31.6706 10.9251C31.7133 10.8919 31.7624 10.8679 31.8147 10.8544C31.8671 10.8409 31.9217 10.8383 31.975 10.8467C32.0284 10.8551 32.0795 10.8743 32.125 10.9032C32.1706 10.9322 32.2097 10.9701 32.24 11.0148C32.2703 11.0594 32.291 11.1098 32.301 11.1628C32.311 11.2158 32.3099 11.2703 32.2979 11.323C32.2859 11.3756 32.2633 11.4253 32.2313 11.4688C31.8911 12.004 31.5991 12.5681 31.3585 13.1546C31.3201 13.2491 31.2459 13.3248 31.1521 13.3653L31.1595 13.3619ZM38.5635 7.72865C38.5172 7.74961 38.4672 7.76128 38.4164 7.76296C37.7919 7.78963 37.1731 7.8943 36.5743 8.07453C36.4753 8.10062 36.3701 8.08734 36.2808 8.03749C36.1916 7.98763 36.1252 7.90509 36.0958 7.80726C36.0664 7.70943 36.0762 7.60395 36.1232 7.51305C36.1701 7.42214 36.2505 7.35292 36.3475 7.31995C37.0092 7.12213 37.6929 7.00704 38.3828 6.97732C38.4739 6.9739 38.5633 7.00203 38.6358 7.05695C38.7084 7.11187 38.7597 7.19019 38.781 7.27863C38.8022 7.36707 38.7922 7.4602 38.7526 7.54222C38.7129 7.62424 38.6461 7.69011 38.5635 7.72865V7.72865ZM33.2849 10.0693C33.201 10.1069 33.1066 10.1141 33.018 10.0897C32.9295 10.0653 32.8522 10.0109 32.7997 9.93569C32.7471 9.86052 32.7225 9.76935 32.73 9.67788C32.7376 9.58642 32.7768 9.50038 32.841 9.43459C33.3265 8.94491 33.8705 8.51666 34.4605 8.15952C34.5498 8.11152 34.654 8.09955 34.7517 8.12607C34.8494 8.15259 34.9331 8.21557 34.9854 8.30201C35.0378 8.38845 35.0549 8.49173 35.0332 8.59053C35.0115 8.68933 34.9526 8.7761 34.8687 8.8329C34.3313 9.15688 33.8359 9.54561 33.3935 9.99033C33.3625 10.0277 33.3245 10.0588 33.2817 10.0818L33.2849 10.0693ZM26.4626 13.0113C26.3966 13.0396 26.3243 13.0498 26.2531 13.041C25.6285 12.964 24.9973 12.9524 24.37 13.0065C24.2699 13.0082 24.173 12.972 24.0988 12.9051C24.0246 12.8382 23.9787 12.7456 23.9702 12.6461C23.9618 12.5466 23.9916 12.4475 24.0534 12.3689C24.1153 12.2903 24.2047 12.238 24.3036 12.2225C24.9865 12.1642 25.6735 12.1769 26.3534 12.2604C26.4377 12.2714 26.5162 12.3092 26.5771 12.3682C26.638 12.4273 26.6782 12.5044 26.6917 12.5882C26.7052 12.6719 26.6913 12.7578 26.652 12.8332C26.6127 12.9085 26.5502 12.9692 26.4736 13.0063L26.4626 13.0113ZM17.8357 16.6906C17.7744 16.7191 17.7068 16.7314 17.6395 16.7261C17.5722 16.7208 17.5074 16.6982 17.4515 16.6605C17.3666 16.6008 17.308 16.5108 17.2878 16.4092C17.2676 16.3075 17.2873 16.2018 17.3428 16.1141C17.7289 15.5421 18.185 15.0204 18.7006 14.5611C18.7794 14.4982 18.8794 14.4677 18.9799 14.4759C19.0804 14.4841 19.1739 14.5304 19.2412 14.6053C19.3085 14.6803 19.3445 14.7781 19.3418 14.8788C19.3391 14.9795 19.2979 15.0754 19.2267 15.1468C18.7599 15.5623 18.3468 16.0342 17.9971 16.5518C17.9556 16.6152 17.8962 16.6649 17.8265 16.6948L17.8357 16.6906ZM22.5616 13.3381L22.51 13.3619C22.1983 13.4542 21.8915 13.5627 21.5911 13.6869C21.3077 13.7995 21.0305 13.927 20.7608 14.0691C20.7153 14.0937 20.6654 14.1091 20.6139 14.1145C20.5625 14.1198 20.5105 14.115 20.461 14.1003C20.4114 14.0856 20.3653 14.0613 20.3252 14.0288C20.2851 13.9963 20.2518 13.9561 20.2272 13.9108C20.2027 13.8654 20.1873 13.8156 20.182 13.7642C20.1768 13.7129 20.1817 13.661 20.1965 13.6115C20.2113 13.562 20.2358 13.5159 20.2684 13.4758C20.3011 13.4357 20.3413 13.4024 20.3868 13.3778C20.6797 13.2202 20.9806 13.078 21.2883 12.9517C21.6138 12.8167 21.9463 12.6993 22.2843 12.6001C22.379 12.575 22.4795 12.5859 22.5664 12.6307C22.6533 12.6755 22.7204 12.7509 22.7548 12.8423C22.7891 12.9338 22.7881 13.0347 22.7521 13.1256C22.7161 13.2166 22.6476 13.291 22.5599 13.3344L22.5616 13.3381Z" fill="#58595B"/>
<path d="M67.0034 55.3457C65.9676 56.5778 64.6241 57.4258 63.1558 58.1303C62.1733 58.6002 60.5235 59.1211 59.9541 60.1452C58.638 62.5045 62.2347 64.7714 62.9129 66.9903C61.4961 66.9975 60.0779 66.864 58.6636 67.0777C57.1044 67.3051 55.6654 67.921 54.0678 67.7707C53.9085 67.7615 53.7493 67.8022 53.6132 67.887C53.4771 67.9719 53.371 68.0965 53.31 68.2432C51.9008 70.9789 51.8459 74.401 50.0279 76.9207C48.579 75.0875 47.2011 70.5095 44.728 70.9388C43.5065 71.1543 42.5598 72.8203 41.7033 73.6032C40.4235 74.7908 38.6225 76.7196 36.8377 77.2562C36.0959 75.2521 35.8363 73.0548 35.6941 70.936C35.6081 69.6505 35.682 67.7413 34.8363 66.6641C33.6814 65.1947 30.8232 65.6556 28.6252 66.1041C30.1526 64.5176 31.8007 62.7519 32.2291 60.6907C33.0374 61.862 33.971 62.9433 35.0142 63.9165C37.7679 66.4411 40.9368 67.2243 44.6434 66.6644C48.2298 66.118 52.1207 64.7224 54.8754 62.2906C57.6301 59.8587 57.2063 57.0546 56.5086 54.0673C56.5414 54.0387 56.5667 54.0028 56.5824 53.9626C59.8983 55.281 63.7215 54.111 67.0034 55.3457Z" fill="#EF4136"/>
<path d="M40.6845 15.7718C41.8651 17.1965 42.265 19.1677 42.6837 20.9208C43.1616 22.9297 43.4997 24.974 43.814 27.0136C44.1283 29.0533 44.4666 31.0462 44.784 33.0643C45.0455 34.7115 45.046 36.3851 45.7815 37.9077C44.9362 38.0404 44.1127 38.23 43.3456 38.4338C41.1481 39.0207 39.0091 39.8024 36.9526 40.7701C36.056 38.1247 34.053 34.5599 31.1664 34.4131C28.5825 30.34 24.2745 26.403 23.5367 21.4646C23.3796 20.4024 23.5482 19.6049 24.6325 19.3176C26.5666 18.8085 27.9932 20.4944 29.0291 21.93C30.1404 23.4869 30.9743 25.2138 31.9796 26.8373C33.5541 29.3912 35.3725 31.8107 37.2313 34.1625C37.3451 34.3062 37.4555 34.4471 37.5667 34.5898C38.2414 35.4383 39.4636 34.7487 39.3561 33.7662C38.9165 29.9276 38.2032 26.079 37.5318 22.2646C37.2269 20.575 36.8886 18.7894 37.1448 17.08C37.2749 16.2178 37.6148 14.6995 38.6054 14.5244C39.41 14.3925 40.2009 15.1875 40.6845 15.7718Z" fill="#70CACD"/>
<path d="M50.6462 39.9132C52.8118 41.1428 54.1591 44.1944 54.7921 46.4792C55.1709 47.8754 55.3598 49.3164 55.3539 50.7635C55.353 51.1731 55.3536 51.5622 55.3762 51.9368C55.3431 51.9627 55.3169 51.9964 55.3 52.0349C55.2831 52.0734 55.276 52.1155 55.2794 52.1573C55.2887 52.3467 55.3024 52.5361 55.3207 52.7257C55.2712 52.828 55.2517 52.9423 55.2647 53.0551C55.2776 53.1679 55.3224 53.2747 55.3937 53.3631C55.5634 54.737 55.8339 56.1194 55.7487 57.4852C55.6332 59.3357 54.6411 60.5887 53.2108 61.6651C50.6252 63.6207 47.2315 64.778 44.0469 65.212C35.5976 66.3621 32.7047 58.1239 29.5926 51.9753C31.2209 51.1664 32.4742 49.5665 32.4238 47.7242C32.3968 46.8566 31.0681 46.6696 31.0388 47.5873C30.9292 50.1831 27.8355 52.0448 25.5762 50.5592C24.0804 49.5735 23.1401 47.5115 22.5436 45.8853C21.7735 43.7957 21.9961 41.1677 24.7557 40.9688C26.2689 40.8576 27.2599 41.8666 27.974 43.0734L27.9807 43.088C28.3007 43.7832 28.6317 44.4449 28.9217 45.0462C29.354 45.9472 30.7213 45.3179 30.329 44.3985C30.0381 43.704 29.6969 43.0316 29.3083 42.3867C28.1545 40.038 27.1814 37.2058 30.4674 36.3841C33.2857 35.6809 35.0523 39.3227 36.1946 41.4215C35.3909 41.7914 34.6053 42.186 33.8187 42.5832C33.6642 42.6588 33.5449 42.7911 33.4857 42.9524C33.4265 43.1138 33.432 43.2916 33.501 43.4488C35.4873 48.9276 41.1109 49.307 45.8803 47.5341C46.5087 49.2248 46.438 50.7753 45.5794 52.5433C45.1173 53.4974 46.6786 54.3187 47.2235 53.4057C48.6939 50.947 48.5905 48.3766 47.2807 45.871C47.1698 45.6399 46.9732 45.461 46.7325 45.3723C46.4918 45.2835 46.2259 45.2918 45.991 45.3954C42.5181 47.0269 38.2578 47.5556 35.793 44.6994L35.8057 44.6694C37.1269 44.8401 39.0657 44.0929 40.0885 43.5913C41.0376 43.1258 43.008 41.6623 42.1125 40.4443C42.3885 40.3547 42.6687 40.2741 42.9481 40.1917C44.0562 39.8542 45.1846 39.5876 46.3264 39.3936C46.268 39.5022 46.2428 39.6254 46.2539 39.7481C46.3052 40.5297 46.2456 41.7693 46.9274 42.2981C47.1334 42.4584 47.3602 42.2044 47.2838 41.9954C47.0381 41.2748 47.3403 40.4427 47.3493 39.7059C47.3537 39.6302 47.3426 39.5543 47.3166 39.4831C47.2906 39.4118 47.2503 39.3466 47.1982 39.2915C47.4524 39.2691 47.706 39.2601 47.9602 39.2619C47.8109 39.6651 47.9314 40.0848 48.0211 40.5143C48.1607 41.0319 48.2565 41.5603 48.3075 42.094C48.3248 42.3853 48.7683 42.3483 48.8056 42.0848C48.8521 41.607 48.8557 41.126 48.8162 40.6477C48.7982 40.216 48.9007 39.7398 48.8052 39.3218C49.4525 39.3936 50.0786 39.5947 50.6462 39.9132V39.9132Z" fill="#70CACD"/>
<path d="M40.7569 41.1135C40.737 41.2349 40.7763 41.3437 40.8673 41.419C40.5531 41.6392 39.9719 42.0965 39.7756 42.2099C39.1932 42.5289 38.5864 42.8082 37.9652 43.0432C37.1029 43.3892 35.8989 43.5979 35.1075 44.0979C35.025 43.9893 34.9504 43.8725 34.8797 43.7492C35.6212 43.3864 36.3683 43.0306 37.1211 42.6821C38.3216 42.1326 39.5315 41.5988 40.7569 41.1135Z" fill="#CFEDEF"/>
<path d="M27.1724 66.3564L26.9582 66.5734C26.5456 67.0024 26.8121 67.7178 27.4505 67.643C28.7308 67.5007 30.0013 67.269 31.2726 67.1755C31.985 67.1202 32.9357 66.9732 33.62 67.2125C34.4605 67.5184 34.522 68.2902 34.6378 69.0973C35.058 72.0326 35.0158 74.9572 36.011 77.7821C36.0948 78.0274 36.1832 78.2683 36.2844 78.5077C36.3507 78.6466 36.4599 78.7604 36.5961 78.8325C36.7322 78.9046 36.8881 78.9312 37.0407 78.9083C40.0759 78.5147 42.645 75.1935 44.7011 73.1699C45.3628 72.5122 45.454 72.4278 46.1427 73.1053C46.7889 73.7443 47.2136 74.6572 47.6621 75.4319C48.1911 76.3326 48.6986 77.3036 49.3804 78.1027C49.6085 78.3708 49.862 78.6164 50.1373 78.836C50.2676 78.927 50.4242 78.9729 50.5834 78.9667C50.7425 78.9604 50.8954 78.9023 51.0186 78.8013C53.4086 76.1972 53.4513 72.5281 54.8307 69.4193C56.1562 69.4484 57.3862 69.0655 58.7111 68.8155C60.5318 68.478 62.4022 68.7703 64.2484 68.7027C64.413 68.6749 64.564 68.5939 64.6782 68.4723C64.7924 68.3507 64.8635 68.1951 64.8806 68.0295C64.8767 67.6902 64.8327 67.3527 64.7497 67.0238C64.5371 66.274 64.2028 65.5642 63.7601 64.9227C63.1253 63.9187 61.0267 61.9078 61.9386 60.8043C62.6919 59.8877 64.6375 59.5196 65.653 58.9091C67.0197 58.0878 68.1872 56.9741 69.0709 55.6487C69.2766 55.3305 69.2644 54.7729 68.8812 54.5739C68.652 54.4559 68.4116 54.343 68.1742 54.2512C64.6096 52.8414 60.4669 54.2789 57.0478 52.4445C56.9207 52.3751 56.7771 52.3408 56.6321 52.3453C56.5979 51.009 56.8971 49.593 56.749 48.2868C56.5662 46.7254 56.1515 45.2005 55.5187 43.7621C54.6459 41.7637 53.4006 39.521 51.3589 38.5254C50.4002 38.08 49.3501 37.864 48.2918 37.8945C48.2956 37.7314 48.2605 37.5699 48.1893 37.4232C47.1707 35.2103 47.1708 32.1016 46.8076 29.6898C46.4034 27.0332 46.048 24.3653 45.4917 21.7339C44.8208 18.5609 43.8247 13.4681 39.9851 12.6207C36.319 11.8141 35.3405 16.5932 35.4528 19.2345C35.6104 22.988 36.3945 26.748 37.0233 30.4969C35.8854 29.0384 34.7945 27.5404 33.8073 25.9901C32.8696 24.5132 32.0617 22.9676 31.0419 21.5463C29.3665 19.2268 26.8213 16.8449 23.7316 18.124C18.8508 20.1358 24.4103 27.7118 26.0961 30.049C27.244 31.6414 28.5078 33.6074 30.1372 34.8621C30.0095 34.8918 29.8863 34.9261 29.7573 34.9676C26.9426 35.9034 26.4713 37.8031 26.8845 39.8656C25.9819 39.4021 24.9428 39.2737 23.9523 39.5034C20.8791 40.1357 19.9526 43.1322 20.8392 45.8528C21.6614 48.3797 23.389 51.8798 26.2058 52.6102C27.0028 52.8033 27.8369 52.7874 28.6271 52.564C29.5194 55.2245 30.7405 57.7629 32.2622 60.1206C32.235 60.1469 32.2145 60.1793 32.2025 60.2151C31.3131 62.6001 28.9653 64.5456 27.1724 66.3564ZM23.5711 21.7758C23.4222 20.7068 23.6052 19.9007 24.7241 19.598C26.72 19.0615 28.1674 20.7441 29.214 22.1798C30.3404 23.7353 31.1757 25.4672 32.1922 27.0911C33.7814 29.647 35.623 32.0644 37.507 34.4132C37.6224 34.5567 37.7343 34.6974 37.847 34.8399C38.5308 35.6873 39.7965 34.9773 39.6978 33.9881C39.2934 30.1225 38.6041 26.2517 37.9592 22.4142C37.6658 20.7144 37.3392 18.9182 37.6234 17.1918C37.7676 16.3209 38.1355 14.7861 39.1567 14.5976C39.9819 14.4413 40.796 15.2354 41.2884 15.8178C42.4858 17.24 42.8735 19.2226 43.2832 20.985C43.7507 23.0046 44.074 25.0616 44.3728 27.1141C44.6716 29.1667 44.9957 31.1719 45.2979 33.2028C45.5472 34.8602 45.5276 36.5476 46.266 38.0738C45.3948 38.2178 44.5453 38.4189 43.7536 38.6335C41.482 39.2527 39.2682 40.0683 37.1375 41.0709C36.2469 38.4146 34.2292 34.8447 31.2612 34.7313C28.6588 30.6707 24.2707 26.7458 23.5711 21.7758V21.7758ZM41.0191 41.4051C40.7294 41.648 40.2026 42.1653 40.0173 42.2841C39.464 42.6126 38.8778 42.8824 38.2683 43.0891C37.426 43.4031 36.1994 43.4671 35.4598 44.0042C35.3532 43.8409 35.2534 43.6678 35.1566 43.4867C35.8689 43.1275 36.5886 42.7791 37.3154 42.4416C38.474 41.9083 39.6455 41.3982 40.8437 40.9607C40.8442 41.1257 40.9068 41.2843 41.0191 41.4051V41.4051ZM31.1676 47.6849C31.054 50.3228 27.9045 52.2172 25.6067 50.7093C24.0854 49.7088 23.1302 47.6142 22.5246 45.9621C21.7426 43.8392 21.9712 41.1684 24.7794 40.9641C26.3193 40.8499 27.3269 41.8744 28.0527 43.1003L28.0595 43.1151C28.3845 43.8214 28.7208 44.4935 29.0154 45.1043C29.4546 46.0195 30.8483 45.3781 30.4479 44.4449C30.1525 43.7394 29.8059 43.0564 29.4109 42.4014C28.2387 40.0155 27.2508 37.1382 30.5952 36.3006C33.4654 35.5828 35.2583 39.2831 36.419 41.415C35.6009 41.7915 34.8012 42.1932 34.0004 42.5975C33.8432 42.6745 33.7217 42.809 33.6613 42.973C33.6009 43.1369 33.6063 43.3177 33.6764 43.4774C35.6933 49.0434 41.4154 49.4244 46.2701 47.619C46.9082 49.3367 46.835 50.9124 45.9599 52.7097C45.489 53.6796 47.077 54.513 47.6321 53.5848C49.1304 51.085 49.0272 48.4731 47.6964 45.9278C47.5838 45.693 47.3839 45.5115 47.139 45.4215C46.8942 45.3315 46.6235 45.3401 46.3844 45.4456C42.851 47.1054 38.5136 47.647 36.0078 44.7464L36.0206 44.7159C37.365 44.8883 39.3384 44.1274 40.3796 43.6169C41.3458 43.1431 43.352 41.6543 42.4417 40.4173C42.7227 40.326 43.0078 40.2439 43.2922 40.16C44.42 39.8161 45.5684 39.5443 46.7305 39.3461C46.6703 39.4563 46.6445 39.5818 46.6564 39.7065C46.708 40.5008 46.6463 41.7605 47.3397 42.2973C47.5492 42.4601 47.7802 42.2018 47.7027 41.9894C47.4532 41.2573 47.7614 40.4114 47.7712 39.6628C47.7757 39.5858 47.7644 39.5087 47.738 39.4363C47.7116 39.3639 47.6707 39.2977 47.6177 39.2417C47.8763 39.2188 48.1345 39.2095 48.3931 39.2111C48.2408 39.6209 48.3631 40.0473 48.4541 40.4837C48.5957 41.0096 48.6928 41.5465 48.7443 42.0888C48.7616 42.3848 49.2129 42.3469 49.2511 42.079C49.2981 41.5928 49.3018 41.1035 49.2622 40.6168C49.2442 40.1781 49.3489 39.6942 49.2521 39.2694C49.9156 39.339 50.5578 39.5412 51.1406 39.864C53.3433 41.1117 54.7118 44.2117 55.3541 46.5331C55.7384 47.9516 55.9296 49.4159 55.9224 50.8864C55.9211 51.3026 55.9214 51.6981 55.9441 52.0787C55.9101 52.1048 55.8832 52.139 55.866 52.1782C55.8487 52.2174 55.8417 52.2603 55.8455 52.3029C55.8548 52.4953 55.8686 52.6878 55.887 52.8805C55.8366 52.9845 55.8167 53.1006 55.8298 53.2152C55.8428 53.3299 55.8883 53.4384 55.9608 53.5281C56.1324 54.9241 56.4066 56.3288 56.3187 57.7168C56.1997 59.5974 55.1892 60.8715 53.7329 61.9664C51.1003 63.9559 47.6461 65.1346 44.4051 65.5782C35.8064 66.7536 32.8692 58.3841 29.7073 52.1383C31.3649 51.315 32.6415 49.6883 32.5917 47.8161C32.5569 46.9315 31.2075 46.7481 31.1676 47.6849V47.6849ZM32.6506 60.6525C33.4644 61.8396 34.4025 62.9368 35.449 63.9257C38.2258 66.4938 41.3897 67.3058 45.0802 66.767C48.6509 66.2409 52.5193 64.8604 55.2479 62.4267C57.9765 59.9931 57.5346 57.1616 56.8183 54.1436C56.8507 54.115 56.8757 54.0789 56.8911 54.0386C60.2053 55.3915 64.0113 54.2364 67.2928 55.5084C66.269 56.7439 64.9359 57.5899 63.4774 58.2903C62.5014 58.7574 60.8606 59.2712 60.3002 60.3002C59.0049 62.6708 62.6057 64.9825 63.2971 67.2253C61.8851 67.2227 60.4706 67.0782 59.0625 67.2838C57.51 67.5022 56.08 68.1135 54.4867 67.9507C54.3277 67.9403 54.1694 67.9802 54.0344 68.0648C53.8993 68.1495 53.7944 68.2745 53.7347 68.422C52.3438 71.1696 52.3129 74.6209 50.5185 77.1498C49.0617 75.2905 47.6563 70.6632 45.1943 71.0791C43.9784 71.2879 43.0464 72.9616 42.1982 73.7453C40.931 74.9343 39.1494 76.8672 37.3742 77.396C36.6208 75.3694 36.3467 73.1513 36.1902 71.0131C36.0955 69.7158 36.1559 67.7906 35.3054 66.6982C34.1422 65.2089 31.2984 65.6529 29.1109 66.0899C30.6223 64.4958 32.2427 62.7242 32.6543 60.6508L32.6506 60.6525Z" fill="#231F20"/>
</svg>
