<svg width="47" height="61" viewBox="0 0 47 61" fill="none" xmlns="http://www.w3.org/2000/svg">
<path fill-rule="evenodd" clip-rule="evenodd" d="M2.67596 51.388C2.02643 50.9592 1.43784 50.4458 0.925947 49.8616C0.527367 49.3703 0.156809 48.7338 0.0384808 47.4391C-0.0798478 46.1445 0.0602782 44.1948 0.661263 41.7816C1.27043 39.3735 2.09473 37.0242 3.12437 34.7614C3.95267 33.0218 4.55365 32.4254 5.35393 31.0134C6.1542 29.6013 7.14443 27.3828 8.15645 25.4145C9.05694 23.6076 10.1046 21.8767 11.289 20.239C12.3286 18.8481 13.5018 17.5608 14.7922 16.3952C16.0961 15.1945 17.498 14.1032 18.9835 13.1322C20.5405 12.1188 22.2718 11.1918 23.3025 10.4471C24.3332 9.70249 24.6664 9.14322 24.8999 8.17918C25.1335 7.21514 25.2705 5.84323 25.6971 4.78032C26.1056 3.82096 26.7847 2.99908 27.6526 2.41347C28.5337 1.808 29.4973 1.33043 30.5143 0.995219C31.8386 0.501646 33.2228 0.183732 34.6309 0.0497182C36.187 -0.103155 37.7577 0.0976119 39.2239 0.636793C40.622 1.21267 41.8216 2.17869 42.6773 3.41768C44.4833 6.0073 45.1799 9.20226 44.6141 12.3011C44.3619 13.6266 43.8761 14.6865 44.01 16.0676C44.1439 17.4488 44.9068 19.1575 45.4611 20.9249C46.037 22.8075 46.4024 24.7473 46.551 26.7092C46.7464 29.168 46.7464 31.6382 46.551 34.0971C46.3455 36.8779 45.9282 39.9864 45.7912 42.3038C45.6542 44.6212 45.841 46.1476 45.813 48.0293C45.7604 49.9894 45.5815 51.9441 45.2774 53.8815C45.0034 55.6088 44.692 56.8262 44.0318 57.6944C43.3717 58.5627 42.3285 59.0849 40.3231 59.5298C37.7772 60.0443 35.1937 60.3542 32.5975 60.4568C29.842 60.5721 27.0817 60.4231 24.355 60.0118C21.1244 59.5732 17.9398 58.8494 14.8389 57.8489C12.1296 56.9208 9.52154 55.7241 7.05412 54.277C5.53521 53.3962 4.0692 52.4284 2.66351 51.3787L2.67596 51.388Z" fill="white"/>
<path d="M4.25717 49.2754C3.09248 48.3812 2.67368 47.9557 2.3955 47.3021C2.11732 46.6484 1.98282 45.7604 2.32825 43.8209C2.78909 41.4726 3.41844 39.1612 4.21132 36.9049C4.92664 34.91 5.53802 33.9079 6.00573 33.3004C6.47344 32.693 6.80053 32.4802 7.45777 31.1606C8.11501 29.8409 9.11157 27.4143 10.1326 25.3021C11.0276 23.3716 12.1198 21.5405 13.3913 19.8384C14.5102 18.4201 15.7746 17.125 17.1635 15.9749C18.3966 14.9243 19.6988 13.959 21.0611 13.0858C22.4673 12.1793 24.0508 11.2728 24.9587 10.6746C25.8666 10.0764 26.0959 9.78965 26.316 8.89238C26.5361 7.99512 26.747 6.49351 27.0618 5.40508C27.2806 4.49438 27.7664 3.67131 28.4558 3.04321C29.2825 2.32984 30.2636 1.82189 31.3201 1.56011C32.7576 1.1682 34.2471 1.0059 35.7343 1.0791C36.9115 1.13536 38.0524 1.50795 39.0389 2.15828C39.9034 2.7432 40.6332 3.50872 41.1787 4.40298C41.7919 5.37078 42.2471 6.4316 42.5268 7.54495C42.8214 8.68541 42.8992 9.87184 42.7561 11.0415C42.6033 12.1793 42.2028 13.24 42.001 14.0879C41.7993 14.9358 41.8023 15.571 42.0775 16.7643C42.3526 17.9575 42.9089 19.7151 43.3583 21.1797C43.8187 22.5515 44.1513 23.9636 44.3518 25.3977C44.5572 27.2534 44.6206 29.1224 44.5413 30.9879C44.4772 33.0106 44.2846 35.0734 44.095 36.8926C43.9055 38.7118 43.7129 40.2843 43.6365 41.6841C43.5729 42.9167 43.5729 44.1517 43.6365 45.3842C43.7205 46.6659 43.6919 47.9526 43.5509 49.2292C43.3405 51.1167 42.9755 52.9834 42.4596 54.8101C42.001 56.2655 41.5242 56.765 40.2158 57.2275C38.3407 57.8095 36.4029 58.1615 34.4443 58.2758C32.1023 58.4171 29.7537 58.4037 27.4134 58.2357C25.391 58.1501 23.3805 57.8798 21.4065 57.4279C19.2939 56.8803 17.219 56.1943 15.1949 55.3744C13.154 54.6147 11.1718 53.7036 9.26442 52.6486C7.52488 51.6379 5.85228 50.5142 4.25717 49.2847V49.2754Z" stroke="#381D1D" stroke-width="0.57" stroke-linecap="round" stroke-linejoin="round" stroke-dasharray="5.67 2.83"/>
<path fill-rule="evenodd" clip-rule="evenodd" d="M9.42774 38.2977C9.16036 38.8721 8.75928 39.8887 8.3374 41.026C7.91553 42.1633 7.48474 43.4213 7.14902 44.5356C6.85872 45.4273 6.62165 46.3345 6.43897 47.2525C6.35589 47.6614 6.34584 48.081 6.40926 48.4932C7.95021 49.3864 9.53672 50.2041 11.1628 50.943C11.1552 50.6776 11.1621 50.4121 11.1836 50.1475C11.2373 49.6893 11.3287 49.236 11.4569 48.7919C11.65 48.0279 11.9828 46.8045 12.4997 45.2421C13.0166 43.6798 13.7148 41.7728 14.1367 40.6785C14.3383 40.1119 14.5795 39.5592 14.8586 39.0243C14.2466 38.7888 13.7683 38.5734 13.2484 38.3522C12.3274 37.9559 11.2846 37.5337 10.4646 37.146C10.2961 37.2383 10.1352 37.3429 9.98331 37.459C9.83476 37.5797 9.70404 37.7204 9.43368 38.2977H9.42774Z" fill="#F55539"/>
<path fill-rule="evenodd" clip-rule="evenodd" d="M5.20941 38.1721C4.71933 39.6274 3.93583 41.9033 3.53003 43.5637C3.12423 45.2241 3.0899 46.2595 3.34899 46.9936C3.56749 47.6122 3.99202 48.0161 5.25311 48.8207C5.19531 48.5145 5.16915 48.2029 5.17508 47.8911C5.22215 47.4834 5.30574 47.081 5.42479 46.689C5.57463 46.0736 5.79625 45.128 6.03037 44.2529C6.26448 43.3778 6.52044 42.5732 6.88566 41.5378C7.25088 40.5025 7.73472 39.2267 8.1093 38.3676C8.33261 37.8035 8.62416 37.2704 8.97708 36.7809C9.13769 36.5704 9.3319 36.3894 9.55144 36.2456C9.01454 35.9251 8.61498 35.6654 8.30283 35.4571C8.11866 35.3353 7.96259 35.2327 7.819 35.1558C7.65261 35.063 7.46507 35.0176 7.27585 35.0243C7.06193 35.0451 6.85491 35.1131 6.66902 35.2238C6.48312 35.3344 6.32276 35.4851 6.19893 35.6654C5.88678 36.0853 5.69325 36.72 5.20629 38.1785L5.20941 38.1721Z" fill="#F55539"/>
<path fill-rule="evenodd" clip-rule="evenodd" d="M20.9272 45.959C20.5199 47.5368 20.0373 49.4354 19.724 50.6924C19.4106 51.9493 19.2759 52.5646 19.2007 53.0473C19.143 53.4248 19.1105 53.8053 19.1035 54.1865C21.2912 54.6405 23.5051 54.9746 25.734 55.1874C25.8457 55.0808 25.9406 54.9599 26.016 54.8282C26.1802 54.4607 26.298 54.0764 26.367 53.6832C26.5675 52.8825 26.9028 51.4666 27.2475 50.0948C27.5922 48.7231 27.9431 47.3925 28.1876 46.268C28.3743 45.4079 28.5144 44.5394 28.6074 43.6658C28.6485 43.2854 28.6631 42.9029 28.6513 42.5208C27.2569 42.3294 25.85 42.091 24.3427 41.7937C23.716 41.6671 23.0643 41.5317 22.4156 41.3904L22.1994 41.6583C22.1336 41.7407 22.0741 41.8084 21.8861 42.4707C21.6981 43.133 21.3534 44.3841 20.946 45.959H20.9272Z" fill="#F55539"/>
<path fill-rule="evenodd" clip-rule="evenodd" d="M29.984 46.0073C29.7444 47.1363 29.402 48.6671 29.0939 50.0717C28.7858 51.4764 28.5088 52.7579 28.266 53.5643C28.1245 54.0831 27.8976 54.5778 27.5938 55.0306C29.9469 55.2159 32.3114 55.2385 34.6681 55.098C34.877 54.8526 35.0693 54.595 35.2438 54.3268C35.4476 53.9524 35.5933 53.5524 35.6765 53.1391C35.8663 52.4265 36.1589 51.2301 36.4016 49.8753C36.6444 48.5204 36.8405 47.0014 36.9681 45.9428C37.067 45.2523 37.1262 44.5572 37.1455 43.8607C37.1472 43.5696 37.1021 43.2799 37.0116 43.0015C35.6484 42.9223 34.0829 42.8256 32.5828 42.6907C31.8234 42.6232 31.0795 42.544 30.3357 42.4531C30.4139 42.8395 30.4369 43.234 30.4042 43.6261C30.3109 44.4275 30.1706 45.2234 29.984 46.0102V46.0073Z" fill="#F55539"/>
<path fill-rule="evenodd" clip-rule="evenodd" d="M37.4134 45.7862C37.2886 46.7608 37.0908 47.8854 36.8688 48.9631C36.6468 50.0408 36.4005 51.0685 36.2028 51.9494C36.0623 52.6673 35.8817 53.3784 35.6617 54.0799C35.5142 54.4771 35.2989 54.8513 35.0234 55.1888C37.5071 54.9764 39.2103 54.6484 40.1711 54.2892C41.132 53.9299 41.3505 53.5395 41.6558 51.8089C41.961 50.0783 42.3495 47.0139 42.4362 45.2833C42.523 43.5527 42.2559 43.1622 41.8396 42.9342C41.6376 42.828 41.4152 42.757 41.184 42.7249C40.4707 42.6246 39.7514 42.5631 39.0299 42.5406L37.3267 42.4531C37.4707 42.7718 37.5472 43.1119 37.5522 43.4559C37.5685 44.2346 37.5221 45.0135 37.4134 45.7862V45.7862Z" fill="#F55539"/>
<path fill-rule="evenodd" clip-rule="evenodd" d="M29.907 32.5914C29.8453 32.6974 29.7626 32.7889 29.6643 32.8597C29.566 32.9305 29.4543 32.9792 29.3365 33.0025C29.2269 33.0318 29.1116 33.0293 29.0033 32.9953C28.895 32.9612 28.798 32.897 28.723 32.8096C28.6356 32.6939 28.5755 32.5588 28.5473 32.4151C28.519 32.2713 28.5235 32.1228 28.5604 31.9811C28.6047 31.8458 28.6863 31.7268 28.7953 31.6386C28.9043 31.5504 29.0359 31.4969 29.1739 31.4847C29.3131 31.4784 29.4515 31.5085 29.5765 31.5721C29.7014 31.6356 29.8087 31.7306 29.8886 31.8483C29.9557 31.9591 29.9931 32.0863 29.9969 32.2169C30.0007 32.3475 29.9707 32.4767 29.9101 32.5914H29.907ZM26.3703 31.3076C26.4339 31.3852 26.4756 31.4794 26.4908 31.5798C26.5059 31.6802 26.494 31.7829 26.4562 31.8768C26.3996 31.9976 26.3203 32.1056 26.2228 32.1947C26.1254 32.2837 26.0119 32.3519 25.8887 32.3954C25.7668 32.4272 25.6397 32.4318 25.5159 32.4089C25.3922 32.386 25.2746 32.3361 25.171 32.2626C25.0739 32.2024 24.99 32.1222 24.9245 32.027C24.8591 31.9317 24.8135 31.8235 24.7906 31.7092C24.773 31.5905 24.7868 31.4691 24.8305 31.3578C24.8742 31.2465 24.9463 31.1494 25.0391 31.0768C25.1493 30.9938 25.2743 30.934 25.4069 30.9009C25.5396 30.8678 25.6772 30.862 25.8121 30.8839C25.9269 30.9109 26.0353 30.9612 26.1312 31.0317C26.227 31.1023 26.3083 31.1918 26.3703 31.295V31.3076ZM12.6807 24.4111C11.9322 25.7645 11.2206 27.1906 10.6133 28.5218L11.4721 28.9898C11.8464 29.189 12.2543 29.3946 12.7359 29.6222C13.0733 29.7803 13.4414 29.9384 13.8647 30.1345L14.0549 30.2167C14.5211 30.4159 15.0426 30.6341 15.5885 30.8491L16.8615 31.3456C17.3369 31.5258 17.8216 31.706 18.3032 31.88C18.6896 32.0191 19.0761 32.155 19.4504 32.2815L19.6344 32.3448C20.2479 32.5503 20.8245 32.7337 21.4135 32.9076C22.0024 33.0815 22.6404 33.2523 23.2815 33.4136C23.8305 33.5495 24.4133 33.6823 25.0422 33.8151L25.4041 33.891C25.7691 33.9701 26.1495 34.046 26.5452 34.1219C27.0727 34.2262 27.6249 34.3306 28.1954 34.4381C28.7077 34.5298 29.2322 34.6183 29.7659 34.7068C30.2996 34.7954 30.8579 34.8839 31.4131 34.9661C31.913 35.042 32.413 35.1148 32.9099 35.1812C33.1891 35.2223 33.4682 35.257 33.7443 35.2918L34.3424 35.3677C34.8362 35.4278 35.3209 35.4816 35.8055 35.5353L37.3177 35.6871L38.7318 35.8167L40.1735 35.9369L41.6887 36.057L42.0599 36.0855C42.2194 34.8207 42.3666 33.4958 42.4525 32.0697C41.3881 31.959 40.3238 31.8452 38.6152 31.6491C36.9067 31.4531 34.551 31.1748 32.3087 30.7701C30.0665 30.3653 27.9347 29.8214 25.5299 29.189C23.1251 28.5566 20.4503 27.7598 18.2633 26.9408C16.3549 26.2085 14.489 25.3639 12.6745 24.4111H12.6807ZM22.4533 30.3527C22.4871 30.4662 22.4944 30.5864 22.4746 30.7034C22.4549 30.8204 22.4087 30.931 22.3398 31.0262C22.2692 31.1329 22.1723 31.2184 22.0592 31.274C21.946 31.3295 21.8206 31.3531 21.6957 31.3424C21.4212 31.2803 21.1819 31.1086 21.03 30.8649C20.9501 30.7748 20.8993 30.6613 20.8845 30.5401C20.8696 30.419 20.8916 30.296 20.9472 30.1882C21.1137 29.9852 21.3417 29.846 21.5944 29.793C21.6739 29.773 21.7569 29.7728 21.8364 29.7927C21.9159 29.8125 21.9896 29.8516 22.0515 29.9068C22.2262 30.0071 22.3665 30.1606 22.4533 30.3463V30.3527ZM19.1743 29.3313C19.1886 29.4435 19.1804 29.5574 19.1503 29.6662C19.1203 29.7749 19.0689 29.8762 18.9994 29.9637C18.942 30.0537 18.8613 30.1253 18.7664 30.1706C18.6716 30.2158 18.5664 30.2329 18.4627 30.2199C18.2265 30.1468 18.0253 29.9856 17.8983 29.7677C17.8286 29.6833 17.7873 29.5779 17.7807 29.4673C17.7741 29.3567 17.8024 29.2468 17.8615 29.1542C18.0335 28.9692 18.256 28.8424 18.4995 28.7906C18.564 28.771 18.6327 28.7713 18.697 28.7915C18.7614 28.8118 18.8185 28.851 18.8614 28.9044C19.0065 29.0121 19.1141 29.1651 19.1681 29.3408L19.1743 29.3313ZM16.6437 28.3416C16.6655 28.4456 16.663 28.5535 16.6363 28.6563C16.6096 28.7592 16.5596 28.854 16.4903 28.9329C16.4193 29.0198 16.3267 29.0853 16.2226 29.1226C16.1184 29.1599 16.0064 29.1676 15.8983 29.1448C15.7848 29.104 15.6806 29.0398 15.592 28.9561C15.5034 28.8723 15.4323 28.7708 15.383 28.6578C15.3342 28.5651 15.3086 28.4613 15.3086 28.3558C15.3086 28.2503 15.3342 28.1465 15.383 28.0538C15.4339 27.9695 15.502 27.8975 15.5824 27.8429C15.6629 27.7883 15.754 27.7524 15.8493 27.7376C16.0184 27.7409 16.1798 27.8111 16.3002 27.9337C16.4557 28.0292 16.5764 28.1747 16.6437 28.3479V28.3416ZM13.9997 27.4878C13.9169 27.6107 13.8063 27.7109 13.6775 27.7798C13.5487 27.8486 13.4055 27.8841 13.2604 27.8831C13.1356 27.8888 13.0118 27.8579 12.9032 27.7941C12.7947 27.7303 12.7058 27.6362 12.6469 27.5226C12.6052 27.4292 12.5894 27.3256 12.6013 27.2234C12.6132 27.1213 12.6524 27.0246 12.7144 26.944C12.8304 26.7898 12.9919 26.6788 13.1745 26.6277C13.2274 26.6148 13.2825 26.6144 13.3356 26.6264C13.3887 26.6385 13.4385 26.6627 13.4813 26.6973C13.5957 26.7484 13.6998 26.8214 13.788 26.9123C13.9199 27.0483 14.0947 27.2886 14.015 27.4973L13.9997 27.4878ZM32.4529 33.5337C32.3537 33.595 32.2403 33.6274 32.1247 33.6274C32.0091 33.6274 31.8956 33.595 31.7965 33.5337C31.7026 33.461 31.6285 33.3647 31.5812 33.2539C31.534 33.1432 31.5151 33.0217 31.5266 32.9013C31.5291 32.7542 31.5669 32.61 31.6364 32.4814C31.706 32.3529 31.8052 32.2441 31.9253 32.1645C32.0566 32.0891 32.2037 32.0479 32.354 32.0446C32.5042 32.0413 32.653 32.0759 32.7872 32.1456C32.8816 32.2342 32.9469 32.351 32.9738 32.4797C33.0008 32.6083 32.9881 32.7425 32.9375 32.8634C32.862 33.1384 32.689 33.3743 32.4529 33.5242V33.5337ZM35.2994 32.9013C35.5572 32.7465 35.8548 32.6769 36.1521 32.7021C36.4159 32.7211 36.5693 32.8286 36.603 33.0404C36.6258 33.2907 36.5711 33.542 36.4466 33.7582C36.4032 33.8516 36.3276 33.9249 36.2347 33.9641C36.1417 34.0032 36.038 34.0054 35.9436 33.9701C35.6522 33.8974 35.3891 33.7353 35.189 33.5053C35.153 33.4599 35.1272 33.407 35.1131 33.3503C35.0991 33.2935 35.0973 33.2343 35.1078 33.1768C35.1184 33.1192 35.141 33.0648 35.174 33.0172C35.2071 32.9696 35.2499 32.93 35.2994 32.9013V32.9013ZM38.3116 33.5495C38.3507 33.4584 38.4124 33.3795 38.4905 33.3207C38.5685 33.2618 38.6602 33.2252 38.7563 33.2143C38.8278 33.2068 38.8999 33.2166 38.9671 33.2429C39.0342 33.2693 39.0944 33.3115 39.1428 33.3661C39.3083 33.4772 39.4317 33.6436 39.4925 33.8373C39.4925 33.9427 39.4597 34.0453 39.399 34.1301C39.3382 34.2148 39.2528 34.2773 39.1551 34.3084C39.0423 34.3645 38.9172 34.3891 38.7923 34.3796C38.6674 34.3702 38.5471 34.3271 38.4435 34.2547C38.3592 34.1619 38.3021 34.0465 38.2787 33.9217C38.2554 33.797 38.2668 33.6679 38.3116 33.5495ZM40.5293 33.9037C40.5843 33.6716 40.7224 33.4694 40.9158 33.3377C40.979 33.2962 41.0548 33.28 41.1289 33.2923C41.2029 33.3045 41.2701 33.3443 41.3176 33.4041C41.459 33.499 41.5599 33.6461 41.5998 33.8151C41.5987 33.9068 41.5751 33.9967 41.5311 34.0763C41.4871 34.156 41.4242 34.2228 41.3482 34.2705C41.2699 34.3336 41.1785 34.3773 41.0812 34.3981C40.9839 34.419 40.8832 34.4164 40.7869 34.3906C40.6962 34.3524 40.6211 34.283 40.5742 34.1943C40.5272 34.1057 40.5114 34.003 40.5293 33.9037V33.9037Z" fill="#F55539"/>
<path fill-rule="evenodd" clip-rule="evenodd" d="M27.9971 24.7134L28.967 27.0805C29.2079 27.6731 29.2079 27.6731 29.6774 27.2683L31.5492 25.6493C32.0156 25.2445 32.0156 25.2445 32.2102 25.8112L32.9855 28.0779C33.177 28.6445 33.177 28.6446 33.6774 28.2463L35.6789 26.6563C36.1793 26.258 36.1793 26.258 36.3739 26.7826L37.1461 28.8809C37.3407 29.4055 37.3407 29.4055 37.7638 28.9813L39.5059 27.291C39.9414 26.8668 39.9414 26.8668 40.1237 27.359L40.8989 29.3213C41.0904 29.8103 41.0905 29.8103 41.319 29.5221L42.4526 28.0844C42.4526 27.4205 42.4526 26.7697 42.4372 26.1577C41.4266 26.1602 40.4175 26.0779 39.4194 25.9116C37.6866 25.6655 34.8635 25.1765 31.7994 24.422C28.7353 23.6675 25.4241 22.6572 22.8017 21.7246C20.1794 20.7921 18.2365 19.9501 16.2968 19.105C16.1701 19.2572 16.0466 19.4126 15.9199 19.568L16.4049 22.437C16.5006 23.0102 16.5006 23.0102 17.0504 22.7252L19.2435 21.5724C19.7933 21.2842 19.7933 21.2843 19.9384 21.8509L20.5191 24.1176C20.6643 24.6843 20.6643 24.6843 21.2048 24.3896L23.367 23.2045C23.9075 22.9098 23.9075 22.9098 24.0125 23.4409L24.4326 25.5748C24.5376 26.1058 24.5376 26.1058 25.0689 25.7756L27.2002 24.4576C27.7314 24.1338 27.7314 24.1338 27.9724 24.7199L27.9971 24.7134Z" fill="#F55539"/>
<path fill-rule="evenodd" clip-rule="evenodd" d="M31.5211 26.5179L29.6917 27.827C29.2336 28.1543 29.2336 28.1543 28.9985 27.6039L28.0522 25.3962C27.8171 24.8458 27.8171 24.8458 27.2656 25.1552L25.0625 26.3989C24.511 26.6964 24.511 26.6964 24.4236 26.2114L24.08 24.2239C23.9926 23.724 23.9926 23.724 23.4411 23.9978L21.253 25.0838C20.7015 25.3575 20.7015 25.3575 20.5599 24.813L19.9812 22.6499C19.8396 22.1055 19.8396 22.1055 19.3182 22.3524L17.2417 23.3164C16.7203 23.5574 16.7203 23.5574 16.6208 22.9921L16.1115 20.1655C15.5087 20.9213 14.906 21.7425 14.3032 22.6559C14.1344 22.9157 13.9656 23.1805 13.7969 23.4503C15.3219 24.1555 16.8438 24.8577 18.3929 25.4497C19.942 26.0418 21.5152 26.5239 23.4441 27.0862C25.3729 27.6485 27.6634 28.2763 29.9449 28.794C32.2263 29.3117 34.5349 29.6866 36.6084 30.005C38.6819 30.3234 40.5264 30.5465 42.3889 30.7786C42.4251 30.005 42.4431 29.2017 42.4522 28.3983L41.2798 29.7908C41.0447 30.0705 41.0447 30.0705 40.8549 29.6182L40.1014 27.8151C39.9115 27.3659 39.9115 27.3659 39.4534 27.7229L37.6301 29.1511C37.172 29.5111 37.172 29.5111 36.9912 29.0588L36.2678 27.2558C36.087 26.8065 36.087 26.8065 35.5747 27.1636L33.5283 28.5917C33.0159 28.9517 33.0159 28.9517 32.8441 28.4906L32.151 26.6577C31.9762 26.1995 31.9762 26.1995 31.5211 26.5268V26.5179Z" fill="#F55539"/>
<path fill-rule="evenodd" clip-rule="evenodd" d="M21.6987 14.8594C20.3888 15.7433 19.1647 16.7447 18.042 17.8508C19.7596 18.6107 21.4771 19.3735 23.7075 20.1662C25.9379 20.959 28.6782 21.7876 30.9693 22.4069C32.9294 22.9541 34.9179 23.3975 36.9261 23.7351C38.7681 24.0342 40.6101 24.2227 42.4521 24.4111C42.4427 23.2686 42.3525 22.128 42.182 20.9979C39.7057 20.6496 37.2487 20.1794 34.8201 19.5889C32.1257 18.8836 29.47 18.0419 26.8635 17.0671C24.6179 16.2235 23.1522 15.5414 21.6865 14.8594H21.6987ZM27.0365 18.9068C27.1407 18.9771 27.2202 19.0777 27.2637 19.1946C27.3072 19.3115 27.3126 19.4389 27.2792 19.559C27.2337 19.6682 27.1564 19.7618 27.057 19.8278C26.9576 19.8938 26.8407 19.9293 26.7209 19.9299C26.6257 19.9302 26.5328 19.9017 26.4546 19.8482C26.3764 19.7947 26.3168 19.7188 26.2839 19.6308C26.2508 19.5391 26.245 19.44 26.267 19.3452C26.289 19.2503 26.338 19.1636 26.4083 19.0953C26.4829 19.007 26.5827 18.943 26.6948 18.9115C26.8068 18.88 26.9259 18.8826 27.0365 18.9188V18.9068ZM24.5694 17.8987C24.6486 17.9109 24.7224 17.9457 24.7818 17.9989C24.8411 18.0521 24.8833 18.1213 24.9032 18.1978C24.9046 18.2877 24.8835 18.3766 24.8417 18.4564C24.7998 18.5363 24.7386 18.6047 24.6634 18.6555C24.5727 18.7341 24.4668 18.7937 24.352 18.8307C24.2373 18.8678 24.1161 18.8814 23.9958 18.8709C23.8924 18.8421 23.8004 18.7828 23.7321 18.701C23.6637 18.6192 23.6224 18.5188 23.6135 18.4132C23.609 18.3122 23.6356 18.2121 23.6897 18.1262C23.7439 18.0403 23.823 17.9725 23.9169 17.9316C24.1257 17.8459 24.3577 17.8322 24.5754 17.8927L24.5694 17.8987ZM21.4134 16.4837C21.4792 16.4884 21.5413 16.5159 21.5885 16.5613C21.6357 16.6068 21.6651 16.6673 21.6713 16.732C21.6896 16.8122 21.6903 16.8952 21.6736 16.9756C21.6569 17.0561 21.623 17.1321 21.5742 17.1987C21.5135 17.2833 21.4348 17.3539 21.3436 17.4056C21.2524 17.4572 21.151 17.4887 21.0462 17.4978C20.9517 17.497 20.86 17.4654 20.7855 17.4081C20.7109 17.3508 20.6575 17.2709 20.6335 17.1808C20.6309 17.0841 20.6529 16.9882 20.6974 16.902C20.7419 16.8158 20.8076 16.742 20.8884 16.6872C21.0344 16.5601 21.2191 16.4843 21.4134 16.4718V16.4837ZM31.4002 20.8513C31.6054 20.5764 31.9054 20.3849 32.2438 20.3128C32.3457 20.294 32.4511 20.3086 32.5438 20.3546C32.6364 20.4005 32.7112 20.4752 32.7566 20.5671C32.8191 20.6348 32.8634 20.7167 32.8857 20.8055C32.9079 20.8943 32.9074 20.9871 32.8841 21.0757C32.7826 21.317 32.59 21.51 32.347 21.6141C32.2274 21.6603 32.0978 21.6753 31.9707 21.6574C31.8436 21.6396 31.7234 21.5896 31.6217 21.5124C31.5085 21.4486 31.4232 21.3458 31.3823 21.2237C31.3414 21.1017 31.3478 20.969 31.4002 20.8513V20.8513ZM29.3852 19.4423C29.4726 19.4267 29.5628 19.4399 29.6418 19.4799C29.7208 19.5199 29.7842 19.5845 29.8222 19.6637C29.9204 19.8198 29.9561 20.0065 29.9223 20.1872C29.9023 20.3014 29.855 20.4092 29.7843 20.5018C29.7136 20.5944 29.6215 20.6691 29.5157 20.7197C29.3893 20.7734 29.2504 20.792 29.114 20.7735C28.9776 20.7551 28.849 20.7002 28.7419 20.615C28.6357 20.5193 28.5649 20.3915 28.5407 20.2517C28.5165 20.1119 28.5403 19.9681 28.6084 19.8432C28.7034 19.7277 28.8213 19.6326 28.9548 19.5637C29.0884 19.4948 29.2349 19.4535 29.3852 19.4423V19.4423ZM40.8711 22.6492C40.9455 22.5531 41.0408 22.4748 41.1501 22.4199C41.2593 22.365 41.3797 22.335 41.5022 22.3321C41.5869 22.3213 41.6729 22.3359 41.7492 22.3737C41.8254 22.4116 41.8884 22.471 41.9301 22.5445C41.9683 22.614 41.9867 22.6923 41.9835 22.7713C41.9803 22.8502 41.9556 22.9269 41.9119 22.9932C41.8005 23.1593 41.6393 23.2869 41.4507 23.3581C41.3743 23.3895 41.2895 23.3948 41.2097 23.3731C41.13 23.3514 41.0599 23.304 41.0106 23.2385C40.9327 23.1618 40.8782 23.065 40.8535 22.9591C40.8288 22.8533 40.8349 22.7428 40.8711 22.6402V22.6492ZM38.2431 22.1376C38.303 22.0725 38.3806 22.0257 38.4667 22.0029C38.5528 21.9801 38.6437 21.9822 38.7286 22.009C38.8697 22.0351 39.0003 22.1005 39.1049 22.1975C39.1647 22.2413 39.212 22.2995 39.2423 22.3666C39.2725 22.4337 39.2848 22.5073 39.2779 22.5804C39.2779 22.7748 39.1565 23.065 38.9744 23.1308C38.8497 23.1452 38.7233 23.1228 38.6115 23.0663C38.4997 23.0099 38.4074 22.9219 38.3463 22.8137C38.2739 22.718 38.2275 22.6057 38.2116 22.4873C38.1957 22.369 38.2107 22.2486 38.2553 22.1376H38.2431ZM34.9536 21.9492C35.0124 21.6841 35.1625 21.4473 35.3785 21.2791C35.4619 21.2195 35.5622 21.1874 35.6653 21.1874C35.7683 21.1874 35.8686 21.2195 35.952 21.2791C36.0265 21.3365 36.0877 21.4089 36.1316 21.4914C36.1756 21.5739 36.2012 21.6647 36.2069 21.7577C36.2301 21.8571 36.2238 21.961 36.1889 22.057C36.1539 22.1529 36.0917 22.237 36.0097 22.2992C35.7707 22.41 35.4992 22.4323 35.245 22.362C35.1953 22.3583 35.147 22.3439 35.1036 22.3198C35.0602 22.2958 35.0227 22.2626 34.9938 22.2226C34.9648 22.1827 34.9451 22.1369 34.9361 22.0886C34.9271 22.0403 34.9289 21.9907 34.9415 21.9432L34.9536 21.9492Z" fill="#F55539"/>
<path fill-rule="evenodd" clip-rule="evenodd" d="M28.5632 11.7555C27.8742 11.8524 27.1947 12.0149 26.5332 12.2411C29.0006 13.0557 31.471 13.8735 33.7726 14.6626C36.0741 15.4516 38.2006 16.2183 40.3302 16.9818C39.7004 15.9377 38.88 15.0373 37.9171 14.3335C37.8206 14.2632 37.724 14.1962 37.6154 14.1291C36.3685 13.3504 35.0282 12.7529 33.6308 12.3529C32.3975 11.9418 31.1164 11.7139 29.8241 11.6756C29.4046 11.672 28.9853 11.6987 28.5693 11.7555H28.5632Z" fill="#F55539"/>
<path fill-rule="evenodd" clip-rule="evenodd" d="M14.4006 40.0581C14.0141 41.2829 13.3746 43.4142 12.9011 45.1661C12.4276 46.9181 12.1228 48.2843 11.946 49.1393C11.8285 49.6364 11.7448 50.1438 11.6956 50.6566C11.676 50.9528 11.6696 51.2501 11.6766 51.5471C11.9487 51.7014 12.2399 51.8685 12.531 52.0035C12.5465 51.4053 12.6149 50.8106 12.7351 50.2291C12.9039 49.3515 13.225 48.04 13.5978 46.5677C13.9706 45.0954 14.3978 43.456 14.7326 42.1798C15.0673 40.9036 15.3068 39.9874 15.4945 39.4506C15.6006 39.138 15.7435 38.8447 15.9191 38.5794C15.5979 38.4476 15.3177 38.3255 15.0618 38.2065C14.8062 38.8053 14.5852 39.424 14.4006 40.0581V40.0581Z" fill="#FFC0B5"/>
<path fill-rule="evenodd" clip-rule="evenodd" d="M20.629 43.6865C20.2691 44.7375 19.8525 45.985 19.4396 47.3603C19.0268 48.7356 18.6253 50.2451 18.3942 51.2056C18.2387 51.7758 18.1311 52.3541 18.0723 52.9365C18.042 53.2889 18.042 53.5789 18.042 53.8721C18.4852 53.9594 18.9245 54.0467 19.3677 54.1278C19.3762 53.7239 19.4154 53.3208 19.4851 52.9209C19.576 52.4188 19.7427 51.767 20.1176 50.4259C20.4926 49.0849 21.0797 47.0827 21.5721 45.4111C22.0645 43.7395 22.4736 42.4141 22.7084 41.7155C22.9432 41.0169 23.0152 40.9421 23.0872 40.8548L23.3485 40.571L22.1251 40.3308C21.8651 40.6069 21.6628 40.9168 21.5266 41.2477C21.2842 41.7716 20.9774 42.6262 20.6176 43.6771L20.629 43.6865Z" fill="#FFC0B5"/>
<path fill-rule="evenodd" clip-rule="evenodd" d="M28.7514 43.5981C28.6791 44.4693 28.5702 45.3355 28.4251 46.1934C28.2425 47.3061 27.9673 48.6331 27.6946 50.01C27.4219 51.3869 27.1663 52.7902 27.0104 53.5888C26.961 53.9773 26.8743 54.3575 26.7523 54.722C26.6937 54.8533 26.62 54.9739 26.5332 55.0802L27.1224 55.1506L27.5072 55.1888C27.7449 54.7356 27.9224 54.2403 28.0331 53.7209C28.223 52.9135 28.4397 51.6335 28.6808 50.2243C28.9218 48.8151 29.1897 47.2885 29.3771 46.1552C29.5231 45.3675 29.6329 44.5707 29.7058 43.7684C29.7314 43.3758 29.7134 42.9809 29.6523 42.594C29.365 42.55 29.0801 42.503 28.7928 42.4531C28.802 42.8343 28.7906 43.2158 28.7587 43.5952L28.7514 43.5981Z" fill="#FFC0B5"/>
<path fill-rule="evenodd" clip-rule="evenodd" d="M36.9659 43.3578C36.9425 44.0911 36.8707 44.8228 36.7508 45.5498C36.596 46.6644 36.3734 48.2637 36.0639 49.6901C35.7545 51.1165 35.4148 52.3762 35.1846 53.1264C35.0838 53.5616 34.9071 53.9827 34.6601 54.3768C34.4484 54.6592 34.2152 54.9304 33.9619 55.1888C34.4865 55.161 34.9846 55.1302 35.4526 55.0931C35.7523 54.7595 35.9865 54.3897 36.147 53.9971C36.3863 53.3037 36.5828 52.601 36.7357 51.8914C36.9508 51.0208 37.2187 50.005 37.4602 48.9398C37.7018 47.8747 37.9169 46.7786 38.0527 45.7999C38.171 45.0362 38.2214 44.2664 38.2037 43.4967C38.1983 43.1567 38.1151 42.8205 37.9584 42.5056L36.8036 42.4531C36.9133 42.7462 36.968 43.0512 36.9659 43.3578V43.3578Z" fill="#FFC0B5"/>
<path fill-rule="evenodd" clip-rule="evenodd" d="M8.32281 38.1386C7.93787 38.975 7.44387 40.2139 7.06535 41.225C6.68683 42.2362 6.42379 43.0163 6.18642 43.8683C5.94904 44.7203 5.71808 45.6409 5.5641 46.2401C5.44176 46.6216 5.35586 47.0134 5.30748 47.4103C5.3014 47.7139 5.32828 48.0173 5.38768 48.3153C5.63789 48.4683 5.92338 48.6274 6.24737 48.8209C6.17888 48.373 6.18973 47.9171 6.27945 47.4727C6.47505 46.4795 6.72888 45.498 7.03969 44.533C7.41179 43.3222 7.88013 41.9522 8.32281 40.7195C8.76548 39.4868 9.21137 38.3821 9.50007 37.7548C9.78877 37.1275 9.93312 36.9746 10.0935 36.8435C10.2575 36.7174 10.4313 36.6037 10.6132 36.5034L10.4528 36.4285C10.209 36.3099 9.99086 36.1944 9.78877 36.0852C9.56316 36.2252 9.36359 36.4014 9.19854 36.6064C8.83586 37.0829 8.53626 37.6019 8.30677 38.1511L8.32281 38.1386Z" fill="#FFC0B5"/>
<path fill-rule="evenodd" clip-rule="evenodd" d="M14.3961 42.6815C13.9822 43.9001 13.4539 45.4417 12.9929 46.8401C12.5319 48.2385 12.1348 49.4785 11.9262 50.3102C11.7776 50.8613 11.693 51.4249 11.6738 51.9919C12.717 52.4063 13.8274 52.8054 14.9849 53.1618C16.1425 53.5183 17.401 53.8473 18.6494 54.1276C18.6494 53.8412 18.6494 53.5579 18.6763 53.2136C18.7285 52.6447 18.8241 52.0797 18.9623 51.5227C19.1676 50.5844 19.5276 49.1129 19.8911 47.7663C20.2545 46.4197 20.628 45.2041 20.9476 44.1774C21.2673 43.1507 21.5399 42.3159 21.7552 41.8041C21.8762 41.4808 22.0559 41.1781 22.2869 40.9084C20.3621 40.4849 18.5114 40.0309 17.1452 39.6501C16.6641 39.5161 16.2401 39.3881 15.8632 39.2693C15.6461 39.5207 15.4694 39.7987 15.3383 40.0949C15.1061 40.6037 14.8066 41.472 14.3961 42.6815V42.6815Z" fill="#F55539"/>
<path fill-rule="evenodd" clip-rule="evenodd" d="M19.4438 37.4221C18.8289 37.2203 18.1833 37.0056 17.5592 36.7814C16.9997 36.5827 16.4433 36.3777 15.8992 36.1662L15.1214 35.8458L14.6756 35.6632C14.2247 35.4731 13.78 35.2808 13.3414 35.0865C12.8557 34.8729 12.3781 34.6593 11.9088 34.4457C11.4395 34.2321 10.9763 34.0089 10.5192 33.776L9.47399 33.2602L8.75155 32.9014L8.49023 33.6607C10.1841 34.5578 11.8719 35.4517 13.9286 36.3264C15.9852 37.2011 18.3893 38.0565 20.4613 38.6909C22.4872 39.3233 24.553 39.8073 26.6436 40.1391C29.02 40.5332 32.0389 40.9016 34.5844 41.1003C37.1299 41.2989 39.1958 41.3502 41.2801 41.3918L41.3908 40.578H41.2432C40.7821 40.5492 40.3056 40.5236 39.6815 40.5043C39.4694 40.5043 39.2388 40.5043 38.9867 40.4851H38.1659C37.6525 40.4851 37.0807 40.4691 36.4535 40.4467C36.0047 40.4467 35.5313 40.4114 35.0363 40.3826L34.6951 40.3602C34.2462 40.3313 33.7728 40.2929 33.2963 40.248C32.8198 40.2032 32.2941 40.1455 31.7745 40.0846C31.255 40.0237 30.6432 39.9404 30.0653 39.8571L28.8663 39.6745L28.3191 39.5848C27.7719 39.493 27.2165 39.3926 26.6529 39.2836C26.0892 39.1747 25.5349 39.0594 24.9897 38.9376C24.3748 38.7998 23.76 38.6525 23.1236 38.4891L22.2905 38.268C21.9523 38.1783 21.6111 38.0822 21.2637 37.9828C20.6642 37.8066 20.0555 37.624 19.4438 37.4285V37.4221Z" fill="#FFC0B5"/>
<path fill-rule="evenodd" clip-rule="evenodd" d="M21.7734 14.0097C21.5911 14.133 21.4088 14.2628 21.2266 14.3927C22.7445 15.1519 24.2625 15.9112 26.5881 16.8502C29.2875 17.9353 32.0379 18.8723 34.8284 19.6574C37.3435 20.3146 39.8882 20.8381 42.4527 21.2258C42.4119 20.9561 42.3616 20.6963 42.3019 20.4366C40.5231 20.0536 38.7411 19.6674 36.5695 19.0646C34.3978 18.4619 31.8365 17.6461 29.36 16.7337C26.8835 15.8213 24.4919 14.8089 22.1002 13.7966L21.786 14.0131L21.7734 14.0097Z" fill="#FFC0B5"/>
<path fill-rule="evenodd" clip-rule="evenodd" d="M25.9762 12.861L25.4717 13.0377C27.6624 13.9087 29.8564 14.7766 32.4974 15.6104C35.1384 16.4442 38.2712 17.2439 41.3913 18.0436C41.255 17.8018 41.1081 17.5663 40.9506 17.3369C38.696 16.5961 36.4414 15.8522 34.0079 15.0866C31.5745 14.321 28.959 13.5368 26.3435 12.7371L25.9603 12.861H25.9762Z" fill="#FFC0B5"/>
<path fill-rule="evenodd" clip-rule="evenodd" d="M13.165 26.5659C13.029 26.6509 12.9088 26.8356 12.8224 27.0921C12.7762 27.2262 12.7471 27.3872 12.7382 27.5572C12.7294 27.7272 12.7411 27.8995 12.7722 28.0551C12.816 28.2441 12.8822 28.4008 12.963 28.5069C13.0438 28.613 13.136 28.6644 13.2289 28.655C13.3369 28.6567 13.4435 28.5976 13.5394 28.483C13.6353 28.3684 13.7176 28.2017 13.7792 27.9972C13.8455 27.6499 13.7084 27.25 13.6103 27.0237C13.5446 26.8724 13.4671 26.751 13.3819 26.6659C13.3501 26.6083 13.313 26.568 13.2734 26.5479C13.2339 26.5279 13.1929 26.5286 13.1535 26.5501L13.165 26.5659Z" fill="#FFC0B5"/>
<path fill-rule="evenodd" clip-rule="evenodd" d="M14.9755 28.0752C14.8986 28.2131 14.8584 28.3676 14.8584 28.5246C14.8584 28.6816 14.8986 28.8361 14.9755 28.974C15.0529 29.1422 15.1647 29.2933 15.3041 29.4179C15.4434 29.5425 15.6073 29.6381 15.7858 29.6987C15.9557 29.7326 16.1319 29.7213 16.2957 29.6658C16.4595 29.6103 16.605 29.5127 16.7168 29.3834C16.8257 29.2659 16.9044 29.1249 16.9463 28.9718C16.9883 28.8188 16.9922 28.6583 16.9579 28.5034C16.852 28.2457 16.6622 28.0291 16.4177 27.887C16.2285 27.7046 15.9746 27.6002 15.7087 27.5952C15.5588 27.6172 15.4157 27.6707 15.2891 27.7519C15.1625 27.8332 15.0555 27.9403 14.9755 28.0658V28.0752Z" fill="#FFC0B5"/>
<path fill-rule="evenodd" clip-rule="evenodd" d="M18.1039 29.2213C18.0591 29.3561 18.0377 29.5161 18.0427 29.6771C18.0477 29.8382 18.079 29.9917 18.1318 30.1146C18.2279 30.4319 18.3803 30.6667 18.5592 30.7731C18.6377 30.7922 18.7174 30.7673 18.7892 30.7014C18.8611 30.6355 18.9222 30.5312 18.9657 30.4001C19.0183 30.2727 19.0572 30.1252 19.08 29.9668C19.1028 29.8084 19.1089 29.6424 19.0981 29.4791C19.0572 29.2233 18.9757 29.0004 18.8658 28.8436C18.8333 28.7658 18.79 28.7087 18.7413 28.6792C18.6926 28.6497 18.6406 28.6493 18.5917 28.6779C18.4073 28.7533 18.2388 28.9379 18.1085 29.2074L18.1039 29.2213Z" fill="#FFC0B5"/>
<path fill-rule="evenodd" clip-rule="evenodd" d="M21.6989 29.7282C21.5318 29.8004 21.3811 29.9897 21.271 30.2658C21.2342 30.4124 21.2197 30.5796 21.2295 30.7444C21.2393 30.9092 21.273 31.0635 21.3258 31.1861C21.4261 31.5176 21.5844 31.7511 21.7658 31.8355C21.8483 31.8501 21.9313 31.818 22.0061 31.7424C22.0809 31.6669 22.1449 31.5506 22.1916 31.4054C22.2371 31.276 22.2677 31.1256 22.2807 30.9665C22.2938 30.8073 22.2889 30.6439 22.2666 30.4894C22.2093 30.2368 22.1165 30.028 22.001 29.8917C21.9601 29.8166 21.9114 29.7633 21.8588 29.7364C21.8062 29.7095 21.7514 29.7096 21.6989 29.7368V29.7282Z" fill="#FFC0B5"/>
<path fill-rule="evenodd" clip-rule="evenodd" d="M24.7271 31.0455C24.6122 31.1456 24.5229 31.2794 24.4688 31.4328C24.4146 31.5863 24.3976 31.7537 24.4194 31.9173C24.4477 32.0749 24.5042 32.2241 24.5852 32.3554C24.6663 32.4867 24.7702 32.5973 24.8904 32.6802C25.0187 32.7816 25.1643 32.8503 25.3176 32.8819C25.4709 32.9135 25.6283 32.9071 25.7793 32.8633C25.9318 32.8034 26.0724 32.7093 26.1931 32.5866C26.3137 32.4639 26.4119 32.3149 26.4821 32.1484C26.5288 32.019 26.5436 31.8773 26.5249 31.7389C26.5061 31.6005 26.4545 31.4707 26.3757 31.3637C26.2989 31.2214 26.1982 31.0981 26.0796 31.0008C25.9609 30.9035 25.8265 30.8342 25.6843 30.797C25.5174 30.7668 25.3469 30.7748 25.1826 30.8204C25.0183 30.866 24.8635 30.9485 24.7271 31.0629V31.0455Z" fill="#FFC0B5"/>
<path fill-rule="evenodd" clip-rule="evenodd" d="M29.1224 31.8411C29.0224 31.8496 28.9271 31.8864 28.8482 31.9473C28.7692 32.0081 28.7101 32.0902 28.678 32.1835C28.6513 32.2812 28.6481 32.3836 28.6685 32.4828C28.6889 32.5819 28.7325 32.675 28.7958 32.7549C28.8502 32.8151 28.9204 32.8594 28.9989 32.8829C29.0773 32.9064 29.1608 32.9081 29.2402 32.8879C29.3255 32.8718 29.4064 32.8383 29.4776 32.7894C29.5488 32.7406 29.6087 32.6775 29.6534 32.6044C29.6974 32.5253 29.7191 32.4361 29.7164 32.3461C29.7136 32.256 29.6865 32.1683 29.6379 32.0919C29.5801 32.0108 29.5023 31.9452 29.4118 31.9014C29.3213 31.8576 29.221 31.8368 29.1202 31.8411H29.1224Z" fill="#FFC0B5"/>
<path fill-rule="evenodd" clip-rule="evenodd" d="M32.1302 31.9899C32.0432 32.0972 31.9713 32.244 31.9209 32.4174C31.8704 32.5907 31.8431 32.7853 31.8412 32.9837C31.8329 33.1462 31.8466 33.31 31.8809 33.4594C31.9151 33.6088 31.9688 33.7388 32.0369 33.8368C32.1087 33.9195 32.1909 33.9632 32.2747 33.9632C32.3585 33.9632 32.4408 33.9195 32.5126 33.8368C32.6838 33.6345 32.8091 33.3164 32.8639 32.9453C32.9005 32.7823 32.9097 32.6014 32.8902 32.4278C32.8706 32.2542 32.8234 32.0967 32.7549 31.9771C32.6576 31.8832 32.5498 31.8364 32.4409 31.8409C32.332 31.8453 32.2254 31.9009 32.1302 32.0027V31.9899Z" fill="#FFC0B5"/>
<path fill-rule="evenodd" clip-rule="evenodd" d="M35.1631 33.0684C35.1283 33.0919 35.0981 33.1242 35.0748 33.1631C35.0515 33.202 35.0356 33.2466 35.0282 33.2936C35.0208 33.3407 35.0221 33.3891 35.0319 33.4355C35.0418 33.4819 35.06 33.5251 35.0853 33.5622C35.2263 33.7503 35.4116 33.8828 35.6167 33.9422C35.6832 33.9711 35.7563 33.9693 35.8218 33.9373C35.8872 33.9053 35.9404 33.8453 35.971 33.769C36.0587 33.5922 36.0972 33.3868 36.0812 33.1821C36.0574 33.0089 35.9494 32.9236 35.7636 32.9055C35.5543 32.8849 35.3446 32.9418 35.1631 33.0684V33.0684Z" fill="#FFC0B5"/>
<path fill-rule="evenodd" clip-rule="evenodd" d="M38.2457 34.2683C38.2069 34.3757 38.1971 34.4928 38.2173 34.606C38.2375 34.7192 38.2869 34.8239 38.3599 34.908C38.4497 34.9738 38.5538 35.0129 38.662 35.0214C38.7701 35.03 38.8785 35.0077 38.9762 34.9568C39.0607 34.9286 39.1348 34.8719 39.1873 34.795C39.2399 34.7181 39.2683 34.625 39.2683 34.5293C39.2157 34.3536 39.1088 34.2027 38.9655 34.1019C38.9236 34.0523 38.8714 34.014 38.8133 33.9901C38.7552 33.9662 38.6927 33.9573 38.6308 33.9642C38.5476 33.974 38.4682 34.0073 38.4006 34.0606C38.333 34.114 38.2796 34.1856 38.2457 34.2683V34.2683Z" fill="#FFC0B5"/>
<path fill-rule="evenodd" clip-rule="evenodd" d="M40.7177 34.0085C40.5273 34.133 40.3914 34.3239 40.3371 34.5431C40.3195 34.6369 40.3351 34.7338 40.3813 34.8176C40.4276 34.9014 40.5016 34.9668 40.5909 35.003C40.6856 35.0273 40.7848 35.0297 40.8807 35.0101C40.9765 34.9904 41.0665 34.9491 41.1437 34.8895C41.2185 34.8445 41.2804 34.7814 41.3237 34.7061C41.3671 34.6309 41.3904 34.546 41.3914 34.4595C41.3521 34.2998 41.2527 34.1609 41.1135 34.0713C41.0667 34.0148 41.0006 33.9772 40.9276 33.9657C40.8547 33.9541 40.7801 33.9694 40.7177 34.0085V34.0085Z" fill="#FFC0B5"/>
<path fill-rule="evenodd" clip-rule="evenodd" d="M19.801 23.2889L20.3719 25.5077C20.5146 26.0631 20.5146 26.0631 21.0704 25.7839L23.2903 24.676C23.846 24.3967 23.846 24.3967 23.9341 24.9067L24.2803 26.9343C24.3684 27.4412 24.3683 27.4412 24.9241 27.1255L27.144 25.8567C27.6997 25.5532 27.6997 25.5532 27.9366 26.1026L28.8902 28.3548C29.127 28.9163 29.127 28.9163 29.5886 28.5824L31.429 27.253C31.8875 26.9191 31.8875 26.9191 32.0637 27.3865L32.7621 29.2563C32.9352 29.7267 32.9352 29.7267 33.4515 29.3595L35.5135 27.9025C36.0297 27.5383 36.0297 27.5383 36.2119 27.9966L36.9408 29.836C37.123 30.2974 37.123 30.2974 37.5846 29.9301L39.4219 28.4731C39.8835 28.1089 39.8835 28.1089 40.0748 28.5673L40.834 30.4066C41.0253 30.868 41.0253 30.868 41.2622 30.5827L42.4526 29.1531C42.4526 28.8192 42.4526 28.4853 42.4526 28.1544L41.3381 29.5021C41.1134 29.7723 41.1134 29.7723 40.9251 29.3139L40.1628 27.4745C39.9715 27.0132 39.9715 27.0132 39.5555 27.4108L37.8427 28.9952C37.4145 29.3928 37.4145 29.3928 37.2354 28.9011L36.4761 26.9343C36.2848 26.4425 36.2848 26.4425 35.7929 26.8159L33.825 28.3062C33.333 28.6796 33.333 28.6796 33.1448 28.1484L32.3825 26.0237C32.1912 25.4925 32.1912 25.4925 31.7326 25.8719L29.8923 27.3896C29.4307 27.769 29.4307 27.769 29.1939 27.2135L28.2403 24.9947C28.0034 24.4392 28.0034 24.4392 27.4811 24.7488L25.3857 25.9842C24.8634 26.2877 24.8633 26.2877 24.7601 25.796L24.3471 23.7958C24.2438 23.298 24.2438 23.298 23.7124 23.5742L21.5866 24.6851C21.0552 24.9613 21.0552 24.9613 20.9125 24.4301L20.3415 22.3054C20.1988 21.7742 20.1988 21.7742 19.6582 22.0444L17.5021 23.1249C16.9615 23.3921 16.9615 23.3921 16.8674 22.8548L16.3906 20.1655C16.2327 20.3537 16.0869 20.5449 15.9199 20.7422L16.4331 23.6258C16.5334 24.2025 16.5334 24.2025 17.0587 23.9566L19.1511 22.9732C19.6765 22.7273 19.6765 22.7273 19.8192 23.2767L19.801 23.2889Z" fill="#E68E7E"/>
<path fill-rule="evenodd" clip-rule="evenodd" d="M20.4223 17.1956C20.3408 17.2529 20.2746 17.3302 20.2297 17.4204C20.1848 17.5107 20.1626 17.6109 20.1652 17.7121C20.1894 17.8065 20.2433 17.8901 20.3185 17.9501C20.3937 18.01 20.4861 18.043 20.5815 18.044C20.6871 18.0344 20.7895 18.0014 20.8814 17.9474C20.9734 17.8933 21.0527 17.8195 21.114 17.7309C21.1632 17.6612 21.1974 17.5817 21.2142 17.4975C21.2311 17.4133 21.2303 17.3264 21.212 17.2425C21.2056 17.1747 21.176 17.1114 21.1284 17.0639C21.0808 17.0163 21.0182 16.9875 20.9518 16.9827C20.7558 16.9958 20.5696 17.0751 20.4223 17.2081V17.1956Z" fill="#E68E7E"/>
<path fill-rule="evenodd" clip-rule="evenodd" d="M23.5986 18.1156C23.5214 18.1584 23.4563 18.2295 23.4118 18.3196C23.3672 18.4096 23.3454 18.5144 23.349 18.6203C23.3564 18.731 23.3904 18.8362 23.4466 18.9219C23.5028 19.0076 23.5785 19.0697 23.6635 19.0999C23.7625 19.111 23.8622 19.0966 23.9566 19.0578C24.0509 19.019 24.1381 18.9566 24.2127 18.8742C24.2745 18.821 24.3249 18.7493 24.3593 18.6656C24.3937 18.5819 24.4111 18.4888 24.4099 18.3946C24.3936 18.3144 24.3589 18.2419 24.3101 18.1861C24.2612 18.1304 24.2005 18.0939 24.1353 18.0812C23.9563 18.0178 23.7654 18.0321 23.5937 18.1219L23.5986 18.1156Z" fill="#E68E7E"/>
<path fill-rule="evenodd" clip-rule="evenodd" d="M26.6897 19.3245C26.6185 19.3934 26.5688 19.4808 26.5465 19.5765C26.5241 19.6722 26.5301 19.7721 26.5636 19.8646C26.597 19.9533 26.6574 20.0299 26.7367 20.0838C26.8159 20.1378 26.9101 20.1666 27.0066 20.1663C27.128 20.1657 27.2466 20.1298 27.3473 20.0633C27.4481 19.9967 27.5264 19.9023 27.5726 19.7921C27.6065 19.671 27.601 19.5426 27.5568 19.4247C27.5127 19.3068 27.4322 19.2053 27.3265 19.1344C27.2144 19.0979 27.0937 19.0953 26.9801 19.1271C26.8665 19.1588 26.7653 19.2234 26.6897 19.3124V19.3245Z" fill="#E68E7E"/>
<path fill-rule="evenodd" clip-rule="evenodd" d="M29.3009 19.1151C29.1872 19.1327 29.0765 19.198 28.9754 19.3068C28.8744 19.4156 28.7853 19.5657 28.7134 19.7479C28.6619 19.9452 28.6439 20.1721 28.6622 20.3928C28.6805 20.6135 28.7341 20.8154 28.8144 20.9664C28.8954 21.101 28.9927 21.1875 29.0958 21.2167C29.199 21.2458 29.304 21.2164 29.3996 21.1317C29.4796 21.0518 29.5493 20.934 29.6028 20.7878C29.6562 20.6416 29.692 20.4713 29.7072 20.291C29.7327 20.0057 29.7057 19.7111 29.6314 19.4646C29.6027 19.3396 29.5548 19.2376 29.495 19.1744C29.4353 19.1113 29.367 19.0904 29.3009 19.1151V19.1151Z" fill="#E68E7E"/>
<path fill-rule="evenodd" clip-rule="evenodd" d="M31.9965 20.178C31.532 20.2906 31.1202 20.5895 30.8385 21.0185C30.7665 21.2022 30.7578 21.4093 30.8139 21.5998C30.8701 21.7903 30.9871 21.9508 31.1425 22.0504C31.2821 22.1709 31.4472 22.2489 31.6217 22.2767C31.7961 22.3046 31.9741 22.2813 32.1381 22.2091C32.4717 22.0466 32.7361 21.7453 32.8754 21.3687C32.9074 21.2305 32.9081 21.0856 32.8776 20.947C32.847 20.8084 32.7862 20.6805 32.7005 20.5749C32.6381 20.4314 32.5354 20.3149 32.4083 20.2432C32.2811 20.1715 32.1364 20.1486 31.9965 20.178V20.178Z" fill="#E68E7E"/>
<path fill-rule="evenodd" clip-rule="evenodd" d="M35.382 21.3022C35.2043 21.4491 35.0808 21.656 35.0325 21.8875C35.0222 21.929 35.0206 21.9724 35.0281 22.0146C35.0355 22.0568 35.0517 22.0967 35.0755 22.1317C35.0993 22.1666 35.1302 22.1956 35.1659 22.2166C35.2016 22.2376 35.2413 22.2502 35.2821 22.2534C35.4913 22.3149 35.7146 22.2954 35.9112 22.1985C35.9787 22.1442 36.0298 22.0708 36.0586 21.9869C36.0874 21.9031 36.0925 21.8124 36.0735 21.7255C36.0688 21.6443 36.0477 21.565 36.0115 21.4929C35.9754 21.4208 35.925 21.3576 35.8638 21.3074C35.7952 21.2553 35.7126 21.2273 35.6279 21.2273C35.5431 21.2273 35.4606 21.2553 35.392 21.3074L35.382 21.3022Z" fill="#E68E7E"/>
<path fill-rule="evenodd" clip-rule="evenodd" d="M38.2562 22.4269C38.2122 22.5295 38.1974 22.6408 38.2131 22.7502C38.2289 22.8597 38.2747 22.9635 38.3462 23.052C38.4065 23.1521 38.4977 23.2334 38.6082 23.2856C38.7186 23.3378 38.8434 23.3586 38.9667 23.3452C39.1586 23.2844 39.2665 23.0161 39.2665 22.8363C39.2733 22.7687 39.2612 22.7006 39.2313 22.6386C39.2013 22.5766 39.1546 22.5228 39.0956 22.4822C38.9923 22.3926 38.8633 22.3321 38.7239 22.308C38.64 22.2832 38.5502 22.2813 38.4651 22.3023C38.3801 22.3234 38.3034 22.3667 38.2443 22.4269H38.2562Z" fill="#E68E7E"/>
<path fill-rule="evenodd" clip-rule="evenodd" d="M40.3602 22.6005C40.3266 22.7034 40.321 22.8144 40.3439 22.9206C40.3668 23.0268 40.4172 23.1239 40.4895 23.2009C40.5351 23.2666 40.6001 23.3142 40.674 23.336C40.7479 23.3577 40.8265 23.3524 40.8973 23.3209C41.0721 23.2495 41.2215 23.1214 41.3247 22.9547C41.3652 22.8882 41.3881 22.8113 41.3911 22.732C41.394 22.6528 41.3769 22.5742 41.3416 22.5044C41.3029 22.4307 41.2446 22.3711 41.1739 22.3331C41.1032 22.2951 41.0235 22.2805 40.9451 22.2913C40.8315 22.2942 40.72 22.3243 40.6187 22.3794C40.5175 22.4345 40.4291 22.5131 40.3602 22.6095V22.6005Z" fill="#E68E7E"/>
<path fill-rule="evenodd" clip-rule="evenodd" d="M9.01815 33.9619C8.83915 34.4828 8.66317 34.9974 8.49023 35.512C8.65174 35.5998 8.80871 35.696 8.96051 35.8003C9.26391 36.0019 9.64922 36.2654 10.1741 36.563C10.3652 36.6715 10.5716 36.7862 10.8021 36.904L10.9538 36.9784C11.7912 37.397 12.8561 37.8527 13.7967 38.2805C14.3276 38.5192 14.8161 38.7517 15.4411 39.006C15.7263 39.1207 16.0479 39.2385 16.3968 39.3656C16.7457 39.4927 17.1189 39.6167 17.5528 39.7531C18.7846 40.1406 20.4532 40.6026 22.1887 41.0335L23.1687 41.2722C23.7967 41.421 24.4247 41.5636 25.0346 41.697C26.4939 42.007 27.8562 42.2612 29.2063 42.4627C29.5643 42.5154 29.9193 42.565 30.2773 42.6115C31.0024 42.7076 31.7275 42.7913 32.4678 42.8626C33.9302 43.0052 35.4563 43.1075 36.7852 43.1913L37.7136 43.244L39.2033 43.3308C39.8343 43.3531 40.4635 43.4142 41.0874 43.5137C41.1885 42.8254 41.2896 42.1372 41.3908 41.4489C39.3428 41.4086 37.2979 41.3652 34.7827 41.1668C32.2676 40.9684 29.2912 40.6119 26.946 40.2367C24.8827 39.9157 22.8439 39.4474 20.8446 38.8355C18.7997 38.2154 16.4211 37.3939 14.3974 36.5475C12.3737 35.7011 10.702 34.8362 9.03028 33.9681L9.01815 33.9619Z" fill="#AB3E2B"/>
<path fill-rule="evenodd" clip-rule="evenodd" d="M29.8389 28.736C27.5173 28.2201 25.2018 27.5783 23.2498 27.0145C21.2978 26.4507 19.6971 25.9648 18.13 25.365C16.563 24.7652 15.0173 24.0604 13.4715 23.3496C13.2241 23.7485 12.9797 24.1594 12.7354 24.5762C14.5423 25.4799 16.4006 26.281 18.3011 26.9755C20.4791 27.7523 23.1459 28.4901 25.5378 29.1079C27.9297 29.7257 30.0527 30.2295 32.2888 30.6074C34.5249 30.9853 36.8709 31.2552 38.5694 31.4412C40.2678 31.6271 41.3186 31.7411 42.3909 31.8401C42.4061 31.5761 42.4245 31.3092 42.4367 31.0363C42.4367 30.9313 42.4367 30.8264 42.452 30.7184C40.5763 30.4845 38.6977 30.2505 36.5929 29.9386C34.4882 29.6267 32.1605 29.2338 29.8389 28.718V28.736Z" fill="#E68E7E"/>
<path fill-rule="evenodd" clip-rule="evenodd" d="M31.0239 22.374C28.7515 21.7852 26.0307 21.0002 23.8216 20.2437C21.6125 19.4871 19.9089 18.7647 18.2024 18.0422C17.7901 18.4347 17.3838 18.8443 16.9805 19.2766C18.8706 20.019 20.7607 20.7613 23.319 21.5776C25.8772 22.3939 29.0977 23.2841 32.0863 23.9468C35.075 24.6095 37.8229 25.039 39.5113 25.2552C40.4838 25.4013 41.4671 25.4736 42.4518 25.4713C42.4518 25.1386 42.4518 24.8172 42.4308 24.5128C42.4308 24.4304 42.4308 24.3507 42.4308 24.2711C40.6039 24.0919 38.777 23.9127 36.9501 23.6283C34.9544 23.3105 32.9781 22.8918 31.0299 22.374H31.0239Z" fill="#CF391F"/>
<path fill-rule="evenodd" clip-rule="evenodd" d="M25.6939 12.74C24.5075 13.1671 23.3669 13.6977 22.2871 14.3248C24.6744 15.2037 27.0617 16.106 29.5337 16.9086C32.0056 17.7113 34.5529 18.432 36.73 18.9593C38.9071 19.4866 40.6764 19.8381 42.4519 20.1662C42.2145 19.2244 41.842 18.3169 41.3446 17.4682C38.2797 16.7124 35.218 15.9566 32.6079 15.1685C29.9979 14.3805 27.8459 13.5602 25.7065 12.7371L25.6939 12.74Z" fill="#CF391F"/>
<path fill-rule="evenodd" clip-rule="evenodd" d="M8.9825 31.8406C8.81089 32.1033 8.6483 32.366 8.49023 32.6077L9.55154 32.9019L8.9825 31.8511V31.8406Z" fill="#CC6E5E"/>
<path fill-rule="evenodd" clip-rule="evenodd" d="M10.6133 30.7791L10.7695 33.3237C11.0685 33.5276 11.3702 33.7407 11.6746 33.963L11.3782 31.3388L10.6133 30.7791V30.7791Z" fill="#CC6E5E"/>
<path fill-rule="evenodd" clip-rule="evenodd" d="M12.7354 32.9014L13.2503 35.5256C13.7763 35.7163 14.3122 35.9029 14.858 36.0853L14.5505 33.5668C13.9356 33.3522 13.3281 33.1283 12.7354 32.9045V32.9014Z" fill="#CC6E5E"/>
<path fill-rule="evenodd" clip-rule="evenodd" d="M15.9199 33.9619L16.0595 36.5195C16.7095 36.7348 17.3742 36.9436 18.0425 37.1458L17.6569 34.5361C17.062 34.3534 16.4855 34.1642 15.9199 33.9717V33.9619Z" fill="#CC6E5E"/>
<path fill-rule="evenodd" clip-rule="evenodd" d="M19.1035 35.0237L19.4103 37.6415C20.0237 37.8411 20.6372 38.0276 21.2261 38.2076L20.763 35.5374C20.2078 35.3738 19.6556 35.2102 19.1158 35.0269L19.1035 35.0237Z" fill="#CC6E5E"/>
<path fill-rule="evenodd" clip-rule="evenodd" d="M22.2912 36.0852L23.0185 38.8063C23.8548 38.9749 24.671 39.1369 25.471 39.2691L24.7114 36.5547C23.9033 36.4092 23.0952 36.2505 22.2871 36.0852H22.2912Z" fill="#CC6E5E"/>
<path fill-rule="evenodd" clip-rule="evenodd" d="M25.4717 36.0887L26.379 38.9406C27.149 39.0594 27.9079 39.1689 28.6556 39.2691L27.5047 36.4242C26.988 36.3403 26.463 36.2565 25.9253 36.1621L25.4717 36.0852V36.0887Z" fill="#CC6E5E"/>
<path fill-rule="evenodd" clip-rule="evenodd" d="M28.6553 37.1604L29.8657 40.0736C30.533 40.1675 31.1932 40.2541 31.8392 40.3299L30.7353 37.507C30.0715 37.4059 29.3758 37.2868 28.6553 37.146V37.1604Z" fill="#CC6E5E"/>
<path fill-rule="evenodd" clip-rule="evenodd" d="M32.9004 38.2145L33.6096 40.218C34.0017 40.255 34.3812 40.2868 34.7458 40.3106L35.023 40.3292L34.0691 38.36C33.702 38.3151 33.3199 38.2648 32.9004 38.2065V38.2145Z" fill="#CC6E5E"/>
<path fill-rule="evenodd" clip-rule="evenodd" d="M35.0234 38.2065L36.138 40.2936C36.881 40.3144 37.5869 40.3232 38.2074 40.3292L36.8327 38.3279C36.2792 38.3013 35.681 38.2658 35.0234 38.2214V38.2065Z" fill="#CC6E5E"/>
<path fill-rule="evenodd" clip-rule="evenodd" d="M38.207 38.2065L39.5571 40.2587C40.2791 40.2771 40.8495 40.3016 41.391 40.3292L40.0625 38.2219C39.4849 38.2219 38.8785 38.2219 38.207 38.2219V38.2065Z" fill="#CC6E5E"/>
<path fill-rule="evenodd" clip-rule="evenodd" d="M42.0246 36.0852L40.3301 38.2078C40.9633 38.2078 41.5541 38.2078 42.1485 38.1885C42.1838 37.9505 42.2227 37.7093 42.2581 37.4681C42.3253 37.0179 42.389 36.5676 42.4527 36.1142L42.0246 36.0852V36.0852Z" fill="#CC6E5E"/>
<path fill-rule="evenodd" clip-rule="evenodd" d="M38.8217 36.0852L37.1465 38.1473C37.723 38.1761 38.2452 38.1963 38.7288 38.2078L40.3304 36.2092H40.3112L38.8345 36.1025L38.8217 36.0852Z" fill="#CC6E5E"/>
<path fill-rule="evenodd" clip-rule="evenodd" d="M35.7018 36.1047L33.9619 38.052C34.5331 38.116 35.0545 38.1661 35.5378 38.2078L37.1458 36.2187L35.7018 36.0852V36.1047Z" fill="#CC6E5E"/>
<path fill-rule="evenodd" clip-rule="evenodd" d="M32.6181 35.0237L30.7773 37.8896C31.3008 38.0068 31.8013 38.1114 32.2787 38.2076L33.9613 35.2789L33.4004 35.1785L32.6238 35.0362L32.6181 35.0237Z" fill="#CC6E5E"/>
<path fill-rule="evenodd" clip-rule="evenodd" d="M29.394 35.0237L27.5938 36.882C28.0361 36.9768 28.4656 37.0659 28.8797 37.1463L30.7777 35.2592C30.3113 35.1845 29.851 35.106 29.3966 35.0237H29.394Z" fill="#CC6E5E"/>
<path fill-rule="evenodd" clip-rule="evenodd" d="M26.151 33.9677L24.4102 35.7611C24.8742 35.8766 25.3356 35.9835 25.7862 36.0845L27.5941 34.2507C27.0952 34.1583 26.6123 34.063 26.151 33.9619V33.9677Z" fill="#CC6E5E"/>
<path fill-rule="evenodd" clip-rule="evenodd" d="M23.0405 33.9619L21.2266 35.6286C21.6824 35.7856 22.1431 35.9305 22.6013 36.0845L24.4105 34.3454C23.9212 34.2186 23.4677 34.0917 23.0405 33.9619V33.9619Z" fill="#CC6E5E"/>
<path fill-rule="evenodd" clip-rule="evenodd" d="M19.3461 32.9072L16.9805 34.4456C17.6286 34.648 18.3091 34.8447 18.9961 35.024L21.2257 33.4161C20.6035 33.2571 19.9878 33.0893 19.3461 32.9014V32.9072Z" fill="#CC6E5E"/>
<path fill-rule="evenodd" clip-rule="evenodd" d="M16.8076 31.8406L14.8584 33.4036C15.2393 33.5943 15.6255 33.7788 16.0222 33.9632L18.0423 32.3814C17.6299 32.2094 17.2148 32.0313 16.8076 31.8531V31.8406Z" fill="#CC6E5E"/>
<path fill-rule="evenodd" clip-rule="evenodd" d="M14.2696 30.7791L11.6738 32.1776C12.1897 32.4223 12.7056 32.6636 13.2346 32.9017L15.9191 31.4469C15.3276 31.2155 14.769 30.9873 14.2762 30.7857L14.2696 30.7791Z" fill="#CC6E5E"/>
<path fill-rule="evenodd" clip-rule="evenodd" d="M11.3971 29.7163L10.0066 30.0251C9.84741 30.2157 9.68171 30.4013 9.55176 30.5853L10.325 30.7776L12.7357 30.0555C12.2256 29.9323 11.7935 29.8226 11.3971 29.718V29.7163Z" fill="#CC6E5E"/>
<path fill-rule="evenodd" clip-rule="evenodd" d="M10.2858 28.6567L9.95347 29.1313C9.8146 29.3301 9.6807 29.5257 9.55176 29.718L11.6744 29.1313L10.2858 28.6567V28.6567Z" fill="#EDA79A"/>
<path fill-rule="evenodd" clip-rule="evenodd" d="M12.629 29.7163L10.6133 31.2032L11.651 31.8389L13.7972 30.3694L13.6288 30.2791C13.2539 30.0776 12.9279 29.89 12.629 29.7163V29.7163Z" fill="#EDA79A"/>
<path fill-rule="evenodd" clip-rule="evenodd" d="M15.5506 30.792L12.7354 32.2135C13.2867 32.4461 13.8518 32.6787 14.4238 32.9017L16.9806 31.2863L15.5506 30.7791V30.792Z" fill="#EDA79A"/>
<path fill-rule="evenodd" clip-rule="evenodd" d="M17.9552 31.8406L15.9199 33.4224C16.3275 33.6068 16.743 33.7881 17.1718 33.9632L19.1038 32.3001L18.945 32.2376C18.6222 32.1125 18.2887 31.9781 17.9552 31.8406V31.8406Z" fill="#EDA79A"/>
<path fill-rule="evenodd" clip-rule="evenodd" d="M21.3554 32.9014L19.1035 34.5589C19.6796 34.7199 20.2687 34.8749 20.8612 35.024L23.3487 33.3784C22.6516 33.2263 22.0002 33.0802 21.3554 32.9014V32.9014Z" fill="#EDA79A"/>
<path fill-rule="evenodd" clip-rule="evenodd" d="M14.8584 32.9014L15.0415 35.5684L15.3615 35.756L15.9197 36.0853L15.8359 33.5039C15.5027 33.3096 15.1739 33.1154 14.8584 32.9145V32.9014Z" fill="#EDA79A"/>
<path fill-rule="evenodd" clip-rule="evenodd" d="M11.6738 31.8526L12.1855 34.4249C12.7155 34.6248 13.2525 34.8246 13.7964 35.0245L13.3159 32.4971C12.7593 32.2813 12.2166 32.0624 11.6738 31.8406V31.8526Z" fill="#EDA79A"/>
<path fill-rule="evenodd" clip-rule="evenodd" d="M16.9922 33.9619L17.3009 36.5091C17.8889 36.7256 18.5033 36.9389 19.1031 37.1458L18.8091 34.5987C18.1858 34.3949 17.5714 34.1784 16.9805 33.9619H16.9922Z" fill="#EDA79A"/>
<path fill-rule="evenodd" clip-rule="evenodd" d="M21.2266 35.0237L21.6505 37.6911C21.9678 37.7925 22.2794 37.8905 22.5883 37.982L23.3492 38.2076L22.8438 35.5173C22.3047 35.3604 21.7628 35.1904 21.2266 35.0237V35.0237Z" fill="#EDA79A"/>
<path fill-rule="evenodd" clip-rule="evenodd" d="M24.8635 33.9619L22.2871 35.6647C22.9669 35.8125 23.6467 35.9604 24.3265 36.0845L26.5323 34.2487C26.0939 34.1777 25.6724 34.1068 25.268 34.0329L24.8669 33.9619H24.8635Z" fill="#EDA79A"/>
<path fill-rule="evenodd" clip-rule="evenodd" d="M24.4102 36.0852L24.9576 38.899C25.4933 39.0315 26.0184 39.1549 26.5328 39.2691L25.9038 36.4691C25.4147 36.3491 24.9139 36.2223 24.4102 36.0852V36.0852Z" fill="#EDA79A"/>
<path fill-rule="evenodd" clip-rule="evenodd" d="M27.8883 35.0237L25.4717 36.865L25.8589 36.9288C26.3179 37.0071 26.766 37.0767 27.2071 37.1463L29.7169 35.2702C29.093 35.189 28.4799 35.1078 27.8811 35.0237H27.8883Z" fill="#EDA79A"/>
<path fill-rule="evenodd" clip-rule="evenodd" d="M27.5938 37.146L28.2845 39.0679L28.7332 39.134L29.7164 39.2686L28.8567 37.3632C28.4483 37.2971 28.0274 37.2239 27.5963 37.146H27.5938Z" fill="#EDA79A"/>
<path fill-rule="evenodd" clip-rule="evenodd" d="M31.2107 35.0237L28.6553 36.8659C29.3478 36.964 30.0403 37.0566 30.6844 37.1463L32.9005 35.2256C32.3396 35.1667 31.7751 35.1022 31.2107 35.0349V35.0237Z" fill="#EDA79A"/>
<path fill-rule="evenodd" clip-rule="evenodd" d="M30.7773 37.146L31.5964 40.135C32.0423 40.2063 32.4768 40.2713 32.9 40.3299L32.152 37.4365C31.7149 37.3486 31.2566 37.253 30.7773 37.146Z" fill="#EDA79A"/>
<path fill-rule="evenodd" clip-rule="evenodd" d="M34.6542 35.0321L32.9004 37.9646C33.3921 38.0568 33.8628 38.1364 34.3035 38.2076L36.0843 35.2457C35.6106 35.1745 35.1369 35.1033 34.6542 35.0237V35.0321Z" fill="#EDA79A"/>
<path fill-rule="evenodd" clip-rule="evenodd" d="M33.9619 38.2065L34.9238 40.2734C35.3292 40.2985 35.7169 40.318 36.0845 40.3292L35.3291 38.3627C34.9137 38.3209 34.4655 38.2707 33.9745 38.2065H33.9619Z" fill="#EDA79A"/>
<path fill-rule="evenodd" clip-rule="evenodd" d="M36.7541 36.0852L35.0234 38.1061C35.5814 38.1485 36.0889 38.1824 36.5587 38.2078L38.2074 36.2011L36.7541 36.0852V36.0852Z" fill="#EDA79A"/>
<path fill-rule="evenodd" clip-rule="evenodd" d="M37.1489 38.2188L38.066 40.3107H38.1149H38.7189C38.9194 40.3107 39.1004 40.3107 39.2691 40.3292L38.3545 38.2711C37.9853 38.2711 37.5867 38.2373 37.1465 38.2065L37.1489 38.2188Z" fill="#EDA79A"/>
<path fill-rule="evenodd" clip-rule="evenodd" d="M39.8102 36.1004L38.207 38.1997C38.8034 38.1997 39.3421 38.2179 39.8551 38.1997L41.391 36.2003L39.807 36.0852L39.8102 36.1004Z" fill="#EDA79A"/>
<path fill-rule="evenodd" clip-rule="evenodd" d="M40.3301 38.2429L41.087 40.3292H41.1857C41.2543 39.6277 41.3228 38.9201 41.3914 38.2065C41.0458 38.2065 40.7024 38.2247 40.3342 38.2247L40.3301 38.2429Z" fill="#EDA79A"/>
<path fill-rule="evenodd" clip-rule="evenodd" d="M9.55176 32.0748L9.83872 33.4211L10.588 33.9461L10.6131 33.963L10.4354 31.1627L9.89338 30.7791C9.77267 31.2132 9.66563 31.6407 9.55176 32.0614V32.0748Z" fill="#EDA79A"/>
<path fill-rule="evenodd" clip-rule="evenodd" d="M29.026 5.86953C28.8073 6.0225 28.637 6.23587 28.5356 6.48403C28.4221 6.8398 28.3606 7.21033 28.3529 7.58399C28.3591 7.85741 28.3418 8.13087 28.3011 8.40127C28.2606 8.56118 28.1698 8.70351 28.0422 8.80685C27.9802 8.85034 27.9112 8.88257 27.8382 8.90209C27.7742 8.93282 27.7011 8.98812 27.6524 9.18783C27.6034 9.43759 27.585 9.69246 27.5976 9.94674C27.6068 10.0839 27.6464 10.2172 27.7133 10.337C27.7606 10.4405 27.7885 10.5519 27.7955 10.6657C27.7919 10.7958 27.8042 10.9258 27.8321 11.0528C27.9092 11.2326 27.9998 11.4062 28.1031 11.5721C28.225 11.7933 28.362 12.0914 28.5021 12.3863C28.9222 12.3317 29.3455 12.306 29.7691 12.3095C31.074 12.3463 32.3675 12.5655 33.6126 12.9609C35.0275 13.3427 36.3849 13.9152 37.6481 14.663C37.7516 14.7276 37.8491 14.7921 37.9526 14.8597C38.1346 14.7619 38.3087 14.6499 38.4734 14.5248C38.6105 14.4142 38.6897 14.3005 38.8054 14.2175C38.9211 14.1346 39.0704 14.1008 39.2135 14.027C39.4149 13.919 39.5802 13.7533 39.6886 13.5508C39.8835 13.2435 40.1363 12.7519 40.3465 12.4201C40.5566 12.0883 40.7272 11.9162 40.8124 11.8056C40.8694 11.7183 40.9135 11.623 40.9434 11.5229C40.989 11.4419 41.0465 11.3684 41.114 11.3048C41.2035 11.2278 41.2743 11.1311 41.3211 11.0221C41.3861 10.8638 41.4062 10.6904 41.3789 10.5213C41.3296 10.3658 41.2654 10.2156 41.1871 10.0727C41.1185 9.90031 41.0923 9.71371 41.1109 9.52889C41.1322 9.32917 41.2023 9.1141 41.2175 8.98506C41.2327 8.85601 41.1962 8.81607 41.1322 8.6563C41.0683 8.49653 40.98 8.21386 40.9008 8.00493C40.849 7.84148 40.764 7.69076 40.651 7.56249C40.5505 7.46724 40.4226 7.41193 40.3465 7.29825C40.2885 7.1781 40.2494 7.04956 40.2307 6.91726C40.2051 6.83528 40.1577 6.76195 40.0937 6.70525C40.0102 6.59213 39.9142 6.48904 39.8074 6.398C39.6978 6.32031 39.5816 6.25245 39.4602 6.19522C39.3841 6.15528 39.3841 6.13991 39.3962 6.05081C39.4222 5.9024 39.4086 5.74968 39.3566 5.60837C39.262 5.38269 39.107 5.18801 38.9089 5.0461C38.714 4.91399 38.5008 4.88019 38.3821 4.80337C38.2633 4.72656 38.2389 4.60673 38.1506 4.51148C38.0425 4.41107 37.9135 4.33651 37.7729 4.29334C37.6328 4.24725 37.5049 4.22267 37.3892 4.18273C37.2738 4.15134 37.174 4.07802 37.109 3.97687C37.045 3.86933 37.0207 3.70957 36.9049 3.61739C36.7548 3.53236 36.5867 3.48494 36.4146 3.47913C36.2715 3.46791 36.1298 3.44322 35.9913 3.40539C35.8603 3.36545 35.7232 3.30092 35.5801 3.25176C35.4472 3.20033 35.3049 3.17832 35.1628 3.18723C35.0581 3.21313 34.9561 3.24914 34.8583 3.29477C34.776 3.32114 34.6877 3.32114 34.6055 3.29477C34.5257 3.25623 34.4381 3.23728 34.3497 3.23947C34.2025 3.26171 34.0577 3.29772 33.9172 3.34701C33.7731 3.39124 33.6253 3.42209 33.4756 3.43918C33.3055 3.44513 33.1362 3.46673 32.97 3.5037C32.7206 3.59087 32.4855 3.71515 32.2726 3.87241C31.9284 4.0967 31.4107 4.45003 31.0543 4.62824C30.8508 4.73096 30.6331 4.80242 30.4087 4.84024C30.3522 4.85399 30.2995 4.88048 30.2547 4.91774C30.2099 4.955 30.174 5.00204 30.1498 5.05532C30.1159 5.17894 30.0567 5.29405 29.9762 5.3933C29.842 5.47117 29.6973 5.52912 29.5467 5.56536C29.3634 5.6443 29.1913 5.74763 29.0351 5.87261L29.026 5.86953Z" fill="#A3331F"/>
<path fill-rule="evenodd" clip-rule="evenodd" d="M34.7189 7.50935C34.5474 7.56894 34.3637 7.60565 34.1758 7.6179C34.0207 7.6179 33.9027 7.55419 33.7413 7.56126C33.6462 7.56741 33.5539 7.58914 33.4709 7.62499C33.3878 7.66084 33.316 7.70994 33.2603 7.76892C33.1548 7.88927 33.1548 8.05446 32.9499 8.14649C32.6637 8.22562 32.3607 8.26402 32.0561 8.25976C31.8141 8.25976 31.7675 8.25976 31.9506 8.29752C32.1337 8.33528 32.5496 8.39191 32.7979 8.42967C32.9494 8.45978 33.1042 8.47952 33.2603 8.48866C33.4072 8.4994 33.5555 8.48571 33.6948 8.44854C33.8158 8.40607 33.8686 8.33056 33.9369 8.3046C34.0051 8.27864 34.0858 8.3046 34.1758 8.3046C34.2804 8.29112 34.3806 8.26226 34.4707 8.21964C34.59 8.17987 34.6961 8.12019 34.781 8.04502C34.8586 7.96479 34.8865 7.85624 34.9517 7.82556C35.0169 7.79488 35.1193 7.83972 35.1938 7.88219C35.2547 7.92464 35.3282 7.95539 35.4079 7.97187C35.5235 7.98011 35.6399 7.98011 35.7555 7.97187C35.8734 7.97187 35.9759 7.97187 36.0379 7.91287C36.0755 7.87212 36.091 7.8219 36.0812 7.77268C36.0714 7.72346 36.037 7.67901 35.9852 7.64858C35.8001 7.53026 35.5735 7.45562 35.3334 7.43383C35.1204 7.42105 34.9066 7.45031 34.7127 7.51878L34.7189 7.50935Z" fill="#8C2715"/>
<path fill-rule="evenodd" clip-rule="evenodd" d="M39.0806 7.6921C38.9958 7.8767 38.7877 8.08487 38.6952 8.24199C38.6027 8.3991 38.6952 8.4973 38.8301 8.52872C38.9983 8.55991 39.1718 8.52481 39.3156 8.43052C39.4043 8.34411 39.3349 8.21449 39.3657 8.13201C39.3779 8.11007 39.3947 8.09117 39.415 8.07671C39.4352 8.06226 39.4584 8.05262 39.4828 8.04847C39.5072 8.04433 39.5322 8.0458 39.5559 8.05278C39.5797 8.05976 39.6016 8.07206 39.6201 8.0888C39.7273 8.19988 39.7928 8.34588 39.8051 8.50122C39.8301 8.65399 39.7985 8.81077 39.7164 8.94113C39.6317 9.08253 39.4891 9.23179 39.5045 9.31034C39.5199 9.3889 39.701 9.41246 39.8205 9.35354C39.94 9.29463 40.0132 9.16894 40.0594 9.22C40.1057 9.27106 40.1326 9.50674 40.1789 9.54601C40.2251 9.58529 40.2907 9.42817 40.3176 9.24357C40.3457 9.06053 40.3244 8.87318 40.256 8.70154C40.1905 8.56014 40.071 8.48944 40.0209 8.34411C39.9874 8.16521 39.9668 7.98404 39.9592 7.80208C39.9438 7.72048 39.9114 7.6432 39.8642 7.57544C39.817 7.50769 39.7561 7.45103 39.6856 7.4093C39.5237 7.29146 39.2694 7.17756 39.0806 7.01652C38.9193 6.86871 38.7722 6.70563 38.6412 6.52948C38.5179 6.39593 38.3984 6.32916 38.3175 6.392C38.2734 6.45062 38.2415 6.51774 38.2236 6.5893C38.2057 6.66086 38.2023 6.73538 38.2135 6.80835C38.2168 6.88133 38.2419 6.95156 38.2852 7.00976C38.3285 7.06796 38.3882 7.1114 38.4562 7.13435C38.6319 7.16487 38.8047 7.21087 38.9727 7.27182C39.0406 7.31615 39.0884 7.38612 39.1058 7.46639C39.1231 7.54665 39.1085 7.63065 39.0651 7.69995L39.0806 7.6921Z" fill="#8C2715"/>
<path fill-rule="evenodd" clip-rule="evenodd" d="M31.2957 9.39597C31.2257 9.39597 31.1648 9.4211 31.0399 9.49648C30.8966 9.5886 30.7457 9.66743 30.589 9.73206C30.458 9.77289 30.391 9.73206 30.3544 9.68494C30.3278 9.63433 30.3074 9.58053 30.2935 9.52475C30.2783 9.48392 30.2509 9.46821 30.1808 9.46193C30.1107 9.45564 29.998 9.46193 29.8762 9.44623C29.7589 9.44329 29.6456 9.40143 29.5533 9.32687C29.453 9.22134 29.3707 9.09925 29.3096 8.96565C29.2412 8.87662 29.2065 8.76498 29.2121 8.65155C29.2365 8.55732 29.337 8.46624 29.3888 8.37829C29.4135 8.34646 29.4292 8.30815 29.434 8.26765C29.4389 8.22716 29.4327 8.18607 29.4162 8.14899C29.3827 8.0956 29.3096 8.08303 29.273 8.02021C29.2575 7.9819 29.2495 7.9408 29.2495 7.89929C29.2495 7.85778 29.2575 7.81667 29.273 7.77836C29.3004 7.70926 29.3522 7.68413 29.3888 7.57419C29.4313 7.41696 29.4468 7.25323 29.4345 7.09048C29.4345 6.91144 29.3857 6.74497 29.3857 6.58792C29.3942 6.40704 29.4312 6.22881 29.4954 6.06023C29.5842 5.82737 29.6425 5.58338 29.669 5.33466V5.3064L29.538 5.35037C29.3546 5.43107 29.1825 5.5367 29.0263 5.66446C28.8076 5.82084 28.6373 6.03897 28.5358 6.29266C28.4223 6.65637 28.3607 7.03516 28.353 7.41715C28.3593 7.69667 28.342 7.97622 28.3013 8.25265C28.2608 8.41612 28.1699 8.56161 28.0423 8.66725C27.9803 8.71171 27.9112 8.74466 27.8382 8.76463C27.7742 8.79603 27.7011 8.85258 27.6524 9.05674C27.6034 9.31207 27.585 9.57262 27.5976 9.83257C27.6068 9.97278 27.6464 10.1091 27.7133 10.2315C27.7607 10.3373 27.7885 10.4513 27.7956 10.5676C27.7919 10.7005 27.8042 10.8335 27.8321 10.9633C27.9093 11.1471 27.9999 11.3246 28.1032 11.4942C28.2251 11.7203 28.3622 12.025 28.5023 12.3265C28.9225 12.2706 29.3459 12.2444 29.7696 12.248C31.0747 12.2857 32.3685 12.5098 33.614 12.9139C35.0283 13.3055 36.3849 13.8918 37.6472 14.6571C37.7508 14.7231 37.8483 14.7891 37.9519 14.8582C38.1339 14.7582 38.308 14.6437 38.4728 14.5158C38.6099 14.4027 38.6891 14.2865 38.8048 14.2017C38.9206 14.1169 39.0699 14.0823 39.213 14.0069C39.4145 13.8965 39.5798 13.7271 39.6882 13.5201C39.8832 13.206 40.136 12.7034 40.3462 12.3642C40.5564 12.025 40.727 11.8491 40.8123 11.736C40.8693 11.6467 40.9134 11.5494 40.9433 11.447C40.9889 11.3642 41.0464 11.2891 41.1139 11.224C41.2034 11.1453 41.2743 11.0464 41.321 10.9351C41.3861 10.7733 41.4062 10.596 41.3789 10.4231C41.3296 10.2641 41.2653 10.1105 41.187 9.96449C41.1184 9.78824 41.0923 9.59748 41.1109 9.40853C41.1322 9.20437 41.2022 8.9845 41.2175 8.85258C41.2269 8.75225 41.2033 8.65157 41.1505 8.56675C41.1473 8.69509 41.1361 8.8231 41.117 8.94995C41.0787 9.09374 41.0329 9.23529 40.9799 9.37398C40.9799 9.46821 41.0438 9.57814 41.0316 9.68808C41.0195 9.79801 40.9189 9.91423 40.8885 10.043C40.8756 10.1716 40.8859 10.3015 40.9189 10.4262C40.9496 10.5303 40.9409 10.6426 40.8946 10.7403C40.8458 10.8157 40.7544 10.8628 40.7087 10.9319C40.6773 11.0088 40.6588 11.0905 40.6539 11.1738C40.6301 11.266 40.5721 11.345 40.4925 11.3936C40.3745 11.4515 40.2605 11.5176 40.1513 11.5915C40.0447 11.6826 39.9715 11.8114 39.8832 11.8774C39.7949 11.9433 39.6852 11.9433 39.5786 12.0093C39.4812 12.0913 39.396 12.1876 39.3257 12.2951C39.2557 12.3831 39.2008 12.4333 39.143 12.4302C39.0851 12.427 39.015 12.3705 38.9084 12.3768C38.7853 12.3948 38.6677 12.441 38.5642 12.5118C38.4728 12.5715 38.4393 12.6186 38.3144 12.6092C38.1503 12.5904 37.9933 12.53 37.8574 12.4333C37.7842 12.3574 37.7362 12.2596 37.7203 12.1538C37.6929 12.0941 37.6381 12.1035 37.568 12.0595C37.4757 12.0004 37.4042 11.9123 37.3639 11.8082C37.3182 11.674 37.3108 11.529 37.3426 11.3905C37.3892 11.2594 37.4159 11.1217 37.4218 10.9822C37.4066 10.8691 37.306 10.7874 37.2055 10.6681C37.1032 10.5507 37.0218 10.4157 36.9649 10.2692C36.9435 10.1829 36.9322 10.0943 36.9314 10.0053C36.9314 9.9425 36.8704 9.90167 36.773 9.84827C36.6501 9.79188 36.5401 9.70948 36.45 9.60642C36.3808 9.46725 36.3375 9.31598 36.3221 9.16039C36.3087 9.02143 36.2509 8.89102 36.1576 8.78976C36.0753 8.7395 35.9687 8.78976 35.8713 8.78976C35.7676 8.76475 35.6658 8.73221 35.5666 8.69239C35.499 8.67322 35.4284 8.66807 35.3589 8.67723C35.2893 8.6864 35.2222 8.70969 35.1615 8.74578C35.0579 8.82745 35.0244 8.99393 34.9726 9.09758C34.9208 9.20123 34.8568 9.24206 34.6863 9.35513C34.4939 9.49392 34.2901 9.61481 34.077 9.71636C34.0515 9.73351 34.0226 9.74465 33.9925 9.74899C33.9623 9.75333 33.9316 9.75076 33.9025 9.74146C33.8734 9.73216 33.8467 9.71637 33.8242 9.6952C33.8017 9.67403 33.784 9.648 33.7724 9.61898C33.7114 9.52475 33.6597 9.39282 33.5561 9.37398C33.4525 9.35513 33.2972 9.45565 33.157 9.5059C33.0366 9.55268 32.9062 9.56568 32.7793 9.5436C32.6679 9.52323 32.5633 9.47467 32.4746 9.40226C32.3772 9.33001 32.2766 9.23264 32.17 9.24206C32.0634 9.25149 31.9598 9.35827 31.8654 9.42424C31.775 9.48365 31.667 9.50813 31.5608 9.49334C31.4663 9.47449 31.3871 9.4211 31.3171 9.40853L31.2957 9.39597Z" fill="#8C2715"/>
<path fill-rule="evenodd" clip-rule="evenodd" d="M3.31292 44.5754C3.1273 45.6841 3.14728 46.4454 3.33576 47.0202C3.52424 47.5951 3.92404 48.0278 5.07775 48.8207C5.02487 48.519 5.00094 48.2119 5.00636 47.9047C5.04943 47.5029 5.1259 47.1064 5.23482 46.7202C5.25481 46.6222 5.28051 46.5149 5.30621 46.4043C5.02064 46.1958 4.7779 45.9968 4.55801 45.8136C4.10955 45.4452 3.69276 45.0317 3.31292 44.5786V44.5754Z" fill="#E0482D"/>
<path fill-rule="evenodd" clip-rule="evenodd" d="M6.65086 46.6987C6.55851 47.0259 6.48771 47.3161 6.44153 47.5536C6.35544 47.9292 6.34503 48.3147 6.41075 48.6934C8.0074 49.514 9.65126 50.2651 11.3361 50.944C11.3282 50.7002 11.3354 50.4562 11.3576 50.2131C11.4133 49.7922 11.508 49.3758 11.6408 48.9678C11.6408 48.9282 11.6624 48.8886 11.6747 48.8464C10.9975 48.6063 10.3479 48.3662 9.74151 48.1208C8.67912 47.6984 7.64615 47.2235 6.64778 46.6987H6.65086Z" fill="#E0482D"/>
<path fill-rule="evenodd" clip-rule="evenodd" d="M11.9317 50.5867C11.7798 51.0976 11.6934 51.6202 11.6738 52.1459C12.7396 52.53 13.874 52.9 15.0566 53.2305C16.2393 53.5609 17.525 53.866 18.8004 54.1258C18.8004 53.8603 18.8004 53.5977 18.8279 53.2785C18.8765 52.7739 18.9684 52.2727 19.103 51.7787C18.3994 51.6149 17.69 51.4407 16.975 51.2561C15.3592 50.8409 13.7056 50.3721 12.1448 49.8806C12.0623 50.1405 11.9901 50.3777 11.9317 50.5867V50.5867Z" fill="#E0482D"/>
<path fill-rule="evenodd" clip-rule="evenodd" d="M19.4582 52.0049C19.3264 52.5388 19.2479 52.8873 19.2008 53.1778C19.143 53.5325 19.1105 53.89 19.1035 54.2483C21.2948 54.6749 23.5123 54.9889 25.7449 55.1888C25.8567 55.0887 25.9518 54.975 26.0273 54.8513C26.1918 54.506 26.3097 54.1448 26.3789 53.7753C26.4228 53.6065 26.4762 53.4074 26.5327 53.1833C25.6727 53.0975 24.8033 52.9897 23.9402 52.8596C22.4462 52.6383 20.9616 52.3507 19.4582 52.0049V52.0049Z" fill="#C73920"/>
<path fill-rule="evenodd" clip-rule="evenodd" d="M28.2093 53.6671C28.0797 54.1529 27.872 54.6162 27.5938 55.0401C29.7484 55.2137 31.9133 55.2348 34.0711 55.1033C34.2624 54.8734 34.4385 54.6322 34.5983 54.381C34.7848 54.0305 34.9182 53.6559 34.9944 53.2689C34.9944 53.2304 35.0144 53.192 35.0229 53.1508C33.9343 53.2195 32.7745 53.2497 31.5691 53.2277C30.5318 53.2112 29.4574 53.159 28.3689 53.0657C28.3147 53.2854 28.2606 53.4858 28.2093 53.6643V53.6671Z" fill="#D64228"/>
<path fill-rule="evenodd" clip-rule="evenodd" d="M35.9389 52.8546C35.8606 53.2462 35.7617 53.6335 35.6427 54.0151C35.4996 54.4356 35.2907 54.8316 35.0234 55.1888C37.4333 54.964 39.0858 54.6168 40.0181 54.2366C40.8797 53.8861 41.1254 53.5059 41.3913 52.0049C40.2335 52.2562 39.0353 52.4876 37.689 52.6661C37.1337 52.7389 36.5514 52.8017 35.949 52.8546H35.9389Z" fill="#E0482D"/>
<path fill-rule="evenodd" clip-rule="evenodd" d="M5.53608 45.9825C5.42705 46.402 5.3505 46.8327 5.30739 47.2691C5.30197 47.6029 5.32592 47.9364 5.37886 48.2641C5.60183 48.4322 5.85625 48.6072 6.14497 48.8199C6.08394 48.3275 6.09361 47.8262 6.17356 47.3377C6.21644 47.029 6.28219 46.6515 6.36795 46.2261C6.08208 46.0203 5.84196 45.8247 5.60755 45.636C5.58182 45.7595 5.55609 45.8762 5.53608 45.9791V45.9825Z" fill="#F5B4A9"/>
<path fill-rule="evenodd" clip-rule="evenodd" d="M11.9086 48.9764C11.8073 49.5018 11.7351 50.0382 11.6926 50.5802C11.6757 50.8933 11.6702 51.2075 11.6762 51.5215C11.911 51.6846 12.1622 51.8613 12.4135 52.004C12.4268 51.3716 12.4858 50.7429 12.5896 50.1283C12.6295 49.8768 12.6788 49.5914 12.7351 49.2788L11.9345 48.8201C11.9345 48.871 11.918 48.9186 11.911 48.9662L11.9086 48.9764Z" fill="#F5B4A9"/>
<path fill-rule="evenodd" clip-rule="evenodd" d="M18.4454 52.0049C18.2659 52.4115 18.1434 52.824 18.0787 53.2394C18.042 53.5021 18.042 53.7183 18.042 53.9369C18.5784 54.002 19.1102 54.0671 19.6466 54.1275C19.6568 53.8264 19.7043 53.5259 19.7887 53.2278C19.8574 52.9953 19.9721 52.6907 20.1646 52.242L18.4454 52.0095V52.0049Z" fill="#EBA99E"/>
<path fill-rule="evenodd" clip-rule="evenodd" d="M27.1618 53.6598C27.0952 54.0321 26.9797 54.3962 26.8175 54.7448C26.7415 54.8696 26.6457 54.9841 26.5332 55.0851L27.2976 55.152L27.7967 55.1883C28.1051 54.7577 28.3353 54.2871 28.4789 53.7937C28.5358 53.6124 28.5958 53.4087 28.6558 53.1856C28.2168 53.1521 27.7714 53.1103 27.326 53.0657C27.2692 53.2916 27.2155 53.4924 27.1712 53.6626L27.1618 53.6598Z" fill="#EDAB9F"/>
<path fill-rule="evenodd" clip-rule="evenodd" d="M34.993 53.2644C34.9079 53.6704 34.759 54.0632 34.5506 54.4308C34.3722 54.6943 34.1755 54.9472 33.9619 55.1883C34.4043 55.1624 34.8243 55.1336 35.2189 55.099C35.4716 54.7878 35.6692 54.4429 35.8045 54.0766C35.917 53.7442 36.0105 53.4068 36.0845 53.0657C35.7377 53.0945 35.3844 53.1204 35.0248 53.1406C35.0248 53.1838 35.0025 53.2241 34.993 53.2644V53.2644Z" fill="#F5B4A9"/>
</svg>
