<svg width="58" height="40" viewBox="0 0 58 40" fill="none" xmlns="http://www.w3.org/2000/svg">
<path d="M55.8924 9.96989C55.3713 9.22852 54.6091 8.69611 53.7392 8.46578C52.3111 8.08325 51.1454 6.7834 49.7944 5.27742C48.5462 3.88658 47.1309 2.30634 45.2182 1.19218C43.9024 0.420828 42.4105 0.00992795 40.8897 3.19763e-05C39.7916 -0.00312705 38.7052 0.227815 37.7012 0.67781C35.682 1.58214 34.5127 3.1531 33.571 4.41581C33.3746 4.6795 33.191 4.92647 33.0093 5.15858C31.528 7.01551 30.7405 7.09907 30.735 7.09907L30.7074 7.08979C30.1971 6.86696 29.606 6.41758 28.9929 5.94221C28.1614 5.30343 27.2179 4.57922 26.0302 4.04071C23.7687 3.01011 21.5127 2.48832 19.3283 2.48832C16.9806 2.47393 14.6753 3.12076 12.6704 4.35639C10.5502 5.65624 8.7256 7.27362 6.95971 8.83902L6.67701 9.0897C5.08632 10.4619 3.61937 11.9744 2.2935 13.6095C1.90608 13.9896 1.56359 14.414 1.27289 14.874C0.896271 15.4539 0.683057 16.1267 0.656211 16.82C0.629366 17.5134 0.78989 18.201 1.12052 18.8089C1.4623 19.436 1.96456 19.9586 2.57463 20.3219C3.1847 20.6852 3.88013 20.8758 4.58805 20.8738C4.93409 20.8737 5.27858 20.8269 5.61236 20.7345C6.12266 21.2916 6.78717 22.6156 7.10473 23.2432C7.2883 23.6016 7.46085 23.9489 7.63156 24.2664C8.85037 26.5614 10.3341 28.7019 12.0518 30.6431C15.6735 34.6838 20.4737 37.2909 25.9329 38.1841C27.3727 38.4188 28.8287 38.5361 30.287 38.535C38.731 38.535 46.3306 34.7915 50.6351 28.5206C52.0394 26.478 53.0215 24.0993 53.7557 21.0446C53.8328 20.7178 53.9081 20.3873 53.9834 20.0567C54.4349 18.0624 54.8626 16.1795 55.9053 14.9613C56.249 14.5607 56.5058 14.0916 56.6591 13.5843C56.8125 13.077 56.859 12.5428 56.7956 12.0162C56.7018 11.2586 56.3874 10.5463 55.8924 9.96989Z" fill="white"/>
<path d="M30.3248 39.1882C30.1796 39.1882 30.0362 39.1882 29.8928 39.1882C29.8271 39.1882 29.7642 39.1621 29.7177 39.1156C29.6713 39.0691 29.6452 39.006 29.6452 38.9402C29.6452 38.8745 29.6713 38.8114 29.7177 38.7649C29.7642 38.7184 29.8271 38.6923 29.8928 38.6923C30.3043 38.6923 30.714 38.6923 31.1199 38.6923C31.1524 38.6913 31.1848 38.6967 31.2152 38.7083C31.2456 38.7199 31.2735 38.7373 31.2972 38.7596C31.3209 38.782 31.3399 38.8088 31.3533 38.8385C31.3666 38.8682 31.374 38.9002 31.375 38.9328C31.376 38.9653 31.3705 38.9978 31.359 39.0282C31.3474 39.0587 31.33 39.0866 31.3077 39.1103C31.2854 39.134 31.2587 39.1531 31.229 39.1665C31.1993 39.1798 31.1673 39.1872 31.1348 39.1882C30.8704 39.1882 30.5985 39.1882 30.3248 39.1882ZM28.6602 39.1397H28.6453C28.2319 39.1155 27.813 39.0819 27.3996 39.039C27.3342 39.0321 27.2742 38.9995 27.2328 38.9482C27.1914 38.897 27.172 38.8314 27.1789 38.7659C27.1858 38.7004 27.2185 38.6403 27.2696 38.5989C27.3208 38.5575 27.3863 38.5381 27.4517 38.545C27.8558 38.5879 28.2673 38.6214 28.6751 38.6457C28.7407 38.6476 28.8029 38.6757 28.848 38.7236C28.893 38.7715 28.9172 38.8353 28.9153 38.9011C28.9133 38.9668 28.8853 39.0291 28.8375 39.0742C28.7896 39.1193 28.7259 39.1436 28.6602 39.1416V39.1397ZM32.3712 39.1155C32.309 39.1126 32.2501 39.0864 32.2064 39.0421C32.1626 38.9977 32.1371 38.9385 32.135 38.8762C32.1329 38.8139 32.1543 38.7531 32.195 38.7059C32.2356 38.6587 32.2925 38.6285 32.3544 38.6214C32.7603 38.5916 33.1718 38.5543 33.5759 38.5077C33.6413 38.5004 33.7069 38.5191 33.7585 38.56C33.8101 38.6008 33.8435 38.6604 33.8515 38.7258C33.8588 38.7911 33.84 38.8566 33.7991 38.908C33.7583 38.9593 33.6988 38.9924 33.6336 38.9999C33.2202 39.0484 32.8013 39.0857 32.3898 39.1155H32.3712ZM26.1967 38.8806H26.1632L25.869 38.834C25.5562 38.7836 25.2396 38.7277 24.938 38.6662C24.8736 38.6533 24.8168 38.6154 24.7803 38.5606C24.7439 38.5059 24.7306 38.4389 24.7434 38.3744C24.7563 38.3099 24.7942 38.2531 24.8488 38.2166C24.9035 38.18 24.9704 38.1667 25.0348 38.1796C25.3383 38.2392 25.6474 38.2952 25.9565 38.3455L26.2433 38.3903C26.3039 38.4008 26.3584 38.4336 26.3962 38.4822C26.434 38.5309 26.4524 38.5918 26.4477 38.6533C26.4431 38.7147 26.4158 38.7722 26.3711 38.8146C26.3264 38.857 26.2675 38.8811 26.206 38.8824L26.1967 38.8806ZM34.8309 38.834C34.7668 38.8368 34.7041 38.8145 34.6561 38.772C34.608 38.7294 34.5783 38.6699 34.5733 38.6058C34.5682 38.5418 34.5881 38.4783 34.6289 38.4287C34.6697 38.3791 34.7281 38.3473 34.7918 38.3399C35.1958 38.2765 35.6036 38.202 36.0002 38.1199C36.0637 38.106 36.13 38.1178 36.1848 38.1528C36.2396 38.1877 36.2783 38.2429 36.2926 38.3064C36.306 38.3698 36.294 38.436 36.2591 38.4908C36.2243 38.5455 36.1695 38.5844 36.1064 38.5991C35.7023 38.683 35.289 38.7594 34.8774 38.8246L34.8309 38.834ZM23.7705 38.3959C23.7501 38.3986 23.7294 38.3986 23.7091 38.3959C23.305 38.2952 22.9009 38.1833 22.5062 38.0621C22.4732 38.0545 22.4421 38.0401 22.4148 38.0199C22.3876 37.9997 22.3648 37.9741 22.3478 37.9447C22.3308 37.9153 22.32 37.8828 22.3162 37.849C22.3123 37.8153 22.3153 37.7811 22.3252 37.7487C22.335 37.7162 22.3514 37.6861 22.3733 37.6602C22.3953 37.6343 22.4223 37.6132 22.4527 37.5982C22.4831 37.5832 22.5163 37.5746 22.5502 37.5729C22.584 37.5713 22.6179 37.5766 22.6496 37.5886C23.0369 37.7061 23.4335 37.816 23.8301 37.9149C23.8886 37.9296 23.9398 37.9652 23.974 38.015C24.0081 38.0648 24.0229 38.1254 24.0156 38.1854C24.0083 38.2454 23.9794 38.3007 23.9342 38.3408C23.8891 38.3809 23.8309 38.4031 23.7705 38.4033V38.3959ZM37.2552 38.3325C37.2004 38.3324 37.1472 38.3141 37.104 38.2803C37.0608 38.2465 37.0302 38.1993 37.0169 38.146C37.0092 38.114 37.0079 38.0807 37.013 38.0481C37.0182 38.0155 37.0298 37.9842 37.0471 37.9562C37.0644 37.9281 37.0871 37.9037 37.1139 37.8845C37.1407 37.8652 37.171 37.8515 37.2031 37.844C37.5997 37.7433 37.9982 37.6315 38.3855 37.514C38.4172 37.502 38.451 37.4967 38.4849 37.4984C38.5188 37.5 38.5519 37.5086 38.5823 37.5236C38.6128 37.5386 38.6398 37.5597 38.6617 37.5856C38.6837 37.6115 38.7 37.6416 38.7099 37.6741C38.7197 37.7066 38.7228 37.7407 38.7189 37.7745C38.715 37.8082 38.7042 37.8408 38.6873 37.8701C38.6703 37.8995 38.6475 37.9251 38.6202 37.9453C38.593 37.9655 38.5619 37.9799 38.5289 37.9876C38.1341 38.1087 37.73 38.2225 37.3241 38.325C37.3016 38.3303 37.2783 38.3322 37.2552 38.3306V38.3325ZM21.402 37.6762C21.3734 37.6767 21.3449 37.6716 21.3182 37.6613C20.9272 37.5215 20.5343 37.3686 20.1526 37.2083C20.0925 37.1824 20.0449 37.1339 20.0202 37.0732C19.9955 37.0125 19.9955 36.9445 20.0204 36.8839C20.0328 36.8538 20.0511 36.8264 20.0742 36.8034C20.0972 36.7804 20.1246 36.7622 20.1548 36.7499C20.1849 36.7376 20.2172 36.7314 20.2498 36.7316C20.2823 36.7319 20.3145 36.7387 20.3444 36.7515C20.7168 36.9081 21.1022 37.0573 21.4858 37.1952C21.5405 37.2151 21.5864 37.2536 21.6156 37.304C21.6447 37.3544 21.6552 37.4135 21.6452 37.4709C21.6352 37.5282 21.6054 37.5803 21.5609 37.6178C21.5164 37.6553 21.4602 37.676 21.402 37.6762ZM39.6275 37.611C39.5683 37.6121 39.5108 37.592 39.4652 37.5543C39.4196 37.5166 39.3889 37.4638 39.3788 37.4055C39.3687 37.3472 39.3797 37.2871 39.41 37.2363C39.4402 37.1854 39.4876 37.147 39.5437 37.1281C39.9291 36.992 40.3145 36.8429 40.6888 36.6881C40.7486 36.6678 40.814 36.6711 40.8714 36.6973C40.9289 36.7236 40.9742 36.7709 40.9979 36.8295C41.0217 36.8881 41.0223 36.9536 40.9994 37.0126C40.9765 37.0716 40.932 37.1196 40.875 37.1467C40.4914 37.3052 40.0985 37.4562 39.7056 37.5961C39.6804 37.6045 39.654 37.6089 39.6275 37.6091V37.611ZM19.1192 36.7198C19.0824 36.7201 19.0461 36.7118 19.0131 36.6956C18.6406 36.5092 18.2682 36.3227 17.8958 36.1232C17.865 36.1091 17.8373 36.0887 17.8147 36.0634C17.792 36.038 17.7748 36.0083 17.7641 35.9761C17.7533 35.9438 17.7494 35.9097 17.7524 35.8758C17.7554 35.8419 17.7653 35.809 17.7816 35.7792C17.7979 35.7493 17.8201 35.7231 17.8469 35.7022C17.8737 35.6813 17.9045 35.6662 17.9374 35.6577C17.9703 35.6492 18.0045 35.6476 18.0381 35.653C18.0716 35.6583 18.1037 35.6705 18.1323 35.6888C18.4898 35.8753 18.8548 36.0617 19.2235 36.2481C19.2742 36.2724 19.3152 36.3133 19.3397 36.3641C19.3642 36.4148 19.3706 36.4724 19.3581 36.5273C19.3455 36.5822 19.3146 36.6312 19.2705 36.6662C19.2264 36.7012 19.1717 36.7201 19.1155 36.7198H19.1192ZM41.9177 36.6658C41.8616 36.6656 41.8072 36.6464 41.7634 36.6112C41.7197 36.5761 41.6891 36.5271 41.6768 36.4723C41.6645 36.4175 41.6711 36.3601 41.6956 36.3096C41.7201 36.259 41.761 36.2183 41.8116 36.1941C42.184 36.0188 42.5564 35.8343 42.9083 35.6441C42.9371 35.6259 42.9693 35.6138 43.003 35.6087C43.0366 35.6035 43.071 35.6053 43.1039 35.614C43.1368 35.6227 43.1675 35.6381 43.1942 35.6593C43.2209 35.6804 43.243 35.7068 43.259 35.7369C43.2751 35.767 43.2848 35.8 43.2875 35.834C43.2902 35.868 43.2858 35.9021 43.2748 35.9344C43.2637 35.9666 43.2461 35.9962 43.2231 36.0213C43.2001 36.0464 43.1722 36.0665 43.1411 36.0804C42.7687 36.2761 42.3963 36.4644 42.0239 36.6397C41.9909 36.6561 41.9545 36.6644 41.9177 36.6639V36.6658ZM16.9481 35.5322C16.902 35.5326 16.8567 35.5197 16.8177 35.495C16.464 35.2768 16.112 35.0457 15.7694 34.8107C15.7427 34.7921 15.7198 34.7684 15.7022 34.741C15.6846 34.7135 15.6725 34.6829 15.6667 34.6508C15.655 34.5859 15.6695 34.5191 15.707 34.4649C15.7446 34.4108 15.8021 34.3738 15.8668 34.3621C15.9316 34.3503 15.9984 34.3649 16.0524 34.4025C16.3857 34.6336 16.7321 34.8592 17.0784 35.0736C17.1342 35.1083 17.174 35.1636 17.189 35.2276C17.204 35.2916 17.193 35.3589 17.1585 35.4148C17.1358 35.4501 17.1047 35.4792 17.068 35.4993C17.0312 35.5195 16.99 35.5302 16.9481 35.5304V35.5322ZM44.1037 35.4987C44.0495 35.4989 43.9967 35.4813 43.9535 35.4485C43.9102 35.4158 43.8789 35.3697 43.8643 35.3174C43.8497 35.2652 43.8527 35.2095 43.8727 35.1591C43.8927 35.1086 43.9288 35.0662 43.9753 35.0382C44.3253 34.8294 44.6735 34.6075 45.0105 34.3801C45.0375 34.3615 45.068 34.3484 45.1001 34.3417C45.1321 34.335 45.1652 34.3347 45.1974 34.3408C45.2296 34.347 45.2603 34.3595 45.2876 34.3776C45.315 34.3958 45.3384 34.4191 45.3567 34.4464C45.3749 34.4737 45.3876 34.5043 45.3939 34.5365C45.4002 34.5687 45.4001 34.6019 45.3935 34.634C45.387 34.6662 45.3741 34.6967 45.3557 34.7238C45.3372 34.751 45.3136 34.7742 45.2861 34.7921C44.9435 35.0233 44.5879 35.2489 44.2304 35.4633C44.192 35.4859 44.1482 35.4975 44.1037 35.4968V35.4987ZM14.911 34.1228C14.8563 34.1228 14.8032 34.1044 14.7602 34.0706C14.4325 33.8171 14.1067 33.5505 13.7901 33.2783C13.7625 33.258 13.7394 33.2322 13.7223 33.2025C13.7052 33.1728 13.6944 33.1399 13.6906 33.1058C13.6868 33.0717 13.6901 33.0372 13.7003 33.0045C13.7105 32.9718 13.7274 32.9415 13.7499 32.9157C13.7724 32.8898 13.7999 32.8689 13.8309 32.8543C13.8618 32.8396 13.8955 32.8315 13.9297 32.8306C13.964 32.8296 13.998 32.8358 14.0297 32.8486C14.0615 32.8615 14.0902 32.8808 14.1141 32.9054C14.4232 33.172 14.7416 33.4311 15.0637 33.6791C15.1053 33.7106 15.1358 33.7545 15.151 33.8044C15.1663 33.8544 15.1653 33.9078 15.1484 33.9572C15.1315 34.0066 15.0994 34.0494 15.0568 34.0794C15.0142 34.1095 14.9632 34.1253 14.911 34.1247V34.1228ZM46.1575 34.1135C46.1057 34.1134 46.0552 34.097 46.0132 34.0666C45.9712 34.0362 45.9398 33.9934 45.9233 33.9442C45.9069 33.895 45.9062 33.8419 45.9215 33.7923C45.9368 33.7428 45.9673 33.6993 46.0086 33.6679C46.3344 33.4218 46.6566 33.1645 46.9656 32.9035C46.9892 32.8773 47.018 32.8564 47.0502 32.8422C47.0825 32.828 47.1174 32.8208 47.1526 32.8212C47.1878 32.8216 47.2225 32.8295 47.2544 32.8444C47.2864 32.8592 47.3148 32.8808 47.3377 32.9075C47.3607 32.9342 47.3777 32.9655 47.3876 32.9994C47.3975 33.0332 47.4001 33.0688 47.3952 33.1037C47.3903 33.1386 47.378 33.1721 47.3592 33.2018C47.3403 33.2316 47.3153 33.257 47.2859 33.2764C46.9694 33.5449 46.6398 33.8077 46.3065 34.0594C46.2639 34.0927 46.2116 34.1111 46.1575 34.1116V34.1135ZM48.0512 32.5158C48.0164 32.5168 47.9818 32.5103 47.9496 32.4968C47.9175 32.4833 47.8887 32.4631 47.865 32.4375C47.8198 32.3897 47.7954 32.326 47.7972 32.2603C47.7989 32.1946 47.8267 32.1322 47.8743 32.087C48.1722 31.8073 48.4627 31.5165 48.742 31.2219C48.7642 31.1977 48.791 31.1781 48.8209 31.1644C48.8507 31.1506 48.883 31.143 48.9159 31.1418C48.9487 31.1407 48.9814 31.1461 49.0122 31.1578C49.0429 31.1694 49.071 31.1871 49.0948 31.2097C49.1186 31.2323 49.1378 31.2595 49.151 31.2896C49.1643 31.3197 49.1714 31.3521 49.172 31.385C49.1726 31.4179 49.1667 31.4506 49.1546 31.4812C49.1425 31.5117 49.1244 31.5396 49.1014 31.5631C48.8165 31.8651 48.5186 32.1634 48.2151 32.4486C48.1701 32.4895 48.1119 32.5127 48.0512 32.5139V32.5158ZM13.0341 32.5064C12.9702 32.5066 12.9088 32.4819 12.8628 32.4375C12.563 32.1504 12.2651 31.8521 11.9802 31.55C11.935 31.5021 11.9107 31.4381 11.9127 31.3722C11.9146 31.3063 11.9426 31.2439 11.9905 31.1986C12.0384 31.1534 12.1022 31.129 12.1681 31.131C12.2339 31.1329 12.2963 31.1609 12.3415 31.2089C12.6208 31.5053 12.9112 31.798 13.2054 32.0795C13.2411 32.1137 13.2657 32.1579 13.2761 32.2063C13.2865 32.2546 13.2822 32.305 13.2638 32.3509C13.2454 32.3968 13.2137 32.4362 13.1727 32.4639C13.1318 32.4916 13.0835 32.5064 13.0341 32.5064ZM49.7531 30.7167C49.7061 30.7166 49.6601 30.7031 49.6205 30.6777C49.581 30.6522 49.5495 30.616 49.5299 30.5732C49.5103 30.5304 49.5034 30.4829 49.51 30.4363C49.5165 30.3897 49.5363 30.346 49.5669 30.3103C49.8294 29.9971 50.0864 29.6745 50.3285 29.3501C50.368 29.2975 50.4267 29.2627 50.4919 29.2534C50.557 29.2442 50.6231 29.2612 50.6757 29.3007C50.7283 29.3403 50.7631 29.3991 50.7723 29.4643C50.7816 29.5295 50.7646 29.5958 50.7251 29.6484C50.4774 29.9803 50.2149 30.3103 49.9467 30.6291C49.9227 30.6567 49.8929 30.6787 49.8595 30.6935C49.826 30.7083 49.7897 30.7156 49.7531 30.7148V30.7167ZM11.3322 30.7055C11.2969 30.7053 11.262 30.6976 11.2299 30.6828C11.1977 30.668 11.1692 30.6465 11.146 30.6197C10.8779 30.3084 10.6116 29.9821 10.3509 29.654C10.3308 29.6284 10.3158 29.5991 10.307 29.5678C10.2981 29.5364 10.2955 29.5036 10.2993 29.4712C10.307 29.4058 10.3403 29.3462 10.3919 29.3054C10.4435 29.2646 10.5092 29.246 10.5745 29.2537C10.6398 29.2614 10.6994 29.2947 10.7401 29.3464C10.9952 29.6708 11.2578 29.9896 11.5222 30.2953C11.5648 30.3454 11.586 30.4103 11.5811 30.476C11.5762 30.5416 11.5457 30.6026 11.4961 30.6458C11.4498 30.6836 11.3919 30.704 11.3322 30.7036V30.7055ZM9.79607 28.761C9.75681 28.7612 9.71807 28.752 9.68308 28.7342C9.64809 28.7164 9.61788 28.6904 9.59498 28.6585C9.35292 28.3266 9.11272 27.9817 8.87811 27.6349C8.84254 27.5803 8.8299 27.5138 8.84294 27.4499C8.85599 27.386 8.89365 27.3298 8.94777 27.2935C9.0019 27.2572 9.06813 27.2438 9.13211 27.256C9.1961 27.2683 9.25268 27.3053 9.28961 27.359C9.51863 27.7002 9.75698 28.0395 9.99532 28.3676C10.0336 28.4206 10.0493 28.4866 10.0392 28.5512C10.0291 28.6158 9.99391 28.6738 9.94131 28.7125C9.8993 28.7436 9.84827 28.7599 9.79607 28.7591V28.761ZM51.2353 28.733C51.1906 28.733 51.1468 28.7208 51.1085 28.6979C51.0702 28.6749 51.0388 28.6421 51.0176 28.6027C50.9964 28.5633 50.9862 28.519 50.9882 28.4743C50.9901 28.4297 51.0041 28.3864 51.0286 28.349C51.2483 28.0115 51.4606 27.6592 51.6598 27.305C51.6743 27.2743 51.695 27.247 51.7205 27.2247C51.7459 27.2024 51.7757 27.1855 51.808 27.1752C51.8402 27.1648 51.8742 27.1612 51.9079 27.1646C51.9416 27.1679 51.9743 27.1781 52.0039 27.1946C52.0335 27.2111 52.0594 27.2335 52.08 27.2604C52.1006 27.2872 52.1155 27.3181 52.1237 27.351C52.132 27.3839 52.1334 27.4181 52.1279 27.4515C52.1224 27.485 52.1101 27.5169 52.0918 27.5455C51.8888 27.9183 51.6691 28.2725 51.4419 28.6212C51.4193 28.6553 51.3886 28.6832 51.3525 28.7024C51.3164 28.7216 51.2761 28.7315 51.2353 28.7312V28.733ZM8.40888 26.7028C8.36664 26.7029 8.32505 26.6924 8.28795 26.6722C8.25085 26.652 8.21944 26.6228 8.1966 26.5872C7.98061 26.2367 7.76461 25.8769 7.55792 25.5152C7.53974 25.487 7.52748 25.4554 7.52187 25.4223C7.51626 25.3892 7.51744 25.3553 7.5253 25.3226C7.53317 25.29 7.54758 25.2593 7.56765 25.2324C7.58772 25.2055 7.61304 25.183 7.64207 25.1661C7.6711 25.1493 7.70324 25.1386 7.73653 25.1346C7.76983 25.1306 7.80359 25.1334 7.83577 25.1429C7.86795 25.1523 7.89787 25.1682 7.92373 25.1896C7.94959 25.211 7.97084 25.2374 7.98619 25.2672C8.19102 25.6252 8.40329 25.9813 8.61742 26.3243C8.63485 26.3518 8.64665 26.3825 8.65215 26.4146C8.65765 26.4467 8.65674 26.4795 8.64947 26.5113C8.6422 26.543 8.62871 26.573 8.60978 26.5994C8.59086 26.6259 8.56686 26.6484 8.53921 26.6655C8.50073 26.6876 8.45692 26.6985 8.4126 26.6972L8.40888 26.7028ZM52.4381 26.5704C52.4022 26.5703 52.3667 26.5627 52.3339 26.548C52.2742 26.5198 52.2281 26.469 52.2058 26.4068C52.1835 26.3446 52.1867 26.276 52.2147 26.2162C52.386 25.8564 52.5517 25.4705 52.7063 25.0976C52.7171 25.0656 52.7344 25.0362 52.757 25.0111C52.7796 24.9861 52.8071 24.9659 52.8378 24.9519C52.8685 24.9379 52.9017 24.9303 52.9355 24.9295C52.9692 24.9288 53.0027 24.935 53.034 24.9477C53.0652 24.9605 53.0936 24.9794 53.1172 25.0035C53.1409 25.0276 53.1594 25.0562 53.1716 25.0877C53.1838 25.1192 53.1894 25.1529 53.1882 25.1866C53.1869 25.2204 53.1788 25.2535 53.1643 25.284C53.006 25.6774 52.8384 26.0633 52.6634 26.4325C52.6425 26.4733 52.6108 26.5077 52.5717 26.5317C52.5327 26.5557 52.4877 26.5684 52.4418 26.5686L52.4381 26.5704ZM7.17063 24.5513C7.12562 24.5517 7.08137 24.5396 7.04289 24.5162C7.0044 24.4928 6.97319 24.4591 6.95277 24.419C6.82987 24.1897 6.70698 23.9473 6.58036 23.7012C6.52078 23.5819 6.45562 23.4551 6.383 23.3153C6.36612 23.2863 6.3553 23.2541 6.35122 23.2207C6.34715 23.1874 6.34989 23.1535 6.35927 23.1213C6.36865 23.089 6.3845 23.059 6.40582 23.033C6.42715 23.0071 6.45352 22.9858 6.48333 22.9703C6.51314 22.9549 6.54577 22.9457 6.57925 22.9433C6.61272 22.9409 6.64634 22.9453 6.67805 22.9563C6.70977 22.9673 6.73892 22.9846 6.76375 23.0072C6.78857 23.0298 6.80853 23.0573 6.82243 23.0879C6.89691 23.2277 6.96208 23.3563 7.00864 23.4607C7.14084 23.7161 7.26187 23.9566 7.38104 24.1841C7.4113 24.2425 7.41734 24.3105 7.39781 24.3733C7.37829 24.4362 7.33477 24.4887 7.27675 24.5197C7.24441 24.5385 7.20803 24.5494 7.17063 24.5513ZM53.3635 24.2717C53.3241 24.2719 53.2853 24.2625 53.2502 24.2445C53.2152 24.2265 53.1849 24.2003 53.1621 24.1681C53.1393 24.1359 53.1246 24.0987 53.1191 24.0597C53.1136 24.0206 53.1176 23.9808 53.1308 23.9436C53.2574 23.5707 53.3822 23.1736 53.5032 22.7728C53.5106 22.7398 53.5247 22.7087 53.5446 22.6814C53.5645 22.654 53.5898 22.6311 53.6189 22.6139C53.648 22.5967 53.6803 22.5857 53.7138 22.5814C53.7473 22.5772 53.7813 22.5799 53.8138 22.5893C53.8462 22.5988 53.8764 22.6147 53.9024 22.6362C53.9285 22.6578 53.9498 22.6844 53.9652 22.7145C53.9806 22.7446 53.9897 22.7776 53.9919 22.8113C53.9941 22.845 53.9894 22.8789 53.978 22.9107C53.8588 23.319 53.7341 23.7217 53.6056 24.1039C53.5891 24.1535 53.5573 24.1967 53.5149 24.2272C53.4724 24.2576 53.4214 24.2739 53.3691 24.2736L53.3635 24.2717ZM6.00873 22.3608C5.96559 22.361 5.92314 22.3499 5.88558 22.3287C5.84802 22.3074 5.81665 22.2767 5.7946 22.2396C5.60133 21.8918 5.37697 21.5624 5.12427 21.2552C5.08057 21.2058 5.05827 21.141 5.06229 21.0751C5.06631 21.0092 5.0963 20.9475 5.14569 20.9038C5.19507 20.86 5.25979 20.8377 5.32561 20.8417C5.39144 20.8457 5.45297 20.8758 5.49668 20.9252C5.77132 21.2564 6.01504 21.6121 6.22473 21.9879C6.25802 22.0445 6.26751 22.1121 6.2511 22.1757C6.23469 22.2393 6.19371 22.2938 6.1372 22.3272C6.09979 22.3488 6.05749 22.3603 6.01432 22.3608H6.00873ZM54.0488 21.8928C54.0289 21.8946 54.009 21.8946 53.9892 21.8928C53.9571 21.8856 53.9269 21.872 53.9001 21.853C53.8734 21.8339 53.8506 21.8097 53.8333 21.7818C53.816 21.7538 53.8044 21.7227 53.7992 21.6903C53.794 21.6578 53.7952 21.6246 53.803 21.5927L53.8682 21.3279L54.086 20.3958C54.0917 20.3626 54.1042 20.331 54.1225 20.3028C54.1409 20.2746 54.1648 20.2504 54.1927 20.2317C54.2207 20.2131 54.2522 20.2003 54.2852 20.1942C54.3183 20.1881 54.3523 20.1889 54.385 20.1963C54.4178 20.2038 54.4487 20.2179 54.4759 20.2377C54.503 20.2575 54.5259 20.2827 54.543 20.3116C54.5602 20.3406 54.5713 20.3727 54.5756 20.4061C54.5799 20.4395 54.5774 20.4734 54.5683 20.5058C54.4957 20.8227 54.423 21.1359 54.3485 21.4491L54.2834 21.7176C54.2688 21.7656 54.24 21.8081 54.2007 21.8394C54.1615 21.8707 54.1137 21.8893 54.0637 21.8928H54.0488ZM4.08341 21.4528C3.64506 21.436 3.21182 21.3524 2.79862 21.2049C2.73664 21.1826 2.68603 21.1366 2.65792 21.077C2.62981 21.0174 2.62649 20.9491 2.64872 20.887C2.67094 20.825 2.71687 20.7743 2.77641 20.7461C2.83595 20.718 2.90423 20.7147 2.9662 20.7369C3.33107 20.8693 3.71423 20.9441 4.10203 20.9588C4.16376 20.9642 4.22124 20.9925 4.26311 21.0382C4.30499 21.084 4.32821 21.1438 4.32821 21.2058C4.32821 21.2679 4.30499 21.3276 4.26311 21.3734C4.22124 21.4191 4.16376 21.4475 4.10203 21.4528H4.08341ZM1.7894 20.6288C1.73475 20.6285 1.68173 20.6102 1.63858 20.5766C1.29027 20.3091 0.985584 19.9889 0.735488 19.6277C0.717027 19.6008 0.704021 19.5707 0.697211 19.5388C0.690401 19.507 0.689923 19.4741 0.695802 19.4421C0.707675 19.3774 0.744738 19.3201 0.798813 19.2828C0.852888 19.2454 0.91955 19.2311 0.984151 19.243C1.04875 19.2549 1.106 19.292 1.14328 19.3461C1.3634 19.6653 1.63235 19.9478 1.94023 20.1832C1.98166 20.2147 2.01215 20.2583 2.0274 20.3081C2.04265 20.3578 2.04188 20.4111 2.02519 20.4604C2.00851 20.5097 1.97675 20.5525 1.93443 20.5827C1.89211 20.6129 1.84137 20.6291 1.7894 20.6288ZM54.6148 19.4785C54.5957 19.4812 54.5762 19.4812 54.5571 19.4785C54.5252 19.471 54.4951 19.4574 54.4684 19.4382C54.4418 19.4191 54.4192 19.3949 54.4019 19.367C54.3846 19.3392 54.373 19.3082 54.3676 19.2758C54.3623 19.2434 54.3634 19.2103 54.3709 19.1784C54.4863 18.7067 54.5887 18.3226 54.6949 17.9684C54.7139 17.9054 54.7572 17.8525 54.8151 17.8213C54.8731 17.7902 54.941 17.7834 55.004 17.8025C55.0669 17.8215 55.1198 17.8648 55.1509 17.9229C55.1819 17.9809 55.1887 18.0489 55.1697 18.112C55.0673 18.4569 54.9649 18.8334 54.8513 19.2958C54.8381 19.3457 54.8097 19.3901 54.7699 19.4229C54.7302 19.4557 54.6811 19.4751 54.6297 19.4785H54.6148ZM0.404066 18.6209C0.350806 18.621 0.298949 18.6038 0.256301 18.5719C0.213652 18.5399 0.182516 18.495 0.167587 18.4438C0.0562691 18.0718 -0.00019189 17.6856 4.89962e-07 17.2972C4.89962e-07 17.245 4.89962e-07 17.191 4.89962e-07 17.1388C0.00134536 17.1062 0.00908765 17.0742 0.0227756 17.0447C0.0364636 17.0151 0.0558345 16.9885 0.0797817 16.9664C0.103729 16.9444 0.131775 16.9272 0.162336 16.916C0.192897 16.9048 0.22537 16.8997 0.257892 16.9011C0.290413 16.9024 0.322348 16.9102 0.351879 16.9239C0.38141 16.9376 0.407956 16.957 0.430001 16.981C0.452046 17.0049 0.469167 17.033 0.48037 17.0636C0.491573 17.0942 0.496648 17.1267 0.495303 17.1593C0.495303 17.204 0.495303 17.2506 0.495303 17.2972C0.498959 17.64 0.552267 17.9803 0.65357 18.3077C0.662996 18.339 0.666131 18.3719 0.662799 18.4045C0.659466 18.437 0.649738 18.4686 0.634159 18.4974C0.61858 18.5262 0.597468 18.5516 0.572039 18.5721C0.54661 18.5927 0.517354 18.608 0.485984 18.6172C0.463855 18.621 0.441367 18.6222 0.418954 18.6209H0.404066ZM55.3485 17.1127C55.3152 17.1121 55.2823 17.1052 55.2516 17.0922C55.1915 17.0663 55.1439 17.0177 55.1192 16.9571C55.0945 16.8964 55.0946 16.8284 55.1194 16.7678C55.2824 16.3714 55.4812 15.9907 55.7134 15.6305C55.7313 15.6032 55.7543 15.5797 55.7812 15.5613C55.8082 15.543 55.8384 15.5301 55.8703 15.5234C55.9022 15.5167 55.9351 15.5164 55.9672 15.5225C55.9992 15.5286 56.0297 15.5409 56.057 15.5588C56.0842 15.5766 56.1077 15.5997 56.1261 15.6267C56.1444 15.6536 56.1573 15.6839 56.1639 15.7159C56.1706 15.7478 56.1709 15.7808 56.1649 15.8128C56.1588 15.8449 56.1465 15.8754 56.1287 15.9027C55.9093 16.2365 55.7222 16.5905 55.57 16.9598C55.5527 17.0017 55.5243 17.038 55.4879 17.0649C55.4514 17.0919 55.4084 17.1084 55.3633 17.1127H55.3485ZM0.499031 16.1805C0.469061 16.1805 0.439345 16.1748 0.411499 16.1637C0.349912 16.1403 0.30008 16.0934 0.272871 16.0334C0.245662 15.9733 0.243302 15.9049 0.266279 15.8431C0.372853 15.5635 0.507598 15.2955 0.668458 15.0433C0.742939 14.9295 0.819301 14.8158 0.897505 14.7077C0.915973 14.6801 0.939789 14.6564 0.967558 14.6382C0.995328 14.62 1.02647 14.6076 1.05914 14.6016C1.0918 14.5957 1.12533 14.5964 1.15771 14.6037C1.1901 14.611 1.22071 14.6248 1.24768 14.6442C1.27465 14.6635 1.29745 14.6882 1.31473 14.7165C1.33201 14.7449 1.34343 14.7765 1.34828 14.8094C1.35313 14.8423 1.35133 14.8758 1.34298 14.908C1.33464 14.9401 1.31991 14.9703 1.29968 14.9967C1.22707 15.0992 1.15444 15.2036 1.08555 15.3117C0.943135 15.5351 0.82398 15.7725 0.729919 16.0202C0.714339 16.0663 0.685547 16.1068 0.647138 16.1366C0.608729 16.1665 0.562396 16.1843 0.513919 16.188L0.499031 16.1805ZM56.6593 15.0134C56.6132 15.0138 56.5679 15.0009 56.529 14.9762C56.4732 14.9415 56.4334 14.8861 56.4184 14.8222C56.4034 14.7582 56.4144 14.6909 56.4489 14.635C56.6517 14.305 56.7995 13.9442 56.8865 13.5667C56.8939 13.535 56.9076 13.5051 56.9266 13.4787C56.9456 13.4522 56.9696 13.4298 56.9973 13.4127C57.0249 13.3955 57.0557 13.384 57.0878 13.3788C57.1199 13.3735 57.1527 13.3747 57.1844 13.3822C57.2161 13.3896 57.246 13.4033 57.2724 13.4223C57.2988 13.4413 57.3212 13.4654 57.3383 13.4931C57.3554 13.5208 57.3669 13.5516 57.3721 13.5837C57.3773 13.6159 57.3762 13.6487 57.3687 13.6804C57.27 14.1103 57.1015 14.5209 56.8697 14.896C56.8496 14.931 56.8213 14.9606 56.7872 14.9824C56.7532 15.0041 56.7144 15.0173 56.6742 15.0209L56.6593 15.0134ZM1.91602 14.1559C1.88164 14.1574 1.84732 14.1517 1.81526 14.1391C1.7832 14.1266 1.75411 14.1075 1.72982 14.0831C1.70702 14.0606 1.68892 14.0337 1.67657 14.0041C1.66421 13.9745 1.65784 13.9428 1.65784 13.9107C1.65784 13.8786 1.66421 13.8468 1.67657 13.8172C1.68892 13.7876 1.70702 13.7608 1.72982 13.7382C1.97188 13.4362 2.24001 13.1156 2.51559 12.8061C2.55965 12.7598 2.61986 12.7324 2.68363 12.7295C2.7474 12.7266 2.80981 12.7485 2.85785 12.7906C2.90589 12.8327 2.93583 12.8918 2.94145 12.9554C2.94707 13.0191 2.92792 13.0825 2.88799 13.1323C2.61614 13.4418 2.3536 13.755 2.10409 14.0645L2.08175 14.0887C2.03961 14.1318 1.98343 14.1582 1.92346 14.1633L1.91602 14.1559ZM57.2179 12.6402C57.1566 12.64 57.0974 12.617 57.052 12.5757C57.0066 12.5343 56.9781 12.4776 56.9721 12.4164V12.3381C56.9278 11.98 56.8299 11.6305 56.6817 11.3016C56.6657 11.2716 56.6561 11.2387 56.6534 11.2049C56.6506 11.171 56.6549 11.137 56.6659 11.1048C56.6768 11.0727 56.6942 11.0432 56.7171 11.0181C56.7399 10.993 56.7676 10.9728 56.7985 10.9589C56.8294 10.9449 56.8629 10.9375 56.8968 10.937C56.9307 10.9366 56.9643 10.9431 56.9956 10.9561C57.0269 10.9692 57.0552 10.9886 57.0787 11.013C57.1022 11.0375 57.1204 11.0665 57.1323 11.0983C57.3014 11.4721 57.4132 11.8694 57.4637 12.2766L57.4749 12.368C57.4811 12.4332 57.4613 12.4982 57.4198 12.5489C57.3783 12.5995 57.3184 12.6317 57.2533 12.6383L57.2179 12.6402ZM3.55088 12.299C3.50173 12.3005 3.45322 12.2873 3.41159 12.2611C3.36996 12.2349 3.33708 12.1968 3.3171 12.1518C3.29713 12.1068 3.29097 12.0569 3.29944 12.0084C3.30792 11.9599 3.33064 11.915 3.36468 11.8795C3.64212 11.5887 3.93631 11.2904 4.23982 10.9921C4.28681 10.946 4.34997 10.9201 4.41577 10.9201C4.48156 10.9201 4.54475 10.946 4.59174 10.9921C4.63813 11.0386 4.66418 11.1016 4.66418 11.1673C4.66418 11.2331 4.63813 11.2961 4.59174 11.3426C4.29382 11.6371 4.00148 11.9317 3.72776 12.2188C3.70627 12.2443 3.67985 12.2653 3.65009 12.2803C3.62034 12.2954 3.58785 12.3043 3.55458 12.3064L3.55088 12.299ZM5.3198 10.5633C5.28483 10.5641 5.25009 10.5573 5.21797 10.5435C5.18584 10.5297 5.15708 10.5091 5.13359 10.4831C5.11146 10.4593 5.09423 10.4313 5.08291 10.4007C5.07158 10.3702 5.06638 10.3377 5.06759 10.3052C5.0688 10.2726 5.07639 10.2406 5.08995 10.211C5.10351 10.1814 5.12277 10.1548 5.14662 10.1326C5.44268 9.86044 5.74991 9.58265 6.07763 9.29927C6.12743 9.25929 6.19074 9.24012 6.25433 9.24574C6.31792 9.25136 6.37688 9.28135 6.41891 9.32946C6.46095 9.37756 6.48279 9.44005 6.47992 9.5039C6.47705 9.56775 6.44967 9.62802 6.40348 9.67214C6.08694 9.95179 5.78218 10.2271 5.48922 10.498C5.44481 10.5419 5.3858 10.5678 5.3235 10.5707L5.3198 10.5633ZM56.2925 10.4999C56.2528 10.5002 56.2135 10.4909 56.1782 10.4727C56.1428 10.4545 56.1124 10.428 56.0895 10.3955C55.8656 10.0796 55.5928 9.80145 55.2814 9.57147C55.2553 9.55164 55.2333 9.52684 55.2167 9.49849C55.2001 9.47014 55.1892 9.4388 55.1847 9.40626C55.1802 9.37371 55.1822 9.3406 55.1905 9.30881C55.1987 9.27702 55.2132 9.24717 55.233 9.22097C55.2528 9.19478 55.2776 9.17274 55.3059 9.15613C55.3342 9.13952 55.3655 9.12865 55.398 9.12414C55.4305 9.11964 55.4636 9.1216 55.4954 9.1299C55.5271 9.13819 55.5569 9.15267 55.5831 9.1725C55.9371 9.43244 56.2476 9.74709 56.5029 10.1047C56.5406 10.1584 56.5554 10.2248 56.5443 10.2894C56.5331 10.3541 56.4968 10.4117 56.4433 10.4496C56.4023 10.485 56.3504 10.5054 56.2962 10.5074L56.2925 10.4999ZM54.3318 9.05505C54.3053 9.055 54.279 9.05123 54.2536 9.04386C54.1866 9.02149 54.1158 9.00098 54.0469 8.98234C53.7024 8.8884 53.3709 8.75187 53.06 8.57591C53.0309 8.56039 53.0052 8.53922 52.9844 8.51362C52.9636 8.48803 52.9481 8.45852 52.9388 8.42685C52.9296 8.39518 52.9267 8.36198 52.9304 8.32918C52.9341 8.29639 52.9443 8.26466 52.9604 8.23586C52.9765 8.20707 52.9982 8.18179 53.0242 8.1615C53.0502 8.14121 53.08 8.12632 53.1119 8.11771C53.1437 8.1091 53.1769 8.10693 53.2096 8.11134C53.2422 8.11575 53.2737 8.12665 53.3021 8.14339C53.5757 8.29901 53.8679 8.41928 54.1717 8.50134C54.2517 8.52371 54.3318 8.54608 54.4081 8.57219C54.4635 8.59092 54.5105 8.62867 54.5408 8.67876C54.5711 8.72885 54.5826 8.78805 54.5735 8.84588C54.5644 8.9037 54.5351 8.95642 54.4908 8.9947C54.4466 9.03299 54.3903 9.05436 54.3318 9.05505ZM7.17063 8.92455C7.12026 8.9241 7.0712 8.90839 7.02991 8.8795C6.98862 8.85061 6.95704 8.80988 6.93931 8.76267C6.92158 8.71546 6.91854 8.66398 6.93058 8.61501C6.94262 8.56604 6.96918 8.52186 7.00677 8.48829C7.31773 8.21796 7.63055 7.94577 7.93778 7.67544C7.96147 7.64995 7.99025 7.62973 8.02227 7.61612C8.05428 7.6025 8.0888 7.59579 8.12357 7.59642C8.15835 7.59705 8.19261 7.60501 8.22411 7.61978C8.2556 7.63454 8.28363 7.65579 8.30639 7.68212C8.32914 7.70846 8.34611 7.7393 8.35616 7.77264C8.36622 7.80597 8.36914 7.84106 8.36476 7.87561C8.36037 7.91015 8.34877 7.94338 8.33071 7.97314C8.31264 8.0029 8.28852 8.02851 8.2599 8.04831C7.9446 8.31677 7.63427 8.58648 7.3289 8.85743C7.28602 8.89829 7.22977 8.92214 7.17063 8.92455ZM52.1719 7.89917C52.1134 7.89929 52.0567 7.87883 52.0117 7.84137C51.7305 7.60273 51.4308 7.31936 51.0938 6.97632C51.0478 6.92959 51.0221 6.86665 51.0221 6.80107C51.0221 6.7355 51.0478 6.67256 51.0938 6.62583C51.1166 6.6026 51.1439 6.58416 51.1739 6.57158C51.204 6.55899 51.2362 6.55251 51.2688 6.55251C51.3013 6.55251 51.3336 6.55899 51.3636 6.57158C51.3937 6.58416 51.4209 6.6026 51.4438 6.62583C51.7697 6.95768 52.0583 7.22987 52.3283 7.45918C52.3666 7.49209 52.394 7.53597 52.4068 7.58491C52.4195 7.63386 52.417 7.68554 52.3996 7.73302C52.3822 7.78049 52.3506 7.8215 52.3093 7.85053C52.2679 7.87956 52.2187 7.89523 52.1681 7.89543L52.1719 7.89917ZM30.3583 7.41817C30.3144 7.41899 30.2712 7.40736 30.2336 7.38461C29.8723 7.16503 29.5235 6.9254 29.189 6.66684C29.1367 6.62722 29.1023 6.56848 29.0932 6.50348C29.0841 6.43848 29.1012 6.37253 29.1406 6.32008C29.16 6.29396 29.1844 6.27197 29.2124 6.25537C29.2404 6.23878 29.2714 6.22791 29.3036 6.2234C29.3358 6.21889 29.3686 6.22084 29.4001 6.22911C29.4316 6.23738 29.4611 6.25183 29.4869 6.2716C29.806 6.51809 30.1385 6.74651 30.4831 6.95581C30.5112 6.9722 30.5359 6.99398 30.5556 7.01991C30.5753 7.04584 30.5897 7.0754 30.598 7.10692C30.6063 7.13843 30.6083 7.17127 30.6039 7.20356C30.5996 7.23586 30.5889 7.26697 30.5725 7.29512C30.5514 7.33242 30.5208 7.36347 30.4838 7.38509C30.4469 7.4067 30.4049 7.41811 30.3621 7.41817H30.3583ZM9.05685 7.31749C9.00578 7.31744 8.95597 7.30157 8.91425 7.27207C8.87253 7.24256 8.84093 7.20086 8.82381 7.15268C8.80668 7.1045 8.80486 7.0522 8.81858 7.00294C8.8323 6.95367 8.86089 6.90987 8.90045 6.87751C9.2412 6.59786 9.5596 6.34431 9.87615 6.10195C9.92825 6.0619 9.99409 6.04421 10.0592 6.05278C10.1243 6.06134 10.1834 6.09546 10.2234 6.14762C10.2634 6.19979 10.2811 6.26573 10.2725 6.33093C10.264 6.39614 10.2299 6.45528 10.1778 6.49533C9.86683 6.73396 9.55028 6.98378 9.21326 7.26156C9.1701 7.29688 9.11631 7.31658 9.06058 7.31749H9.05685ZM31.4625 7.2858C31.4228 7.28612 31.3835 7.27679 31.3482 7.25861C31.3128 7.24043 31.2824 7.21393 31.2595 7.1814C31.2407 7.15464 31.2273 7.12441 31.2202 7.09245C31.2131 7.06049 31.2124 7.02743 31.2181 6.99519C31.2238 6.96295 31.2358 6.93217 31.2535 6.90461C31.2712 6.87705 31.2941 6.85327 31.321 6.83463C31.6415 6.60146 31.9395 6.33869 32.211 6.04975C32.2568 6.00399 32.3187 5.97801 32.3835 5.97736C32.4482 5.97671 32.5105 6.00145 32.5573 6.04628C32.604 6.09111 32.6313 6.15248 32.6334 6.21724C32.6355 6.28199 32.6123 6.34501 32.5685 6.39278C32.2744 6.70583 31.9514 6.99046 31.604 7.24292C31.5633 7.27059 31.5154 7.28552 31.4662 7.2858H31.4625ZM50.4253 6.14483C50.3903 6.14561 50.3556 6.13886 50.3235 6.12503C50.2913 6.11119 50.2626 6.09061 50.2391 6.06466L49.9225 5.71603C49.7531 5.5296 49.5818 5.34317 49.4067 5.15673C49.3623 5.10729 49.3393 5.04219 49.3428 4.97576C49.3463 4.90933 49.376 4.84701 49.4254 4.80251C49.4748 4.75801 49.5398 4.73498 49.6061 4.73847C49.6725 4.74197 49.7347 4.77171 49.7792 4.82116L50.2968 5.38977L50.6134 5.7384C50.6571 5.7873 50.6799 5.8515 50.6768 5.91709C50.6736 5.98269 50.6448 6.04441 50.5966 6.0889C50.5496 6.12769 50.4898 6.14762 50.429 6.14483H50.4253ZM28.3492 5.97144C28.2962 5.97199 28.2444 5.95495 28.2021 5.92298C27.8297 5.65078 27.5094 5.43079 27.1948 5.23317C27.1673 5.21579 27.1434 5.19315 27.1247 5.16655C27.1059 5.13995 27.0925 5.10991 27.0854 5.07815C27.0782 5.04638 27.0773 5.01351 27.0828 4.98141C27.0884 4.94931 27.1001 4.91861 27.1175 4.89107C27.1348 4.86353 27.1574 4.83968 27.184 4.82088C27.2106 4.80209 27.2406 4.78871 27.2723 4.78153C27.304 4.77435 27.3369 4.77349 27.3689 4.77901C27.401 4.78453 27.4316 4.79632 27.4592 4.8137C27.7831 5.01691 28.1127 5.24249 28.4944 5.52401C28.5363 5.55492 28.5673 5.59822 28.5832 5.64778C28.5991 5.69733 28.599 5.75064 28.5829 5.80014C28.5668 5.84964 28.5356 5.89282 28.4937 5.92356C28.4517 5.95431 28.4012 5.97106 28.3492 5.97144ZM11.0325 5.80925C10.993 5.80959 10.954 5.80025 10.919 5.78205C10.8839 5.76386 10.8538 5.73735 10.8314 5.70485C10.8124 5.67846 10.7988 5.64857 10.7914 5.6169C10.784 5.58524 10.783 5.55242 10.7884 5.52035C10.7937 5.48828 10.8054 5.45759 10.8227 5.43006C10.84 5.40253 10.8625 5.37869 10.8891 5.35994C11.2373 5.11385 11.5873 4.87895 11.9281 4.66269C11.9555 4.64349 11.9864 4.63003 12.0191 4.62313C12.0518 4.61623 12.0856 4.61602 12.1184 4.62253C12.1511 4.62904 12.1823 4.64212 12.2099 4.66099C12.2375 4.67986 12.261 4.70412 12.2789 4.73233C12.2969 4.76053 12.309 4.79209 12.3145 4.82509C12.32 4.8581 12.3187 4.89188 12.3108 4.92439C12.3029 4.9569 12.2885 4.98747 12.2685 5.01427C12.2485 5.04106 12.2233 5.06352 12.1943 5.0803C11.8592 5.29469 11.5166 5.52401 11.1758 5.76451C11.1335 5.79834 11.081 5.81675 11.0269 5.81671L11.0325 5.80925ZM33.2072 5.53147C33.1612 5.53055 33.1164 5.51674 33.0779 5.49159C33.0393 5.46644 33.0086 5.43097 32.9892 5.38921C32.9698 5.34745 32.9625 5.30108 32.9681 5.25537C32.9738 5.20966 32.9921 5.16644 33.021 5.13064C33.1625 4.9442 33.3059 4.75777 33.4586 4.55829C33.5666 4.41287 33.6671 4.2805 33.7695 4.14627C33.7893 4.12044 33.814 4.09877 33.8422 4.0825C33.8704 4.06622 33.9015 4.05566 33.9337 4.05142C33.966 4.04718 33.9987 4.04934 34.0302 4.05778C34.0616 4.06621 34.091 4.08076 34.1168 4.1006C34.1426 4.12043 34.1643 4.14515 34.1805 4.17335C34.1968 4.20156 34.2073 4.2327 34.2115 4.26498C34.2158 4.29727 34.2136 4.33007 34.2052 4.36153C34.1968 4.39298 34.1822 4.42246 34.1624 4.44829C34.06 4.58066 33.9613 4.71303 33.8645 4.8398C33.7006 5.05979 33.5536 5.25368 33.4102 5.43638C33.3859 5.46812 33.3541 5.49339 33.3177 5.50997C33.2814 5.52655 33.2415 5.53393 33.2016 5.53147H33.2072ZM26.2544 4.67015C26.2172 4.66926 26.1805 4.66103 26.1465 4.64591C26.0682 4.60676 25.99 4.57134 25.91 4.53405C25.6176 4.40355 25.3197 4.27677 25.0274 4.16118C24.9661 4.13646 24.9172 4.0884 24.8914 4.02756C24.8655 3.96672 24.8649 3.8981 24.8896 3.83679C24.9143 3.77548 24.9623 3.7265 25.023 3.70063C25.0838 3.67475 25.1523 3.67411 25.2136 3.69883C25.5152 3.81629 25.8187 3.94492 26.1185 4.08102L26.368 4.19661C26.4188 4.2209 26.4598 4.26178 26.4843 4.31252C26.5087 4.36325 26.5152 4.42082 26.5026 4.47574C26.49 4.53065 26.4592 4.57964 26.4151 4.61464C26.371 4.64964 26.3163 4.66856 26.26 4.66828L26.2544 4.67015ZM13.1291 4.48371C13.0733 4.48494 13.0187 4.46711 12.9744 4.43316C12.93 4.39921 12.8986 4.35116 12.8851 4.29692C12.8717 4.24267 12.8771 4.18546 12.9004 4.1347C12.9238 4.08394 12.9637 4.04265 13.0136 4.01763C13.386 3.82001 13.7696 3.64477 14.1551 3.4807C14.185 3.46795 14.2171 3.46132 14.2496 3.46118C14.2821 3.46105 14.3143 3.46743 14.3443 3.47993C14.3744 3.49244 14.4016 3.51082 14.4244 3.534C14.4472 3.55719 14.4651 3.58471 14.4772 3.61494C14.4897 3.64505 14.4962 3.67733 14.4962 3.70994C14.4962 3.74255 14.4898 3.77484 14.4774 3.80498C14.4649 3.83511 14.4466 3.86249 14.4236 3.88554C14.4006 3.90859 14.3732 3.92687 14.3431 3.93933C13.9707 4.0922 13.5983 4.26559 13.2445 4.45575C13.2094 4.47657 13.1698 4.48871 13.1291 4.49117V4.48371ZM48.7495 4.31965C48.7151 4.32115 48.6808 4.31546 48.6487 4.30294C48.6167 4.29042 48.5876 4.27135 48.5633 4.24694C48.2542 3.93187 47.9674 3.65409 47.6825 3.39495C47.6331 3.35094 47.6032 3.28909 47.5994 3.22301C47.5956 3.15693 47.6181 3.09203 47.662 3.04259C47.706 2.99314 47.7678 2.9632 47.8338 2.95935C47.8998 2.95551 47.9646 2.97807 48.014 3.02208C48.3063 3.28682 48.6005 3.57205 48.9152 3.89272C48.9616 3.93921 48.9876 4.00225 48.9876 4.06797C48.9876 4.13369 48.9616 4.19672 48.9152 4.24321C48.8936 4.26766 48.8672 4.28752 48.8378 4.30161C48.8084 4.31569 48.7765 4.32373 48.7439 4.32524L48.7495 4.31965ZM23.9511 3.76035C23.9253 3.7603 23.8996 3.75654 23.8748 3.74917C23.4838 3.62426 23.089 3.51426 22.6999 3.42104C22.6359 3.40572 22.5806 3.36558 22.5462 3.30947C22.5119 3.25335 22.5011 3.18585 22.5164 3.12182C22.5318 3.05779 22.5718 3.00247 22.6279 2.96803C22.6839 2.93359 22.7513 2.92286 22.8153 2.93818C23.2156 3.03513 23.6234 3.14885 24.0256 3.27563C24.0823 3.29326 24.1307 3.33067 24.1621 3.38104C24.1935 3.43141 24.2059 3.4914 24.1968 3.5501C24.1878 3.6088 24.1581 3.66231 24.113 3.7009C24.0679 3.73948 24.0104 3.76058 23.9511 3.76035ZM34.7359 3.57392C34.6762 3.57395 34.6186 3.55207 34.5739 3.5124C34.5246 3.46893 34.4944 3.40775 34.4899 3.34213C34.4854 3.27651 34.5069 3.21175 34.5497 3.16191C34.8261 2.84298 35.1188 2.53868 35.4267 2.25025C35.4761 2.2055 35.5412 2.18222 35.6078 2.18555C35.6743 2.18887 35.7368 2.21851 35.7815 2.26796C35.8261 2.3174 35.8494 2.3826 35.8461 2.4492C35.8428 2.51581 35.8132 2.57836 35.7638 2.62311C35.4678 2.898 35.1874 3.18929 34.924 3.49562C34.8994 3.52296 34.8692 3.54463 34.8355 3.55912C34.8017 3.5736 34.7652 3.58056 34.7285 3.57951L34.7359 3.57392ZM15.4156 3.54222C15.3554 3.54358 15.2967 3.52288 15.2505 3.48399C15.2044 3.44509 15.1741 3.39069 15.1651 3.33098C15.1562 3.27127 15.1694 3.21035 15.2021 3.15966C15.2349 3.10897 15.285 3.07198 15.343 3.05564C15.7434 2.93446 16.1549 2.83192 16.5682 2.74988C16.6004 2.74284 16.6337 2.74232 16.6662 2.74834C16.6986 2.75436 16.7295 2.7668 16.7571 2.78493C16.7846 2.80307 16.8083 2.82653 16.8267 2.85395C16.845 2.88137 16.8578 2.91218 16.8641 2.94459C16.8704 2.977 16.8702 3.01034 16.8635 3.04267C16.8568 3.07499 16.8437 3.10565 16.825 3.13284C16.8062 3.16003 16.7823 3.1832 16.7545 3.201C16.7267 3.21879 16.6957 3.23086 16.6632 3.23648C16.2666 3.31664 15.8718 3.42291 15.4864 3.53104C15.4621 3.54134 15.4363 3.54764 15.4101 3.54968L15.4156 3.54222ZM21.5435 3.18054H21.5044C21.1004 3.11529 20.6945 3.06682 20.296 3.03699C20.2626 3.03591 20.2297 3.02807 20.1995 3.01395C20.1692 2.99983 20.142 2.97971 20.1197 2.95481C20.0974 2.92992 20.0803 2.90075 20.0696 2.86908C20.0588 2.8374 20.0545 2.80387 20.057 2.77051C20.0595 2.73714 20.0688 2.70463 20.0842 2.67493C20.0996 2.64523 20.1208 2.61896 20.1466 2.5977C20.1724 2.57644 20.2023 2.56063 20.2343 2.55122C20.2664 2.54181 20.3 2.539 20.3332 2.54295C20.7466 2.57464 21.1656 2.62311 21.5826 2.69023C21.6464 2.69759 21.7048 2.72941 21.7455 2.77901C21.7863 2.82861 21.8062 2.89211 21.8012 2.95614C21.7961 3.02017 21.7664 3.07974 21.7183 3.12229C21.6703 3.16484 21.6076 3.18706 21.5435 3.18428V3.18054ZM17.84 3.05936C17.7786 3.0592 17.7195 3.03622 17.6741 2.99489C17.6287 2.95355 17.6002 2.8968 17.5942 2.83565C17.5909 2.8033 17.594 2.77061 17.6033 2.73947C17.6127 2.70833 17.6281 2.67936 17.6487 2.65422C17.6693 2.62909 17.6947 2.60828 17.7233 2.59303C17.752 2.57777 17.7835 2.56835 17.8158 2.56532C18.2292 2.52244 18.6518 2.50007 19.0745 2.49634C19.107 2.49559 19.1393 2.50136 19.1696 2.5133C19.1998 2.52524 19.2274 2.54311 19.2506 2.56586C19.2738 2.58862 19.2923 2.61579 19.3049 2.6458C19.3175 2.6758 19.324 2.70802 19.324 2.74057C19.3245 2.77328 19.3185 2.80578 19.3064 2.83617C19.2943 2.86656 19.2763 2.89425 19.2535 2.91765C19.2306 2.94105 19.2034 2.95968 19.1733 2.97249C19.1432 2.98529 19.1109 2.99201 19.0782 2.99225C18.6723 2.99225 18.2627 3.01835 17.866 3.0575L17.84 3.05936ZM46.9098 2.66226C46.8551 2.66228 46.802 2.6439 46.759 2.61006C46.4313 2.35651 46.0961 2.12161 45.7647 1.9128C45.7089 1.8777 45.6693 1.82183 45.6546 1.7575C45.6399 1.69317 45.6514 1.62564 45.6864 1.56977C45.7215 1.51389 45.7773 1.47426 45.8416 1.45957C45.9058 1.44489 45.9732 1.45636 46.029 1.49146C46.3735 1.70959 46.7217 1.95382 47.0625 2.21856C47.0883 2.23829 47.1099 2.26295 47.1261 2.29111C47.1424 2.31927 47.1529 2.35036 47.157 2.38261C47.1612 2.41485 47.1589 2.4476 47.1504 2.47896C47.1418 2.51032 47.1271 2.53967 47.1072 2.56532C47.084 2.59752 47.0535 2.62376 47.0182 2.6419C46.9829 2.66005 46.9439 2.66958 46.9042 2.66972L46.9098 2.66226ZM36.5588 1.90534C36.5058 1.90544 36.4542 1.88851 36.4115 1.85704C36.3688 1.82557 36.3374 1.78122 36.3218 1.73052C36.3061 1.67981 36.3072 1.62542 36.3247 1.57534C36.3422 1.52527 36.3753 1.48214 36.4192 1.45231C36.7698 1.21018 37.1383 0.995161 37.5215 0.809124C37.5808 0.780693 37.6489 0.776997 37.7109 0.798849C37.7728 0.8207 37.8236 0.86631 37.852 0.925644C37.8804 0.984978 37.8841 1.05318 37.8623 1.11523C37.8404 1.17729 37.7949 1.22813 37.7356 1.25656C37.375 1.42994 37.0288 1.63193 36.7003 1.8606C36.6583 1.89354 36.6067 1.91187 36.5533 1.9128L36.5588 1.90534ZM44.8132 1.34605C44.777 1.34626 44.7413 1.33796 44.7089 1.32181C44.3466 1.15123 43.9733 1.00487 43.5917 0.883696C43.529 0.864165 43.4766 0.82049 43.446 0.762277C43.4154 0.704063 43.4092 0.636079 43.4287 0.573283C43.4483 0.510488 43.4919 0.458026 43.55 0.427434C43.6082 0.396841 43.6761 0.390624 43.7388 0.410155C44.1435 0.537298 44.5392 0.691772 44.923 0.87251C44.9525 0.886326 44.979 0.905822 45.0009 0.929889C45.0229 0.953955 45.0399 0.98212 45.0509 1.01277C45.062 1.04342 45.0669 1.07595 45.0654 1.1085C45.0639 1.14106 45.056 1.173 45.0422 1.20249C45.0232 1.24909 44.9907 1.28892 44.9489 1.31684C44.9071 1.34475 44.8578 1.35947 44.8076 1.3591L44.8132 1.34605ZM38.7821 0.827762C38.7229 0.827543 38.6658 0.806131 38.6211 0.767397C38.5763 0.728663 38.5469 0.675166 38.5381 0.616592C38.5293 0.558017 38.5418 0.498234 38.5732 0.448058C38.6046 0.397882 38.653 0.36063 38.7095 0.343042C39.1176 0.220169 39.5347 0.129776 39.957 0.0727116C40.0222 0.0638115 40.0883 0.081203 40.1406 0.121061C40.193 0.160919 40.2274 0.219975 40.2363 0.285242C40.2452 0.35051 40.2278 0.416642 40.188 0.469086C40.1482 0.521531 40.0892 0.555991 40.024 0.564891C39.6276 0.617528 39.236 0.70169 38.8529 0.816577C38.8289 0.828812 38.8031 0.837002 38.7765 0.840814L38.7821 0.827762ZM42.4577 0.605907H42.4168C42.0215 0.539714 41.622 0.502948 41.2213 0.495912C41.1558 0.494445 41.0935 0.467223 41.0479 0.420128C41.0022 0.373034 40.9769 0.309847 40.9774 0.244227C40.9798 0.17861 41.0076 0.116494 41.0548 0.0709422C41.102 0.0253903 41.1651 -4.43316e-05 41.2307 5.80052e-08C41.6555 0.00805482 42.0793 0.0466886 42.4987 0.115593C42.5596 0.126277 42.6143 0.159369 42.652 0.208372C42.6898 0.257374 42.7079 0.31874 42.7027 0.380416C42.6976 0.442091 42.6696 0.499615 42.6243 0.541684C42.5789 0.583754 42.5195 0.607327 42.4577 0.607773V0.605907Z" fill="#58595B"/>
<path d="M51.5975 14.3691C50.0805 17.4305 49.9977 21.0874 48.5433 24.2232C46.7612 28.0755 43.4105 30.934 39.6217 32.6591C35.4198 34.5383 30.7518 35.081 26.2376 34.2149C21.3332 33.2844 17.1504 30.6418 14.052 26.7039C12.3214 24.506 11.2481 21.9714 9.7109 19.6618C8.82169 18.3256 7.43542 17.1495 5.87793 17.0695C7.01935 16.4591 8.75725 17.1644 9.8011 17.6594C11.7234 18.58 13.6965 19.3877 15.7107 20.0787C19.2483 21.2856 22.9339 21.9927 26.6629 22.1798C32.9536 22.4627 39.1504 20.9962 44.8207 18.2866C47.1718 17.1508 49.4368 15.8414 51.5975 14.3691Z" fill="#B33129"/>
<path d="M43.3018 5.20948C46.5609 7.15623 48.2145 11.0478 51.5975 12.7417C46.8457 16.025 41.7259 18.7151 36.1067 20.0306C28.6138 21.7835 20.8878 20.7911 13.7759 17.9223C11.7413 17.0991 8.36015 14.8805 5.87793 15.525C8.18999 12.9394 10.9811 10.6847 13.7334 8.71515C15.5201 7.43759 17.4438 6.59349 19.6522 6.73418C21.6543 6.88287 23.5985 7.49092 25.3418 8.51362C26.8215 9.38434 27.9757 10.9033 29.6274 11.4813C31.2791 12.0592 32.9678 11.4357 34.3181 10.4166C37.0963 8.31971 39.0698 2.68859 43.3018 5.20948Z" fill="#EF4136"/>
<path d="M53.9357 11.984C53.899 11.8865 53.8387 11.7996 53.7601 11.7311C53.6815 11.6626 53.5871 11.6147 53.4854 11.5916C49.3898 10.507 47.6255 6.03867 44.11 4.03221C42.6812 3.21407 40.9447 2.98825 39.4121 3.66201C37.8091 4.37094 36.9269 5.89985 35.8688 7.2085C34.4622 8.94842 32.1994 11.0956 29.7865 10.0609C28.0556 9.32047 26.7695 7.786 25.0164 7.00119C21.5805 5.45747 17.8092 5.12984 14.5031 7.13446C12.4942 8.35055 10.6651 9.98312 8.90268 11.5231C7.3784 12.8169 5.97869 14.2502 4.72185 15.8045C4.45564 16.0371 4.22465 16.307 4.03615 16.6059C3.53393 17.3908 4.77743 18.0978 5.2815 17.3315C5.29466 17.3116 5.3089 17.2925 5.32414 17.2741C8.14288 17.2131 9.4012 20.5837 10.5706 22.7142C11.6791 24.779 13.029 26.7052 14.5921 28.4522C17.7812 31.9415 22.0687 34.2371 26.7435 34.9584C34.7327 36.2541 43.7931 33.5017 48.5392 26.6623C49.8864 24.7243 50.6574 22.568 51.2041 20.2875C51.823 17.7073 52.2734 14.9438 54.0691 12.8744C54.1241 12.8092 54.1645 12.7332 54.1878 12.6512C54.211 12.5693 54.2165 12.4833 54.2038 12.3991C54.1912 12.3149 54.1608 12.2343 54.1145 12.1627C54.0683 12.0911 54.0073 12.0302 53.9357 11.984ZM13.8545 8.5264C15.6447 7.28254 17.572 6.4607 19.7847 6.59767C21.7906 6.74244 23.7386 7.33446 25.4852 8.33019C26.9678 9.17794 28.1242 10.6569 29.7791 11.2196C31.434 11.7823 33.126 11.1752 34.4788 10.183C37.2587 8.14695 39.2397 2.65878 43.4799 5.11319C46.7452 7.00859 48.402 10.7976 51.7915 12.4468C47.0306 15.6434 41.901 18.2626 36.2709 19.5434C28.7636 21.2501 21.0227 20.2838 13.8971 17.4907C11.8586 16.6892 8.47088 14.5291 5.98387 15.1566C8.30039 12.6393 11.1061 10.444 13.8545 8.5264ZM48.8801 23.8636C47.0862 27.6952 43.7134 30.5383 39.8995 32.2541C35.6697 34.1233 30.9708 34.663 26.4267 33.8016C21.4897 32.8761 17.2792 30.2477 14.1602 26.331C12.4182 24.145 11.3378 21.624 9.79038 19.3269C8.89528 17.9979 7.4998 16.8281 5.93198 16.7485C7.08097 16.1413 8.83041 16.8429 9.88118 17.3352C11.8162 18.2508 13.8024 19.0542 15.83 19.7415C19.391 20.9419 23.101 21.6452 26.8547 21.8313C33.1872 22.1126 39.4251 20.654 45.133 17.959C47.4997 16.8281 49.7797 15.5246 51.9546 14.059C50.4202 17.1076 50.3368 20.7447 48.8727 23.8636H48.8801Z" fill="#231F20"/>
</svg>
