<svg width="87" height="29" viewBox="0 0 87 29" fill="none" xmlns="http://www.w3.org/2000/svg">
<path d="M23.8712 27.823C24.9511 27.8242 26.0302 27.763 27.1029 27.6398C27.7307 27.5628 28.3511 27.4694 28.9549 27.3594C33.0779 26.6075 36.9781 24.9508 40.3687 22.511C41.6153 21.6129 42.7542 20.577 43.7634 19.4234C44.4415 20.207 45.1849 20.9327 45.9858 21.593C49.6144 24.563 53.9614 26.5483 58.5998 27.3539C60.2925 27.6584 62.0094 27.8117 63.7298 27.812C66.9186 27.8212 70.0846 27.2812 73.0861 26.216C77.8661 24.5119 81.9442 21.6351 84.8815 17.9191C85.087 17.6644 85.2685 17.4262 85.4371 17.1953C85.6449 16.9068 85.8136 16.5926 85.939 16.2608C86.5807 14.9706 86.8984 13.5462 86.865 12.1086C86.7835 7.64681 82.8609 3.73287 78.4736 3.73287C76.8683 3.73643 75.3079 4.25747 74.0288 5.21709C73.2208 5.81829 72.5437 6.57459 72.0381 7.44074C71.5324 8.30689 71.2086 9.26507 71.0859 10.2579C71.0516 10.5707 71.0392 10.8854 71.0489 11.1998C70.0488 10.4228 69.0765 9.52682 68.0616 8.59232C66.5356 7.18689 64.9558 5.73382 63.0612 4.46949C62.3707 4.01082 61.6533 3.59292 60.9129 3.21798C58.0812 1.79606 55.0532 1.04479 52.1548 1.04479C49.8927 1.02931 47.6557 1.51516 45.608 2.46671C45.2293 2.64292 44.8777 2.87117 44.5635 3.14468C44.2828 3.32116 44.012 3.51262 43.7523 3.71822C43.5264 3.5362 43.2906 3.36457 43.0449 3.20332C42.7138 2.90518 42.3392 2.6581 41.9337 2.47037C39.8831 1.51757 37.643 1.03108 35.3776 1.04662C32.4417 1.07721 29.551 1.76637 26.9232 3.06223C26.1158 3.45338 25.3361 3.89846 24.5897 4.39436C22.6599 5.66602 21.0469 7.14291 19.4875 8.57765C18.4374 9.54331 17.4318 10.4668 16.3928 11.2639C16.5019 9.79634 16.1199 8.33403 15.3057 7.1026C13.8963 4.97889 11.6554 3.75853 9.16075 3.75853C5.60492 3.75853 2.20465 6.25055 1.07864 9.67891C0.382728 11.7865 0.545521 14.0796 1.53238 16.0702C1.6632 16.4796 1.85953 16.8657 2.1139 17.2136C6.97169 23.8523 15.1038 27.8175 23.8656 27.8175L23.8712 27.823Z" fill="white"/>
<path d="M23.5026 28.476C23.4235 28.476 23.3476 28.4441 23.2916 28.3873C23.2356 28.3305 23.2042 28.2535 23.2042 28.1732C23.2042 28.093 23.2356 28.016 23.2916 27.9592C23.3476 27.9024 23.4235 27.8705 23.5026 27.8705C23.9921 27.8705 24.4889 27.8555 24.9857 27.8291C25.0251 27.8258 25.0648 27.8307 25.1024 27.8434C25.1399 27.8561 25.1744 27.8765 25.2039 27.9033C25.2334 27.93 25.2572 27.9626 25.2739 27.999C25.2906 28.0354 25.2997 28.0748 25.3009 28.115C25.3031 28.1547 25.2976 28.1946 25.2847 28.2322C25.2717 28.2698 25.2516 28.3044 25.2254 28.3341C25.1992 28.3638 25.1675 28.388 25.1321 28.4052C25.0967 28.4225 25.0583 28.4325 25.0191 28.4346C24.5111 28.4572 24.0032 28.476 23.5026 28.476ZM63.6366 28.4572C63.5574 28.4572 63.4815 28.4253 63.4255 28.3685C63.3696 28.3117 63.3381 28.2347 63.3381 28.1544C63.3381 28.0742 63.3696 27.9972 63.4255 27.9404C63.4815 27.8836 63.5574 27.8517 63.6366 27.8517C64.1316 27.8517 64.6284 27.8291 65.1197 27.7991C65.1991 27.7944 65.277 27.8219 65.3364 27.8755C65.3959 27.9291 65.4319 28.0044 65.4367 28.0849C65.4392 28.1245 65.4339 28.1643 65.4212 28.2019C65.4084 28.2395 65.3885 28.2742 65.3624 28.3039C65.3364 28.3336 65.3048 28.3578 65.2695 28.3751C65.2342 28.3924 65.1959 28.4024 65.1567 28.4045C64.6599 28.4365 64.152 28.4534 63.6459 28.4572H63.6366ZM22.2402 28.4572H22.2198C21.7192 28.4346 21.2113 28.3989 20.7126 28.35C20.6337 28.3423 20.561 28.3031 20.5106 28.241C20.4602 28.1789 20.4362 28.0991 20.4438 28.0191C20.4514 27.939 20.4901 27.8653 20.5513 27.8142C20.6124 27.7631 20.6912 27.7387 20.7701 27.7464C21.2595 27.7934 21.7545 27.8291 22.2531 27.8517C22.3323 27.8535 22.4075 27.887 22.4623 27.945C22.5171 28.003 22.5468 28.0807 22.5451 28.161C22.5434 28.2413 22.5103 28.3176 22.4531 28.3732C22.3959 28.4287 22.3193 28.4589 22.2402 28.4572ZM62.1405 28.4478H62.1276C61.627 28.4252 61.1191 28.3876 60.6204 28.3387C60.5812 28.3352 60.5431 28.3238 60.5083 28.3052C60.4735 28.2866 60.4427 28.2611 60.4177 28.2303C60.3926 28.1995 60.3739 28.164 60.3626 28.1258C60.3512 28.0876 60.3475 28.0475 60.3516 28.0078C60.3596 27.9279 60.3983 27.8544 60.4594 27.8034C60.5205 27.7523 60.599 27.7278 60.6779 27.7351C61.1654 27.784 61.6622 27.8197 62.1609 27.8404C62.2363 27.8479 62.3061 27.8839 62.3564 27.9414C62.4067 27.9988 62.4337 28.0734 62.432 28.1502C62.4304 28.227 62.4002 28.3003 62.3475 28.3555C62.2949 28.4107 62.2236 28.4436 62.148 28.4478H62.1405ZM26.4836 28.3105C26.4073 28.3106 26.3339 28.281 26.2785 28.2278C26.223 28.1747 26.1897 28.102 26.1855 28.0247C26.1812 27.9475 26.2063 27.8715 26.2555 27.8124C26.3047 27.7533 26.3744 27.7155 26.4503 27.7069L26.695 27.6768C27.1047 27.6261 27.5162 27.5678 27.9167 27.502C27.9924 27.4949 28.0679 27.5172 28.128 27.5644C28.1881 27.6116 28.2284 27.6802 28.2406 27.7563C28.2528 27.8324 28.2361 27.9104 28.1939 27.9745C28.1517 28.0386 28.087 28.0841 28.013 28.1018C27.6052 28.1676 27.1862 28.2278 26.7673 28.2804L26.5151 28.3086L26.4836 28.3105ZM66.6157 28.2823C66.5411 28.2793 66.4703 28.2481 66.4171 28.195C66.3639 28.1419 66.3322 28.0706 66.328 27.9949C66.3238 27.9193 66.3476 27.8449 66.3946 27.7861C66.4416 27.7272 66.5086 27.6883 66.5824 27.6768C67.0736 27.6204 67.5668 27.549 68.0469 27.4662C68.1251 27.4528 68.2053 27.4714 68.27 27.5179C68.3347 27.5645 68.3784 27.6352 68.3917 27.7144C68.405 27.7937 68.3867 27.8751 68.3408 27.9407C68.2949 28.0063 68.2252 28.0507 68.147 28.0642C67.6557 28.1488 67.1515 28.2221 66.6491 28.2804L66.6157 28.2823ZM19.2592 28.1563H19.2147C18.7179 28.0811 18.2173 27.9909 17.7316 27.8893C17.6539 27.8731 17.5858 27.8263 17.5421 27.7591C17.4985 27.6919 17.483 27.6099 17.499 27.5311C17.5149 27.4523 17.5611 27.3832 17.6273 27.3389C17.6936 27.2947 17.7744 27.2789 17.8521 27.2951C18.3304 27.3948 18.8198 27.4832 19.3074 27.5565C19.3848 27.5644 19.4562 27.6027 19.5062 27.6631C19.5563 27.7236 19.581 27.8015 19.5752 27.8803C19.5694 27.959 19.5335 28.0323 19.4752 28.0846C19.4168 28.1369 19.3406 28.164 19.2629 28.1601L19.2592 28.1563ZM59.1596 28.1563H59.1151C58.811 28.1112 58.5089 28.0604 58.2067 28.004C58.0213 27.9683 57.8192 27.9307 57.6264 27.8912C57.588 27.8833 57.5514 27.8678 57.5188 27.8456C57.4863 27.8233 57.4584 27.7948 57.4367 27.7616C57.415 27.7285 57.4 27.6913 57.3924 27.6522C57.3849 27.6131 57.385 27.5729 57.3928 27.5339C57.4006 27.4949 57.4159 27.4578 57.4378 27.4248C57.4597 27.3918 57.4879 27.3635 57.5206 27.3415C57.5533 27.3195 57.5899 27.3042 57.6285 27.2966C57.667 27.289 57.7066 27.2891 57.7451 27.297C57.9305 27.3365 58.1158 27.3722 58.3123 27.4061C58.609 27.4625 58.9056 27.5114 59.2022 27.5565C59.2792 27.5647 59.3501 27.603 59.3998 27.6632C59.4495 27.7234 59.4742 27.8009 59.4687 27.8792C59.4632 27.9576 59.4278 28.0307 59.3701 28.0831C59.3125 28.1355 59.2369 28.1631 59.1596 28.1601V28.1563ZM29.4498 27.8216C29.3749 27.8237 29.302 27.7971 29.2455 27.7472C29.189 27.6972 29.1532 27.6276 29.145 27.552C29.1368 27.4765 29.157 27.4006 29.2014 27.3394C29.2458 27.2782 29.3113 27.2363 29.3849 27.2218C29.865 27.1165 30.3489 26.9962 30.8235 26.8645C30.8999 26.8433 30.9816 26.8538 31.0504 26.8937C31.1192 26.9335 31.1697 26.9995 31.1905 27.077C31.2114 27.1546 31.2011 27.2373 31.1618 27.3072C31.1225 27.377 31.0575 27.4281 30.9811 27.4493C30.4972 27.5828 30.0022 27.7069 29.5128 27.816L29.4498 27.8216ZM69.5782 27.7746C69.5049 27.7743 69.4343 27.7467 69.3798 27.6969C69.3253 27.6472 69.2907 27.5789 69.2827 27.505C69.2747 27.4311 69.2938 27.3568 69.3363 27.2962C69.3788 27.2357 69.4418 27.1931 69.5133 27.1767C69.9934 27.0657 70.4754 26.9416 70.9463 26.8006C71.0207 26.7848 71.0983 26.7983 71.1633 26.8382C71.2283 26.8782 71.276 26.9416 71.2967 27.0158C71.3174 27.09 71.3096 27.1694 71.2748 27.238C71.2401 27.3066 71.181 27.3593 71.1095 27.3854C70.6293 27.5245 70.1362 27.6505 69.6449 27.7615C69.6203 27.7695 69.5947 27.7739 69.5689 27.7746H69.5782ZM16.3468 27.5471C16.3212 27.5467 16.2957 27.5436 16.2708 27.5377C15.7851 27.4079 15.2957 27.265 14.8192 27.109C14.7818 27.0966 14.7472 27.0769 14.7174 27.051C14.6875 27.0251 14.663 26.9935 14.6451 26.958C14.6273 26.9224 14.6166 26.8837 14.6135 26.8439C14.6105 26.8042 14.6152 26.7642 14.6273 26.7263C14.6395 26.6884 14.6589 26.6533 14.6845 26.623C14.71 26.5927 14.7412 26.5678 14.7762 26.5498C14.8113 26.5317 14.8495 26.5208 14.8886 26.5177C14.9278 26.5146 14.9672 26.5194 15.0046 26.5317C15.4718 26.684 15.9501 26.825 16.4246 26.951C16.4951 26.9693 16.5566 27.013 16.5976 27.074C16.6385 27.135 16.6561 27.2091 16.647 27.2823C16.6379 27.3555 16.6027 27.4228 16.5481 27.4715C16.4935 27.5203 16.4232 27.5472 16.3505 27.5471H16.3468ZM56.2434 27.5471C56.2188 27.5498 56.1939 27.5498 56.1693 27.5471C55.6836 27.4192 55.1942 27.2782 54.7159 27.1259C54.6402 27.101 54.5773 27.0465 54.5412 26.9746C54.505 26.9027 54.4985 26.8191 54.5231 26.7423C54.5477 26.6655 54.6013 26.6018 54.6722 26.5651C54.7432 26.5284 54.8255 26.5218 54.9013 26.5468C55.3684 26.6972 55.8467 26.8344 56.3232 26.9585C56.3618 26.9686 56.3981 26.9863 56.4299 27.0108C56.4618 27.0352 56.4885 27.0658 56.5085 27.1008C56.5285 27.1358 56.5414 27.1745 56.5465 27.2147C56.5517 27.2548 56.5488 27.2956 56.5382 27.3346C56.5183 27.3993 56.4775 27.4553 56.4223 27.4936C56.3671 27.5318 56.3008 27.55 56.2342 27.5452L56.2434 27.5471ZM32.3288 27.0244C32.2659 27.0243 32.2046 27.0043 32.1534 26.9673C32.1023 26.9302 32.0638 26.8778 32.0433 26.8175C32.0202 26.7427 32.0266 26.6617 32.0611 26.5915C32.0957 26.5214 32.1558 26.4676 32.2287 26.4415C32.6977 26.2835 33.1667 26.1143 33.6209 25.9338C33.6947 25.9046 33.7768 25.9063 33.8493 25.9386C33.9218 25.9709 33.9787 26.031 34.0075 26.1058C34.0362 26.1806 34.0345 26.2639 34.0027 26.3375C33.9709 26.411 33.9116 26.4687 33.8378 26.4979C33.3725 26.6859 32.8942 26.8551 32.4159 27.015C32.3863 27.0225 32.3556 27.0251 32.3251 27.0225L32.3288 27.0244ZM72.4442 26.9529C72.3742 26.9516 72.3068 26.9255 72.2537 26.8792C72.2007 26.8328 72.1652 26.7691 72.1536 26.699C72.1419 26.629 72.1548 26.557 72.1899 26.4956C72.225 26.4341 72.2802 26.387 72.346 26.3625L72.6667 26.2478C73.0375 26.1162 73.386 25.977 73.7308 25.8341C73.7673 25.819 73.8064 25.8114 73.8458 25.8117C73.8852 25.8119 73.9242 25.8201 73.9605 25.8356C73.9969 25.8512 74.0298 25.8738 74.0575 25.9023C74.0852 25.9307 74.1071 25.9644 74.122 26.0015C74.1368 26.0385 74.1443 26.0781 74.1441 26.1181C74.1438 26.1581 74.1358 26.1976 74.1205 26.2345C74.1051 26.2713 74.0828 26.3048 74.0548 26.3328C74.0267 26.3609 73.9935 26.3831 73.957 26.3982C73.6047 26.543 73.2395 26.6859 72.8688 26.8213L72.5425 26.9379C72.5108 26.9485 72.4776 26.9535 72.4442 26.9529ZM53.383 26.6351C53.3468 26.6346 53.311 26.6276 53.2773 26.6144C52.8083 26.4377 52.3374 26.2384 51.8776 26.0391C51.8039 26.0069 51.7458 25.9463 51.716 25.8707C51.6863 25.795 51.6874 25.7105 51.7191 25.6357C51.7508 25.5609 51.8106 25.502 51.8851 25.4718C51.9597 25.4417 52.043 25.4428 52.1168 25.475C52.5673 25.6762 53.0289 25.8661 53.4868 26.0391C53.5517 26.0646 53.6058 26.1123 53.6399 26.1739C53.674 26.2355 53.686 26.3071 53.6737 26.3767C53.6615 26.4462 53.6258 26.5093 53.5727 26.555C53.5197 26.6008 53.4526 26.6265 53.383 26.6276V26.6351ZM13.49 26.6238C13.4532 26.6243 13.4166 26.6173 13.3825 26.6032C12.9135 26.4151 12.4426 26.2271 11.9847 26.0184C11.9177 25.982 11.8668 25.9212 11.8423 25.8483C11.8177 25.7754 11.8213 25.6958 11.8523 25.6254C11.8834 25.5551 11.9395 25.4993 12.0095 25.4693C12.0794 25.4393 12.158 25.4373 12.2294 25.4637C12.6762 25.6668 13.1359 25.8585 13.5957 26.0372C13.6615 26.0619 13.7167 26.1094 13.7515 26.1712C13.7862 26.2331 13.7984 26.3055 13.7858 26.3755C13.7731 26.4456 13.7366 26.5089 13.6825 26.5543C13.6284 26.5997 13.5602 26.6244 13.49 26.6238ZM35.1114 25.9225C35.0429 25.9231 34.9762 25.8997 34.9226 25.8563C34.8691 25.8129 34.8319 25.7521 34.8173 25.6841C34.8027 25.6161 34.8117 25.5452 34.8426 25.4831C34.8736 25.4211 34.9246 25.3717 34.9872 25.3433C35.4359 25.1384 35.8826 24.9184 36.3201 24.689C36.3907 24.6521 36.4728 24.6451 36.5484 24.6696C36.5859 24.6818 36.6206 24.7012 36.6506 24.727C36.6806 24.7527 36.7053 24.7842 36.7234 24.8197C36.7414 24.8551 36.7523 24.8938 36.7556 24.9335C36.7589 24.9732 36.7544 25.0132 36.7424 25.0512C36.7305 25.0892 36.7113 25.1244 36.6859 25.1548C36.6605 25.1853 36.6294 25.2104 36.5945 25.2286C36.1496 25.4618 35.6917 25.6856 35.2338 25.8962C35.1951 25.9131 35.1535 25.9221 35.1114 25.9225ZM75.2157 25.8003C75.1476 25.8008 75.0813 25.7776 75.028 25.7346C74.9746 25.6916 74.9373 25.6314 74.9224 25.5639C74.9075 25.4965 74.9157 25.4259 74.9458 25.3639C74.9759 25.3018 75.026 25.2521 75.0878 25.223C75.5346 25.0086 75.9795 24.7811 76.4096 24.5461C76.4791 24.5133 76.5584 24.5087 76.6312 24.5332C76.7039 24.5578 76.7647 24.6096 76.8009 24.6782C76.8372 24.7467 76.8462 24.8267 76.8262 24.9018C76.8062 24.9769 76.7586 25.0413 76.6933 25.082C76.2539 25.3208 75.7997 25.5539 75.3418 25.7721C75.3022 25.7905 75.2593 25.8001 75.2157 25.8003ZM50.6448 25.4242C50.5978 25.4248 50.5514 25.4138 50.5095 25.3922C50.0609 25.1628 49.6141 24.9165 49.1803 24.6627C49.146 24.6433 49.1157 24.6172 49.0913 24.586C49.0669 24.5548 49.0488 24.5189 49.0381 24.4806C49.0273 24.4423 49.0241 24.4022 49.0286 24.3626C49.0331 24.323 49.0453 24.2847 49.0644 24.2499C49.0835 24.2151 49.1092 24.1844 49.14 24.1597C49.1708 24.1349 49.2061 24.1166 49.2439 24.1057C49.2817 24.0948 49.3212 24.0915 49.3602 24.0961C49.3993 24.1007 49.437 24.113 49.4713 24.1324C49.8959 24.3825 50.3334 24.6213 50.769 24.8469C50.8247 24.8797 50.8684 24.9299 50.8936 24.99C50.9189 25.0501 50.9243 25.1168 50.909 25.1802C50.8938 25.2437 50.8588 25.3004 50.8092 25.342C50.7596 25.3836 50.698 25.4078 50.6337 25.411L50.6448 25.4242ZM10.7574 25.396C10.7102 25.3966 10.6636 25.385 10.6221 25.3621C10.1753 25.1309 9.7304 24.8827 9.2966 24.625C9.25951 24.6066 9.22656 24.5807 9.19981 24.5487C9.17307 24.5168 9.1531 24.4796 9.14116 24.4396C9.12922 24.3995 9.12555 24.3573 9.1304 24.3157C9.13525 24.2741 9.1485 24.234 9.16934 24.1978C9.19017 24.1616 9.21813 24.1302 9.25147 24.1055C9.28482 24.0808 9.32283 24.0633 9.36314 24.0542C9.40344 24.045 9.44516 24.0444 9.48571 24.0524C9.52625 24.0603 9.56474 24.0767 9.59878 24.1004C10.0233 24.3543 10.459 24.5968 10.8965 24.8225C10.9569 24.8531 11.0053 24.9036 11.0337 24.9658C11.0622 25.028 11.069 25.0981 11.0531 25.1647C11.0372 25.2312 10.9994 25.2904 10.9461 25.3324C10.8927 25.3744 10.8268 25.3968 10.7593 25.396H10.7574ZM37.7661 24.5329C37.7005 24.5332 37.6365 24.5116 37.5842 24.4713C37.5319 24.4309 37.4941 24.3743 37.4768 24.31C37.4595 24.2457 37.4636 24.1775 37.4884 24.1158C37.5132 24.0541 37.5574 24.0024 37.6141 23.9688C38.0387 23.7168 38.4595 23.448 38.8673 23.1715C38.9334 23.1338 39.011 23.1228 39.0848 23.1407C39.1585 23.1586 39.2228 23.2042 39.2648 23.2682C39.3068 23.3322 39.3234 23.4099 39.3112 23.4858C39.299 23.5617 39.259 23.6301 39.1992 23.6773C38.7821 23.9594 38.352 24.2415 37.9182 24.4915C37.8714 24.5167 37.819 24.5291 37.7661 24.5273V24.5329ZM77.8482 24.3674C77.7971 24.3677 77.7469 24.3545 77.7023 24.3291C77.6578 24.3037 77.6206 24.267 77.5942 24.2227C77.5736 24.1887 77.5597 24.151 77.5535 24.1116C77.5472 24.0722 77.5487 24.032 77.5578 23.9932C77.5669 23.9544 77.5835 23.9179 77.6067 23.8856C77.6298 23.8533 77.6589 23.826 77.6925 23.8052C78.1133 23.5438 78.5304 23.2674 78.9308 22.9854C78.9963 22.945 79.0745 22.9316 79.1494 22.9477C79.2243 22.9639 79.2903 23.0085 79.3338 23.0724C79.3774 23.1363 79.3953 23.2146 79.3838 23.2914C79.3723 23.3682 79.3323 23.4377 79.2719 23.4856C78.8623 23.7732 78.4359 24.0497 78.0039 24.3223C77.9566 24.3497 77.9027 24.3634 77.8482 24.3618V24.3674ZM48.055 23.9086C47.9969 23.9084 47.9401 23.8907 47.8919 23.8579C47.4692 23.5777 47.0521 23.2825 46.6516 22.9816C46.6169 22.9592 46.587 22.9298 46.5639 22.8951C46.5409 22.8605 46.525 22.8214 46.5175 22.7804C46.5099 22.7393 46.5108 22.697 46.52 22.6563C46.5293 22.6156 46.5467 22.5772 46.5711 22.5436C46.5956 22.51 46.6267 22.4818 46.6623 22.4609C46.698 22.44 46.7375 22.4267 46.7785 22.4219C46.8194 22.4172 46.8609 22.421 46.9003 22.4332C46.9397 22.4453 46.9762 22.4656 47.0076 22.4927C47.3987 22.788 47.8066 23.0775 48.22 23.3521C48.2779 23.3862 48.3227 23.439 48.3474 23.5021C48.3721 23.5652 48.3752 23.6348 48.3562 23.6999C48.3371 23.765 48.2971 23.8217 48.2425 23.8609C48.1879 23.9001 48.1218 23.9196 48.055 23.9162V23.9086ZM8.17873 23.8616C8.11994 23.862 8.06242 23.8443 8.01374 23.8109C7.59477 23.5288 7.17951 23.2298 6.77907 22.9252C6.74767 22.9013 6.72122 22.8713 6.70124 22.837C6.68127 22.8026 6.66815 22.7647 6.66264 22.7252C6.65152 22.6455 6.67206 22.5646 6.71975 22.5003C6.76744 22.4359 6.83838 22.3934 6.91695 22.3822C6.99552 22.3709 7.07529 22.3917 7.13872 22.4401C7.52988 22.7391 7.93588 23.0305 8.34558 23.3069C8.399 23.343 8.43953 23.3956 8.46116 23.4569C8.48278 23.5182 8.48434 23.585 8.46561 23.6472C8.44688 23.7095 8.40885 23.764 8.35717 23.8026C8.3055 23.8412 8.24292 23.8619 8.17873 23.8616ZM40.2503 22.8519C40.187 22.8534 40.1249 22.8344 40.073 22.7977C40.021 22.7611 39.9819 22.7086 39.9612 22.6479C39.9406 22.5872 39.9395 22.5214 39.9582 22.4601C39.9768 22.3987 40.0142 22.345 40.0649 22.3066C40.4598 22.0038 40.8454 21.6861 41.2106 21.3664C41.2397 21.3369 41.2746 21.3138 41.3129 21.2985C41.3512 21.2833 41.3922 21.2762 41.4334 21.2777C41.4745 21.2791 41.515 21.2892 41.5521 21.3072C41.5893 21.3252 41.6224 21.3508 41.6494 21.3823C41.6764 21.4138 41.6967 21.4506 41.7091 21.4905C41.7215 21.5303 41.7257 21.5723 41.7214 21.6138C41.7171 21.6554 41.7044 21.6956 41.6842 21.7319C41.6639 21.7683 41.6365 21.8001 41.6036 21.8252C41.2328 22.1562 40.8306 22.4815 40.4246 22.7917C40.3746 22.8272 40.315 22.8463 40.254 22.8462L40.2503 22.8519ZM80.3064 22.6281C80.2441 22.6285 80.1832 22.6091 80.1322 22.5727C80.0813 22.5362 80.0429 22.4844 80.0225 22.4247C80.002 22.365 80.0005 22.3002 80.0182 22.2396C80.0359 22.1789 80.0718 22.1254 80.121 22.0866C80.5066 21.7782 80.8904 21.4567 81.2574 21.1276C81.3178 21.0813 81.3931 21.0599 81.4684 21.0675C81.5437 21.0751 81.6134 21.1113 81.6635 21.1688C81.7136 21.2263 81.7405 21.3009 81.7388 21.3776C81.737 21.4543 81.7068 21.5276 81.6541 21.5827C81.2834 21.9192 80.8848 22.2502 80.4881 22.5642C80.4363 22.6055 80.3723 22.628 80.3064 22.6281ZM45.6394 22.0885C45.5718 22.0881 45.5064 22.0642 45.454 22.0208C45.0555 21.6823 44.6829 21.3382 44.3288 20.9885C44.3006 20.9607 44.2782 20.9276 44.2627 20.891C44.2472 20.8544 44.239 20.8151 44.2384 20.7753C44.2379 20.7355 44.2451 20.6959 44.2597 20.659C44.2742 20.622 44.2958 20.5883 44.3232 20.5597C44.3506 20.5312 44.3833 20.5085 44.4193 20.4927C44.4554 20.477 44.4941 20.4687 44.5334 20.4681C44.5726 20.4676 44.6116 20.4749 44.6481 20.4897C44.6845 20.5044 44.7178 20.5263 44.7459 20.5541C45.0888 20.8944 45.4522 21.2273 45.823 21.5432C45.8714 21.5827 45.9067 21.6365 45.9239 21.6971C45.9412 21.7577 45.9395 21.8223 45.9193 21.8819C45.899 21.9416 45.861 21.9934 45.8106 22.0304C45.7602 22.0673 45.6998 22.0876 45.6376 22.0885H45.6394ZM5.7817 22.0283C5.71386 22.0257 5.64872 22.0006 5.59632 21.9568C5.21443 21.6278 4.83624 21.2818 4.47289 20.9302C4.44121 20.9035 4.41528 20.8705 4.3967 20.8332C4.37813 20.796 4.36731 20.7552 4.36491 20.7135C4.36251 20.6719 4.36859 20.6301 4.38276 20.5909C4.39694 20.5517 4.41891 20.5159 4.44731 20.4857C4.47571 20.4554 4.50994 20.4314 4.54787 20.4152C4.58579 20.3989 4.6266 20.3908 4.66777 20.3912C4.70894 20.3916 4.74958 20.4006 4.78717 20.4177C4.82476 20.4347 4.8585 20.4594 4.88629 20.4902C5.24038 20.8343 5.60929 21.1727 5.98377 21.4943C6.03007 21.5339 6.06338 21.5869 6.07929 21.6462C6.09519 21.7054 6.09293 21.7682 6.07281 21.8262C6.05269 21.8841 6.01567 21.9345 5.96665 21.9706C5.91763 22.0067 5.85895 22.0268 5.79839 22.0283H5.7817ZM42.499 20.8493C42.4199 20.8489 42.3441 20.8172 42.2877 20.7609C42.2599 20.7328 42.2378 20.6994 42.2228 20.6626C42.2077 20.6258 42.2 20.5864 42.2 20.5466C42.2 20.5068 42.2077 20.4673 42.2228 20.4305C42.2378 20.3938 42.2599 20.3603 42.2877 20.3322C42.601 20.0126 42.9013 19.6816 43.1812 19.3507C43.2089 19.3171 43.2435 19.2901 43.2826 19.2716C43.3217 19.2531 43.3643 19.2435 43.4074 19.2435C43.4508 19.2435 43.4937 19.2531 43.5331 19.2716C43.5725 19.2901 43.6074 19.3171 43.6354 19.3507L43.7355 19.4692C43.7877 19.5298 43.8141 19.609 43.8088 19.6893C43.8036 19.7697 43.7673 19.8446 43.7077 19.8979C43.672 19.9284 43.63 19.9504 43.5847 19.9621C43.5394 19.9738 43.4921 19.975 43.4463 19.9656C43.2127 20.2344 42.9662 20.4996 42.7048 20.7591C42.6538 20.8153 42.5835 20.8497 42.5083 20.855L42.499 20.8493ZM82.5421 20.6218C82.4826 20.6223 82.4244 20.6047 82.3748 20.5714C82.3252 20.538 82.2865 20.4904 82.2638 20.4346C82.2411 20.3789 82.2353 20.3175 82.2473 20.2583C82.2592 20.1992 82.2883 20.1451 82.3308 20.1028C82.6793 19.7512 83.0204 19.3864 83.3467 19.016C83.3727 18.9862 83.4043 18.962 83.4396 18.9446C83.4749 18.9272 83.5132 18.9171 83.5524 18.9147C83.5916 18.9123 83.6308 18.9178 83.6679 18.9309C83.7049 18.9439 83.7391 18.9642 83.7685 18.9906C83.7978 19.017 83.8217 19.049 83.8389 19.0848C83.856 19.1206 83.866 19.1595 83.8683 19.1992C83.8706 19.239 83.8652 19.2788 83.8524 19.3164C83.8396 19.354 83.8195 19.3886 83.7935 19.4184C83.4598 19.7944 83.1094 20.1705 82.7535 20.5334C82.6998 20.5899 82.6268 20.6236 82.5496 20.6274L82.5421 20.6218ZM3.62939 19.9392C3.58809 19.9395 3.54718 19.9311 3.50923 19.9146C3.47127 19.8981 3.43707 19.8738 3.40878 19.8433C3.06767 19.4673 2.73212 19.0799 2.41326 18.6869C2.36368 18.6245 2.34018 18.5449 2.3478 18.4651C2.35542 18.3853 2.39357 18.3117 2.45405 18.2601C2.48433 18.2347 2.51925 18.2157 2.55681 18.204C2.59437 18.1923 2.63383 18.1883 2.67292 18.1922C2.71202 18.196 2.74998 18.2076 2.78464 18.2264C2.81929 18.2452 2.84995 18.2707 2.87487 18.3015C3.18631 18.6775 3.51445 19.0649 3.84814 19.4297C3.88794 19.4728 3.91443 19.5268 3.92433 19.5851C3.93422 19.6433 3.92711 19.7032 3.90385 19.7574C3.88059 19.8115 3.84221 19.8576 3.79344 19.8899C3.74467 19.9223 3.68764 19.9394 3.62939 19.9392ZM84.5369 18.3635C84.4696 18.363 84.4044 18.3398 84.3515 18.2977C84.2892 18.2477 84.249 18.1748 84.2396 18.0948C84.2302 18.0148 84.2524 17.9343 84.3014 17.8709L84.3385 17.8239C84.5424 17.5644 84.7204 17.3256 84.8854 17.0905C84.9779 16.9587 85.0621 16.8212 85.1375 16.6787C85.1751 16.6079 85.2389 16.5552 85.3149 16.5321C85.3909 16.509 85.4728 16.5174 85.5426 16.5556C85.6124 16.5937 85.6644 16.6584 85.6872 16.7355C85.71 16.8125 85.7016 16.8956 85.664 16.9664C85.5763 17.1306 85.4791 17.2895 85.373 17.4421C85.2006 17.6866 85.017 17.9329 84.8168 18.1943L84.7816 18.2413C84.753 18.2796 84.716 18.3106 84.6735 18.3318C84.631 18.353 84.5842 18.3639 84.5369 18.3635ZM1.73104 17.5963C1.66365 17.5965 1.59822 17.5733 1.54566 17.5305C1.5228 17.513 1.50332 17.4913 1.48819 17.4666C1.21796 17.0913 1.00948 16.6741 0.870859 16.2312C0.844905 16.1767 0.818951 16.1221 0.794851 16.0676C0.774954 16.0309 0.762749 15.9904 0.758996 15.9486C0.755243 15.9069 0.760022 15.8648 0.773038 15.825C0.786054 15.7852 0.807028 15.7486 0.834643 15.7174C0.862257 15.6862 0.895917 15.6612 0.933521 15.6438C0.971126 15.6264 1.01186 15.6171 1.05319 15.6164C1.09451 15.6157 1.13552 15.6237 1.17367 15.6398C1.21181 15.6559 1.24626 15.6799 1.27486 15.7101C1.30346 15.7404 1.3256 15.7763 1.33988 15.8156L1.41774 15.9886C1.42549 16.0007 1.43114 16.0141 1.43443 16.0281C1.55456 16.4173 1.7368 16.7838 1.9739 17.1131C2.01315 17.1659 2.03438 17.2303 2.03438 17.2964C2.03438 17.3626 2.01315 17.4269 1.9739 17.4797C1.94532 17.5172 1.90843 17.5473 1.86623 17.5675C1.82403 17.5878 1.77771 17.5977 1.73104 17.5963ZM86.0014 15.7385C85.966 15.7387 85.9308 15.7323 85.8976 15.7198C85.8599 15.7067 85.8252 15.6861 85.7954 15.6593C85.7657 15.6325 85.7415 15.5999 85.7242 15.5635C85.707 15.5271 85.697 15.4876 85.695 15.4473C85.6929 15.407 85.6988 15.3666 85.7122 15.3286C85.8793 14.8701 86.0089 14.3985 86.0997 13.9184C86.1144 13.8393 86.1595 13.7695 86.2251 13.7242C86.2906 13.6788 86.3712 13.6618 86.4491 13.6768C86.5271 13.6917 86.5959 13.7375 86.6406 13.8039C86.6853 13.8704 86.7021 13.9522 86.6873 14.0312C86.5907 14.5435 86.4518 15.0467 86.2721 15.5355C86.2526 15.5932 86.2162 15.6435 86.1679 15.6797C86.1196 15.716 86.0615 15.7365 86.0014 15.7385ZM0.559414 14.8191C0.493551 14.8186 0.429652 14.7962 0.377446 14.7555C0.32524 14.7148 0.287587 14.6579 0.270214 14.5934C0.13668 14.0883 0.0467355 13.5724 0.00140378 13.0515C-0.00581935 12.9713 0.018609 12.8914 0.069339 12.8294C0.120069 12.7673 0.192967 12.7282 0.272067 12.7206C0.311338 12.7167 0.350976 12.7208 0.388659 12.7327C0.426343 12.7446 0.461315 12.7639 0.491527 12.7897C0.521739 12.8154 0.546584 12.847 0.564607 12.8826C0.582631 12.9182 0.593469 12.9571 0.59649 12.997C0.640042 13.4835 0.724388 13.9654 0.848614 14.4374C0.859541 14.4761 0.862723 14.5167 0.857971 14.5568C0.85322 14.5968 0.840632 14.6355 0.820946 14.6705C0.801259 14.7055 0.774871 14.7362 0.743331 14.7608C0.71179 14.7853 0.675732 14.8032 0.637275 14.8134C0.611705 14.819 0.5855 14.8209 0.559414 14.8191ZM86.5594 12.7714C86.5201 12.7706 86.4814 12.762 86.4454 12.746C86.4095 12.7299 86.377 12.7068 86.35 12.678C86.3229 12.6491 86.3017 12.6151 86.2877 12.5778C86.2737 12.5406 86.2671 12.5009 86.2684 12.4611C86.2684 12.3821 86.2684 12.3032 86.2684 12.2242V12.0531C86.2627 11.701 86.233 11.3498 86.1794 11.002C86.1734 10.9626 86.1752 10.9224 86.1845 10.8837C86.1939 10.845 86.2106 10.8085 86.2339 10.7764C86.2571 10.7443 86.2864 10.7171 86.32 10.6964C86.3535 10.6758 86.3908 10.662 86.4297 10.656C86.4685 10.6499 86.5081 10.6517 86.5463 10.6612C86.5844 10.6707 86.6204 10.6877 86.652 10.7113C86.6837 10.7348 86.7105 10.7645 86.7309 10.7986C86.7512 10.8326 86.7648 10.8704 86.7708 10.9098C86.8276 11.2833 86.8598 11.6602 86.8672 12.038C86.8672 12.0982 86.8672 12.1584 86.8672 12.2261C86.8672 12.2938 86.8672 12.3934 86.8672 12.478C86.866 12.5178 86.857 12.5569 86.8409 12.5932C86.8248 12.6295 86.8018 12.6622 86.7732 12.6894C86.7447 12.7166 86.7111 12.7379 86.6744 12.752C86.6377 12.766 86.5986 12.7726 86.5594 12.7714ZM0.298021 11.8124H0.272067C0.232888 11.8091 0.194747 11.7979 0.159862 11.7795C0.124976 11.7612 0.0940429 11.7359 0.0688581 11.7053C0.0436733 11.6747 0.0247397 11.6393 0.0131601 11.6012C0.00158037 11.5631 -0.00241674 11.523 0.00140378 11.4833C0.0466941 10.9618 0.136638 10.4453 0.270214 9.93958C0.280439 9.90118 0.298018 9.86521 0.321952 9.8337C0.345886 9.80219 0.375704 9.77577 0.409702 9.75596C0.443701 9.73614 0.481215 9.72331 0.520103 9.7182C0.558991 9.71309 0.598491 9.71579 0.636347 9.72616C0.674204 9.73653 0.709677 9.75436 0.740739 9.77864C0.771801 9.80292 0.797843 9.83316 0.817382 9.86764C0.83692 9.90213 0.849573 9.94018 0.854613 9.97963C0.859654 10.0191 0.856986 10.0591 0.846761 10.0975C0.722984 10.5695 0.639255 11.0514 0.59649 11.5379C0.589544 11.6132 0.555057 11.6831 0.499818 11.7339C0.444579 11.7847 0.372589 11.8127 0.298021 11.8124ZM16.0224 11.4909C15.9733 11.4902 15.9251 11.4779 15.8815 11.4551C15.8306 11.4258 15.7894 11.3821 15.7627 11.3293C15.736 11.2765 15.7251 11.217 15.7313 11.158C15.7424 10.9963 15.748 10.8365 15.748 10.6748C15.748 10.5933 15.7794 10.515 15.8355 10.4567C15.8916 10.3984 15.968 10.3646 16.0483 10.3627C16.1082 10.3616 16.1671 10.3791 16.217 10.4126C16.267 10.4462 16.3058 10.4943 16.3282 10.5507L16.5971 10.3213C16.6578 10.2694 16.7363 10.2442 16.8154 10.251C16.8945 10.2579 16.9677 10.2964 17.0188 10.358C17.0699 10.4195 17.0949 10.4992 17.0881 10.5794C17.0813 10.6597 17.0434 10.7339 16.9827 10.7857C16.7268 11.0039 16.4704 11.2151 16.2133 11.4194C16.1596 11.4646 16.0922 11.4898 16.0224 11.4909ZM70.7276 11.4194C70.6605 11.4193 70.5954 11.3968 70.5422 11.3555L70.4736 11.2991C70.4135 11.2496 70.3748 11.1785 70.3654 11.1006C70.3561 11.0227 70.3769 10.9442 70.4235 10.8816C70.4239 10.6253 70.4382 10.3692 70.4662 10.1145C70.4829 9.95463 70.507 9.79292 70.5348 9.63309C70.5537 9.55874 70.5997 9.49441 70.6634 9.45296C70.7271 9.41151 70.804 9.39601 70.8785 9.40956C70.953 9.42311 71.0197 9.46471 71.0653 9.52603C71.1109 9.58735 71.132 9.66387 71.1243 9.74026C71.0983 9.88693 71.0761 10.0336 71.0613 10.1803C71.0354 10.4182 71.0224 10.6573 71.0223 10.8967C71.0223 10.9662 71.0223 11.0358 71.0223 11.1054C71.0241 11.1632 71.0095 11.2203 70.9802 11.27C70.951 11.3196 70.9083 11.3597 70.8573 11.3856C70.8172 11.4069 70.7728 11.4185 70.7276 11.4194ZM69.5189 10.3927C69.4459 10.3929 69.3754 10.3662 69.3205 10.3175C68.9497 9.98847 68.579 9.64437 68.2082 9.29462C68.1499 9.24002 68.1154 9.16417 68.1123 9.08377C68.1092 9.00337 68.1377 8.925 68.1915 8.8659C68.2453 8.80681 68.3201 8.77182 68.3994 8.76865C68.4787 8.76548 68.5559 8.79438 68.6142 8.84898C68.9849 9.19622 69.3557 9.53405 69.7265 9.86248C69.7561 9.88854 69.7804 9.92029 69.7978 9.95592C69.8153 9.99154 69.8256 10.0303 69.8282 10.07C69.8308 10.1097 69.8256 10.1495 69.8129 10.1872C69.8002 10.2248 69.7803 10.2595 69.7543 10.2893C69.7254 10.3236 69.6891 10.3507 69.6483 10.3686C69.6075 10.3865 69.5633 10.3948 69.5189 10.3927ZM17.9077 9.86625C17.8659 9.86651 17.8245 9.85756 17.7864 9.84003C17.7483 9.8225 17.7145 9.79681 17.6871 9.76471C17.6607 9.7354 17.6402 9.70108 17.6269 9.66371C17.6136 9.62634 17.6077 9.58666 17.6096 9.54698C17.6115 9.50729 17.6211 9.46838 17.6379 9.43249C17.6547 9.3966 17.6784 9.36444 17.7075 9.33787C18.0709 9.00317 18.4367 8.66157 18.805 8.31308C18.8337 8.28592 18.8674 8.26477 18.9042 8.25082C18.941 8.23688 18.9801 8.23042 19.0194 8.23182C19.0586 8.23321 19.0972 8.24243 19.133 8.25896C19.1687 8.27549 19.2009 8.29899 19.2277 8.32813C19.2544 8.35727 19.2753 8.39147 19.2891 8.42878C19.3028 8.46609 19.3092 8.50579 19.3078 8.5456C19.3064 8.58541 19.2973 8.62456 19.281 8.6608C19.2647 8.69705 19.2416 8.72969 19.2128 8.75685C18.8421 9.1091 18.4744 9.45257 18.1098 9.78727C18.0545 9.83817 17.9824 9.86633 17.9077 9.86625ZM86.1089 9.78915C86.0465 9.78912 85.9857 9.76936 85.9348 9.73263C85.884 9.6959 85.8457 9.64402 85.8253 9.5842C85.6684 9.12258 85.473 8.67532 85.2413 8.24727C85.2224 8.21245 85.2103 8.17419 85.2059 8.13465C85.2015 8.09511 85.2048 8.05508 85.2157 8.01684C85.2265 7.9786 85.2447 7.9429 85.2691 7.91178C85.2936 7.88067 85.3238 7.85474 85.3581 7.83548C85.4275 7.79658 85.5092 7.78721 85.5853 7.80942C85.623 7.82042 85.6582 7.83885 85.6889 7.86365C85.7196 7.88844 85.7451 7.91912 85.7641 7.95394C86.0132 8.41264 86.2234 8.89197 86.3926 9.38676C86.4054 9.42441 86.4108 9.46427 86.4085 9.50404C86.4061 9.54382 86.396 9.58272 86.3788 9.61854C86.3616 9.65435 86.3375 9.68636 86.3081 9.71274C86.2786 9.73911 86.2444 9.75933 86.2072 9.77223C86.1756 9.78352 86.1424 9.78925 86.1089 9.78915ZM15.8722 9.46573C15.8044 9.46567 15.7386 9.44217 15.6857 9.3991C15.6328 9.35603 15.5959 9.29597 15.5811 9.22881C15.4749 8.75726 15.3183 8.29888 15.114 7.8618C15.0972 7.82588 15.0875 7.78695 15.0856 7.74723C15.0836 7.70752 15.0894 7.6678 15.1025 7.63035C15.1157 7.59289 15.136 7.55844 15.1623 7.52894C15.1886 7.49945 15.2204 7.47551 15.2558 7.45847C15.2912 7.44143 15.3296 7.43163 15.3688 7.42964C15.4079 7.42765 15.4471 7.4335 15.484 7.44686C15.5209 7.46022 15.5549 7.48082 15.584 7.50749C15.613 7.53417 15.6366 7.56639 15.6534 7.60232C15.8783 8.07909 16.0499 8.57987 16.1651 9.09531C16.1823 9.17383 16.1681 9.25605 16.1258 9.32404C16.0834 9.39203 16.0162 9.44026 15.9389 9.45821C15.9171 9.4635 15.8947 9.46603 15.8722 9.46573ZM1.06922 8.90163C1.0257 8.90149 0.982704 8.89187 0.943159 8.87343C0.871224 8.83916 0.815615 8.77737 0.788511 8.70159C0.761408 8.62582 0.76502 8.54223 0.798559 8.46916C1.01806 7.99576 1.27797 7.54275 1.57532 7.11531C1.6208 7.04948 1.6902 7.00467 1.76825 6.99075C1.8463 6.97682 1.92661 6.99491 1.99151 7.04104C2.05641 7.08717 2.10059 7.15755 2.11432 7.23672C2.12805 7.31589 2.11022 7.39734 2.06474 7.46317C1.78792 7.86256 1.54541 8.2853 1.33988 8.72676C1.31606 8.77917 1.27787 8.82352 1.22988 8.85453C1.18189 8.88553 1.12612 8.90189 1.06922 8.90163ZM71.2466 8.54249C71.2085 8.54244 71.1707 8.53477 71.1354 8.51992C71.0618 8.48982 71.0029 8.43139 70.9717 8.3574C70.9404 8.28341 70.9393 8.19987 70.9686 8.12505C71.1643 7.63785 71.4064 7.1712 71.6916 6.73172C71.7131 6.6985 71.7409 6.66993 71.7733 6.6476C71.8058 6.62528 71.8422 6.60966 71.8806 6.60163C71.919 6.5936 71.9586 6.59331 71.9971 6.60079C72.0356 6.60827 72.0722 6.62337 72.105 6.64522C72.1377 6.66708 72.1659 6.69526 72.1879 6.72816C72.2099 6.76106 72.2253 6.79803 72.2332 6.83697C72.2411 6.87591 72.2414 6.91604 72.2341 6.95509C72.2267 6.99413 72.2118 7.03133 72.1902 7.06454C71.9271 7.4706 71.7042 7.90203 71.5247 8.35257C71.5014 8.40762 71.4625 8.45448 71.4131 8.48725C71.3636 8.52003 71.3057 8.53728 71.2466 8.53685V8.54249ZM67.3128 8.35445C67.2377 8.35458 67.1655 8.32566 67.1107 8.2736C66.7492 7.93326 66.384 7.59292 66.0114 7.25257C65.9524 7.19897 65.9168 7.12377 65.9124 7.04355C65.9081 6.96333 65.9353 6.88464 65.9882 6.82479C66.041 6.76495 66.1152 6.72885 66.1943 6.72445C66.2734 6.72004 66.351 6.74768 66.41 6.80129C66.7807 7.14351 67.1515 7.48762 67.5223 7.82796C67.5669 7.86926 67.5982 7.92336 67.6119 7.98308C67.6256 8.04281 67.6211 8.10535 67.599 8.16243C67.5769 8.21951 67.5383 8.26842 67.4881 8.30271C67.438 8.33701 67.3788 8.35505 67.3183 8.35445H67.3128ZM20.1082 7.82044C20.048 7.82009 19.9892 7.80136 19.9396 7.76668C19.8899 7.732 19.8517 7.68298 19.83 7.62599C19.8082 7.56899 19.8038 7.50667 19.8174 7.44712C19.831 7.38756 19.8619 7.33354 19.9062 7.29206C20.2769 6.95172 20.6477 6.61326 21.0278 6.27668C21.0877 6.22407 21.1659 6.19778 21.245 6.20359C21.3241 6.20941 21.3976 6.24686 21.4495 6.3077C21.5014 6.36854 21.5273 6.44779 21.5216 6.52802C21.5158 6.60824 21.4789 6.68287 21.4189 6.73548C21.0481 7.0683 20.6774 7.40488 20.3066 7.74146C20.2506 7.78742 20.1802 7.81144 20.1082 7.80915V7.82044ZM84.6778 7.15103C84.6326 7.15099 84.588 7.14067 84.5472 7.12082C84.5065 7.10097 84.4706 7.07209 84.4423 7.03633C84.1443 6.65065 83.8157 6.29031 83.4598 5.9589C83.4015 5.90454 83.3669 5.82893 83.3636 5.74871C83.3603 5.66849 83.3886 5.59022 83.4422 5.53112C83.4958 5.47203 83.5703 5.43694 83.6494 5.43359C83.7285 5.43024 83.8057 5.4589 83.8639 5.51326C84.2439 5.86597 84.5948 6.24957 84.9132 6.66026C84.9481 6.70497 84.9699 6.75877 84.976 6.81547C84.9821 6.87218 84.9723 6.92947 84.9477 6.98076C84.9231 7.03205 84.8847 7.07525 84.8369 7.10537C84.7892 7.1355 84.734 7.15133 84.6778 7.15103ZM14.6023 6.75428C14.5563 6.75414 14.5109 6.7432 14.4698 6.72232C14.4286 6.70145 14.3927 6.6712 14.365 6.63394C14.0732 6.24811 13.7468 5.89057 13.3899 5.56591C13.3306 5.51255 13.2947 5.4375 13.29 5.35727C13.2853 5.27705 13.3123 5.19822 13.3649 5.13813C13.4175 5.07803 13.4915 5.0416 13.5706 5.03684C13.6497 5.03208 13.7274 5.05939 13.7866 5.11275C14.1738 5.46252 14.527 5.84913 14.8415 6.26727C14.8653 6.29897 14.8827 6.33513 14.8927 6.37367C14.9027 6.41221 14.9051 6.45238 14.8997 6.49186C14.8944 6.53134 14.8814 6.56936 14.8616 6.60375C14.8417 6.63813 14.8153 6.6682 14.784 6.69223C14.7298 6.72875 14.6654 6.74656 14.6005 6.743L14.6023 6.75428ZM2.78218 6.43651C2.72329 6.43611 2.66583 6.41816 2.61692 6.3849C2.56801 6.35163 2.52982 6.30452 2.5071 6.24942C2.48438 6.19432 2.47814 6.13366 2.48914 6.07498C2.50014 6.01631 2.52791 5.96221 2.56898 5.91941C2.93171 5.54796 3.32422 5.2077 3.74247 4.90215C3.80688 4.85527 3.88701 4.83626 3.96523 4.84931C4.04346 4.86236 4.11337 4.90639 4.15959 4.97172C4.2058 5.03705 4.22454 5.11833 4.21168 5.19767C4.19881 5.27701 4.1554 5.34792 4.09099 5.3948C3.70055 5.68151 3.33353 5.99969 2.99351 6.34625C2.96489 6.37305 2.93131 6.39383 2.89471 6.40739C2.85812 6.42094 2.81924 6.427 2.78032 6.42522L2.78218 6.43651ZM65.0844 6.33497C65.0165 6.33298 64.9512 6.30781 64.8991 6.26351C64.5005 5.92317 64.1223 5.61668 63.7441 5.32334C63.7128 5.29927 63.6865 5.26918 63.6667 5.23479C63.6469 5.2004 63.6339 5.1624 63.6286 5.12294C63.6233 5.08348 63.6257 5.04334 63.6356 5.00481C63.6456 4.96628 63.6629 4.93012 63.6866 4.89838C63.7104 4.86665 63.7401 4.83998 63.774 4.81988C63.8079 4.79978 63.8453 4.78664 63.8842 4.78123C63.9231 4.77582 63.9627 4.77823 64.0007 4.78833C64.0387 4.79843 64.0743 4.81602 64.1056 4.84009C64.4912 5.13719 64.8768 5.4512 65.2847 5.79719C65.3316 5.83664 65.3656 5.88975 65.3819 5.94937C65.3983 6.00898 65.3962 6.07224 65.376 6.13063C65.3558 6.18901 65.3184 6.23971 65.269 6.27591C65.2195 6.31211 65.1603 6.33206 65.0993 6.33309L65.0844 6.33497ZM72.8799 6.02847C72.821 6.02807 72.7635 6.01012 72.7146 5.97686C72.6657 5.9436 72.6275 5.89649 72.6048 5.84138C72.5821 5.78628 72.5758 5.72562 72.5868 5.66695C72.5979 5.60828 72.6256 5.55417 72.6667 5.51138C72.9364 5.23378 73.2264 4.97732 73.5343 4.7442C73.6418 4.66147 73.7512 4.58249 73.8624 4.50728C73.8949 4.48493 73.9314 4.46929 73.9699 4.46126C74.0084 4.45323 74.048 4.45296 74.0866 4.46047C74.1251 4.46798 74.1618 4.48312 74.1946 4.50502C74.2274 4.52693 74.2556 4.55516 74.2777 4.58813C74.2997 4.62109 74.3151 4.65814 74.323 4.69715C74.331 4.73615 74.3312 4.77636 74.3238 4.81547C74.3164 4.85458 74.3015 4.89184 74.2799 4.9251C74.2583 4.95836 74.2305 4.98698 74.198 5.00932C74.0942 5.08078 73.9922 5.15411 73.8921 5.22933C73.6091 5.44495 73.3421 5.68125 73.0931 5.93634C73.0643 5.96353 73.0304 5.98467 72.9935 5.99855C72.9566 6.01242 72.9174 6.01876 72.878 6.01719L72.8799 6.02847ZM22.3736 5.84044C22.3118 5.83974 22.2517 5.8197 22.2016 5.78307C22.1514 5.74644 22.1136 5.69499 22.0933 5.63576C22.073 5.57652 22.0713 5.51238 22.0882 5.45209C22.1052 5.39181 22.1402 5.33831 22.1883 5.2989C22.5998 4.9642 22.9947 4.66146 23.3914 4.37189C23.4562 4.33122 23.5338 4.31705 23.6085 4.33226C23.6832 4.34746 23.7495 4.3909 23.7938 4.45378C23.8381 4.51665 23.8572 4.59426 23.8472 4.67088C23.8372 4.7475 23.7988 4.8174 23.7399 4.86642C23.3506 5.14847 22.965 5.44556 22.5609 5.77274C22.5056 5.81153 22.4389 5.8301 22.3718 5.8254L22.3736 5.84044ZM82.4828 5.11462C82.4249 5.11472 82.3682 5.09774 82.3197 5.06574C81.9162 4.79999 81.4907 4.57035 81.0479 4.37941C80.9742 4.348 80.9158 4.28815 80.8855 4.21304C80.8553 4.13793 80.8557 4.05371 80.8867 3.9789C80.9176 3.9041 80.9766 3.84483 81.0507 3.81415C81.1247 3.78347 81.2078 3.78389 81.2815 3.81531C81.7561 4.02131 82.2126 4.2679 82.646 4.5524C82.7036 4.58645 82.7484 4.63911 82.7731 4.70199C82.7978 4.76487 82.801 4.83432 82.7822 4.89927C82.7635 4.96422 82.7238 5.02091 82.6695 5.06029C82.6152 5.09966 82.5495 5.11946 82.4828 5.1165V5.11462ZM12.3758 4.763C12.3239 4.76307 12.2728 4.74947 12.2275 4.72351C11.8124 4.48264 11.3738 4.28603 10.9187 4.13685C10.8813 4.1245 10.8467 4.10481 10.8169 4.0789C10.787 4.05299 10.7625 4.02136 10.7446 3.98583C10.7268 3.95029 10.7161 3.91156 10.713 3.87181C10.71 3.83207 10.7147 3.7921 10.7268 3.7542C10.739 3.7163 10.7584 3.6812 10.784 3.6509C10.8095 3.62061 10.8407 3.59571 10.8757 3.57764C10.9108 3.55957 10.949 3.54867 10.9881 3.54558C11.0273 3.54248 11.0667 3.54724 11.1041 3.55958C11.5995 3.72064 12.0767 3.9343 12.5279 4.19702C12.5843 4.23048 12.6284 4.2818 12.6532 4.34311C12.6781 4.40443 12.6825 4.47233 12.6657 4.5364C12.6488 4.60047 12.6117 4.65716 12.56 4.69775C12.5083 4.73835 12.4449 4.76062 12.3795 4.76112L12.3758 4.763ZM5.19774 4.67462C5.12982 4.6755 5.06363 4.65286 5.01012 4.61043C4.9566 4.568 4.91895 4.50832 4.90339 4.44125C4.88784 4.37418 4.8953 4.30375 4.92455 4.24156C4.9538 4.17938 5.00308 4.12917 5.06427 4.09924C5.52698 3.86828 6.00903 3.67951 6.5047 3.53514C6.54244 3.52403 6.58196 3.52057 6.62102 3.52495C6.66007 3.52933 6.6979 3.54147 6.73232 3.56067C6.76675 3.57988 6.79711 3.60578 6.82168 3.63688C6.84624 3.66799 6.86452 3.7037 6.87547 3.74198C6.88643 3.78025 6.88985 3.82034 6.88553 3.85995C6.88121 3.89956 6.86924 3.93793 6.8503 3.97285C6.83136 4.00777 6.80583 4.03857 6.77516 4.06348C6.74449 4.08839 6.70929 4.10693 6.67155 4.11804C6.2098 4.25408 5.76069 4.43088 5.32936 4.64642C5.28634 4.66059 5.24079 4.66508 5.19589 4.65958L5.19774 4.67462ZM62.7004 4.50728C62.6417 4.50675 62.5845 4.48912 62.5354 4.4565C62.1109 4.16881 61.7012 3.91121 61.2822 3.66865C61.2481 3.64889 61.2182 3.62252 61.1942 3.59104C61.1701 3.55956 61.1525 3.52359 61.1421 3.48517C61.1318 3.44676 61.129 3.40666 61.134 3.36716C61.1389 3.32766 61.1515 3.28954 61.171 3.25497C61.1904 3.2204 61.2164 3.19006 61.2475 3.16568C61.2785 3.1413 61.314 3.12336 61.3519 3.11288C61.3897 3.1024 61.4293 3.0996 61.4682 3.10462C61.5072 3.10964 61.5447 3.12239 61.5788 3.14215C62.0089 3.39035 62.4316 3.65548 62.8672 3.9507C62.9332 3.99548 62.979 4.06491 62.9946 4.14384C63.0103 4.22276 62.9945 4.30475 62.9507 4.37189C62.9216 4.41136 62.8834 4.44297 62.8394 4.46396C62.7954 4.48494 62.7471 4.49465 62.6985 4.49223L62.7004 4.50728ZM75.3436 4.34556C75.2747 4.34489 75.2081 4.32016 75.155 4.27554C75.1019 4.23092 75.0655 4.16912 75.052 4.10052C75.0385 4.03192 75.0487 3.96071 75.0809 3.89885C75.1131 3.83698 75.1653 3.78823 75.2287 3.76078C75.7065 3.55783 76.2034 3.40474 76.7118 3.30386C76.7869 3.29508 76.8625 3.31534 76.9235 3.36059C76.9845 3.40584 77.0264 3.47276 77.0409 3.548C77.0554 3.62323 77.0414 3.70125 77.0017 3.76648C76.962 3.83172 76.8995 3.87937 76.8267 3.89992C76.3565 3.99265 75.8968 4.13378 75.4549 4.32112C75.4182 4.33211 75.3797 4.33531 75.3418 4.33052L75.3436 4.34556ZM24.8152 4.06351C24.7488 4.06556 24.6837 4.04512 24.6301 4.00542C24.5765 3.96573 24.5375 3.90905 24.5192 3.84434C24.5009 3.77963 24.5044 3.71059 24.5291 3.64812C24.5539 3.58565 24.5984 3.53332 24.6557 3.49941C25.0969 3.22112 25.527 2.97104 25.9738 2.73412C26.0087 2.71332 26.0474 2.69992 26.0875 2.69475C26.1276 2.68957 26.1684 2.69272 26.2072 2.70401C26.2461 2.7153 26.2823 2.73449 26.3137 2.76041C26.3451 2.78633 26.3709 2.81845 26.3896 2.8548C26.4084 2.89116 26.4196 2.93101 26.4227 2.97191C26.4258 3.01282 26.4207 3.05394 26.4076 3.09277C26.3946 3.1316 26.3739 3.16734 26.3468 3.19781C26.3197 3.22828 26.2868 3.25284 26.25 3.27001C25.8181 3.50129 25.3991 3.74385 24.9727 4.02215C24.9248 4.05003 24.8704 4.06432 24.8152 4.06351ZM79.7502 3.92813C79.7293 3.93088 79.7081 3.93088 79.6872 3.92813C79.2192 3.82546 78.7422 3.77065 78.2635 3.76454C78.1881 3.75852 78.1178 3.72392 78.0665 3.66764C78.0152 3.61135 77.9867 3.53752 77.9867 3.46087C77.9867 3.38422 78.0152 3.31038 78.0665 3.2541C78.1178 3.19781 78.1881 3.16321 78.2635 3.15719C78.7822 3.16358 79.299 3.22343 79.8059 3.33582C79.8792 3.3503 79.9445 3.39216 79.9889 3.45312C80.0333 3.51408 80.0535 3.58971 80.0456 3.66506C80.0377 3.74042 80.0022 3.81002 79.9461 3.86012C79.8901 3.91022 79.8175 3.93717 79.7428 3.93565L79.7502 3.92813ZM9.54687 3.82471H9.51535C9.03885 3.77674 8.55883 3.77674 8.08233 3.82471C8.04326 3.82854 8.00382 3.82452 7.96628 3.81289C7.92873 3.80126 7.89382 3.78224 7.86352 3.75692C7.83322 3.73161 7.80814 3.70049 7.7897 3.66533C7.77126 3.63018 7.75982 3.59169 7.75605 3.55206C7.75228 3.51243 7.75624 3.47243 7.7677 3.43435C7.77917 3.39627 7.79792 3.36085 7.82288 3.33012C7.84784 3.29939 7.87853 3.27395 7.91318 3.25525C7.94784 3.23655 7.98578 3.22495 8.02486 3.22112C8.54082 3.1694 9.06056 3.1694 9.57653 3.22112C9.61573 3.2231 9.65415 3.23289 9.68962 3.24992C9.72509 3.26696 9.7569 3.29092 9.78324 3.32043C9.80957 3.34993 9.82993 3.38442 9.84313 3.4219C9.85633 3.45939 9.86212 3.49915 9.86017 3.5389C9.85822 3.57866 9.84857 3.61763 9.83177 3.65361C9.81498 3.68958 9.79136 3.72184 9.76226 3.74856C9.73317 3.77527 9.69917 3.79592 9.66222 3.8093C9.62526 3.82269 9.58606 3.82857 9.54687 3.82659V3.82471ZM43.1312 3.52386C43.0644 3.52426 42.9992 3.50247 42.9458 3.46181C42.8086 3.35651 42.6677 3.25497 42.5231 3.15719C42.5096 3.1494 42.4972 3.13992 42.486 3.12898C42.2663 2.9242 42.0251 2.7445 41.7668 2.59309C41.6982 2.5527 41.6482 2.48632 41.6279 2.40856C41.6075 2.33081 41.6185 2.24804 41.6583 2.17847C41.6981 2.1089 41.7636 2.05823 41.8402 2.0376C41.9169 2.01697 41.9985 2.02808 42.0671 2.06847C42.3553 2.23774 42.625 2.43755 42.8716 2.66454C43.0199 2.7642 43.1646 2.8695 43.3073 2.97668C43.3576 3.01544 43.3946 3.06933 43.413 3.13066C43.4314 3.19199 43.4302 3.25764 43.4097 3.31826C43.3891 3.37888 43.3503 3.43139 43.2986 3.4683C43.2469 3.50522 43.1851 3.52466 43.1219 3.52386H43.1312ZM44.3325 3.04625C44.271 3.04568 44.2113 3.02591 44.1613 2.98961C44.1114 2.95331 44.0737 2.90227 44.0534 2.84345C44.0332 2.78463 44.0313 2.72089 44.048 2.66094C44.0648 2.60099 44.0994 2.54774 44.1471 2.50847C44.4503 2.25707 44.7828 2.04426 45.137 1.8748C45.2575 1.81651 45.3818 1.7601 45.5078 1.70369C45.5816 1.67102 45.6651 1.66941 45.74 1.69921C45.8149 1.72901 45.8751 1.78777 45.9073 1.86258C45.9395 1.93738 45.9411 2.0221 45.9117 2.09809C45.8824 2.17408 45.8244 2.23512 45.7507 2.26779C45.632 2.32044 45.5134 2.37497 45.3966 2.43138C45.0871 2.57953 44.7964 2.76516 44.5308 2.9842C44.4749 3.0301 44.4043 3.05352 44.3325 3.05001V3.04625ZM60.1032 2.98608C60.0588 2.9862 60.015 2.9759 59.9752 2.95599C59.5322 2.74164 59.0761 2.54232 58.6219 2.35992C58.5854 2.34523 58.5521 2.32339 58.5239 2.29564C58.4957 2.26789 58.4732 2.23479 58.4576 2.19821C58.442 2.16163 58.4337 2.12229 58.4331 2.08245C58.4325 2.0426 58.4397 2.00303 58.4542 1.96599C58.4686 1.92895 58.4902 1.89517 58.5175 1.86658C58.5449 1.83798 58.5775 1.81512 58.6136 1.79932C58.6497 1.78352 58.6885 1.77508 58.7277 1.77448C58.767 1.77388 58.806 1.78113 58.8425 1.79582C59.3097 1.98386 59.7695 2.18881 60.2329 2.40881C60.2949 2.43801 60.3451 2.48788 60.3752 2.55009C60.4053 2.61231 60.4134 2.68311 60.3982 2.75067C60.383 2.81823 60.3454 2.87846 60.2917 2.92131C60.238 2.96415 60.1715 2.98702 60.1032 2.98608ZM27.4532 2.65326C27.3842 2.65397 27.3171 2.63041 27.2633 2.58658C27.2094 2.54275 27.1723 2.48136 27.1581 2.41286C27.1439 2.34436 27.1535 2.27299 27.1853 2.21088C27.2172 2.14878 27.2692 2.09978 27.3327 2.07223C27.7961 1.86727 28.2707 1.67924 28.7453 1.50813C28.8187 1.48769 28.8969 1.49623 28.9643 1.53203C29.0316 1.56783 29.0831 1.62823 29.1083 1.70102C29.1335 1.77381 29.1305 1.85358 29.0999 1.92422C29.0694 1.99487 29.0135 2.05113 28.9437 2.08164C28.4821 2.24523 28.0168 2.4295 27.5718 2.62694C27.5347 2.64506 27.4943 2.6553 27.4532 2.65702V2.65326ZM40.5617 2.0083C40.5249 2.00875 40.4883 2.00172 40.4542 1.98762C40 1.81087 39.5273 1.65668 39.062 1.52693C38.9855 1.50599 38.9204 1.45509 38.881 1.38545C38.8415 1.3158 38.8309 1.23311 38.8516 1.15557C38.8722 1.07802 38.9224 1.01197 38.9911 0.971945C39.0597 0.931921 39.1413 0.921206 39.2177 0.942151C39.7093 1.07671 40.1938 1.23675 40.6693 1.42164C40.7353 1.44639 40.7906 1.49401 40.8253 1.5561C40.8601 1.61818 40.8721 1.69073 40.8592 1.76093C40.8464 1.83112 40.8095 1.89444 40.755 1.93971C40.7006 1.98498 40.6321 2.00927 40.5617 2.0083ZM57.3224 1.8748C57.2916 1.87504 57.261 1.8706 57.2315 1.86163C56.7625 1.71309 56.2842 1.58146 55.8096 1.46864C55.7714 1.45963 55.7353 1.44307 55.7034 1.41991C55.6715 1.39675 55.6444 1.36744 55.6237 1.33365C55.6029 1.29986 55.5889 1.26226 55.5825 1.223C55.5761 1.18373 55.5774 1.14357 55.5863 1.1048C55.5951 1.06603 55.6115 1.02942 55.6343 0.99705C55.6571 0.964682 55.686 0.937191 55.7194 0.916151C55.7527 0.895111 55.7897 0.88093 55.8284 0.874421C55.8672 0.867912 55.9068 0.869201 55.945 0.878214C56.4344 0.992915 56.9275 1.1283 57.4114 1.28249C57.48 1.3037 57.5387 1.34924 57.5769 1.41079C57.6151 1.47234 57.6302 1.54578 57.6194 1.61767C57.6086 1.68957 57.5726 1.75513 57.5181 1.80234C57.4636 1.84955 57.3941 1.87527 57.3224 1.8748ZM47.0168 1.74317C46.9459 1.74312 46.8772 1.71741 46.8232 1.67065C46.7693 1.62389 46.7335 1.55915 46.7223 1.48805C46.7112 1.41694 46.7253 1.34413 46.7623 1.28268C46.7993 1.22122 46.8567 1.17516 46.9242 1.15275C47.4079 0.993786 47.8991 0.859485 48.3961 0.750353C48.4735 0.733148 48.5546 0.747847 48.6213 0.791221C48.6881 0.834595 48.7351 0.903092 48.752 0.981637C48.769 1.06018 48.7545 1.14234 48.7118 1.21005C48.669 1.27775 48.6015 1.32545 48.524 1.34266C48.0458 1.44765 47.5731 1.57693 47.1077 1.73001C47.0789 1.74347 47.0483 1.75236 47.0168 1.75634V1.74317ZM30.2729 1.65104C30.1998 1.65207 30.1289 1.62587 30.0736 1.57741C30.0183 1.52894 29.9824 1.46158 29.9728 1.3881C29.9632 1.31461 29.9806 1.2401 30.0215 1.1787C30.0625 1.1173 30.1242 1.07327 30.195 1.05497C30.6844 0.921463 31.1831 0.806766 31.6781 0.712749C31.756 0.697788 31.8366 0.71484 31.9022 0.760154C31.9677 0.805467 32.0128 0.875324 32.0276 0.954368C32.0423 1.03341 32.0255 1.11516 31.9808 1.18164C31.9361 1.24811 31.8673 1.29385 31.7893 1.30881C31.3129 1.39907 30.829 1.51189 30.3545 1.64164C30.3281 1.65009 30.3006 1.65452 30.2729 1.6548V1.65104ZM37.6883 1.2148H37.6382C37.1618 1.13582 36.6724 1.07565 36.1811 1.03993C36.1019 1.03419 36.0283 0.996794 35.9763 0.935965C35.9243 0.875136 35.8983 0.795857 35.904 0.715567C35.9096 0.635276 35.9465 0.560551 36.0065 0.507833C36.0664 0.455114 36.1446 0.428722 36.2237 0.434457C36.7336 0.472064 37.2434 0.534115 37.7365 0.622491C37.8091 0.636698 37.874 0.677585 37.9187 0.737315C37.9635 0.797045 37.9849 0.871417 37.9789 0.946185C37.973 1.02095 37.94 1.09086 37.8864 1.14251C37.8327 1.19415 37.7622 1.22391 37.6883 1.22608V1.2148ZM54.4174 1.19223H54.3729C53.8854 1.11702 53.3941 1.06437 52.9102 1.0324C52.8333 1.02385 52.7627 0.985541 52.7129 0.925452C52.6632 0.865364 52.6383 0.788127 52.6433 0.70984C52.6483 0.631552 52.6829 0.558251 52.7399 0.505199C52.7969 0.452147 52.8718 0.42344 52.9492 0.425057C53.4497 0.458903 53.9577 0.515309 54.46 0.590522C54.5384 0.603053 54.6088 0.64637 54.656 0.711108C54.7032 0.775846 54.7234 0.856812 54.7122 0.93651C54.7009 1.00906 54.6641 1.075 54.6085 1.12204C54.5529 1.16909 54.4824 1.19403 54.41 1.19223H54.4174ZM49.9422 1.10198C49.8676 1.09892 49.7968 1.0678 49.7436 1.01467C49.6904 0.961544 49.6586 0.890218 49.6545 0.814611C49.6503 0.739004 49.674 0.664535 49.7211 0.605723C49.7681 0.546912 49.835 0.507973 49.9088 0.496505C50.4075 0.438215 50.9192 0.402489 51.4271 0.391207C51.5063 0.389212 51.583 0.419199 51.6404 0.474562C51.6977 0.529925 51.7311 0.606131 51.733 0.686422C51.735 0.766712 51.7054 0.844504 51.6509 0.902689C51.5963 0.960873 51.5211 0.994682 51.442 0.996677C50.9507 1.00984 50.4576 1.04369 49.9774 1.1001L49.9422 1.10198ZM33.2168 1.09258C33.1376 1.09681 33.0601 1.06898 33.0011 1.01521C32.9422 0.96143 32.9068 0.886115 32.9026 0.805825C32.8984 0.725535 32.9258 0.646851 32.9789 0.587079C33.0319 0.527308 33.1061 0.491345 33.1853 0.487106C33.6914 0.432576 34.2012 0.400609 34.7036 0.391207C34.7826 0.390193 34.8588 0.420813 34.9158 0.476427C34.9727 0.532041 35.0057 0.60817 35.0076 0.688304C35.0086 0.728126 35.0018 0.767751 34.9875 0.804878C34.9733 0.842006 34.952 0.875895 34.9247 0.904582C34.8975 0.93327 34.8649 0.956181 34.8288 0.97199C34.7928 0.9878 34.754 0.996191 34.7147 0.996677C34.2309 1.00796 33.7377 1.03804 33.2483 1.09069L33.2168 1.09258Z" fill="#58595B"/>
<path d="M75.1655 18.4276C76.2549 18.4996 77.3477 18.3502 78.3766 17.9884C73.0235 22.0586 66.4231 24.0671 59.6631 22.9406C59.6375 22.8764 59.5953 22.82 59.5406 22.7771C58.4882 21.9134 57.2966 21.2611 56.1699 20.5151C58.0465 20.2652 59.923 20.0281 61.7995 19.78C62.2394 19.7231 62.4882 19.1571 62.0408 18.8962C61.9722 18.8539 61.8998 18.8135 61.8311 18.7749L58.2042 16.658L62.4121 16.3218C62.5066 16.3189 62.5977 16.2861 62.6719 16.2282C62.7462 16.1702 62.7998 16.0902 62.8247 15.9999C62.8496 15.9096 62.8446 15.8138 62.8104 15.7265C62.7763 15.6392 62.7147 15.5651 62.6348 15.5151C62.5773 15.4746 62.5234 15.4287 62.4659 15.3883C61.2953 14.4952 60.1247 13.6028 58.9541 12.711C60.4817 12.7661 62.0111 12.823 63.5387 12.8708C63.8654 12.8818 63.9619 12.5033 63.7837 12.2865C63.2102 11.59 62.6348 10.8899 62.065 10.188C62.4585 10.5016 62.8439 10.8262 63.2213 11.1619C66.7053 14.2453 70.2004 18.0619 75.1655 18.4276Z" fill="#22B28D"/>
<path d="M60.5799 8.53745C61.2931 9.54057 61.9971 10.5493 62.7011 11.5617C61.0731 11.4649 59.4469 11.3712 57.8226 11.2807L57.6173 11.2695C57.2891 11.2509 57.0563 11.7478 57.3313 11.9693C58.5975 12.9817 59.8668 13.9929 61.1391 15.0028C59.6443 15.1108 58.1489 15.2199 56.653 15.3304C56.5546 15.333 56.4597 15.3677 56.3824 15.4295C56.3051 15.4913 56.2495 15.5768 56.224 15.6733C56.1984 15.7697 56.2043 15.8719 56.2406 15.9648C56.2769 16.0576 56.3418 16.136 56.4256 16.1883C56.4916 16.2274 56.5558 16.2665 56.6218 16.3093L60.2518 18.5128C58.5468 18.7324 56.8436 18.9489 55.1423 19.1623C55.0323 19.1772 54.926 19.1921 54.816 19.2033C54.4493 19.2479 54.0826 19.7616 54.4676 20.0594C55.322 20.7498 56.246 21.3454 57.159 21.9446L57.0948 21.9279C52.9551 20.7331 48.3443 18.2616 46.1242 14.3477C45.2075 12.723 44.7144 10.6144 45.3597 8.79241C45.5197 8.32647 45.7693 7.89747 46.0942 7.53036C46.419 7.16325 46.8124 6.86537 47.2517 6.65404C47.357 6.6791 47.4671 6.67263 47.5688 6.63543C48.3845 6.34235 49.2172 6.10057 50.0622 5.91147C51.9138 5.50948 53.7288 5.47412 55.7326 6.08083C57.4687 6.62813 59.1057 7.45778 60.5799 8.53745Z" fill="#7AD1BA"/>
<path d="M42.149 9.29071C42.8182 11.0422 42.3106 13.0766 41.3543 14.6364C39.0387 18.3971 34.2763 20.7772 29.9759 21.9305L29.9151 21.9448C30.8657 21.3664 31.8162 20.7969 32.7041 20.1325C33.0957 19.8388 32.7212 19.3517 32.341 19.3087C32.2269 19.2979 32.1166 19.2836 32.0045 19.2693C30.23 19.0675 28.4626 18.8592 26.7021 18.6443C27.9607 17.9387 29.2117 17.2313 30.4664 16.5239L30.6717 16.4075C30.7576 16.3562 30.8237 16.2804 30.8604 16.1911C30.8971 16.1018 30.9025 16.0038 30.8757 15.9114C30.8489 15.819 30.7913 15.7372 30.7115 15.6779C30.6317 15.6186 30.5338 15.585 30.4322 15.5819C28.8847 15.4745 27.3346 15.3694 25.782 15.2668C27.0976 14.2961 28.4138 13.3231 29.7307 12.3477C30.0197 12.1364 29.7801 11.6564 29.436 11.6743L29.2212 11.6851C27.5368 11.7734 25.8517 11.8636 24.166 11.9555C24.8821 10.992 25.6052 10.0369 26.3352 9.09014C27.5767 8.23252 28.9333 7.5334 30.3695 7.01097C33.6813 5.84334 36.59 6.16212 39.8543 7.22229C39.9585 7.2579 40.0715 7.26412 40.1794 7.2402C40.6356 7.44198 41.0446 7.72717 41.3827 8.07919C41.7209 8.4312 41.9813 8.84303 42.149 9.29071Z" fill="#7AD1BA"/>
<path d="M31.3502 20.4978C30.2163 21.2483 29.0171 21.9046 27.9652 22.7734C27.9092 22.816 27.866 22.8729 27.8403 22.938C21.0945 24.0656 14.5036 22.0783 9.14355 18.0354C9.52322 18.1656 9.91398 18.2615 10.311 18.3219C15.2682 19.0614 19.3265 15.61 22.704 12.5154C23.5768 11.7113 24.4553 10.9237 25.3673 10.188C24.8127 10.8695 24.257 11.5473 23.6999 12.2215C23.5134 12.4359 23.6197 12.8204 23.9461 12.8093C25.481 12.7613 27.0159 12.704 28.5508 12.6485C27.374 13.5451 26.1972 14.4472 25.0204 15.3438L24.8562 15.4695C24.7762 15.5197 24.7144 15.5939 24.6799 15.6814C24.6455 15.7688 24.6402 15.8649 24.6648 15.9556C24.6893 16.0463 24.7426 16.1268 24.8166 16.1853C24.8907 16.2439 24.9817 16.2774 25.0763 16.2811L29.3043 16.6194L25.6619 18.7564C25.5929 18.7952 25.5202 18.8359 25.4512 18.8784C25.0036 19.1409 25.2498 19.7103 25.6955 19.7676C27.5754 20.0079 29.4665 20.2464 31.3502 20.4978Z" fill="#22B28D"/>
<path d="M48.6237 18.6144C51.7205 21.1382 55.4283 22.824 59.3836 23.5065C63.534 24.2656 67.8135 23.9331 71.7925 22.5423C75.7022 21.1505 79.2452 18.7727 81.8025 15.5307C81.9536 15.3488 82.0992 15.1559 82.2392 14.9613C82.2655 14.9249 82.2773 14.8802 82.2723 14.8357C82.7358 14.032 82.9689 13.1188 82.9467 12.1941C82.8914 9.10128 79.1807 6.25225 76.3562 8.33899C75.0481 9.30504 74.3738 11.2808 75.5345 12.6162C76.4299 13.6459 77.9794 13.9461 79.1126 13.1474C79.2968 13.0219 79.1126 12.7308 78.9283 12.8545C77.5981 13.7642 75.5898 12.9 75.4866 11.2335C75.4037 9.93271 76.5202 8.70286 77.7731 8.43906C80.4483 7.87871 82.545 10.8951 81.9149 13.2493C81.6862 14.0808 81.2416 14.839 80.6252 15.4488C79.592 16.4598 78.2356 17.0854 76.7874 17.219C74.2982 17.4483 71.8754 16.4385 69.8598 15.0832C66.6521 12.9145 64.1906 9.85448 60.9792 7.72043C60.4201 7.34925 59.8393 7.01087 59.2399 6.70707C55.6103 4.88777 51.2032 4.23282 47.4169 6.00846C47.3106 6.05619 47.2227 6.1366 47.1664 6.2377C46.4629 6.60089 45.8556 7.12218 45.3935 7.75956C44.9314 8.39693 44.6273 9.13258 44.5059 9.90723C43.9384 13.3512 46.0554 16.4931 48.6237 18.6144ZM63.4886 10.9988C66.9469 14.0462 70.4162 17.8249 75.3447 18.1869C76.4261 18.2582 77.5109 18.1102 78.5322 17.7521C73.2186 21.7818 66.6668 23.7703 59.9566 22.6551C59.9312 22.5915 59.8893 22.5357 59.835 22.4932C58.7904 21.6381 57.6075 20.9923 56.4892 20.2536C58.3519 20.0062 60.2146 19.7715 62.0754 19.5259C62.514 19.4695 62.7608 18.9092 62.3168 18.6508C62.2486 18.609 62.1768 18.569 62.1086 18.5307L58.5085 16.4331L62.6853 16.102C62.7791 16.0991 62.8695 16.0667 62.9433 16.0093C63.017 15.952 63.0701 15.8728 63.0949 15.7834C63.1196 15.694 63.1147 15.5991 63.0807 15.5127C63.0468 15.4262 62.9857 15.3529 62.9064 15.3033C62.8493 15.2633 62.7958 15.2178 62.7387 15.1778C61.5768 14.2936 60.4148 13.41 59.2528 12.527C60.7673 12.5816 62.2873 12.638 63.8037 12.6853C64.1279 12.6962 64.2237 12.3215 64.0469 12.1068C63.4757 11.4167 62.907 10.7241 62.3408 10.0291C62.7314 10.3433 63.114 10.6665 63.4886 10.9988ZM45.6869 9.26138C45.8477 8.80589 46.0986 8.38652 46.425 8.02765C46.7514 7.66878 47.1469 7.37759 47.5883 7.171C47.6941 7.1955 47.8048 7.18917 47.907 7.15281C48.7268 6.8663 49.5636 6.62995 50.4128 6.44509C52.2736 6.05212 54.0977 6.01756 56.1115 6.61065C57.8548 7.14603 59.4988 7.95706 60.9792 9.01214C61.6959 9.99274 62.4034 10.9788 63.1109 11.9685C61.4748 11.8739 59.8406 11.7823 58.2082 11.6938L58.0018 11.6829C57.672 11.6647 57.438 12.1504 57.7144 12.3669C58.9869 13.3566 60.2625 14.3451 61.5411 15.3324C60.0389 15.4379 58.5361 15.5447 57.0327 15.6526C56.9338 15.6551 56.8385 15.6891 56.7608 15.7495C56.6831 15.8099 56.6272 15.8935 56.6016 15.9878C56.5759 16.0821 56.5817 16.182 56.6183 16.2728C56.6548 16.3635 56.72 16.4401 56.8042 16.4913C56.8705 16.5295 56.935 16.5677 57.0014 16.6096L60.6494 18.7636C58.9359 18.9783 57.2243 19.1899 55.5145 19.3986C55.404 19.4131 55.2971 19.4277 55.1865 19.4386C54.8181 19.4822 54.4496 19.9844 54.8365 20.2755C55.6951 20.9504 56.6237 21.5326 57.5412 22.1202L57.4767 22.102C53.3165 20.934 48.6827 18.518 46.4515 14.692C45.5284 13.1074 45.0383 11.0461 45.6869 9.26138Z" fill="#231F20"/>
<path d="M26.5408 23.7442C27.0749 23.68 27.6085 23.6 28.1415 23.5043C31.6715 22.8665 35.0115 21.4553 37.9154 19.3747C40.6785 17.3753 43.2039 14.4181 43.1045 10.832C43.0455 8.73446 41.9753 7.13678 40.3672 6.25343C40.3139 6.14327 40.2224 6.05558 40.1093 6.00624C36.4141 4.27588 32.1038 4.85751 28.532 6.58241C27.8825 6.89697 27.2554 7.25465 26.655 7.65298C23.4001 9.79048 20.9096 12.8786 17.6676 15.0724C14.8106 17.0064 9.8223 18.2351 7.13291 15.8122C6.43918 15.1689 5.9334 14.3534 5.66848 13.4511C4.93166 11.1301 6.75897 8.20008 9.40416 8.4291C10.7949 8.54906 12.1267 9.79412 12.0383 11.2482C11.9333 12.9059 9.9273 13.771 8.59181 12.8677C8.40761 12.7441 8.24182 13.0349 8.4205 13.1603C10.9404 14.9397 13.6243 11.6408 12.0493 9.27065C10.0341 6.24071 5.78637 7.94016 4.80271 10.9174C4.59176 11.5614 4.52452 12.2428 4.6056 12.9148C4.68668 13.5868 4.91416 14.2336 5.27243 14.8107C5.26015 14.8367 5.25537 14.8656 5.25862 14.8941C5.26187 14.9227 5.27302 14.9498 5.29086 14.9725C10.0618 21.4668 18.5555 24.6803 26.5408 23.7442ZM30.4256 6.95321C33.6345 5.76813 36.4528 6.09166 39.6156 7.16768C39.7166 7.20382 39.8261 7.21014 39.9306 7.18586C40.373 7.39107 40.7695 7.68108 41.0972 8.039C41.4248 8.39693 41.677 8.81561 41.839 9.27065C42.4874 11.0483 41.9956 13.1131 41.069 14.6962C38.8254 18.5132 34.2111 20.9287 30.0443 22.0993L29.9854 22.1138C30.9064 21.5267 31.8274 20.9487 32.6877 20.2744C33.0671 19.9763 32.7043 19.4819 32.3358 19.4383C32.2253 19.4274 32.1185 19.4129 32.0098 19.3983C30.2906 19.1935 28.5781 18.9821 26.8723 18.764C28.0918 18.0479 29.3038 17.3299 30.5196 16.6119L30.7185 16.4938C30.8017 16.4417 30.8658 16.3648 30.9013 16.2741C30.9369 16.1835 30.9421 16.084 30.9161 15.9903C30.8901 15.8965 30.8344 15.8134 30.7571 15.7533C30.6797 15.6931 30.5849 15.659 30.4864 15.6559C28.987 15.5468 27.4851 15.4402 25.9808 15.336C27.2555 14.3508 28.5308 13.3633 29.8067 12.3733C30.0867 12.1588 29.8546 11.6717 29.5212 11.6899L29.313 11.7008C27.681 11.7905 26.0483 11.8819 24.415 11.9752C25.1089 10.9974 25.8095 10.028 26.5168 9.06708C27.7195 8.19537 29.0339 7.48457 30.4256 6.95321ZM10.257 18.1133C15.1532 18.8403 19.1615 15.4469 22.4975 12.4042C23.3595 11.6135 24.2271 10.8392 25.1279 10.1158C24.5802 10.7859 24.0313 11.4524 23.4811 12.1152C23.2969 12.326 23.4001 12.7041 23.7243 12.6932C25.2403 12.6459 26.7563 12.5896 28.2723 12.5351C27.11 13.4166 25.9476 14.3036 24.7853 15.1851L24.6232 15.3087C24.5441 15.3581 24.4831 15.431 24.4491 15.517C24.415 15.603 24.4098 15.6975 24.4341 15.7867C24.4583 15.8758 24.5109 15.955 24.584 16.0125C24.6572 16.0701 24.7471 16.1031 24.8405 16.1066L29.0165 16.4375L25.4189 18.5404C25.3508 18.5786 25.2789 18.6186 25.2108 18.6604C24.7687 18.9185 25.0119 19.4783 25.4521 19.5346C27.3126 19.7746 29.1767 20.009 31.0372 20.2617C29.9172 20.9996 28.7328 21.6449 27.6939 22.4992C27.6386 22.541 27.5959 22.5969 27.5705 22.6609C20.9078 23.7697 14.398 21.8157 9.1039 17.8406C9.47919 17.9655 9.86513 18.0568 10.257 18.1133Z" fill="#231F20"/>
</svg>
