<svg width="86" height="37" viewBox="0 0 86 37" fill="none" xmlns="http://www.w3.org/2000/svg">
<path d="M81.5804 31.1299L81.9397 30.8167C83.2767 29.6651 86.8255 26.5603 85.8245 22.525C85.5865 21.5881 85.0397 20.7558 84.2701 20.1591C83.5006 19.5625 82.5519 19.2353 81.5734 19.2291H81.4708C80.7895 19.2475 80.0895 19.2636 79.3919 19.2636C76.0787 19.2636 74.1562 18.803 72.9662 17.6928C71.8743 16.6817 71.179 15.1293 70.374 13.3328C69.6624 11.7481 68.9274 10.1082 67.7888 8.54893C65.0403 4.78542 61.2979 2.3532 57.2521 1.70138C56.5054 1.58097 55.7501 1.52012 54.9936 1.51943C52.8026 1.50948 50.6432 2.03488 48.7079 3.04878C48.4049 3.17718 48.1196 3.34279 47.8586 3.54167C47.7209 3.6292 47.5833 3.71902 47.448 3.81346C47.2752 3.89338 47.1069 3.98257 46.944 4.08063C46.4239 4.2384 45.9376 4.48899 45.5091 4.81997C44.5709 5.53423 43.7791 6.41829 43.1759 7.42494C42.8118 6.8214 42.3798 6.26044 41.8879 5.75278C41.4036 4.97277 40.7522 4.30678 39.9796 3.80148C39.2069 3.29618 38.3317 2.96381 37.4152 2.82767C36.5955 2.473 35.7519 2.17441 34.8907 1.93401L34.7927 1.91558C34.669 1.89025 34.543 1.87182 34.417 1.858C33.4142 1.63279 32.389 1.51922 31.3605 1.51943C30.6922 1.51974 30.0247 1.56747 29.3633 1.66223C25.2102 2.25186 21.3744 4.6979 18.5606 8.55123C17.4196 10.1128 16.6824 11.7504 15.9707 13.3351C15.1844 15.0809 14.5055 16.5896 13.4579 17.6168C12.2773 18.7684 10.329 19.2636 6.94356 19.2636C6.24359 19.2636 5.51563 19.2452 4.86933 19.2291H4.76902C3.81455 19.2542 2.8883 19.5541 2.10415 20.0919C1.32 20.6297 0.712106 21.3819 0.35519 22.2561C-0.00172669 23.1304 -0.0921005 24.0885 0.0951539 25.0127C0.282408 25.937 0.739129 26.7871 1.4092 27.4586C2.17683 28.7138 3.20811 29.6858 4.00606 30.4367L4.06906 30.4965C5.70589 32.0426 7.57412 33.3306 9.60808 34.3153C12.8918 35.9021 16.4981 36.7306 20.1542 36.7383C21.0837 36.7375 22.0124 36.6821 22.9353 36.5725C31.7455 35.5176 39.6761 29.1722 43.1432 20.3991L43.1689 20.33C44.5633 23.9336 46.7389 27.1928 49.5432 29.8793C54.0359 34.2395 60.0793 36.69 66.3796 36.7061V36.7061C69.3453 36.7081 72.2838 36.1483 75.0358 35.057C77.4258 34.1211 79.6384 32.7934 81.5804 31.1299V31.1299Z" fill="white"/>
<path d="M20.2531 36.7369C20.2149 36.7404 20.1763 36.7359 20.1399 36.7237C20.1035 36.7114 20.0701 36.6918 20.0417 36.6659C20.0133 36.64 19.9907 36.6084 19.9752 36.5733C19.9597 36.5381 19.9517 36.5001 19.9517 36.4617C19.9517 36.4233 19.9597 36.3853 19.9752 36.3501C19.9907 36.315 20.0133 36.2835 20.0417 36.2576C20.0701 36.2317 20.1035 36.212 20.1399 36.1998C20.1763 36.1875 20.2149 36.183 20.2531 36.1865C20.7009 36.1865 21.1558 36.1726 21.6106 36.1447C21.6805 36.1455 21.7474 36.1728 21.798 36.2211C21.8486 36.2693 21.879 36.335 21.8831 36.4048C21.8873 36.4746 21.8648 36.5433 21.8202 36.5972C21.7757 36.6511 21.7124 36.6861 21.6431 36.6951C21.179 36.723 20.7149 36.7369 20.2508 36.7369H20.2531ZM66.5333 36.7021C66.4606 36.7021 66.391 36.6732 66.3396 36.6218C66.2883 36.5704 66.2595 36.5007 66.2595 36.428C66.2595 36.3554 66.2883 36.2857 66.3396 36.2343C66.391 36.1829 66.4606 36.154 66.5333 36.154C66.9974 36.154 67.4429 36.1262 67.8908 36.0937C67.9637 36.0885 68.0356 36.1126 68.0908 36.1604C68.1461 36.2083 68.1801 36.2762 68.1855 36.3491C68.19 36.4219 68.1657 36.4936 68.118 36.5487C68.0703 36.6038 68.0029 36.6381 67.9302 36.644C67.4661 36.6765 67.002 36.6974 66.5379 36.7021H66.5333ZM18.8793 36.7021H18.8631C18.399 36.6765 17.9349 36.6347 17.4708 36.5813C17.3999 36.5704 17.3361 36.5323 17.2927 36.4751C17.2494 36.4178 17.2301 36.346 17.2388 36.2748C17.2486 36.2038 17.286 36.1395 17.3429 36.096C17.3999 36.0525 17.4717 36.0333 17.5427 36.0426C18.0068 36.0937 18.4501 36.1355 18.8956 36.161C18.9316 36.1619 18.967 36.1699 18.9998 36.1845C19.0327 36.1991 19.0624 36.2201 19.0872 36.2462C19.112 36.2723 19.1314 36.303 19.1443 36.3366C19.1572 36.3702 19.1633 36.406 19.1624 36.442C19.1615 36.478 19.1536 36.5134 19.139 36.5463C19.1243 36.5792 19.1034 36.6089 19.0773 36.6337C19.0512 36.6585 19.0206 36.6779 18.987 36.6908C18.9534 36.7038 18.9176 36.7099 18.8817 36.709L18.8793 36.7021ZM65.1595 36.6881H65.1456C64.6815 36.6672 64.2174 36.6347 63.7533 36.5859C63.6808 36.5783 63.6142 36.5423 63.5681 36.4857C63.522 36.4292 63.5002 36.3567 63.5073 36.2841C63.5161 36.2108 63.5534 36.144 63.6113 36.0983C63.6691 36.0526 63.7427 36.0317 63.816 36.0402C64.2661 36.089 64.7233 36.1215 65.1711 36.1424C65.2437 36.1424 65.3134 36.1713 65.3648 36.2227C65.4161 36.2741 65.445 36.3438 65.445 36.4164C65.445 36.4891 65.4161 36.5588 65.3648 36.6102C65.3134 36.6616 65.2437 36.6904 65.1711 36.6904L65.1595 36.6881ZM23.0423 36.5743L22.9936 36.3026L22.975 36.0402C23.4159 35.9868 23.8615 35.9195 24.3 35.8382C24.3354 35.8308 24.372 35.8307 24.4075 35.8377C24.4429 35.8448 24.4766 35.8589 24.5065 35.8793C24.5364 35.8997 24.5619 35.9259 24.5814 35.9563C24.601 35.9868 24.6142 36.0208 24.6203 36.0565C24.6339 36.1282 24.6186 36.2024 24.5778 36.2629C24.5369 36.3234 24.4738 36.3652 24.4022 36.3793C23.9543 36.4536 23.4948 36.5232 23.0423 36.5767V36.5743ZM69.2738 36.5116C69.2059 36.5087 69.1415 36.4808 69.0928 36.4334C69.0442 36.3859 69.0148 36.3221 69.0102 36.2543C69.0056 36.1864 69.0261 36.1193 69.0679 36.0656C69.1097 36.012 69.1698 35.9757 69.2367 35.9636C69.6822 35.9032 70.1324 35.8289 70.5779 35.743C70.6134 35.7359 70.65 35.736 70.6855 35.7432C70.721 35.7503 70.7547 35.7645 70.7847 35.7848C70.8147 35.8051 70.8404 35.8311 70.8603 35.8614C70.8801 35.8917 70.8938 35.9257 70.9005 35.9613C70.9135 36.033 70.8979 36.1068 70.8572 36.1672C70.8164 36.2275 70.7536 36.2695 70.6823 36.2841C70.2182 36.3723 69.7657 36.4466 69.3086 36.5163L69.2738 36.5116ZM62.426 36.4071H62.3819C61.9178 36.3328 61.4676 36.2446 61.0174 36.1447C60.9499 36.1254 60.8922 36.081 60.8562 36.0206C60.8202 35.9603 60.8086 35.8884 60.8237 35.8197C60.8387 35.7511 60.8794 35.6907 60.9374 35.651C60.9954 35.6113 61.0663 35.5952 61.1358 35.606C61.5767 35.7035 62.0245 35.7895 62.4701 35.8638C62.54 35.8726 62.6039 35.908 62.6484 35.9628C62.6928 36.0176 62.7145 36.0874 62.7088 36.1577C62.7031 36.228 62.6705 36.2935 62.6179 36.3404C62.5652 36.3873 62.4964 36.412 62.426 36.4095V36.4071ZM16.1504 36.3839H16.1017C15.6376 36.305 15.1897 36.2098 14.7396 36.1053C14.6727 36.0845 14.6162 36.039 14.5816 35.9782C14.5469 35.9173 14.5366 35.8455 14.5529 35.7774C14.5691 35.7092 14.6106 35.6498 14.6689 35.6111C14.7273 35.5724 14.7982 35.5573 14.8672 35.5689C15.3058 35.6734 15.7536 35.7639 16.1968 35.8429C16.2673 35.8514 16.3316 35.887 16.3764 35.942C16.4211 35.9971 16.4427 36.0674 16.4367 36.1381C16.4307 36.2088 16.3975 36.2745 16.3441 36.3212C16.2907 36.3679 16.2213 36.3921 16.1504 36.3886V36.3839ZM25.697 36.0704C25.6303 36.0696 25.5661 36.0445 25.5164 36C25.4667 35.9554 25.4348 35.8944 25.4266 35.8281C25.4183 35.7618 25.4344 35.6948 25.4717 35.6395C25.5091 35.5841 25.5652 35.5442 25.6297 35.5271C26.0636 35.4202 26.5045 35.2948 26.9361 35.1602C26.9704 35.149 27.0066 35.1448 27.0425 35.1478C27.0784 35.1508 27.1133 35.1609 27.1453 35.1776C27.1773 35.1942 27.2056 35.217 27.2287 35.2447C27.2517 35.2725 27.269 35.3045 27.2796 35.339C27.2908 35.3734 27.295 35.4097 27.292 35.4458C27.289 35.4819 27.279 35.5171 27.2624 35.5493C27.2458 35.5814 27.2229 35.61 27.1952 35.6333C27.1675 35.6566 27.1354 35.6741 27.1009 35.685C26.6577 35.8243 26.2075 35.9497 25.762 36.0611C25.7416 36.0716 25.7196 36.0787 25.697 36.082V36.0704ZM71.9702 35.9752C71.9022 35.9774 71.8357 35.9542 71.7839 35.91C71.732 35.8659 71.6984 35.8039 71.6897 35.7364C71.681 35.6688 71.6978 35.6004 71.7368 35.5445C71.7758 35.4886 71.8342 35.4493 71.9006 35.4342C72.3345 35.3227 72.7731 35.202 73.207 35.0557C73.2423 35.0411 73.2803 35.034 73.3184 35.0349C73.3566 35.0358 73.3942 35.0445 73.4288 35.0607C73.4634 35.0768 73.4943 35.0999 73.5195 35.1286C73.5448 35.1573 73.5638 35.1909 73.5754 35.2273C73.587 35.2637 73.5909 35.3021 73.5869 35.3401C73.5829 35.3781 73.5711 35.4148 73.5521 35.448C73.5332 35.4812 73.5076 35.5101 73.477 35.5329C73.4464 35.5557 73.4113 35.5719 73.3741 35.5805C72.9309 35.7221 72.4831 35.8522 72.0375 35.9683C72.0158 35.9769 71.9933 35.9832 71.9702 35.9868V35.9752ZM59.7458 35.8011C59.7204 35.8044 59.6946 35.8044 59.6692 35.8011C59.2283 35.6757 58.7828 35.5364 58.3442 35.3831C58.2809 35.355 58.2304 35.304 58.2028 35.2404C58.1753 35.1768 58.1726 35.1051 58.1954 35.0396C58.2182 34.9741 58.2647 34.9196 58.3258 34.8869C58.3869 34.8541 58.4581 34.8456 58.5252 34.8629C58.9545 35.0115 59.3908 35.1509 59.8201 35.2716C59.8832 35.2905 59.9375 35.3314 59.9732 35.3868C60.0089 35.4423 60.0235 35.5087 60.0145 35.574C60.0056 35.6393 59.9736 35.6993 59.9243 35.7431C59.875 35.7868 59.8117 35.8115 59.7458 35.8127V35.8011ZM13.4749 35.743C13.4488 35.7475 13.4221 35.7475 13.396 35.743C12.9551 35.613 12.5096 35.4667 12.0756 35.3111C12.007 35.2865 11.951 35.2356 11.9199 35.1696C11.8887 35.1036 11.8851 35.028 11.9097 34.9593C11.9343 34.8906 11.9852 34.8346 12.0511 34.8034C12.1171 34.7723 12.1926 34.7686 12.2613 34.7933C12.6859 34.9465 13.1199 35.0882 13.5538 35.2159C13.6188 35.2331 13.6752 35.2737 13.7122 35.3299C13.7492 35.3861 13.7643 35.4539 13.7545 35.5205C13.7448 35.5871 13.7109 35.6477 13.6593 35.6909C13.6078 35.7341 13.5421 35.7568 13.4749 35.7546V35.743ZM28.3261 35.2438C28.2611 35.2455 28.1975 35.2239 28.1469 35.183C28.0963 35.1421 28.0619 35.0844 28.0499 35.0204C28.0379 34.9564 28.049 34.8902 28.0814 34.8337C28.1137 34.7772 28.1651 34.734 28.2263 34.712C28.6487 34.5518 29.071 34.3753 29.4817 34.1895C29.5483 34.1605 29.6236 34.1588 29.6913 34.1849C29.7591 34.211 29.8138 34.2627 29.8437 34.3288C29.8588 34.3616 29.8672 34.397 29.8685 34.433C29.8698 34.469 29.8638 34.505 29.8511 34.5387C29.8384 34.5724 29.819 34.6032 29.7943 34.6294C29.7695 34.6556 29.7398 34.6765 29.7068 34.6911C29.2868 34.8815 28.8552 35.0603 28.4236 35.2252C28.3896 35.2445 28.3513 35.2549 28.3122 35.2554L28.3261 35.2438ZM74.5947 35.1346C74.5296 35.1363 74.4661 35.1148 74.4155 35.0738C74.3649 35.0329 74.3305 34.9753 74.3185 34.9113C74.3064 34.8473 74.3176 34.7811 74.35 34.7246C74.3823 34.668 74.4337 34.6249 74.4949 34.6029L74.727 34.51C75.0681 34.373 75.4092 34.2267 75.7434 34.0734C75.8098 34.0426 75.8858 34.0395 75.9546 34.0648C76.0233 34.09 76.0792 34.1416 76.11 34.2081C76.1408 34.2746 76.1439 34.3506 76.1186 34.4194C76.0934 34.4882 76.0419 34.5442 75.9754 34.575C75.6343 34.7306 75.2793 34.8792 74.9358 35.0208L74.7038 35.116C74.6668 35.134 74.6265 35.1443 74.5854 35.1462L74.5947 35.1346ZM57.1584 34.9024C57.1226 34.9022 57.0871 34.8951 57.054 34.8815C56.6293 34.7074 56.2024 34.5146 55.787 34.3126C55.7517 34.2992 55.7196 34.2787 55.6926 34.2523C55.6656 34.2259 55.6444 34.1942 55.6303 34.1592C55.6161 34.1242 55.6093 34.0867 55.6103 34.049C55.6113 34.0112 55.6201 33.9741 55.6362 33.9399C55.6522 33.9057 55.6751 33.8753 55.7035 33.8504C55.7318 33.8255 55.7651 33.8067 55.801 33.7953C55.837 33.7838 55.8749 33.7799 55.9124 33.7838C55.9499 33.7877 55.9862 33.7994 56.0191 33.818C56.4275 34.0154 56.8428 34.2035 57.2582 34.373C57.316 34.3983 57.3634 34.4426 57.3925 34.4986C57.4216 34.5546 57.4306 34.6189 57.4182 34.6808C57.4057 34.7426 57.3724 34.7984 57.3239 34.8387C57.2754 34.879 57.2145 34.9015 57.1515 34.9024H57.1584ZM10.8991 34.8188C10.8618 34.8186 10.8248 34.8115 10.7901 34.7979C10.4072 34.633 10.0197 34.4566 9.62981 34.2708L9.5161 34.2151C9.45751 34.1788 9.41461 34.1219 9.3958 34.0555C9.37699 33.9892 9.38365 33.9182 9.41447 33.8565C9.44529 33.7948 9.49801 33.7469 9.56233 33.7222C9.62665 33.6974 9.69792 33.6976 9.76209 33.7228L9.87347 33.7785C10.2424 33.9573 10.6183 34.1315 10.9943 34.2917C11.0529 34.316 11.1013 34.36 11.1311 34.4161C11.161 34.4722 11.1704 34.5369 11.1578 34.5992C11.1452 34.6615 11.1113 34.7175 11.062 34.7575C11.0127 34.7976 10.951 34.8192 10.8875 34.8188H10.8991ZM30.8299 34.1222C30.7683 34.1228 30.7082 34.1025 30.6595 34.0647C30.6107 34.0269 30.5762 33.9737 30.5614 33.9138C30.5466 33.8539 30.5525 33.7907 30.5781 33.7345C30.6037 33.6784 30.6475 33.6325 30.7023 33.6043C31.1015 33.3954 31.5006 33.1748 31.8904 32.9425C31.9507 32.9202 32.0168 32.9196 32.0774 32.9408C32.1381 32.962 32.1894 33.0036 32.2227 33.0586C32.2559 33.1136 32.2689 33.1785 32.2596 33.242C32.2502 33.3056 32.2189 33.364 32.1712 33.407C31.7744 33.6392 31.366 33.8714 30.9576 34.0827C30.9166 34.1092 30.8694 34.1244 30.8207 34.1268L30.8299 34.1222ZM77.0939 33.9991C77.0459 33.9968 76.9993 33.9822 76.9586 33.9565C76.918 33.9309 76.8846 33.8952 76.8618 33.8528C76.8283 33.7881 76.8217 33.7127 76.8434 33.6431C76.8651 33.5735 76.9135 33.5154 76.9779 33.4813C77.377 33.27 77.7738 33.0447 78.159 32.8102C78.2201 32.7806 78.29 32.7748 78.3551 32.7939C78.4202 32.8129 78.4759 32.8555 78.5114 32.9133C78.547 32.9712 78.5598 33.0401 78.5474 33.1069C78.535 33.1736 78.4983 33.2334 78.4444 33.2746C78.0523 33.5068 77.6438 33.739 77.2354 33.9712C77.1891 33.9956 77.1369 34.0069 77.0846 34.0038L77.0939 33.9991ZM54.6755 33.7181C54.6292 33.7179 54.5837 33.7059 54.5432 33.6833C54.1418 33.4511 53.7403 33.2189 53.3482 32.9727C53.3177 32.9535 53.2913 32.9285 53.2705 32.8991C53.2497 32.8696 53.2349 32.8364 53.2269 32.8013C53.2189 32.7661 53.2179 32.7298 53.224 32.6942C53.2301 32.6587 53.2431 32.6247 53.2623 32.5942C53.2815 32.5637 53.3065 32.5373 53.3359 32.5165C53.3653 32.4957 53.3985 32.4809 53.4336 32.4729C53.4688 32.4649 53.5051 32.4639 53.5406 32.47C53.5761 32.4761 53.6101 32.4891 53.6405 32.5083C54.0257 32.7521 54.4179 32.9843 54.8008 33.2049C54.855 33.234 54.8978 33.2804 54.9225 33.3368C54.9471 33.3932 54.952 33.4562 54.9364 33.5158C54.9209 33.5753 54.8858 33.6278 54.8368 33.665C54.7877 33.7021 54.7277 33.7216 54.6662 33.7205L54.6755 33.7181ZM8.43009 33.6043C8.38196 33.6044 8.33469 33.5916 8.29319 33.5672C7.89174 33.335 7.49494 33.0912 7.10974 32.8357C7.07927 32.8158 7.05301 32.79 7.03249 32.7598C7.01198 32.7297 6.99761 32.6958 6.99017 32.6602C6.98274 32.6245 6.9824 32.5877 6.98918 32.5519C6.99596 32.516 7.00973 32.4819 7.02969 32.4514C7.04965 32.4209 7.07542 32.3947 7.10552 32.3741C7.13562 32.3536 7.16945 32.3392 7.20511 32.3318C7.24078 32.3243 7.27756 32.324 7.31335 32.3308C7.34914 32.3376 7.38324 32.3513 7.41371 32.3713C7.78731 32.6198 8.17716 32.8589 8.57396 33.0842C8.62712 33.1139 8.66887 33.1605 8.6926 33.2166C8.71632 33.2728 8.72068 33.3352 8.70497 33.3941C8.68927 33.4529 8.65438 33.5049 8.60586 33.5417C8.55734 33.5785 8.49795 33.5981 8.43706 33.5974L8.43009 33.6043ZM33.1853 32.7243C33.1258 32.7252 33.0677 32.7067 33.0197 32.6717C32.9717 32.6366 32.9364 32.5869 32.9191 32.53C32.9018 32.4731 32.9035 32.4121 32.9239 32.3563C32.9443 32.3004 32.9822 32.2527 33.0321 32.2204C33.408 31.9696 33.7793 31.7049 34.139 31.4332C34.1977 31.3926 34.2697 31.3764 34.3401 31.3878C34.4104 31.3992 34.4736 31.4374 34.5165 31.4944C34.5594 31.5514 34.5786 31.6228 34.57 31.6936C34.5615 31.7644 34.526 31.8292 34.4708 31.8744C34.1019 32.1507 33.7213 32.4201 33.3384 32.6778C33.2934 32.7088 33.2399 32.725 33.1853 32.7243V32.7243ZM79.433 32.5733C79.3747 32.5732 79.3179 32.5545 79.2709 32.5199C79.224 32.4853 79.1894 32.4365 79.172 32.3808C79.1547 32.3251 79.1555 32.2653 79.1745 32.2102C79.1935 32.155 79.2296 32.1073 79.2775 32.0741C79.6465 31.8163 80.0131 31.5423 80.3658 31.2637C80.3936 31.2373 80.4267 31.2171 80.4628 31.2042C80.4988 31.1914 80.5372 31.1861 80.5754 31.1889C80.6137 31.1917 80.6509 31.2024 80.6847 31.2204C80.7186 31.2383 80.7483 31.2631 80.7721 31.2932C80.7958 31.3233 80.8131 31.358 80.8227 31.3951C80.8323 31.4322 80.8342 31.4709 80.828 31.5087C80.8219 31.5466 80.808 31.5827 80.7871 31.6149C80.7663 31.6471 80.739 31.6745 80.7069 31.6956C80.3449 31.9812 79.969 32.2622 79.5908 32.5246C79.5436 32.5567 79.4877 32.5737 79.4307 32.5733H79.433ZM52.355 32.2413C52.2983 32.2411 52.2432 32.2233 52.1972 32.1902C51.8213 31.9208 51.4477 31.6398 51.088 31.3496C51.0314 31.304 50.9951 31.2378 50.9873 31.1655C50.9795 31.0932 51.0007 31.0208 51.0462 30.9641C51.0917 30.9074 51.1579 30.8712 51.2302 30.8634C51.3024 30.8555 51.3748 30.8767 51.4314 30.9223C51.7841 31.2033 52.1485 31.4796 52.5151 31.742C52.5634 31.7755 52.5996 31.8236 52.6185 31.8792C52.6374 31.9348 52.6379 31.9951 52.6199 32.051C52.602 32.107 52.5665 32.1557 52.5188 32.1899C52.4711 32.2242 52.4137 32.2422 52.355 32.2413V32.2413ZM6.14208 32.0787C6.08254 32.0787 6.02466 32.0591 5.97733 32.023C5.60837 31.7443 5.24404 31.4494 4.89364 31.1475C4.86637 31.1239 4.84403 31.0951 4.82787 31.0629C4.81171 31.0306 4.80204 30.9954 4.79946 30.9594C4.79687 30.9234 4.80142 30.8872 4.8128 30.853C4.82418 30.8187 4.84218 30.787 4.8658 30.7598C4.88942 30.7325 4.91818 30.7101 4.95044 30.6939C4.98269 30.6778 5.01782 30.6681 5.0538 30.6655C5.08979 30.6629 5.12593 30.6675 5.16017 30.6788C5.1944 30.6902 5.22606 30.7083 5.25333 30.7319C5.59445 31.0245 5.9495 31.3124 6.30918 31.5841C6.36708 31.6283 6.40515 31.6936 6.41514 31.7658C6.42514 31.838 6.40625 31.9113 6.36254 31.9696C6.33661 32.004 6.30293 32.0319 6.26422 32.0508C6.22551 32.0698 6.18285 32.0794 6.13975 32.0787H6.14208ZM81.3265 31.0918C81.2706 31.0921 81.216 31.0752 81.17 31.0435C81.124 31.0118 81.0888 30.9667 81.0691 30.9144C81.0494 30.8621 81.0461 30.805 81.0598 30.7508C81.0735 30.6966 81.1034 30.6478 81.1455 30.6111L81.5029 30.2953C81.6862 30.1328 81.9136 29.9331 82.1642 29.6985C82.1897 29.6698 82.2209 29.6468 82.2558 29.6308C82.2907 29.6149 82.3286 29.6064 82.367 29.6059C82.4054 29.6054 82.4434 29.6129 82.4788 29.628C82.5141 29.643 82.5459 29.6653 82.5721 29.6933C82.5984 29.7213 82.6185 29.7545 82.6312 29.7908C82.6438 29.8271 82.6488 29.8656 82.6458 29.9039C82.6428 29.9421 82.6319 29.9794 82.6137 30.0132C82.5955 30.047 82.5704 30.0767 82.5401 30.1003C82.2849 30.3325 82.0551 30.5438 81.8672 30.7087L81.5098 31.0245C81.4596 31.068 81.3953 31.0919 81.3288 31.0918H81.3265ZM35.3805 31.0732C35.3239 31.0737 35.2686 31.0565 35.2222 31.0243C35.1757 30.992 35.1404 30.9461 35.1211 30.8929C35.1017 30.8397 35.0994 30.7818 35.1142 30.7272C35.1291 30.6726 35.1605 30.6239 35.2041 30.5879C35.5499 30.2976 35.9003 29.9958 36.2228 29.6869C36.2492 29.6624 36.2801 29.6433 36.3138 29.6307C36.3476 29.6181 36.3835 29.6123 36.4194 29.6136C36.4554 29.6149 36.4908 29.6233 36.5236 29.6382C36.5563 29.6532 36.5858 29.6745 36.6103 29.7009C36.6349 29.7272 36.654 29.7582 36.6665 29.792C36.6791 29.8257 36.6849 29.8616 36.6836 29.8977C36.6824 29.9337 36.674 29.9691 36.659 30.0018C36.644 30.0346 36.6228 30.0641 36.5964 30.0887C36.2599 30.4045 35.9003 30.7133 35.5568 31.0175C35.5055 31.0562 35.4423 31.0758 35.3781 31.0732H35.3805ZM50.2108 30.5206C50.1433 30.5204 50.0781 30.4956 50.0275 30.4509C49.7769 30.2187 49.5263 29.9865 49.2803 29.7543L49.0181 29.4965C48.9671 29.4444 48.9385 29.3744 48.9385 29.3015C48.9385 29.2285 48.9671 29.1585 49.0181 29.1064C49.0435 29.0809 49.0737 29.0607 49.107 29.0469C49.1402 29.0331 49.1758 29.026 49.2118 29.026C49.2478 29.026 49.2835 29.0331 49.3167 29.0469C49.35 29.0607 49.3802 29.0809 49.4056 29.1064L49.6632 29.3595C49.8952 29.5917 50.1482 29.8239 50.3942 30.0422C50.421 30.0663 50.4429 30.0954 50.4585 30.1279C50.4741 30.1604 50.4831 30.1957 50.4851 30.2318C50.487 30.2678 50.4818 30.3039 50.4698 30.3379C50.4578 30.3719 50.4392 30.4032 50.415 30.43C50.3892 30.4592 50.3573 30.4823 50.3217 30.498C50.286 30.5136 50.2474 30.5213 50.2085 30.5206H50.2108ZM4.06059 30.2884C3.98968 30.2882 3.92156 30.2608 3.87032 30.2117C3.57794 29.9308 3.2345 29.5987 2.88643 29.2295C2.84413 29.1751 2.82367 29.1068 2.82907 29.0381C2.83447 28.9694 2.86533 28.9052 2.9156 28.8581C2.96588 28.811 3.03193 28.7844 3.1008 28.7835C3.16968 28.7826 3.2364 28.8075 3.28787 28.8533C3.62667 29.2109 3.96314 29.536 4.25089 29.8147C4.27636 29.8401 4.29656 29.8703 4.31034 29.9036C4.32413 29.9369 4.33122 29.9725 4.33122 30.0085C4.33122 30.0446 4.32413 30.0802 4.31034 30.1135C4.29656 30.1468 4.27636 30.177 4.25089 30.2024C4.1999 30.2542 4.13085 30.2841 4.05827 30.286L4.06059 30.2884ZM37.39 29.2039C37.3546 29.2042 37.3196 29.1973 37.2869 29.1838C37.2542 29.1702 37.2246 29.1502 37.1998 29.125C37.174 29.0997 37.1536 29.0695 37.1396 29.0362C37.1256 29.0029 37.1184 28.9672 37.1184 28.9311C37.1184 28.895 37.1256 28.8592 37.1396 28.8259C37.1536 28.7927 37.174 28.7625 37.1998 28.7372C37.513 28.4144 37.8217 28.0754 38.128 27.734C38.1774 27.6845 38.2438 27.6557 38.3137 27.6533C38.3836 27.6509 38.4519 27.6751 38.5046 27.7211C38.5574 27.7671 38.5907 27.8314 38.5979 27.9011C38.6051 27.9707 38.5855 28.0405 38.5433 28.0963C38.2393 28.4446 37.9237 28.7929 37.6151 29.1203C37.586 29.1505 37.5504 29.1736 37.511 29.1877C37.4715 29.2018 37.4293 29.2065 37.3877 29.2016L37.39 29.2039ZM83.3221 29.2039C83.268 29.2049 83.2147 29.1898 83.1691 29.1605C83.1235 29.1312 83.0876 29.089 83.066 29.0393C83.0444 28.9895 83.038 28.9345 83.0477 28.8812C83.0573 28.8278 83.0826 28.7785 83.1202 28.7395C83.4205 28.407 83.7033 28.059 83.9672 27.6969C84.0097 27.6378 84.0739 27.5979 84.1457 27.5862C84.2175 27.5744 84.291 27.5917 84.3501 27.6342C84.4092 27.6767 84.449 27.7409 84.4607 27.8128C84.4725 27.8846 84.4552 27.9582 84.4128 28.0173C84.1382 28.3977 83.8423 28.7621 83.5263 29.1087C83.5001 29.137 83.4681 29.1593 83.4324 29.1742C83.3968 29.189 83.3584 29.196 83.3198 29.1946L83.3221 29.2039ZM48.2686 28.5793C48.2301 28.5793 48.1921 28.5712 48.1569 28.5556C48.1217 28.54 48.0902 28.5172 48.0644 28.4887C47.7557 28.1474 47.4517 27.7921 47.1617 27.4345C47.1385 27.4066 47.1211 27.3745 47.1105 27.3398C47.0998 27.3052 47.0962 27.2688 47.0997 27.2328C47.1032 27.1967 47.1138 27.1617 47.1309 27.1298C47.148 27.0979 47.1713 27.0697 47.1993 27.0468C47.2274 27.0239 47.2597 27.0068 47.2944 26.9966C47.3291 26.9863 47.3655 26.983 47.4015 26.9868C47.4375 26.9907 47.4724 27.0017 47.5041 27.0191C47.5358 27.0366 47.5638 27.0602 47.5863 27.0885C47.8718 27.4368 48.1688 27.7851 48.4728 28.1218C48.4971 28.1485 48.5158 28.1797 48.5281 28.2136C48.5403 28.2475 48.5457 28.2836 48.544 28.3196C48.5422 28.3556 48.5334 28.3909 48.518 28.4236C48.5026 28.4562 48.4809 28.4854 48.4542 28.5096C48.4029 28.5547 48.3368 28.5794 48.2686 28.5793V28.5793ZM2.19954 28.2681C2.15742 28.2683 2.11582 28.2588 2.07799 28.2402C2.04016 28.2217 2.00712 28.1947 1.98142 28.1613C1.7688 27.8829 1.57051 27.5938 1.38736 27.2952C1.31543 27.2255 1.24581 27.1512 1.17851 27.0792C1.15036 27.0533 1.12791 27.0218 1.11257 26.9867C1.09722 26.9516 1.08933 26.9137 1.0894 26.8754C1.08946 26.8371 1.09747 26.7993 1.11293 26.7642C1.12839 26.7292 1.15098 26.6978 1.17922 26.672C1.20746 26.6461 1.24076 26.6264 1.277 26.6141C1.31325 26.6019 1.35165 26.5973 1.38977 26.6006C1.42789 26.604 1.46489 26.6152 1.49843 26.6337C1.53197 26.6521 1.5613 26.6773 1.5846 26.7077C1.65189 26.782 1.72151 26.854 1.79345 26.9213C1.81086 26.939 1.82642 26.9585 1.83988 26.9794C2.0173 27.2719 2.21017 27.5549 2.41768 27.8269C2.43974 27.8555 2.45592 27.8882 2.4653 27.9231C2.47468 27.958 2.47707 27.9945 2.47232 28.0303C2.46758 28.0661 2.45579 28.1007 2.43765 28.1319C2.41951 28.1632 2.39536 28.1905 2.36661 28.2124C2.31635 28.2497 2.25514 28.2693 2.19257 28.2681H2.19954ZM39.2 27.1303C39.1485 27.1299 39.0982 27.115 39.0547 27.0875C39.0112 27.06 38.9762 27.0208 38.9538 26.9744C38.9313 26.9281 38.9223 26.8763 38.9276 26.8251C38.933 26.7738 38.9526 26.7251 38.9842 26.6844C39.2627 26.3292 39.5365 25.9623 39.7964 25.593C39.8385 25.5336 39.9026 25.4934 39.9744 25.4812C40.0462 25.469 40.1199 25.4858 40.1793 25.528C40.2387 25.5702 40.2789 25.6343 40.2911 25.7061C40.3032 25.778 40.2864 25.8517 40.2443 25.9112C39.9797 26.2874 39.7012 26.6612 39.4158 27.0235C39.3898 27.0576 39.356 27.0851 39.3173 27.1037C39.2786 27.1223 39.236 27.1314 39.1931 27.1303H39.2ZM84.914 26.9585C84.8697 26.9584 84.826 26.9481 84.7864 26.9283C84.722 26.8942 84.6736 26.836 84.6519 26.7664C84.6301 26.6968 84.6368 26.6214 84.6703 26.5567C84.8766 26.1659 85.0467 25.7571 85.1786 25.3353C85.2034 25.2695 85.2523 25.2156 85.3154 25.1847C85.3786 25.1537 85.4511 25.148 85.5183 25.1688C85.5854 25.1895 85.6422 25.2351 85.6769 25.2962C85.7117 25.3574 85.7218 25.4295 85.7053 25.4978C85.5617 25.9512 85.3784 26.391 85.1576 26.8122C85.1341 26.8569 85.0987 26.8942 85.0553 26.92C85.0119 26.9458 84.9622 26.9591 84.9117 26.9585H84.914ZM46.5282 26.4476C46.4834 26.4493 46.4388 26.44 46.3984 26.4206C46.358 26.4011 46.3229 26.3722 46.2961 26.3361C46.0246 25.9646 45.7578 25.5791 45.5048 25.1936C45.485 25.1631 45.4714 25.129 45.4648 25.0933C45.4581 25.0575 45.4586 25.0208 45.4661 24.9852C45.4737 24.9497 45.4882 24.9159 45.5087 24.8859C45.5293 24.8559 45.5556 24.8303 45.586 24.8105C45.6165 24.7907 45.6506 24.777 45.6863 24.7704C45.7221 24.7638 45.7588 24.7642 45.7943 24.7718C45.8299 24.7793 45.8636 24.7938 45.8936 24.8144C45.9235 24.835 45.9491 24.8613 45.9689 24.8918C46.2172 25.2703 46.4771 25.6465 46.744 26.011C46.7655 26.04 46.781 26.073 46.7896 26.1081C46.7983 26.1432 46.7998 26.1796 46.7942 26.2153C46.7886 26.2509 46.7759 26.2851 46.7569 26.3159C46.7379 26.3466 46.713 26.3732 46.6837 26.3942C46.6383 26.4287 46.5829 26.4474 46.5259 26.4476H46.5282ZM0.628552 26.0226C0.575537 26.0227 0.523645 26.0074 0.479158 25.9786C0.43467 25.9497 0.399512 25.9086 0.377947 25.8601C0.187391 25.4369 0.0607023 24.9877 0.00202605 24.5272V24.4575C-0.00664597 24.3863 0.0127355 24.3145 0.0560447 24.2572C0.0993539 24.2 0.163193 24.1619 0.234077 24.151C0.305005 24.1424 0.376502 24.1618 0.433297 24.2052C0.490092 24.2486 0.5277 24.3125 0.538077 24.3832V24.4482C0.590591 24.8548 0.702375 25.2515 0.869893 25.6256C0.884579 25.6585 0.892626 25.694 0.893574 25.73C0.894522 25.7661 0.888351 25.8019 0.875417 25.8356C0.862482 25.8692 0.843037 25.9 0.818197 25.9261C0.793357 25.9523 0.763617 25.9732 0.730669 25.9878C0.69863 26.0065 0.663062 26.0183 0.626229 26.0226H0.628552ZM40.7733 24.8848C40.7217 24.8843 40.6712 24.8699 40.6271 24.843C40.5653 24.8038 40.5216 24.7418 40.5055 24.6704C40.4894 24.599 40.5023 24.5241 40.5413 24.4622C40.7733 24.079 41.0193 23.6866 41.2374 23.3011C41.2551 23.2697 41.2788 23.2421 41.3071 23.2198C41.3355 23.1976 41.3679 23.1811 41.4026 23.1714C41.4373 23.1617 41.4736 23.159 41.5093 23.1633C41.5451 23.1676 41.5797 23.1789 41.611 23.1966C41.6424 23.2143 41.67 23.238 41.6923 23.2664C41.7145 23.2947 41.7309 23.3272 41.7406 23.3619C41.7503 23.3966 41.7531 23.4329 41.7488 23.4687C41.7444 23.5045 41.7331 23.5391 41.7155 23.5705C41.4834 23.9722 41.2513 24.3739 41.0054 24.764C40.9807 24.8029 40.9468 24.8351 40.9067 24.8578C40.8667 24.8804 40.8216 24.8929 40.7756 24.8941L40.7733 24.8848ZM85.703 24.3437H85.6798C85.6069 24.3378 85.5393 24.3032 85.4919 24.2475C85.4445 24.1918 85.4211 24.1195 85.4268 24.0465C85.4408 23.8909 85.4477 23.733 85.4477 23.5821C85.4477 23.3015 85.4268 23.0213 85.3851 22.7438C85.3744 22.6715 85.3929 22.5978 85.4364 22.5391C85.4799 22.4803 85.5448 22.4412 85.6171 22.4303C85.6893 22.4203 85.7626 22.439 85.8211 22.4824C85.8797 22.5258 85.9189 22.5905 85.9304 22.6625C85.9772 22.9699 86.0005 23.2804 86 23.5914C86 23.7609 86 23.935 85.9791 24.1069C85.9696 24.1727 85.9367 24.233 85.8864 24.2765C85.8361 24.32 85.7718 24.3439 85.7053 24.3437H85.703ZM45.0199 24.1487C44.9726 24.148 44.9263 24.1351 44.8856 24.111C44.8449 24.087 44.8112 24.0528 44.7878 24.0117C44.5558 23.6123 44.3237 23.2036 44.1172 22.7949C44.0891 22.7306 44.0866 22.658 44.1101 22.5919C44.1335 22.5258 44.1812 22.4711 44.2435 22.4389C44.3058 22.4067 44.378 22.3994 44.4455 22.4185C44.5129 22.4376 44.5706 22.4817 44.6068 22.5418C44.8133 22.9435 45.0338 23.3429 45.2612 23.7354C45.2977 23.7983 45.3079 23.8731 45.2897 23.9435C45.2714 24.0139 45.2262 24.0743 45.1637 24.1115C45.12 24.1367 45.0703 24.1496 45.0199 24.1487V24.1487ZM0.312966 23.3313H0.261922C0.190328 23.3172 0.127196 23.2754 0.0863257 23.2149C0.0454553 23.1545 0.0301814 23.0803 0.0438076 23.0085C0.135566 22.528 0.304001 22.0654 0.542694 21.6385C0.58128 21.5806 0.640281 21.5394 0.707894 21.5231C0.775507 21.5069 0.846763 21.5167 0.907426 21.5508C0.968089 21.5848 1.01369 21.6404 1.03512 21.7066C1.05656 21.7728 1.05225 21.8447 1.02305 21.9078C0.81327 22.2835 0.665186 22.6904 0.584475 23.113C0.570758 23.1749 0.536387 23.2302 0.487032 23.2699C0.437678 23.3096 0.376276 23.3312 0.312966 23.3313V23.3313ZM42.1239 22.4907C42.081 22.4909 42.0388 22.4806 42.0009 22.4605C41.936 22.4281 41.8867 22.3713 41.8636 22.3025C41.8405 22.2337 41.8457 22.1586 41.8779 22.0936C42.0798 21.6872 42.2724 21.2739 42.4534 20.8606C42.4823 20.7937 42.5366 20.7412 42.6042 20.7144C42.6719 20.6876 42.7474 20.6888 42.8142 20.7178C42.881 20.7467 42.9335 20.801 42.9603 20.8687C42.9871 20.9364 42.9858 21.012 42.9569 21.0789C42.7736 21.5015 42.5763 21.9241 42.3698 22.3374C42.3473 22.3834 42.3122 22.4222 42.2688 22.4493C42.2253 22.4764 42.1751 22.4907 42.1239 22.4907V22.4907ZM43.7482 21.7058C43.6955 21.7058 43.6439 21.6907 43.5995 21.6623C43.5551 21.634 43.5197 21.5934 43.4976 21.5456C43.3073 21.123 43.124 20.6934 42.9569 20.2638C42.9438 20.2302 42.9374 20.1944 42.9382 20.1584C42.9389 20.1224 42.9467 20.0869 42.9611 20.0539C42.9756 20.0209 42.9963 19.9911 43.0223 19.9662C43.0483 19.9412 43.0789 19.9216 43.1124 19.9085C43.1459 19.8954 43.1817 19.889 43.2177 19.8897C43.2536 19.8905 43.2891 19.8983 43.3221 19.9127C43.3551 19.9272 43.3849 19.948 43.4098 19.9739C43.4348 19.9999 43.4543 20.0305 43.4674 20.0641C43.6322 20.4844 43.8109 20.9047 43.9988 21.318C44.0287 21.3846 44.0311 21.4603 44.0055 21.5286C43.9798 21.5969 43.9282 21.6522 43.8619 21.6826C43.8289 21.6969 43.7935 21.7047 43.7575 21.7058H43.7482ZM85.2853 21.6547C85.233 21.6543 85.1819 21.639 85.1379 21.6106C85.094 21.5823 85.059 21.542 85.037 21.4945C84.8578 21.103 84.6164 20.743 84.3223 20.4287C84.2734 20.3745 84.2477 20.3032 84.2507 20.2303C84.2537 20.1573 84.2853 20.0885 84.3385 20.0385C84.365 20.0141 84.3961 19.9951 84.4299 19.9827C84.4637 19.9703 84.4997 19.9647 84.5357 19.9662C84.5717 19.9677 84.607 19.9763 84.6397 19.9915C84.6723 20.0067 84.7017 20.0282 84.726 20.0548C85.0587 20.4123 85.3321 20.8207 85.5359 21.2646C85.5659 21.3309 85.5687 21.4063 85.5435 21.4746C85.5183 21.5428 85.4672 21.5984 85.4013 21.6292C85.3641 21.6459 85.3238 21.6546 85.283 21.6547H85.2853ZM1.46396 20.8513C1.40376 20.851 1.34521 20.8314 1.29686 20.7956C1.23896 20.7513 1.20089 20.686 1.19089 20.6138C1.18089 20.5416 1.19979 20.4684 1.24349 20.4101C1.53907 20.0222 1.89197 19.6815 2.29004 19.4C2.34974 19.3581 2.42363 19.3416 2.49544 19.3543C2.53099 19.3605 2.56495 19.3737 2.5954 19.3931C2.62586 19.4125 2.65221 19.4377 2.67293 19.4673C2.69365 19.4969 2.70835 19.5303 2.71619 19.5655C2.72402 19.6008 2.72484 19.6372 2.71859 19.6728C2.71234 19.7084 2.69914 19.7424 2.67976 19.7729C2.66038 19.8034 2.63519 19.8297 2.60563 19.8504C2.25237 20.0983 1.93931 20.399 1.67742 20.7421C1.65233 20.7758 1.61978 20.8031 1.58233 20.8221C1.54489 20.841 1.50359 20.851 1.46163 20.8513H1.46396ZM83.4521 19.667C83.4039 19.6671 83.3567 19.6543 83.3152 19.6298C82.9415 19.4174 82.5366 19.2653 82.1155 19.1794C82.0801 19.1724 82.0464 19.1586 82.0164 19.1386C81.9864 19.1186 81.9606 19.0928 81.9406 19.0628C81.9205 19.0328 81.9066 18.9992 81.8996 18.9638C81.8925 18.9284 81.8926 18.892 81.8997 18.8566C81.9148 18.7852 81.9572 18.7226 82.018 18.6822C82.0787 18.6418 82.1529 18.6269 82.2245 18.6406C82.7024 18.7387 83.162 18.9111 83.5867 19.1515C83.639 19.1818 83.68 19.2284 83.7033 19.2842C83.7265 19.3401 83.7309 19.402 83.7156 19.4605C83.7003 19.5191 83.6662 19.571 83.6186 19.6083C83.571 19.6456 83.5125 19.6662 83.4521 19.667V19.667ZM3.67538 19.2931C3.60946 19.2937 3.54556 19.2705 3.49539 19.2277C3.44522 19.1849 3.41216 19.1254 3.40228 19.0602C3.39241 18.995 3.40637 18.9284 3.44163 18.8726C3.47688 18.8169 3.53103 18.7757 3.59417 18.7567C4.02976 18.6201 4.48357 18.5504 4.94007 18.5501H5.03519C5.10376 18.5564 5.16752 18.5881 5.21393 18.639C5.26034 18.6899 5.28605 18.7563 5.28605 18.8252C5.28605 18.8941 5.26034 18.9606 5.21393 19.0115C5.16752 19.0624 5.10376 19.0941 5.03519 19.1004H4.94472C4.54334 19.1004 4.14426 19.1615 3.76124 19.2815C3.73279 19.2907 3.70291 19.2947 3.67305 19.2931H3.67538ZM7.10277 19.1376H6.40662C6.33805 19.1312 6.27431 19.0995 6.22791 19.0486C6.1815 18.9977 6.15576 18.9313 6.15576 18.8624C6.15576 18.7935 6.1815 18.7271 6.22791 18.6762C6.27431 18.6252 6.33805 18.5935 6.40662 18.5872C6.87072 18.5872 7.33482 18.5872 7.77108 18.5872C7.80723 18.5863 7.84321 18.5925 7.87693 18.6056C7.91066 18.6187 7.94147 18.6383 7.96758 18.6633C7.99368 18.6884 8.01458 18.7184 8.02905 18.7515C8.04351 18.7847 8.05125 18.8204 8.05185 18.8566C8.0525 18.9293 8.02473 18.9994 7.97443 19.0519C7.92414 19.1044 7.85533 19.1351 7.78269 19.1376C7.56302 19.1376 7.33559 19.1376 7.10045 19.1376H7.10277ZM79.426 19.1376C79.3902 19.1379 79.3546 19.1311 79.3214 19.1176C79.2882 19.104 79.258 19.0841 79.2325 19.0588C79.2071 19.0336 79.1869 19.0035 79.1731 18.9704C79.1593 18.9373 79.1522 18.9017 79.1522 18.8659C79.1519 18.8296 79.1587 18.7936 79.1723 18.7599C79.1859 18.7263 79.206 18.6957 79.2314 18.6698C79.2569 18.6439 79.2871 18.6233 79.3205 18.6091C79.3539 18.595 79.3897 18.5875 79.426 18.5872C79.8901 18.5872 80.3542 18.5756 80.7951 18.564C80.864 18.5683 80.9288 18.5983 80.9767 18.6481C81.0245 18.6978 81.0521 18.7637 81.0538 18.8328C81.0556 18.9018 81.0314 18.969 80.9861 19.0212C80.9408 19.0733 80.8776 19.1065 80.809 19.1143C80.3449 19.1143 79.8808 19.1352 79.4167 19.1376H79.426ZM78.0523 19.119C77.5533 19.1004 77.0846 19.0679 76.66 19.0215C76.5915 19.0089 76.5302 18.9709 76.4886 18.9151C76.4469 18.8593 76.4278 18.7898 76.4351 18.7205C76.4424 18.6512 76.4756 18.5873 76.5281 18.5415C76.5805 18.4956 76.6484 18.4713 76.718 18.4734C77.1287 18.5199 77.5835 18.5524 78.0708 18.571C78.1435 18.5725 78.2125 18.6028 78.2628 18.6553C78.313 18.7078 78.3404 18.7781 78.3388 18.8508C78.3373 18.9235 78.307 18.9925 78.2545 19.0428C78.2021 19.0931 78.1318 19.1205 78.0592 19.119H78.0523ZM9.1518 19.0633C9.08281 19.0629 9.01642 19.0368 8.96575 18.9899C8.91507 18.9431 8.88376 18.8789 8.87796 18.8101C8.87479 18.7743 8.87877 18.7381 8.88969 18.7038C8.90061 18.6694 8.91826 18.6376 8.94159 18.6102C8.96491 18.5827 8.99344 18.5602 9.02554 18.5439C9.05765 18.5276 9.09266 18.5179 9.12857 18.5152C9.61123 18.4734 10.0568 18.4154 10.4652 18.3411C10.5369 18.3281 10.6108 18.3442 10.6706 18.3858C10.7305 18.4274 10.7713 18.4911 10.7843 18.5628C10.7972 18.6346 10.7811 18.7085 10.7395 18.7684C10.698 18.8283 10.6344 18.8692 10.5627 18.8821C10.1019 18.9661 9.63723 19.0266 9.17035 19.0633H9.1518ZM75.328 18.8032H75.2653C74.8001 18.7014 74.3462 18.5536 73.9102 18.362C73.8437 18.3312 73.7922 18.2752 73.7669 18.2064C73.7417 18.1376 73.7448 18.0616 73.7756 17.9951C73.8064 17.9286 73.8622 17.877 73.931 17.8517C73.9998 17.8265 74.0757 17.8296 74.1422 17.8604C74.5467 18.0358 74.9671 18.1719 75.3976 18.2668C75.4617 18.2836 75.5175 18.323 75.555 18.3777C75.5925 18.4323 75.609 18.4986 75.6017 18.5645C75.5944 18.6304 75.5637 18.6914 75.5151 18.7365C75.4666 18.7816 75.4035 18.8077 75.3373 18.8101L75.328 18.8032ZM11.8366 18.5361C11.7727 18.5346 11.7113 18.511 11.6629 18.4692C11.6145 18.4275 11.582 18.3702 11.5711 18.3072C11.5601 18.2442 11.5714 18.1794 11.6029 18.1237C11.6344 18.068 11.6842 18.0251 11.7438 18.002C12.1557 17.8595 12.5461 17.661 12.904 17.4122C12.9638 17.3756 13.0353 17.363 13.104 17.3772C13.1727 17.3913 13.2335 17.4311 13.2739 17.4884C13.3144 17.5458 13.3315 17.6163 13.3219 17.6858C13.3122 17.7554 13.2765 17.8186 13.2219 17.8627C12.8256 18.1398 12.393 18.3609 11.9364 18.5199C11.9045 18.5318 11.8706 18.5373 11.8366 18.5361V18.5361ZM72.8659 17.6468C72.7993 17.6477 72.7347 17.6237 72.6849 17.5794L72.5735 17.4796C72.2624 17.1817 71.9818 16.8534 71.7358 16.4996C71.7151 16.4701 71.7004 16.4367 71.6926 16.4014C71.6848 16.3662 71.6839 16.3297 71.6902 16.2941C71.6964 16.2585 71.7096 16.2245 71.729 16.1941C71.7484 16.1636 71.7736 16.1372 71.8031 16.1165C71.8327 16.0958 71.8661 16.081 71.9013 16.0732C71.9365 16.0654 71.973 16.0645 72.0085 16.0708C72.0441 16.0771 72.0781 16.0903 72.1085 16.1096C72.139 16.129 72.1653 16.1542 72.186 16.1838C72.4091 16.5073 72.6649 16.8069 72.9495 17.0778L73.0469 17.1661C73.0742 17.1898 73.0964 17.2187 73.1124 17.251C73.1284 17.2834 73.1379 17.3186 73.1403 17.3547C73.1426 17.3907 73.1379 17.4269 73.1263 17.461C73.1146 17.4952 73.0963 17.5268 73.0725 17.5539C73.0468 17.5834 73.0151 17.6071 72.9794 17.6231C72.9438 17.6391 72.905 17.6472 72.8659 17.6468ZM14.0457 16.9501C13.9832 16.9508 13.9224 16.9294 13.874 16.8897C13.8458 16.8674 13.8223 16.8396 13.8048 16.8081C13.7873 16.7766 13.7761 16.742 13.772 16.7062C13.768 16.6704 13.771 16.6341 13.7809 16.5995C13.7908 16.5648 13.8075 16.5325 13.8299 16.5043C14.1045 16.155 14.3513 15.7846 14.5679 15.3966C14.5855 15.3652 14.6091 15.3375 14.6375 15.3152C14.6658 15.2929 14.6983 15.2765 14.733 15.2668C14.7677 15.2571 14.804 15.2543 14.8397 15.2586C14.8755 15.263 14.9101 15.2744 14.9414 15.2921C15.0046 15.3286 15.051 15.3885 15.0705 15.4589C15.09 15.5292 15.0812 15.6044 15.0459 15.6683C14.8152 16.0817 14.5522 16.4762 14.2592 16.848C14.234 16.882 14.2011 16.9097 14.1632 16.9287C14.1253 16.9476 14.0835 16.9574 14.0411 16.9571L14.0457 16.9501ZM71.2416 15.4384C71.1933 15.4371 71.1463 15.4228 71.1055 15.3971C71.0647 15.3713 71.0316 15.3351 71.0095 15.2921C70.8239 14.9415 70.629 14.5444 70.4016 14.0428C70.3863 14.0101 70.3777 13.9746 70.3761 13.9385C70.3746 13.9023 70.3802 13.8663 70.3926 13.8323C70.405 13.7984 70.4239 13.7672 70.4484 13.7405C70.4728 13.7139 70.5022 13.6924 70.535 13.6771C70.5677 13.6619 70.6032 13.6532 70.6393 13.6517C70.6754 13.6501 70.7114 13.6557 70.7454 13.6681C70.7793 13.6805 70.8105 13.6995 70.8371 13.7239C70.8637 13.7484 70.8852 13.7778 70.9005 13.8106C71.1325 14.3029 71.3135 14.6907 71.4945 15.0344C71.5115 15.0662 71.5221 15.1011 71.5256 15.1371C71.5291 15.173 71.5254 15.2093 71.5148 15.2438C71.5043 15.2783 71.487 15.3104 71.464 15.3383C71.441 15.3661 71.4127 15.3891 71.3808 15.4059C71.3379 15.4283 71.29 15.4395 71.2416 15.4384V15.4384ZM15.4241 14.5909C15.3841 14.5904 15.3446 14.5817 15.3081 14.5653C15.2752 14.5501 15.2456 14.5285 15.2211 14.5017C15.1966 14.475 15.1776 14.4437 15.1653 14.4095C15.153 14.3754 15.1476 14.3392 15.1494 14.3029C15.1512 14.2667 15.1602 14.2312 15.1758 14.1984C15.3638 13.8013 15.5494 13.3834 15.742 12.9514C15.7728 12.8846 15.8288 12.8328 15.8978 12.8073C15.9668 12.7818 16.0431 12.7848 16.1098 12.8156C16.1766 12.8464 16.2284 12.9025 16.2539 12.9715C16.2793 13.0405 16.2763 13.1168 16.2456 13.1837C16.0506 13.6202 15.8627 14.0405 15.6724 14.4422C15.6496 14.4872 15.6147 14.5249 15.5717 14.5512C15.5286 14.5774 15.4791 14.5912 15.4287 14.5909H15.4241ZM70.0813 12.9468C70.028 12.947 69.9757 12.9318 69.9308 12.903C69.8859 12.8741 69.8504 12.8329 69.8284 12.7842C69.6451 12.3686 69.4594 11.9529 69.2645 11.5349C69.2408 11.47 69.2424 11.3984 69.2689 11.3345C69.2954 11.2706 69.3448 11.219 69.4075 11.1898C69.4702 11.1607 69.5415 11.1561 69.6074 11.177C69.6733 11.1979 69.729 11.2428 69.7634 11.3027C69.9607 11.723 70.1463 12.1433 70.3319 12.559C70.3617 12.6258 70.3638 12.7017 70.3377 12.7701C70.3115 12.8384 70.2594 12.8936 70.1927 12.9236C70.1576 12.939 70.1197 12.9469 70.0813 12.9468V12.9468ZM16.5542 12.083C16.5148 12.0834 16.4759 12.0747 16.4405 12.0574C16.3746 12.0266 16.3235 11.9711 16.2983 11.9028C16.2731 11.8346 16.2759 11.7591 16.3059 11.6929C16.524 11.2284 16.7143 10.8174 16.9046 10.4436C16.9375 10.3786 16.9949 10.3294 17.0641 10.3067C17.1333 10.2841 17.2086 10.2899 17.2736 10.3228C17.3385 10.3558 17.3877 10.4132 17.4103 10.4824C17.4329 10.5516 17.4271 10.627 17.3942 10.692C17.2086 11.0612 17.0206 11.4514 16.8048 11.9227C16.783 11.9699 16.7484 12.0099 16.7049 12.0383C16.6614 12.0666 16.6107 12.0821 16.5588 12.083H16.5542ZM68.9048 10.4575C68.8568 10.4552 68.8102 10.4405 68.7696 10.4149C68.7289 10.3893 68.6956 10.3535 68.6728 10.3112C68.4407 9.88857 68.2319 9.5031 68.0022 9.13388C67.9747 9.07294 67.9702 9.00408 67.9896 8.94009C68.0089 8.87609 68.0508 8.82129 68.1075 8.78585C68.1641 8.75041 68.2317 8.73673 68.2977 8.74735C68.3637 8.75798 68.4236 8.79218 68.4663 8.84362C68.6983 9.22444 68.9304 9.6192 69.1624 10.0558C69.184 10.0968 69.1949 10.1426 69.194 10.1889C69.1931 10.2353 69.1805 10.2807 69.1573 10.3208C69.1341 10.3609 69.1011 10.3945 69.0615 10.4184C69.0218 10.4423 68.9767 10.4558 68.9304 10.4575H68.9048ZM17.8049 9.63081C17.7561 9.63086 17.7081 9.61805 17.6657 9.59366C17.6033 9.55642 17.558 9.49603 17.5398 9.42561C17.5215 9.35518 17.5317 9.28039 17.5682 9.21747C17.8142 8.79949 18.0625 8.41402 18.3224 8.04248C18.3431 8.0129 18.3695 7.9877 18.3999 7.96831C18.4304 7.94892 18.4644 7.93571 18.4999 7.92946C18.5355 7.92321 18.5719 7.92402 18.6072 7.93186C18.6424 7.9397 18.6757 7.95441 18.7053 7.97515C18.7349 7.99588 18.7601 8.02224 18.7794 8.05272C18.7988 8.08319 18.812 8.11719 18.8182 8.15277C18.8245 8.18835 18.8237 8.22481 18.8159 8.26008C18.808 8.29534 18.7933 8.32872 18.7726 8.35829C18.5197 8.71822 18.2807 9.08976 18.0416 9.49613C18.0184 9.53736 17.9847 9.57172 17.944 9.59577C17.9032 9.61983 17.8569 9.63271 17.8096 9.63313L17.8049 9.63081ZM67.4638 8.12608C67.419 8.12776 67.3744 8.11848 67.334 8.09906C67.2936 8.07964 67.2585 8.05066 67.2317 8.01462C66.9626 7.64772 66.6771 7.29244 66.3894 6.95341C66.342 6.89798 66.3186 6.82599 66.3242 6.75326C66.3299 6.68054 66.3642 6.61304 66.4196 6.56562C66.4749 6.5182 66.5469 6.49473 66.6196 6.5004C66.6922 6.50606 66.7597 6.54038 66.8071 6.59581C67.1041 6.94413 67.3965 7.31102 67.675 7.6872C67.7182 7.74608 67.7363 7.81968 67.7254 7.89192C67.7146 7.96415 67.6756 8.02914 67.6169 8.07267C67.5704 8.10705 67.5146 8.12648 67.4568 8.1284L67.4638 8.12608ZM19.3899 7.37836C19.3273 7.37899 19.2666 7.35762 19.2182 7.31798C19.1899 7.29524 19.1665 7.26712 19.1492 7.23526C19.1319 7.20339 19.1212 7.1684 19.1175 7.13233C19.1138 7.09626 19.1173 7.05982 19.1278 7.02513C19.1384 6.99043 19.1556 6.95816 19.1787 6.93019C19.4734 6.56794 19.782 6.21498 20.1069 5.88059C20.1312 5.85205 20.161 5.82875 20.1945 5.81209C20.2281 5.79544 20.2646 5.78579 20.302 5.78373C20.3394 5.78166 20.3768 5.78723 20.412 5.80008C20.4471 5.81294 20.4793 5.83282 20.5066 5.85851C20.5338 5.88421 20.5556 5.91518 20.5705 5.94955C20.5854 5.98392 20.5932 6.02096 20.5934 6.05843C20.5935 6.0959 20.5861 6.13301 20.5715 6.16751C20.5568 6.202 20.5354 6.23317 20.5083 6.2591C20.2044 6.58187 19.9027 6.92555 19.615 7.27851C19.5876 7.3133 19.5522 7.34083 19.5117 7.35865C19.4712 7.37647 19.427 7.38403 19.3829 7.38068L19.3899 7.37836ZM43.1426 7.19724C43.0956 7.19637 43.0497 7.18355 43.0091 7.15998C42.9685 7.13642 42.9346 7.10288 42.9105 7.06255C42.8595 6.97663 42.8084 6.89304 42.755 6.80944C42.7158 6.74781 42.7026 6.67314 42.7182 6.60177C42.7339 6.5304 42.7772 6.46815 42.8386 6.42862C42.8822 6.4007 42.933 6.38586 42.9848 6.38586C43.0366 6.38586 43.0873 6.4007 43.131 6.42862C43.2563 6.23588 43.3862 6.05011 43.5231 5.86899C43.5695 5.81806 43.6333 5.78633 43.7018 5.78001C43.7704 5.77368 43.8389 5.79323 43.8938 5.83481C43.9487 5.87639 43.9861 5.937 43.9987 6.00476C44.0112 6.07251 43.998 6.14252 43.9617 6.20105C43.7535 6.47741 43.5606 6.76501 43.3839 7.06255C43.36 7.10303 43.3261 7.13669 43.2855 7.16028C43.2448 7.18387 43.1988 7.19659 43.1518 7.19724H43.1426ZM65.6817 6.03618C65.6453 6.03675 65.6093 6.02983 65.5757 6.01585C65.5422 6.00186 65.5119 5.98112 65.4867 5.9549C65.1688 5.63213 64.837 5.32096 64.5005 5.02606C64.4457 4.97802 64.4123 4.91017 64.4075 4.83745C64.4027 4.76472 64.427 4.69307 64.475 4.63826C64.523 4.58345 64.5908 4.54997 64.6635 4.54518C64.7361 4.54039 64.8077 4.56468 64.8625 4.61272C65.2083 4.91459 65.5587 5.23737 65.8766 5.56943C65.9138 5.60799 65.9389 5.65664 65.9488 5.70935C65.9587 5.76206 65.9529 5.81652 65.9321 5.86596C65.9114 5.9154 65.8766 5.95766 65.8321 5.98751C65.7875 6.01735 65.7352 6.03347 65.6817 6.03385V6.03618ZM42.1587 5.8388C42.1193 5.83913 42.0802 5.83101 42.0442 5.81499C42.0082 5.79896 41.976 5.77542 41.9498 5.74591C41.857 5.6391 41.7619 5.53228 41.6621 5.4301C41.6484 5.41405 41.636 5.39697 41.625 5.37902C41.4745 5.12289 41.303 4.87977 41.1121 4.65219C41.0725 4.59548 41.0556 4.52597 41.0647 4.45739C41.0739 4.38881 41.1084 4.32615 41.1614 4.2818C41.2145 4.23745 41.2823 4.21463 41.3513 4.21786C41.4204 4.22109 41.4857 4.25012 41.5344 4.29923C41.7374 4.54189 41.9205 4.80048 42.0821 5.0725C42.1795 5.17467 42.2747 5.27917 42.3652 5.38366C42.4032 5.42293 42.4286 5.47266 42.4381 5.52647C42.4476 5.58029 42.4408 5.63572 42.4186 5.68565C42.3964 5.73558 42.3598 5.77773 42.3135 5.80667C42.2672 5.83562 42.2133 5.85004 42.1587 5.84809V5.8388ZM21.2741 5.37437C21.236 5.37445 21.1983 5.36642 21.1634 5.3508C21.1286 5.33519 21.0976 5.31235 21.0722 5.28381C21.0475 5.25745 21.0283 5.22643 21.0157 5.19255C21.0031 5.15867 20.9974 5.12261 20.9989 5.0865C21.0004 5.05038 21.0091 5.01493 21.0245 4.98223C21.0399 4.94952 21.0616 4.92021 21.0885 4.89602C21.4319 4.58021 21.7846 4.27601 22.1536 3.99271C22.2115 3.95445 22.2818 3.93944 22.3503 3.95067C22.4188 3.9619 22.4806 3.99855 22.5233 4.05332C22.566 4.10808 22.5866 4.17694 22.5808 4.24618C22.5751 4.31542 22.5435 4.37996 22.4924 4.42695C22.1397 4.70096 21.7962 4.99587 21.4597 5.30239C21.4094 5.3554 21.3402 5.38629 21.2672 5.38831L21.2741 5.37437ZM44.6463 5.27452C44.5929 5.27369 44.5409 5.25725 44.4967 5.22724C44.4525 5.19722 44.4181 5.15493 44.3976 5.10557C44.3771 5.05622 44.3715 5.00196 44.3815 4.94946C44.3914 4.89696 44.4165 4.84852 44.4537 4.8101C44.718 4.55129 44.9969 4.30784 45.289 4.08095C45.3726 4.01593 45.4561 3.95556 45.5443 3.8975C45.574 3.87722 45.6074 3.863 45.6426 3.85564C45.6778 3.84828 45.7141 3.84792 45.7495 3.85461C45.7848 3.86129 45.8185 3.87488 45.8486 3.89459C45.8787 3.9143 45.9046 3.93976 45.9249 3.9695C45.9659 4.0299 45.9814 4.10412 45.9679 4.17593C45.9544 4.24773 45.9131 4.31127 45.8529 4.35264C45.7763 4.40373 45.6998 4.45946 45.6209 4.51751C45.3452 4.73083 45.0818 4.95953 44.8319 5.20254C44.8066 5.22783 44.7766 5.24784 44.7435 5.26139C44.7105 5.27495 44.675 5.28178 44.6393 5.28149L44.6463 5.27452ZM63.6118 4.22492C63.5525 4.22577 63.4945 4.207 63.447 4.17152C63.085 3.90215 62.7091 3.64672 62.3285 3.41218C62.2771 3.36946 62.2429 3.30953 62.2323 3.24352C62.2217 3.1775 62.2354 3.10987 62.2708 3.05316C62.3062 2.99646 62.361 2.95453 62.4249 2.93514C62.4889 2.91576 62.5577 2.92024 62.6186 2.94776C63.0107 3.19158 63.4006 3.4563 63.7788 3.73264C63.8248 3.76732 63.8588 3.81551 63.876 3.87048C63.8933 3.92544 63.8929 3.98442 63.875 4.03917C63.8571 4.09392 63.8226 4.14171 63.7762 4.17585C63.7298 4.20999 63.674 4.22877 63.6164 4.22957L63.6118 4.22492ZM40.3301 3.79765C40.2699 3.79765 40.2112 3.7781 40.163 3.74193C39.8125 3.47787 39.4353 3.25138 39.0376 3.06619C39.0016 3.05309 38.9688 3.03265 38.9412 3.00617C38.9135 2.9797 38.8917 2.94776 38.877 2.91239C38.8623 2.87702 38.8552 2.83898 38.856 2.8007C38.8568 2.76242 38.8656 2.72472 38.8817 2.69C38.8978 2.65528 38.921 2.62429 38.9497 2.59901C38.9785 2.57372 39.0122 2.5547 39.0486 2.54312C39.0851 2.53155 39.1236 2.52769 39.1616 2.53179C39.1997 2.53589 39.2365 2.54786 39.2696 2.56694C39.7027 2.7686 40.1134 3.01533 40.4949 3.30304C40.54 3.33812 40.5732 3.38637 40.5898 3.44113C40.6064 3.49589 40.6056 3.55445 40.5875 3.60874C40.5695 3.66303 40.535 3.71036 40.4889 3.7442C40.4427 3.77804 40.3873 3.79672 40.3301 3.79765V3.79765ZM46.9296 3.79765C46.8827 3.79679 46.8368 3.78397 46.7962 3.76041C46.7555 3.73684 46.7216 3.70331 46.6976 3.66297C46.6792 3.6319 46.6671 3.59749 46.6621 3.56173C46.657 3.52597 46.6591 3.48956 46.6681 3.4546C46.6772 3.41964 46.6931 3.38682 46.7149 3.35802C46.7366 3.32922 46.7639 3.30501 46.795 3.28679C46.9412 3.19855 47.0944 3.11728 47.2591 3.05458C47.4239 2.99188 47.5237 2.87345 47.6583 2.78753C47.7555 2.71139 47.857 2.64085 47.9623 2.57623C48.0238 2.53743 48.0982 2.52468 48.1692 2.54079C48.2401 2.55691 48.3017 2.60056 48.3405 2.66214C48.3793 2.72373 48.392 2.79821 48.3759 2.86919C48.3598 2.94017 48.3162 3.00185 48.2546 3.04065C48.1572 3.10335 48.0644 3.16836 47.9739 3.23802C47.8207 3.33555 47.6884 3.42612 47.5562 3.519C47.5438 3.52803 47.5306 3.5358 47.5167 3.54222C47.3682 3.61219 47.2234 3.6897 47.0828 3.77443C47.0333 3.79907 46.9774 3.80798 46.9227 3.79998L46.9296 3.79765ZM23.4391 3.69084C23.3933 3.69101 23.3482 3.67986 23.3077 3.6584C23.2672 3.63693 23.2327 3.6058 23.2071 3.56777C23.1872 3.53762 23.1734 3.50382 23.1666 3.46832C23.1597 3.43282 23.16 3.39632 23.1673 3.36092C23.1747 3.32552 23.1889 3.29192 23.2093 3.26206C23.2296 3.2322 23.2557 3.20667 23.286 3.18694C23.6781 2.92918 24.0819 2.68768 24.4857 2.4694C24.5177 2.44959 24.5534 2.43653 24.5906 2.43102C24.6278 2.42551 24.6658 2.42767 24.7021 2.43736C24.7385 2.44706 24.7725 2.46409 24.802 2.4874C24.8316 2.51072 24.856 2.53983 24.8739 2.57295C24.8918 2.60607 24.9028 2.6425 24.9061 2.68C24.9094 2.7175 24.905 2.7553 24.8932 2.79105C24.8814 2.8268 24.8624 2.85975 24.8375 2.8879C24.8125 2.91605 24.782 2.93879 24.7479 2.95472C24.3557 3.16604 23.9659 3.39825 23.5877 3.65136C23.5428 3.6782 23.4914 3.69188 23.4391 3.69084V3.69084ZM61.2634 2.78753C61.2209 2.78716 61.1789 2.77766 61.1404 2.75967C60.739 2.55532 60.3236 2.37187 59.9106 2.207C59.877 2.19389 59.8464 2.1743 59.8204 2.14935C59.7945 2.1244 59.7737 2.09458 59.7593 2.06159C59.7448 2.0286 59.737 1.99308 59.7363 1.95707C59.7356 1.92107 59.742 1.88526 59.7551 1.85172C59.7682 1.81818 59.7878 1.78754 59.8127 1.76157C59.8376 1.7356 59.8674 1.7148 59.9004 1.70035C59.9334 1.6859 59.9688 1.67809 60.0048 1.67737C60.0408 1.67665 60.0766 1.68303 60.1101 1.69614C60.5417 1.86566 60.971 2.05607 61.3887 2.26738C61.4447 2.29477 61.4897 2.34045 61.5162 2.39689C61.5428 2.45333 61.5493 2.51715 61.5347 2.57779C61.5201 2.63843 61.4852 2.69227 61.4359 2.73041C61.3866 2.76854 61.3257 2.78869 61.2634 2.78753V2.78753ZM37.8472 2.65285C37.8264 2.65623 37.8052 2.65623 37.7845 2.65285C37.6453 2.62034 37.5037 2.59248 37.3599 2.57158C37.3207 2.56525 37.2834 2.55017 37.2508 2.52746C37.0108 2.3695 36.7549 2.2372 36.4873 2.1327C36.4193 2.10653 36.3645 2.05439 36.3349 1.98776C36.3053 1.92113 36.3034 1.84547 36.3296 1.77742C36.3557 1.70936 36.4078 1.65449 36.4744 1.62488C36.541 1.59527 36.6166 1.59333 36.6846 1.61951C36.9711 1.73074 37.2455 1.87079 37.5037 2.03749C37.6406 2.06071 37.7752 2.08626 37.9098 2.11877C37.974 2.13575 38.0299 2.17529 38.0674 2.23018C38.1048 2.28506 38.1212 2.35159 38.1136 2.41759C38.106 2.48359 38.0749 2.54464 38.0259 2.58956C37.977 2.63447 37.9135 2.66024 37.8472 2.66214V2.65285ZM49.3081 2.4485C49.2557 2.44893 49.2042 2.43399 49.1601 2.40552C49.116 2.37706 49.0811 2.3363 49.0599 2.28828C49.0447 2.25551 49.0361 2.22007 49.0346 2.18398C49.0332 2.14789 49.0389 2.11187 49.0514 2.07799C49.0639 2.0441 49.083 2.01303 49.1075 1.98655C49.1321 1.96008 49.1616 1.93871 49.1944 1.9237C49.6191 1.72679 50.0545 1.55391 50.4986 1.40588C50.5659 1.38952 50.6369 1.39906 50.6974 1.43261C50.758 1.46617 50.8038 1.52127 50.8257 1.58702C50.8476 1.65276 50.844 1.72434 50.8157 1.78756C50.7873 1.85078 50.7362 1.90103 50.6726 1.92835C50.2478 2.07045 49.831 2.23557 49.4242 2.42296C49.3887 2.44014 49.3498 2.44888 49.3105 2.4485H49.3081ZM25.8478 2.39045C25.7841 2.39144 25.7221 2.37017 25.6723 2.3303C25.6226 2.29043 25.5884 2.23446 25.5754 2.17203C25.5625 2.1096 25.5718 2.04461 25.6016 1.98826C25.6314 1.93192 25.6799 1.88774 25.7388 1.86333C26.1704 1.67989 26.6113 1.51502 27.0499 1.37569C27.0841 1.36471 27.1202 1.3606 27.1561 1.36358C27.192 1.36657 27.2269 1.3766 27.2589 1.39309C27.2909 1.40959 27.3194 1.43223 27.3426 1.45972C27.3659 1.48721 27.3835 1.51902 27.3945 1.55333C27.4054 1.58763 27.4095 1.62377 27.4066 1.65967C27.4036 1.69556 27.3935 1.73051 27.3771 1.76254C27.3606 1.79456 27.3379 1.82302 27.3105 1.84629C27.283 1.86956 27.2512 1.88719 27.2169 1.89816C26.7946 2.03285 26.3699 2.19307 25.9546 2.36259C25.9218 2.37834 25.8864 2.38779 25.8502 2.39045H25.8478ZM58.7108 1.78438C58.6854 1.7878 58.6597 1.7878 58.6343 1.78438C58.2027 1.66131 57.7618 1.55217 57.3232 1.47786C57.2528 1.46299 57.1909 1.42118 57.1508 1.36135C57.1107 1.30152 57.0956 1.22839 57.1086 1.15754C57.1216 1.0867 57.1618 1.02373 57.2205 0.982066C57.2792 0.940402 57.3518 0.923332 57.4229 0.934487C57.8871 1.01808 58.3372 1.12722 58.7874 1.25494C58.8522 1.27219 58.9083 1.31259 58.9453 1.3685C58.9823 1.4244 58.9975 1.49194 58.9881 1.55832C58.9786 1.62469 58.9452 1.6853 58.8941 1.72868C58.843 1.77205 58.7778 1.79517 58.7108 1.79367V1.78438ZM35.2737 1.75884C35.247 1.7584 35.2205 1.7545 35.1948 1.74723C35.0788 1.7124 34.9628 1.68453 34.8444 1.65899L34.7446 1.64041C34.6309 1.61718 34.5126 1.60093 34.3966 1.587H34.3641C34.2016 1.54985 34.0392 1.51502 33.8768 1.48483C33.8387 1.48098 33.8018 1.46927 33.7685 1.45042C33.7352 1.43156 33.7062 1.40598 33.6833 1.37531C33.6604 1.34464 33.6441 1.30954 33.6355 1.27224C33.6268 1.23493 33.626 1.19624 33.6331 1.15861C33.6402 1.12099 33.6551 1.08525 33.6767 1.05366C33.6984 1.02208 33.7263 0.995336 33.7588 0.975136C33.7913 0.954935 33.8277 0.941722 33.8656 0.936323C33.9034 0.930924 33.942 0.933455 33.9789 0.943771C34.1436 0.97628 34.3084 1.00879 34.4708 1.04594C34.6333 1.0831 34.7261 1.08078 34.8514 1.104L34.9512 1.1249C35.0834 1.15045 35.218 1.18528 35.3526 1.22475C35.4223 1.2462 35.4807 1.29437 35.5151 1.35876C35.5494 1.42315 35.5569 1.49852 35.5359 1.56842C35.5182 1.62395 35.4832 1.67236 35.436 1.7066C35.3888 1.74085 35.332 1.75914 35.2737 1.75884V1.75884ZM51.9141 1.57307C51.8515 1.57259 51.7909 1.55102 51.742 1.51183C51.6932 1.47265 51.659 1.41815 51.6449 1.35711C51.6371 1.32189 51.6362 1.28545 51.6425 1.2499C51.6487 1.21435 51.6619 1.1804 51.6813 1.14997C51.7007 1.11955 51.726 1.09326 51.7556 1.07262C51.7851 1.05198 51.8185 1.03739 51.8537 1.02969C52.3136 0.92871 52.7783 0.851205 53.246 0.797483C53.3166 0.792942 53.3861 0.815623 53.4404 0.860865C53.4948 0.906107 53.5297 0.970465 53.538 1.04069C53.5463 1.11091 53.5274 1.18165 53.4852 1.23835C53.443 1.29505 53.3806 1.3334 53.311 1.3455C52.8648 1.3993 52.4217 1.47681 51.9837 1.57771L51.9141 1.57307ZM28.477 1.55681C28.4079 1.55897 28.3407 1.53494 28.2886 1.48955C28.2365 1.44416 28.2035 1.38076 28.1962 1.31204C28.1888 1.24333 28.2077 1.17438 28.249 1.11901C28.2903 1.06363 28.351 1.02593 28.4189 1.01344C28.7345 0.946097 29.0548 0.888046 29.3727 0.841604C29.5142 0.820705 29.6581 0.804445 29.802 0.785868C29.8744 0.778661 29.9468 0.800151 30.0037 0.845728C30.0605 0.891306 30.0972 0.957348 30.106 1.02969C30.1146 1.10067 30.0951 1.17221 30.0518 1.22905C30.0084 1.28588 29.9446 1.32351 29.8739 1.33389C29.7347 1.35015 29.5978 1.3664 29.4608 1.3873C29.1545 1.43142 28.8459 1.48715 28.5443 1.55217L28.477 1.55681ZM32.5773 1.29906H32.5541C32.1735 1.26655 31.7837 1.25029 31.3938 1.25029H31.1989C31.1303 1.24398 31.0666 1.21226 31.0202 1.16136C30.9738 1.11045 30.9481 1.04403 30.9481 0.975121C30.9481 0.906214 30.9738 0.839794 31.0202 0.788887C31.0666 0.73798 31.1303 0.706261 31.1989 0.699951H31.3962C31.7976 0.699951 32.2014 0.716206 32.5982 0.751038C32.667 0.759595 32.7301 0.793749 32.7749 0.846713C32.8197 0.899678 32.8429 0.967575 32.84 1.03691C32.8371 1.10624 32.8082 1.17194 32.7591 1.22094C32.71 1.26994 32.6443 1.29865 32.575 1.30138L32.5773 1.29906ZM56.0144 1.29906H55.9912C55.5457 1.26423 55.0932 1.24797 54.643 1.25726C54.6048 1.26078 54.5662 1.25628 54.5298 1.24405C54.4934 1.23182 54.46 1.21213 54.4316 1.18624C54.4032 1.16034 54.3806 1.12881 54.3651 1.09366C54.3496 1.05851 54.3416 1.02051 54.3416 0.982088C54.3416 0.943666 54.3496 0.905668 54.3651 0.870517C54.3806 0.835366 54.4032 0.80384 54.4316 0.777946C54.46 0.752051 54.4934 0.732356 54.5298 0.720127C54.5662 0.707897 54.6048 0.703399 54.643 0.706917C55.1071 0.706917 55.5712 0.706918 56.0353 0.751038C56.104 0.759434 56.1671 0.793371 56.212 0.846118C56.2569 0.898865 56.2804 0.966569 56.2778 1.03582C56.2752 1.10507 56.2466 1.1708 56.1978 1.21999C56.149 1.26918 56.0836 1.29822 56.0144 1.30138V1.29906Z" fill="#58595B"/>
<path d="M78.6284 24.4791C75.188 25.1168 71.8921 24.609 68.4959 23.6074C68.4204 23.5887 68.3409 23.5979 68.2715 23.6333C68.2021 23.6688 68.1475 23.7281 68.1174 23.8007C68.0874 23.8733 68.0839 23.9544 68.1075 24.0294C68.1312 24.1043 68.1804 24.1683 68.2465 24.2098C70.4399 25.4381 72.9083 26.0239 75.4281 26.1467L75.1041 26.1633C73.6799 26.227 72.2277 26.2223 70.8058 26.1467C67.9155 25.9861 65.7874 24.5688 63.9086 22.4334C63.7152 22.1972 63.4238 22.4925 63.5287 22.7287C64.8107 25.6011 67.8199 27.3113 70.8058 27.6892C72.0736 27.863 73.3516 27.949 74.6309 27.9467C72.538 28.316 70.4007 28.3487 68.2978 28.0435C66.6476 27.8122 65.0278 27.3963 63.4681 26.8034C61.5567 26.0617 60.5614 24.8357 59.396 23.2035C59.2398 22.9885 58.8272 23.1067 58.9298 23.4066C59.4776 24.9633 60.2677 26.3452 61.6546 27.2735C63.235 28.3294 65.1977 28.9813 67.0367 29.3663C68.3356 29.6388 69.6568 29.7874 70.983 29.8104C69.4653 30.2267 67.8891 30.3792 66.3211 30.2616C62.6569 29.9899 59.3797 28.3719 56.6269 25.9625C56.4357 25.7995 56.0814 26.0192 56.2539 26.2554C58.3914 29.1939 61.8108 31.0151 65.3445 31.5348C66.2648 31.6731 67.1955 31.7269 68.1253 31.6954C64.5003 32.1343 60.8293 31.4439 57.6012 29.7159C53.8381 27.651 50.7821 24.4773 48.8369 20.6146C47.4034 17.8107 45.7554 13.2305 47.3195 10.1267C47.1959 11.4164 47.5526 12.725 48.105 13.9226C49.0653 16.0084 50.9021 17.6407 51.0373 20.05C51.0394 20.0912 51.0556 20.1304 51.0832 20.1608C51.1107 20.1911 51.1479 20.2108 51.1882 20.2164C51.2285 20.222 51.2695 20.2132 51.3041 20.1914C51.3387 20.1697 51.3647 20.1364 51.3776 20.0973C51.7739 18.4627 51.0583 16.9533 50.352 15.5147C49.4966 13.7715 48.7717 12.1203 48.8766 10.2353C49.6667 11.2038 50.3637 12.1841 51.4406 12.888C53.0419 13.9439 55.1514 14.7565 54.9532 17.0761C54.9539 17.115 54.9671 17.1527 54.9907 17.1833C55.0143 17.214 55.0472 17.2361 55.0843 17.2462C55.1214 17.2564 55.1607 17.254 55.1964 17.2395C55.232 17.225 55.262 17.1992 55.2819 17.1659C55.9812 15.6234 54.9043 14.0337 53.7272 13.0817C52.7762 12.3117 51.6853 11.7424 50.9674 10.7196C50.8299 10.5235 50.7086 10.3275 50.5874 10.1338C51.5951 10.44 52.628 10.6535 53.6736 10.7715C54.9043 10.918 56.0045 11.055 56.9695 11.903C57.6688 12.5148 58.135 13.3415 58.6757 14.0951C58.776 14.2368 59.0487 14.1565 58.9764 13.9675C58.3587 12.3707 57.4776 10.6605 55.8763 9.90463C54.9439 9.45819 53.8904 9.35662 52.9021 9.08733C52.36 8.93638 51.8269 8.7542 51.3054 8.54168C55.9672 8.59601 61.3703 9.02828 61.8295 14.7352C61.8301 14.7746 61.8447 14.8125 61.8705 14.842C61.8963 14.8715 61.9317 14.8907 61.9702 14.8961C62.0087 14.9015 62.0479 14.8928 62.0806 14.8715C62.1134 14.8502 62.1375 14.8178 62.1488 14.7801C63.0252 11.9172 60.6314 9.17473 58.2189 8.08814C56.2096 7.18108 53.7155 6.77243 51.3333 6.80314C52.8298 6.7181 54.3169 6.73227 55.8227 6.6496C55.8741 6.64353 55.9221 6.62029 55.959 6.58355C55.9959 6.5468 56.0197 6.49864 56.0267 6.44667C56.0336 6.39469 56.0233 6.34185 55.9973 6.29647C55.9714 6.2511 55.9312 6.21577 55.8833 6.19606C54.8682 5.88802 53.8148 5.72893 52.7552 5.72363C54.8706 5.40571 57.0308 5.78672 58.9158 6.81022C62.263 8.6149 64.1371 11.8132 65.5986 15.2147C66.9015 18.2525 68.3048 21.3091 71.3349 22.9177C73.568 24.1153 76.1087 24.4318 78.6284 24.4791Z" fill="#E7D7C4"/>
<path d="M37.3429 17.7452C37.8092 15.4335 38.068 12.8007 37.8535 10.4418C37.8018 9.83343 37.6917 9.2316 37.5247 8.64487C40.8356 11.561 38.8514 17.3226 37.1633 20.6236C35.2173 24.4856 32.1594 27.6581 28.394 29.7216C24.5945 31.7472 20.2059 32.3333 16.0177 31.3745C15.8172 31.3297 15.6213 31.2824 15.4255 31.2281C14.3762 30.5552 13.306 29.9129 12.2708 29.2163C13.3562 29.3515 14.4281 29.5814 15.4745 29.9034C16.5797 30.2411 17.6149 30.4702 18.7667 30.2718C18.9742 30.2364 18.9229 29.9011 18.7177 29.9034C17.1019 29.92 15.7123 29.018 14.2387 28.4064C16.2265 28.3855 18.2093 28.2023 20.168 27.8586C20.4199 27.8137 20.3499 27.4241 20.1098 27.4217C18.5033 27.3887 16.9038 27.3674 15.3043 27.3344C16.6606 27.0039 17.9915 26.5746 19.2867 26.0498C20.7952 25.4548 22.3948 24.8692 23.5769 23.7075C23.6056 23.6724 23.6219 23.6286 23.6231 23.583C23.6242 23.5374 23.6102 23.4928 23.5833 23.4563C23.5564 23.4198 23.5181 23.3935 23.4747 23.3816C23.4312 23.3698 23.3851 23.3731 23.3437 23.391C20.3686 25.0959 16.2975 26.2624 12.87 26.319C11.2705 26.345 9.64071 26.1089 8.19043 25.4052C11.0094 25.5067 14.0195 25.2139 16.5843 24.3544C16.6259 24.3408 16.6613 24.3128 16.6846 24.2754C16.7078 24.2379 16.7174 24.1934 16.7115 24.1496C16.7057 24.1058 16.6849 24.0654 16.6527 24.0355C16.6205 24.0056 16.579 23.9881 16.5353 23.9861C14.7633 23.9743 12.9959 24.1325 11.2216 24.1183H11.1213C12.3554 23.897 13.5499 23.4903 14.6654 22.9117C17.6965 21.299 19.0955 18.2482 20.4012 15.2116C21.8631 11.8113 23.7378 8.61181 27.086 6.81016C28.5773 6.00423 30.2456 5.59323 31.9358 5.61535C30.0915 5.95774 28.1539 6.88099 27.0044 8.16316C26.8482 8.33554 27.0044 8.71098 27.2562 8.6C28.3101 8.15136 29.2824 7.5634 30.3899 7.2281C30.9124 7.07777 31.4445 6.96416 31.9824 6.88807C31.6723 7.22574 31.3762 7.57521 31.0847 7.92704C30.407 8.74876 29.7713 9.60119 29.1775 10.4843C27.9921 12.2574 27.0141 14.1639 26.2629 16.1655C26.1604 16.4324 26.5847 16.6095 26.7293 16.3592C27.9047 14.1185 29.3039 12.0059 30.9052 10.0545C31.6149 9.20284 32.3708 8.39167 33.1692 7.62479C32.535 9.49492 32.0314 11.443 31.4275 13.3037C30.6161 15.809 29.9422 18.3639 29.0096 20.8243C28.9373 21.0132 29.2428 21.1455 29.3314 20.9613C30.3666 18.5858 31.5581 16.2907 32.5257 13.8775C33.0853 12.4796 33.6915 11.0439 34.2231 9.57285C34.2651 10.6874 34.2977 11.8043 34.2231 12.9282C34.0549 15.204 33.7269 17.4647 33.2415 19.6933C33.2295 19.7589 33.2423 19.8267 33.2773 19.8833C33.3122 19.9399 33.3669 19.9811 33.4304 19.9989C33.4939 20.0167 33.5617 20.0097 33.6204 19.9794C33.6791 19.949 33.7245 19.8975 33.7475 19.835C35.0789 16.4654 36.0185 12.1679 35.72 8.34499C37.119 11.0935 36.4708 14.7063 36.9791 17.7287C36.9898 17.7683 37.0125 17.8034 37.0441 17.829C37.0758 17.8547 37.1146 17.8695 37.1551 17.8713C37.1955 17.8731 37.2355 17.8619 37.2692 17.8393C37.303 17.8166 37.3288 17.7837 37.3429 17.7452Z" fill="#E7D7C4"/>
<path d="M78.7387 28.6699L79.0841 28.362C80.4426 27.1443 82.2857 25.3319 81.8359 23.4677C81.7882 23.2978 81.6874 23.1481 81.5486 23.0413C81.4098 22.9345 81.2405 22.8762 81.0663 22.8753C77.357 22.9717 72.9824 23.0846 70.0799 20.3271C67.2979 17.6872 66.6651 13.5382 64.4859 10.4728C62.5385 7.73649 59.6847 5.49387 56.3371 4.93909C54.1397 4.5571 51.8795 4.94336 49.927 6.03455C49.8374 6.05781 49.7566 6.10775 49.6952 6.17794C49.4272 6.3411 49.1693 6.52088 48.9232 6.71626C48.8979 6.71885 48.873 6.72437 48.849 6.73272C48.5692 6.84477 48.3139 7.01173 48.0979 7.22403C47.9818 7.20874 47.8639 7.2173 47.7512 7.24921C47.6385 7.28111 47.5332 7.33571 47.4418 7.40974C44.4674 9.74874 44.7479 14.1211 45.7123 17.4098C46.844 21.2467 48.9245 24.7263 51.7561 27.5181C57.4661 33.134 65.8258 35.064 73.2745 32.0386C75.2692 31.2342 77.1164 30.0954 78.7387 28.6699V28.6699ZM49.6442 6.90903C49.6816 6.95057 49.7286 6.98206 49.781 7.0007C49.6604 7.0007 49.5491 7.02186 49.4216 7.03832C49.4958 6.9913 49.57 6.94899 49.6442 6.90903ZM57.5403 29.7254C53.7976 27.6704 50.7581 24.5121 48.8235 20.668C47.3978 17.8776 45.7564 13.3195 47.3143 10.2306C47.1914 11.5142 47.5461 12.8165 48.0956 14.0083C49.0507 16.084 50.8775 17.7084 51.012 20.1062C51.014 20.1471 51.0302 20.1861 51.0576 20.2163C51.085 20.2466 51.1219 20.2662 51.162 20.2717C51.2021 20.2773 51.2429 20.2685 51.2773 20.2469C51.3117 20.2252 51.3375 20.1921 51.3504 20.1532C51.7445 18.5264 51.0328 17.0243 50.3304 15.5927C49.4796 13.8579 48.7586 12.2147 48.8629 10.3388C49.6488 11.3026 50.342 12.2781 51.413 12.9787C53.0057 14.0295 55.1038 14.8381 54.9067 17.1466C54.9074 17.1853 54.9205 17.2227 54.944 17.2533C54.9675 17.2838 55.0001 17.3058 55.037 17.3159C55.0739 17.3259 55.113 17.3236 55.1485 17.3092C55.1839 17.2947 55.2138 17.269 55.2336 17.2359C55.929 15.7008 54.858 14.1188 53.6873 13.1714C52.7414 12.4051 51.6565 11.8386 50.9424 10.8207C50.8056 10.6256 50.6851 10.4305 50.5645 10.2377C51.5668 10.5425 52.5941 10.7549 53.634 10.8724C54.858 11.0181 55.9523 11.1545 56.912 11.9984C57.6075 12.6073 58.0712 13.43 58.609 14.1799C58.7087 14.3209 58.9799 14.241 58.9081 14.053C58.2937 12.4639 57.4174 10.7619 55.8247 10.0097C54.8974 9.56538 53.8495 9.46429 52.8666 9.1963C52.3275 9.04608 51.7973 8.86478 51.2786 8.65328C55.9151 8.70735 61.2889 9.13754 61.7457 14.817C61.7463 14.8562 61.7608 14.8939 61.7865 14.9232C61.8121 14.9526 61.8473 14.9717 61.8856 14.977C61.9239 14.9824 61.9629 14.9738 61.9955 14.9526C62.028 14.9314 62.0521 14.8992 62.0633 14.8616C62.9349 12.0125 60.5541 9.28329 58.1546 8.20194C56.1563 7.29925 53.6757 6.89257 51.3064 6.92313C52.7947 6.8385 54.2738 6.85261 55.7714 6.77033C55.8225 6.76429 55.8702 6.74116 55.907 6.7046C55.9437 6.66803 55.9674 6.62011 55.9743 6.56838C55.9812 6.51665 55.9709 6.46407 55.9451 6.41891C55.9193 6.37376 55.8794 6.3386 55.8317 6.31899C54.8221 6.01243 53.7744 5.85411 52.7205 5.84883C54.8245 5.53245 56.973 5.91162 58.8478 6.93018C62.1769 8.72616 64.0407 11.9091 65.4943 15.2942C66.7902 18.3172 68.1859 21.3591 71.1996 22.96C73.4322 24.1494 75.9591 24.4574 78.4652 24.5115C75.0434 25.1462 71.7653 24.6408 68.3876 23.644C68.3125 23.6254 68.2334 23.6346 68.1644 23.6698C68.0954 23.7051 68.041 23.7641 68.0111 23.8364C67.9813 23.9086 67.9777 23.9893 68.0013 24.0639C68.0248 24.1386 68.0738 24.2022 68.1395 24.2435C70.321 25.4659 72.7761 26.0489 75.2822 26.1711L74.9599 26.1875C73.5434 26.251 72.0991 26.2463 70.685 26.1711C67.8103 26.0112 65.696 24.6008 63.8252 22.4757C63.6327 22.2406 63.3429 22.5345 63.4473 22.7696C64.7223 25.6281 67.7152 27.33 70.685 27.7061C71.9459 27.8791 73.2169 27.9647 74.4893 27.9624C72.4077 28.3299 70.282 28.3625 68.1905 28.0588C66.5493 27.8282 64.9384 27.4143 63.387 26.8246C61.486 26.0865 60.4961 24.8664 59.3369 23.2421C59.1816 23.0281 58.7713 23.1457 58.8733 23.4442C59.4181 24.9934 60.204 26.3686 61.5834 27.2924C63.1552 28.3432 65.1072 28.992 66.9363 29.3752C68.2281 29.6463 69.5421 29.7942 70.8612 29.8171C69.3518 30.2313 67.784 30.3832 66.2246 30.2661C62.5802 29.9958 59.3207 28.3855 56.5828 25.9877C56.3927 25.8255 56.0403 26.0442 56.2119 26.2792C58.3378 29.2036 61.7387 31.016 65.2532 31.5332C66.1685 31.6708 67.0942 31.7243 68.0189 31.693C64.41 32.133 60.7546 31.4466 57.5403 29.7254V29.7254Z" fill="#231F20"/>
<path d="M5.22886 22.8544C5.05633 22.8561 4.88891 22.9145 4.75147 23.0212C4.61404 23.1278 4.51393 23.2769 4.46598 23.4463C4.44525 23.5386 4.42916 23.6318 4.41773 23.7258C4.29964 23.8186 4.20825 23.9423 4.15322 24.0838C4.0982 24.2253 4.08158 24.3793 4.10512 24.5297C4.12865 24.68 4.19147 24.8211 4.28694 24.938C4.38241 25.0548 4.50699 25.1432 4.64752 25.1937C5.12088 26.3258 6.171 27.3334 6.96836 28.1131C8.31982 29.4293 9.86037 30.5263 11.5365 31.3661C14.9893 33.0998 18.8577 33.7799 22.6788 33.3249C30.4548 32.3619 36.9118 26.4385 39.7083 19.1106C41.0433 15.6017 41.9694 10.4722 38.8673 7.65843C38.4996 6.57334 37.222 5.97208 36.1397 6.05194C36.0409 5.99322 35.9421 5.9392 35.8456 5.88752C35.717 5.76797 35.582 5.65584 35.4411 5.55166C35.3696 5.49532 35.2869 5.45562 35.1988 5.43533C35.1107 5.41505 35.0193 5.41467 34.931 5.43423C34.8581 5.40137 34.7805 5.38074 34.7012 5.37316L34.4439 5.28391C34.366 5.21611 34.2728 5.16929 34.1727 5.14769L34.0946 5.13125C34.0241 5.1183 33.9524 5.11358 33.8809 5.11716C32.5918 4.77962 31.25 4.70697 29.9332 4.90343C26.5323 5.4037 23.6301 7.67018 21.6609 10.4628C19.5331 13.4832 18.8851 17.4971 16.2586 20.1605C13.4047 23.0588 8.96978 22.9531 5.22886 22.8544ZM20.6636 15.2752C22.1044 11.8931 23.9519 8.71065 27.2516 6.9186C28.7213 6.11697 30.3654 5.70815 32.0311 5.73016C30.2135 6.07072 28.304 6.98906 27.1711 8.26439C27.0172 8.43585 27.1712 8.80929 27.4193 8.6989C28.458 8.25265 29.4162 7.66783 30.5076 7.33432C31.0225 7.18479 31.547 7.07178 32.0771 6.9961C31.7715 7.33197 31.4796 7.67957 31.1924 8.02952C30.5245 8.84687 29.898 9.69474 29.3128 10.5732C28.1479 12.3344 27.1864 14.2275 26.4473 16.2147C26.3462 16.4824 26.7644 16.6586 26.9069 16.4096C28.0653 14.1809 29.4443 12.0796 31.0224 10.1386C31.7218 9.29148 32.4667 8.48464 33.2536 7.72185C32.6286 9.582 32.1322 11.5197 31.5371 13.3704C30.7374 15.8624 30.0733 18.4037 29.1542 20.851C29.083 21.0389 29.384 21.1704 29.4713 20.9872C30.4916 18.6244 31.6658 16.3415 32.6194 13.9412C33.1709 12.5507 33.7683 11.1227 34.2922 9.65951C34.3336 10.7681 34.3657 11.879 34.2922 12.997C34.1264 15.2606 33.8031 17.5093 33.3248 19.726C33.313 19.7913 33.3256 19.8587 33.3601 19.915C33.3945 19.9712 33.4484 20.0123 33.511 20.03C33.5736 20.0477 33.6404 20.0407 33.6982 20.0105C33.7561 19.9804 33.8008 19.9291 33.8235 19.8669C35.1355 16.5153 36.0616 12.2407 35.7674 8.4382C37.1462 11.1721 36.5074 14.7656 37.0083 17.7719C37.0193 17.8124 37.0431 17.8481 37.0758 17.8736C37.1086 17.8991 37.1487 17.9128 37.1898 17.9128C37.231 17.9128 37.271 17.8991 37.3038 17.8736C37.3366 17.8481 37.3603 17.8124 37.3714 17.7719C37.8309 15.4725 38.086 12.8537 37.8746 10.5074C37.8237 9.90226 37.7152 9.30364 37.5506 8.72004C40.8136 11.6207 38.8581 17.3515 37.1944 20.6349C35.2766 24.4763 32.2629 27.6319 28.5522 29.6844C24.808 31.7004 20.4826 32.2834 16.3551 31.3285C16.1575 31.2839 15.9645 31.2369 15.7715 31.1829C14.7374 30.5135 13.6827 29.8746 12.6624 29.1818C13.7321 29.3163 14.7885 29.545 15.8197 29.8652C16.9089 30.2011 17.9292 30.4289 19.0643 30.2316C19.2688 30.1964 19.2182 29.8629 19.016 29.8652C17.4236 29.8817 16.0541 28.9845 14.6018 28.3762C16.5608 28.3554 18.515 28.1731 20.4453 27.8313C20.6935 27.7867 20.6246 27.3991 20.3879 27.3968C18.8046 27.3639 17.2283 27.3428 15.652 27.3099C16.9886 26.9812 18.3003 26.5542 19.5767 26.0322C21.0634 25.4403 22.6398 24.8578 23.8048 23.7023C23.8331 23.6674 23.8491 23.6238 23.8503 23.5785C23.8514 23.5332 23.8376 23.4888 23.8111 23.4525C23.7846 23.4161 23.7469 23.39 23.704 23.3782C23.6612 23.3664 23.6158 23.3697 23.575 23.3876C20.6429 25.0833 16.6309 26.2436 13.253 26.2999C11.6767 26.3258 10.0704 26.0909 8.64118 25.391C11.4193 25.492 14.3858 25.2008 16.9135 24.3458C16.9544 24.3322 16.9894 24.3044 17.0123 24.2672C17.0352 24.2299 17.0446 24.1857 17.0389 24.1421C17.0332 24.0985 17.0126 24.0583 16.9809 24.0286C16.9492 23.9989 16.9082 23.9815 16.8652 23.9794C15.1189 23.9677 13.3771 24.1251 11.6284 24.111H11.5296C12.7458 23.8908 13.923 23.4863 15.0223 22.9108C17.9981 21.3278 19.3791 18.2933 20.6636 15.2752Z" fill="#231F20"/>
</svg>
