<svg width="35" height="52" viewBox="0 0 35 52" fill="none" xmlns="http://www.w3.org/2000/svg">
<path d="M30.0653 11.0779C30.3605 10.5949 30.6887 10.1063 31.0353 9.58603C31.7167 8.60818 32.3424 7.59139 32.9093 6.54069C33.2305 5.92973 33.3897 5.24425 33.3714 4.5517C33.3531 3.85915 33.1578 3.18339 32.8048 2.59089C32.4499 1.99733 31.9511 1.50641 31.3561 1.16517C30.7612 0.823939 30.09 0.643822 29.407 0.64209C29.1571 0.642081 28.9078 0.666438 28.6625 0.714823L28.3948 0.765167C25.7672 1.27241 23.0607 1.48688 20.1965 1.71439C18.2143 1.87104 16.1624 2.03329 14.1325 2.30183C13.6196 2.34133 13.1208 2.49087 12.6688 2.74062C12.2169 2.99038 11.8221 3.33467 11.5104 3.75083C9.4567 6.50152 8.03744 9.80049 6.78504 12.7022C6.58884 13.1629 6.39264 13.6179 6.19827 14.0599C5.02106 16.7416 3.84201 19.7048 2.48876 23.3842C2.43008 23.5372 2.37324 23.6919 2.3164 23.8467L2.25039 24.0332C2.02982 24.6412 1.95731 25.2945 2.03906 25.9372C2.12081 26.5799 2.35438 27.1929 2.7198 27.7238C3.09252 28.272 3.5903 28.7202 4.17055 29.0301C4.75079 29.3399 5.39621 29.5022 6.05157 29.5029C6.9409 29.5029 7.82106 29.4675 8.69022 29.419C6.43848 34.6406 4.12439 39.9779 1.76813 45.1828C1.52866 45.6983 1.39401 46.2577 1.37227 46.8275C1.35053 47.3973 1.44214 47.9656 1.64161 48.4985C1.9317 49.2692 2.43083 49.9405 3.08104 50.4342C3.83364 51.1673 4.8335 51.5796 5.87554 51.5867C6.43628 51.584 6.99025 51.4619 7.50184 51.2285C8.01343 50.995 8.47133 50.6552 8.84609 50.231C12.9498 45.6285 16.9142 40.8078 20.7411 36.1474C24.3076 31.806 27.9969 27.3173 31.7669 23.0486C32.2956 22.4444 32.6414 21.6977 32.7627 20.8985C32.884 20.0992 32.7758 19.2812 32.4509 18.543C32.1293 17.8171 31.6087 17.201 30.9513 16.7687C30.2939 16.3363 29.5279 16.1061 28.745 16.1056H28.2041C27.8575 16.1056 27.511 16.1224 27.1663 16.1411C27.3808 15.7327 27.599 15.3298 27.819 14.9289C28.558 13.603 29.3135 12.2976 30.0653 11.0779Z" fill="white"/>
<path d="M5.57074 51.5812C5.14014 51.5813 4.71189 51.5191 4.29981 51.3967C4.23165 51.3759 4.17472 51.3294 4.14153 51.2674C4.10835 51.2055 4.10161 51.1332 4.12282 51.0664C4.13313 51.0334 4.14999 51.0027 4.17244 50.9761C4.19489 50.9495 4.22247 50.9275 4.25361 50.9114C4.28476 50.8953 4.31884 50.8853 4.35391 50.8822C4.38898 50.879 4.42434 50.8826 4.45796 50.8929C4.81844 51.002 5.19347 51.058 5.57074 51.059C5.61404 51.059 5.65358 51.059 5.695 51.059C5.76601 51.0584 5.83448 51.0848 5.88607 51.1326C5.93767 51.1804 5.96838 51.246 5.97178 51.3155C5.97381 51.3852 5.94763 51.4528 5.89894 51.5036C5.85026 51.5545 5.78304 51.5843 5.71195 51.5867L5.57074 51.5812ZM7.01488 51.3192C6.95246 51.3185 6.8922 51.2966 6.84442 51.2572C6.79665 51.2179 6.76431 51.1634 6.75297 51.1033C6.74162 51.0431 6.75197 50.9809 6.78223 50.9274C6.81249 50.8739 6.86079 50.8323 6.91886 50.8099C7.31041 50.6632 7.67534 50.4557 7.99962 50.1954C8.05455 50.1511 8.12518 50.13 8.19598 50.1368C8.26678 50.1435 8.33194 50.1775 8.37713 50.2314C8.42233 50.2852 8.44385 50.3544 8.43696 50.4238C8.43008 50.4932 8.39535 50.5571 8.34042 50.6014C7.97117 50.8986 7.55535 51.1354 7.10903 51.3026C7.07887 51.3134 7.04701 51.319 7.01488 51.3192ZM3.17951 50.8173C3.12369 50.817 3.06924 50.8002 3.02323 50.7693C2.84963 50.6477 2.68481 50.5145 2.52992 50.3707C2.32824 50.2232 2.13931 50.0596 1.96506 49.8817C1.94034 49.8569 1.92084 49.8275 1.9077 49.7953C1.89455 49.763 1.88802 49.7286 1.88845 49.6939C1.88889 49.6592 1.89629 49.6249 1.91025 49.593C1.9242 49.5611 1.94443 49.5323 1.96977 49.508C1.99511 49.4838 2.02508 49.4647 2.05796 49.4518C2.09083 49.4389 2.12598 49.4325 2.16139 49.4329C2.19679 49.4334 2.23176 49.4406 2.26431 49.4543C2.29685 49.468 2.32632 49.4878 2.35105 49.5126C2.50911 49.6737 2.6804 49.8219 2.86318 49.9555L2.88578 49.9758C3.02553 50.1089 3.17464 50.2322 3.33202 50.3449C3.37801 50.3773 3.41236 50.4232 3.43018 50.476C3.44801 50.5287 3.44839 50.5856 3.43128 50.6386C3.41417 50.6916 3.38044 50.7379 3.33489 50.7709C3.28934 50.804 3.23431 50.8222 3.17762 50.8228L3.17951 50.8173ZM9.10297 49.7101C9.03668 49.7104 8.97275 49.6859 8.9241 49.6418C8.87158 49.5955 8.83992 49.5306 8.83604 49.4615C8.83216 49.3923 8.85637 49.3245 8.90339 49.2728L9.79963 48.2929C9.84834 48.2458 9.91355 48.2186 9.98199 48.2169C10.0504 48.2152 10.117 48.2391 10.1681 48.2837C10.2191 48.3284 10.251 48.3905 10.257 48.4573C10.2631 48.5241 10.2429 48.5907 10.2007 48.6435C9.90319 48.972 9.60381 49.2992 9.30255 49.6252C9.27714 49.6522 9.24627 49.6737 9.2119 49.6883C9.17754 49.7029 9.14043 49.7103 9.10297 49.7101ZM1.38326 48.8889C1.33328 48.8888 1.28432 48.8751 1.24179 48.8493C1.19926 48.8236 1.16481 48.7869 1.14225 48.7432C1.07824 48.614 1.01799 48.4811 0.96715 48.3464C0.849222 48.0452 0.765862 47.732 0.718611 47.4127C0.713542 47.3785 0.715391 47.3437 0.72405 47.3103C0.732709 47.2768 0.748008 47.2453 0.769076 47.2176C0.790144 47.19 0.816569 47.1666 0.84684 47.149C0.87711 47.1313 0.910632 47.1197 0.945496 47.1147C0.98036 47.1097 1.01588 47.1115 1.05003 47.12C1.08418 47.1285 1.11629 47.1435 1.14453 47.1641C1.17276 47.1848 1.19657 47.2107 1.2146 47.2404C1.23262 47.27 1.24451 47.3029 1.24958 47.3371C1.29259 47.6182 1.3658 47.894 1.46799 48.16C1.51506 48.2781 1.5659 48.3962 1.62426 48.5088C1.64001 48.5398 1.64934 48.5735 1.6517 48.6081C1.65407 48.6426 1.64943 48.6773 1.63805 48.71C1.62667 48.7428 1.60878 48.773 1.5854 48.799C1.56203 48.825 1.53364 48.8461 1.50188 48.8613C1.46828 48.8815 1.43016 48.8936 1.39079 48.8963L1.38326 48.8889ZM10.8842 47.7449C10.8187 47.7444 10.7554 47.7216 10.7053 47.6803C10.6534 47.6337 10.622 47.5691 10.6178 47.5002C10.6135 47.4313 10.6368 47.3636 10.6827 47.3112C10.9777 46.9828 11.2726 46.6537 11.5676 46.324C11.5902 46.2958 11.6184 46.2724 11.6505 46.2553C11.6826 46.2382 11.7179 46.2276 11.7543 46.2242C11.7907 46.2209 11.8274 46.2249 11.8622 46.2359C11.897 46.2469 11.9291 46.2648 11.9566 46.2883C11.9841 46.3119 12.0065 46.3407 12.0222 46.3731C12.038 46.4054 12.0469 46.4405 12.0484 46.4763C12.0499 46.5121 12.0439 46.5478 12.0309 46.5813C12.0178 46.6147 11.9979 46.6452 11.9724 46.6709L11.0856 47.66C11.0616 47.6877 11.0319 47.7102 10.9986 47.7261C10.9652 47.742 10.9288 47.7509 10.8917 47.7522L10.8842 47.7449ZM0.999158 46.3277H0.953968C0.919102 46.3219 0.885746 46.3094 0.855803 46.2909C0.825861 46.2725 0.799919 46.2484 0.779462 46.2202C0.759004 46.1919 0.744433 46.1599 0.736576 46.1261C0.72872 46.0924 0.727733 46.0574 0.733674 46.0232C0.806776 45.623 0.933391 45.234 1.11025 44.8662L1.1818 44.713C1.21243 44.6509 1.26671 44.603 1.33298 44.5795C1.39926 44.5561 1.47225 44.5591 1.5363 44.5879C1.60036 44.6166 1.65037 44.6688 1.67561 44.7332C1.70086 44.7977 1.69932 44.8693 1.67134 44.9326L1.5979 45.0876C1.4431 45.4134 1.33294 45.7577 1.27029 46.1118C1.26084 46.1737 1.22905 46.2303 1.18069 46.2713C1.13234 46.3122 1.0706 46.3349 1.00669 46.3351L0.999158 46.3277ZM12.6522 45.763C12.6004 45.7636 12.5497 45.7494 12.506 45.7223C12.4623 45.6951 12.4276 45.6561 12.4061 45.61C12.3845 45.5639 12.3771 45.5127 12.3847 45.4626C12.3923 45.4124 12.4146 45.3655 12.4488 45.3275C12.7425 44.9978 13.0356 44.6663 13.3281 44.3329C13.35 44.3034 13.3779 44.2787 13.41 44.2603C13.4422 44.242 13.4778 44.2303 13.5148 44.2261C13.5518 44.2219 13.5892 44.2253 13.6248 44.236C13.6604 44.2467 13.6933 44.2645 13.7215 44.2883C13.7497 44.3121 13.7725 44.3413 13.7886 44.3742C13.8047 44.4071 13.8136 44.4429 13.8149 44.4793C13.8161 44.5158 13.8097 44.5521 13.7959 44.586C13.7821 44.6198 13.7613 44.6505 13.7348 44.6761L12.8555 45.6726C12.832 45.7017 12.8023 45.7256 12.7685 45.7425C12.7347 45.7593 12.6976 45.7689 12.6597 45.7704L12.6522 45.763ZM1.97824 43.8864C1.93987 43.8864 1.90196 43.8782 1.86715 43.8624C1.83505 43.8481 1.80615 43.8277 1.78213 43.8023C1.7581 43.777 1.73943 43.7473 1.72718 43.7149C1.71492 43.6825 1.70934 43.648 1.71074 43.6134C1.71215 43.5789 1.72051 43.545 1.73536 43.5136C1.92364 43.115 2.11193 42.7164 2.2908 42.316C2.32276 42.2564 2.37678 42.211 2.44178 42.1892C2.50678 42.1673 2.57785 42.1706 2.64043 42.1985C2.703 42.2263 2.75236 42.2765 2.77837 42.3389C2.80438 42.4012 2.80509 42.4709 2.78034 42.5338C2.59582 42.9348 2.40754 43.334 2.21548 43.7313C2.19637 43.7767 2.16475 43.8159 2.12418 43.8445C2.0836 43.8732 2.03568 43.8903 1.98578 43.8937L1.97824 43.8864ZM14.4051 43.7683C14.3415 43.7688 14.2798 43.7465 14.2319 43.7055C14.1784 43.6602 14.1453 43.5961 14.1397 43.527C14.1341 43.458 14.1563 43.3895 14.2018 43.3365L15.0735 42.3363C15.0953 42.3069 15.1231 42.2823 15.1552 42.2639C15.1872 42.2455 15.2227 42.2338 15.2596 42.2295C15.2964 42.2253 15.3337 42.2285 15.3693 42.239C15.4048 42.2496 15.4377 42.2672 15.4659 42.2908C15.4941 42.3144 15.5171 42.3434 15.5333 42.3761C15.5495 42.4088 15.5587 42.4444 15.5602 42.4808C15.5618 42.5171 15.5556 42.5533 15.5421 42.5872C15.5287 42.6211 15.5083 42.6519 15.4821 42.6777L14.6103 43.6797C14.5858 43.708 14.5556 43.7312 14.5216 43.7477C14.4876 43.7642 14.4505 43.7737 14.4126 43.7756L14.4051 43.7683ZM16.1543 41.7754C16.0908 41.7751 16.0294 41.7529 15.981 41.7126C15.9269 41.6678 15.8931 41.6038 15.8871 41.5346C15.8811 41.4654 15.9034 41.3967 15.949 41.3435L16.8152 40.3379C16.8627 40.2901 16.9269 40.2617 16.9949 40.2585C17.0629 40.2552 17.1296 40.2773 17.1817 40.3204C17.2337 40.3634 17.2672 40.4242 17.2753 40.4904C17.2835 40.5567 17.2657 40.6235 17.2256 40.6774L16.3595 41.6831C16.3339 41.7118 16.3024 41.7349 16.267 41.7508C16.2316 41.7667 16.1932 41.7751 16.1543 41.7754ZM3.09854 41.5004C3.06015 41.5006 3.0222 41.4924 2.98745 41.4764C2.95518 41.4623 2.9261 41.442 2.90188 41.4167C2.87766 41.3915 2.85878 41.3618 2.84635 41.3294C2.83392 41.2969 2.82817 41.2624 2.82945 41.2278C2.83072 41.1932 2.83899 41.1591 2.85377 41.1277L3.40545 39.9282C3.43802 39.87 3.49179 39.826 3.55602 39.8049C3.62026 39.7838 3.69024 39.7872 3.75201 39.8145C3.81378 39.8417 3.86281 39.8908 3.88931 39.9519C3.91581 40.013 3.91784 40.0816 3.89499 40.1441L3.34331 41.3454C3.32145 41.3908 3.2868 41.4292 3.24344 41.456C3.20008 41.4828 3.14981 41.4969 3.09854 41.4967V41.5004ZM17.8846 39.7621C17.8216 39.7624 17.7607 39.7401 17.7133 39.6994C17.6588 39.6549 17.6247 39.591 17.6183 39.5218C17.612 39.4525 17.6339 39.3837 17.6794 39.3303L18.5436 38.3228C18.5662 38.2964 18.594 38.2746 18.6252 38.2587C18.6564 38.2428 18.6905 38.233 18.7255 38.23C18.7606 38.227 18.7959 38.2309 18.8295 38.2412C18.863 38.2516 18.8942 38.2684 18.9211 38.2905C18.9481 38.3127 18.9703 38.3399 18.9866 38.3705C19.0028 38.4011 19.0127 38.4345 19.0158 38.4688C19.0189 38.5032 19.015 38.5378 19.0044 38.5707C18.9938 38.6036 18.9767 38.6341 18.9541 38.6605L18.0917 39.6699C18.0655 39.6981 18.0335 39.7206 17.9978 39.7358C17.9621 39.7511 17.9236 39.7588 17.8846 39.7585V39.7621ZM4.20001 39.0997C4.1622 39.1001 4.12481 39.0919 4.09081 39.0757C4.05844 39.0619 4.0292 39.0419 4.0048 39.0169C3.9804 38.9919 3.96134 38.9624 3.94871 38.9301C3.93609 38.8978 3.93017 38.8634 3.93129 38.8288C3.93241 38.7942 3.94055 38.7602 3.95524 38.7288L4.50127 37.5275C4.51436 37.4941 4.53425 37.4636 4.55974 37.438C4.58522 37.4123 4.61577 37.392 4.64952 37.3783C4.68326 37.3646 4.7195 37.3577 4.75603 37.3582C4.79256 37.3586 4.82861 37.3664 4.86199 37.3809C4.89538 37.3955 4.92539 37.4165 4.95021 37.4428C4.97503 37.4691 4.99414 37.5 5.00636 37.5337C5.01859 37.5675 5.02368 37.6033 5.02133 37.639C5.01898 37.6747 5.00924 37.7096 4.9927 37.7416L4.44479 38.9428C4.423 38.9885 4.38843 39.0271 4.34509 39.0542C4.30175 39.0814 4.25143 39.0958 4.20001 39.096V39.0997ZM19.6112 37.7434C19.5599 37.7441 19.5094 37.7302 19.4659 37.7035C19.4224 37.6768 19.3876 37.6384 19.3658 37.5929C19.3439 37.5473 19.3359 37.4966 19.3427 37.4467C19.3495 37.3968 19.3708 37.3499 19.4041 37.3116L20.2664 36.3022C20.3119 36.2489 20.3771 36.2154 20.4477 36.2092C20.5183 36.203 20.5886 36.2245 20.643 36.269C20.6966 36.3141 20.7301 36.3779 20.7364 36.4468C20.7427 36.5157 20.7214 36.5843 20.6769 36.6381L19.8145 37.6474C19.7896 37.6765 19.7585 37.6999 19.7234 37.7158C19.6882 37.7318 19.6499 37.7399 19.6112 37.7397V37.7434ZM5.30148 36.6953C5.2637 36.6954 5.22637 36.6873 5.19228 36.6713C5.12725 36.643 5.07629 36.5906 5.05053 36.5256C5.02478 36.4606 5.02632 36.3883 5.05483 36.3244L5.59898 35.1212C5.61344 35.0896 5.63412 35.0611 5.65983 35.0373C5.68554 35.0135 5.71578 34.9949 5.74883 34.9826C5.78187 34.9702 5.81708 34.9644 5.85242 34.9654C5.88777 34.9664 5.92257 34.9742 5.95484 34.9884C5.98704 35.0024 6.0161 35.0225 6.04036 35.0475C6.06462 35.0725 6.08359 35.102 6.09619 35.1342C6.10878 35.1665 6.11476 35.2008 6.11376 35.2353C6.11277 35.2698 6.10483 35.3038 6.0904 35.3353L5.54626 36.5384C5.52414 36.5854 5.48844 36.6249 5.44358 36.6521C5.39873 36.6794 5.3467 36.6931 5.29396 36.6916L5.30148 36.6953ZM21.3415 35.7247C21.2902 35.7253 21.2398 35.7115 21.1962 35.6848C21.1527 35.6581 21.1179 35.6197 21.0961 35.5741C21.0743 35.5286 21.0663 35.4778 21.0731 35.428C21.0799 35.3781 21.1012 35.3312 21.1344 35.2929L21.9968 34.2835C22.0422 34.2301 22.1074 34.1967 22.178 34.1904C22.2487 34.1842 22.3189 34.2057 22.3733 34.2503C22.4269 34.2953 22.4604 34.3591 22.4668 34.4281C22.4731 34.497 22.4517 34.5656 22.4072 34.6193L21.5449 35.6287C21.5188 35.6582 21.4863 35.6818 21.4499 35.6978C21.4135 35.7137 21.3739 35.7216 21.334 35.721L21.3415 35.7247ZM6.3879 34.2872C6.34323 34.2873 6.29925 34.2764 6.25996 34.2556C6.22067 34.2348 6.18734 34.2046 6.163 34.1679C6.13865 34.1312 6.12409 34.0891 6.12061 34.0455C6.11714 34.0019 6.12488 33.9581 6.14312 33.9181L6.68538 32.7132C6.69847 32.6797 6.71837 32.6493 6.74386 32.6236C6.76934 32.598 6.79989 32.5777 6.83363 32.5639C6.86738 32.5502 6.90362 32.5434 6.94015 32.5438C6.97667 32.5443 7.01273 32.552 7.04611 32.5666C7.07949 32.5811 7.10951 32.6021 7.13433 32.6284C7.15915 32.6547 7.17825 32.6856 7.19048 32.7194C7.2027 32.7531 7.20779 32.7889 7.20545 32.8247C7.2031 32.8604 7.19336 32.8953 7.17681 32.9272L6.63455 34.1303C6.61211 34.1774 6.57607 34.217 6.53089 34.2443C6.48571 34.2715 6.43337 34.2851 6.38036 34.2835L6.3879 34.2872ZM23.0644 33.7059C23.0132 33.7057 22.9631 33.6913 22.92 33.6642C22.8769 33.6371 22.8425 33.5986 22.821 33.5531C22.7995 33.5076 22.7916 33.457 22.7984 33.4072C22.8051 33.3575 22.8262 33.3107 22.8591 33.2723L23.7215 32.2647C23.7674 32.2112 23.8332 32.1776 23.9043 32.1716C23.9755 32.1655 24.0462 32.1874 24.1009 32.2324C24.1555 32.2775 24.1897 32.3419 24.1959 32.4117C24.2021 32.4814 24.1798 32.5507 24.1338 32.6043L23.2696 33.6118C23.2432 33.6415 23.2105 33.665 23.1736 33.6806C23.1368 33.6963 23.0969 33.7036 23.0568 33.7022L23.0644 33.7059ZM7.47054 31.8791C7.43361 31.8788 7.39711 31.8713 7.36321 31.8569C7.29818 31.8286 7.24722 31.7763 7.22147 31.7113C7.19571 31.6463 7.19725 31.5739 7.22576 31.51L7.76614 30.3051C7.77852 30.2708 7.79798 30.2395 7.82328 30.213C7.84858 30.1865 7.87919 30.1654 7.9132 30.151C7.94721 30.1366 7.98388 30.1292 8.02092 30.1294C8.05796 30.1295 8.09458 30.1371 8.12848 30.1518C8.16237 30.1664 8.19282 30.1877 8.21792 30.2144C8.24302 30.2411 8.26223 30.2726 8.27434 30.3069C8.28646 30.3412 8.29123 30.3776 8.28834 30.4138C8.28545 30.45 8.27498 30.4852 8.25757 30.5173L7.71719 31.7222C7.69495 31.7695 7.65895 31.8092 7.61372 31.8365C7.5685 31.8637 7.51606 31.8773 7.46301 31.8754L7.47054 31.8791ZM24.7928 31.6945C24.7246 31.696 24.6585 31.6716 24.6083 31.6263C24.5546 31.5812 24.5211 31.5172 24.5151 31.4482C24.5091 31.3791 24.5311 31.3105 24.5763 31.2572C24.8644 30.9214 25.1543 30.5874 25.4443 30.2515C25.4921 30.2044 25.5563 30.1767 25.6241 30.174C25.6919 30.1713 25.7582 30.1937 25.8098 30.2368C25.8615 30.28 25.8946 30.3406 25.9025 30.4066C25.9105 30.4726 25.8928 30.5392 25.8529 30.5929C25.5629 30.9269 25.2748 31.2628 24.9868 31.5968C24.9615 31.6248 24.9305 31.6473 24.8958 31.6629C24.8611 31.6785 24.8235 31.6867 24.7853 31.6872L24.7928 31.6945ZM5.58768 29.733H5.5745C5.09748 29.7124 4.62698 29.6165 4.18118 29.4488C4.1483 29.4367 4.11817 29.4184 4.09252 29.3948C4.06687 29.3713 4.0462 29.3431 4.03168 29.3117C4.01717 29.2804 4.00911 29.2465 4.00795 29.2121C4.00678 29.1777 4.01254 29.1434 4.02491 29.1111C4.03727 29.0789 4.05599 29.0494 4.08 29.0243C4.104 28.9991 4.13283 28.9788 4.16482 28.9646C4.19682 28.9504 4.23136 28.9425 4.26647 28.9414C4.30159 28.9402 4.33658 28.9459 4.36947 28.958C4.76116 29.1048 5.17439 29.1889 5.59333 29.2071C5.6606 29.2137 5.72288 29.2448 5.76781 29.2943C5.81274 29.3438 5.83702 29.4081 5.83583 29.4743C5.83465 29.5405 5.80808 29.6039 5.76141 29.6519C5.71474 29.6998 5.65137 29.7288 5.58391 29.733H5.58768ZM6.93015 29.7182C6.85874 29.7195 6.78977 29.6928 6.73839 29.6442C6.68702 29.5956 6.65745 29.529 6.6562 29.459C6.65495 29.389 6.68212 29.3214 6.73173 29.271C6.78134 29.2207 6.84933 29.1917 6.92074 29.1905C7.36886 29.1794 7.8151 29.1591 8.25757 29.137C8.29415 29.1327 8.33123 29.1359 8.36651 29.1463C8.40179 29.1566 8.43453 29.174 8.46269 29.1972C8.49086 29.2205 8.51385 29.2492 8.53025 29.2815C8.54666 29.3138 8.55612 29.3491 8.55805 29.3852C8.55999 29.4212 8.55436 29.4573 8.54151 29.4911C8.52866 29.5249 8.50886 29.5558 8.48334 29.5818C8.45783 29.6079 8.42713 29.6285 8.39315 29.6424C8.35918 29.6564 8.32264 29.6633 8.28581 29.6629C7.83769 29.6869 7.38957 29.7053 6.93769 29.7182H6.93015ZM26.5307 29.685C26.4671 29.6856 26.4054 29.6633 26.3575 29.6223C26.3038 29.5772 26.2703 29.5133 26.2643 29.4442C26.2583 29.3751 26.2803 29.3065 26.3255 29.2532C26.6173 28.9192 26.9073 28.5852 27.1991 28.2531C27.2469 28.206 27.3112 28.1783 27.3789 28.1755C27.4467 28.1728 27.513 28.1953 27.5647 28.2384C27.6163 28.2815 27.6494 28.3421 27.6574 28.4082C27.6653 28.4742 27.6476 28.5407 27.6077 28.5945L26.7359 29.5946C26.7085 29.623 26.6751 29.6451 26.638 29.6594C26.6009 29.6738 26.5611 29.68 26.5213 29.6776L26.5307 29.685ZM3.12302 28.8067C3.06045 28.8064 2.99991 28.7848 2.95168 28.7458C2.63461 28.4901 2.35518 28.1926 2.12134 27.8619C2.08368 27.8084 2.04791 27.7549 2.01214 27.6995C1.97418 27.6405 1.96169 27.5692 1.9774 27.5012C1.99312 27.4332 2.03575 27.3741 2.09592 27.3369C2.15609 27.2997 2.22888 27.2875 2.29826 27.3029C2.36765 27.3183 2.42795 27.36 2.4659 27.419L2.56381 27.5629C2.76942 27.8538 3.01529 28.1153 3.29436 28.3398C3.33691 28.3745 3.36754 28.4211 3.38209 28.4734C3.39663 28.5257 3.3944 28.5811 3.37568 28.6321C3.35696 28.6831 3.32266 28.7272 3.27746 28.7585C3.23225 28.7897 3.17833 28.8065 3.12302 28.8067ZM28.278 27.6866C28.2135 27.6871 28.151 27.6641 28.1029 27.622C28.0493 27.5767 28.0162 27.5124 28.0109 27.4432C28.0056 27.374 28.0285 27.3056 28.0746 27.2529L28.9558 26.2583C29.0025 26.2057 29.0686 26.1734 29.1396 26.1686C29.2106 26.1638 29.2806 26.1867 29.3343 26.2325C29.3879 26.2783 29.4209 26.343 29.4258 26.4126C29.4308 26.4822 29.4073 26.5508 29.3606 26.6034C29.0669 26.9337 28.7751 27.2659 28.4813 27.598C28.454 27.6259 28.4208 27.6476 28.3841 27.6616C28.3474 27.6757 28.3079 27.6816 28.2686 27.6792L28.278 27.6866ZM1.72971 26.6145C1.6694 26.6145 1.61083 26.5947 1.56337 26.5582C1.51592 26.5218 1.48233 26.4707 1.46799 26.4133C1.38913 26.0899 1.34932 25.7586 1.34937 25.4261C1.34937 25.2914 1.34937 25.1549 1.37008 25.0201C1.38132 24.9543 1.41759 24.8951 1.4716 24.8544C1.5256 24.8138 1.59332 24.7947 1.66112 24.801C1.72892 24.8073 1.79176 24.8386 1.83698 24.8885C1.8822 24.9384 1.90644 25.0032 1.90481 25.07C1.89197 25.1883 1.88568 25.3072 1.88598 25.4261C1.88622 25.7177 1.92161 26.0082 1.99142 26.2916C2.00732 26.3595 1.9953 26.4309 1.95796 26.4903C1.92062 26.5497 1.86096 26.5923 1.79184 26.6089L1.72971 26.6145ZM30.0498 25.6918C29.9847 25.6923 29.9217 25.6693 29.8728 25.6272C29.8197 25.5814 29.7873 25.5168 29.7827 25.4477C29.7782 25.3785 29.8017 25.3104 29.8483 25.2582L30.737 24.2691C30.7854 24.2213 30.8506 24.1935 30.9192 24.1913C30.9879 24.1891 31.0548 24.2127 31.1063 24.2573C31.1578 24.3018 31.1899 24.364 31.1962 24.431C31.2024 24.4981 31.1823 24.5649 31.1399 24.6179C30.8424 24.9463 30.5468 25.2754 30.2531 25.6051C30.2253 25.6352 30.1908 25.6587 30.1523 25.6738C30.1138 25.6888 30.0723 25.695 30.0309 25.6918H30.0498ZM1.97636 24.0311C1.94423 24.0309 1.91238 24.0253 1.88222 24.0145C1.81561 23.9896 1.76167 23.94 1.73207 23.8765C1.70247 23.8129 1.69959 23.7405 1.72406 23.6749L1.86339 23.3169C1.97636 23.0235 2.08745 22.732 2.20042 22.4423C2.21278 22.41 2.2315 22.3805 2.25551 22.3554C2.27952 22.3302 2.30834 22.31 2.34034 22.2958C2.37233 22.2815 2.40687 22.2736 2.44198 22.2725C2.4771 22.2713 2.5121 22.277 2.54498 22.2891C2.57787 22.3012 2.608 22.3196 2.63365 22.3431C2.6593 22.3666 2.67997 22.3949 2.69448 22.4262C2.70899 22.4576 2.71706 22.4915 2.71822 22.5259C2.71939 22.5603 2.71362 22.5946 2.70126 22.6268C2.59017 22.9147 2.47908 23.2081 2.36611 23.5033C2.31716 23.6233 2.27197 23.7414 2.22866 23.8576C2.20884 23.9116 2.17172 23.9579 2.12285 23.9895C2.07397 24.0211 2.01598 24.0363 1.95753 24.0329L1.97636 24.0311ZM31.8309 23.7192C31.7788 23.7197 31.7277 23.7053 31.6838 23.6776C31.64 23.65 31.6053 23.6105 31.5841 23.5638C31.5629 23.5171 31.5561 23.4654 31.5645 23.415C31.5729 23.3646 31.5961 23.3177 31.6313 23.28L31.9778 22.911C32.1489 22.7229 32.3009 22.519 32.4316 22.302C32.4484 22.2701 32.4716 22.2419 32.4999 22.2192C32.5283 22.1964 32.561 22.1795 32.5962 22.1696C32.6314 22.1596 32.6683 22.1568 32.7046 22.1613C32.7409 22.1658 32.776 22.1776 32.8075 22.1958C32.8391 22.214 32.8665 22.2384 32.8881 22.2673C32.9097 22.2963 32.9251 22.3293 32.9333 22.3643C32.9414 22.3993 32.9422 22.4355 32.9356 22.4708C32.929 22.5061 32.9151 22.5397 32.8947 22.5696C32.7455 22.8157 32.5728 23.0475 32.3788 23.2616L32.0305 23.6417C32.0025 23.6701 31.9683 23.692 31.9305 23.7057C31.8927 23.7195 31.8523 23.7247 31.8121 23.7211L31.8309 23.7192ZM2.92909 21.5695C2.89615 21.5696 2.86351 21.5633 2.83306 21.551C2.80011 21.5387 2.76995 21.5202 2.74434 21.4965C2.71872 21.4727 2.69814 21.4443 2.68379 21.4127C2.66944 21.3812 2.6616 21.3471 2.66072 21.3126C2.65984 21.2781 2.66594 21.2437 2.67867 21.2115C2.8431 20.792 3.00503 20.3823 3.16444 19.9825C3.19085 19.9178 3.2423 19.866 3.30756 19.8383C3.37282 19.8107 3.44659 19.8094 3.51277 19.8349C3.54572 19.8471 3.57584 19.8657 3.60139 19.8894C3.62695 19.9132 3.64742 19.9417 3.66161 19.9733C3.67581 20.0049 3.68345 20.039 3.68408 20.0735C3.68471 20.108 3.67832 20.1423 3.66528 20.1744C3.50461 20.5742 3.34269 20.9827 3.17951 21.3997C3.15939 21.4528 3.12234 21.4982 3.07385 21.5291C3.02535 21.5601 2.96799 21.5748 2.91026 21.5713L2.92909 21.5695ZM33.132 21.4772C33.1126 21.4798 33.093 21.4798 33.0736 21.4772C33.0392 21.4698 33.0066 21.4558 32.9777 21.4359C32.9489 21.4161 32.9243 21.3909 32.9054 21.3618C32.8865 21.3326 32.8736 21.3001 32.8676 21.2661C32.8616 21.232 32.8625 21.1972 32.8703 21.1635C32.9305 20.8894 32.9608 20.6098 32.9606 20.3294C32.9606 20.2003 32.9607 20.0674 32.9418 19.9382C32.939 19.8711 32.9624 19.8054 33.0073 19.7546C33.0522 19.7037 33.1152 19.6717 33.1835 19.6648C33.2517 19.658 33.32 19.677 33.3745 19.7178C33.429 19.7587 33.4655 19.8184 33.4766 19.8847C33.4916 20.0323 33.4991 20.1818 33.4991 20.3294C33.4989 20.6478 33.4636 20.9652 33.3937 21.276C33.3797 21.3336 33.3462 21.3848 33.2986 21.4214C33.2511 21.4579 33.1924 21.4776 33.132 21.4772ZM3.89687 19.1208C3.8627 19.121 3.8288 19.1148 3.79708 19.1023C3.76425 19.0897 3.7343 19.0708 3.70899 19.0468C3.68368 19.0227 3.66351 18.994 3.64966 18.9622C3.63582 18.9304 3.62857 18.8962 3.62834 18.8617C3.62811 18.8271 3.63491 18.7929 3.64834 18.7609C3.81779 18.3439 3.98662 17.9367 4.15482 17.5393C4.16818 17.5075 4.1878 17.4785 4.21258 17.4541C4.23736 17.4296 4.26681 17.4102 4.29924 17.3969C4.33167 17.3837 4.36646 17.3768 4.4016 17.3767C4.43675 17.3766 4.47158 17.3833 4.5041 17.3963C4.53661 17.4094 4.56618 17.4287 4.59111 17.4529C4.61604 17.4772 4.63584 17.5061 4.64939 17.5379C4.66294 17.5697 4.66997 17.6037 4.67008 17.6382C4.67019 17.6726 4.66337 17.7068 4.65002 17.7386C4.48433 18.1348 4.31675 18.5407 4.14729 18.9565C4.12681 19.0051 4.09208 19.0466 4.04751 19.0759C4.00293 19.1051 3.95051 19.1207 3.89687 19.1208ZM32.6255 18.7369L32.8703 18.6318L32.6217 18.7314C32.4514 18.359 32.2213 18.0157 31.9401 17.7146C31.9131 17.6898 31.8916 17.6598 31.877 17.6264C31.8624 17.5931 31.8549 17.5571 31.8551 17.5208C31.8553 17.4846 31.8631 17.4487 31.8781 17.4155C31.8931 17.3823 31.9149 17.3525 31.9422 17.3279C31.9694 17.3034 32.0016 17.2846 32.0366 17.2728C32.0716 17.2609 32.1087 17.2563 32.1457 17.2592C32.1826 17.262 32.2185 17.2723 32.2512 17.2894C32.2838 17.3065 32.3126 17.33 32.3355 17.3585C32.6551 17.7001 32.9169 18.0894 33.1113 18.5118L32.8703 18.6318L32.6255 18.7369ZM31.0872 16.9876C31.0416 16.9882 30.9967 16.9768 30.9573 16.9544C30.5901 16.755 30.1929 16.6143 29.7805 16.5374C29.7106 16.5244 29.6488 16.4847 29.6087 16.4271C29.5686 16.3695 29.5536 16.2986 29.5668 16.2301C29.58 16.1616 29.6205 16.101 29.6793 16.0618C29.7381 16.0225 29.8104 16.0077 29.8803 16.0207C30.3498 16.1066 30.8019 16.2668 31.219 16.4949C31.2703 16.5238 31.3104 16.5684 31.3333 16.6218C31.3561 16.6753 31.3604 16.7346 31.3454 16.7907C31.3304 16.8467 31.297 16.8964 31.2503 16.932C31.2036 16.9676 31.1463 16.9871 31.0872 16.9876ZM4.91362 16.6794C4.87751 16.679 4.84179 16.6721 4.80818 16.6591C4.74294 16.6315 4.69148 16.5798 4.66503 16.5151C4.63858 16.4505 4.63927 16.3782 4.66696 16.3141C4.84395 15.9032 5.02031 15.4991 5.19604 15.1017C5.22647 15.0406 5.2798 14.9934 5.34489 14.9699C5.40998 14.9464 5.48182 14.9484 5.54543 14.9755C5.60904 15.0026 5.65952 15.0528 5.68634 15.1155C5.71315 15.1782 5.71423 15.2486 5.68935 15.3121C5.51487 15.707 5.33851 16.1093 5.16027 16.5189C5.13966 16.5664 5.10532 16.6069 5.06148 16.6354C5.01765 16.6639 4.96624 16.6792 4.91362 16.6794ZM27.4326 16.5115C27.3872 16.5115 27.3426 16.5004 27.3028 16.4791C27.263 16.4578 27.2293 16.4271 27.2048 16.3897C27.1797 16.3501 27.1656 16.3047 27.164 16.2581C27.1623 16.2115 27.1731 16.1653 27.1953 16.124L27.3328 15.8731C27.3674 15.812 27.4251 15.7667 27.4934 15.7471C27.5618 15.7274 27.6353 15.7349 27.6981 15.7679C27.7359 15.788 27.7682 15.8168 27.7921 15.8518C27.8161 15.8869 27.831 15.9271 27.8355 15.969C28.0502 15.969 28.2648 15.9561 28.4813 15.9524C28.552 15.9528 28.6198 15.9799 28.6706 16.028C28.7215 16.0761 28.7514 16.1415 28.7543 16.2107C28.7548 16.2454 28.7484 16.2798 28.7353 16.312C28.7222 16.3442 28.7028 16.3736 28.6782 16.3984C28.6535 16.4233 28.6241 16.4431 28.5916 16.4568C28.5591 16.4705 28.5242 16.4778 28.4889 16.4783C28.1405 16.4783 27.7922 16.4949 27.4458 16.5115H27.4326ZM28.2196 15.1109C28.1735 15.1109 28.1282 15.0995 28.0878 15.0777C28.0558 15.0607 28.0276 15.0374 28.0049 15.0094C27.9823 14.9813 27.9658 14.9491 27.9563 14.9146C27.9467 14.8801 27.9445 14.844 27.9496 14.8086C27.9548 14.7732 27.9672 14.7392 27.9861 14.7087C28.2083 14.3224 28.4311 13.941 28.6546 13.5646C28.6728 13.5342 28.6971 13.5076 28.7259 13.4864C28.7546 13.4651 28.7874 13.4497 28.8223 13.4408C28.8572 13.432 28.8935 13.43 28.9291 13.4349C28.9648 13.4399 28.9992 13.4516 29.0302 13.4696C29.0612 13.4875 29.0883 13.5112 29.11 13.5394C29.1317 13.5677 29.1475 13.5998 29.1565 13.634C29.1655 13.6681 29.1675 13.7037 29.1625 13.7387C29.1575 13.7736 29.1454 13.8073 29.1272 13.8377C28.9025 14.2141 28.6803 14.5943 28.4606 14.9781C28.4366 15.0192 28.4017 15.0533 28.3597 15.0767C28.3176 15.1001 28.2699 15.1119 28.2215 15.1109H28.2196ZM5.98496 14.2806C5.94743 14.2803 5.91031 14.2728 5.87576 14.2584C5.84349 14.2443 5.81438 14.224 5.7901 14.1988C5.76583 14.1736 5.74685 14.1439 5.73426 14.1116C5.72167 14.0792 5.71572 14.0447 5.71674 14.01C5.71775 13.9754 5.72572 13.9413 5.74019 13.9097C5.91153 13.5295 6.08475 13.1402 6.25986 12.7471L6.27869 12.7065C6.3074 12.6424 6.36093 12.5921 6.42749 12.5667C6.49405 12.5413 6.56819 12.5428 6.63361 12.5709C6.69902 12.599 6.75036 12.6515 6.77631 12.7167C6.80226 12.782 6.80071 12.8546 6.77199 12.9187L6.75317 12.9593C6.57806 13.3524 6.40296 13.7418 6.23162 14.1237C6.21025 14.1703 6.17562 14.2099 6.13187 14.2378C6.08812 14.2656 6.03711 14.2804 5.98496 14.2806ZM29.5715 12.8431C29.5231 12.8435 29.4755 12.8307 29.4341 12.8062C29.403 12.7882 29.3759 12.7643 29.3543 12.7358C29.3328 12.7074 29.3173 12.6751 29.3087 12.6407C29.3001 12.6063 29.2986 12.5706 29.3043 12.5356C29.31 12.5007 29.3227 12.4672 29.3418 12.4371C29.5753 12.0552 29.8106 11.6787 30.0441 11.3097C30.0673 11.2705 30.1012 11.2386 30.142 11.2174C30.1439 11.1715 30.1582 11.1269 30.1834 11.0882C30.4282 10.7063 30.6956 10.3132 30.9253 9.98105C30.9658 9.92445 31.0274 9.88571 31.0968 9.87316C31.1662 9.86061 31.2378 9.87526 31.2963 9.91395C31.3548 9.95264 31.3954 10.0123 31.4095 10.0801C31.4236 10.1478 31.4099 10.2183 31.3715 10.2763C31.1437 10.6048 30.8782 10.9923 30.6391 11.3669C30.5983 11.3884 30.5641 11.42 30.5396 11.4585C30.5152 11.497 30.5014 11.5411 30.4998 11.5865C30.2682 11.9555 30.0347 12.3246 29.8031 12.7084C29.7789 12.7473 29.7449 12.7794 29.7043 12.8017C29.6637 12.824 29.618 12.8357 29.5715 12.8357V12.8431ZM7.06572 11.8632C7.02796 11.8632 6.99067 11.855 6.95652 11.8393C6.92431 11.8253 6.89525 11.8052 6.87099 11.7802C6.84674 11.7551 6.82776 11.7256 6.81516 11.6934C6.80257 11.6612 6.79659 11.6268 6.79759 11.5923C6.79858 11.5578 6.80652 11.5238 6.82095 11.4923C7.00924 11.0956 7.18434 10.6933 7.37263 10.2892C7.40326 10.227 7.45754 10.1791 7.52382 10.1557C7.59009 10.1323 7.66308 10.1353 7.72713 10.164C7.79119 10.1928 7.8412 10.245 7.86645 10.3094C7.89169 10.3739 7.89016 10.4454 7.86217 10.5088C7.67388 10.9111 7.4856 11.3115 7.31049 11.7064C7.28965 11.753 7.25539 11.7927 7.21193 11.8205C7.16846 11.8484 7.11765 11.8632 7.06572 11.8632ZM8.19543 9.46438C8.15499 9.46485 8.11501 9.456 8.0787 9.43854C8.01457 9.40791 7.96546 9.35359 7.94216 9.28751C7.91886 9.22142 7.92327 9.14898 7.95443 9.08608C8.15778 8.67458 8.36113 8.27785 8.56071 7.90326C8.57555 7.87018 8.59716 7.84044 8.62421 7.81588C8.65125 7.79133 8.68316 7.77248 8.71794 7.7605C8.75273 7.74853 8.78965 7.74367 8.82643 7.74626C8.8632 7.74884 8.89905 7.7588 8.93174 7.77552C8.96442 7.79223 8.99326 7.81535 9.01645 7.84343C9.03965 7.87151 9.05672 7.90397 9.0666 7.93878C9.07648 7.97359 9.07895 8.01002 9.07387 8.04581C9.06879 8.0816 9.05626 8.11599 9.03707 8.14684C8.84879 8.51589 8.63979 8.90893 8.43832 9.31674C8.41674 9.36345 8.38175 9.40299 8.33761 9.43052C8.29347 9.45805 8.2421 9.47237 8.18979 9.47175L8.19543 9.46438ZM31.9025 9.2983C31.8495 9.29841 31.7977 9.28299 31.7537 9.25401C31.7238 9.23483 31.6981 9.21 31.6781 9.18097C31.6581 9.15195 31.6442 9.11931 31.6371 9.08496C31.6301 9.0506 31.6302 9.01522 31.6373 8.98088C31.6443 8.94654 31.6583 8.91393 31.6784 8.88495C31.9646 8.46607 32.1943 8.11916 32.4033 7.78885C32.4208 7.75734 32.4447 7.72964 32.4734 7.70747C32.5022 7.68529 32.5353 7.66911 32.5707 7.65989C32.6061 7.65068 32.643 7.64862 32.6792 7.65386C32.7154 7.6591 32.7501 7.67153 32.7813 7.69037C32.8124 7.70921 32.8393 7.73408 32.8603 7.76345C32.8814 7.79283 32.896 7.8261 32.9035 7.86123C32.9109 7.89635 32.911 7.93259 32.9037 7.96774C32.8963 8.00288 32.8818 8.0362 32.8609 8.06564C32.6481 8.40149 32.4146 8.75394 32.1247 9.17282C32.1015 9.21042 32.0689 9.24164 32.0301 9.26358C31.9912 9.28553 31.9473 9.29747 31.9025 9.2983ZM9.43247 7.13746C9.38642 7.13716 9.34116 7.12575 9.30068 7.10425C9.26877 7.08704 9.24075 7.06367 9.21832 7.03555C9.1959 7.00743 9.17952 6.97514 9.17019 6.94064C9.16087 6.90614 9.15878 6.87016 9.16405 6.83484C9.16933 6.79953 9.18186 6.76562 9.20088 6.73519C9.42871 6.3403 9.66218 5.95648 9.89377 5.5948C9.93173 5.53583 9.99202 5.49405 10.0614 5.47865C10.1308 5.46325 10.2036 5.47549 10.2638 5.51269C10.3239 5.54988 10.3666 5.60899 10.3823 5.67699C10.398 5.74499 10.3855 5.81632 10.3475 5.87529C10.1216 6.22958 9.89189 6.61341 9.66783 6.99538C9.64537 7.0377 9.61162 7.07326 9.57018 7.09828C9.52873 7.1233 9.48114 7.13684 9.43247 7.13746ZM33.3014 7.05627C33.2576 7.05615 33.2144 7.04605 33.1753 7.02675C33.1125 6.99385 33.0655 6.93791 33.0447 6.87116C33.0239 6.80442 33.0309 6.7323 33.0642 6.67061L33.0943 6.61709C33.2813 6.26992 33.4121 5.89642 33.4822 5.50992C33.4985 5.44478 33.5394 5.38816 33.5968 5.35156C33.6541 5.31496 33.7235 5.30114 33.7909 5.31288C33.8583 5.32463 33.9185 5.36108 33.9595 5.41481C34.0004 5.46855 34.0189 5.53554 34.0113 5.60218C33.9311 6.04157 33.7818 6.46612 33.5688 6.86067L33.5387 6.91603C33.516 6.95842 33.4819 6.99389 33.44 7.01862C33.3982 7.04334 33.3503 7.05636 33.3014 7.05627ZM10.8634 4.9102C10.8081 4.91048 10.7541 4.8937 10.709 4.86223C10.6798 4.84235 10.6549 4.81696 10.6359 4.78753C10.6168 4.75811 10.6039 4.72525 10.5979 4.69088C10.592 4.65651 10.5931 4.62132 10.6011 4.58737C10.6092 4.55342 10.6242 4.5214 10.645 4.49317C10.807 4.26559 10.9739 4.04107 11.1459 3.81964C11.2545 3.67958 11.3721 3.54645 11.498 3.42106C11.5485 3.37325 11.616 3.34653 11.6863 3.34653C11.7565 3.34653 11.824 3.37325 11.8745 3.42106C11.9242 3.47014 11.9521 3.53646 11.9521 3.60559C11.9521 3.67471 11.9242 3.74104 11.8745 3.79012C11.7655 3.89751 11.6642 4.01219 11.5714 4.13334C11.4045 4.35108 11.2406 4.57067 11.08 4.79211C11.0563 4.82746 11.0242 4.85665 10.9865 4.87722C10.9488 4.89779 10.9066 4.9091 10.8634 4.9102ZM33.759 4.51162C33.6951 4.51156 33.6334 4.48926 33.5847 4.44869C33.5361 4.40813 33.5038 4.35195 33.4935 4.29018C33.4265 3.88472 33.291 3.49307 33.0924 3.13135C33.0756 3.10096 33.0651 3.06761 33.0615 3.03323C33.0579 2.99884 33.0613 2.9641 33.0714 2.931C33.0816 2.89789 33.0983 2.86709 33.1206 2.84035C33.143 2.81362 33.1705 2.79148 33.2017 2.77521C33.2644 2.74242 33.3378 2.73527 33.4059 2.75532C33.4739 2.77537 33.5312 2.82099 33.565 2.88223C33.7909 3.29554 33.9455 3.74259 34.0226 4.20531C34.0335 4.27423 34.0163 4.34459 33.9747 4.40121C33.9332 4.45783 33.8706 4.49616 33.8004 4.50793L33.759 4.51162ZM12.7877 3.1295C12.7361 3.12918 12.6856 3.11443 12.6423 3.08697C12.5989 3.05951 12.5645 3.02049 12.543 2.97449C12.5282 2.94302 12.5199 2.90899 12.5186 2.87437C12.5174 2.83974 12.5231 2.80521 12.5355 2.77278C12.548 2.74034 12.5668 2.71064 12.5911 2.6854C12.6153 2.66016 12.6444 2.63989 12.6766 2.62574C13.1049 2.43567 13.5636 2.32014 14.0323 2.28436C14.1035 2.27529 14.1755 2.29371 14.2331 2.33571C14.2908 2.37772 14.3295 2.44004 14.3411 2.50949C14.3467 2.54322 14.3454 2.5777 14.3372 2.61092C14.329 2.64414 14.3141 2.67543 14.2934 2.70294C14.2727 2.73044 14.2466 2.75361 14.2166 2.77109C14.1867 2.78857 14.1534 2.80001 14.1189 2.80473H14.0831C13.6736 2.83468 13.2727 2.93525 12.8988 3.10182C12.8637 3.11901 12.8251 3.12846 12.7858 3.1295H12.7877ZM15.4237 2.65157C15.3552 2.65116 15.2894 2.62518 15.2398 2.5789C15.1901 2.53262 15.1604 2.46954 15.1565 2.40249C15.1527 2.33545 15.1751 2.26949 15.2191 2.21805C15.2632 2.16662 15.3256 2.13358 15.3936 2.12566C15.8417 2.07769 16.2886 2.03339 16.7342 1.9928C16.7693 1.98923 16.8048 1.99254 16.8387 2.00251C16.8725 2.01247 16.904 2.02891 16.9313 2.05087C16.9586 2.07283 16.9812 2.09989 16.9978 2.13046C17.0144 2.16104 17.0246 2.19453 17.0279 2.229C17.0342 2.29865 17.0123 2.36793 16.9668 2.42182C16.9213 2.47571 16.856 2.50985 16.785 2.51686C16.3407 2.55746 15.8982 2.60174 15.452 2.64972L15.4237 2.65157ZM18.0974 2.40061C18.0294 2.39859 17.9647 2.37141 17.9163 2.32454C17.8679 2.27767 17.8394 2.21458 17.8365 2.14795C17.8336 2.08133 17.8566 2.01611 17.9008 1.96542C17.945 1.91472 18.0072 1.88232 18.0748 1.87471L19.4154 1.76768C19.4852 1.76464 19.5535 1.78832 19.6058 1.83372C19.6581 1.87913 19.6904 1.9427 19.6958 2.01099C19.7012 2.07928 19.6792 2.14694 19.6346 2.19967C19.59 2.25241 19.5263 2.28608 19.4568 2.29358L18.12 2.39876L18.0974 2.40061ZM32.5182 2.23453C32.4836 2.23571 32.4492 2.23013 32.4168 2.21809C32.3845 2.20605 32.3549 2.1878 32.3299 2.16442C32.0214 1.88599 31.6684 1.65907 31.2849 1.49273C31.2234 1.46211 31.1762 1.40951 31.1531 1.34579C31.13 1.28207 31.1328 1.21209 31.1608 1.1503C31.1888 1.08851 31.24 1.03962 31.3037 1.01372C31.3675 0.987817 31.4389 0.986886 31.5033 1.01112C31.9401 1.2016 32.3421 1.46091 32.6933 1.77875C32.7337 1.8148 32.762 1.86215 32.7741 1.9144C32.7863 1.96665 32.7818 2.0213 32.7613 2.07097C32.7407 2.12065 32.7052 2.16296 32.6593 2.1922C32.6135 2.22145 32.5597 2.23622 32.505 2.23453H32.5182ZM20.7748 2.19025C20.7069 2.18787 20.6424 2.16042 20.5943 2.1134C20.5462 2.06638 20.518 2.00327 20.5154 1.93672C20.5127 1.87017 20.5359 1.80512 20.5802 1.7546C20.6244 1.70409 20.6866 1.67184 20.7541 1.66434C21.2022 1.63113 21.6478 1.59607 22.0909 1.55916C22.1612 1.55517 22.2302 1.57828 22.2833 1.62355C22.3363 1.66882 22.3692 1.73264 22.3749 1.80137C22.3805 1.87009 22.3585 1.93826 22.3135 1.99128C22.2686 2.0443 22.2042 2.07796 22.1342 2.08506L20.7955 2.19025H20.7748ZM23.4503 1.9725C23.3822 1.97086 23.3173 1.94397 23.2686 1.89724C23.2199 1.85052 23.1911 1.78745 23.188 1.72074C23.1849 1.65402 23.2077 1.58863 23.2519 1.53776C23.296 1.48689 23.3582 1.45431 23.4259 1.4466C23.8727 1.406 24.3165 1.36295 24.757 1.31743C24.8277 1.30984 24.8985 1.33008 24.954 1.37369C25.0094 1.41729 25.0449 1.48069 25.0526 1.54994C25.0604 1.61919 25.0397 1.68861 24.9953 1.74295C24.9508 1.79728 24.8861 1.83206 24.8154 1.83965C24.3711 1.88762 23.9248 1.93006 23.4748 1.97066L23.4503 1.9725ZM26.1146 1.68833C26.0455 1.68941 25.9787 1.66444 25.9279 1.6186C25.8771 1.57277 25.8463 1.50956 25.8417 1.44204C25.8371 1.37452 25.8591 1.30785 25.9032 1.25581C25.9474 1.20377 26.0102 1.17034 26.0788 1.16242C26.5326 1.10521 26.9769 1.04432 27.3968 0.97789C27.4649 0.97182 27.5329 0.991405 27.5868 1.03266C27.6408 1.07392 27.6767 1.13375 27.6872 1.2C27.6978 1.26626 27.6822 1.33396 27.6436 1.38936C27.6051 1.44476 27.5464 1.4837 27.4797 1.49826C27.0504 1.56469 26.6004 1.62743 26.1428 1.68279L26.1146 1.68833ZM28.7656 1.27684C28.698 1.27847 28.6323 1.25492 28.5817 1.21095C28.5311 1.16698 28.4993 1.10584 28.4929 1.03986C28.4864 0.973871 28.5058 0.907939 28.5469 0.855352C28.5881 0.802764 28.6481 0.767431 28.7148 0.756465L28.9257 0.715862C29.321 0.643493 29.7245 0.624248 30.1251 0.658659C30.1634 0.657762 30.2014 0.664889 30.2367 0.679551C30.2719 0.694214 30.3036 0.716071 30.3295 0.743681C30.3555 0.771292 30.3751 0.80402 30.3871 0.839663C30.3992 0.875305 30.4033 0.913047 30.3992 0.950375C30.3952 0.987703 30.3831 1.02375 30.3636 1.05612C30.3442 1.08849 30.318 1.11643 30.2867 1.13807C30.2554 1.15971 30.2198 1.17456 30.1822 1.18162C30.1445 1.18869 30.1058 1.1878 30.0686 1.17903C29.7164 1.14924 29.3616 1.16663 29.0142 1.2307L28.8089 1.26945L28.7656 1.27684Z" fill="#58595B"/>
<path d="M28.1473 5.21387C26.4107 7.36663 25.021 9.97272 23.6944 12.3363C22.0591 15.2475 20.5825 18.246 19.2713 21.3186C19.0561 21.8185 19.416 22.5311 20.0413 22.3259L20.5014 22.1804C22.643 21.5124 24.8582 21.112 27.0971 20.9884C20.3159 28.6499 13.9539 36.6752 7.24498 44.4021C10.1653 37.996 13.0077 31.5452 15.6293 25.016C15.8055 24.5832 15.3621 24.0702 14.9317 24.0832C14.7164 24.0944 14.4994 24.1075 14.286 24.1243C11.7182 24.2791 9.16154 24.5533 6.59375 24.7063C7.64202 21.5163 8.85727 18.3804 10.1783 15.2931C11.4566 12.3083 13.1468 9.40375 14.2396 6.33876C18.852 6.0123 23.5182 5.35564 28.1473 5.21387Z" fill="#FFDE17"/>
<path d="M27.2864 9.0233C28.1819 7.59049 29.25 6.22439 30.038 4.73226C30.0902 4.63753 30.1137 4.52962 30.1055 4.42176C30.0973 4.3139 30.0579 4.21076 29.9919 4.12499C29.926 4.03921 29.8365 3.97452 29.7343 3.93884C29.6322 3.90316 29.5218 3.89804 29.4168 3.9241L29.1554 3.97415C24.3346 4.88611 19.3098 4.90093 14.4445 5.54413C14.434 5.54261 14.4234 5.54261 14.413 5.54413C14.37 5.53808 14.3263 5.54326 14.286 5.55918C14.2457 5.57511 14.2102 5.60121 14.183 5.63495C12.0526 8.43757 10.6379 12.0094 9.21204 15.2124C7.87704 18.2004 6.67925 21.244 5.53338 24.3079C5.45365 24.51 5.37948 24.7139 5.30346 24.9159C5.15698 25.3089 5.52967 25.7204 5.91348 25.7185C8.62056 25.7185 11.3128 25.4016 14.0125 25.2737C10.9457 32.2617 7.89373 39.2571 4.71013 46.1895C4.66298 46.293 4.6374 46.405 4.63496 46.5188C4.63252 46.6325 4.65327 46.7455 4.69595 46.851C4.73862 46.9564 4.80233 47.0521 4.88319 47.1321C4.96405 47.2121 5.06036 47.2749 5.16626 47.3165C5.37763 47.6594 5.85229 47.8355 6.20273 47.4481C14.1756 38.6639 21.4328 29.2737 29.3612 20.4525C29.7487 20.0169 29.4928 19.2773 28.8717 19.2773L28.3841 19.2847C25.9815 19.3231 23.5933 19.6624 21.2752 20.2949C22.3877 17.8087 23.609 15.3755 24.939 12.9955C25.6918 11.656 26.4743 10.3319 27.2864 9.0233ZM19.4711 21.0327C19.256 21.5294 19.6157 22.2375 20.2406 22.0336L20.7004 21.889C22.8406 21.2252 25.0545 20.8274 27.292 20.7046C20.515 28.3172 14.1571 36.2914 7.45243 43.9689C10.3709 37.6037 13.2115 31.194 15.8314 24.7065C16.0075 24.2764 15.5644 23.7667 15.1342 23.7797C14.9191 23.7908 14.7022 23.8038 14.489 23.8204C11.9228 23.9743 9.36778 24.2468 6.80163 24.3988C7.84923 21.2291 9.0637 18.1133 10.3839 15.0456C11.6614 12.0799 13.3505 9.19383 14.4426 6.1484C19.0521 5.80919 23.7134 5.15673 28.3488 5.01586C26.6133 7.15489 25.2246 9.74435 23.8988 12.0928C22.2615 14.9901 20.7834 17.9745 19.4711 21.0327Z" fill="#231F20"/>
</svg>
