<svg width="65" height="47" viewBox="0 0 65 47" fill="none" xmlns="http://www.w3.org/2000/svg">
<path d="M35.344 45.7195C36.8562 45.7234 38.3656 45.5905 39.8536 45.3226C45.5448 44.2816 50.9035 40.7673 55.3517 35.1544C59.6252 29.75 62.888 23.2363 64.5193 16.8186C64.7309 16.0435 64.7042 15.2233 64.4426 14.4635C64.181 13.7036 63.6965 13.0389 63.0515 12.5549C60.8497 10.6057 58.5494 9.03684 56.3903 7.62483C54.1885 6.18883 52.1762 4.56457 50.0432 2.84432L49.7663 2.61913C47.6444 0.915498 45.6228 0.084909 43.5697 0.084909C42.7147 0.0848166 41.8666 0.236069 41.065 0.53158C38.7127 1.39724 37.243 3.25223 36.169 4.60702L35.8662 4.99279C35.5466 5.39886 34.9892 6.10024 34.625 6.39556C34.2534 6.11132 33.6569 5.34902 33.3243 4.91895C33.1218 4.6587 32.9248 4.40583 32.7298 4.18065C31.3529 2.50839 29.5896 0.723546 26.9698 0.169818C26.4346 0.057115 25.8891 0.000195286 25.3421 0C22.3859 0 20.0299 1.66119 18.3112 2.89047L18.0492 3.07504C15.8195 4.64763 13.2777 5.78831 10.5798 6.99728C7.61805 8.32069 4.55596 9.69209 1.73914 11.7372C0.273132 12.8004 -0.33817 14.5538 0.183946 16.215C3.8499 27.7713 11.2543 37.1589 20.4944 41.9431C25.1953 44.3795 30.4685 45.7195 35.3422 45.7195H35.344Z" fill="white"/>
<path d="M35.3238 46.3727C35.0675 46.3727 34.8094 46.3727 34.5531 46.3616C34.4905 46.3546 34.4327 46.3243 34.3914 46.2765C34.35 46.2288 34.3281 46.1671 34.33 46.1039C34.3318 46.0406 34.3573 45.9804 34.4014 45.9352C34.4455 45.89 34.5049 45.8631 34.5678 45.8599C35.2353 45.8802 35.901 45.8728 36.5574 45.8414C36.6235 45.8388 36.688 45.8624 36.7369 45.9071C36.7859 45.9517 36.8155 46.0139 36.8193 46.0802C36.8208 46.113 36.8158 46.1458 36.8046 46.1767C36.7935 46.2076 36.7763 46.236 36.7543 46.2602C36.7322 46.2845 36.7055 46.3041 36.6759 46.318C36.6462 46.3319 36.6141 46.3398 36.5814 46.3412C36.1647 46.3616 35.7424 46.3727 35.3238 46.3727ZM33.314 46.2968H33.2955C32.8807 46.2653 32.4603 46.2246 32.0435 46.1764C31.9778 46.1688 31.9177 46.1353 31.8765 46.0832C31.8354 46.0311 31.8165 45.9648 31.8241 45.8987C31.8317 45.8327 31.8651 45.7724 31.917 45.7311C31.9688 45.6898 32.0349 45.6708 32.1007 45.6784C32.51 45.7266 32.9249 45.7673 33.3324 45.7969C33.3984 45.7994 33.4608 45.8281 33.5057 45.8767C33.5507 45.9253 33.5746 45.9898 33.5721 46.0561C33.5697 46.1224 33.5411 46.185 33.4927 46.2301C33.4443 46.2753 33.38 46.2992 33.314 46.2968ZM37.8131 46.2505C37.7502 46.2491 37.6902 46.2237 37.6451 46.1796C37.6 46.1355 37.5733 46.0758 37.5702 46.0127C37.5672 45.9496 37.5881 45.8876 37.6287 45.8394C37.6693 45.7911 37.7267 45.76 37.7892 45.7525C38.1985 45.7118 38.6115 45.6599 39.0135 45.5988C39.046 45.594 39.0791 45.5956 39.1109 45.6035C39.1427 45.6115 39.1727 45.6257 39.199 45.6453C39.2254 45.6649 39.2477 45.6895 39.2646 45.7178C39.2815 45.746 39.2926 45.7773 39.2975 45.8099C39.3023 45.8425 39.3007 45.8757 39.2928 45.9076C39.2848 45.9396 39.2707 45.9697 39.2512 45.9962C39.2317 46.0226 39.2072 46.045 39.179 46.0619C39.1509 46.0789 39.1197 46.0901 39.0873 46.095C38.6761 46.1561 38.2557 46.2098 37.8371 46.2505H37.8131ZM30.8358 46.008H30.797C30.3877 45.9432 29.971 45.8673 29.5598 45.7858C29.5277 45.7794 29.4972 45.7667 29.47 45.7484C29.4428 45.7302 29.4194 45.7067 29.4013 45.6793C29.3831 45.652 29.3705 45.6213 29.3642 45.5891C29.3578 45.5569 29.3579 45.5237 29.3643 45.4915C29.3705 45.4591 29.383 45.4283 29.4011 45.4009C29.4193 45.3734 29.4427 45.3499 29.47 45.3316C29.4972 45.3134 29.5279 45.3007 29.5601 45.2945C29.5923 45.2882 29.6254 45.2885 29.6575 45.2952C30.0613 45.3748 30.4725 45.4489 30.8745 45.5137C30.9385 45.5211 30.9972 45.5531 31.0381 45.603C31.0791 45.653 31.0992 45.7169 31.0942 45.7814C31.0892 45.8459 31.0595 45.9059 31.0113 45.9489C30.9631 45.9918 30.9002 46.0144 30.8358 46.0117V46.008ZM40.2766 45.8765C40.2152 45.8764 40.156 45.8535 40.1104 45.8121C40.0648 45.7708 40.036 45.714 40.0296 45.6527C40.0232 45.5913 40.0396 45.5298 40.0757 45.4799C40.1117 45.4299 40.1649 45.3952 40.225 45.3822C40.6251 45.2971 41.0271 45.1971 41.4217 45.0916C41.4855 45.0739 41.5537 45.0824 41.6113 45.1152C41.6688 45.148 41.7111 45.2024 41.7287 45.2665C41.7463 45.3306 41.7378 45.3991 41.7051 45.4569C41.6725 45.5147 41.6183 45.5571 41.5544 45.5748C41.1488 45.6858 40.7376 45.7858 40.3282 45.871L40.2766 45.8765ZM28.3907 45.5211C28.3711 45.5229 28.3514 45.5229 28.3317 45.5211C27.9261 45.423 27.5167 45.3156 27.1148 45.2026C27.0832 45.1941 27.0536 45.1793 27.0278 45.1592C27.0021 45.139 26.9805 45.1139 26.9646 45.0852C26.9486 45.0566 26.9385 45.0251 26.9348 44.9924C26.9312 44.9598 26.934 44.9268 26.9433 44.8953C26.9609 44.8315 27.0031 44.7774 27.0605 44.7447C27.1178 44.7121 27.1858 44.7037 27.2494 44.7213C27.6458 44.8324 28.0478 44.9379 28.4479 45.0342C28.5066 45.0488 28.558 45.0845 28.5925 45.1345C28.6269 45.1844 28.6421 45.2453 28.6351 45.3056C28.6281 45.366 28.5994 45.4217 28.5544 45.4624C28.5095 45.5031 28.4513 45.5259 28.3907 45.5266V45.5211ZM42.6774 45.2193C42.6254 45.2188 42.5748 45.2021 42.5325 45.1716C42.4903 45.1412 42.4584 45.0983 42.4414 45.049C42.4203 44.9859 42.4249 44.917 42.4543 44.8573C42.4836 44.7976 42.5354 44.752 42.5981 44.7305C42.9816 44.5991 43.3707 44.4547 43.7524 44.2992C43.7831 44.2841 43.8167 44.2755 43.8509 44.274C43.8851 44.2725 43.9193 44.2781 43.9512 44.2905C43.9832 44.3029 44.0122 44.3217 44.0366 44.3459C44.061 44.37 44.0801 44.399 44.0928 44.4309C44.1055 44.4628 44.1116 44.497 44.1105 44.5314C44.1095 44.5658 44.1013 44.5995 44.0867 44.6306C44.0721 44.6617 44.0512 44.6894 44.0254 44.712C43.9996 44.7346 43.9694 44.7517 43.9368 44.762C43.5459 44.9212 43.1494 45.0712 42.7548 45.2045C42.7298 45.2124 42.7036 45.2161 42.6774 45.2156V45.2193ZM25.9881 44.849C25.9625 44.8491 25.937 44.8454 25.9125 44.8379C25.5179 44.712 25.1178 44.575 24.7232 44.4325C24.6608 44.4101 24.6099 44.3638 24.5815 44.3038C24.5532 44.2437 24.5497 44.1748 24.572 44.1122C24.5942 44.0496 24.6404 43.9984 24.7002 43.97C24.76 43.9415 24.8286 43.938 24.891 43.9604C25.2801 44.1011 25.6747 44.2362 26.0637 44.3603C26.1209 44.378 26.1697 44.4157 26.2014 44.4666C26.2331 44.5175 26.2455 44.5782 26.2363 44.6375C26.2272 44.6968 26.197 44.7508 26.1515 44.7897C26.1059 44.8285 26.0479 44.8496 25.9881 44.849ZM44.9804 44.2788C44.9241 44.278 44.8698 44.2581 44.8261 44.2225C44.7824 44.1868 44.7519 44.1374 44.7396 44.0823C44.7272 44.0271 44.7337 43.9694 44.758 43.9184C44.7823 43.8674 44.823 43.8261 44.8735 43.8012C45.2423 43.6271 45.611 43.4402 45.9798 43.2458C46.0075 43.22 46.0405 43.2009 46.0766 43.1898C46.1127 43.1788 46.1507 43.1761 46.188 43.182C46.2252 43.1879 46.2606 43.2022 46.2916 43.2239C46.3225 43.2455 46.3481 43.2739 46.3665 43.307C46.3849 43.34 46.3956 43.3768 46.3977 43.4146C46.3999 43.4524 46.3935 43.4902 46.379 43.5251C46.3645 43.56 46.3422 43.5912 46.314 43.6163C46.2857 43.6413 46.2522 43.6596 46.2158 43.6697C45.8471 43.8715 45.4672 44.0641 45.0929 44.2418C45.0601 44.2604 45.0235 44.2712 44.986 44.2733L44.9804 44.2788ZM23.6371 44.0011C23.6049 44.0013 23.5729 43.995 23.5431 43.9826C23.1577 43.8271 22.7687 43.6605 22.387 43.492C22.3546 43.4803 22.3249 43.462 22.2998 43.4382C22.2748 43.4145 22.2549 43.3858 22.2413 43.354C22.2278 43.3222 22.2209 43.288 22.2212 43.2534C22.2214 43.2188 22.2287 43.1846 22.2427 43.153C22.2567 43.1214 22.277 43.093 22.3023 43.0696C22.3277 43.0462 22.3576 43.0284 22.3902 43.0171C22.4228 43.0058 22.4573 43.0014 22.4916 43.0041C22.526 43.0068 22.5594 43.0166 22.5898 43.0329C22.9586 43.2013 23.3495 43.3642 23.7293 43.5179C23.7838 43.5389 23.8292 43.5785 23.8576 43.6298C23.886 43.681 23.8955 43.7406 23.8845 43.7982C23.8735 43.8558 23.8427 43.9077 23.7975 43.9447C23.7523 43.9818 23.6955 44.0018 23.6371 44.0011ZM47.1747 43.0828C47.1199 43.0836 47.0663 43.0662 47.0223 43.0334C46.9784 43.0005 46.9465 42.9539 46.9315 42.901C46.9166 42.848 46.9195 42.7916 46.9398 42.7404C46.9601 42.6893 46.9966 42.6463 47.0438 42.6182C47.3904 42.4053 47.7408 42.1812 48.0819 41.948C48.1088 41.9283 48.1395 41.9142 48.1719 41.9067C48.2044 41.8991 48.238 41.8981 48.2709 41.9039C48.3037 41.9096 48.335 41.9219 48.3631 41.94C48.3911 41.9581 48.4152 41.9817 48.434 42.0094C48.4527 42.037 48.4658 42.0681 48.4723 42.101C48.4789 42.1338 48.4788 42.1676 48.4721 42.2003C48.4654 42.2331 48.4522 42.2642 48.4333 42.2918C48.4145 42.3193 48.3903 42.3428 48.3622 42.3608C48.0137 42.5996 47.6578 42.8292 47.3038 43.0458C47.2648 43.0695 47.2202 43.0823 47.1747 43.0828ZM21.3599 42.9773C21.3221 42.9778 21.2847 42.9689 21.2511 42.9514C20.9874 42.8237 20.7274 42.6904 20.4674 42.5552L20.1337 42.3701C20.1034 42.3555 20.0765 42.3349 20.0543 42.3095C20.0322 42.2842 20.0155 42.2546 20.005 42.2225C19.9946 42.1905 19.9907 42.1567 19.9936 42.1231C19.9965 42.0896 20.0062 42.0569 20.022 42.0272C20.0378 41.9975 20.0594 41.9712 20.0856 41.9501C20.1117 41.929 20.1419 41.9134 20.1742 41.9043C20.2065 41.8951 20.2403 41.8927 20.2736 41.897C20.3069 41.9013 20.3389 41.9124 20.3679 41.9294L20.6998 42.1035C20.9542 42.2368 21.2105 42.3682 21.4705 42.4941C21.5219 42.5186 21.5635 42.5599 21.5882 42.6114C21.6129 42.6628 21.6194 42.7212 21.6064 42.7768C21.5935 42.8325 21.562 42.882 21.5171 42.9171C21.4723 42.9522 21.4168 42.9709 21.3599 42.9699V42.9773ZM19.162 41.7943C19.118 41.794 19.0749 41.7825 19.0366 41.761C18.6789 41.5499 18.3174 41.3296 17.9634 41.1019C17.9077 41.0663 17.8683 41.0099 17.8539 40.9452C17.8396 40.8804 17.8514 40.8126 17.8869 40.7566C17.9223 40.7006 17.9785 40.6611 18.043 40.6467C18.1075 40.6323 18.175 40.6442 18.2308 40.6798C18.5811 40.9038 18.937 41.1204 19.2892 41.3278C19.3369 41.3553 19.3742 41.3981 19.3952 41.4492C19.4162 41.5004 19.4197 41.557 19.4051 41.6104C19.3906 41.6637 19.3588 41.7107 19.3148 41.744C19.2708 41.7773 19.217 41.795 19.162 41.7943ZM49.2362 41.6777C49.184 41.677 49.1334 41.6601 49.0912 41.6292C49.0491 41.5983 49.0176 41.5549 49.0012 41.5052C48.9848 41.4555 48.9842 41.4019 48.9995 41.3518C49.0149 41.3018 49.0454 41.2578 49.0868 41.2259C49.4114 40.9816 49.7377 40.7242 50.0586 40.4595C50.1097 40.4172 50.1754 40.3971 50.2413 40.4036C50.3071 40.41 50.3678 40.4424 50.4098 40.4937C50.4519 40.545 50.4719 40.611 50.4655 40.6772C50.4591 40.7433 50.4268 40.8042 50.3757 40.8464C50.0493 41.1149 49.7174 41.3777 49.3855 41.6277C49.3434 41.6593 49.2924 41.6768 49.2399 41.6777H49.2362ZM17.0562 40.4502C17.0056 40.4497 16.9562 40.4343 16.9142 40.4058C16.5731 40.1707 16.2283 39.9244 15.8909 39.6652C15.8646 39.6457 15.8424 39.6211 15.8256 39.5929C15.8088 39.5648 15.7977 39.5335 15.7929 39.501C15.7881 39.4685 15.7897 39.4354 15.7976 39.4036C15.8056 39.3717 15.8197 39.3417 15.8392 39.3153C15.8587 39.289 15.8832 39.2667 15.9112 39.2498C15.9393 39.2329 15.9704 39.2218 16.0028 39.2169C16.0351 39.2121 16.0681 39.2138 16.0999 39.2218C16.1316 39.2298 16.1615 39.2439 16.1877 39.2635C16.5215 39.5097 16.8607 39.7541 17.1982 39.9855C17.2251 40.0042 17.248 40.0281 17.2658 40.0557C17.2835 40.0833 17.2956 40.1142 17.3014 40.1465C17.3072 40.1788 17.3066 40.212 17.2997 40.2441C17.2927 40.2762 17.2796 40.3066 17.2609 40.3336C17.2397 40.3683 17.2102 40.3971 17.1751 40.4175C17.14 40.4379 17.1004 40.4491 17.0599 40.4502H17.0562ZM51.1686 40.0799C51.1179 40.0805 51.0682 40.0655 51.0262 40.0369C50.9842 40.0083 50.952 39.9675 50.9337 39.92C50.9155 39.8724 50.9121 39.8204 50.9241 39.7709C50.9361 39.7215 50.9628 39.6768 51.0008 39.643C51.305 39.369 51.6093 39.0876 51.9062 38.7951C51.9298 38.7723 51.9576 38.7543 51.9882 38.7423C52.0187 38.7302 52.0513 38.7243 52.0841 38.7249C52.1168 38.7255 52.1492 38.7326 52.1793 38.7458C52.2093 38.7589 52.2365 38.7779 52.2593 38.8016C52.282 38.8253 52.2999 38.8533 52.3119 38.8839C52.3239 38.9146 52.3298 38.9473 52.3292 38.9802C52.3286 39.0131 52.3215 39.0456 52.3084 39.0758C52.2953 39.106 52.2764 39.1333 52.2528 39.1561C51.9523 39.4486 51.6425 39.7374 51.3309 40.0152C51.2872 40.0594 51.2287 40.0857 51.1668 40.0892L51.1686 40.0799ZM15.0537 38.9506C14.9973 38.9503 14.9427 38.9307 14.8988 38.8951C14.5743 38.6377 14.2479 38.3675 13.9289 38.0934C13.8786 38.0505 13.8472 37.9892 13.8419 37.923C13.8365 37.8569 13.8576 37.7913 13.9003 37.7408C13.9431 37.6902 14.0042 37.6588 14.0701 37.6534C14.1359 37.648 14.2012 37.6691 14.2516 37.7121C14.5669 37.9824 14.8896 38.249 15.2105 38.5044C15.2512 38.5367 15.281 38.5811 15.2954 38.6312C15.3099 38.6813 15.3083 38.7346 15.2911 38.7838C15.2738 38.833 15.2416 38.8756 15.1991 38.9055C15.1565 38.9354 15.1057 38.9512 15.0537 38.9506ZM52.9572 38.3378C52.8931 38.3378 52.8315 38.3125 52.7857 38.2675C52.7394 38.2204 52.7135 38.1568 52.7135 38.0907C52.7135 38.0245 52.7394 37.961 52.7857 37.9139C53.0678 37.6176 53.3499 37.3103 53.6228 36.9993C53.6692 36.9608 53.7278 36.9403 53.7879 36.9416C53.8481 36.9428 53.9057 36.9658 53.9504 37.0062C53.9952 37.0466 54.0239 37.1017 54.0315 37.1617C54.039 37.2216 54.0249 37.2822 53.9916 37.3325C53.7132 37.6473 53.4274 37.9602 53.1416 38.2582C53.1187 38.2855 53.0902 38.3076 53.0581 38.3229C53.0259 38.3383 52.9909 38.3465 52.9553 38.3471L52.9572 38.3378ZM13.1526 37.3251C13.0905 37.3258 13.0305 37.3026 12.9848 37.2603C12.6769 36.9808 12.369 36.6901 12.0629 36.3995C12.0394 36.3766 12.0206 36.3493 12.0076 36.3192C11.9946 36.2891 11.9877 36.2566 11.9872 36.2238C11.9867 36.191 11.9926 36.1584 12.0046 36.1278C12.0167 36.0973 12.0346 36.0694 12.0574 36.0459C12.0801 36.0223 12.1073 36.0034 12.1373 35.9904C12.1673 35.9773 12.1996 35.9704 12.2323 35.9698C12.265 35.9693 12.2975 35.9753 12.3279 35.9874C12.3583 35.9995 12.3861 36.0174 12.4095 36.0403C12.7046 36.3273 13.0088 36.6142 13.3131 36.8901C13.3616 36.935 13.3906 36.9973 13.3937 37.0635C13.3968 37.1297 13.3738 37.1944 13.3297 37.2437C13.3078 37.2705 13.2806 37.2924 13.2498 37.3081C13.219 37.3237 13.1853 37.3327 13.1508 37.3344L13.1526 37.3251ZM54.6112 36.4661C54.5534 36.4653 54.4976 36.4451 54.4526 36.4087C54.4021 36.3659 54.3703 36.3048 54.3641 36.2387C54.3579 36.1726 54.3777 36.1067 54.4194 36.0551C54.6075 35.828 54.7919 35.5966 54.9726 35.3609L55.1865 35.085C55.2065 35.059 55.2313 35.0372 55.2597 35.0208C55.2881 35.0045 55.3194 34.9939 55.3518 34.9897C55.3843 34.9855 55.4172 34.9877 55.4488 34.9963C55.4804 35.0049 55.51 35.0196 55.5359 35.0396C55.5618 35.0597 55.5835 35.0847 55.5998 35.1132C55.6161 35.1417 55.6267 35.1731 55.6309 35.2057C55.6351 35.2382 55.6328 35.2713 55.6243 35.303C55.6157 35.3348 55.6011 35.3645 55.5811 35.3905L55.3653 35.67C55.1773 35.9082 54.9886 36.1434 54.7993 36.3754C54.7768 36.4049 54.7481 36.4292 54.7153 36.4465C54.6825 36.4637 54.6463 36.4736 54.6093 36.4754L54.6112 36.4661ZM11.3604 35.5849C11.326 35.5859 11.2919 35.5796 11.2601 35.5666C11.2284 35.5535 11.1997 35.5339 11.176 35.509C10.8865 35.209 10.597 34.9017 10.3167 34.5833C10.2722 34.5342 10.2489 34.4693 10.2521 34.403C10.2552 34.3367 10.2844 34.2744 10.3333 34.2297C10.3822 34.185 10.4468 34.1616 10.5128 34.1648C10.5789 34.1679 10.641 34.1972 10.6855 34.2463C10.9621 34.55 11.2387 34.8554 11.5337 35.1516C11.5568 35.1749 11.5752 35.2024 11.5877 35.2328C11.6002 35.2631 11.6067 35.2956 11.6067 35.3285C11.6067 35.3613 11.6002 35.3938 11.5877 35.4242C11.5752 35.4545 11.5568 35.4821 11.5337 35.5053C11.5123 35.5316 11.4857 35.5531 11.4555 35.5684C11.4253 35.5837 11.3923 35.5924 11.3585 35.5941L11.3604 35.5849ZM56.1398 34.4889C56.0869 34.4879 56.0356 34.4712 55.9923 34.4407C55.9393 34.4012 55.904 34.3423 55.894 34.2768C55.8839 34.2113 55.9001 34.1445 55.9388 34.0908C56.1847 33.7563 56.4256 33.4188 56.6616 33.0781C56.6801 33.0509 56.7038 33.0277 56.7313 33.0098C56.7588 32.9918 56.7896 32.9796 56.8218 32.9737C56.8541 32.9679 56.8872 32.9685 56.9192 32.9756C56.9512 32.9828 56.9815 32.9962 57.0083 33.0152C57.0622 33.0533 57.099 33.1112 57.1107 33.1763C57.1225 33.2414 57.1082 33.3086 57.071 33.3632C56.8313 33.7076 56.5879 34.0501 56.3334 34.387C56.3119 34.4197 56.2829 34.4469 56.249 34.4662C56.215 34.4855 56.1769 34.4964 56.1379 34.4981L56.1398 34.4889ZM9.67317 33.7372C9.63805 33.7367 9.60342 33.7287 9.57163 33.7137C9.53983 33.6987 9.51159 33.677 9.48878 33.6502C9.21773 33.3336 8.94668 33.0096 8.68484 32.6838C8.64327 32.6322 8.6238 32.5662 8.63072 32.5003C8.63763 32.4343 8.67037 32.3738 8.72172 32.332C8.77307 32.2903 8.83882 32.2708 8.90452 32.2777C8.97023 32.2846 9.03049 32.3175 9.07206 32.3691C9.33205 32.6894 9.59942 33.0115 9.86678 33.3244C9.90969 33.3745 9.93106 33.4397 9.92622 33.5056C9.92138 33.5715 9.89074 33.6328 9.84098 33.6761C9.79672 33.719 9.73831 33.744 9.67687 33.7465L9.67317 33.7372ZM57.5596 32.4413C57.511 32.4406 57.4636 32.4258 57.4232 32.3987C57.3957 32.3807 57.3721 32.3575 57.3537 32.3303C57.3353 32.3031 57.3225 32.2725 57.316 32.2403C57.3095 32.2081 57.3094 32.1749 57.3158 32.1427C57.3221 32.1104 57.3348 32.0798 57.3531 32.0525C57.5805 31.7057 57.8036 31.3564 58.0224 31.0046C58.0574 30.9482 58.1133 30.908 58.1778 30.8928C58.2423 30.8777 58.3101 30.889 58.3663 30.9241C58.4226 30.9592 58.4626 31.0153 58.4776 31.0801C58.4927 31.1448 58.4815 31.2129 58.4465 31.2694C58.2234 31.6267 57.9985 31.9784 57.768 32.3283C57.746 32.3631 57.7158 32.3919 57.6801 32.4123C57.6444 32.4326 57.6043 32.4438 57.5633 32.445L57.5596 32.4413ZM8.10769 31.8026C8.0692 31.8028 8.03119 31.794 7.99664 31.777C7.96208 31.76 7.93193 31.7351 7.90855 31.7044C7.65778 31.373 7.40516 31.0324 7.17098 30.6936C7.13235 30.6396 7.11668 30.5724 7.1274 30.5068C7.13811 30.4411 7.17435 30.3825 7.22814 30.3437C7.28194 30.3049 7.34888 30.2892 7.41423 30.2999C7.47959 30.3107 7.53801 30.3471 7.57665 30.4011C7.81636 30.7362 8.06528 31.0713 8.31421 31.4008C8.34239 31.4378 8.35971 31.482 8.36421 31.5283C8.36872 31.5747 8.36024 31.6214 8.33973 31.6632C8.31921 31.7049 8.28748 31.7401 8.24811 31.7647C8.20875 31.7894 8.1633 31.8025 8.11691 31.8026H8.10769ZM58.8854 30.3215C58.8412 30.3216 58.7978 30.3094 58.76 30.2863C58.7318 30.2697 58.7071 30.2476 58.6873 30.2214C58.6676 30.1952 58.6532 30.1653 58.645 30.1335C58.6368 30.1017 58.6349 30.0685 58.6394 30.036C58.644 30.0034 58.6549 29.9721 58.6715 29.9438C58.8841 29.5859 59.0907 29.2261 59.291 28.8645C59.307 28.8358 59.3285 28.8105 59.3542 28.7902C59.3799 28.7698 59.4093 28.7547 59.4408 28.7458C59.4723 28.7368 59.5053 28.7342 59.5378 28.7381C59.5703 28.7419 59.6017 28.7521 59.6303 28.7682C59.6589 28.7842 59.684 28.8058 59.7043 28.8316C59.7246 28.8574 59.7396 28.8869 59.7485 28.9186C59.7574 28.9502 59.76 28.9833 59.7562 29.0159C59.7524 29.0486 59.7422 29.0801 59.7262 29.1088C59.5209 29.4791 59.3125 29.8426 59.1011 30.1993C59.079 30.2369 59.0475 30.268 59.0096 30.2895C58.9717 30.3109 58.9289 30.322 58.8854 30.3215ZM6.64915 29.7661C6.60846 29.7662 6.56836 29.7563 6.53235 29.7373C6.49635 29.7182 6.46554 29.6906 6.44264 29.6568C6.2103 29.3125 5.97797 28.9589 5.75301 28.6071C5.71731 28.5511 5.70523 28.4832 5.71941 28.4183C5.73359 28.3534 5.77287 28.2968 5.82862 28.2609C5.88437 28.2251 5.95202 28.2129 6.01668 28.2272C6.08135 28.2414 6.13773 28.2808 6.17343 28.3368C6.3947 28.6849 6.62519 29.0348 6.85568 29.3754C6.87417 29.4026 6.88712 29.4332 6.89379 29.4655C6.90046 29.4977 6.90071 29.531 6.89454 29.5633C6.88837 29.5957 6.8759 29.6265 6.85784 29.6539C6.83978 29.6814 6.81648 29.7051 6.78929 29.7235C6.74875 29.7539 6.69973 29.7707 6.64915 29.7716V29.7661ZM60.1042 28.1332C60.0636 28.1333 60.0237 28.1231 59.988 28.1035C59.959 28.0882 59.9334 28.0672 59.9125 28.0418C59.8916 28.0164 59.8759 27.9872 59.8663 27.9557C59.8567 27.9242 59.8534 27.8911 59.8566 27.8584C59.8597 27.8256 59.8693 27.7938 59.8848 27.7648C60.0784 27.3945 60.2665 27.0242 60.4509 26.6539C60.4805 26.5944 60.5325 26.5491 60.5954 26.5279C60.6583 26.5067 60.727 26.5114 60.7865 26.541C60.8158 26.5556 60.8419 26.5758 60.8634 26.6006C60.8849 26.6254 60.9012 26.6542 60.9115 26.6854C60.9218 26.7165 60.9258 26.7494 60.9233 26.7822C60.9209 26.8149 60.9119 26.8468 60.8971 26.8761C60.7127 27.2464 60.5283 27.6166 60.3255 27.9869C60.3069 28.0308 60.2761 28.0684 60.2369 28.0953C60.1977 28.1222 60.1517 28.1372 60.1042 28.1387V28.1332ZM5.30494 27.6592C5.26194 27.6596 5.21959 27.6487 5.18208 27.6276C5.14457 27.6065 5.11319 27.5759 5.09105 27.5389C4.87532 27.1797 4.6651 26.8187 4.45674 26.4521C4.42422 26.3945 4.41586 26.3261 4.4335 26.2623C4.45113 26.1984 4.49332 26.1441 4.55078 26.1115C4.60825 26.0788 4.67627 26.0704 4.7399 26.0882C4.80353 26.1059 4.85754 26.1482 4.89006 26.2059C5.09658 26.5663 5.30556 26.9242 5.517 27.2797C5.5341 27.3076 5.54553 27.3387 5.55061 27.371C5.5557 27.4034 5.55435 27.4365 5.54663 27.4683C5.53892 27.5002 5.52499 27.5302 5.50566 27.5566C5.48634 27.583 5.46198 27.6053 5.43402 27.6222C5.39603 27.6487 5.35118 27.6635 5.30494 27.6648V27.6592ZM61.2179 25.8967C61.1811 25.8967 61.1448 25.8891 61.111 25.8745C61.0516 25.8457 61.0059 25.7947 60.9835 25.7324C60.9611 25.6701 60.9638 25.6015 60.9911 25.5413C61.1669 25.1636 61.3378 24.7853 61.5037 24.4064C61.5169 24.3763 61.5359 24.349 61.5596 24.3262C61.5833 24.3034 61.6112 24.2856 61.6418 24.2736C61.6723 24.2617 61.7049 24.2559 61.7377 24.2566C61.7705 24.2573 61.8028 24.2645 61.8329 24.2777C61.8629 24.291 61.89 24.31 61.9127 24.3338C61.9354 24.3576 61.9532 24.3856 61.9651 24.4163C61.977 24.447 61.9828 24.4797 61.9821 24.5127C61.9814 24.5456 61.9742 24.578 61.961 24.6082C61.7926 24.992 61.6199 25.3734 61.4429 25.7523C61.4231 25.7955 61.3914 25.8321 61.3515 25.8577C61.3116 25.8833 61.2653 25.8968 61.2179 25.8967ZM4.07136 25.4894C4.02619 25.4893 3.98189 25.4768 3.94324 25.4533C3.90458 25.4299 3.87302 25.3963 3.85194 25.3561C3.65648 24.9859 3.46288 24.6156 3.2748 24.2453C3.25658 24.2156 3.2447 24.1825 3.23992 24.1479C3.23513 24.1134 3.23755 24.0782 3.24701 24.0447C3.25647 24.0111 3.27277 23.9799 3.29487 23.953C3.31697 23.9261 3.3444 23.9041 3.37541 23.8884C3.40643 23.8727 3.44035 23.8637 3.47503 23.8618C3.50971 23.86 3.5444 23.8654 3.57689 23.8777C3.60938 23.89 3.63897 23.909 3.66378 23.9334C3.68859 23.9578 3.70808 23.9871 3.72102 24.0195C3.90787 24.3897 4.09841 24.76 4.29264 25.1303C4.32335 25.189 4.32974 25.2576 4.3104 25.321C4.29107 25.3844 4.24757 25.4377 4.18938 25.4691C4.1521 25.4848 4.11173 25.4918 4.07136 25.4894ZM62.2192 23.6048C62.1869 23.6051 62.1549 23.5988 62.1251 23.5863C62.0946 23.5743 62.0667 23.5562 62.0432 23.5332C62.0196 23.5102 62.001 23.4827 61.9883 23.4523C61.9755 23.4219 61.969 23.3893 61.9691 23.3563C61.9692 23.3234 61.9758 23.2907 61.9887 23.2604C62.1454 22.8735 62.2966 22.4884 62.4423 22.1015C62.4667 22.0394 62.5148 21.9895 62.5758 21.963C62.6368 21.9364 62.7059 21.9353 62.7677 21.9598C62.8296 21.9844 62.8792 22.0326 62.9057 22.0939C62.9321 22.1552 62.9333 22.2245 62.9088 22.2866C62.7613 22.6766 62.6082 23.0666 62.4497 23.4567C62.4297 23.5011 62.3972 23.5388 62.3563 23.5651C62.3154 23.5914 62.2678 23.6051 62.2192 23.6048ZM2.95211 23.2512C2.90503 23.2512 2.85889 23.2378 2.81908 23.2126C2.77926 23.1874 2.74739 23.1513 2.72716 23.1086C2.55014 22.7309 2.37681 22.3496 2.20717 21.9645C2.19352 21.9344 2.18596 21.9019 2.18492 21.8688C2.18387 21.8358 2.18937 21.8028 2.20109 21.7719C2.21282 21.741 2.23053 21.7128 2.25321 21.6888C2.27589 21.6648 2.30308 21.6456 2.33321 21.6322C2.36335 21.6189 2.39582 21.6117 2.42875 21.611C2.46168 21.6104 2.49441 21.6163 2.52504 21.6284C2.55568 21.6405 2.58362 21.6586 2.60724 21.6817C2.63085 21.7047 2.64968 21.7323 2.66262 21.7627C2.8298 22.1428 3.0019 22.5205 3.17891 22.8957C3.2062 22.956 3.20894 23.0246 3.18655 23.0868C3.16415 23.1491 3.1184 23.2001 3.05906 23.2289C3.02528 23.2436 2.98889 23.2511 2.95211 23.2512ZM63.1043 21.2684C63.076 21.268 63.048 21.2629 63.0213 21.2535C62.9904 21.2427 62.9619 21.2259 62.9375 21.2041C62.9131 21.1822 62.8933 21.1557 62.879 21.1262C62.8648 21.0966 62.8566 21.0645 62.8547 21.0317C62.8528 20.9989 62.8574 20.9661 62.8682 20.9351C63.0047 20.5426 63.1374 20.1483 63.2628 19.754C63.2831 19.6909 63.3275 19.6384 63.3863 19.6082C63.4451 19.578 63.5135 19.5725 63.5763 19.5929C63.6391 19.6133 63.6913 19.6579 63.7214 19.7169C63.7515 19.7759 63.757 19.8445 63.7367 19.9076C63.6113 20.302 63.4767 20.7037 63.3384 21.0999C63.3218 21.149 63.2903 21.1917 63.2483 21.2219C63.2063 21.2522 63.1559 21.2684 63.1043 21.2684ZM1.94718 20.9647C1.89767 20.965 1.84919 20.9506 1.80784 20.9232C1.7665 20.8959 1.73414 20.8569 1.71484 20.8111C1.55627 20.4241 1.40323 20.0354 1.25203 19.641C1.22757 19.5789 1.22869 19.5096 1.25515 19.4483C1.2816 19.387 1.33122 19.3388 1.39308 19.3143C1.45494 19.2897 1.52399 19.2908 1.58503 19.3174C1.64606 19.344 1.69408 19.3938 1.71854 19.4559C1.86605 19.8447 2.01848 20.2304 2.17582 20.613C2.18848 20.6432 2.19503 20.6757 2.19511 20.7085C2.19518 20.7413 2.18877 20.7738 2.17626 20.8041C2.16374 20.8344 2.14535 20.8619 2.12217 20.885C2.09899 20.9082 2.07148 20.9264 2.04122 20.9388C2.01167 20.9525 1.97969 20.96 1.94718 20.961V20.9647ZM63.8639 18.8801C63.8409 18.8798 63.818 18.8767 63.7957 18.8709C63.7322 18.8519 63.6787 18.8087 63.6466 18.7506C63.6146 18.6924 63.6065 18.6239 63.6242 18.5598C63.7404 18.1618 63.851 17.7582 63.9543 17.3602C63.9613 17.3271 63.9749 17.2958 63.9942 17.2682C64.0136 17.2405 64.0383 17.2171 64.0669 17.1994C64.0956 17.1816 64.1275 17.1698 64.1608 17.1648C64.1941 17.1598 64.228 17.1616 64.2606 17.1701C64.2932 17.1786 64.3237 17.1937 64.3503 17.2144C64.3769 17.2351 64.399 17.261 64.4154 17.2905C64.4317 17.32 64.442 17.3526 64.4454 17.3862C64.4489 17.4198 64.4455 17.4538 64.4356 17.486C64.3323 17.8878 64.2198 18.2969 64.1037 18.7005C64.0885 18.7525 64.0569 18.7981 64.0136 18.8305C63.9704 18.8629 63.9179 18.8803 63.8639 18.8801ZM1.05288 18.6246C1.00136 18.6251 0.951016 18.6092 0.908982 18.5793C0.866947 18.5494 0.83536 18.507 0.818705 18.458C0.678567 18.0655 0.542734 17.6693 0.411201 17.2694C0.390417 17.2063 0.395446 17.1375 0.425185 17.0782C0.454924 17.0188 0.506934 16.9737 0.569775 16.9529C0.632616 16.932 0.70114 16.937 0.760272 16.9669C0.819404 16.9968 0.864299 17.049 0.885083 17.1121C1.01416 17.5083 1.14815 17.9014 1.28706 18.2914C1.29814 18.3222 1.30302 18.355 1.3014 18.3878C1.29979 18.4205 1.29171 18.4527 1.27765 18.4823C1.26359 18.5119 1.24382 18.5384 1.21948 18.5603C1.19514 18.5822 1.16672 18.599 1.13586 18.6098C1.10941 18.6201 1.08123 18.6251 1.05288 18.6246ZM64.4024 16.4419C64.3697 16.4409 64.3375 16.4335 64.3076 16.4201C64.2778 16.4066 64.2509 16.3874 64.2285 16.3635C64.206 16.3396 64.1885 16.3115 64.1769 16.2808C64.1653 16.2501 64.1598 16.2174 64.1608 16.1845C64.1608 16.1457 64.1608 16.1049 64.1608 16.0661C64.1611 15.7131 64.1133 15.3618 64.0188 15.0219C64.01 14.9903 64.0074 14.9572 64.0113 14.9247C64.0152 14.8921 64.0254 14.8605 64.0415 14.8319C64.0575 14.8033 64.0789 14.7781 64.1046 14.7578C64.1303 14.7375 64.1598 14.7225 64.1912 14.7136C64.2227 14.7048 64.2556 14.7022 64.2881 14.7061C64.3206 14.71 64.3519 14.7203 64.3805 14.7364C64.409 14.7524 64.434 14.774 64.4542 14.7998C64.4745 14.8256 64.4894 14.8551 64.4983 14.8868C64.6061 15.2705 64.6607 15.6673 64.6605 16.0661C64.6605 16.1105 64.6605 16.1549 64.6605 16.1994C64.6581 16.2658 64.6296 16.3286 64.5812 16.3741C64.5329 16.4195 64.4686 16.4439 64.4024 16.4419ZM0.304251 16.2382C0.245692 16.2379 0.189109 16.2169 0.144316 16.1791C0.0995224 16.1412 0.0693463 16.0888 0.0590134 16.0309C0.0200727 15.7972 0.00033645 15.5606 6.78216e-06 15.3237C-0.000371069 15.1167 0.0150399 14.9099 0.0461046 14.7053C0.0505854 14.6725 0.0615008 14.641 0.0782189 14.6125C0.094937 14.584 0.117123 14.5591 0.143494 14.5393C0.169865 14.5194 0.199894 14.5051 0.231841 14.497C0.263787 14.4889 0.297018 14.4872 0.329602 14.4921C0.362185 14.497 0.393474 14.5084 0.421657 14.5255C0.44984 14.5426 0.474355 14.5652 0.49378 14.592C0.513205 14.6187 0.527155 14.649 0.534819 14.6812C0.542484 14.7133 0.543708 14.7467 0.538426 14.7794C0.512018 14.9596 0.498461 15.1415 0.49786 15.3237C0.49821 15.5322 0.516099 15.7403 0.551335 15.9457C0.55688 15.9782 0.555977 16.0114 0.548679 16.0436C0.541381 16.0757 0.527831 16.106 0.50881 16.1329C0.489789 16.1597 0.465674 16.1825 0.437846 16.1999C0.410018 16.2174 0.379031 16.2292 0.346663 16.2345C0.332757 16.2377 0.31849 16.2389 0.304251 16.2382ZM63.7349 14.074C63.6937 14.0742 63.6531 14.0642 63.6168 14.0448C63.5804 14.0254 63.5494 13.9973 63.5265 13.9629C63.3078 13.6384 63.0404 13.3498 62.7336 13.1076C62.6821 13.0661 62.6489 13.0059 62.6413 12.9401C62.6338 12.8742 62.6523 12.808 62.6931 12.7558C62.7132 12.7298 62.7383 12.7081 62.7669 12.6919C62.7956 12.6757 62.8271 12.6655 62.8597 12.6617C62.8923 12.6579 62.9254 12.6606 62.9569 12.6698C62.9885 12.679 63.0179 12.6944 63.0434 12.7151C63.3883 12.9882 63.6893 13.3129 63.9359 13.6778C63.9725 13.7331 63.9859 13.8008 63.9732 13.866C63.9604 13.9312 63.9225 13.9886 63.8676 14.0259C63.8277 14.056 63.7793 14.0728 63.7293 14.074H63.7349ZM0.673034 13.8056C0.634468 13.8054 0.596514 13.7958 0.562398 13.7778C0.533077 13.7632 0.506924 13.743 0.485458 13.7182C0.463991 13.6934 0.447643 13.6646 0.437351 13.6335C0.427059 13.6023 0.423031 13.5694 0.425506 13.5366C0.42798 13.5039 0.436904 13.4719 0.451762 13.4427C0.649985 13.0469 0.906053 12.6831 1.21146 12.3634C1.23422 12.339 1.26153 12.3195 1.29182 12.3058C1.32212 12.292 1.35481 12.2844 1.38802 12.2834C1.42124 12.2824 1.45434 12.2879 1.48542 12.2997C1.5165 12.3116 1.54496 12.3294 1.56918 12.3523C1.59339 12.3751 1.61289 12.4025 1.62655 12.4329C1.64021 12.4634 1.64776 12.4962 1.64879 12.5295C1.64982 12.5629 1.6443 12.5961 1.63254 12.6273C1.62077 12.6585 1.603 12.6871 1.58024 12.7114C1.30788 12.9937 1.07971 13.3158 0.903523 13.6667C0.881983 13.7105 0.848155 13.7469 0.806212 13.7716C0.76427 13.7963 0.716049 13.8081 0.667503 13.8056H0.673034ZM61.9426 12.3467C61.8839 12.3464 61.8271 12.3254 61.7822 12.2874C61.4742 12.0264 61.1497 11.7617 60.8215 11.5006C60.7719 11.4589 60.7404 11.3994 60.7338 11.3348C60.7271 11.2701 60.7458 11.2055 60.7858 11.1544C60.8259 11.1034 60.8842 11.07 60.9483 11.0614C61.0124 11.0527 61.0774 11.0695 61.1294 11.1081C61.4632 11.3729 61.7895 11.6395 62.103 11.9042C62.1426 11.9371 62.1711 11.9815 62.1845 12.0313C62.198 12.081 62.1958 12.1338 62.1782 12.1823C62.1606 12.2307 62.1286 12.2726 62.0864 12.302C62.0442 12.3314 61.994 12.347 61.9426 12.3467ZM2.35837 12.0005C2.3184 12.0003 2.27904 11.9906 2.24348 11.9723C2.20792 11.9539 2.17716 11.9275 2.1537 11.895C2.11571 11.8404 2.10079 11.773 2.1122 11.7074C2.1236 11.6418 2.1604 11.5835 2.21455 11.5451C2.55014 11.3081 2.90048 11.0711 3.2582 10.8415C3.31395 10.8057 3.3816 10.7936 3.44626 10.8078C3.51093 10.822 3.56732 10.8615 3.60301 10.9175C3.63871 10.9734 3.6508 11.0413 3.63663 11.1063C3.62245 11.1712 3.58316 11.2278 3.52741 11.2637C3.17707 11.4895 2.83042 11.7209 2.5022 11.9542C2.45871 11.9855 2.4063 12.0017 2.35284 12.0005H2.35837ZM59.9862 10.7916C59.9326 10.7918 59.8803 10.775 59.8368 10.7434C59.5037 10.4966 59.17 10.2497 58.8356 10.0029C58.7874 9.96219 58.7563 9.90478 58.7483 9.84207C58.7403 9.77936 58.7561 9.71594 58.7926 9.6644C58.8291 9.61287 58.8835 9.57699 58.9451 9.5639C59.0067 9.55081 59.0709 9.56146 59.1251 9.59373C59.4607 9.83626 59.7981 10.0825 60.1355 10.3343C60.1773 10.3657 60.2082 10.4096 60.2238 10.4597C60.2394 10.5098 60.2389 10.5635 60.2224 10.6133C60.2058 10.663 60.1741 10.7063 60.1317 10.737C60.0894 10.7676 60.0384 10.7842 59.9862 10.7842V10.7916ZM4.45674 10.649C4.40165 10.6497 4.3479 10.632 4.3039 10.5987C4.25989 10.5654 4.22813 10.5184 4.21358 10.4651C4.19903 10.4117 4.20252 10.3551 4.2235 10.3039C4.24448 10.2528 4.28177 10.21 4.32952 10.1825C4.67802 9.97696 5.0468 9.76962 5.42296 9.56412C5.48115 9.53245 5.5495 9.52528 5.61295 9.54421C5.67641 9.56313 5.72978 9.60658 5.76132 9.66501C5.79286 9.72344 5.79998 9.79205 5.78114 9.85576C5.76229 9.91947 5.71901 9.97306 5.66082 10.0047C5.29203 10.2065 4.92326 10.412 4.58213 10.6138C4.54269 10.6378 4.49729 10.65 4.45121 10.649H4.45674ZM6.64547 9.45303C6.58913 9.45351 6.53428 9.43478 6.48991 9.39991C6.44555 9.36503 6.41427 9.31607 6.40121 9.26103C6.38815 9.206 6.39407 9.14814 6.41801 9.09693C6.44195 9.04571 6.48249 9.00417 6.533 8.97908C6.90178 8.79025 7.27609 8.60511 7.65593 8.42368C7.68547 8.40945 7.71752 8.40122 7.75023 8.39943C7.78295 8.39764 7.81569 8.40233 7.84659 8.41325C7.8775 8.42416 7.90597 8.44108 7.93036 8.46305C7.95475 8.48501 7.97459 8.51158 7.98876 8.54124C8.00292 8.5709 8.01114 8.60307 8.01292 8.63592C8.0147 8.66877 8.01002 8.70164 7.99915 8.73267C7.98827 8.7637 7.97142 8.79228 7.94955 8.81677C7.92768 8.84126 7.90121 8.86119 7.87167 8.87541C7.50289 9.06054 7.1341 9.24568 6.76532 9.43081C6.72596 9.44839 6.68291 9.45602 6.63994 9.45303H6.64547ZM57.956 9.33639C57.9061 9.33662 57.8573 9.32179 57.8159 9.29381C57.4711 9.05499 57.1263 8.82171 56.7852 8.594C56.7579 8.57576 56.7345 8.55233 56.7163 8.52501C56.6981 8.4977 56.6854 8.46705 56.679 8.43482C56.6726 8.40259 56.6725 8.36939 56.6789 8.33714C56.6852 8.3049 56.6979 8.27422 56.716 8.24687C56.7342 8.21952 56.7575 8.19603 56.7847 8.17774C56.8119 8.15945 56.8425 8.14671 56.8746 8.14027C56.9067 8.13382 56.9397 8.13379 56.9718 8.14017C57.004 8.14655 57.0345 8.15921 57.0617 8.17744C57.4047 8.40701 57.7514 8.64029 58.098 8.88097C58.1417 8.9113 58.1745 8.95484 58.1918 9.00524C58.209 9.05564 58.2098 9.11026 58.1939 9.16112C58.1781 9.21198 58.1464 9.25642 58.1036 9.28795C58.0608 9.31948 58.0091 9.33646 57.956 9.33639ZM8.89136 8.36629C8.84397 8.36661 8.79751 8.35314 8.75759 8.32752C8.71767 8.30189 8.68599 8.2652 8.66639 8.22189C8.65245 8.19201 8.64454 8.15964 8.64312 8.12667C8.6417 8.09371 8.64679 8.06078 8.6581 8.0298C8.66941 7.99882 8.68672 7.9704 8.70904 7.94617C8.73135 7.92194 8.75822 7.90238 8.7881 7.88863C9.1661 7.7035 9.54594 7.54058 9.92394 7.3684C9.98434 7.34115 10.053 7.33911 10.1149 7.36272C10.1768 7.38633 10.2269 7.43365 10.254 7.49429C10.2812 7.55493 10.2832 7.62391 10.2597 7.68606C10.2362 7.74821 10.189 7.79844 10.1286 7.82569C9.75247 7.99602 9.37508 8.16881 8.99646 8.34407C8.96163 8.35946 8.92387 8.36704 8.88582 8.36629H8.89136ZM55.878 7.93862C55.8287 7.93816 55.7807 7.92337 55.7397 7.89605C55.4041 7.67018 55.0574 7.42951 54.7071 7.17957C54.6533 7.14103 54.6169 7.08261 54.606 7.01716C54.5952 6.95172 54.6106 6.8846 54.649 6.83059C54.6874 6.77658 54.7456 6.74009 54.8107 6.72915C54.8759 6.71822 54.9428 6.73373 54.9966 6.77227C55.3414 7.0185 55.6843 7.25733 56.0163 7.47949C56.0613 7.50904 56.0956 7.55244 56.114 7.6032C56.1324 7.65396 56.1339 7.70934 56.1183 7.76105C56.1028 7.81275 56.0709 7.858 56.0276 7.89001C55.9842 7.92202 55.9318 7.93908 55.878 7.93862ZM11.1575 7.32583C11.0998 7.32698 11.0435 7.30795 10.9982 7.27201C10.9529 7.23606 10.9215 7.18541 10.9093 7.12876C10.8971 7.0721 10.9049 7.01296 10.9313 6.96143C10.9578 6.90991 11.0012 6.86921 11.0543 6.84632L12.1883 6.3298C12.2181 6.31618 12.2502 6.30859 12.2829 6.30746C12.3156 6.30632 12.3482 6.31167 12.3789 6.32319C12.4095 6.33471 12.4376 6.35217 12.4616 6.37459C12.4855 6.39701 12.5048 6.42393 12.5183 6.45384C12.5319 6.48374 12.5395 6.51604 12.5406 6.54888C12.5417 6.58172 12.5364 6.61445 12.5249 6.64522C12.5134 6.67599 12.496 6.70421 12.4737 6.72823C12.4514 6.75225 12.4246 6.77162 12.3948 6.78523L11.2589 7.30361C11.2276 7.32055 11.193 7.33064 11.1575 7.33323V7.32583ZM34.6176 6.92409C34.5625 6.92331 34.5089 6.90517 34.4646 6.87224C34.4001 6.8241 34.3386 6.77217 34.2802 6.71674C34.2418 6.67086 34.2211 6.61265 34.2218 6.55273C34.2226 6.49281 34.2448 6.43515 34.2843 6.39027C34.3239 6.3454 34.3782 6.31628 34.4373 6.30824C34.4965 6.3002 34.5566 6.31377 34.6066 6.34647C34.7918 6.16199 34.9666 5.96729 35.1302 5.76328C35.173 5.71124 35.2347 5.67839 35.3016 5.67197C35.3685 5.66555 35.4352 5.68607 35.487 5.72903C35.5389 5.772 35.5716 5.83388 35.578 5.90106C35.5844 5.96824 35.5639 6.03522 35.5211 6.08727C35.2971 6.37395 35.0464 6.63865 34.7725 6.8778C34.7284 6.91274 34.6738 6.93165 34.6176 6.93149V6.92409ZM53.846 6.48901C53.7921 6.48888 53.7398 6.47136 53.6966 6.43903C53.3629 6.1891 53.0328 5.93546 52.7009 5.67812C52.6486 5.63736 52.6145 5.57741 52.6062 5.51145C52.5979 5.44548 52.616 5.37891 52.6566 5.32637C52.6972 5.27383 52.7569 5.23964 52.8226 5.2313C52.8884 5.22297 52.9547 5.24118 53.007 5.28194C53.3352 5.53742 53.6646 5.7892 53.9953 6.03728C54.0368 6.06911 54.0673 6.11312 54.0826 6.16318C54.098 6.21324 54.0974 6.26687 54.0809 6.31658C54.0645 6.36629 54.033 6.40962 53.9909 6.44052C53.9488 6.47143 53.8981 6.48838 53.846 6.48901ZM13.42 6.27797C13.3634 6.27805 13.3085 6.25878 13.2643 6.22335C13.2201 6.18793 13.1893 6.13844 13.1768 6.08305C13.1644 6.02765 13.1711 5.96966 13.1958 5.9186C13.2206 5.86754 13.2619 5.82648 13.3131 5.80217C13.6818 5.61703 14.0617 5.4319 14.4194 5.24676C14.4486 5.23193 14.4804 5.22301 14.513 5.22052C14.5456 5.21803 14.5784 5.22201 14.6095 5.23224C14.6405 5.24247 14.6693 5.25875 14.6941 5.28014C14.7189 5.30153 14.7393 5.32761 14.7541 5.35691C14.7688 5.38621 14.7777 5.41814 14.7802 5.45088C14.7827 5.48362 14.7787 5.51654 14.7685 5.54774C14.7584 5.57894 14.7421 5.60783 14.7208 5.63274C14.6995 5.65765 14.6735 5.6781 14.6444 5.69293C14.2756 5.87807 13.9068 6.0632 13.5214 6.24834C13.4907 6.26787 13.4561 6.2805 13.42 6.28537V6.27797ZM33.6385 5.84289C33.6007 5.84312 33.5633 5.83476 33.5291 5.8184C33.4949 5.80205 33.4649 5.77814 33.4412 5.74847C33.3232 5.59851 33.2144 5.45596 33.1241 5.33748C32.971 5.13938 32.8217 4.94684 32.676 4.76171C32.6347 4.70991 32.6155 4.64374 32.6228 4.57777C32.6301 4.5118 32.6631 4.45144 32.7147 4.40995C32.7663 4.36846 32.8322 4.34924 32.8979 4.35653C32.9636 4.36382 33.0237 4.39703 33.0651 4.44883C33.2144 4.63396 33.3638 4.83205 33.5187 5.032C33.609 5.14863 33.716 5.28934 33.834 5.43744C33.8543 5.4633 33.8693 5.49294 33.8781 5.52464C33.887 5.55635 33.8895 5.58949 33.8856 5.62217C33.8816 5.65486 33.8713 5.68644 33.8552 5.7151C33.839 5.74377 33.8174 5.76895 33.7916 5.78921C33.7494 5.82722 33.6952 5.84888 33.6385 5.85029V5.84289ZM36.1112 5.19492C36.055 5.19523 36.0004 5.1763 35.9563 5.14123C35.9045 5.10004 35.871 5.03998 35.8631 4.97411C35.8551 4.90824 35.8734 4.84189 35.9139 4.78947L35.96 4.73208C36.1813 4.45067 36.4302 4.13224 36.6976 3.8064C36.7408 3.75863 36.8007 3.72948 36.8648 3.72505C36.9289 3.72061 36.9922 3.74124 37.0415 3.78262C37.0908 3.82399 37.1223 3.8829 37.1293 3.94703C37.1364 4.01116 37.1184 4.07553 37.0793 4.12668C36.8137 4.44512 36.5667 4.76171 36.3417 5.03941L36.2956 5.0968C36.2739 5.12577 36.2462 5.14957 36.2143 5.16653C36.1824 5.18349 36.1472 5.19318 36.1112 5.19492ZM15.6438 5.16159C15.5887 5.16136 15.5353 5.14281 15.4919 5.10884C15.4484 5.07487 15.4174 5.0274 15.4037 4.97386C15.39 4.92032 15.3944 4.86373 15.4161 4.81295C15.4379 4.76217 15.4758 4.72005 15.5239 4.6932C15.8927 4.48585 16.2615 4.2785 16.5952 4.07485C16.6517 4.04048 16.7195 4.03005 16.7836 4.04585C16.8478 4.06164 16.903 4.10238 16.9373 4.15909C16.9715 4.2158 16.9819 4.28384 16.9662 4.34825C16.9504 4.41265 16.9099 4.46814 16.8534 4.50251C16.5104 4.71172 16.1435 4.92278 15.7636 5.13198C15.7267 5.15151 15.6855 5.16167 15.6438 5.16159ZM51.8748 4.97646C51.8186 4.97707 51.7638 4.95811 51.7199 4.92277C51.3954 4.66359 51.0727 4.40253 50.7463 4.13779C50.7209 4.11713 50.6998 4.09165 50.6842 4.06278C50.6686 4.03392 50.6588 4.00225 50.6554 3.96958C50.6519 3.93692 50.6549 3.9039 50.6642 3.87241C50.6735 3.84091 50.6889 3.81157 50.7095 3.78604C50.73 3.76051 50.7554 3.73931 50.7842 3.72363C50.8129 3.70796 50.8445 3.69811 50.877 3.69467C50.9095 3.69123 50.9424 3.69426 50.9738 3.70359C51.0051 3.71291 51.0344 3.72835 51.0598 3.74901C51.3843 4.0119 51.7076 4.27233 52.0297 4.53029C52.0554 4.55067 52.0769 4.57596 52.0928 4.60469C52.1088 4.63342 52.119 4.66503 52.1227 4.69771C52.1265 4.73039 52.1238 4.76349 52.1148 4.79512C52.1058 4.82675 52.0907 4.85629 52.0703 4.88204C52.0457 4.9093 52.0155 4.93076 51.9817 4.94484C51.9479 4.95893 51.9114 4.9653 51.8748 4.9635V4.97646ZM32.0657 3.91933C32.0308 3.91917 31.9964 3.91167 31.9647 3.89732C31.9329 3.88297 31.9045 3.8621 31.8813 3.83603C31.5899 3.51019 31.3115 3.21953 31.0294 2.95108C30.9805 2.90542 30.9516 2.84212 30.9492 2.77511C30.9468 2.7081 30.971 2.64287 31.0165 2.59377C31.062 2.54467 31.125 2.51572 31.1917 2.51329C31.2585 2.51086 31.3234 2.53515 31.3723 2.58081C31.6637 2.85851 31.9513 3.15843 32.2537 3.49538C32.2857 3.53127 32.3067 3.57567 32.3141 3.62323C32.3215 3.6708 32.3152 3.71951 32.2957 3.76351C32.2762 3.80751 32.2445 3.84492 32.2043 3.87125C32.1642 3.89758 32.1173 3.91171 32.0693 3.91193L32.0657 3.91933ZM17.7735 3.8675C17.7328 3.86779 17.6926 3.85797 17.6566 3.83891C17.6205 3.81986 17.5898 3.79215 17.567 3.75827C17.5485 3.73107 17.5355 3.70046 17.5289 3.66822C17.5222 3.63598 17.5219 3.60273 17.5281 3.57039C17.5343 3.53804 17.5467 3.50725 17.5648 3.47976C17.5829 3.45227 17.6062 3.42863 17.6333 3.41021C17.7624 3.3232 17.8897 3.22508 18.0169 3.14362L18.6475 2.69189C18.7014 2.65726 18.7665 2.64479 18.8293 2.65707C18.8921 2.66935 18.9478 2.70543 18.9848 2.75783C19.0218 2.81023 19.0373 2.87492 19.028 2.93848C19.0188 3.00204 18.9855 3.05959 18.9351 3.09919L18.3064 3.55092L17.9136 3.82492C17.8709 3.84858 17.8221 3.85889 17.7735 3.85454V3.8675ZM49.9406 3.3917C49.8835 3.39162 49.8283 3.37203 49.7838 3.33616L49.4759 3.08438C49.2546 2.89925 49.0315 2.73262 48.8121 2.57155C48.7857 2.5521 48.7634 2.52763 48.7464 2.49952C48.7294 2.47141 48.7181 2.44021 48.7132 2.40772C48.7082 2.37523 48.7097 2.34207 48.7175 2.31015C48.7253 2.27822 48.7392 2.24815 48.7586 2.22165C48.778 2.19515 48.8024 2.17274 48.8304 2.1557C48.8584 2.13866 48.8894 2.12732 48.9218 2.12233C48.9541 2.11735 48.9872 2.11881 49.019 2.12664C49.0508 2.13447 49.0807 2.14851 49.1071 2.16796C49.3321 2.33273 49.5625 2.51046 49.7894 2.69559L50.0973 2.94737C50.1373 2.97987 50.1664 3.02405 50.1804 3.07381C50.1944 3.12357 50.1927 3.17647 50.1755 3.22521C50.1583 3.27395 50.1264 3.31614 50.0844 3.34596C50.0423 3.37578 49.9921 3.39176 49.9406 3.3917ZM37.7246 3.28803C37.6596 3.28798 37.5973 3.26201 37.5513 3.21582C37.5282 3.19261 37.5098 3.16505 37.4973 3.13471C37.4848 3.10437 37.4783 3.07185 37.4783 3.03901C37.4783 3.00617 37.4848 2.97366 37.4973 2.94333C37.5098 2.91299 37.5282 2.88543 37.5513 2.86222C37.8473 2.55617 38.16 2.26692 38.488 1.99579C38.5391 1.95356 38.6048 1.93344 38.6707 1.93986C38.7366 1.94629 38.7972 1.97873 38.8393 2.03004C38.8813 2.08135 38.9014 2.14732 38.895 2.21347C38.8886 2.27961 38.8563 2.34049 38.8052 2.38271C38.4915 2.64249 38.1924 2.91937 37.909 3.21212C37.8844 3.23736 37.8548 3.25715 37.822 3.27022C37.7893 3.28329 37.7543 3.28936 37.7191 3.28803H37.7246ZM19.8276 2.42714C19.7734 2.42783 19.7205 2.41075 19.6769 2.3785C19.6332 2.34624 19.6013 2.30058 19.5859 2.24844C19.5704 2.19629 19.5723 2.14051 19.5914 2.08956C19.6104 2.03862 19.6454 1.99529 19.6912 1.96616C20.071 1.71808 20.4287 1.50332 20.7754 1.31078C20.8333 1.27887 20.9015 1.27137 20.965 1.28995C21.0284 1.30852 21.0819 1.35164 21.1137 1.40983C21.1455 1.46801 21.153 1.53649 21.1345 1.6002C21.116 1.66392 21.073 1.71764 21.0151 1.74955C20.6777 1.93469 20.3328 2.14574 19.9622 2.38642C19.9207 2.41406 19.8718 2.42827 19.8221 2.42714H19.8276ZM30.2512 2.19943C30.1974 2.1993 30.145 2.18177 30.1019 2.14944C29.7802 1.90289 29.442 1.67896 29.0896 1.47925C29.0319 1.44685 28.9894 1.39275 28.9714 1.32886C28.9534 1.26498 28.9614 1.19655 28.9937 1.13861C29.026 1.08067 29.0798 1.03797 29.1435 1.01992C29.2071 1.00186 29.2753 1.00993 29.333 1.04234C29.705 1.25352 30.0623 1.4898 30.4024 1.74955C30.4444 1.78112 30.4753 1.82517 30.4908 1.87542C30.5064 1.92567 30.5057 1.97956 30.489 2.02941C30.4722 2.07927 30.4402 2.12254 30.3975 2.15307C30.3548 2.1836 30.3036 2.19982 30.2512 2.19943ZM47.9159 1.93284C47.8711 1.93319 47.827 1.92101 47.7887 1.89766C47.4404 1.68793 47.0802 1.49877 46.71 1.33115C46.6496 1.3039 46.6025 1.25367 46.579 1.19153C46.5555 1.12938 46.5575 1.0604 46.5846 0.999758C46.6118 0.939119 46.6618 0.891782 46.7237 0.868173C46.7856 0.844563 46.8543 0.846617 46.9147 0.873868C47.3015 1.05014 47.6783 1.24792 48.0432 1.46629C48.0895 1.49477 48.1254 1.5376 48.1454 1.58833C48.1655 1.63906 48.1685 1.69495 48.1542 1.74758C48.1398 1.80021 48.1088 1.84672 48.0659 1.88013C48.0229 1.91355 47.9703 1.93205 47.9159 1.93284ZM39.6497 1.71623C39.5954 1.71635 39.5426 1.69866 39.4993 1.66587C39.456 1.63308 39.4245 1.58698 39.4097 1.53458C39.3949 1.48218 39.3975 1.42635 39.4172 1.37559C39.4369 1.32483 39.4725 1.28192 39.5188 1.25339C39.8845 1.02847 40.2674 0.832853 40.6638 0.668359C40.6946 0.653261 40.7281 0.644698 40.7623 0.643206C40.7965 0.641714 40.8307 0.647329 40.8627 0.659692C40.8946 0.672055 40.9237 0.690904 40.948 0.715061C40.9724 0.739218 40.9916 0.768158 41.0043 0.80008C41.017 0.832003 41.023 0.866215 41.0219 0.900581C41.0209 0.934946 41.0128 0.968726 40.9981 0.999804C40.9835 1.03088 40.9626 1.0586 40.9368 1.08121C40.911 1.10382 40.8809 1.12083 40.8482 1.1312C40.4759 1.28758 40.1164 1.47329 39.7732 1.6866C39.7351 1.70625 39.6924 1.71521 39.6497 1.71252V1.71623ZM22.009 1.23487C21.9601 1.23555 21.9121 1.22144 21.8713 1.19436C21.8305 1.16728 21.7988 1.1285 21.7803 1.08306C21.7673 1.05294 21.7603 1.02053 21.7598 0.98769C21.7594 0.954849 21.7654 0.922239 21.7776 0.891755C21.7897 0.861272 21.8078 0.833514 21.8308 0.810103C21.8537 0.786693 21.8811 0.768095 21.9112 0.755379C22.3032 0.586937 22.7054 0.44348 23.1153 0.325864C23.1774 0.312981 23.242 0.324162 23.2962 0.357164C23.3503 0.390165 23.3901 0.442543 23.4073 0.503756C23.4246 0.564968 23.4182 0.630475 23.3893 0.687117C23.3605 0.743758 23.3113 0.787327 23.2518 0.809064C22.8616 0.919524 22.4791 1.05558 22.1067 1.21636C22.0754 1.22762 22.0422 1.23265 22.009 1.23118V1.23487ZM28.0828 0.984945C28.0533 0.984678 28.0241 0.979675 27.9961 0.970131C27.6592 0.844042 27.3135 0.743175 26.9617 0.668359L26.8363 0.642449C26.8018 0.638665 26.7685 0.627729 26.7384 0.610335C26.7083 0.592941 26.6821 0.569463 26.6616 0.541395C26.641 0.513327 26.6265 0.481274 26.6189 0.447268C26.6113 0.413263 26.6108 0.378045 26.6174 0.343841C26.6241 0.309638 26.6378 0.277191 26.6575 0.248562C26.6773 0.219933 26.7028 0.195743 26.7324 0.17752C26.762 0.159298 26.795 0.147446 26.8294 0.142706C26.8638 0.137965 26.8988 0.140442 26.9322 0.149983L27.065 0.177758C27.441 0.258169 27.8108 0.365827 28.1713 0.499891C28.2266 0.519901 28.2731 0.558916 28.3025 0.61003C28.3319 0.661143 28.3423 0.721056 28.3319 0.779153C28.3216 0.837251 28.291 0.889785 28.2458 0.927451C28.2005 0.965117 28.1434 0.985484 28.0846 0.984945H28.0828ZM45.6442 0.918299C45.6205 0.918219 45.5968 0.914473 45.5742 0.907191C45.1878 0.794185 44.7932 0.711852 44.3941 0.660958C44.3616 0.656825 44.3303 0.646316 44.3019 0.63003C44.2735 0.613745 44.2486 0.591999 44.2285 0.56604C44.2085 0.540081 44.1937 0.510418 44.1851 0.478738C44.1765 0.447058 44.1742 0.41398 44.1783 0.381402C44.1824 0.348823 44.1929 0.317374 44.2091 0.288857C44.2253 0.26034 44.247 0.235319 44.2729 0.215205C44.2987 0.195091 44.3283 0.180282 44.3598 0.171633C44.3914 0.162984 44.4243 0.160664 44.4568 0.164797C44.8823 0.218571 45.3028 0.30648 45.7143 0.427686C45.7725 0.444026 45.8228 0.481056 45.8558 0.531869C45.8888 0.582682 45.9022 0.643816 45.8937 0.703863C45.8851 0.76391 45.8551 0.818774 45.8092 0.858229C45.7633 0.897684 45.7047 0.919033 45.6442 0.918299ZM41.9472 0.773888C41.8854 0.774692 41.8256 0.752417 41.7793 0.711389C41.733 0.67036 41.7035 0.613506 41.6966 0.551881C41.6897 0.490256 41.7059 0.428258 41.7419 0.377933C41.778 0.327608 41.8315 0.292556 41.8919 0.27958C42.3122 0.186646 42.7397 0.130273 43.1697 0.1111C43.2355 0.10906 43.2995 0.132882 43.348 0.177486C43.3966 0.222091 43.4259 0.283963 43.4297 0.349932C43.4312 0.382761 43.4262 0.415559 43.415 0.446455C43.4039 0.47735 43.3868 0.505736 43.3647 0.529982C43.3426 0.554229 43.316 0.573861 43.2863 0.587758C43.2566 0.601655 43.2245 0.609541 43.1918 0.610968C42.7909 0.628151 42.3923 0.680817 42.0007 0.768339L41.9472 0.773888ZM24.4024 0.566537C24.3404 0.563987 24.2816 0.53848 24.2373 0.494942C24.1929 0.451403 24.1662 0.392926 24.1623 0.33079C24.1584 0.268655 24.1776 0.207268 24.2162 0.158492C24.2547 0.109715 24.3099 0.0770019 24.371 0.0666697C24.7152 0.0214309 25.062 -0.000831487 25.4091 2.37294e-05C25.4903 2.37294e-05 25.5732 2.37294e-05 25.6544 2.37294e-05C25.6871 0.00111778 25.7192 0.00866799 25.749 0.0222391C25.7788 0.0358101 25.8056 0.05514 25.828 0.079122C25.8503 0.103104 25.8677 0.131264 25.8792 0.162006C25.8907 0.192748 25.8961 0.225469 25.895 0.258291C25.8939 0.291113 25.8864 0.323395 25.8729 0.353299C25.8594 0.383204 25.8401 0.410144 25.8162 0.432578C25.7923 0.455013 25.7643 0.472499 25.7337 0.484049C25.703 0.495598 25.6705 0.500985 25.6378 0.499891H25.3999C25.0769 0.499951 24.7542 0.520359 24.4337 0.560989L24.4024 0.566537Z" fill="#58595B"/>
<path d="M60.0881 15.2036C59.9799 15.255 59.8831 15.327 59.8032 15.4155C59.7232 15.504 59.6617 15.6072 59.6222 15.7193C56.0947 24.9538 51.2526 36.4778 40.7883 39.7072C35.4952 41.353 29.2129 40.2411 24.2581 38.0047C19.6028 35.9091 15.6371 32.5902 12.4498 28.6568C9.28747 24.7091 6.84272 20.248 5.22461 15.4724C9.2809 12.6453 14.0545 11.1477 18.3345 8.70649C20.4218 7.51605 22.4444 5.3089 24.8682 4.86637C27.0258 4.47139 28.4753 6.21774 29.7029 7.67515C31.5979 9.92253 34.1862 12.4113 37.1795 10.2096C40.0266 8.11219 41.5704 2.64277 46.0279 5.27233C47.322 6.03487 48.387 7.11559 49.5665 8.01527C50.6758 8.87107 51.8442 9.66104 53.0293 10.4163C55.4346 11.9633 57.8621 13.4317 60.0881 15.2036ZM56.7177 16.9079C56.798 16.8024 56.8337 16.6701 56.8171 16.539C56.8006 16.4079 56.7331 16.2884 56.629 16.2057C56.6485 16.1742 56.659 16.1381 56.6593 16.1011C56.6597 16.0642 56.6498 16.0278 56.6308 15.996C56.6117 15.9642 56.5843 15.9382 56.5514 15.9206C56.5185 15.9031 56.4814 15.8948 56.4441 15.8966C41.5501 16.3465 26.3584 17.7948 11.5475 15.509C11.1297 15.4413 10.7636 15.8272 10.9929 16.2295C11.0484 16.3319 11.1057 16.4306 11.1648 16.5294C14.6776 22.6589 21.1318 27.1098 27.8393 29.242C30.9601 30.2349 34.1899 30.65 37.4291 30.0392C41.0749 29.3553 44.5396 27.6913 47.6105 25.6688C51.1454 23.3392 54.3272 20.4097 56.7177 16.9134V16.9079Z" fill="#F15595"/>
<path d="M39.2621 42.1096C44.7965 41.0995 49.3813 37.4296 52.7878 33.1385C56.6905 28.2097 59.8052 22.1306 61.357 16.0369C61.4114 15.867 61.4069 15.684 61.3443 15.517C61.2816 15.35 61.1644 15.2085 61.0114 15.1152C59.0173 13.3273 56.8429 11.8251 54.5998 10.3634C52.1596 8.77632 49.9685 6.9939 47.7068 5.17277C46.1662 3.93042 44.2297 2.87424 42.2152 3.61154C40.6689 4.18111 39.6264 5.54695 38.6451 6.78193C37.5784 8.12566 36.2589 9.97259 34.2964 9.71822C32.464 9.48413 31.282 7.55057 30.2078 6.25476C29.1708 4.99951 27.9536 3.7166 26.2865 3.36454C23.8706 2.85212 21.791 4.43363 19.9437 5.73865C14.8962 9.30533 8.67417 10.732 3.66012 14.3669C3.51158 14.4557 3.39546 14.5893 3.32862 14.748C3.26178 14.9068 3.2477 15.0826 3.28843 15.2498C6.366 24.949 12.7423 34.2684 21.9973 39.0553C27.1396 41.7041 33.5028 43.1621 39.2621 42.1096ZM24.1196 38.0415C19.4401 35.9292 15.4537 32.5837 12.2498 28.6189C9.07104 24.6396 6.61357 20.1428 4.98704 15.3291C9.06444 12.4794 13.8629 10.9698 18.1652 8.50905C20.2652 7.3091 22.2965 5.0843 24.7329 4.63823C26.9017 4.24009 28.3587 6.00039 29.5927 7.46946C31.4976 9.72744 34.0994 12.2361 37.1082 10.0168C39.9702 7.90262 41.522 2.38947 46.0026 5.04006C47.3036 5.80869 48.374 6.89805 49.5597 7.80493C50.6747 8.66757 51.8493 9.46385 53.0405 10.2251C55.4565 11.7734 57.8985 13.2536 60.136 15.0452C60.0273 15.097 59.93 15.1696 59.8496 15.2588C59.7692 15.348 59.7074 15.452 59.6677 15.565C56.1218 24.8789 51.2546 36.4951 40.7359 39.7502C35.4152 41.4092 29.1002 40.3032 24.1196 38.0415Z" fill="#231F20"/>
<path d="M56.7191 17.1008C56.7991 16.9938 56.8346 16.8598 56.8181 16.727C56.8016 16.5941 56.7344 16.473 56.6307 16.3892C56.6502 16.3573 56.6607 16.3206 56.661 16.2832C56.6613 16.2458 56.6514 16.2089 56.6325 16.1767C56.6135 16.1445 56.5862 16.1181 56.5534 16.1003C56.5207 16.0826 56.4837 16.0742 56.4465 16.076C41.6107 16.5319 26.4784 17.9995 11.7255 15.6832C11.3093 15.6146 10.9446 16.0056 11.173 16.4133C11.2282 16.517 11.2853 16.6171 11.3442 16.7172C14.8433 22.9287 21.2722 27.4391 27.9535 29.5998C31.0621 30.606 34.2794 31.0267 37.5058 30.4077C41.1374 29.7147 44.5886 28.0284 47.6474 25.9789C51.1686 23.6125 54.3379 20.6439 56.7191 17.1008ZM20.1544 24.4482C17.1987 22.4284 14.4584 19.8674 12.545 16.7987C19.5651 17.766 26.692 17.8587 33.7656 17.7252C41.0601 17.5918 48.3436 17.1693 55.6123 16.5726C51.7284 22.3413 45.3952 27.0963 38.6918 28.929C32.2223 30.7042 25.5042 28.1081 20.1544 24.4482Z" fill="#231F20"/>
<path d="M45.5355 21.5233C44.4993 21.6121 43.4706 21.7163 42.4381 21.8283C42.4231 21.2859 42.4062 20.7397 42.3912 20.1974C42.3859 20.1359 42.3583 20.0787 42.314 20.037C42.2697 19.9953 42.2119 19.9722 42.1518 19.9722C42.0918 19.9722 42.0339 19.9953 41.9896 20.037C41.9453 20.0787 41.9178 20.1359 41.9125 20.1974C41.8974 20.761 41.8787 21.3245 41.8618 21.8881C39.7067 22.1274 37.5573 22.3687 35.3891 22.498C35.3741 21.3767 35.3422 20.2611 35.2709 19.1532C35.2657 19.0952 35.2397 19.0413 35.1978 19.002C35.156 18.9627 35.1013 18.9409 35.0447 18.9409C34.988 18.9409 34.9334 18.9627 34.8915 19.002C34.8497 19.0413 34.8236 19.0952 34.8185 19.1532C34.7471 20.2727 34.7152 21.4037 34.7002 22.5327C34.5125 22.5443 34.306 22.552 34.1107 22.5598C31.9801 22.635 29.8607 22.5984 27.7451 22.5019C27.7207 21.8128 27.6775 21.1296 27.6193 20.458C27.6193 20.4068 27.5995 20.3577 27.5643 20.3215C27.5291 20.2853 27.4814 20.2649 27.4316 20.2649C27.3818 20.2649 27.3341 20.2853 27.2989 20.3215C27.2637 20.3577 27.2439 20.4068 27.2439 20.458C27.1894 21.1219 27.1463 21.7974 27.12 22.4768C25.6182 22.4054 24.1277 22.3069 22.6278 22.2046C22.0515 22.166 22.0796 23.0423 22.6278 23.1098C24.107 23.3028 25.5994 23.4186 27.0956 23.4804C27.0843 24.2196 27.0956 24.9588 27.1312 25.6787C27.1312 25.7616 27.1633 25.8412 27.2203 25.8998C27.2774 25.9584 27.3547 25.9914 27.4354 25.9914C27.516 25.9914 27.5934 25.9584 27.6504 25.8998C27.7074 25.8412 27.7395 25.7616 27.7395 25.6787C27.7751 24.9665 27.7845 24.237 27.777 23.5074C29.9752 23.5769 32.1791 23.5325 34.3604 23.4244L34.6983 23.4051C34.6889 24.8623 34.6983 26.3214 34.7171 27.767C34.7234 27.8534 34.7612 27.9342 34.823 27.9931C34.8848 28.0521 34.966 28.0848 35.0503 28.0848C35.1346 28.0848 35.2158 28.0521 35.2775 27.9931C35.3393 27.9342 35.3772 27.8534 35.3835 27.767C35.3835 26.3079 35.4135 24.8353 35.4023 23.3665C37.5568 23.2607 39.7046 23.0416 41.8374 22.7103C41.8224 23.3491 41.8167 23.9899 41.8374 24.6288C41.8374 24.7163 41.8712 24.8002 41.9314 24.8621C41.9916 24.924 42.0732 24.9588 42.1584 24.9588C42.2435 24.9588 42.3252 24.924 42.3854 24.8621C42.4456 24.8002 42.4794 24.7163 42.4794 24.6288C42.4925 23.9552 42.4794 23.2777 42.4681 22.6042C43.5231 22.4112 44.5687 22.1892 45.5918 21.9016C45.7852 21.8495 45.7514 21.5021 45.5355 21.5233Z" fill="#231F20"/>
</svg>
