<svg width="59" height="51" viewBox="0 0 59 51" fill="none" xmlns="http://www.w3.org/2000/svg">
<path d="M30.125 17.3426C30.0616 17.2362 29.9921 17.1336 29.9168 17.0352C29.8507 16.9476 29.7153 16.7927 29.6572 16.7186L29.6397 16.6969C29.1211 16.1139 28.438 15.7003 27.6802 15.5105C27.1479 15.3769 26.5942 15.3522 26.0525 15.4378C25.4729 15.5272 24.9208 15.7446 24.4368 16.0744C24.3172 16.15 24.2015 16.2318 24.0904 16.3194L23.8275 15.5465C23.6806 15.1265 23.5347 14.6875 23.3878 14.2522C23.4946 13.7272 23.529 13.1899 23.4898 12.6553C23.4504 11.8565 23.1824 11.0852 22.7173 10.4326C22.2522 9.78011 21.6097 9.27363 20.8655 8.97312C20.692 8.90418 20.5142 8.84626 20.3333 8.79972C19.6703 8.63183 18.9764 8.62861 18.3125 8.79033C17.6485 8.95206 17.0348 9.27379 16.5252 9.7273C16.0852 10.1076 15.7311 10.5766 15.4862 11.1035C15.1257 11.8027 14.9588 12.5853 15.0027 13.3709C15.015 13.5644 15.0405 13.757 15.0792 13.9471C15.1075 14.1583 15.1514 14.3671 15.2106 14.5718C14.9504 15.2712 14.6974 15.9878 14.4535 16.676C13.9462 18.1144 13.4515 19.5178 12.8849 20.8188C12.7986 20.5819 12.6915 20.353 12.565 20.1347C12.2 19.5064 11.6833 18.9788 11.0618 18.6001C10.4403 18.2213 9.73394 18.0035 9.00698 17.9664L8.98171 17.96C8.9131 17.9579 8.8463 17.9562 8.77858 17.9582C8.66712 17.9433 8.55428 17.9338 8.43692 17.9269C7.78851 17.8997 7.1432 18.0269 6.55456 18.2982C5.96593 18.5694 5.45094 18.9768 5.05237 19.4866C4.6538 19.9963 4.38315 20.5937 4.26287 21.2291C4.1426 21.8645 4.17617 22.5196 4.36081 23.14C4.3962 23.3268 4.44301 23.5112 4.50101 23.6923C4.02378 25.3297 3.89628 27.012 3.78934 28.4469L3.76777 28.7361C3.75697 28.8845 3.74027 29.0487 3.72442 29.2245C3.63368 30.1947 3.51591 31.468 3.66263 32.7587L3.65623 32.7838C3.62657 33.3896 3.63604 33.9967 3.68457 34.6013C3.71919 34.9636 3.72555 35.328 3.70363 35.6912C3.59502 36.5786 3.82894 37.4746 4.35799 38.1977C4.83853 38.8958 5.55788 39.3956 6.381 39.6031L6.51811 39.638L6.54338 39.6444C9.10065 40.1636 11.687 40.3036 14.1794 40.435C15.2636 40.4922 16.2891 40.5459 17.301 40.6306C20.1223 40.8666 22.9065 40.7794 25.5977 40.6953C26.3589 40.6704 27.1178 40.6469 27.879 40.6296C28.7443 40.6108 29.6092 40.5886 30.4736 40.5632C33.0709 40.4935 35.7571 40.4216 38.3577 40.46C40.2396 40.492 41.7991 40.5683 43.3063 40.8056L43.6551 40.8616C45.0097 41.0792 46.5465 41.3279 48.2595 41.0873C48.4461 41.062 48.6306 41.0231 48.8115 40.971L48.9253 40.9387L48.9859 40.9196C49.4538 40.8318 49.8996 40.6526 50.2976 40.3924C50.6956 40.1322 51.038 39.7961 51.3051 39.4035C51.7084 38.8123 51.9239 38.1136 51.9237 37.3981C51.9647 37.109 51.9874 36.8175 51.9916 36.5255C52.1399 35.9451 52.2153 35.3484 52.216 34.7492C52.2163 34.5447 52.2041 34.3402 52.1793 34.1371C52.1797 34.0071 52.1733 33.8734 52.161 33.7402C52.0159 32.1935 51.9498 30.6458 51.8781 29.0067C51.7857 26.8668 51.6912 24.667 51.408 22.4384C51.6441 22.0778 51.8277 21.6857 51.9534 21.2737C51.9569 21.2637 51.9595 21.2535 51.9612 21.2431C52.1196 20.6901 52.1652 20.1108 52.0952 19.5395C52.0253 18.9683 51.8412 18.4165 51.554 17.9169C51.2667 17.4173 50.882 16.98 50.4227 16.6307C49.9633 16.2814 49.4385 16.0272 48.8794 15.8832C48.179 15.7077 47.4461 15.7082 46.7466 15.8847C46.0471 16.0611 45.4028 16.4079 44.8714 16.894C44.4689 17.2563 44.1402 17.6926 43.9036 18.1792C43.5564 16.8988 43.1716 15.6453 42.776 14.4273C43.1752 13.6141 43.3013 12.6941 43.1356 11.803C42.97 10.9119 42.5215 10.097 41.8563 9.47853C41.7238 9.34769 41.5838 9.22461 41.437 9.10991L41.4046 9.08637C40.9462 8.73861 40.422 8.48702 39.8636 8.34684C39.1835 8.17581 38.4726 8.16779 37.7894 8.32345C37.1072 8.4787 36.4749 8.80079 35.9494 9.26067C35.4239 9.72055 35.0217 10.3038 34.7791 10.9577C34.6232 11.3644 34.5301 11.7924 34.5028 12.2272C32.8012 13.9288 31.5439 15.8772 30.4138 17.8541C30.3295 17.6772 30.233 17.5062 30.125 17.3426Z" fill="white"/>
<path d="M7.25996 39.8261C7.19406 39.8116 7.13666 39.7713 7.10041 39.714C7.06417 39.6567 7.05203 39.5871 7.06667 39.5205C7.08131 39.4539 7.12155 39.3957 7.17851 39.3588C7.23547 39.3219 7.30449 39.3093 7.3704 39.3238C7.76968 39.3983 8.18824 39.4642 8.61578 39.5247C8.65015 39.5277 8.68352 39.5377 8.71386 39.5541C8.74421 39.5706 8.77089 39.5931 8.79229 39.6203C8.81369 39.6475 8.82936 39.6789 8.83834 39.7125C8.84732 39.7461 8.84942 39.7812 8.84453 39.8157C8.83964 39.8502 8.82785 39.8834 8.80988 39.9132C8.79191 39.943 8.76815 39.9689 8.74001 39.9892C8.71188 40.0096 8.67997 40.0239 8.64623 40.0314C8.61249 40.0389 8.57764 40.0394 8.54378 40.0329C8.10863 39.9724 7.68292 39.9046 7.27782 39.8306L7.25996 39.8261ZM6.03136 39.5141L5.99207 39.5041C5.57275 39.3232 5.19098 39.0647 4.86641 38.7418C4.84061 38.7187 4.81976 38.6906 4.80512 38.6591C4.79048 38.6276 4.78236 38.5934 4.78126 38.5585C4.78015 38.5237 4.78609 38.489 4.79871 38.4564C4.81133 38.4239 4.83037 38.3943 4.85465 38.3694C4.87894 38.3444 4.90797 38.3248 4.93998 38.3115C4.97199 38.2982 5.00629 38.2917 5.04082 38.2922C5.07536 38.2928 5.10938 38.3004 5.14082 38.3147C5.17226 38.3289 5.20048 38.3495 5.22372 38.3752C5.50521 38.6529 5.83536 38.8755 6.19755 39.0317C6.25925 39.0592 6.30759 39.1102 6.33206 39.1736C6.35654 39.237 6.35517 39.3078 6.32825 39.3705C6.30253 39.4244 6.25889 39.4676 6.20496 39.4926C6.15103 39.5175 6.09024 39.5226 6.03319 39.5069L6.03136 39.5141ZM9.77602 40.1882C9.7125 40.1734 9.65719 40.1344 9.62152 40.0794C9.58584 40.0244 9.57254 39.9576 9.58437 39.8927C9.59621 39.8278 9.63225 39.7699 9.68506 39.7309C9.73788 39.6919 9.80344 39.6748 9.86815 39.6832C10.2882 39.7283 10.71 39.7663 11.1293 39.7997C11.1949 39.807 11.255 39.8399 11.2969 39.8913C11.3387 39.9427 11.359 40.0087 11.3535 40.0752C11.348 40.1417 11.3171 40.2035 11.2673 40.2477C11.2175 40.2918 11.1527 40.3147 11.0867 40.3116C10.6622 40.2768 10.238 40.2402 9.81219 40.1955L9.77602 40.1882ZM12.3145 40.3946C12.2523 40.3797 12.1982 40.3415 12.1628 40.2879C12.1274 40.2342 12.1135 40.169 12.1237 40.1051C12.1339 40.0413 12.1675 39.9836 12.2179 39.9435C12.2683 39.9033 12.3317 39.8838 12.3955 39.8887C12.8183 39.9154 13.2421 39.9384 13.6622 39.9605C13.7262 39.9682 13.7848 40 13.8262 40.0497C13.8675 40.0994 13.8886 40.1631 13.8852 40.2281C13.8817 40.2931 13.8539 40.3545 13.8075 40.3998C13.761 40.4452 13.6994 40.4711 13.6349 40.4724C13.2125 40.4516 12.787 40.4281 12.3619 40.4028L12.3145 40.3946ZM14.8557 40.5307C14.7929 40.5166 14.7378 40.479 14.7016 40.4255C14.6654 40.3719 14.6507 40.3063 14.6605 40.242C14.6703 40.1777 14.7039 40.1194 14.7545 40.0789C14.8051 40.0384 14.8689 40.0187 14.9331 40.0238C15.3643 40.0475 15.7885 40.0712 16.2056 40.0952C16.2399 40.0958 16.2737 40.1034 16.305 40.1176C16.3362 40.1318 16.3643 40.1522 16.3874 40.1776C16.4106 40.203 16.4284 40.233 16.4398 40.2656C16.4511 40.2982 16.4558 40.3329 16.4536 40.3674C16.4514 40.402 16.4422 40.4358 16.4267 40.4668C16.4113 40.4978 16.3897 40.5253 16.3635 40.5477C16.3372 40.5702 16.3068 40.587 16.2739 40.5973C16.2411 40.6076 16.2066 40.611 16.1725 40.6075C15.7568 40.5827 15.3344 40.5593 14.9053 40.5375L14.8557 40.5307ZM4.23752 37.7674C4.20346 37.7577 4.17188 37.7408 4.14495 37.7177C4.11801 37.6946 4.09634 37.6659 4.0814 37.6336C3.88092 37.221 3.75659 36.7747 3.71443 36.3164C3.71382 36.2514 3.73743 36.1885 3.78059 36.1401C3.82375 36.0917 3.8833 36.0613 3.94738 36.0551C4.01146 36.0488 4.07539 36.0672 4.12648 36.1064C4.17757 36.1456 4.21208 36.2029 4.22314 36.2668C4.25776 36.6632 4.36465 37.0493 4.53845 37.4057C4.55976 37.449 4.56845 37.4976 4.56355 37.5458C4.55865 37.594 4.54034 37.6399 4.51073 37.6782C4.48113 37.7165 4.44145 37.7456 4.39626 37.7622C4.35108 37.7788 4.30223 37.7822 4.25537 37.7719L4.23752 37.7674ZM17.386 40.687C17.3244 40.6711 17.271 40.6325 17.2364 40.5787C17.2018 40.525 17.1885 40.46 17.1991 40.3965C17.2097 40.3331 17.2435 40.2759 17.2937 40.2361C17.344 40.1964 17.4071 40.1771 17.4705 40.1819C17.8786 40.2144 18.3032 40.2415 18.7332 40.2623C18.7666 40.264 18.7993 40.2723 18.8295 40.2867C18.8596 40.3012 18.8867 40.3215 18.909 40.3465C18.9313 40.3716 18.9485 40.4008 18.9596 40.4326C18.9707 40.4644 18.9755 40.4981 18.9737 40.5319C18.9718 40.5656 18.9635 40.5987 18.949 40.6292C18.9345 40.6597 18.9143 40.6871 18.8893 40.7098C18.8644 40.7324 18.8354 40.75 18.8038 40.7613C18.7723 40.7727 18.7388 40.7777 18.7054 40.776C18.2696 40.7557 17.8414 40.7277 17.428 40.6938L17.386 40.687ZM19.9281 40.8117C19.8684 40.7956 19.8167 40.7581 19.7826 40.7062C19.7485 40.6542 19.7343 40.5914 19.7428 40.5295C19.7513 40.4676 19.7819 40.4108 19.8287 40.3698C19.8756 40.3288 19.9356 40.3063 19.9975 40.3066C20.4213 40.3143 20.8435 40.3184 21.2641 40.3189C21.2976 40.3187 21.3308 40.3253 21.3617 40.3381C21.3926 40.351 21.4207 40.3698 21.4443 40.3937C21.4679 40.4175 21.4866 40.4459 21.4993 40.4771C21.512 40.5083 21.5185 40.5418 21.5183 40.5756C21.5183 40.6093 21.5117 40.6426 21.4988 40.6738C21.4859 40.7049 21.4671 40.7332 21.4434 40.7571C21.4197 40.7809 21.3915 40.7997 21.3606 40.8125C21.3297 40.8254 21.2966 40.8319 21.2632 40.8317C20.8381 40.8339 20.412 40.8302 19.9849 40.8203L19.9281 40.8117ZM22.4756 40.8033C22.4162 40.7878 22.3644 40.7512 22.3299 40.7001C22.2953 40.649 22.2803 40.5869 22.2876 40.5253C22.2949 40.4637 22.3241 40.4067 22.3696 40.3649C22.4152 40.3231 22.4741 40.2992 22.5355 40.2977C22.9621 40.2895 23.3855 40.2791 23.8056 40.2667C23.8395 40.2658 23.8732 40.2718 23.9047 40.2844C23.9363 40.297 23.9649 40.3158 23.9889 40.3399C24.013 40.3639 24.032 40.3927 24.0448 40.4243C24.0576 40.456 24.0639 40.49 24.0633 40.5243C24.064 40.5586 24.0579 40.5928 24.0452 40.6248C24.0326 40.6568 24.0137 40.686 23.9898 40.7105C23.9658 40.7351 23.9372 40.7546 23.9057 40.7678C23.8742 40.781 23.8404 40.7878 23.8064 40.7876C23.3833 40.7993 22.9585 40.8106 22.531 40.8173C22.5121 40.8146 22.4935 40.8099 22.4756 40.8033ZM25.0203 40.7307C24.9669 40.7172 24.9194 40.6864 24.8851 40.643C24.8508 40.5996 24.8316 40.546 24.8304 40.4904C24.8288 40.4224 24.8537 40.3564 24.8998 40.3066C24.9458 40.2569 25.0094 40.2273 25.0766 40.2243L26.3482 40.1801C26.4149 40.1788 26.4793 40.204 26.5276 40.2502C26.5758 40.2965 26.604 40.3602 26.6061 40.4275C26.6082 40.4948 26.5841 40.5604 26.5388 40.6102C26.4936 40.6599 26.4308 40.6898 26.3642 40.6934L25.0922 40.7394C25.0701 40.7418 25.0477 40.742 25.0256 40.7397L25.0203 40.7307ZM3.92674 35.2481C3.87348 35.2343 3.82619 35.2034 3.79195 35.1601C3.75771 35.1167 3.73839 35.0633 3.73686 35.0077C3.7299 34.833 3.71945 34.642 3.7086 34.4452C3.69533 34.2055 3.68068 33.9712 3.67282 33.7252C3.67118 33.6911 3.67627 33.657 3.68781 33.6249C3.69934 33.5928 3.71707 33.5633 3.73998 33.5381C3.76289 33.513 3.79052 33.4926 3.82124 33.4783C3.85196 33.464 3.88515 33.4559 3.91891 33.4547C3.95267 33.4534 3.98632 33.459 4.01787 33.471C4.04941 33.483 4.07824 33.5013 4.10267 33.5247C4.12709 33.5481 4.14663 33.5763 4.16014 33.6074C4.17365 33.6386 4.18085 33.6722 4.18134 33.7063C4.19058 33.9469 4.20257 34.1767 4.21552 34.3952C4.22847 34.6137 4.23932 34.8106 4.24765 34.9798C4.24977 35.0479 4.22503 35.1142 4.17886 35.1641C4.13268 35.214 4.06886 35.2434 4.00143 35.2459C3.97677 35.2505 3.95157 35.2512 3.92674 35.2481ZM27.5659 40.6469C27.5063 40.6318 27.4542 40.5954 27.4193 40.5444C27.3844 40.4933 27.369 40.4312 27.3761 40.3694C27.3832 40.3076 27.4123 40.2504 27.4579 40.2084C27.5035 40.1664 27.5625 40.1424 27.6241 40.1409L28.8973 40.1049C28.9307 40.104 28.964 40.1098 28.9951 40.1219C29.0262 40.1341 29.0547 40.1523 29.0788 40.1755C29.1029 40.1988 29.1222 40.2266 29.1356 40.2574C29.149 40.2883 29.1563 40.3215 29.1569 40.3552C29.1576 40.389 29.1517 40.4225 29.1395 40.454C29.1273 40.4855 29.1092 40.5143 29.086 40.5388C29.0629 40.5632 29.0352 40.5829 29.0046 40.5966C28.9739 40.6103 28.941 40.6177 28.9076 40.6186L27.6361 40.6551C27.6143 40.6552 27.5926 40.6529 27.5713 40.6482L27.5659 40.6469ZM30.1111 40.5725C30.0512 40.5579 29.9987 40.5217 29.9634 40.4707C29.9281 40.4198 29.9125 40.3575 29.9194 40.2955C29.9263 40.2335 29.9552 40.1761 30.0009 40.1339C30.0465 40.0917 30.1057 40.0676 30.1675 40.0661L31.4412 40.0283C31.5087 40.0263 31.5741 40.0515 31.623 40.0983C31.6719 40.1452 31.7003 40.2098 31.7019 40.278C31.7035 40.3461 31.6781 40.4123 31.6315 40.4619C31.5849 40.5115 31.5207 40.5405 31.4532 40.5424L30.1813 40.5807C30.1594 40.5816 30.1376 40.5793 30.1165 40.5739L30.1111 40.5725ZM32.6563 40.4982C32.5963 40.4835 32.5438 40.4474 32.5086 40.3964C32.4733 40.3454 32.4576 40.2831 32.4645 40.2212C32.4714 40.1592 32.5004 40.1017 32.5461 40.0595C32.5917 40.0173 32.6509 39.9932 32.7126 39.9918L33.9868 39.9598C34.0209 39.9578 34.055 39.9629 34.087 39.9745C34.1191 39.9862 34.1485 40.0042 34.1735 40.0277C34.1984 40.0511 34.2184 40.0793 34.2323 40.1108C34.2461 40.1422 34.2536 40.1762 34.2541 40.2106C34.2547 40.2451 34.2484 40.2794 34.2356 40.3114C34.2228 40.3434 34.2037 40.3726 34.1795 40.397C34.1554 40.4215 34.1266 40.4409 34.0949 40.4539C34.0633 40.467 34.0293 40.4735 33.9952 40.4731L32.7246 40.5059C32.7035 40.506 32.6824 40.5039 32.6616 40.4996L32.6563 40.4982ZM3.87025 32.6781C3.81946 32.6649 3.774 32.6362 3.74002 32.5959C3.70604 32.5557 3.68517 32.5058 3.68026 32.4531C3.64216 32.0179 3.62622 31.5809 3.63249 31.1439C3.63315 31.0758 3.6606 31.0106 3.70878 30.9626C3.75696 30.9147 3.82193 30.8879 3.8894 30.8882C3.95688 30.8885 4.02133 30.9159 4.06857 30.9643C4.11582 31.0127 4.142 31.0781 4.14134 31.1463C4.13589 31.566 4.15178 31.9856 4.18897 32.4035C4.19223 32.437 4.1889 32.4709 4.17914 32.5031C4.16938 32.5354 4.15338 32.5654 4.1321 32.5914C4.11082 32.6174 4.08466 32.639 4.05513 32.6548C4.02561 32.6706 3.99331 32.6804 3.96009 32.6836C3.93004 32.6875 3.89956 32.6856 3.87025 32.6781ZM35.2062 40.4424C35.1455 40.4279 35.0922 40.3914 35.0566 40.3397C35.021 40.288 35.0056 40.2247 35.0133 40.1621C35.021 40.0994 35.0512 40.0417 35.0983 39.9999C35.1453 39.9581 35.2059 39.9352 35.2684 39.9355C35.6937 39.9301 36.1189 39.9247 36.5433 39.9229C36.5768 39.9228 36.6099 39.9294 36.6408 39.9423C36.6717 39.9551 36.6997 39.974 36.7233 39.9978C36.7469 40.0217 36.7656 40.05 36.7783 40.0812C36.7911 40.1124 36.7976 40.1458 36.7975 40.1796C36.7974 40.2134 36.7907 40.2469 36.7778 40.2781C36.7649 40.3094 36.746 40.3378 36.7223 40.3617C36.6986 40.3857 36.6704 40.4047 36.6395 40.4177C36.6085 40.4307 36.5754 40.4375 36.5419 40.4375C36.1198 40.438 35.6963 40.4438 35.2728 40.4497C35.2504 40.45 35.228 40.4475 35.2062 40.4424ZM37.7523 40.4317C37.6933 40.4149 37.6422 40.3773 37.6085 40.3256C37.5748 40.2739 37.5607 40.2116 37.5687 40.1501C37.5767 40.0885 37.6063 40.0318 37.6522 39.9903C37.6981 39.9488 37.7571 39.9252 37.8186 39.9239L38.2978 39.9303L39.0955 39.9407C39.1613 39.9445 39.2229 39.974 39.2673 40.023C39.3118 40.0719 39.3356 40.1365 39.3337 40.203C39.3318 40.2696 39.3045 40.3329 39.2573 40.3797C39.2102 40.4265 39.1471 40.4531 39.0811 40.4539L38.287 40.4445L37.8109 40.4408C37.791 40.44 37.7713 40.4376 37.7519 40.4335L37.7523 40.4317ZM40.2935 40.5004C40.2307 40.4864 40.1756 40.4488 40.1394 40.3952C40.1031 40.3416 40.0885 40.2761 40.0983 40.2118C40.1081 40.1475 40.1417 40.0892 40.1923 40.0487C40.2429 40.0082 40.3067 39.9885 40.3709 39.9936C40.8308 40.0162 41.2496 40.0437 41.6496 40.078C41.7138 40.0874 41.7719 40.1213 41.812 40.1726C41.8521 40.224 41.8711 40.2889 41.8653 40.3542C41.8594 40.4195 41.829 40.4802 41.7803 40.5239C41.7317 40.5675 41.6684 40.5908 41.6035 40.589C41.2107 40.5565 40.7995 40.529 40.3449 40.5077L40.2935 40.5004ZM42.8269 40.7267C42.7648 40.7097 42.7114 40.6696 42.6777 40.6143C42.6439 40.559 42.6323 40.4927 42.6451 40.4289C42.658 40.365 42.6943 40.3084 42.7468 40.2703C42.7993 40.2323 42.8641 40.2157 42.928 40.2239L43.23 40.2699L43.5771 40.3253L44.1859 40.4204C44.219 40.4253 44.2507 40.4369 44.2793 40.4542C44.3079 40.4716 44.3328 40.4945 44.3525 40.5217C44.3723 40.5488 44.3866 40.5797 44.3945 40.6124C44.4024 40.6452 44.4039 40.6793 44.3987 40.7127C44.3936 40.7461 44.3821 40.7781 44.3647 40.8071C44.3473 40.836 44.3245 40.8613 44.2975 40.8814C44.2705 40.9015 44.2399 40.916 44.2074 40.9242C44.1749 40.9324 44.1412 40.934 44.1081 40.929L43.4939 40.8326L43.1486 40.7776L42.8542 40.7317L42.8269 40.7267ZM45.3449 41.0816C45.2837 41.065 45.2311 41.0259 45.1972 40.972C45.1633 40.9181 45.1506 40.8533 45.1617 40.7902C45.1727 40.7272 45.2066 40.6704 45.2568 40.631C45.3069 40.5917 45.3698 40.5726 45.4329 40.5775C45.8469 40.6175 46.2627 40.6365 46.6788 40.6344C46.7123 40.6342 46.7455 40.6407 46.7764 40.6534C46.8074 40.6662 46.8355 40.685 46.8592 40.7088C46.8829 40.7325 46.9017 40.7608 46.9146 40.792C46.9274 40.8231 46.9341 40.8566 46.9341 40.8904C46.9341 40.9242 46.9275 40.9578 46.9147 40.9891C46.9019 41.0204 46.8832 41.0489 46.8595 41.073C46.8358 41.097 46.8077 41.1162 46.7768 41.1293C46.7458 41.1424 46.7127 41.1493 46.6792 41.1495C46.266 41.1522 45.844 41.1296 45.3846 41.0898L45.3449 41.0816ZM3.88076 30.1212C3.82279 30.1066 3.7719 30.0717 3.73703 30.0228C3.70217 29.9739 3.68558 29.914 3.69015 29.8538C3.71435 29.5563 3.74023 29.2747 3.76644 29.0142L3.77698 28.9727C3.79038 28.8301 3.80329 28.6969 3.81344 28.5746C3.81522 28.5402 3.82381 28.5065 3.83872 28.4755C3.85363 28.4445 3.87456 28.4168 3.90025 28.394C3.92593 28.3712 3.95585 28.3539 3.98824 28.343C4.02063 28.3321 4.05483 28.3279 4.0888 28.3306C4.12277 28.3333 4.15582 28.3428 4.18599 28.3587C4.21615 28.3746 4.24281 28.3964 4.2644 28.4229C4.28599 28.4495 4.30206 28.4801 4.31166 28.5131C4.32125 28.5461 4.32417 28.5807 4.32024 28.6149C4.30964 28.739 4.29808 28.8744 4.28422 29.0189L4.27322 29.0622C4.24793 29.319 4.22116 29.5966 4.19787 29.8905C4.19534 29.9241 4.18626 29.957 4.17115 29.9872C4.15603 30.0174 4.13518 30.0443 4.10979 30.0664C4.08441 30.0886 4.05497 30.1054 4.02318 30.1161C3.99139 30.1267 3.95787 30.1309 3.92453 30.1285L3.88076 30.1212ZM47.8848 41.0578C47.828 41.0427 47.7782 41.0082 47.744 40.9601C47.7097 40.9119 47.6931 40.8532 47.6969 40.794C47.7008 40.7347 47.7248 40.6785 47.765 40.6349C47.8052 40.5913 47.8591 40.5631 47.9174 40.555L48.0615 40.5339C48.2338 40.5108 48.4041 40.4737 48.5706 40.423C48.6114 40.4122 48.6481 40.4023 48.6835 40.3902L48.7373 40.3731L48.7677 40.3654C48.8854 40.3427 49.0018 40.314 49.1166 40.2791C49.1492 40.2668 49.184 40.2613 49.2187 40.263C49.2534 40.2647 49.2874 40.2736 49.3186 40.2891C49.3497 40.3046 49.3773 40.3264 49.3997 40.3532C49.4221 40.38 49.4388 40.4111 49.4487 40.4447C49.4587 40.4783 49.4617 40.5137 49.4576 40.5486C49.4535 40.5835 49.4424 40.6172 49.4249 40.6476C49.4074 40.6781 49.3839 40.7046 49.3559 40.7256C49.3278 40.7465 49.2959 40.7615 49.262 40.7696C49.1361 40.8087 49.0062 40.841 48.8768 40.8639L48.8294 40.8788L48.7084 40.9134C48.5192 40.97 48.3262 41.0122 48.1308 41.0396L47.9809 41.0611C47.9484 41.0637 47.9157 41.0606 47.8844 41.052L47.8848 41.0578ZM50.2551 40.1897C50.2087 40.1779 50.1666 40.1532 50.1337 40.1183C50.1007 40.0834 50.0782 40.0397 50.0688 39.9924C50.0594 39.945 50.0634 39.8959 50.0804 39.8506C50.0974 39.8053 50.1267 39.7657 50.1649 39.7364C50.4533 39.5149 50.7042 39.2476 50.9076 38.9449L50.9631 38.861C50.9804 38.831 51.0034 38.8047 51.0309 38.7839C51.0584 38.763 51.0898 38.7479 51.1231 38.7396C51.1565 38.7312 51.1911 38.7298 51.225 38.7353C51.2588 38.7408 51.2912 38.7532 51.3201 38.7717C51.349 38.7902 51.3739 38.8144 51.3933 38.8429C51.4126 38.8714 51.426 38.9037 51.4327 38.9376C51.4394 38.9715 51.4392 39.0065 51.4321 39.0405C51.425 39.0744 51.4113 39.1066 51.3916 39.1351C51.3717 39.1685 51.35 39.2014 51.3284 39.2343C51.0931 39.5822 50.8039 39.8897 50.4718 40.1448C50.4411 40.1672 50.4057 40.1824 50.3685 40.1893C50.3312 40.1961 50.2929 40.1944 50.2565 40.1843L50.2551 40.1897ZM4.1024 27.5488C4.04401 27.5344 3.99276 27.4993 3.9579 27.4499C3.92303 27.4005 3.90684 27.3401 3.91225 27.2796C3.95464 26.7907 3.99787 26.3809 4.04948 25.9905C4.05808 25.9228 4.09292 25.8613 4.14634 25.8193C4.19977 25.7774 4.2674 25.7585 4.33435 25.7669C4.4013 25.7752 4.4621 25.8101 4.50335 25.8638C4.54461 25.9175 4.56296 25.9857 4.55436 26.0533C4.50637 26.437 4.46272 26.841 4.42218 27.3226C4.41932 27.3563 4.40988 27.3892 4.39442 27.4193C4.37897 27.4494 4.35778 27.4761 4.33209 27.498C4.3064 27.5199 4.27671 27.5364 4.24473 27.5467C4.21274 27.557 4.1791 27.5608 4.14572 27.5579L4.1024 27.5488ZM51.6 38.0524C51.5361 38.0362 51.4811 37.9956 51.4465 37.9391C51.4119 37.8827 51.4004 37.8148 51.4145 37.7497C51.4619 37.5244 51.4864 37.295 51.4876 37.065C51.4895 37.0533 51.4924 37.0418 51.4963 37.0307C51.521 36.8659 51.5387 36.6917 51.5496 36.5138C51.551 36.4797 51.5592 36.4461 51.5735 36.4152C51.5879 36.3842 51.6083 36.3563 51.6334 36.3333C51.6586 36.3103 51.688 36.2926 51.7199 36.2811C51.7519 36.2697 51.7857 36.2648 51.8195 36.2667C51.8533 36.2687 51.8863 36.2774 51.9166 36.2924C51.947 36.3074 51.974 36.3283 51.9962 36.354C52.0183 36.3798 52.0351 36.4097 52.0456 36.4421C52.0561 36.4745 52.0602 36.5088 52.0574 36.5429C52.0455 36.732 52.0269 36.9098 52.0035 37.0845C52.0006 37.344 51.9725 37.6026 51.9195 37.8568C51.9051 37.9237 51.8651 37.9822 51.8083 38.0196C51.7514 38.057 51.6823 38.0703 51.616 38.0564L51.6 38.0524ZM4.4361 25.0068C4.37335 24.9905 4.31917 24.9508 4.28449 24.8956C4.24982 24.8405 4.23722 24.774 4.24925 24.7095C4.30605 24.4184 4.37041 24.135 4.4387 23.8661C4.47537 23.7216 4.51158 23.579 4.54825 23.4346C4.56716 23.3691 4.61104 23.3137 4.67024 23.2806C4.72944 23.2475 4.79911 23.2395 4.86392 23.2582C4.92873 23.277 4.98338 23.321 5.01584 23.3806C5.0483 23.4402 5.0559 23.5105 5.037 23.576C5.0017 23.715 4.96687 23.8522 4.93158 23.9912C4.86557 24.2511 4.79682 24.5219 4.74945 24.8058C4.73612 24.8727 4.69724 24.9316 4.64125 24.9699C4.58526 25.0082 4.51667 25.0228 4.45038 25.0104L4.4361 25.0068ZM51.918 35.5121C51.8581 35.4969 51.8059 35.4599 51.7714 35.4083C51.7368 35.3567 51.7223 35.2939 51.7306 35.232C51.764 34.9609 51.7812 34.688 51.7822 34.415C51.7817 34.2746 51.7768 34.1369 51.7655 34.0015C51.7614 33.9671 51.7643 33.9322 51.7739 33.8989C51.7835 33.8656 51.7997 33.8346 51.8214 33.8077C51.8432 33.7808 51.8701 33.7586 51.9005 33.7424C51.9309 33.7263 51.9643 33.7165 51.9985 33.7136C52.0327 33.7107 52.0671 33.7149 52.0996 33.7258C52.1321 33.7367 52.162 33.7542 52.1876 33.7771C52.2132 33.8001 52.2339 33.828 52.2485 33.8593C52.263 33.8906 52.2712 33.9245 52.2724 33.9592C52.2849 34.1045 52.2902 34.2558 52.2906 34.4115C52.2906 34.7066 52.2715 35.0016 52.2337 35.2944C52.2252 35.3618 52.1907 35.4232 52.1376 35.4652C52.0846 35.5071 52.0174 35.5263 51.9506 35.5185L51.918 35.5121ZM4.46727 22.5032C4.41753 22.4901 4.37291 22.4622 4.33913 22.4231C4.30535 22.3841 4.28396 22.3356 4.27772 22.2841C4.24001 21.9472 4.24032 21.6069 4.27865 21.2697C4.29278 21.1542 4.31048 21.0395 4.33175 20.9258C4.33818 20.8926 4.35103 20.861 4.36953 20.8328C4.38804 20.8045 4.41186 20.7802 4.43964 20.7612C4.46741 20.7422 4.49857 20.7289 4.53138 20.722C4.56418 20.7152 4.59798 20.7149 4.63083 20.7212C4.66367 20.7275 4.69493 20.7403 4.72281 20.7589C4.75069 20.7774 4.77464 20.8013 4.79332 20.8293C4.812 20.8572 4.82504 20.8886 4.83167 20.9217C4.8383 20.9548 4.83839 20.9889 4.83196 21.0221C4.80675 21.1214 4.79583 21.2243 4.78491 21.3272C4.75059 21.6247 4.75022 21.9251 4.78382 22.2224C4.79149 22.2898 4.77237 22.3577 4.73064 22.4112C4.68891 22.4647 4.62796 22.4995 4.56115 22.5078C4.53162 22.5139 4.50123 22.514 4.47172 22.5082L4.46727 22.5032ZM51.865 32.9507C51.8138 32.9373 51.768 32.9081 51.7341 32.8671C51.7002 32.8261 51.6799 32.7754 51.676 32.722C51.6437 32.295 51.6159 31.8658 51.5923 31.4345C51.5891 31.4001 51.5928 31.3653 51.6032 31.3323C51.6136 31.2993 51.6305 31.2688 51.6529 31.2425C51.6752 31.2161 51.7026 31.1946 51.7333 31.1792C51.7641 31.1638 51.7976 31.1548 51.8318 31.1527C51.866 31.1507 51.9002 31.1556 51.9324 31.1672C51.9646 31.1788 51.9941 31.1969 52.0192 31.2204C52.0442 31.2438 52.0643 31.2722 52.0782 31.3037C52.0921 31.3353 52.0995 31.3693 52.1 31.4039C52.1245 31.8316 52.1521 32.2569 52.1829 32.6797C52.188 32.7475 52.1663 32.8148 52.1224 32.8667C52.0786 32.9186 52.0163 32.951 51.9491 32.9566C51.9209 32.9592 51.8925 32.9572 51.865 32.9507ZM4.96334 20.0255C4.94251 20.023 4.92211 20.0178 4.90263 20.0101C4.84318 19.9773 4.79914 19.922 4.78019 19.8563C4.76123 19.7906 4.7689 19.7199 4.80152 19.6597C5.02044 19.2597 5.30052 18.8969 5.63137 18.5848C5.65548 18.56 5.6843 18.5403 5.71609 18.527C5.74788 18.5136 5.78199 18.5069 5.81635 18.5073C5.85071 18.5076 5.88462 18.5149 5.91603 18.5289C5.94743 18.5428 5.97568 18.563 5.99907 18.5883C6.02246 18.6136 6.0405 18.6434 6.05211 18.676C6.06373 18.7086 6.06869 18.7433 6.06666 18.7779C6.06463 18.8126 6.05567 18.8465 6.04033 18.8776C6.02499 18.9087 6.00358 18.9364 5.97738 18.959C5.68607 19.2346 5.43932 19.5545 5.24622 19.9071C5.21735 19.9561 5.17321 19.9942 5.12071 20.0153C5.06821 20.0364 5.01033 20.0394 4.95619 20.0237L4.96334 20.0255ZM13.1037 20.7338L13.0644 20.7239C13.0023 20.6968 12.9534 20.6458 12.9286 20.5823C12.9038 20.5187 12.905 20.4477 12.9319 20.3847C13.0893 20.0192 13.2465 19.6325 13.4212 19.2061C13.4463 19.1433 13.4948 19.0929 13.5562 19.0657C13.6177 19.0386 13.6871 19.0369 13.7495 19.0611C13.8119 19.0852 13.8622 19.1333 13.8895 19.1949C13.9168 19.2565 13.919 19.3265 13.8954 19.3899C13.7277 19.8258 13.5674 20.2175 13.401 20.5884C13.376 20.6454 13.3313 20.6915 13.2753 20.7179C13.2193 20.7443 13.1557 20.7493 13.0965 20.732L13.1037 20.7338ZM51.7271 30.3869C51.6739 30.3731 51.6266 30.3422 51.5923 30.2989C51.5581 30.2555 51.5388 30.2021 51.5373 30.1465C51.5193 29.7231 51.5023 29.296 51.4835 28.8608C51.4802 28.826 51.484 28.7909 51.4946 28.7576C51.5052 28.7243 51.5224 28.6935 51.5451 28.667C51.5679 28.6406 51.5958 28.6191 51.627 28.6039C51.6582 28.5886 51.6922 28.58 51.7267 28.5784C51.7613 28.5768 51.7958 28.5824 51.8281 28.5948C51.8604 28.6072 51.8899 28.6261 51.9146 28.6504C51.9394 28.6747 51.9589 28.7038 51.9721 28.7361C51.9853 28.7683 51.9918 28.803 51.9912 28.8379C52.0079 29.2713 52.0261 29.6987 52.0458 30.12C52.0475 30.1601 52.0399 30.2 52.0236 30.2366C52.0073 30.2732 51.9827 30.3056 51.9519 30.331C51.9211 30.3564 51.8848 30.3742 51.846 30.383C51.8072 30.3917 51.767 30.3912 51.7285 30.3815L51.7271 30.3869ZM12.5186 19.759C12.461 19.7447 12.4105 19.7101 12.3761 19.6613C12.1423 19.3351 11.8624 19.0452 11.5453 18.8009C11.5188 18.7805 11.4965 18.7551 11.4798 18.726C11.463 18.6969 11.4521 18.6647 11.4477 18.6313C11.4433 18.5979 11.4455 18.5639 11.4541 18.5312C11.4627 18.4986 11.4776 18.468 11.4979 18.4411C11.5182 18.4142 11.5436 18.3916 11.5725 18.3745C11.6014 18.3575 11.6333 18.3463 11.6664 18.3417C11.6995 18.3371 11.7332 18.3391 11.7655 18.3476C11.7978 18.3561 11.828 18.371 11.8546 18.3914C12.2115 18.6658 12.5265 18.9918 12.7894 19.3589C12.82 19.4016 12.8368 19.4529 12.8374 19.5058C12.838 19.5587 12.8225 19.6106 12.7928 19.6543C12.7632 19.6981 12.721 19.7316 12.6719 19.7504C12.6228 19.7691 12.5693 19.7721 12.5186 19.759ZM6.79573 18.2963C6.75902 18.2872 6.72487 18.2699 6.69583 18.2455C6.66679 18.2212 6.6436 18.1905 6.62804 18.1558C6.59989 18.0941 6.59721 18.0235 6.62058 17.9595C6.64394 17.8955 6.69144 17.8434 6.75267 17.8146C7.16386 17.6211 7.60325 17.4964 8.05348 17.4455C8.12089 17.4371 8.18869 17.4561 8.24197 17.4983C8.29525 17.5404 8.32964 17.6023 8.33757 17.6703C8.34551 17.7384 8.32635 17.8069 8.28429 17.8609C8.24224 17.9149 8.18076 17.95 8.11335 17.9583C7.71793 18.0026 7.33197 18.1117 6.97067 18.2812C6.91372 18.3087 6.84866 18.3135 6.78861 18.2945L6.79573 18.2963ZM9.28748 17.9682C9.22723 17.9517 9.1752 17.9134 9.14134 17.8605C9.10748 17.8077 9.09416 17.744 9.10389 17.6816C9.11362 17.6192 9.14573 17.5625 9.19411 17.5223C9.24248 17.4821 9.30373 17.4612 9.36617 17.4636C9.81555 17.4894 10.2583 17.5824 10.68 17.7396C10.7113 17.7513 10.74 17.7692 10.7645 17.7921C10.7889 17.8151 10.8086 17.8428 10.8224 17.8735C10.8362 17.9042 10.8439 17.9374 10.845 17.9712C10.8461 18.005 10.8406 18.0387 10.8288 18.0704C10.817 18.1021 10.7992 18.1312 10.7763 18.156C10.7534 18.1807 10.7259 18.2008 10.6954 18.2149C10.6649 18.229 10.632 18.2369 10.5985 18.2382C10.565 18.2395 10.5317 18.2341 10.5003 18.2224C10.1266 18.0816 9.73368 17.9987 9.33482 17.9764L9.28748 17.9682ZM14.037 18.3383L14.012 18.3319C13.9488 18.3082 13.8977 18.2601 13.8696 18.1983C13.8415 18.1365 13.8388 18.0659 13.862 18.0018C14.0067 17.6042 14.1491 17.2004 14.292 16.7947C14.3147 16.7304 14.3617 16.6776 14.4226 16.6481C14.4836 16.6185 14.5536 16.6145 14.6172 16.6371C14.6808 16.6596 14.7328 16.7067 14.7618 16.7681C14.7908 16.8296 14.7943 16.9002 14.7717 16.9645C14.6283 17.372 14.4854 17.7777 14.3403 18.177C14.3176 18.238 14.2731 18.2883 14.2156 18.3178C14.1581 18.3474 14.0918 18.354 14.0299 18.3365L14.037 18.3383ZM51.6237 27.8222C51.5702 27.8085 51.5226 27.7776 51.488 27.7342C51.4535 27.6908 51.4338 27.6372 51.432 27.5814C51.4141 27.158 51.3953 26.7305 51.3764 26.3029C51.3732 26.2685 51.3769 26.2338 51.3873 26.2008C51.3978 26.1678 51.4146 26.1372 51.437 26.1109C51.4594 26.0846 51.4867 26.0631 51.5175 26.0476C51.5482 26.0322 51.5817 26.0232 51.6159 26.0212C51.6501 26.0191 51.6843 26.024 51.7165 26.0357C51.7487 26.0473 51.7782 26.0654 51.8033 26.0888C51.8283 26.1123 51.8484 26.1406 51.8623 26.1722C51.8762 26.2037 51.8836 26.2378 51.8841 26.2723C51.9018 26.7021 51.9197 27.1307 51.9379 27.5581C51.9407 27.6261 51.9167 27.6926 51.8711 27.743C51.8255 27.7934 51.7621 27.8235 51.6947 27.8268C51.6709 27.8285 51.647 27.827 51.6237 27.8222ZM51.492 25.2562C51.4389 25.2421 51.3918 25.2112 51.3576 25.1679C51.3234 25.1246 51.304 25.0713 51.3022 25.0158C51.2748 24.5919 51.2439 24.1671 51.2059 23.7405C51.2002 23.6725 51.2215 23.6049 51.2651 23.5526C51.3087 23.5002 51.371 23.4674 51.4383 23.4613C51.5057 23.4552 51.5725 23.4764 51.6241 23.5201C51.6758 23.5638 51.708 23.6266 51.7137 23.6945C51.7507 24.1228 51.7832 24.5513 51.8112 24.9799C51.8156 25.0477 51.7931 25.1147 51.7487 25.1661C51.7043 25.2175 51.6416 25.2492 51.5743 25.2541C51.5448 25.2597 51.5144 25.2598 51.4849 25.2544L51.492 25.2562ZM14.8953 15.916L14.8721 15.9101C14.8089 15.8873 14.7574 15.84 14.7288 15.7788C14.7002 15.7175 14.6968 15.6471 14.7194 15.5831C14.862 15.1812 15.0072 14.7767 15.1549 14.3697C15.1651 14.3362 15.1819 14.3051 15.2044 14.2784C15.2269 14.2516 15.2545 14.2298 15.2856 14.2141C15.3167 14.1985 15.3506 14.1894 15.3852 14.1875C15.4198 14.1855 15.4544 14.1908 15.4869 14.2028C15.5194 14.2149 15.5491 14.2335 15.5741 14.2576C15.5991 14.2816 15.619 14.3106 15.6324 14.3428C15.6459 14.375 15.6527 14.4096 15.6525 14.4446C15.6522 14.4796 15.6449 14.5142 15.6309 14.5463C15.4849 14.9493 15.3406 15.3527 15.1991 15.7529C15.1768 15.8144 15.1323 15.8651 15.0747 15.895C15.017 15.9249 14.9504 15.9318 14.8882 15.9142L14.8953 15.916ZM30.3097 17.5028C30.2762 17.4937 30.2449 17.4778 30.2178 17.456C30.1906 17.4342 30.1682 17.4071 30.1518 17.3763C30.1125 17.299 30.0687 17.2245 30.019 17.1504C29.9599 17.0507 29.8955 16.9542 29.8263 16.8613C29.7638 16.7781 29.6382 16.6214 29.5823 16.5572L29.5645 16.5373C29.4701 16.4284 29.3693 16.3252 29.2628 16.2282C29.2378 16.2059 29.2173 16.1789 29.2027 16.1486C29.188 16.1183 29.1794 16.0854 29.1774 16.0517C29.1754 16.018 29.1799 15.9842 29.1908 15.9522C29.2017 15.9202 29.2188 15.8906 29.2409 15.8652C29.2631 15.8398 29.29 15.819 29.3201 15.8041C29.3502 15.7891 29.3828 15.7803 29.4162 15.7781C29.4496 15.7758 29.4831 15.7803 29.5147 15.7911C29.5464 15.802 29.5755 15.819 29.6006 15.8413C29.7258 15.9528 29.8441 16.072 29.9547 16.1983L29.9738 16.2204C30.0338 16.2914 30.1726 16.463 30.2414 16.5516C30.3102 16.6402 30.3934 16.7689 30.4616 16.8823C30.5098 16.9618 30.5603 17.0476 30.6067 17.1344C30.6236 17.1646 30.6342 17.1979 30.638 17.2325C30.6419 17.267 30.6387 17.302 30.6288 17.3354C30.6189 17.3688 30.6025 17.3998 30.5805 17.4267C30.5585 17.4535 30.5313 17.4757 30.5007 17.4918C30.47 17.5067 30.4365 17.5152 30.4025 17.5168C30.3684 17.5184 30.3345 17.5131 30.3026 17.501L30.3097 17.5028ZM24.6219 15.9472C24.5593 15.9319 24.5053 15.8927 24.471 15.8378C24.4528 15.8096 24.4403 15.778 24.4343 15.7449C24.4282 15.7117 24.4287 15.6777 24.4356 15.6446C24.4426 15.6116 24.4559 15.5803 24.4749 15.5524C24.4938 15.5245 24.518 15.5006 24.5461 15.4821C24.9277 15.2341 25.3462 15.0496 25.7854 14.936C25.8178 14.9275 25.8516 14.9257 25.8847 14.9304C25.9178 14.9352 25.9497 14.9465 25.9784 14.9637C26.0071 14.9809 26.0322 15.0036 26.0521 15.0306C26.0721 15.0577 26.0866 15.0884 26.0947 15.1212C26.1029 15.1539 26.1046 15.188 26.0997 15.2214C26.0949 15.2549 26.0835 15.2871 26.0663 15.3162C26.0491 15.3453 26.0264 15.3707 25.9996 15.391C25.9727 15.4113 25.9422 15.4261 25.9097 15.4345C25.5241 15.5332 25.1568 15.6951 24.8224 15.9136C24.7927 15.9329 24.7594 15.9459 24.7246 15.9516C24.6898 15.9573 24.6542 15.9556 24.6201 15.9467L24.6219 15.9472ZM51.262 22.6959C51.2119 22.6835 51.1669 22.6558 51.133 22.6166C51.0991 22.5774 51.0779 22.5286 51.0724 22.4768C51.0589 22.3504 51.0431 22.2253 51.0278 22.0984C51.0202 22.0347 51.0366 21.9703 51.0737 21.9179C51.2251 21.6796 51.3529 21.427 51.4553 21.1636C51.4807 21.1005 51.5298 21.0501 51.5919 21.0234C51.6539 20.9966 51.7238 20.9957 51.7862 21.0209C51.8172 21.0332 51.8454 21.0517 51.8693 21.0752C51.8931 21.0987 51.9121 21.1267 51.9251 21.1577C51.938 21.1887 51.9448 21.222 51.9449 21.2558C51.9451 21.2895 51.9386 21.3229 51.9258 21.3542C51.8217 21.6194 51.6933 21.8743 51.5424 22.1157C51.5552 22.215 51.5662 22.3139 51.5763 22.4087C51.584 22.4762 51.5649 22.5441 51.5232 22.5976C51.4814 22.6511 51.4205 22.6858 51.3537 22.6942C51.3228 22.7001 51.2912 22.7005 51.2602 22.6955L51.262 22.6959ZM15.195 13.4556C15.1439 13.4429 15.0982 13.4144 15.0641 13.374C15.0301 13.3337 15.0094 13.2836 15.005 13.2306C14.9995 13.185 14.9975 13.1403 14.9938 13.0952C14.9716 12.6866 15.0034 12.2766 15.0885 11.876C15.0955 11.8429 15.1089 11.8116 15.1279 11.7837C15.1469 11.7558 15.1712 11.732 15.1992 11.7135C15.2273 11.695 15.2587 11.6823 15.2916 11.676C15.3245 11.6698 15.3582 11.6701 15.3909 11.677C15.4236 11.6839 15.4546 11.6973 15.4821 11.7163C15.5096 11.7353 15.5331 11.7597 15.5513 11.7879C15.5695 11.8162 15.5819 11.8478 15.5879 11.881C15.594 11.9142 15.5935 11.9482 15.5864 11.9813C15.5112 12.3367 15.4828 12.7003 15.5019 13.0628L15.5115 13.1824C15.5174 13.2502 15.4965 13.3177 15.4532 13.3701C15.41 13.4226 15.3479 13.4556 15.2808 13.462C15.252 13.4654 15.2229 13.4632 15.195 13.4556ZM23.9487 15.5438C23.9075 15.533 23.8697 15.5119 23.8386 15.4826C23.8076 15.4532 23.7843 15.4165 23.7709 15.3756L23.7512 15.3187C23.6256 14.9372 23.4957 14.5506 23.3662 14.1622C23.3549 14.1302 23.3501 14.0962 23.3519 14.0623C23.3538 14.0283 23.3623 13.995 23.377 13.9643C23.3916 13.9336 23.4122 13.9061 23.4375 13.8834C23.4627 13.8608 23.4921 13.8434 23.5241 13.8323C23.556 13.8211 23.5897 13.8165 23.6233 13.8187C23.6569 13.8208 23.6898 13.8297 23.7199 13.8448C23.75 13.8599 23.7769 13.8808 23.7988 13.9065C23.8208 13.9322 23.8375 13.9621 23.8479 13.9944L24.2347 15.1514L24.2535 15.2119C24.2642 15.2438 24.2684 15.2776 24.2661 15.3113C24.2638 15.345 24.2549 15.378 24.24 15.4083C24.225 15.4386 24.2044 15.4656 24.1791 15.4879C24.1538 15.5102 24.1245 15.5272 24.0928 15.5381C24.0454 15.5514 23.9955 15.5513 23.9483 15.5379L23.9487 15.5438ZM30.9216 16.9722C30.898 16.9661 30.8754 16.9565 30.8547 16.9437C30.826 16.9267 30.8009 16.9041 30.7809 16.8772C30.7609 16.8503 30.7465 16.8197 30.7383 16.7871C30.7302 16.7545 30.7285 16.7205 30.7334 16.6871C30.7383 16.6538 30.7498 16.6218 30.767 16.5928C31.0006 16.1967 31.2215 15.8358 31.4423 15.4903C31.4788 15.4328 31.5364 15.3922 31.6024 15.3774C31.6683 15.3626 31.7373 15.3749 31.794 15.4115C31.8508 15.448 31.8907 15.506 31.905 15.5725C31.9193 15.639 31.9068 15.7087 31.8703 15.7661C31.6522 16.1085 31.4345 16.4645 31.2027 16.8533C31.1741 16.9 31.1315 16.9362 31.0812 16.9566C31.0308 16.977 30.9753 16.9806 30.923 16.9668L30.9216 16.9722ZM27.0471 15.312C26.9871 15.2952 26.9354 15.2566 26.9019 15.2037C26.8684 15.1508 26.8553 15.0872 26.8653 15.025C26.8752 14.9627 26.9074 14.9063 26.9558 14.8662C27.0041 14.8262 27.0653 14.8055 27.1276 14.8079C27.5788 14.8371 28.0219 14.9399 28.4399 15.1123C28.5024 15.1381 28.552 15.188 28.5779 15.2509C28.6038 15.3139 28.6038 15.3848 28.5779 15.4481C28.5521 15.5113 28.5024 15.5617 28.4399 15.5882C28.3774 15.6146 28.3071 15.615 28.2446 15.5892C27.8772 15.4374 27.4876 15.3462 27.0909 15.3193C27.076 15.3187 27.0613 15.3162 27.0471 15.312ZM51.9321 20.2662C51.8739 20.2514 51.8229 20.2163 51.7881 20.167C51.7533 20.1177 51.737 20.0575 51.742 19.997C51.7761 19.5954 51.7506 19.1912 51.6663 18.7979C51.6563 18.7333 51.6711 18.6672 51.7077 18.6131C51.7443 18.5589 51.7999 18.5208 51.8632 18.5064C51.9265 18.4921 51.9927 18.5027 52.0483 18.536C52.1039 18.5693 52.1447 18.6228 52.1624 18.6856C52.2604 19.1289 52.2908 19.585 52.2524 20.0382C52.2498 20.0719 52.2406 20.1047 52.2254 20.1349C52.2101 20.165 52.1891 20.1919 52.1636 20.2138C52.138 20.2357 52.1084 20.2523 52.0765 20.2627C52.0446 20.273 52.011 20.2768 51.9777 20.274C51.962 20.2754 51.9462 20.2746 51.9308 20.2716L51.9321 20.2662ZM23.6168 13.0479C23.5629 13.0345 23.5148 13.0037 23.4799 12.9602C23.445 12.9166 23.4252 12.8628 23.4233 12.8067C23.4263 12.6153 23.4183 12.4595 23.411 12.3462C23.3999 12.0928 23.3645 11.8412 23.3052 11.5949C23.2973 11.5621 23.2959 11.528 23.301 11.4946C23.3062 11.4612 23.3178 11.4291 23.3352 11.4002C23.3526 11.3712 23.3755 11.346 23.4025 11.3259C23.4295 11.3058 23.4602 11.2913 23.4927 11.2832C23.5252 11.275 23.559 11.2734 23.5921 11.2785C23.6251 11.2835 23.6569 11.295 23.6854 11.3125C23.714 11.3299 23.7389 11.3529 23.7586 11.38C23.7784 11.4072 23.7926 11.4381 23.8005 11.4709C23.8665 11.7487 23.9065 12.0323 23.92 12.3179C23.9255 12.4384 23.9343 12.6059 23.9322 12.809C23.9322 12.8427 23.9255 12.8761 23.9126 12.9073C23.8998 12.9384 23.881 12.9667 23.8572 12.9905C23.8335 13.0143 23.8054 13.0332 23.7744 13.046C23.7435 13.0588 23.7104 13.0653 23.6771 13.0652C23.6561 13.0641 23.6353 13.0601 23.6154 13.0534L23.6168 13.0479ZM15.7122 10.9621L15.6604 10.949C15.6304 10.9341 15.6037 10.9133 15.5818 10.888C15.5599 10.8626 15.5431 10.8331 15.5325 10.8011C15.5219 10.7692 15.5177 10.7354 15.52 10.7017C15.5224 10.668 15.5313 10.6351 15.5462 10.6048C15.7464 10.1951 16.0081 9.81886 16.3218 9.48935C16.3689 9.44013 16.4332 9.41169 16.5008 9.41029C16.5683 9.40888 16.6335 9.43462 16.682 9.48185C16.7306 9.52907 16.7584 9.59392 16.7594 9.66211C16.7605 9.7303 16.7346 9.79626 16.6876 9.84547C16.4109 10.1344 16.1802 10.4648 16.0037 10.8247C15.9785 10.8789 15.9356 10.9228 15.8822 10.9488C15.8288 10.9748 15.7683 10.9814 15.7108 10.9675L15.7122 10.9621ZM32.3114 14.7925C32.2807 14.785 32.2518 14.7711 32.2267 14.7517C32.1994 14.7325 32.1762 14.7079 32.1584 14.6795C32.1406 14.651 32.1286 14.6193 32.1231 14.5861C32.1176 14.5529 32.1186 14.5189 32.1262 14.486C32.1338 14.4531 32.1477 14.4221 32.1672 14.3946C32.4208 14.0324 32.681 13.6815 32.941 13.3536C32.9831 13.3001 33.0444 13.2655 33.1115 13.2575C33.1786 13.2495 33.2459 13.2687 33.2987 13.3109C33.3516 13.3531 33.3855 13.4148 33.3931 13.4825C33.4007 13.5502 33.3813 13.6183 33.3392 13.6718C33.085 13.9916 32.8303 14.3362 32.5826 14.6903C32.5539 14.7355 32.5122 14.7708 32.4631 14.7913C32.4141 14.8119 32.36 14.8167 32.3082 14.8051L32.3114 14.7925ZM44.0051 17.6847C43.9797 17.6782 43.9554 17.6682 43.9328 17.6548C43.8756 17.6187 43.835 17.5611 43.8198 17.4946C43.8046 17.4281 43.8162 17.3581 43.8519 17.2999C44.074 16.9377 44.3456 16.6088 44.6588 16.3231L44.7231 16.2644C44.7482 16.2421 44.7775 16.2249 44.8091 16.2139C44.8408 16.2029 44.8743 16.1983 44.9077 16.2003C44.941 16.2024 44.9736 16.211 45.0036 16.2258C45.0336 16.2406 45.0604 16.2612 45.0825 16.2865C45.1045 16.3118 45.1213 16.3412 45.1321 16.3731C45.1428 16.4051 45.1472 16.4388 45.145 16.4725C45.1428 16.5062 45.1341 16.5392 45.1192 16.5696C45.1044 16.5999 45.0839 16.627 45.0587 16.6494L44.9994 16.7035C44.7223 16.957 44.4819 17.2485 44.2853 17.5695C44.2579 17.6186 44.2155 17.6575 44.1645 17.6802C44.1134 17.703 44.0565 17.7084 44.0023 17.6955L44.0051 17.6847ZM43.5765 17.2242C43.5334 17.2131 43.494 17.1908 43.4623 17.1595C43.4305 17.1281 43.4075 17.0889 43.3956 17.0457C43.2801 16.6321 43.1628 16.218 43.0419 15.8184C43.0314 15.7859 43.0275 15.7517 43.0304 15.7176C43.0332 15.6835 43.0428 15.6504 43.0584 15.62C43.0741 15.5896 43.0956 15.5627 43.1217 15.5408C43.1478 15.5189 43.1779 15.5024 43.2103 15.4924C43.2427 15.4823 43.2767 15.4789 43.3104 15.4822C43.344 15.4856 43.3767 15.4958 43.4063 15.512C43.436 15.5283 43.4621 15.5504 43.4832 15.5771C43.5042 15.6037 43.5198 15.6344 43.5289 15.6672C43.6497 16.0822 43.767 16.4963 43.8842 16.9104C43.902 16.9758 43.8934 17.0459 43.8602 17.1051C43.8269 17.1644 43.7718 17.2081 43.707 17.2266C43.6642 17.2427 43.6178 17.2463 43.5732 17.2369L43.5765 17.2242ZM23.0101 10.5861C22.9768 10.5786 22.9454 10.5643 22.9179 10.5441C22.8903 10.5239 22.8672 10.4982 22.8498 10.4686C22.6431 10.1251 22.3859 9.81555 22.0869 9.55041C22.0618 9.52837 22.0414 9.50153 22.0267 9.47141C22.0119 9.44129 22.0033 9.40849 22.0012 9.37492C21.9991 9.34135 22.0037 9.30765 22.0145 9.27578C22.0254 9.24392 22.0424 9.2145 22.0646 9.18924C22.1089 9.13792 22.1716 9.10635 22.2388 9.10143C22.3059 9.09652 22.3721 9.11866 22.4229 9.16301C22.7618 9.4622 23.053 9.81222 23.2866 10.2009C23.3204 10.2594 23.3299 10.3291 23.3132 10.395C23.2965 10.4609 23.2548 10.5176 23.1972 10.5529C23.17 10.5729 23.1392 10.5873 23.1065 10.5951C23.0739 10.603 23.04 10.6042 23.0069 10.5987L23.0101 10.5861ZM51.4037 17.7955C51.3704 17.7873 51.339 17.7724 51.3116 17.7515C51.2842 17.7307 51.2613 17.7044 51.2444 17.6743C51.1436 17.4928 51.0286 17.3197 50.9006 17.1566C50.7815 17.0033 50.6518 16.8586 50.5125 16.7237C50.4665 16.6761 50.4406 16.6123 50.4405 16.5456C50.4403 16.4789 50.4659 16.4146 50.5117 16.3664C50.5575 16.3181 50.62 16.2897 50.6861 16.287C50.7521 16.2843 50.8164 16.3077 50.8654 16.3521C51.0219 16.5057 51.1668 16.6709 51.2987 16.8465C51.442 17.0303 51.5711 17.225 51.685 17.4288C51.7193 17.4872 51.7291 17.5571 51.7124 17.6231C51.6956 17.6891 51.6536 17.7458 51.5957 17.7808C51.5649 17.798 51.5311 17.8088 51.4962 17.8125C51.4613 17.8161 51.426 17.8127 51.3925 17.8022L51.4037 17.7955ZM17.4594 9.12677C17.4258 9.11857 17.3944 9.1034 17.367 9.08223C17.3397 9.06106 17.317 9.03436 17.3005 9.0038C17.2819 8.97447 17.2696 8.94156 17.2641 8.90713C17.2587 8.8727 17.2603 8.83747 17.2689 8.80363C17.2775 8.76978 17.2929 8.73804 17.3141 8.71037C17.3353 8.6827 17.3619 8.6597 17.3922 8.64277C17.7865 8.41828 18.2123 8.25615 18.6548 8.16207C18.6878 8.15434 18.7219 8.15333 18.7552 8.1591C18.7886 8.16487 18.8204 8.17731 18.8488 8.19568C18.8773 8.21404 18.9018 8.23797 18.9209 8.26606C18.94 8.29415 18.9534 8.32584 18.9602 8.35927C18.967 8.3927 18.9671 8.42721 18.9606 8.46076C18.954 8.49431 18.9409 8.52623 18.922 8.55466C18.9031 8.5831 18.8788 8.60747 18.8505 8.62635C18.8222 8.64523 18.7904 8.65823 18.7572 8.66461C18.3666 8.74774 17.9908 8.89153 17.6434 9.09086C17.6152 9.11068 17.5834 9.12466 17.5499 9.13198C17.5164 9.13931 17.4818 9.13984 17.4481 9.13353L17.4594 9.12677ZM45.9006 16.0139C45.8495 16.0009 45.8037 15.9722 45.7695 15.9317C45.7354 15.8912 45.7147 15.8409 45.7102 15.7879C45.7057 15.7348 45.7177 15.6815 45.7445 15.6354C45.7713 15.5894 45.8116 15.5528 45.8598 15.5308C46.2685 15.3395 46.7029 15.2108 47.1486 15.149C47.1836 15.14 47.22 15.1385 47.2555 15.1448C47.291 15.151 47.3247 15.1648 47.3544 15.1852C47.3841 15.2057 47.4092 15.2323 47.4279 15.2633C47.4466 15.2943 47.4586 15.329 47.463 15.3651C47.4674 15.4012 47.4642 15.4379 47.4535 15.4727C47.4428 15.5075 47.4249 15.5397 47.401 15.567C47.3771 15.5944 47.3478 15.6164 47.3149 15.6315C47.282 15.6466 47.2464 15.6545 47.2103 15.6546C46.8137 15.7109 46.4271 15.8257 46.063 15.9955C46.0099 16.0247 45.9483 16.0336 45.8894 16.0206L45.9006 16.0139ZM33.9104 12.7773C33.8705 12.7673 33.8338 12.7474 33.8034 12.7194C33.754 12.6738 33.7243 12.6103 33.7209 12.5425C33.7175 12.4748 33.7406 12.4083 33.7851 12.3573C33.9684 12.1521 34.1561 11.9519 34.3455 11.7598C34.3524 11.6578 34.3651 11.5554 34.3814 11.4538C34.3917 11.3864 34.4282 11.3257 34.4827 11.2851C34.5372 11.2445 34.6053 11.2274 34.6721 11.2374C34.7388 11.2475 34.7987 11.284 34.8387 11.3388C34.8786 11.3936 34.8952 11.4623 34.8849 11.5298C34.8658 11.6498 34.853 11.7676 34.8455 11.8868C34.8424 11.9519 34.8152 12.0135 34.7694 12.0596C34.5642 12.2688 34.3589 12.4857 34.1599 12.7081C34.1286 12.746 34.0872 12.774 34.0406 12.7888C33.994 12.8036 33.9443 12.8044 33.8974 12.7913L33.9104 12.7773ZM42.857 14.7645C42.8152 14.754 42.7767 14.7329 42.7454 14.703C42.714 14.6732 42.6908 14.6357 42.6779 14.5941L42.5293 14.124C42.5097 14.0618 42.5146 13.9943 42.543 13.9354C42.6502 13.7094 42.7367 13.4741 42.8013 13.2323C42.8096 13.1993 42.8245 13.1683 42.845 13.1412C42.8655 13.114 42.8911 13.0913 42.9205 13.0743C42.9498 13.0574 42.9822 13.0466 43.0157 13.0425C43.0492 13.0385 43.0831 13.0413 43.1154 13.0508C43.1476 13.0597 43.1777 13.0749 43.204 13.0956C43.2303 13.1163 43.2522 13.1421 43.2686 13.1714C43.285 13.2007 43.2955 13.233 43.2995 13.2665C43.3035 13.3 43.3009 13.334 43.2919 13.3665C43.2277 13.6021 43.1456 13.8325 43.0466 14.0556L43.1641 14.4313C43.1744 14.4633 43.1783 14.4972 43.1755 14.5309C43.1727 14.5645 43.1634 14.5974 43.148 14.6274C43.1326 14.6575 43.1114 14.6842 43.0857 14.7059C43.0601 14.7277 43.0304 14.7442 42.9984 14.7543C42.9509 14.7794 42.8966 14.7879 42.844 14.7785L42.857 14.7645ZM21.1393 8.92549L21.0982 8.91506L20.997 8.87205C20.6613 8.73588 20.3087 8.64635 19.9487 8.6059C19.9145 8.6037 19.8812 8.59456 19.8506 8.57899C19.8201 8.56343 19.793 8.54177 19.771 8.51534C19.749 8.4889 19.7325 8.45822 19.7226 8.42515C19.7127 8.39207 19.7095 8.35728 19.7133 8.32286C19.717 8.28843 19.7276 8.25509 19.7444 8.22484C19.7612 8.19458 19.7839 8.16804 19.8111 8.14679C19.8382 8.12555 19.8693 8.11005 19.9025 8.10122C19.9357 8.09239 19.9703 8.09041 20.0042 8.09541C20.411 8.14007 20.8094 8.24122 21.1882 8.39602L21.3032 8.44445C21.3612 8.47038 21.4073 8.51731 21.4326 8.57601C21.4579 8.63471 21.4604 8.70093 21.4397 8.76168C21.4191 8.82242 21.3767 8.87329 21.3209 8.90427C21.2651 8.93525 21.2 8.9441 21.1384 8.9291L21.1393 8.92549ZM49.5952 16.0469C49.5775 16.0444 49.5601 16.04 49.5434 16.0337C49.1855 15.8552 48.8031 15.7315 48.4086 15.6668C48.342 15.656 48.2825 15.619 48.2432 15.5638C48.204 15.5086 48.1881 15.4397 48.1991 15.3725C48.2102 15.3052 48.2472 15.245 48.3021 15.205C48.3569 15.1651 48.4252 15.1487 48.4918 15.1595C48.9363 15.2325 49.3673 15.3717 49.7707 15.5726C49.8271 15.6006 49.8711 15.6486 49.8943 15.7076C49.9175 15.7666 49.9181 15.8322 49.8961 15.8919C49.8741 15.9516 49.831 16.001 49.7752 16.0306C49.7194 16.0602 49.6547 16.068 49.5938 16.0523L49.5952 16.0469ZM34.9444 10.5168L34.8979 10.505C34.8676 10.4909 34.8403 10.4708 34.8178 10.4459C34.7953 10.421 34.7779 10.3918 34.7667 10.3599C34.7555 10.3281 34.7507 10.2943 34.7525 10.2606C34.7544 10.2268 34.7629 10.1937 34.7776 10.1632C34.971 9.75211 35.2239 9.37205 35.5277 9.03547C35.5496 9.00838 35.5768 8.98607 35.6076 8.96989C35.6383 8.95372 35.6719 8.94403 35.7064 8.9414C35.7409 8.93877 35.7755 8.94326 35.8082 8.95461C35.8408 8.96595 35.8708 8.9839 35.8963 9.00737C35.9218 9.03084 35.9422 9.05934 35.9564 9.09111C35.9705 9.12289 35.9781 9.15728 35.9787 9.19218C35.9792 9.22708 35.9727 9.26177 35.9595 9.29412C35.9463 9.32647 35.9268 9.3558 35.9021 9.38032C35.6326 9.67995 35.4083 10.018 35.2367 10.3835C35.212 10.4412 35.1673 10.4879 35.1112 10.515C35.055 10.5421 34.9911 10.5477 34.9313 10.5308L34.9444 10.5168ZM43.1372 12.2838C43.0836 12.2701 43.0361 12.2392 43.0015 12.1958C42.967 12.1524 42.9473 12.0988 42.9455 12.043C42.9352 11.6681 42.872 11.2968 42.7578 10.9404L42.7315 10.8646C42.7101 10.8008 42.7146 10.731 42.7438 10.6702C42.773 10.6094 42.8246 10.5625 42.8875 10.5397C42.9505 10.5168 43.0197 10.5198 43.0802 10.548C43.1407 10.5762 43.1877 10.6273 43.211 10.6904L43.2404 10.7766C43.3705 11.1805 43.4429 11.6013 43.4554 12.0264C43.456 12.0608 43.4499 12.095 43.4372 12.127C43.4246 12.159 43.4057 12.1881 43.3818 12.2127C43.3578 12.2372 43.3292 12.2567 43.2977 12.27C43.2662 12.2832 43.2325 12.2899 43.1984 12.2898C43.1742 12.2963 43.1491 12.299 43.1241 12.2978L43.1372 12.2838ZM36.6471 8.64714C36.5971 8.63596 36.5517 8.60978 36.5168 8.57202C36.4819 8.53426 36.4592 8.4867 36.4517 8.43555C36.4441 8.3844 36.452 8.33205 36.4744 8.28538C36.4968 8.2387 36.5326 8.19987 36.5771 8.17397C36.9594 7.9491 37.3735 7.78525 37.8049 7.68826L37.8331 7.68197C37.8991 7.66714 37.9681 7.67937 38.025 7.71596C38.0818 7.75255 38.1218 7.81052 38.1362 7.87711C38.1505 7.94369 38.138 8.01344 38.1015 8.07101C38.065 8.12857 38.0073 8.16925 37.9413 8.18408L37.9153 8.18901C37.534 8.27554 37.1678 8.42036 36.8292 8.61845C36.8005 8.63927 36.7678 8.65372 36.7332 8.66084C36.6987 8.66796 36.663 8.66759 36.6287 8.65976L36.6471 8.64714ZM42.3198 9.89535C42.2633 9.88091 42.2134 9.84722 42.1787 9.79994C42.0374 9.60873 41.8798 9.43046 41.7076 9.26718C41.5913 9.14958 41.4683 9.03881 41.3394 8.93543C41.3133 8.91453 41.2915 8.88862 41.2753 8.85917C41.2591 8.82972 41.2488 8.79732 41.2451 8.7638C41.2413 8.73028 41.2442 8.69631 41.2534 8.66382C41.2626 8.63134 41.2781 8.60097 41.2989 8.57447C41.3198 8.54796 41.3456 8.52584 41.3748 8.50935C41.4041 8.49285 41.4362 8.48232 41.4694 8.47836C41.5027 8.47439 41.5363 8.47706 41.5684 8.48623C41.6006 8.49539 41.6306 8.51086 41.6567 8.53176C41.799 8.64578 41.9349 8.76755 42.064 8.89652C42.2556 9.07917 42.4308 9.2786 42.5875 9.49252C42.6077 9.51934 42.6225 9.54997 42.6308 9.58265C42.6392 9.61532 42.6411 9.64939 42.6363 9.68286C42.6315 9.71633 42.6202 9.74855 42.603 9.77763C42.5858 9.80671 42.563 9.83207 42.5361 9.85225C42.5039 9.88163 42.465 9.90236 42.4229 9.91249C42.3807 9.92263 42.3368 9.92184 42.2952 9.91021L42.3198 9.89535ZM39.0965 8.08154C39.0343 8.06655 38.9801 8.02842 38.9447 7.97476C38.9094 7.9211 38.8954 7.85585 38.9056 7.79202C38.9158 7.72818 38.9495 7.67046 38.9998 7.63035C39.0502 7.59023 39.1136 7.57068 39.1774 7.57559C39.6264 7.60491 40.0682 7.70218 40.488 7.86415C40.5489 7.88976 40.5974 7.93833 40.6232 7.99959C40.6491 8.06085 40.6503 8.12999 40.6266 8.19238C40.6028 8.25476 40.556 8.3055 40.496 8.33385C40.4361 8.36219 40.3676 8.36592 40.3052 8.34426C39.9324 8.20186 39.5407 8.11535 39.1425 8.08746L39.0965 8.08154Z" fill="#58595B"/>
<path d="M47.6667 35.0528C47.5295 35.5933 47.3647 36.2424 47.4684 36.8076C45.9671 37.012 44.4483 36.6122 42.9623 36.4395C42.3514 36.3674 41.7298 36.3292 41.1159 36.2928L41.1064 35.6968C41.211 35.7233 41.3221 35.7069 41.4151 35.6511C41.508 35.5953 41.5753 35.5047 41.6021 35.3992C41.6289 35.2937 41.613 35.1819 41.5579 35.0885C41.5028 34.9951 41.4131 34.9277 41.3084 34.9012L41.3772 34.2581C42.4881 34.3721 43.5971 34.4936 44.6931 34.6584C45.7253 34.8131 46.7848 34.9869 47.7722 34.6136C47.7402 34.7635 47.6992 34.9091 47.6667 35.0528Z" fill="#F7941D"/>
<path d="M47.509 33.839C47.5118 33.8712 47.517 33.9032 47.5246 33.9345C46.2687 34.3945 44.9619 34.0082 43.6917 33.859C42.0723 33.6718 40.4434 33.5522 38.8203 33.3874C35.4078 33.0467 31.9759 32.6778 28.5432 32.6338C25.1503 32.5901 21.754 32.8436 18.3617 33.1039C16.8275 33.2246 15.3105 33.3671 13.7902 33.612C11.9386 33.9208 10.0845 34.2543 8.21368 34.0032C8.07897 33.7562 7.9965 33.4826 7.97153 33.1998C10.1925 33.2905 13.0192 33.2839 15.0678 32.289C15.2506 32.1972 15.1161 31.9118 14.9301 31.9639C12.5794 32.6308 10.2624 32.0581 7.93146 32.4828C7.92821 32.3086 7.928 32.145 7.92585 31.9965C7.91482 30.9254 7.97001 29.8539 8.0911 28.7884C8.26894 27.1608 8.44171 25.0821 9.24788 23.5595C9.4456 23.7753 9.63799 23.9896 9.82626 24.2127C8.77677 25.8935 8.25989 28.5274 8.63521 30.3617C8.73162 30.8418 9.43145 30.6203 9.34698 30.1529C9.0377 28.4251 9.46089 26.2873 10.1577 24.6045C11.0881 25.6956 11.9851 26.8211 12.9783 27.8522C13.0569 27.9293 13.1624 27.9716 13.272 27.97C13.3817 27.9683 13.4869 27.9229 13.5652 27.8435C16.738 24.3202 17.951 19.3861 19.6432 15.002C20.815 18.5145 21.8274 22.1015 23.7714 25.2648C23.8972 25.472 24.2628 25.5726 24.4277 25.3419C24.5191 25.221 24.6097 25.096 24.6967 24.9701C25.5388 23.7624 26.179 22.4372 26.9033 21.1548C27.6067 22.751 28.6435 24.171 29.6603 25.5722L29.8735 25.8619C29.9134 25.9283 29.9694 25.9828 30.0363 26.0202C30.1031 26.0576 30.1784 26.0767 30.255 26.0756C30.3315 26.0745 30.4068 26.0532 30.4734 26.0139C30.5401 25.9746 30.596 25.9185 30.6356 25.851C33.2396 22.0334 34.837 17.0956 38.4089 14.0417C39.1759 16.4194 39.9534 18.9126 40.3698 21.3551C40.6792 23.1726 40.7205 25.2531 41.9369 26.7206C42.0278 26.8106 42.1502 26.8599 42.2775 26.858C42.4048 26.8561 42.5268 26.803 42.6173 26.7103C44.1101 25.1751 45.5444 23.5862 46.9429 21.9667C47.3525 25.348 47.2598 28.7712 47.4083 32.1719C47.3613 32.1597 47.3122 32.1572 47.264 32.1644C46.1405 32.3348 45.0507 32.0582 43.9306 31.9685C42.9901 31.8893 42.0542 31.8815 41.1117 31.7727C41.0722 31.7648 41.0311 31.7714 40.9954 31.7912C40.9598 31.811 40.9319 31.8428 40.9166 31.8812C40.9012 31.9195 40.8994 31.9619 40.9113 32.0012C40.9233 32.0404 40.9483 32.074 40.9821 32.0961C41.7671 32.6382 42.9325 32.5797 43.8412 32.7169C45.0495 32.8932 46.1668 33.2782 47.3962 33.0646L47.4589 33.0493C47.4733 33.3139 47.49 33.5772 47.509 33.839ZM46.416 24.7597C46.4364 24.7162 46.4417 24.667 46.4309 24.6204C46.4201 24.5737 46.3939 24.5325 46.3567 24.5036C46.3195 24.4748 46.2735 24.46 46.2265 24.4618C46.1796 24.4636 46.1344 24.4819 46.0987 24.5136C45.4394 25.1738 44.7889 25.9336 43.9219 26.2977C43.566 26.4507 43.7212 27.0432 44.0838 26.8938C45.0772 26.4788 45.902 25.724 46.416 24.7597ZM37.1471 17.2089C37.1721 17.1652 37.1807 17.1138 37.1711 17.0645C37.1616 17.0153 37.1346 16.9715 37.0953 16.9416C37.0561 16.9117 37.0072 16.8977 36.9581 16.9023C36.909 16.9069 36.8631 16.9297 36.829 16.9665C34.6456 19.3448 33.6777 22.7229 31.952 25.4297C31.7777 25.7048 32.204 26.0447 32.401 25.7773C34.3466 23.1693 35.4578 19.9891 37.1471 17.2089ZM26.4347 24.391C26.5997 24.1077 26.8774 23.7245 26.8194 23.3845C26.781 23.1392 26.4516 23.2405 26.4241 23.4458C26.3627 23.5584 26.2894 23.6639 26.2057 23.7603L25.7953 24.3747C25.5464 24.7418 25.2115 25.1261 25.0831 25.557C25 25.8319 25.3897 26.0768 25.581 25.8392C25.9185 25.4147 26.1624 24.8652 26.4347 24.391ZM15.8651 27.6836C17.8218 25.0842 19.4821 22.1564 20.0978 18.9166C20.0973 18.8752 20.0836 18.8353 20.0587 18.8031C20.0338 18.7708 19.9991 18.7479 19.9599 18.7379C19.9208 18.728 19.8794 18.7315 19.8421 18.748C19.8048 18.7645 19.7737 18.7931 19.7535 18.8292C18.8431 21.9513 17.1996 24.6633 15.3823 27.3117C15.1838 27.6001 15.6509 27.9661 15.8651 27.6836Z" fill="#FFDE17"/>
<path d="M41.5082 35.7914L41.5195 36.3567C40.53 36.2975 39.5336 36.296 38.5413 36.2936C34.9772 36.2814 31.4187 36.4914 27.8554 36.56C24.4977 36.627 21.14 36.7018 17.7883 36.4401C14.3393 36.173 10.8921 35.937 7.43237 35.8265C7.52207 35.2445 7.68819 34.6512 7.73516 34.0623L7.75333 34.0669L7.78607 34.0752C11.0472 34.6325 14.4433 33.6825 17.7098 33.5097C21.3988 33.3118 25.0987 33.1089 28.8067 33.2556C32.4683 33.3943 36.1144 33.8228 39.7546 34.2211C40.4262 34.2975 41.0968 34.3699 41.7707 34.4373L41.701 35.0321C41.6002 35.0065 41.4934 35.0216 41.4042 35.0742C41.315 35.1268 41.2506 35.2126 41.2253 35.3125C41.1999 35.4125 41.2156 35.5185 41.2689 35.6073C41.3222 35.6961 41.4088 35.7604 41.5096 35.786L41.5082 35.7914ZM38.7696 35.2496C38.808 35.182 38.8266 35.105 38.8232 35.0274C38.8199 34.9497 38.7947 34.8744 38.7506 34.81C38.7065 34.7456 38.6452 34.6946 38.5736 34.6629C38.502 34.6312 38.4229 34.6199 38.3454 34.6304C38.2679 34.6409 38.1949 34.6727 38.1347 34.7222C38.0746 34.7717 38.0296 34.837 38.005 34.9107C37.9803 34.9844 37.9769 35.0635 37.9951 35.1392C38.0134 35.2149 38.0525 35.284 38.1082 35.3389L38.13 35.3598C38.174 35.4012 38.2268 35.4322 38.2845 35.4506C38.3421 35.469 38.4032 35.4743 38.4631 35.4661C38.523 35.4579 38.5802 35.4364 38.6305 35.4032C38.6808 35.37 38.7229 35.326 38.7536 35.2743C38.7536 35.2743 38.7618 35.2572 38.7664 35.2469L38.7696 35.2496ZM34.6809 35.6724C35.3064 35.8313 35.5518 34.8646 34.9263 34.7057C34.3008 34.5469 34.0499 35.5122 34.6773 35.6715L34.6809 35.6724ZM31.0312 35.4791C31.6949 35.6476 31.9536 34.6286 31.2899 34.4601C30.6263 34.2916 30.3657 35.3102 31.0276 35.4782L31.0312 35.4791ZM27.5925 35.0802C27.6289 34.9319 27.6055 34.7751 27.5273 34.6432C27.4763 34.5546 27.402 34.4814 27.3123 34.4315C27.2226 34.3817 27.121 34.3571 27.0184 34.3604L26.9907 34.363C26.8423 34.3703 26.7018 34.4308 26.5952 34.5333C26.5415 34.587 26.4994 34.651 26.4715 34.7215C26.4437 34.792 26.4306 34.8674 26.433 34.9432C26.4416 35.0514 26.478 35.1557 26.5387 35.2461C26.5995 35.3365 26.6826 35.41 26.78 35.4595C26.866 35.5023 26.9615 35.5225 27.0575 35.5183C27.1534 35.5141 27.2466 35.4856 27.3281 35.4354C27.4579 35.3545 27.5513 35.227 27.5888 35.0793L27.5925 35.0802ZM23.0809 35.4456C23.1525 35.407 23.2151 35.354 23.2647 35.2899C23.3143 35.2258 23.3498 35.152 23.369 35.0733C23.399 34.9377 23.3758 34.7957 23.304 34.6761C23.2322 34.5565 23.1173 34.4685 22.9826 34.43C22.9214 34.412 22.8574 34.4056 22.7939 34.4109C22.7087 34.4147 22.6255 34.4374 22.5503 34.4772C22.4752 34.5171 22.41 34.5731 22.3595 34.6412C22.3091 34.7093 22.2746 34.7878 22.2585 34.8709C22.2425 34.9541 22.2454 35.0398 22.267 35.1218C22.2921 35.201 22.3346 35.2736 22.3915 35.3345C22.4483 35.3955 22.5181 35.4431 22.5956 35.474C22.6732 35.5049 22.7567 35.5183 22.84 35.5132C22.9233 35.5082 23.0043 35.4848 23.0773 35.4447L23.0809 35.4456ZM18.9189 35.6617C19.0186 35.6866 19.1234 35.6817 19.22 35.6475C19.3167 35.6132 19.4008 35.5513 19.4618 35.4695C19.5228 35.3877 19.5579 35.2896 19.5627 35.1877C19.5675 35.0859 19.5418 34.9848 19.4888 34.8972C19.4358 34.8096 19.3579 34.7396 19.2649 34.6958C19.1719 34.6521 19.0681 34.6366 18.9665 34.6514C18.8649 34.6662 18.7702 34.7106 18.6942 34.779C18.6183 34.8474 18.5645 34.9367 18.5398 35.0356C18.5097 35.1674 18.532 35.3058 18.6019 35.4222C18.6718 35.5386 18.784 35.624 18.9152 35.6608L18.9189 35.6617ZM15.0288 35.3939C15.3264 35.5405 15.7728 35.3908 15.7566 35.0124C15.7504 34.883 15.6936 34.761 15.5983 34.6722C15.5029 34.5835 15.3767 34.535 15.2463 34.5372C14.7938 34.5202 14.623 35.1929 15.0251 35.393L15.0288 35.3939ZM11.5319 35.4448C11.6211 35.4445 11.7063 35.4091 11.7689 35.3463C11.8314 35.2835 11.8662 35.1986 11.8656 35.1101C11.865 35.0216 11.829 34.9368 11.7655 34.8744C11.702 34.812 11.6163 34.7772 11.5272 34.7774C11.438 34.7777 11.3528 34.8131 11.2902 34.8759C11.2276 34.9387 11.1928 35.0237 11.1935 35.1122C11.1941 35.2007 11.2301 35.2855 11.2936 35.3478C11.3571 35.4102 11.4428 35.4451 11.5319 35.4448ZM8.89646 35.2057C9.11447 35.1094 9.02773 34.7802 8.82408 34.7285C8.62043 34.6768 8.38715 34.9247 8.53281 35.1134C8.54764 35.1277 8.55842 35.1457 8.56409 35.1655C8.5774 35.1883 8.5952 35.2084 8.61641 35.2243C8.63762 35.2403 8.66181 35.2519 8.68758 35.2585C8.71335 35.265 8.74017 35.2664 8.76643 35.2624C8.79269 35.2585 8.81786 35.2494 8.84047 35.2356C8.85485 35.2217 8.87208 35.211 8.891 35.2043L8.89646 35.2057Z" fill="#F7941D"/>
<path d="M43.8042 26.8146C44.9478 26.5141 45.8668 25.8938 46.4028 25.0605C46.4237 25.0227 46.4263 24.9785 46.41 24.9355C46.3937 24.8925 46.3596 24.8533 46.3134 24.8244C46.2673 24.7954 46.2118 24.7786 46.1564 24.7767C46.101 24.7748 46.049 24.788 46.0092 24.814C45.2794 25.3615 44.5677 25.9997 43.57 26.2637C43.1565 26.3742 43.3847 26.9219 43.8042 26.8146Z" fill="#231F20"/>
<path d="M41.5148 35.0464C41.4521 35.0305 41.3861 35.0336 41.3252 35.0552C41.2642 35.0768 41.2111 35.116 41.1725 35.1679C41.1339 35.2198 41.1115 35.2819 41.1082 35.3465C41.105 35.411 41.121 35.4751 41.1542 35.5306C41.1874 35.5861 41.2363 35.6305 41.2947 35.6581C41.3531 35.6858 41.4185 35.6955 41.4824 35.686C41.5464 35.6765 41.6061 35.6482 41.654 35.6047C41.7018 35.5612 41.7357 35.5046 41.7513 35.4418C41.7713 35.3581 41.7578 35.2698 41.7136 35.1959C41.6694 35.1221 41.598 35.0684 41.5148 35.0464Z" fill="#231F20"/>
<path d="M38.0596 34.8653C37.9993 34.8749 37.943 34.9007 37.8969 34.9397C37.8507 34.9788 37.8165 35.0296 37.7979 35.0867C37.7793 35.1437 37.7771 35.2049 37.7914 35.2634C37.8058 35.322 37.8362 35.3757 37.8793 35.4188L37.8966 35.4352C37.9314 35.4676 37.9732 35.4919 38.0188 35.5064C38.0644 35.5209 38.1126 35.5252 38.1599 35.5189C38.2072 35.5127 38.2524 35.496 38.292 35.4702C38.3317 35.4444 38.3648 35.4101 38.3889 35.3699C38.3889 35.3699 38.3925 35.3558 38.3943 35.3488C38.4229 35.2961 38.4362 35.2366 38.4327 35.1768C38.4293 35.1169 38.4093 35.059 38.3748 35.0092C38.3403 34.9594 38.2927 34.9197 38.2372 34.8943C38.1816 34.8689 38.1202 34.8589 38.0596 34.8653Z" fill="#231F20"/>
<path d="M34.8624 34.7049C34.4404 34.5977 34.1189 35.8638 34.541 35.971C34.963 36.0781 35.2845 34.812 34.8624 34.7049Z" fill="#231F20"/>
<path d="M32.0066 25.7436C34.0347 23.1831 35.1608 20.0364 36.9146 17.3001C36.9405 17.257 36.9486 17.206 36.9373 17.1567C36.9261 17.1074 36.8963 17.0632 36.8536 17.0326C36.8109 17.002 36.7583 16.987 36.7058 16.9906C36.6532 16.9942 36.6044 17.016 36.5687 17.052C34.2772 19.3777 33.3088 22.7246 31.5145 25.3869C31.3372 25.6585 31.8009 26.006 32.0066 25.7436Z" fill="#231F20"/>
<path d="M31.2181 34.4537C30.3764 34.24 30.0526 35.5055 30.8966 35.7198C31.7407 35.9341 32.0645 34.6686 31.2181 34.4537Z" fill="#231F20"/>
<path d="M27.0984 34.1085L27.0677 34.1115C26.9036 34.1207 26.748 34.1896 26.6295 34.3055C26.5699 34.3663 26.523 34.4387 26.4918 34.5182C26.4606 34.5978 26.4456 34.6828 26.4479 34.7682C26.4572 34.8766 26.4907 34.9813 26.5459 35.0745C26.6011 35.1676 26.6766 35.2468 26.7666 35.3059L26.7916 35.3252C26.8038 35.334 26.8171 35.341 26.8312 35.3461C26.9261 35.3938 27.0316 35.4161 27.1377 35.4108C27.2438 35.4055 27.3469 35.3729 27.4373 35.316C27.5833 35.2256 27.6895 35.082 27.7336 34.9149C27.7747 34.7477 27.7497 34.5712 27.664 34.4231C27.6077 34.3231 27.5251 34.2408 27.4254 34.1853C27.3256 34.1298 27.2125 34.1032 27.0984 34.1085Z" fill="#231F20"/>
<path d="M25.2227 26.0209C25.5912 25.546 25.8598 24.9355 26.1589 24.4084C26.3401 24.0934 26.6445 23.6671 26.5832 23.2906C26.5427 23.0187 26.1832 23.1328 26.1523 23.3606C26.0847 23.4857 26.0044 23.603 25.9126 23.7104L25.4624 24.3937C25.1893 24.802 24.8225 25.2298 24.6803 25.7081C24.6034 26.0193 25.0246 26.2884 25.2227 26.0209Z" fill="#231F20"/>
<path d="M22.8384 34.348C22.8041 34.3365 22.7664 34.3383 22.7273 34.3533C22.675 34.3672 22.6209 34.403 22.5691 34.458C22.5174 34.513 22.4694 34.5857 22.4288 34.6704C22.3883 34.7552 22.3562 34.8497 22.3352 34.9467C22.3142 35.0437 22.3048 35.1406 22.3077 35.2299C22.3106 35.3191 22.3257 35.3984 22.3519 35.4615C22.3781 35.5246 22.4146 35.5698 22.4587 35.5938C22.5028 35.6177 22.5532 35.6196 22.6061 35.5994C22.659 35.5792 22.7129 35.5374 22.7637 35.4773C22.8123 35.4237 22.8576 35.3552 22.8967 35.276C22.9357 35.1968 22.9675 35.1088 22.9902 35.0176C23.028 34.8578 23.0332 34.6986 23.0049 34.5737C22.9766 34.4488 22.9169 34.3679 22.8384 34.348Z" fill="#231F20"/>
<path d="M19.0207 34.7259C18.8956 34.6942 18.7686 34.6816 18.6557 34.6899C18.5429 34.6983 18.4492 34.727 18.3866 34.7726C18.3239 34.8182 18.2951 34.8786 18.3038 34.9461C18.3124 35.0136 18.3581 35.0853 18.4352 35.152C18.5123 35.2187 18.6172 35.2775 18.7367 35.321C18.8562 35.3645 18.985 35.3907 19.1067 35.3963C19.2285 35.4019 19.3378 35.3867 19.4208 35.3525C19.5038 35.3183 19.5568 35.2668 19.5731 35.2043C19.592 35.12 19.5449 35.023 19.4418 34.9337C19.3387 34.8444 19.1877 34.7699 19.0207 34.7259Z" fill="#231F20"/>
<path d="M15.3816 27.5775C17.3653 24.9965 19.0437 22.0858 19.6516 18.8567C19.6509 18.8154 19.6366 18.7755 19.6109 18.7431C19.5852 18.7107 19.5496 18.6877 19.5094 18.6775C19.4693 18.6673 19.427 18.6705 19.3889 18.6868C19.3509 18.703 19.3193 18.7312 19.299 18.7672C18.3888 21.8768 16.7262 24.5723 14.8854 27.2032C14.6843 27.4897 15.1645 27.858 15.3816 27.5775Z" fill="#231F20"/>
<path d="M15.2767 34.4622C14.9703 34.4544 14.848 34.9358 15.121 35.0752C15.3231 35.1773 15.6292 35.0669 15.6213 34.797C15.6181 34.7047 15.5803 34.6181 15.516 34.5556C15.4516 34.4931 15.3658 34.4596 15.2767 34.4622Z" fill="#231F20"/>
<path d="M11.8097 34.9275C11.7668 34.9277 11.7244 34.9364 11.6848 34.953C11.6453 34.9696 11.6094 34.9939 11.5793 35.0243C11.5491 35.0548 11.5252 35.0909 11.509 35.1306C11.4928 35.1703 11.4846 35.2129 11.4848 35.2557C11.485 35.2986 11.4937 35.341 11.5103 35.3806C11.5269 35.4201 11.5511 35.456 11.5816 35.4862C11.6121 35.5163 11.6482 35.5402 11.6879 35.5564C11.7276 35.5726 11.7701 35.5809 11.813 35.5806C11.8996 35.5802 11.9825 35.5454 12.0434 35.4838C12.1044 35.4222 12.1384 35.339 12.1379 35.2524C12.1375 35.1658 12.1026 35.0829 12.0411 35.022C11.9795 34.961 11.8963 34.9271 11.8097 34.9275Z" fill="#231F20"/>
</svg>
